<svg xmlns="http://www.w3.org/2000/svg" viewBox="-89 1389 4071 1342"><title>Jumping Panda (R) - horizontal header</title><path fill="#fff" d="M544 1481c-20.9 3.8-37.7 10-55.2 20.3-41.4 24.3-66.1 57.7-75.5 101.7-2.6 12.2-2.6 50.2.1 64.5 6.9 37.9 22.6 61.9 48.9 75.1 6.5 3.3 6.7 3.5 5.3 5.7-2.6 3.9-8.8 18.9-12.7 30.4-6.9 20.4-10 37.4-16 86.8-2.5 21.4-3.4 26.4-5 28.1-1.1 1.1-26.2 18-55.9 37.5l-93.3 61.1c-29.3 19.3-40 25.8-42.2 25.8a79 79 0 0 1-12.8-2.5c-11.9-3-28.2-4.1-39.4-2.6-37.9 4.9-72.5 35-81.4 71-1.8 7-2.1 10.6-1.7 21.5.4 11.9.8 14.1 4.1 23.8 5.5 15.7 5.5 15.5-6.1 26.8-5.3 5.3-18.2 16-28.7 24-48.5 36.7-51 40.1-61.9 83.7-12.3 49-14.1 62.1-13.3 95.5 1.5 55.6 14.1 87.6 41.2 104.7 9.4 6 18.9 8.2 38.5 9.1 15.8.7 19.4 1.2 36.5 5.3 62.3 14.9 101.3 21.4 146.3 24.3a32 32 0 0 1 11.6 1.9c.7.8 1.6 5 2 9.7 4.1 51.1 30.9 98.8 65.1 116.1 21.1 10.6 44.1 12.4 76 5.8 68.7-14.1 187.1-50.8 299-92.5 24-8.9 26.1-9.5 43.7-12.1a295 295 0 0 0 94.1-34.1c15.4-8.4 47.7-27.4 57.7-33.9a285 285 0 0 0 42.6-35.9c23.2-23.2 29.9-31.5 61.3-75.9 9.2-13 16.4-19.4 38.6-34a665 665 0 0 0 21.5-14.7c12.2-8.9 27.1-15.8 54.5-25.1a881 881 0 0 0 153-69.1c40.2-23 89.1-52.7 96.6-58.6 30.3-24.1 46.9-67.8 45.6-119.7a77 77 0 0 0-3.1-26.8c-9.6-32-32.2-54.2-66.9-65.7-7.9-2.6-8.1-2.9-9.1-15a524 524 0 0 0-15.6-84c-9-33.2-18.2-58.1-40.5-110-8-18.5-14.5-34.4-14.5-35.4s1.3-3.6 2.9-5.9c14-20.5 17.4-48.8 9.6-79.7a124 124 0 0 0-37.6-62.5 143 143 0 0 0-73.4-38.2 195 195 0 0 0-49.5-.4 143 143 0 0 0-46.2 17.7 17 17 0 0 1-7.1 2.4c-1.8 0-17.9-2.9-35.7-6.5-56.5-11.3-81.9-15.2-114.5-17.4-75-5.1-157.4.6-226 15.6-25.6 5.6-32.6 3.9-48.7-11.4a87 87 0 0 0-30.3-20.4c-14.2-5.9-21.2-7-45-7.5a136 136 0 0 0-31.5 1.6m3144 117.2a171 171 0 0 0-111.4 52.6 185 185 0 0 0-49.8 99.2 234 234 0 0 0 4.2 85.9 177 177 0 0 0 99.4 119.7 210 210 0 0 0 92.5 16c82.3-4 153.5-68 167.7-150.6 1.8-11 2.6-36.2 1.1-41.3a10 10 0 0 0-4-4.7c-3.1-1.9-5.5-2-91.2-2-86.5 0-88.1 0-91.3 2-5.6 3.4-6.2 6.3-6.2 30.7 0 19.8.2 22.1 2 25 3.9 6.4 2.9 6.3 46.6 7.3 45.4 1.1 53.8 1.6 53 3.6a108 108 0 0 1-28.6 32.1 117 117 0 0 1-62.5 18.3c-38.8 0-69.9-18-87-50.3a115 115 0 0 1-13.2-52.2q-3-64.3 43.2-95.2a74 74 0 0 1 20.4-10.3 96 96 0 0 1 38.1-6.3 97 97 0 0 1 84.8 44.2c6.7 9.7 12.6 14.4 20.3 16 3.7.8 13.2.8 34 .1 27.7-1 33.5-1.7 35.1-4.3 1.7-2.7.6-11.1-2.6-21-13.4-41-44.7-75.3-88.1-96.6-32.1-15.8-65.5-21.5-106.5-17.9m-1173 7.3a29 29 0 0 0-14.5 11.5c-1.3 2-11 23.4-21.5 47.6-47.9 109.3-65 146.4-67.5 146.4-.6 0-8.5-17.6-45-100.6-45-102.2-42-95.6-45.3-98.9-5.8-5.8-5.9-5.8-40.7-5.7l-34.2.1c-2.7.1-8.2 4.6-9.4 7.8-1 2.6-8.9 49.3-14.4 84.8l-5.5 35.5-6.5 42-10 65-10 65-5.5 35.6c-2.3 13.9-.8 19.3 5.8 21.1 1.5.5 16.9.8 34.2.8 35.1 0 35.3 0 40.5-6.9 2.7-3.6 3.8-8.4 7-32.1l5.5-38.5 5-34.5c1.1-8.1 8.2-56.5 10.4-70.5.8-5.2 2.5-13.2 3.7-17.8 4.4-16.4 4.2-16.8 46.9 76.8 44.9 98.5 52.5 114.1 58 119.1q10.3 9.6 21.7-.5c4.8-4.2 5.4-5.4 19-35.1l21.1-46 19.7-43 9.2-20c11.2-24.4 17.3-37.3 23.7-50.8 8.6-18 9.3-18 12.3-.2 2.7 15.7 15.4 100 22.8 151.3 5.6 38.9 6.2 41.4 11.6 45.4 4.3 3.2 9.4 3.8 35.4 3.8 39.6 0 43.2-1.1 42.8-13.4-.1-3.6-.9-10.4-1.7-15.3-1.5-8.5-6.8-42-12.1-76.8l-9.5-61-5-32-6-38.5-15.1-97c-2.4-15.8-3.2-18.2-7-21.4-3.4-2.9-7.9-3.3-42.4-4-17.9-.4-24-.2-27.5.9m668-.4c-4.7.4-9.6 1.2-11 1.7-5.9 2.3-5.5-8.8-6 157.1-.5 139.6-.6 152.9-2.2 156.3-2.8 6.3-5.1 7.1-22.2 7.9s-23.2 2.4-27.2 7.2c-5.4 6.4-11 22.5-14.8 42.7l-18.8 100c-7.9 43.5-8.5 45.2-16.5 49.1-2.4 1.1-12.5 3.6-22.7 5.4-27.6 5-37.7 8.1-55.6 17-15.9 8-26.7 15.9-40 29.4a169 169 0 0 0-18.3 21.2c-17 25.6-27.4 54.1-34.8 94.9-3.7 21-6.8 33.3-10.4 42.6-8.3 21-46.9 91.7-54.4 99.7-5.4 5.8-8.4 7.1-11.9 5.3a33 33 0 0 1-10.6-11.2c-.9-3.4-3.7-15.6-5.8-26.4-2.6-12.9-3.5-53.3-1.9-81.5l2.8-58.7c1.9-45.1 1.2-70.5-2.7-94.3-3.9-24.3-12.7-41.5-27.3-53.5-15.6-12.9-39.4-16.5-61.9-9.4-28 8.8-40.7 22.5-76.1 81.7a752 752 0 0 1-24.2 38.5c-.1.1-1 0-1.9-.4-1.5-.6-1.6-5.6-1.6-56.3 0-56-.4-64.3-3.7-70.9-3.2-6.4-6.7-7.7-23.3-8q-29.5-.7-37.1 4.3c-6.9 4.5-7.8 7.7-11.4 39.5l-3.5 31c-3.9 33.2-6 54.6-9 87.7a760 760 0 0 1-4.5 41.9c-2.2 11.5-6.7 24-12 33.4-2.3 4.1-7.3 13.6-11 21-7 14-14.9 28.6-41.8 77.5-19.5 35.6-21.6 39.1-26.1 43.4-3.3 3.2-3.6 3.3-4.3 1.5-1.1-2.7-.7-62.6.6-94.4l2.1-53.5 2.7-72a2829 2829 0 0 0 1.7-84c.1-42.3.2-41.9-5.6-47.2-4.6-4.2-8.6-4.6-35.4-3.4-13.7.6-39.3 1.4-56.9 1.7-34.2.5-46.3 1.8-58.3 5.8q-40 13.7-63.8 58.1a75 75 0 0 1-15 21.8c-9.5 9.4-22.9 14.1-43.9 15.3l-11 .6-2.5-2.6c-2-2.2-3.7-7.7-8.6-27.4-8.4-33.9-13.5-46.1-24.7-58.9a78 78 0 0 0-38.3-24.5 82 82 0 0 0-38.7 0c-17.5 5-29.9 13-45.7 29.6a348 348 0 0 1-30.9 30.6c-.6 0-.7-15.6-.4-41.3.5-36.4.4-41.9-1-46.8a17 17 0 0 0-13.6-12.8c-8.8-1.9-42.8 3-50.4 7.2-7.5 4.2-8 5.9-16.1 53.7-20.3 119.5-23.5 182.6-17.6 350.5 1.9 51.9 6.4 92.6 15.1 134.4 5.7 27.2 7.7 28.6 39.4 27.8 20.8-.5 24.8-1.3 30.1-5.9 7.6-6.7 8.6-12.5 7.3-43-1.8-43.5-3.7-155.8-2.7-159.4 1.5-5.6 4.2-6.6 20.1-7.5 53.8-2.9 87.9-21.8 122.7-68 16-21.2 26.4-41.2 34.5-65.9 5.4-16.4 6.5-18.9 10.8-24.4 6.3-8 15.2-12 33.5-15 11.6-2 15.7-2 17.6 0 2 1.9 2 3.8 0 21a309 309 0 0 0 1 63.9c5.2 32.7 13.4 50.9 26.7 59.7 9.4 6.1 16 8.1 27.9 8.1 9.1 0 11.3-.3 17-2.6 13.3-5.5 21.9-14.7 47.9-51.2l15.2-21.7q3.6-5.6 5.3-2.9c.3.5 1.5 10.3 2.6 21.7 6.5 67.9 10.4 90.4 20.5 117.5 10.3 27.5 20.9 42 37.2 50.6 11.5 6 18.8 7.6 31.9 7.1a60 60 0 0 0 30.4-8.5c7.1-4.2 19-15.3 23.7-22.3 3.4-5.1 16.3-28.4 27.3-49.5 15.8-30.3 20-38.1 22.4-41l2.5-3 1.6 3.8c.8 2.1 2.5 9.7 3.6 17q6.6 44 9.2 48.1a17 17 0 0 0 5 4.6c2.9 1.8 5.1 2 24.7 2 22.6 0 27.7-.6 31.9-3.8 5.8-4.3 5.2-2.4 28.2-99.7 14.2-60.4 16.6-69.5 24.5-94a389 389 0 0 1 52.8-107.5c10.8-15.3 19.9-24.6 25-25.5q6.7-1.3 10 3.7c2.6 3.9 5.6 35 6.4 65.5.4 15.1.3 42.9-.2 61.6s-.9 52.6-1 75.2c-.1 38.5 0 41.7 2.1 53 9.3 49.4 22.9 69.3 51.5 75 28.1 5.6 58.2-4.4 74.4-24.7 6.6-8.2 27.7-41 39.8-62.1a34 34 0 0 1 3.1-4.7c.2 0 3 2.2 6.2 4.8 19.1 15.8 33.4 22.9 51 25.2a69 69 0 0 0 64.8-29.4c5.8-8.3 7.9-12.7 19-39.8a386 386 0 0 1 19.1-42.5c.2.2 1.9 14 3.9 30.7 11.8 100.4 22.2 144.5 46 193.5 11 22.8 18.5 31.6 32.9 38.4a55 55 0 0 0 61.3-11.1c10.6-10.9 16.8-26 29.3-71.3a10719 10719 0 0 1 25.8-91.3l3.7-11.4 8.4 7c20.1 16.7 38.1 20.2 56.7 11.1 12.6-6.2 24.1-19.3 46.4-52.9 12.2-18.4 16.7-24.4 17.3-23.3.8 1.4 2.6 15.9 5.3 41.3 7.5 72.5 16.3 107 33 130.7 8.6 12 23 22.1 37 25.7 7.8 2 21.2 2.1 28.9.1 18.5-4.7 32.9-16.4 47.9-39 7.2-10.8 60.5-117.6 81.9-164l10.8-23.5c8.5-18.7 7.8-25.9-3.2-31.4-5.7-2.8-12.4-3.4-16.2-1.5-6.5 3.4-5 .7-57 98.9a2270 2270 0 0 1-57.4 104.3c-6.1 8.1-7.6 7.7-9.4-2.4-1-5.7-1-13.7-.1-40.3 3.2-86 7-227.3 7.5-274.6.2-18 0-19.8-1.8-23-3.8-6.3-7.3-7.5-21.5-7.4-6.9.1-22.2.6-34 1.2s-32.8 1.2-46.6 1.2c-34.8 0-45.4 1.9-63 11.5-34.5 18.8-59.5 51.7-72.9 96.2-1.9 6.3-5.3 21-7.4 32.6a640 640 0 0 1-14.1 58.2c-1.3 5.2-3.4 12.5-30.5 108-21.9 77.2-22.9 80.6-25.8 85.5-2.1 3.7-7.7 10-8.7 10-.4 0-2-5.1-3.6-11.3l-2.9-11.2v-107c0-105.8.6-137.5 4.5-220.5l3-68.5c4.9-116.4 5.6-128.6 7.3-132.8 2.8-6.6 4.7-7.1 27.2-7.8 17.1-.4 20.7-.8 24-2.5 7.6-3.7 7.1 3 7.8-104.9a2846 2846 0 0 1 1.6-98.2c1-1.9 3.2 1.1 59.4 78.7 83.9 115.9 85.8 118.4 97.3 123.7 4.7 2.1 7.4 2.6 17.7 3 6.7.2 18.2 0 25.5-.4 12.2-.9 13.5-1.1 15.8-3.4q2.4-2.6 3.5-8c1.5-7.4 2.4-276.1 1.1-312.2-1.1-28.5-1.4-30-6.4-32.9-3.6-2-64.3-1.8-68.3.2-6.3 3.2-5.9-1.7-6.5 102.5-.3 52.2-.7 95.1-.8 95.2q-.3.3-1.6.3c-2.6 0-2.7 0-91.9-125a2585 2585 0 0 0-47.6-65.3 30 30 0 0 0-17.5-9.6c-6.7-1.2-33.5-1.2-46.6 0M2038 2142q6.5 1.8 13.4 13.4c8.3 13.8 10.6 24.9 11.3 55.4l.6 22.3-4.4 4.2a27 27 0 0 1-9.4 5.8l-27 9.4-24.5 8.5-21.4 7.4a328 328 0 0 1-19.3 6.3c-.7-.8 7.2-21.9 13.4-35.7 23.6-52.4 33.7-72.8 39.8-80.3 7.4-9.1 17.4-16.6 23.5-17.6.3-.1 2.1.4 4 .9m287.3 15.4c4.2 1.8 6.3 4.2 7.6 9.1 1.5 5.6-2.3 23.5-7.9 38-2.4 6-20.5 43.3-40.2 82.8-31.7 63.2-36.5 72.4-41.2 77.4-6.2 6.6-7.6 6.6-10.9-.4-2-4.3-2.2-6.2-2.1-19.3.7-66.2 18.5-121.8 52.9-164.8a71 71 0 0 1 32-22.8c5.2-1.7 6-1.7 9.8 0m1084.4.6c5.4 3.3 6.8 6.4 6.6 15-.2 8.4-4.4 26.4-8.8 37.5a2295 2295 0 0 1-58.2 115.5c-19 36.5-18.9 36.3-24.9 39.9-3.1 1.8-6 2.9-6.4 2.5-.5-.5-1.8-3.7-2.9-7.1-2.4-7.1-2.6-15.1-1.1-33.8 4.2-49.9 15.3-88.1 35.3-121.5 12.5-20.8 22.2-32.2 35.5-41.7 11-7.9 19-10 24.9-6.3m-350.7 10.5c1 1.2-6 19.6-39.5 103.5-22.4 56.1-41 102.2-41.4 102.4s-2 .2-3.7-.1l-3-.5-2-11.6a376 376 0 0 1-.1-77.2c6.7-39 22-71.4 44.2-93.5 11-11 19.6-16.7 31.7-21 10.8-3.8 12.1-4 13.8-2m-1010.6 117.2a145 145 0 0 1-18.7 44.6c-14.7 25.5-28.5 41.4-46.4 53.3-14.6 9.8-26.3 9.1-36.3-2.2s-9.3-23.9 2.1-40.8c11.9-17.8 29.6-30.1 70.4-48.7 20-9.1 21.6-9.7 26.3-9.8 3.3-.1 3.3-.1 2.6 3.6M1844 1606.1c-2.5.5-5.5 2-7 3.4l-2.5 2.5-.8 43.3c-.9 49.9 0 165 1.3 181.3 1.8 21.2 7.3 42 15 57.5 13.7 27.2 36.7 50 62.3 61.9a169 169 0 0 0 60.1 14.9c76 4.9 137.2-34.8 154.6-100.4 3.6-13.9 5-26.2 6.1-56.5 1.5-38.8.6-197-1.1-201.8-2.4-6.5-3.6-6.7-40.5-6.7-29.8 0-33.4.2-35.8 1.7-1.4 1-3.1 2.7-3.8 3.9-.8 1.5-1.2 25.5-1.5 83.3-.4 91.7-1.6 137.6-3.9 149.3q-6.7 34.2-43 46.4c-6 2.1-8.8 2.4-20 2.3-11.7 0-13.8-.3-20.3-2.8-26.6-10-40.6-27.6-44-55.6-.7-5.1-1.4-50.5-1.8-114.3l-.7-105.8-2.1-3.2a13 13 0 0 0-5.6-4.4c-4.1-1.4-57.9-1.6-65-.2m875-.2c-19 .7-21.4 1.5-22.7 7.8-.4 2.1-.8 79.7-.8 172.5v168.7l2.1 2.8c4.2 5.7 5 5.8 39.4 5.8 28.2 0 31.8-.2 34.7-1.8 6.3-3.4 6.3-3.1 7.1-53.3l.7-45.6 3.2-2.8c4.5-4 8.2-4.7 28.8-5.5 22.3-.8 46.1-3 55.1-5 25-5.7 45.8-16.9 61.4-33.2 21.1-21.9 31.9-48.5 33.7-82.9 2.9-54.4-29.9-104.5-78.7-120.4-13.6-4.4-24.8-6-48.5-7-24-1-87.1-1-115.5-.1m111.5 78.2c24.5 2.1 35 8.2 43.2 25.4a47.3 47.3 0 0 1-20.4 60.6c-8 4.6-16.1 5.9-37.8 5.9-32.5 0-35.1-1.1-36.6-15.1-1.2-11-.1-68.5 1.3-72.3.6-1.5 2.5-3.7 4.2-4.8 2.8-1.8 4.3-1.9 18.1-1.3 8.3.3 20.9 1.1 28 1.6m191-78.2c-7.2.9-10 2.5-11.7 6.6-1 2.4-1.3 37-1.3 172 0 159.7.1 169.2 1.8 172.2 3.6 6.6 4.7 6.8 39.2 6.8 29 0 31.3-.1 35-2 7.6-3.8 7 11 7.3-176.1.2-133.3 0-169-1-171.9-.7-2.1-2.5-4.7-4-5.8-2.6-2-4.4-2.1-31-2.3a536 536 0 0 0-34.3.5m-1329.5 3a14 14 0 0 0-3.4 5.2c-.3 1.3-.9 54.1-1.4 117.4-.9 114.8-.9 115-3.1 122.5-6.5 21.8-20.4 35.3-39.3 38.3a44 44 0 0 1-38.2-12.4c-7.8-7.3-12.1-15.4-17.6-33.8-7-22.8-4.5-21.6-43.3-21.3-33.5.1-35.2.4-38.2 6.9-2.7 5.6-1.6 32.3 1.9 45.6a116 116 0 0 0 30.3 53.4q28.6 28.7 66 38a91 91 0 0 0 29.8 2.8c16.3-.1 20.5-.4 29.5-2.4 31.5-7.1 58.1-20.8 75.1-38.8a93 93 0 0 0 25.9-62.8c1.5-21.6 2.9-104.7 3.2-182.2l.3-73.2-2.9-3-3-3.1h-68.8zM3642 2034a89 89 0 0 0-75.6 64.6 62 62 0 0 0-2.8 22.9 78 78 0 0 0 6.5 35.7 90 90 0 0 0 61.4 51.9c11.4 2.7 29.8 3 39.7.6a90 90 0 0 0 61.2-48.4 72 72 0 0 0 8.1-38.8c0-13.6-.3-17.1-2.3-23.8a91 91 0 0 0-52.7-58.8 94 94 0 0 0-43.5-5.9m32.5 18.4a77 77 0 0 1 45.6 41.5 73 73 0 0 1-15.1 80 73.3 73.3 0 0 1-126.1-43.2 74 74 0 0 1 32.7-69.6 66 66 0 0 1 42.9-11.7c9.5.3 13.7.9 20 3m-60.5 70.1v47.5h21v-37h13c16.1 0 19.3 1 21.9 7.2 1.1 2.4 2.4 9 3 14.7 1.8 16.5.6 15.1 12.7 15.1 10.3 0 10.5 0 9.3-2.1-.6-1.2-1.7-8.2-2.4-15.7-1.6-15.9-3.8-21.5-9.8-24.7-4.2-2.3-4.5-3.1-1.8-4 10.6-3.3 15.7-21.9 9.5-34.3a24 24 0 0 0-14.6-12.6c-4.2-1.3-9.9-1.6-33.4-1.6H3614zm51.5-30.1q7 2.8 6.9 12.1c0 11-4.4 13.5-23.9 13.5H3635v-27h13.5c9.4 0 14.6.4 17 1.4"/><path d="M544 1481c-20.9 3.8-37.7 10-55.2 20.3-41.4 24.3-66.1 57.7-75.5 101.7-2.6 12.2-2.6 50.2.1 64.5 6.9 37.9 22.6 61.9 48.9 75.1 6.5 3.3 6.7 3.5 5.3 5.7-2.6 3.9-8.8 18.9-12.7 30.4-6.9 20.4-10 37.4-16 86.8-2.5 21.4-3.4 26.4-5 28.1-1.1 1.1-26.2 18-55.9 37.5l-93.3 61.1c-29.3 19.3-40 25.8-42.2 25.8a79 79 0 0 1-12.8-2.5c-11.9-3-28.2-4.1-39.4-2.6-37.9 4.9-72.5 35-81.4 71-1.8 7-2.1 10.6-1.7 21.5.4 11.9.8 14.1 4.1 23.8 5.5 15.7 5.5 15.5-6.1 26.8-5.3 5.3-18.2 16-28.7 24-48.5 36.7-51 40.1-61.9 83.7-12.3 49-14.1 62.1-13.3 95.5 1.5 55.6 14.1 87.6 41.2 104.7 9.4 6 18.9 8.2 38.5 9.1 15.8.7 19.4 1.2 36.5 5.3 62.3 14.9 101.3 21.4 146.3 24.3a32 32 0 0 1 11.6 1.9c.7.8 1.6 5 2 9.7 4.1 51.1 30.9 98.8 65.1 116.1 21.1 10.6 44.1 12.4 76 5.8 68.7-14.1 187.1-50.8 299-92.5 24-8.9 26.1-9.5 43.7-12.1a295 295 0 0 0 94.1-34.1c15.4-8.4 47.7-27.4 57.7-33.9a285 285 0 0 0 42.6-35.9c23.2-23.2 29.9-31.5 61.3-75.9 9.2-13 16.4-19.4 38.6-34a665 665 0 0 0 21.5-14.7c12.2-8.9 27.1-15.8 54.5-25.1a881 881 0 0 0 153-69.1c40.2-23 89.1-52.7 96.6-58.6 30.3-24.1 46.9-67.8 45.6-119.7a77 77 0 0 0-3.1-26.8c-9.6-32-32.2-54.2-66.9-65.7-7.9-2.6-8.1-2.9-9.1-15a524 524 0 0 0-15.6-84c-9-33.2-18.2-58.1-40.5-110-8-18.5-14.5-34.4-14.5-35.4s1.3-3.6 2.9-5.9c14-20.5 17.4-48.8 9.6-79.7a124 124 0 0 0-37.6-62.5 143 143 0 0 0-73.4-38.2 195 195 0 0 0-49.5-.4 143 143 0 0 0-46.2 17.7 17 17 0 0 1-7.1 2.4c-1.8 0-17.9-2.9-35.7-6.5-56.5-11.3-81.9-15.2-114.5-17.4-75-5.1-157.4.6-226 15.6-25.6 5.6-32.6 3.9-48.7-11.4a87 87 0 0 0-30.3-20.4c-14.2-5.9-21.2-7-45-7.5a136 136 0 0 0-31.5 1.6m352.6 42c45.3 2.6 114 11.8 157.3 20.9 58.5 12.4 110.6 39.5 145.4 75.6 19.5 20.1 28.7 34.5 53.6 83.8 43.5 86.2 68.6 163.7 74.1 229.2 5.9 70.7-17 121.3-71.1 157q-62.4 41-167.4 70a964 964 0 0 1-132.6 27c-21.4 2.6-26.9 3.8-26.9 6 0 .9 3.8 1.6 13 2.5 7.2.8 13.3 1.7 13.6 2.1.8 1.3-10.7 6.7-18.8 8.8a188 188 0 0 1-63.2 2.6 374 374 0 0 1-40-7.3l-2.9-.8 4.1-1.8c4.4-2 6.1-4.4 4-5.8-.7-.4-4.4-.5-8.3-.1-10 1.1-53 .7-69.8-.7a672 672 0 0 1-131.9-26.4l-12.3-3.6c-1.3 0-.3-1.8 1.3-2.3.9-.3 10.5-4.1 21.2-8.5 90.5-37 155-76.8 191.9-118.6a146 146 0 0 0 26.4-37.9c8.8-18.8 14.2-61.4 10.4-82.2-.8-4.4-1.2-8.3-.8-8.7s9.2-4.1 19.6-8.3c37.5-15.1 59.3-29.1 82.2-52.8 23.5-24.4 31.5-41.5 31.6-67.2.1-18-3.7-32.5-13.9-52.8-20.7-41.1-56.3-64-103.4-66.4a113 113 0 0 0-88.6 35.3c-28.7 28.8-43.4 65.8-46.7 117.5-.7 10.3-1.5 18.9-1.7 19.1-.3.2-7.5 2.1-16 4.1a130 130 0 0 0-43 18.2c-25.6 15.6-226 115.5-231.8 115.5-2.4 0-1-47 2.3-78.9 2.3-21.7 6.9-50.3 13-80.6a679 679 0 0 1 13.4-58.4c.5-.8 4.3-1.7 9.6-2.3 9.6-1 22.2-4.6 30-8.5 10.5-5.3 18.5-10.6 18.5-12.2 0-3.3 3.3-6.1 12-10.5a213 213 0 0 0 118-156.1c2.8-15.6 3.4-16.5 10.8-16.5a191 191 0 0 0 39.2-6.5c24.6-6 53.1-10.3 82.5-12.4 17.6-1.2 71.5-1.3 92.1-.1m-310.4 27.3c3.1 1.5 7.8 5.1 10.6 8.1 5.6 5.9 7.2 10.6 5.5 16.6-2.4 9-21.6 34.8-52.8 71-22.8 26.4-31 33.3-39.9 33.3-7 0-8.7-3.5-14.2-27.8a57 57 0 0 1 1.6-35.7c10.5-32.7 35.7-59.3 63.8-67.4a41 41 0 0 1 25.4 1.9m352.5 171.2a39 39 0 0 1 16.5 16.1 59 59 0 0 1 6.2 29.9 45 45 0 0 1-13.6 35.6c-6.9 6.6-11.1 8.4-20.3 8.4-9.5 0-14.2-2.1-21-9.1a56 56 0 0 1-12-48.8c5.6-26.3 25.6-40.8 44.2-32.1M755 1870.9a14 14 0 0 1-.5 22.7c-3.2 2.1-10.2 2.1-14.2 0-9.2-4.7-8.1-20.9 1.7-24.3 4.2-1.5 9.6-.8 13 1.6m44.8 13.6c10 4.2 14.3 14.4 8.6 20.2-2.2 2.2-3.2 2.5-7.4 2.1-8.8-.9-16-7.9-16-15.5 0-7.2 6.5-10.2 14.8-6.8m-37.3 33.9c5.3 2.4 8.9 5.5 14.5 12.5 3.4 4.2 3.7 4.3 11 5.1q12.9 1.2 16.9 6.9c7.2 10.3 4.2 26.5-7.1 38.7-14.6 15.5-34.3 18.1-53.4 6.9a51 51 0 0 1-21.6-46.8c1.6-8.5 7.8-20.6 11.9-22.9 7.2-4.2 19-4.4 27.8-.4m75 .9q5.6 5.7 4 14.4c-.4 2.2-2 5-4 7-7.7 7.7-19.5 1.3-19.5-10.7s11.8-18.4 19.5-10.7m517.5 68.8c3.9 2.2 8 8.2 8 11.7 0 7.7-7.6 11.4-15.6 7.6q-7.6-3.8-7.7-12.2c0-8.2 7.3-11.6 15.3-7.1m-1042.5 72.8a333 333 0 0 0 39.6 118.6c41.5 75.7 105.6 137.4 187.9 180.8 93.1 49 200 70.5 311.5 62.6 18.4-1.3 34.4-3.2 60-7.3 30-4.8 28.5-4.7 28.5-3.1 0 4.5-39.7 32.3-85 59.4-23.3 14-28.2 16.5-39.6 20.4-24.3 8.4-50.9 11.7-95.4 11.7-44.8 0-87.5-4.8-143-16.1a406 406 0 0 1-160-66.5c-58.4-38.8-111.3-88.9-140.5-132.9a335 335 0 0 1-53.5-177.7c.1-25.4 3.6-53.4 7.4-59.1 2.3-3.3 2.5-3.4 48.6-31l30.5-18.2.7 23c.3 12.6 1.4 28.6 2.3 35.4m1077.8-44.8c3.3 1.5 4.8 4.4 5.4 10.5 1.4 13.1-7.5 21.8-15 14.8-3.5-3.2-4.7-6.3-4.7-12 0-10.7 6.6-16.8 14.3-13.3m-56.7 21.4c4 2.3 4.9 2.5 12.7 1.9 10-.8 14.4.8 17.9 6.5 2.1 3.2 2.3 4.9 2.3 15.6 0 11.1-.2 12.5-2.8 18-5 10.6-12.4 16.5-25.7 20.5-6.7 2-8.2 2.1-14.6 1.2-12-1.9-18.1-4.7-25.1-11.8-8.4-8.3-8.5-10.9-1.2-20.9 2.8-3.9 8.7-12.3 13.1-18.8a98 98 0 0 1 10.1-13.2c3.2-2.2 8.5-1.8 13.3 1m-1181 48c7.9 4.9 7.7 5.7-7.6 25.7a227 227 0 0 1-13.8 17.3c-1.5 0-4.4-12.9-4.9-22-.6-10.9.8-20.5 3.4-23.1 1.3-1.3 3.3-1.5 9.8-1.2 7 .3 8.9.7 13.1 3.3m820.7-465.1c-7 3.2-7.9 11.6-2.3 19.5a39 39 0 0 0 31.8 13.6c8.8-1.3 13.6-9.9 9.8-17.4a40 40 0 0 0-15.1-13.9c-6.2-3.2-19-4.1-24.2-1.8m131.8 12.7c-11.8 3.6-20.1 15.5-16.1 23 1.4 2.6 6.2 4.9 10.2 4.9 6.8 0 19.1-7.8 22.4-14.1 2.1-4.1 1.8-10.2-.6-12.4s-10.9-2.9-15.9-1.4m50.9 65.3c-27.8 8.3-49.9 32.9-57.7 64.2a99 99 0 0 0-1.7 23.9c-.1 19.2 1 24.8 7 37.1 11 22.4 43.8 47.8 75.7 58.6a68 68 0 0 0 35.1 2.4c23.6-5.6 44-27.7 50.8-55.1 2.8-11.5 3.1-35.8.5-47.2a123 123 0 0 0-32.1-59.8 90 90 0 0 0-41.7-24.9 82 82 0 0 0-35.9.8m12.5 43c14.6 7.1 23 22.9 22.9 43.6q0 25.2-15 38.9c-19.1 17.5-45.7 4.8-52-24.8-5.1-24.2 4.3-49.5 21.6-57.8a28 28 0 0 1 22.5.1m-6.4 12.5c-3.5 3.5-4.8 7.4-5.3 15.6-.9 14.5 1.3 17.5 11.6 15.5 10.4-2.1 11.8-3.3 14-13q.7-2.4-2.9-8.5c-4.6-8-5.7-9.2-8.9-10.5-4-1.5-6.4-1.2-8.5.9m-121.7 81.5c-18.8 7-20.7 9-15.9 17.1 3 5.3 12.2 12.4 19.2 15.2a52 52 0 0 0 28.6-.1c5.4-2.7 8-6.9 8.5-13.7.8-10.9-4-16.2-18.2-19.8-10.3-2.7-11.4-2.6-22.2 1.3m16.1 78.9a87 87 0 0 1-40.5 19.1 43 43 0 0 0-8.8 2.1c-.9.9 3.7 4.3 7 5 5.5 1.3 5.5 1.9 0 24.3-7.2 29.1-8.5 36.4-8.5 47.2a62 62 0 0 0 6.4 28.8c5.8 12 12.9 17.7 23.6 18.8 15.8 1.7 26-7.1 35.8-30.5 11.3-26.8 14.2-59.7 7.5-83.9-1.1-3.9-2-7.5-2-8s2.5-2 5.5-3.5c5.8-2.8 7.1-4.7 3.2-4.7-5.2 0-12.1-3.4-17.2-8.4a64 64 0 0 1-6.6-7.4l-1.4-2.3zm-18.2 59.5c14 7.6 24.4 28.1 23.5 46.6q-.9 20-16.9 28.1c-8.8 4.5-15.1 3-19.9-4.6-8.2-12.7-11.7-35.1-8.9-57 1.2-9.4 3.5-14.4 7.2-15.9 3.3-1.4 9.4-.3 15 2.8m-106.4-236.1a30 30 0 0 0-6.4 17c-.7 6.3-.5 7.6 1.4 10.7 2.6 4.1 5 5.1 9.4 3.8 1.7-.6 4.9-1.3 6.9-1.6 4.2-.8 8.3-4.9 9.3-9.5.8-3.6-4.1-14.4-8.4-18.5-3.7-3.6-9.9-4.6-12.2-1.9M3688 1598.2a171 171 0 0 0-111.4 52.6 185 185 0 0 0-49.8 99.2 234 234 0 0 0 4.2 85.9 177 177 0 0 0 99.4 119.7 210 210 0 0 0 92.5 16c82.3-4 153.5-68 167.7-150.6 1.8-11 2.6-36.2 1.1-41.3a10 10 0 0 0-4-4.7c-3.1-1.9-5.5-2-91.2-2-86.5 0-88.1 0-91.3 2-5.6 3.4-6.2 6.3-6.2 30.7 0 19.8.2 22.1 2 25 3.9 6.4 2.9 6.3 46.6 7.3 45.4 1.1 53.8 1.6 53 3.6a108 108 0 0 1-28.6 32.1 117 117 0 0 1-62.5 18.3c-38.8 0-69.9-18-87-50.3a115 115 0 0 1-13.2-52.2q-3-64.3 43.2-95.2a74 74 0 0 1 20.4-10.3 96 96 0 0 1 38.1-6.3 97 97 0 0 1 84.8 44.2c6.7 9.7 12.6 14.4 20.3 16 3.7.8 13.2.8 34 .1 27.7-1 33.5-1.7 35.1-4.3 1.7-2.7.6-11.1-2.6-21-13.4-41-44.7-75.3-88.1-96.6-32.1-15.8-65.5-21.5-106.5-17.9m-1173 7.3a29 29 0 0 0-14.5 11.5c-1.3 2-11 23.4-21.5 47.6-47.9 109.3-65 146.4-67.5 146.4-.6 0-8.5-17.6-45-100.6-45-102.2-42-95.6-45.3-98.9-5.8-5.8-5.9-5.8-40.7-5.7l-34.2.1c-2.7.1-8.2 4.6-9.4 7.8-1 2.6-8.9 49.3-14.4 84.8l-5.5 35.5-6.5 42-10 65-10 65-5.5 35.6c-2.3 13.9-.8 19.3 5.8 21.1 1.5.5 16.9.8 34.2.8 35.1 0 35.3 0 40.5-6.9 2.7-3.6 3.8-8.4 7-32.1l5.5-38.5 5-34.5c1.1-8.1 8.2-56.5 10.4-70.5.8-5.2 2.5-13.2 3.7-17.8 4.4-16.4 4.2-16.8 46.9 76.8 44.9 98.5 52.5 114.1 58 119.1q10.3 9.6 21.7-.5c4.8-4.2 5.4-5.4 19-35.1l21.1-46 19.7-43 9.2-20c11.2-24.4 17.3-37.3 23.7-50.8 8.6-18 9.3-18 12.3-.2 2.7 15.7 15.4 100 22.8 151.3 5.6 38.9 6.2 41.4 11.6 45.4 4.3 3.2 9.4 3.8 35.4 3.8 39.6 0 43.2-1.1 42.8-13.4-.1-3.6-.9-10.4-1.7-15.3-1.5-8.5-6.8-42-12.1-76.8l-9.5-61-5-32-6-38.5-15.1-97c-2.4-15.8-3.2-18.2-7-21.4-3.4-2.9-7.9-3.3-42.4-4-17.9-.4-24-.2-27.5.9m668-.4c-4.7.4-9.6 1.2-11 1.7-5.9 2.3-5.5-8.8-6 157.1-.5 139.6-.6 152.9-2.2 156.3-2.8 6.3-5.1 7.1-22.2 7.9s-23.2 2.4-27.2 7.2c-5.4 6.4-11 22.5-14.8 42.7l-18.8 100c-7.9 43.5-8.5 45.2-16.5 49.1-2.4 1.1-12.5 3.6-22.7 5.4-27.6 5-37.7 8.1-55.6 17-15.9 8-26.7 15.9-40 29.4a169 169 0 0 0-18.3 21.2c-17 25.6-27.4 54.1-34.8 94.9-3.7 21-6.8 33.3-10.4 42.6-8.3 21-46.9 91.7-54.4 99.7-5.4 5.8-8.4 7.1-11.9 5.3a33 33 0 0 1-10.6-11.2c-.9-3.4-3.7-15.6-5.8-26.4-2.6-12.9-3.5-53.3-1.9-81.5l2.8-58.7c1.9-45.1 1.2-70.5-2.7-94.3-3.9-24.3-12.7-41.5-27.3-53.5-15.6-12.9-39.4-16.5-61.9-9.4-28 8.8-40.7 22.5-76.1 81.7a752 752 0 0 1-24.2 38.5c-.1.1-1 0-1.9-.4-1.5-.6-1.6-5.6-1.6-56.3 0-56-.4-64.3-3.7-70.9-3.2-6.4-6.7-7.7-23.3-8q-29.5-.7-37.1 4.3c-6.9 4.5-7.8 7.7-11.4 39.5l-3.5 31c-3.9 33.2-6 54.6-9 87.7a760 760 0 0 1-4.5 41.9c-2.2 11.5-6.7 24-12 33.4-2.3 4.1-7.3 13.6-11 21-7 14-14.9 28.6-41.8 77.5-19.5 35.6-21.6 39.1-26.1 43.4-3.3 3.2-3.6 3.3-4.3 1.5-1.1-2.7-.7-62.6.6-94.4l2.1-53.5 2.7-72a2829 2829 0 0 0 1.7-84c.1-42.3.2-41.9-5.6-47.2-4.6-4.2-8.6-4.6-35.4-3.4-13.7.6-39.3 1.4-56.9 1.7-34.2.5-46.3 1.8-58.3 5.8q-40 13.7-63.8 58.1a75 75 0 0 1-15 21.8c-9.5 9.4-22.9 14.1-43.9 15.3l-11 .6-2.5-2.6c-2-2.2-3.7-7.7-8.6-27.4-8.4-33.9-13.5-46.1-24.7-58.9a78 78 0 0 0-38.3-24.5 82 82 0 0 0-38.7 0c-17.5 5-29.9 13-45.7 29.6a348 348 0 0 1-30.9 30.6c-.6 0-.7-15.6-.4-41.3.5-36.4.4-41.9-1-46.8a17 17 0 0 0-13.6-12.8c-8.8-1.9-42.8 3-50.4 7.2-7.5 4.2-8 5.9-16.1 53.7-20.3 119.5-23.5 182.6-17.6 350.5 1.9 51.9 6.4 92.6 15.1 134.4 5.7 27.2 7.7 28.6 39.4 27.8 20.8-.5 24.8-1.3 30.1-5.9 7.6-6.7 8.6-12.5 7.3-43-1.8-43.5-3.7-155.8-2.7-159.4 1.5-5.6 4.2-6.6 20.1-7.5 53.8-2.9 87.9-21.8 122.7-68 16-21.2 26.4-41.2 34.5-65.9 5.4-16.4 6.5-18.9 10.8-24.4 6.3-8 15.2-12 33.5-15 11.6-2 15.7-2 17.6 0 2 1.9 2 3.8 0 21a309 309 0 0 0 1 63.9c5.2 32.7 13.4 50.9 26.7 59.7 9.4 6.1 16 8.1 27.9 8.1 9.1 0 11.3-.3 17-2.6 13.3-5.5 21.9-14.7 47.9-51.2l15.2-21.7q3.6-5.6 5.3-2.9c.3.5 1.5 10.3 2.6 21.7 6.5 67.9 10.4 90.4 20.5 117.5 10.3 27.5 20.9 42 37.2 50.6 11.5 6 18.8 7.6 31.9 7.1a60 60 0 0 0 30.4-8.5c7.1-4.2 19-15.3 23.7-22.3 3.4-5.1 16.3-28.4 27.3-49.5 15.8-30.3 20-38.1 22.4-41l2.5-3 1.6 3.8c.8 2.1 2.5 9.7 3.6 17q6.6 44 9.2 48.1a17 17 0 0 0 5 4.6c2.9 1.8 5.1 2 24.7 2 22.6 0 27.7-.6 31.9-3.8 5.8-4.3 5.2-2.4 28.2-99.7 14.2-60.4 16.6-69.5 24.5-94a389 389 0 0 1 52.8-107.5c10.8-15.3 19.9-24.6 25-25.5q6.7-1.3 10 3.7c2.6 3.9 5.6 35 6.4 65.5.4 15.1.3 42.9-.2 61.6s-.9 52.6-1 75.2c-.1 38.5 0 41.7 2.1 53 9.3 49.4 22.9 69.3 51.5 75 28.1 5.6 58.2-4.4 74.4-24.7 6.6-8.2 27.7-41 39.8-62.1a34 34 0 0 1 3.1-4.7c.2 0 3 2.2 6.2 4.8 19.1 15.8 33.4 22.9 51 25.2a69 69 0 0 0 64.8-29.4c5.8-8.3 7.9-12.7 19-39.8a386 386 0 0 1 19.1-42.5c.2.2 1.9 14 3.9 30.7 11.8 100.4 22.2 144.5 46 193.5 11 22.8 18.5 31.6 32.9 38.4a55 55 0 0 0 61.3-11.1c10.6-10.9 16.8-26 29.3-71.3a10719 10719 0 0 1 25.8-91.3l3.7-11.4 8.4 7c20.1 16.7 38.1 20.2 56.7 11.1 12.6-6.2 24.1-19.3 46.4-52.9 12.2-18.4 16.7-24.4 17.3-23.3.8 1.4 2.6 15.9 5.3 41.3 7.5 72.5 16.3 107 33 130.7 8.6 12 23 22.1 37 25.7 7.8 2 21.2 2.1 28.9.1 18.5-4.7 32.9-16.4 47.9-39 7.2-10.8 60.5-117.6 81.9-164l10.8-23.5c8.5-18.7 7.8-25.9-3.2-31.4-5.7-2.8-12.4-3.4-16.2-1.5-6.5 3.4-5 .7-57 98.9a2270 2270 0 0 1-57.4 104.3c-6.1 8.1-7.6 7.7-9.4-2.4-1-5.7-1-13.7-.1-40.3 3.2-86 7-227.3 7.5-274.6.2-18 0-19.8-1.8-23-3.8-6.3-7.3-7.5-21.5-7.4-6.9.1-22.2.6-34 1.2s-32.8 1.2-46.6 1.2c-34.8 0-45.4 1.9-63 11.5-34.5 18.8-59.5 51.7-72.9 96.2-1.9 6.3-5.3 21-7.4 32.6a640 640 0 0 1-14.1 58.2c-1.3 5.2-3.4 12.5-30.5 108-21.9 77.2-22.9 80.6-25.8 85.5-2.1 3.7-7.7 10-8.7 10-.4 0-2-5.1-3.6-11.3l-2.9-11.2v-107c0-105.8.6-137.5 4.5-220.5l3-68.5c4.9-116.4 5.6-128.6 7.3-132.8 2.8-6.6 4.7-7.1 27.2-7.8 17.1-.4 20.7-.8 24-2.5 7.6-3.7 7.1 3 7.8-104.9a2846 2846 0 0 1 1.6-98.2c1-1.9 3.2 1.1 59.4 78.7 83.9 115.9 85.8 118.4 97.3 123.7 4.7 2.1 7.4 2.6 17.7 3 6.7.2 18.2 0 25.5-.4 12.2-.9 13.5-1.1 15.8-3.4q2.4-2.6 3.5-8c1.5-7.4 2.4-276.1 1.1-312.2-1.1-28.5-1.4-30-6.4-32.9-3.6-2-64.3-1.8-68.3.2-6.3 3.2-5.9-1.7-6.5 102.5-.3 52.2-.7 95.1-.8 95.2q-.3.3-1.6.3c-2.6 0-2.7 0-91.9-125a2585 2585 0 0 0-47.6-65.3 30 30 0 0 0-17.5-9.6c-6.7-1.2-33.5-1.2-46.6 0M2038 2142q6.5 1.8 13.4 13.4c8.3 13.8 10.6 24.9 11.3 55.4l.6 22.3-4.4 4.2a27 27 0 0 1-9.4 5.8l-27 9.4-24.5 8.5-21.4 7.4a328 328 0 0 1-19.3 6.3c-.7-.8 7.2-21.9 13.4-35.7 23.6-52.4 33.7-72.8 39.8-80.3 7.4-9.1 17.4-16.6 23.5-17.6.3-.1 2.1.4 4 .9m287.3 15.4c4.2 1.8 6.3 4.2 7.6 9.1 1.5 5.6-2.3 23.5-7.9 38-2.4 6-20.5 43.3-40.2 82.8-31.7 63.2-36.5 72.4-41.2 77.4-6.2 6.6-7.6 6.6-10.9-.4-2-4.3-2.2-6.2-2.1-19.3.7-66.2 18.5-121.8 52.9-164.8a71 71 0 0 1 32-22.8c5.2-1.7 6-1.7 9.8 0m1084.4.6c5.4 3.3 6.8 6.4 6.6 15-.2 8.4-4.4 26.4-8.8 37.5a2295 2295 0 0 1-58.2 115.5c-19 36.5-18.9 36.3-24.9 39.9-3.1 1.8-6 2.9-6.4 2.5-.5-.5-1.8-3.7-2.9-7.1-2.4-7.1-2.6-15.1-1.1-33.8 4.2-49.9 15.3-88.1 35.3-121.5 12.5-20.8 22.2-32.2 35.5-41.7 11-7.9 19-10 24.9-6.3m-350.7 10.5c1 1.2-6 19.6-39.5 103.5-22.4 56.1-41 102.2-41.4 102.4s-2 .2-3.7-.1l-3-.5-2-11.6a376 376 0 0 1-.1-77.2c6.7-39 22-71.4 44.2-93.5 11-11 19.6-16.7 31.7-21 10.8-3.8 12.1-4 13.8-2m-1010.6 117.2a145 145 0 0 1-18.7 44.6c-14.7 25.5-28.5 41.4-46.4 53.3-14.6 9.8-26.3 9.1-36.3-2.2s-9.3-23.9 2.1-40.8c11.9-17.8 29.6-30.1 70.4-48.7 20-9.1 21.6-9.7 26.3-9.8 3.3-.1 3.3-.1 2.6 3.6M1844 1606.1c-2.5.5-5.5 2-7 3.4l-2.5 2.5-.8 43.3c-.9 49.9 0 165 1.3 181.3 1.8 21.2 7.3 42 15 57.5 13.7 27.2 36.7 50 62.3 61.9a169 169 0 0 0 60.1 14.9c76 4.9 137.2-34.8 154.6-100.4 3.6-13.9 5-26.2 6.1-56.5 1.5-38.8.6-197-1.1-201.8-2.4-6.5-3.6-6.7-40.5-6.7-29.8 0-33.4.2-35.8 1.7-1.4 1-3.1 2.7-3.8 3.9-.8 1.5-1.2 25.5-1.5 83.3-.4 91.7-1.6 137.6-3.9 149.3q-6.7 34.2-43 46.4c-6 2.1-8.8 2.4-20 2.3-11.7 0-13.8-.3-20.3-2.8-26.6-10-40.6-27.6-44-55.6-.7-5.1-1.4-50.5-1.8-114.3l-.7-105.8-2.1-3.2a13 13 0 0 0-5.6-4.4c-4.1-1.4-57.9-1.6-65-.2m875-.2c-19 .7-21.4 1.5-22.7 7.8-.4 2.1-.8 79.7-.8 172.5v168.7l2.1 2.8c4.2 5.7 5 5.8 39.4 5.8 28.2 0 31.8-.2 34.7-1.8 6.3-3.4 6.3-3.1 7.1-53.3l.7-45.6 3.2-2.8c4.5-4 8.2-4.7 28.8-5.5 22.3-.8 46.1-3 55.1-5 25-5.7 45.8-16.9 61.4-33.2 21.1-21.9 31.9-48.5 33.7-82.9 2.9-54.4-29.9-104.5-78.7-120.4-13.6-4.4-24.8-6-48.5-7-24-1-87.1-1-115.5-.1m111.5 78.2c24.5 2.1 35 8.2 43.2 25.4a47.3 47.3 0 0 1-20.4 60.6c-8 4.6-16.1 5.9-37.8 5.9-32.5 0-35.1-1.1-36.6-15.1-1.2-11-.1-68.5 1.3-72.3.6-1.5 2.5-3.7 4.2-4.8 2.8-1.8 4.3-1.9 18.1-1.3 8.3.3 20.9 1.1 28 1.6m191-78.2c-7.2.9-10 2.5-11.7 6.6-1 2.4-1.3 37-1.3 172 0 159.7.1 169.2 1.8 172.2 3.6 6.6 4.7 6.8 39.2 6.8 29 0 31.3-.1 35-2 7.6-3.8 7 11 7.3-176.1.2-133.3 0-169-1-171.9-.7-2.1-2.5-4.7-4-5.8-2.6-2-4.4-2.1-31-2.3a536 536 0 0 0-34.3.5m-1329.5 3a14 14 0 0 0-3.4 5.2c-.3 1.3-.9 54.1-1.4 117.4-.9 114.8-.9 115-3.1 122.5-6.5 21.8-20.4 35.3-39.3 38.3a44 44 0 0 1-38.2-12.4c-7.8-7.3-12.1-15.4-17.6-33.8-7-22.8-4.5-21.6-43.3-21.3-33.5.1-35.2.4-38.2 6.9-2.7 5.6-1.6 32.3 1.9 45.6a116 116 0 0 0 30.3 53.4q28.6 28.7 66 38a91 91 0 0 0 29.8 2.8c16.3-.1 20.5-.4 29.5-2.4 31.5-7.1 58.1-20.8 75.1-38.8a93 93 0 0 0 25.9-62.8c1.5-21.6 2.9-104.7 3.2-182.2l.3-73.2-2.9-3-3-3.1h-68.8zM3642 2034a89 89 0 0 0-75.6 64.6 62 62 0 0 0-2.8 22.9 78 78 0 0 0 6.5 35.7 90 90 0 0 0 61.4 51.9c11.4 2.7 29.8 3 39.7.6a90 90 0 0 0 61.2-48.4 72 72 0 0 0 8.1-38.8c0-13.6-.3-17.1-2.3-23.8a91 91 0 0 0-52.7-58.8 94 94 0 0 0-43.5-5.9m32.5 18.4a77 77 0 0 1 45.6 41.5 73 73 0 0 1-15.1 80 73.3 73.3 0 0 1-126.1-43.2 74 74 0 0 1 32.7-69.6 66 66 0 0 1 42.9-11.7c9.5.3 13.7.9 20 3m-60.5 70.1v47.5h21v-37h13c16.1 0 19.3 1 21.9 7.2 1.1 2.4 2.4 9 3 14.7 1.8 16.5.6 15.1 12.7 15.1 10.3 0 10.5 0 9.3-2.1-.6-1.2-1.7-8.2-2.4-15.7-1.6-15.9-3.8-21.5-9.8-24.7-4.2-2.3-4.5-3.1-1.8-4 10.6-3.3 15.7-21.9 9.5-34.3a24 24 0 0 0-14.6-12.6c-4.2-1.3-9.9-1.6-33.4-1.6H3614zm51.5-30.1q7 2.8 6.9 12.1c0 11-4.4 13.5-23.9 13.5H3635v-27h13.5c9.4 0 14.6.4 17 1.4"/></svg>