<svg xmlns="http://www.w3.org/2000/svg" viewBox="0 0 4000 4000"><title>Jumping Panda (R) - reversed</title><path fill="#fff" d="M1692.5 66.6a361 361 0 0 0-170.3 52.3q-128.3 77.8-159 213.1c-6.6 28.8-7.6 39-7.6 76.5 0 29.6.3 36.1 2.2 50.5 2.5 18.7 8 46.6 11.7 59.7a248 248 0 0 0 38.6 79.5 204 204 0 0 0 57.9 50.2l-3.9 8.8a526 526 0 0 0-33.1 107.7 2659 2659 0 0 0-19 141.1 119 119 0 0 1-3.3 19.7c-.7.6-12.9 8.8-27.2 18.2a99066 99066 0 0 0-280.5 184l-51.1 33.5-14.6 9.6-11.9-3.4c-23.4-6.7-34.5-8.1-65.9-8.1-18.3 0-31 .5-36.5 1.3-59.3 9.2-119 48.2-153.3 100.2a188 188 0 0 0-32.9 106.5c-.1 23.9 5.2 50.9 14.1 72.4l3.1 7.3-6.1 6.7c-11.8 13-26.2 24.9-65.4 54.6-53.4 40.4-70.1 54.5-84.7 71.4a184 184 0 0 0-34.3 57.1 2209 2209 0 0 0-32.5 130.8 762 762 0 0 0-9.1 61.2c-2 20-2.3 68.6-.5 90.2 3.9 47.4 13.8 96 25.2 123.5a186 186 0 0 0 46.9 68.4 157 157 0 0 0 75.5 36.1c8.5 1.5 18.8 2.2 39 2.8 29 .9 31.4 1.2 59 7.9 124.5 30.1 227.1 47.7 301 51.6 18.1.9 17.8.8 18.4 5.8 3 24 4.1 31.5 7.1 46.2a363 363 0 0 0 43.2 112c54.5 92.2 138 132.6 238.3 115.4 53.5-9.2 120.4-25.5 206.5-50.3a5739 5739 0 0 0 437-145.2c49.2-18.3 51.1-18.9 67.5-21a463 463 0 0 0 100.5-23.1 780 780 0 0 0 150.5-70.1c27-15.7 61.7-36.2 71-42 58.4-36.1 108.3-81.4 166.7-151.3 14.6-17.6 32.3-41.6 55.1-74.9 29.7-43.3 36.6-50.1 81.2-79a632 632 0 0 0 43.5-30.1c23.5-18.3 57.5-34.9 96-46.9a1737 1737 0 0 0 234-96c55.9-27.8 97.8-51.1 177.5-98.8l74-44c37.2-21.8 50.9-32 70.7-52.5 40.3-41.8 67.4-102.9 77.2-173.7 4.5-33.2 5.4-82.7 1.7-105.5A214 214 0 0 0 3406 1052a276 276 0 0 0-72-40l-11.7-4.4c-.1-.1-1.4-10.8-2.8-23.7a1104 1104 0 0 0-57.6-247c-15.1-43.3-28.8-77.1-61.4-151.9l-16.6-38.4-5.8-14 3.8-6.1c22-34.8 32.2-81.2 28.1-127.5a285 285 0 0 0-85.5-183.3 320 320 0 0 0-186.6-92.7c-47-5.9-95.3-1.1-138.3 13.7a332 332 0 0 0-52.2 24.4l-8.2 5.1-62.4-12.6c-124.2-25-166.3-31.5-240.8-37.1-60-4.5-161.7-4.7-226.5-.5a1580 1580 0 0 0-242.2 32.5c-27 6.2-36.6 7.3-45.8 5.6-11.2-2.1-17.5-6-30-18.4-20-20-32.7-30-52.1-40.6Q1801 73.8 1751 68.6a559 559 0 0 0-58.5-2m1482 2606.5a245 245 0 0 0-71.3 18.4 196 196 0 0 0-58.2 41.4 217 217 0 0 0-62.7 123.1c-2.7 17.9-2.5 53.7.6 74 6.1 40.6 19 72.7 41.4 102.6 39.6 53 97.4 81.4 171.2 84.1a206 206 0 0 0 154.9-59.7 207 207 0 0 0 41.3-53.5 175 175 0 0 0 15.2-35.2 181 181 0 0 0 9.9-65c-.3-12.5-.5-14.5-2.4-17-4.6-6.1 1.9-5.8-111.9-5.8h-104l-3.6 2.3c-7 4.3-7.4 6.2-7.4 36.7 0 25.4.1 27.2 2 30.5 4.3 7.3 4 7.2 49.3 8.1 42 .8 68.1 1.8 69.4 2.6 1.2.7-11.1 18.3-17.6 25.2a123 123 0 0 1-63.6 33.7 191 191 0 0 1-46 1.5 111 111 0 0 1-86.5-62.6c-10.3-20.9-13.7-37.3-13.7-66 0-27.7 4.3-47.1 14.6-65.7 20.6-37.3 59.5-59.1 105.6-59.2 42.4-.1 77.8 18.2 100.7 52 10.8 15.8 16.7 19.5 32.8 20.2 5.5.2 22.7-.1 38.3-.6 23.8-.9 28.9-1.4 32-2.9l3.7-1.8-.1-7.5c0-5.5-.9-10.3-3.4-18a214 214 0 0 0-23.6-47.1A221 221 0 0 0 3224 2673a356 356 0 0 0-49.5.1m-1386.5 7.6a32 32 0 0 0-22.4 13.6c-2 2.8-8.6 16.7-14.7 30.7-18.4 42.2-30.2 69.2-47.9 109l-13.5 30.5c-2.9 6.6-6.9 15.6-9 20l-7.7 17.5c-3.5 8.2-13.4 24.8-14.3 23.8-.5-.5-11.3-24.4-18.5-40.8l-14.3-32.5a12993 12993 0 0 0-41.2-93.5l-16.2-37c-14-31.9-15.5-34.3-23.8-38.1-3.7-1.7-7.3-1.9-42.5-1.9-38 0-38.6 0-43 2.2a14 14 0 0 0-6.3 5.9 326 326 0 0 0-6.6 32c-5.2 30.1-11.1 67.5-31.6 200.9l-9.1 58.5c-11 69.9-15.6 101.2-16.1 109.5-.5 7.6-.3 8.8 1.6 11.2 3.6 4.5 8.7 5 49.1 4.6 36.2-.3 36.5-.3 40.3-2.6 2-1.3 4.9-4.4 6.4-6.9 2.4-4.1 3.3-9.3 9.9-54.7 22.6-156.7 23.2-161 26.7-173.6 1.9-6.9 2.7-8.6 4.4-8.8 2.9-.4 9.8 9.4 15.6 22.3l13 28.5 21.5 47c50.1 109.9 63 136.9 68.6 142.9a18.4 18.4 0 0 0 22.3 4c8-3.9 9.7-6.7 30.3-51.9l13.5-29.5 16.5-36 13.8-30c45.6-99.3 47.7-103.7 50.5-103.3 1.9.3 2.4 1.9 4.9 15.8 1.5 8.5 4.8 29.2 7.3 46l8.9 60 9.1 62c7.5 52.2 8.1 55.6 10.7 60.2 1.4 2.6 3.8 4.9 6.3 6.2 3.8 2 5.8 2.1 39.9 2.4 39 .3 44.8-.2 48.7-4.4 3.9-4.1 3.6-10.5-2-44.9-2.8-17.1-6.8-42.9-9-57.5l-7-45.1c-1.7-10.2-4.8-30.4-7-45l-9-57.9c-10.4-65.7-19.2-122.1-21.6-139-2.8-18.9-4.9-24.9-9.8-28.4-2.6-1.9-4.8-2.2-26.5-2.8-13-.3-28.9-.8-35.2-1.1-6.3-.2-12.6-.2-14 0m792.2.4c-16.8 1.1-21.4 2.5-24 7.3-1.6 2.9-1.7 16-2.2 183.6-.5 178-.5 180.6-2.5 184.5-3.4 6.8-6.3 7.7-25.9 8.6-18.5.7-23.4 1.6-28.7 5.2-8.9 5.9-16 25.5-22.9 62.6l-7.5 40.1-5.6 30c-1.6 9.1-5 26.8-7.4 39.5l-6.5 34.4c-3.1 16.8-6.7 22.5-16 25.6-2.5.8-14.2 3.3-26 5.5-33.9 6.3-46.2 10.2-68.7 22-38.2 20-67.5 53.4-86.2 98.4-8.4 20.2-13.7 39.9-20.7 77.1a217 217 0 0 1-22.2 68.9c-12.9 26.3-46.5 86.6-52.5 94.1-3.9 4.9-10.8 8.8-14.1 7.9-3.4-.8-10.8-8.2-13-12.9-1.9-3.9-6.4-24.9-9.3-42.8-2.1-13.4-2.3-55.9-.5-90.2 3.9-70.6 4.4-86.7 3.9-119.9-.5-36-2.3-55.5-6.7-72.7-7.7-29.9-27.3-52.8-53-61.5a127 127 0 0 0-44.8-.1 98 98 0 0 0-40.8 21.5c-13.5 11.7-27.4 31.4-56.2 79.2-22.1 36.9-26 42.5-29.2 42.5h-2.5l-.5-72-.5-72-2.5-5c-4.4-8.8-11.4-11.5-29.3-11.5-19.9.1-35.3 1.6-40.2 4-5.3 2.5-10.1 8-11.5 13-1 3.3-4.8 34.5-10.4 83.5-3.5 30.2-7.1 67.3-9.6 96.5-4.2 50.9-7.3 64.2-20.9 89-3.8 6.9-9.5 17.7-12.6 24a1633 1633 0 0 1-33.5 62.5c-36.2 66.3-39 71.1-45 77l-5.7 5.7-1.3-11.3c-1.4-11.9-1.3-17.4 1.5-93.9 3.2-87.1 6.1-170.8 7.6-220.5 1.2-38.3.7-78.3-1.1-84.6q-2-7.3-9.3-11.2c-3.9-2.1-5.3-2.2-20.7-1.9-9.1.1-24.8.7-35 1.2s-33.6 1.3-52 1.5c-37.2.6-47.7 1.5-61.1 5.1-34.8 9.3-61.9 33.4-84 74.8-10.4 19.4-22.1 30.1-38.9 35.5-3.6 1.2-13.1 2.9-21.1 3.9-25.3 3.1-25 3.4-33-31.3-8.1-35.3-16.2-55.7-28.3-70.8a89.4 89.4 0 0 0-104.5-27.5c-17.1 6.7-23.1 11.5-53.6 42.2l-26 26.1-.5-52.5c-.4-39.5-.8-53.2-1.8-55.4-5.1-11.6-13.6-14.8-32.7-12.6-27.8 3.2-42 6.7-46.8 11.8-4.7 4.9-6.4 11.2-12.6 46.2a1562 1562 0 0 0-24.3 196c-1.7 26-1.7 158.9 0 209.5 2.6 76.9 6 114 15.3 166 5 28 7.6 38 11.3 42.7 6.2 8.2 6.7 8.3 35.6 8.3 22.4 0 26.2-.2 30.9-1.9a24 24 0 0 0 15.2-14.4c2.7-6.7 2.7-13.6 1-68.2a6512 6512 0 0 1-3.1-142.8c0-21.2.6-23.7 5.7-26.1a89 89 0 0 1 18.8-2.2c58.3-3 97.8-22.8 135.5-68a266 266 0 0 0 53-96.4 54 54 0 0 1 10.9-23.2c8-10.2 16.3-14.1 37.8-17.9 17.3-3 20.9-2.9 23.6.8 2 2.6 2 2.8.2 15a421 421 0 0 0-1.6 68.2c1.4 14.5 5.3 36.2 8.7 48.1 7 25.1 19.8 39.9 40.2 46.8 8.9 2.9 26 3.1 34.2.3 13.3-4.5 23.7-12.9 37.4-30.6 8.7-11 36.6-49.9 41.2-57.2l2.9-4.6q.5-.2 2.3.7c1.4.8 2 2.5 2.5 7.3l3.2 33.8c2.9 30.9 5.7 53.9 8.5 70.7 5.7 33.1 18.7 70.1 31.5 89.3a77 77 0 0 0 28.9 25.5 63 63 0 0 0 33.1 7.9q27 0 49.6-18.3c14.7-11.8 21-21.8 55.4-88.1 14.3-27.5 21.5-40.2 23.2-40.7 2.7-.9 4.6 7.6 11.3 50.4 4.2 26.7 5.6 31.5 10.8 35.2 5.4 3.8 10.9 4.4 35 3.8 23.5-.6 27.6-1.2 33.3-5 7-4.6 7.7-7 25.8-83.2 27.5-116.2 28-118.2 38.2-149.5 16.2-49.6 41-98.1 68.5-134.1 15.6-20.3 25.5-25.9 33.1-18.7 3 2.8 3.9 6.5 5.7 22.8 4.8 44.2 5.5 102.9 2.2 183.2-2.6 62.5-1.3 84.3 6.9 118.6 8.6 35.5 19.9 53.9 38.7 63.1 12.7 6.3 18.9 7.5 36.3 7.6 17 0 25.8-1.6 38.6-7 15.3-6.4 24.1-13.7 36.2-29.8 5.6-7.4 28.7-43.9 38.5-60.7 3-5.2 6.1-10.1 6.8-10.9 1-1.1 3 .1 12.1 7.2 18.1 14.2 29.4 20.5 44.9 24.9a96 96 0 0 0 43.4 0 86 86 0 0 0 37.3-23.2c11.2-12 16.4-21.6 28.7-52a807 807 0 0 1 20.8-48.5l3.6-7 .7 4.5c.5 2.5 3.1 23.3 5.8 46.3 9.7 80.7 17.5 120.5 32.4 165.8 9.8 29.6 26.7 65.7 36.4 77.4a65 65 0 0 0 81 15.9 65 65 0 0 0 23.7-22.2c9.1-15.1 17.4-41.2 44.7-141.1a625 625 0 0 1 16.4-54.1c.2 0 3 2.3 6.2 5.1 8.2 7.3 21 15.5 29 18.6 5.9 2.3 8.3 2.7 18.3 2.7a43 43 0 0 0 30.4-9.5c12.5-8.3 22.3-20.1 45.1-53.9 16.7-24.8 22.8-33.2 23.5-32.3 1.3 1.5 2.9 14.4 8.1 64.3 8.2 80.1 23.3 128.2 47.5 151.1a72 72 0 0 0 85.5 12.8c13.5-6.7 28.5-22.1 41.7-42.6 9.6-15.1 73.3-144.2 103.4-209.8 14.3-31.1 14.9-35.9 5.5-44a23 23 0 0 0-24.3-4.6c-6.2 2.8-8.5 6.3-26.1 39.6a32490 32490 0 0 1-76.8 144c-22.3 41.8-25.8 48-31.9 56.2-8 11.1-9.4 10.9-11.6-1.2-1.3-7.2-1.2-22.3 1-84 1.9-54.2 5.6-185.5 7.1-254.7 1.4-58.8 1.3-59.8-3.6-65.6a19 19 0 0 0-6.7-4.7c-5.4-2.2-19.1-2.2-54.6-.1-14 .9-39.3 1.6-56.3 1.6-40.1 0-52.7 1.9-70.4 10.5-46.5 22.5-79.2 66.4-95.5 128-1.6 6-4.5 20-6.5 31a731 731 0 0 1-5.1 26 10044 10044 0 0 1-46.1 164.5l-22.4 78.5c-6 22.1-7.4 25.3-15.2 34.8-2.9 3.5-4.2 4.5-4.7 3.5a155 155 0 0 1-3.8-13.8l-3.1-12.5-1.1-82.5c-1.4-111.2-.2-164.7 8.5-364l5-117.5c2.7-64.4 3.1-67.1 10.9-70.9 3.4-1.7 7.1-2 27.5-2.5 26.6-.8 29.8-1.5 33.6-8.1 2-3.4 2-5.3 2.6-117.5.3-72 .9-115.1 1.5-116.9l1-3 5 6.1a427 427 0 0 1 12 15.9c20.8 29.2 93.4 129.1 121.5 167.5 28.5 38.8 36.1 47.5 46.1 52.2 8.3 3.9 21.8 5 46.3 3.6 21.9-1.2 24.3-1.9 26.9-7.4 3.3-7 3.6-25.7 3.6-204.8 0-180-.4-200.6-3.7-207-2.5-4.8-5.6-5.4-34.3-6.1q-44.5-1-51.9 2.8c-6.2 3.3-5.9-2.3-6.3 119.6-.2 61.3-.8 112.3-1.2 113.2-2.1 4.6-5.5 1.1-23.3-23.7l-16.9-23.5-64.6-90.5a3225 3225 0 0 0-63.2-86.6c-7.8-8.3-14.3-11.1-27.5-12-12.8-.9-27.7-.9-42.9.2m-1361.4 639c5 2.5 9.3 7.8 15.1 18.9 7.8 14.9 10.4 29.2 11.7 64.6.7 18.4.6 19.4-1.5 23.7a22 22 0 0 1-6 7.2c-2.2 1.4-16.2 6.9-31.3 12.1l-50.3 17.6c-31.4 10.9-35.4 12.2-36.1 11.5-1.4-1.4 9.5-29.7 20.5-53a1705 1705 0 0 1 31.3-67 71 71 0 0 1 14-20.2c15.6-16.5 23-20 32.6-15.4m339.2 17.7c1.9.9 4.5 3.2 5.7 5.1 4.2 6.3 2.6 20.1-4.8 43.1-3.5 10.6-31 67.6-68.2 141-19 37.7-25.7 50-29.9 55-4.4 5.3-5.9 6.5-8.3 6.5-2.7 0-3.2-.6-5.8-6.5l-2.8-6.5.5-21c1.4-55.2 11.4-99.9 31.6-141 17.8-36.2 38.6-62 58-72 10.6-5.5 18.2-6.7 24-3.7m1286 .1c5 2.6 8 8.3 8 15.3 0 7.9-3.4 24.8-7.7 38.1-4.3 13-25.9 57-64.1 130.2-33.3 63.9-30.4 59.1-38.1 63.3-7.5 4.2-7.6 4.2-11.1-6.9-2.1-6.5-2.3-8.2-1.7-21.9 3.4-76.7 22.4-136.7 58.8-185a105 105 0 0 1 36.5-32c7.1-3.6 14.1-4 19.4-1.1m-416.6 12c1.6 1.8-.4 7.1-43.9 116.2l-48.7 121.8-3.1 7.3-3.5-.5c-1.9-.4-3.7-.8-3.9-1.1-.3-.2-1.3-4.9-2.4-10.3-5.2-27-5.3-66.8-.3-97.3 8.4-50.3 33.2-96.4 64.5-120a151 151 0 0 1 11.2-7.7 324 324 0 0 1 27.8-10.2c.3-.1 1.4.8 2.3 1.8m-1199 137.8c-1.8 8.2-4.8 18.3-7.4 25.1-6.9 18-27.4 51.2-41.2 67.1-15.8 18.3-36.4 32.5-48.9 33.8q-11.3 1-21.9-9.7c-11.3-11.2-12.7-23.9-4.3-40.5 11.1-21.9 29.1-37.2 64.8-54.9 37.8-18.8 48.7-23.4 56.3-23.5 3-.1 3.2.1 2.6 2.6m-237.6-805.8c-4.5.5-9.1 1.7-11 2.8-6.7 3.9-6.3-5.3-6.3 134.8 0 133.7.2 139.8 4.6 162a165 165 0 0 0 76.4 110.2 162 162 0 0 0 45.5 18.1c32.6 8.1 61.6 8.9 93 2.6 68.8-13.8 117.3-60.5 130.5-125.8 1.3-6.7 2.9-17.4 3.5-23.8 1.8-21.4 2.9-111.3 2.2-191.8-.6-73.7-.8-79.8-2.5-82.3-4.1-6.3-3.2-6.2-46.7-6.2-44 0-45.1.1-47.6 6.1-1.1 2.7-1.4 14.1-1.4 59.6a5976 5976 0 0 1-3 194.2c-1.2 19.5-3.5 30.8-8.5 41.1-11.6 24.1-38.2 39.5-68 39.5a71 71 0 0 1-36.8-9.2c-8.2-4.3-11.9-7-18.8-13.8a51 51 0 0 1-13.2-18 92 92 0 0 1-8.8-39.4c-.4-8.2-.9-65.8-1-128s-.5-115.6-1-118.6c-1-6.1-3.2-9.7-7.5-12.2-2.5-1.4-7.4-1.7-34.4-2.2-17.3-.2-35-.1-39.2.3m-182.7 1.9c-1.9.9-4.4 3-5.5 4.5-2 2.8-2.1 4.2-2.4 44.5l-1.1 137.7c-.8 93.7-.9 96.2-3 104.5-7.5 29.6-28.5 48-54.8 48-15.5 0-27.3-5-38.9-16.5a71 71 0 0 1-17.9-33c-5.8-19.4-6.8-22.1-9.1-25.2-4.7-6.1-7.1-6.5-45.5-6.1-32.3.3-34.6.4-37.8 2.3-6.7 4-7.6 6.2-7.9 20.7-.9 33.5 9 64.9 28.2 89.7 17.9 23 48.7 44.9 75.9 53.9 17.9 5.9 25.3 7.3 43.4 7.9 19.3.7 30.6-.5 48.9-5.2 63.6-16.3 101.9-51.8 110.8-102.8.9-4.9 2-21.1 2.6-37 1-27.3 2.7-155.1 3.1-239.5.3-39.9.2-41.3-1.7-44-4.5-6.1-5.2-6.2-46.4-6.2-33.7 0-37.8.2-40.9 1.8m1199.4-.7q-9.5 1.7-11 11.1c-.3 2.4-.5 94.1-.3 203.8.3 188.5.4 199.7 2.1 202.3 4 6.1 4.4 6.2 46.7 6.2 35.3 0 38.8-.2 42.2-1.8 6.8-3.4 6.8-3.4 7.4-61.6.6-48.4.7-51.9 2.6-55.8 1.4-3.1 3.1-4.7 6.3-6.3 4.8-2.3 5-2.4 42.5-4.1 39.9-1.8 54.8-4.3 77.5-12.8a127 127 0 0 0 49.1-32.3 132 132 0 0 0 31.4-52.7c5.2-15.4 7.1-26.8 7.7-46.1.6-18.8-.3-29.7-3.8-43.9a191 191 0 0 0-13.4-34.6 143 143 0 0 0-51-52.2c-21.8-12.6-41-17.6-73.4-19.3-22.3-1.2-155.5-1.1-162.6.1m130.8 91c28.3 1.5 37.3 2.9 46.4 7.4a53 53 0 0 1 27.5 55.3 59 59 0 0 1-36.7 44.3c-5.7 2.2-7.4 2.3-34.1 2.7-30.3.4-38.2-.4-42.1-3.9-4.6-4.4-4.8-6.6-4.5-52.2.3-47.4.5-49.1 6.6-52.8 3.7-2.3 8-2.4 36.9-.8m241.4-91.2c-5.7 1.2-8.4 3-10.4 7-1.7 3.4-1.8 13.2-1.8 204.1 0 198.5 0 200.5 2 204.5 1.1 2.2 3.6 4.8 5.5 6 3.3 1.9 5.1 2 41.5 2 43.3 0 43.6 0 47.8-7.9l2.2-4.1.2-199c.2-185.7.1-199.3-1.5-203.9-1-2.9-2.9-5.8-4.5-7-2.8-2-4.1-2.1-40-2.3-20.5 0-38.9.2-41 .6m761.8 510.8c-27.8 3.4-48.7 13-67.7 31.1a110 110 0 0 0-34.5 86.6 112.6 112.6 0 0 0 193.8 72.9 112.7 112.7 0 0 0-31.4-179.3 113 113 0 0 0-60.2-11.3m35.8 22.7a95 95 0 0 1 66.7 74.3c2 11 .8 30.7-2.4 41.6a93.6 93.6 0 0 1-150.5 45.3 93 93 0 0 1-23.1-112.2 93 93 0 0 1 64.5-50.8c11.2-2.5 33.5-1.6 44.8 1.8M3104 3306v60h26v-47.2l17.3.4c26 .5 28.1 2.4 30.7 28.3.6 6 1.6 12.7 2.1 14.7l1 3.8h25.8l-1.5-4.3c-.8-2.3-1.9-10.1-2.4-17.2-.5-7.2-1.6-15.3-2.5-18.1-2-7-6.4-12.6-11.4-14.9l-4.3-1.9 3.6-1.8a33 33 0 0 0 13-13.7c3.3-7.2 3-21.7-.5-29.2a32 32 0 0 0-15.8-15.8l-5.6-2.6-37.7-.3-37.8-.3zm62.6-38.9c8.5 2.2 13.2 11.7 10.5 21.5-2.8 10.2-5.7 11.4-29.1 11.4h-18v-34h16.1c8.8 0 18 .5 20.5 1.1"></path><path d="M1693.5 90.7A335 335 0 0 0 1518 150a333 333 0 0 0-87.2 84.5 305 305 0 0 0-50.9 146 541 541 0 0 0 1 70c8.3 68.8 26.8 115.1 59.1 147.6a168 168 0 0 0 50.6 35.9c3.8 1.7 7 3.3 7.2 3.5.2.1-2.7 6.3-6.4 13.6a471 471 0 0 0-37.3 111.4c-3.8 18.9-9.1 53.9-13 85.5-3 24.4-8.6 71.8-9.7 81.7s4.6 5.7-78.2 60l-136.2 89.4a16277 16277 0 0 1-174.9 114.4c-4.8 2.4-10.5 2-24.1-2-23.2-6.7-33-8-63.5-8-31.2 0-38.8 1-60 8-60.1 19.7-111.3 69-129.6 124.9-12.9 39-11 78.5 5.5 117.6 7.5 17.5 6.8 19.9-10.7 37.8-16.4 16.7-26.8 25.4-67.2 56.2-59.1 45-74.7 58.6-88.6 77.3-16.7 22.3-20.6 32.1-34 85.2-18 71.4-22.9 95.4-27.5 134a735 735 0 0 0-.1 108c9.6 79.4 25.8 122.8 57.6 154.5 20 20 39.1 30.2 67.1 36.1a213 213 0 0 0 38.5 2.9c31.9.9 30.3.7 87.5 14.3 113.6 27.2 207.7 42.3 290 46.6 8.7.4 16.5 1.3 17.8 2 3.3 1.7 3.9 4.1 5.2 19.2 5.1 60.7 21 110.4 50.8 158.9a227 227 0 0 0 77.9 78.4A192 192 0 0 0 1344 2468c15.8-1.2 28.6-3.4 66-11.2 111.8-23.1 326.9-88.3 513-155.3l30.5-11 55.7-20.6c23.5-8.8 46.1-16.8 50.3-17.9s14.9-2.9 23.9-4a456 456 0 0 0 91.1-21.2c58-19.5 96.4-38.5 192-95 58.6-34.7 83.9-54.1 128.6-98.7 46.9-47 69.8-75.3 117.2-144.6 24.8-36.4 34.1-45.1 80.7-76 15.1-10 34-23 42-28.9 31.5-23.4 58.3-36.6 107-52.4a1768 1768 0 0 0 324.5-145c20.8-11.8 40.3-23.3 96.5-56.9 26.7-15.9 53.9-32.1 60.5-35.8a251 251 0 0 0 55.4-39.9c19.9-19.2 33.4-38 46.5-64.6a328 328 0 0 0 31.6-108c2.7-19.9 3.9-68.3 2.1-84-8.4-73.1-53.8-130.8-125.3-159.4a327 327 0 0 0-20.9-7.6c-10.5-3.2-13.5-6.4-14.4-15.5a1080 1080 0 0 0-63.2-281c-13.1-36.7-27-70.6-61.3-149.5-17.1-39.1-21-49.2-21-53.5 0-3.2 1.3-5.9 6.6-14 28.4-43.2 34.8-99.7 18.4-162.7a263 263 0 0 0-49.7-98.3 337 337 0 0 0-70.3-63.4 319 319 0 0 0-79.8-36.5c-73.1-20.9-153.8-11.9-214.9 24.1-18 10.6-17.3 10.3-22.5 10.3-2.5 0-30.2-5.2-61.5-11.5-112.9-22.7-150.2-29-203.6-34.5a1412 1412 0 0 0-174.7-6.7c-57.7.6-70 1.1-119.1 4.7-77 5.7-156 17.3-219.4 32.1-19.7 4.6-31.9 5.8-43.2 3.9-17.6-2.8-28.4-8.9-44.8-25.4a185 185 0 0 0-69.5-47.1c-28.2-11.1-73.4-17.1-111.5-14.8m680.5 90.7c54.8 3.2 86.8 6.4 157.5 15.5a2620 2620 0 0 1 76 11.6c89.3 14.2 134.3 24.7 181 42.2 126.9 47.7 214.7 117.6 269.7 214.8a2408 2408 0 0 1 88.4 176c48.3 108.9 83.7 218.1 98.4 303 13 75.8 15.1 133.9 6.4 185.3a292 292 0 0 1-87 167.2 361 361 0 0 1-65.9 51 1021 1021 0 0 1-183.5 88.7c-106.8 39.6-217.5 68.7-357.5 94.2a859 859 0 0 1-64 8.6c-30.8 3.6-39.5 5-45.7 7.2-6.6 2.2-7.8 3-7.8 4.9 0 2.6-2.6 2.1 30.5 5.9 29.6 3.4 28 3 22 6.7-18.6 11.6-39.9 17.9-72.5 21.2-40.9 4.2-77.3 2.5-127.5-5.9a411 411 0 0 1-51.8-11.5c-.4-.4 2-1.7 5.5-3q6.4-2.2 10.2-6.3l3.9-4.1-4.4-2c-4.3-1.9-4.7-1.9-25.4 0-39.6 3.6-124.8.7-178-6.1-22-2.8-65.3-10-87-14.5a1876 1876 0 0 1-139.7-35.4c-24.7-7.5-27.1-8.3-26.4-9.4q.9-1.7 39.1-16.8a1655 1655 0 0 0 219-104.7c32.6-19.1 66.8-41.3 89-57.7 77.3-57.2 133.9-122 152.4-174.4a417 417 0 0 0 18.6-127.1c-.6-13-3.5-34.9-5.5-41.5-.5-1.9-.6-3.7-.2-4.1s12.4-5.3 26.7-10.9a723 723 0 0 0 60-25.4 411 411 0 0 0 126.4-91.9c28.8-31 44.1-54 53-80.1 7.2-20.9 8.5-29 8.6-53.6a145 145 0 0 0-5.2-46.5 286 286 0 0 0-71.7-130.1c-36.2-36.2-79.8-57.2-136.6-66.1a391 391 0 0 0-76.5 0c-49.9 8.2-93.2 31.2-131.5 69.6a294 294 0 0 0-72.6 116.6c-15.3 44.9-22.1 84.8-24.9 147-.7 16.2-1 17.5-3.4 17.5a809 809 0 0 0-67 17.4c-12.2 4.7-28.4 13-47.3 24.2-30.8 18.4-30.3 18.1-108.8 58.2a13692 13692 0 0 1-302.5 151.1L1497 1077c-15.3 7.2-26.5 12-27.6 12-1.3 0 .4-102.1 2-122 6.9-84.6 23.7-185.8 47.6-286l7.1-30.3c.7-3.3 2.1-7 3.1-8.3 2.2-2.7 7.4-4.4 13.7-4.4 6 0 23.6-2.7 32.4-4.9 17.5-4.5 40.9-15 60.7-27.3l10.4-6.5 1.8-5.9c2.3-8 6.1-11.5 18.6-16.9 18.5-8 50.9-27.2 73.5-43.7a423 423 0 0 0 152-197.8 446 446 0 0 0 23.2-86.7c3.3-19.2 4-21.6 7.1-25.3 2.6-3 2.6-3 12.9-3 20.6 0 44.6-3.8 80-12.6 25.8-6.5 37.4-8.9 64.8-13.4a974 974 0 0 1 119.7-13l26-1.4c15-1 123.8.4 148 1.8m-648.3 51.2a78 78 0 0 1 36.8 22.6c8.8 10.1 12.1 21 9.5 31.8-1.4 5.9-14 27.3-25.6 43.7a2363 2363 0 0 1-91.8 112.8 523 523 0 0 1-46.1 47c-19 13.6-33.5 14.6-41.8 2.9-3.4-4.8-5.8-13.5-13.8-48.9-6.8-30.5-6.8-30.6-2.4-53 13.3-66.3 62.7-129.2 119.5-152 23.3-9.3 38.9-11.2 55.7-6.9m723.8 350.9c24.6 6.2 45.4 29.7 53 59.9 3.6 14.2 4.8 26.8 4.3 44.3a91 91 0 0 1-8.8 40.1 88 88 0 0 1-36 39.1 56 56 0 0 1-66.5-12.4c-19.3-19.1-29.7-49.3-28.2-81.9.9-19.3 4.4-33.2 11.9-48.1 16-31.8 43.5-47.8 70.3-41m-369.2 307.8a27 27 0 0 1 15.4 27.3q-2.2 20.2-23.1 24.6a28 28 0 0 1-29.7-14.9c-3.4-7.1-3.2-18 .4-24.9 6.9-13.4 22.1-18.4 37-12.1m97 30.5a46 46 0 0 1 18.7 18.4 23 23 0 0 1 1.8 12c-.3 6-.7 7.1-3.7 10.2-8.8 9.1-26 6.5-38.7-5.9-13-12.7-14-29-2.3-35.3 3.8-2 5.4-2.3 11.9-2 4.7.3 9.3 1.3 12.3 2.6m-89.8 64.3c13.9 3 29.1 13.8 40.8 29.4 7.3 9.6 9.2 10.5 23.9 11.5 16.8 1.1 25.7 4.5 32.8 12.7 5.9 6.6 8.3 13.5 8.8 24.8 1.8 41-34 79.8-77.6 84a105 105 0 0 1-51.5-13.1 104 104 0 0 1-47.3-78.9 93 93 0 0 1 12.5-50.3c7.7-13.3 12.4-16.9 25.1-19.6a72 72 0 0 1 32.5-.5m156.2.4c6 1.8 11.3 6.6 15.1 13.8 3.7 7.1 3.9 19.6.4 27.2-4.6 10-12.8 15.8-22.2 15.8-9.2 0-15.9-4.6-21.3-14.7-1.8-3.4-2.2-5.7-2.2-14.1 0-8.6.3-10.6 2.4-14.5a25 25 0 0 1 16.6-14.1c4.6-1.1 5.7-1 11.2.6M3310.4 1132c16.1 7.7 23.3 29.8 12.9 39.2-8.1 7.3-23.3 6.1-33.1-2.7-17.7-16-10.7-40.9 11.2-39a28 28 0 0 1 9 2.5m-2136.1 75.7c.3 32.3.9 50.4 2.1 61.3 11.1 105.1 48.9 207.2 114.5 309.2 99 154.1 243.7 273.2 430.1 354 113.7 49.3 230.3 78.3 362.5 90.3a890 890 0 0 0 92.2 4.2c85 1 136.9-3.3 233-19.1 43.8-7.2 53.2-8.4 54.4-6.5q.8 1.3.8 1.9c0 .6-25.1 22.9-32.9 29.2-12.9 10.5-107.7 71.2-155.5 99.5-36.6 21.8-47.3 27-72.3 35.4-17.8 6-29.9 9-52.2 12.8a705 705 0 0 1-121.1 9.8c-99 1.5-195.6-9.3-324.9-36.4a778 778 0 0 1-150.5-45c-23.7-9.7-67.6-30.8-90-43.3a1197 1197 0 0 1-195.5-138 1181 1181 0 0 1-125.4-126c-60.4-72.7-102.7-157.9-127.5-257a605 605 0 0 1-20.8-148.5c-.8-38.6 1.2-66.6 7.3-104.9 3.2-19.6 4.3-23.4 8.5-28.7 4.1-5.2 6.8-6.9 62.5-39.9a4679 4679 0 0 0 99.5-60c.4 0 .9 20.6 1.2 45.7m2211.8-16.3c8.1 5.4 11.7 20.5 8.5 35.5-2 9.6-4.3 13.9-9.3 17.5-6.1 4.3-11.6 4.5-17.5.7-6.2-4-9.7-9.4-11.9-18.7a26 26 0 0 1-.4-14.9c.7-4.1 2.3-9.1 3.3-11.2 2.3-4.4 7.6-9.7 11.2-11.2 3.8-1.7 11.8-.5 16.1 2.3m-124.5 39.5c2.3 1 6.5 3.5 9.4 5.5 6.1 4.2 10.4 4.6 20.4 2a43 43 0 0 1 27.2 1.9 34 34 0 0 1 15.5 18c3 8.6 3.9 33.7 1.5 45.1a73 73 0 0 1-37.6 51.4 123 123 0 0 1-28.1 9.7l-9.5 2.6-10-1.6c-27.5-4.4-42.1-11.2-56.7-26.3-14-14.5-14.2-22.4-1-39.9 7.1-9.4 13.5-18.6 28.2-40.3 13.1-19.5 17.9-25.3 22.9-28a23 23 0 0 1 17.8-.1M840.7 1328a53 53 0 0 1 19.7 12.2c.9 1.3 1.8 3.7 2.2 5.4.5 2.6-1 5-13.3 21.4a4412 4412 0 0 1-37.1 48.7c-2.6 3.5-5 6.3-5.4 6.3-1 0-5.3-13.8-7.2-23.1a159 159 0 0 1-2.7-41.9c2.8-30.4 4.6-32.4 27.6-31.5q10 .3 16.2 2.5m1693.6-948.1c-19 6.5-21.5 23.7-6.3 42.9 10.8 13.8 27.7 22.5 48.8 25.3 23 3.1 37.2-6 37.2-23.5 0-8-3-14.3-10.5-22.4a75 75 0 0 0-36.5-22.7c-8.3-2.1-26-2-32.7.4m264.9 27.6a52 52 0 0 0-23.1 15.1c-7.1 7.7-10.1 14.2-10.1 21.7 0 9.6 1.6 12 11.2 16.8l8.3 4.2 7.4-1.8a72 72 0 0 0 32.6-17.9c8.4-8.4 11.8-14.6 12.3-23.1.3-5 0-6.6-2-9.4-4.5-6.6-6.8-7.6-18.6-7.9-9.3-.2-11.7.1-18 2.3M2931.6 535c-30.3 2.8-57.1 14.6-83.7 36.9a184 184 0 0 0-64.3 119.9 259 259 0 0 0 .5 62.3c5.1 30.1 17 54.7 36.9 76.4 32.1 35 74.6 64.2 118.9 81.7 41.1 16.2 75 16.6 107.6 1.2 40.6-19.1 73.9-64.6 82.5-112.5 5.4-30.5 4-72-3.5-100.9a267 267 0 0 0-33.5-74.5 252 252 0 0 0-52-56.2c-33.3-25.2-73-37.6-109.4-34.3m-11.2 89.5c24.4 6.4 45.7 31 53.6 61.9 14.2 55.6-11.2 114.7-54 126.1a60 60 0 0 1-26 0c-26.6-7.1-50.3-38.1-54.9-71.8-1.7-11.9-1.4-38 .5-47.7 6.2-33 27.2-59.7 53.4-68.1a60 60 0 0 1 27.4-.4m-2.7 28.5a41 41 0 0 0-6.5 9.9l-4 7.9-.7 16.8c-.8 19.1 0 24 4.5 28.6 2.5 2.4 3.6 2.8 8.7 2.8 11.7-.1 28.3-5 32.5-9.7 2.7-3 4.8-8.9 4.8-13.6 0-3.3.5-4.8 2-5.8 1.9-1.4 1.7-1.8-4.6-13.4-11.7-21.4-16.3-25.5-28.1-25.5-4.6 0-6.7.5-8.6 2m-246.3 166.9c-20.6 7.4-30.3 11.4-34.7 14.4a14 14 0 0 0-5.7 10.5c0 7.9 12.5 23.4 26.4 32.6a83 83 0 0 0 47.6 14.8c23.3 0 38.6-7.6 44.1-22 2.5-6.8 3-20.5.9-26.7a34 34 0 0 0-21-20.6 367 367 0 0 0-37-9.8c-.8 0-10.1 3.1-20.6 6.8m33.1 159.8a177 177 0 0 1-93 43.2c-8.6 1.3-11.1 2-11.3 3.3-.5 2.4 7.1 7.5 13.7 9.4q10 2.8 10.1 9.6c0 1.7-3.8 18-8.4 36.2-14.4 56.6-18.6 79.3-18.6 100.2 0 22.8 4.1 41.1 13.5 59.9 13.7 27.3 26.9 37.2 51 38.2a54 54 0 0 0 48.6-21.6c7.9-10.2 22.5-40.6 29.2-60.7 11.1-33.2 15-56.9 15.1-90.9 0-26-1.9-41.8-7.5-62.5-1.8-6.3-3.2-12.5-3.3-13.7-.1-1.8 1.7-3.1 10.4-7.5 7.9-4 10.6-5.9 10.8-7.5.3-1.9-.3-2.2-4.5-2.8a64 64 0 0 1-45.9-29.6 44 44 0 0 0-5.3-6.9c-.3.1-2.4 1.7-4.6 3.7m-54.2 118.8c23.9 6.2 46.5 31.2 56.5 62.5 4.4 13.9 5.6 21 5.6 35a71 71 0 0 1-8 35.3 64 64 0 0 1-37.7 30.2c-6.8 2-12 1.4-19-2.1-7.3-3.7-15.2-16-21.2-32.7-4.2-11.7-5.9-20.5-8.9-44.2l-2.4-19 1.9-18.5c3.1-31.1 4.6-36.6 11-42.6 5.9-5.4 12.1-6.5 22.2-3.9m-204.1-478a51 51 0 0 0-11.2 23 55 55 0 0 1-2.1 11.4c-2.4 8.6-2.1 12.8 1.5 19.9 4.9 9.7 10.8 12.9 19.1 10.5 2.8-.8 7.9-1.9 11.5-2.4a55 55 0 0 0 10.6-2.9c6.5-2.8 11.5-10.5 12.9-20.1.6-4.2.2-5.5-5.3-16.5-3.3-6.5-7.4-13.8-9-16-6.4-8.7-21.4-12.4-28-6.9"></path></svg>