<svg xmlns="http://www.w3.org/2000/svg" viewBox="0 0 4253 4252"><title>Jumping Panda</title><path fill="#fff" d="M1786 71.7c-25.6 2.5-40 4.9-59.9 9.8A382 382 0 0 0 1552 181a315 315 0 0 0-89.9 180.5 406 406 0 0 0 15.5 176.5c18.4 55.4 50.8 93.5 99.5 116.8l9.6 4.6-7.9 16c-21.1 43.1-35.4 90.4-44.8 148.1a4377 4377 0 0 0-18.5 146.2c-.4 4.2-1.6 9.1-2.9 11.5-2.4 4.8-1.3 4.1-123.8 84.5-35.4 23.1-113.6 74.4-173.8 114l-114.7 75.1c-7.9 5-13.1 5.2-27.3.9-24.2-7.4-43.1-10-71-10.1-37.8 0-60.8 5.2-93.5 21.3-74.7 36.8-122.5 111-119.2 184.6 1 21.3 7.2 47.4 15.8 66.4 3.8 8.3 4.4 12.7 2.9 19.2-1.2 4.9-2.4 6.4-17.9 21.9-17.6 17.6-29 27.1-73.1 60.5a955 955 0 0 0-70.7 56.9 178 178 0 0 0-44.7 66.5c-5 13.9-29.8 115.1-35.6 145.1a565 565 0 0 0-2.4 197c11.9 69.6 30 109.4 63.8 139.8a128 128 0 0 0 45.5 26.6c18.9 6.6 26.3 7.7 59.6 8.6 16.5.5 31.4 1.2 33 1.5l13.5 2.7c5.8 1.1 19.7 4.2 31 7 133.4 32.2 234.6 49.1 323 53.8 11.3.6 22.2 1.5 24.2 2.1 5.4 1.4 6.6 4.4 7.8 20a373 373 0 0 0 40.3 146.3c43.3 84.1 102.2 128 180.7 134.7 24.3 2 45.8 0 88.6-8.6a2266 2266 0 0 0 183.2-45.9c158.3-45.4 313.6-97 486.2-161.6a806 806 0 0 1 48-16.8c4.7-1.2 15-2.8 23-3.7a474 474 0 0 0 98.5-22.9c62.8-20.9 103.1-40.7 203.3-100a697 697 0 0 0 63-39.8 633 633 0 0 0 83.8-72.9c45-45.8 79.3-88.2 117.4-145.4 19.3-29 33.5-45.4 52.4-60.7 5.4-4.4 23.7-17.1 40.5-28.2s35.6-24 41.6-28.6a312 312 0 0 1 48.5-30.5c20.8-10.5 32-14.9 75.4-29.5 83.7-28.1 149.2-55 228.1-93.4 62.5-30.5 107.8-55.7 208-115.6 31.9-19.1 65.7-39.1 75-44.5 20.8-12 31.5-19.1 44.2-29.4 58.5-47.1 94.1-125.6 101.3-223.6 1.3-18.1 1.3-50.4 0-63.6a201 201 0 0 0-55.4-120.6c-6-6.3-14.3-14.1-18.5-17.5a258 258 0 0 0-81.6-42.8c-11.3-3.8-16-7.4-16.9-13.1-.3-1.9-1.4-13.2-2.6-25.2-9-93.5-33.7-195.6-72.6-299.4a2155 2155 0 0 0-42.9-104.8c-37.4-86.4-38.5-89.1-38.5-94.9 0-5.1.5-6.2 6.5-15 26.8-39.6 35.4-90.1 25.4-150.1-10.5-63.7-40.4-118-90.6-164.6a311 311 0 0 0-141-76.8 261 261 0 0 0-74.3-8.6c-28.8 0-35.8.6-59.3 5.1-33 6.4-66.7 19.5-93.4 36.5-8.3 5.3-10.6 6.3-15.3 6.6-4.3.4-21.3-2.7-78-14.1-39.9-8-83.5-16.6-97-19a1399 1399 0 0 0-205.4-22.7 3278 3278 0 0 0-172.1 1c-110.5 6.3-190.4 16.7-281 36.8-35 7.7-47.9 8-65.8 1.8-12.2-4.2-20.1-9.8-34.8-24.4a197 197 0 0 0-53.9-41c-34.9-17.8-72.2-25.3-124.4-24.9-12.7 0-24.7.3-26.6.5m1609 2776a241 241 0 0 0-85.5 22.2 197 197 0 0 0-56.4 39.6c-53.4 51.9-78.4 120-72 196.2 5 59.7 25.6 108.3 62.8 148.3 35.8 38.6 83 61.9 140.6 69.6a338 338 0 0 0 70.4.1 227 227 0 0 0 125-63.2 230 230 0 0 0 71.1-162c0-17.8-2.9-24.5-11.6-26.5-2.2-.6-51.2-1-112.9-1-104 0-109.2.1-113.1 1.9q-7.3 3.3-9.5 11.4c-1.4 5.3-1.4 52.3.1 57.6 1.3 5 4.5 9 8.6 10.7 2.6 1.1 14.3 1.6 49.6 2.4 45.7.9 65.2 1.7 69.6 2.6 2.1.4 1.8 1-5 11.2-19.1 28.5-48.7 46.6-86.3 52.7-12.1 2-36.6 1.9-48.6-.1a120 120 0 0 1-97.9-91.9 170 170 0 0 1-4.7-52.1c.5-20.7 2.3-31.7 7.6-46.6 13.9-39.8 48.9-69 94.1-78.5 12.1-2.6 43-2.5 55 .1a124 124 0 0 1 80.5 54.1 50 50 0 0 0 16.9 17.4c8.2 4.3 12.3 4.5 52.1 3.4 33.2-.9 37.7-1.2 41.1-2.9 5.6-2.7 6.9-6.1 5.4-13.8-4.5-22.9-16.6-49-33.3-71.6-36.6-49.4-101.3-85.2-164.7-90.9a425 425 0 0 0-49-.4m-1503.9 10.4a26 26 0 0 0-12.3 7.9c-6.8 6.8-6.5 6.3-28.3 56.5-40.7 93.6-81 183-85.8 190.3l-5 7.7-4.5-9.5c-4.2-9.2-48.6-109.6-85.4-193.5l-19.9-44.7a28 28 0 0 0-12.7-12.9c-4.6-2.3-4.9-2.3-46.3-2.1a412 412 0 0 0-44.6 1.3c-3.5 1.3-7 4.5-8.9 8.1-2.2 4.2-10.6 54.7-30.9 186.3l-27.7 178.5c-10.1 65-10.9 74.1-6.9 78.4 3.8 4.1 9.3 4.6 49.5 4.6 41.6 0 44.7-.4 50.3-6.2 1.8-1.8 3.9-5.3 4.8-7.8s5.8-34 11-70.1c21.3-148 23.9-163.9 28.1-177.2 2.1-6.4 4.1-6.1 9.1 1 5.5 7.9 6.1 9.1 39.3 81.8 63.4 138.8 75.5 164.3 81.1 170.9a21 21 0 0 0 24.9 5.6 35 35 0 0 0 13.6-14.2l41.3-89.5c74.6-162.7 76.1-165.8 79.4-165.8 1.9 0 2.3 1.2 4.9 16 3.2 18.4 19.7 128 29.3 194.4a700 700 0 0 0 8 48.8q3.4 8.1 11.6 10.8c4.1 1.4 10.4 1.6 45.1 1.3 36.3-.3 40.6-.5 43.5-2.1a13 13 0 0 0 7-10.4c.2-2.2-3.1-26.7-8.1-58.3l-33.1-212.5a8203 8203 0 0 0-26.1-162.6 14 14 0 0 0-8.9-9.9c-1.8-.7-15.2-1.5-34.5-2-43.2-1.2-44.5-1.2-51.9 1.1m856.4-1.4c-17.8 1.5-22.6 4-24.4 12.4-.8 3.5-1.1 62.7-1.1 193.7a13593 13593 0 0 1-.9 193.1q-1.6 8-7.7 11c-1.8.9-8.7 1.7-18.9 2.3-30.9 1.6-36.6 4.1-43.6 19.3-7.2 15.9-9.6 26.3-27.9 124.3-12.1 64.9-18.7 97.7-20.1 100.8-2.7 5.7-8 10.1-14.4 11.9-2.7.8-14 3.1-25 5-32.6 5.8-49 10.8-69.9 21.2a203 203 0 0 0-96.9 105.3 375 375 0 0 0-22.8 82.5c-7.1 39.1-10.1 48.5-25.8 80.1-13.9 28.1-50.8 94.2-55.4 99.3-4.2 4.6-9.9 8.1-13.2 8.1-4.2 0-12.4-7.2-15.4-13.3-2.6-5.5-9.7-40.8-11.2-56.2-1.6-16.1-.6-66.8 2.2-117.5 3.1-53.5 3.3-123.1.6-145.4-3.7-29.2-8.1-45.1-16.4-59.1a83 83 0 0 0-48.4-39.2 75 75 0 0 0-21.9-1.7c-13.5.1-16.8.4-25.4 2.7-18.7 5-37.4 16.1-50.2 29.9-12.4 13.5-26.8 34.7-52.9 78.3-16.6 27.6-27.6 44.8-29.4 45.9-.5.3-1.6.3-2.5 0-1.4-.6-1.6-7.6-1.6-70.9 0-82.9-.4-88.1-7.7-95.7-5.1-5.3-10.6-6.3-32.9-6.1-22.6.2-33.7 1.4-39.3 4.2a24 24 0 0 0-11.4 13.8c-2.6 8-16.9 135.9-22.2 198.8-4.3 50.5-7.5 64.2-20.9 88.5a3385 3385 0 0 1-47.3 89c-45.2 82.5-44.9 82-51 88.2a27 27 0 0 1-6.1 5.3c-.3-.2-1.1-5.5-1.8-11.7-1.4-12.6-1.7-1.5 4.6-180.3 6.1-172.2 6.2-177 5.8-212.6-.3-32.8-.3-33.5-2.7-38.3a21 21 0 0 0-16-11.2c-2.5-.4-24.6 0-49.1 1a6922 6922 0 0 1-77.5 2.6c-32.1.8-33.3.9-44.5 3.8a127 127 0 0 0-61 35.2 159 159 0 0 0-28.6 38.3l-9.6 17.2a73 73 0 0 1-10.5 13.1c-13.6 13.7-29.1 19-61.8 21.1-7.7.5-8.2.4-11.3-2.2-3.7-3.1-5.2-7.5-10.6-31-11-47.5-18.9-65.4-37.5-84.8a94 94 0 0 0-44.6-26.7 108 108 0 0 0-41.6-1.5c-29.4 5.9-47.1 17.9-80.2 54.2-6.5 7.1-15 15.8-18.9 19.3l-7 6.3.7-51.9c.6-39.9.5-53.3-.5-57.9-3.6-17.4-13.1-22.9-35.4-20.6a321 321 0 0 0-41.6 6.9 25 25 0 0 0-16.4 16.2c-1.9 6.3-12.9 68.3-18.1 102a1619 1619 0 0 0-16.6 164c-2.3 43.4-1.2 170.1 2.1 245.5a994 994 0 0 0 20.1 167.5c3.6 16.3 5.4 20.4 10.6 25.2 6.1 5.4 10.6 6.1 38.3 5.6s32.1-1.4 40.1-8.6c4.1-3.7 5.2-5.5 7.1-11.5 2.3-7.8 2.3-11-.2-100.2-1.9-69.4-3.2-139.8-2.5-144 .7-4.9 4.2-9.1 8.3-9.9 1.5-.3 8.8-.8 16.2-1.1 56.8-2.7 97.7-20.3 132.9-57.1a297 297 0 0 0 71.1-118.9 69 69 0 0 1 15.3-29.7 56 56 0 0 1 22.7-12.6c8-1.9 29-5.2 33.5-5.2 7.9 0 8.8 4 5.8 23.6a427 427 0 0 0 0 79.9c4.3 28.4 10.4 51 17.2 63.2a62 62 0 0 0 83.4 23.1c7-4.1 17.4-13.9 26.5-25.2 7.2-9 36.2-49.1 44.6-61.6 2.4-3.6 4.4-6.7 4.6-6.8q.3-.3 2.2.2c2.2.7 1.9-1.8 6.2 45.7 6.4 69.9 12.9 103.5 27.1 139.2 8.2 20.5 15.9 33.4 26.3 43.9 32.4 32.7 83.2 31.5 117.2-2.9 11.7-11.8 16.9-20.5 51.1-85.8 19.5-37.1 24.8-46.5 26.3-46.5 2 0 4.5 10.9 9.5 42.3 6.1 37.8 7.4 43.2 11 47.5 5.3 6.3 7.3 6.7 36 6.7 28-.1 34.4-.9 40.7-5 7.2-4.8 8-7.5 31.8-107.5 24.2-102.3 27.1-113.3 37-143a504 504 0 0 1 48-106.5c13.8-23 33.3-49.4 41-55.5 10.1-8 18.8-7.4 22.7 1.8 1.6 3.8 4.7 31.2 6.5 57.2 1.7 26.5 1.4 98.8-.7 150-3.3 82.1-.7 116 12 154.7 11.3 34.3 24.7 49.1 50.9 56.3 20.4 5.6 47.1 3.7 66.8-4.7a87 87 0 0 0 38.1-31.2c6.3-8.4 33.4-50.9 45.7-71.9 2.3-3.9 4.4-7.2 4.7-7.2s5.9 4.3 12.6 9.6c13.7 10.7 23.7 17 34.5 21.5A88 88 0 0 0 2547 3857c7.6-10.3 10-15.4 25.3-52.6a1094 1094 0 0 1 19-44l4.5-8.9.6 3.5c.4 1.9 2.7 20.6 5.1 41.5 11 92.3 19.6 137.8 35.5 185.5 11.2 33.7 27.3 69.1 38 83.2a70 70 0 0 0 34.5 24.5c6.8 2.2 9.8 2.6 20 2.7 14 0 20.8-1.5 33.2-7.5a72 72 0 0 0 34-38.1c6.4-15.2 16.7-50 37.8-126.8 11.3-41.3 18.9-66.7 20.5-68.3.4-.4 4.3 2.2 8.6 5.9q35.2 30 65.6 19.5c21.4-7.4 33.6-19.9 65.3-67.1 17.8-26.5 23.6-34.3 24.5-33.3 1.1 1.1 3.5 19.3 6.5 48.8 9.4 91.3 20.3 136.4 40.2 166.3a85 85 0 0 0 55.3 37.8c20 3.6 40.7-1.2 59-13.6 12.5-8.5 27.7-26.4 39.7-46.9a6024 6024 0 0 0 103.1-209.6c14.8-32.4 17.2-38.4 17.2-43.7 0-9-8.3-17.1-20.4-19.8-8.6-1.9-16.6 1.7-22.4 10.3a7417 7417 0 0 0-59.4 110.2c-71 133-68.3 128.1-76.3 139.1-5.7 7.9-7.1 9.2-8.6 8.4-5-2.7-5.2-16-2-111.3 3.1-89.1 7.8-263.7 8.3-305.2.2-21.2-.6-25.2-6.4-30-7-5.9-15.1-6.4-54.8-3.9-14 1-42 1.8-65.5 1.9-44.2.3-49.9.8-66.7 6.1-32 10.1-66.4 38.8-87.8 73.3a265 265 0 0 0-33 88.2l-5.6 29.4c-2.7 14.3-22.1 84.6-55.4 201.5-12 42.1-22.6 79.4-23.5 83a79 79 0 0 1-14.4 28.4c-2.2 2.2-4.2 3.8-4.4 3.5s-1.9-6-3.7-12.9l-3.2-12.5-1-57c-1.2-73.6-.4-197.4 1.6-251.5 4.9-131.5 14.2-344.9 15.5-358.8 1.3-12.6 2.8-15.7 8.8-18.4 4.1-1.8 7.6-2.1 29.7-2.7 26.2-.8 30-1.4 33.8-5.7 4.4-5 4.3-1.8 4.9-129.4.3-66.8 1-123.2 1.5-125.2l.9-3.8 4.6 5.8c2.5 3.1 27.7 37.6 55.9 76.7 64.7 89.4 113 155.4 118.9 162.4a65 65 0 0 0 22.1 16.6c8.8 3 22.8 3.8 45.9 2.5 24.2-1.3 27.1-2.1 30-7.9 3.8-7.6 4.1-22.6 4.1-220.6 0-195.1-.3-214.1-3.8-221.5-3.4-7-4.4-7.2-41.5-7.8-44-.6-51.8.4-56.4 7.5-1.7 2.5-1.8 10.3-2.4 122.8-.3 66-.9 121-1.3 122.2-1.5 4.1-3.3 3.3-8.9-3.5-5.4-6.6-64.2-88.3-132.2-183.7-19.3-27-37-51.1-39.5-53.6a40 40 0 0 0-19.5-11.3c-4.7-1.3-11.1-1.6-30.5-1.4a828 828 0 0 0-28.5.5m-1462.7 686.9c4.7 1.9 8.5 5.6 12.8 12.1a91 91 0 0 1 14.4 37.3c3 21.5 4 60.7 1.6 66.3-1.8 4.5-7.4 9.1-13.8 11.5-18.9 7-119 41.3-119.4 41-2.1-2.1 24.3-63.6 49.7-115.6 12.8-26.3 17.2-32.9 28.7-42.9 9.2-8 9.7-8.3 13.9-9.9 5-1.7 7.6-1.7 12.1.2m367.7 20.2c1.7 1 4 3.8 5.3 6.2 2.1 3.9 2.3 5.5 1.8 12-.7 9.7-5.5 28.5-10.8 41.9-2.3 5.8-25.1 52.3-50.6 103.3-43.8 87.7-46.7 93.1-52.5 99.5-7.8 8.6-9.7 8.6-13.4.5a39 39 0 0 1-3.1-17.5c-.5-14.5 1.2-43.2 3.8-62.8a312 312 0 0 1 55.8-145.3 126 126 0 0 1 29.2-29.6c16.5-10.5 26.2-12.8 34.5-8.2m1379.8-1.4c4.3 1.8 8.4 6.7 9.8 11.9 2.2 8.1-3.9 38.3-11.6 57.2-7.5 18.6-94.5 187.7-98.9 192.2a46 46 0 0 1-8.3 5.6l-6.2 3.5-2.8-6.6c-2.8-6.6-2.8-7-2.7-26.2.2-45.2 9.7-95.3 25.6-135.5 12.7-32.1 37.4-70.5 54.7-85.2q26.7-22.8 40.4-16.9m-447.9 24.4-52.1 130.4-48.7 121.8h-8.5l-1-5.3a217 217 0 0 1-4.8-49.8c-.8-37.7 1.9-62.4 9.7-90.2 10.8-38.3 34.4-77.2 59-97a97 97 0 0 1 33.4-18.3l12.1-4.2 2.2 2 2.1 2zM1297 3722.4c0 3.7-5.6 22.2-9.5 31.6-2.5 5.8-8.2 17-12.8 25-19.2 33.6-34.4 52.1-56.2 68.3-12 9-19.3 12.1-28.5 12.1-6.5.1-8.2-.3-12.4-2.8a48 48 0 0 1-16.4-17c-2.3-4.4-2.7-6.3-2.7-13.6 0-7.9.3-9.1 4.2-17.3 14.6-30.4 35.6-46.3 100.9-76.3 21.6-9.9 33.4-13.5 33.4-10m-259.9-864.3c-6.6 1.1-10.3 3.2-12.7 7.3-1.8 3-1.9 7.8-2.2 131.6-.3 129.8.1 149.5 3.4 171.4 4.2 28.5 12.3 51 26.5 73.8a171 171 0 0 0 105.1 75.7c51 13.2 104.8 8.6 148.8-12.5a168 168 0 0 0 93.5-120.9c3.6-18.2 4.3-27.4 5.6-73 1.3-50 .4-236.6-1.3-243-.5-2.2-1.9-5-3-6.2-4.2-4.5-6.9-4.8-49.3-4.7-43.7.1-45.9.4-49.9 5.7-2.1 2.8-2.1 3.3-2.8 111.5-.6 106.5-1.8 163.7-3.9 179.7a75 75 0 0 1-21.9 46.7 57 57 0 0 1-19.1 13.7 78 78 0 0 1-39.4 9.5 77 77 0 0 1-45.8-13.1 76 76 0 0 1-36.3-55.1c-1.5-8.5-2.7-87.4-3.6-244.2-.3-43.2-.3-43.5-2.6-47.1-4.5-7.3-5.1-7.4-46.7-7.6-20.3 0-39.4.3-42.4.8m1117.4-.2c-24.4.7-26.9 1.3-30.2 7.4-1.7 3-1.8 14.6-1.8 220.7 0 239.9-.5 221.1 6.3 225.6 1.8 1.2 5.6 2.6 8.5 3 9.1 1.3 72.6.9 78.4-.5q9.1-2.2 11.3-10c.6-2.1 1.3-26.3 1.6-58.6.7-62.5.5-60.9 8.5-65.5 4.5-2.5 2.5-2.3 53.4-5 24.9-1.3 40.3-3.2 54.2-6.5a146.5 146.5 0 0 0 114.2-118.2 168 168 0 0 0-4.9-89.4 144 144 0 0 0-34-56.3c-27.1-28.1-59.4-42.4-102.9-45.7-15.9-1.2-130.7-1.9-162.6-1m117 99.1c36.6 1.9 46.2 3.5 56.5 9.3a59 59 0 0 1 25.9 36.5c2.7 12.9.8 26.9-5.2 39.2a76 76 0 0 1-26.7 26.8c-11.5 5.7-17.7 6.4-51.5 6-39.6-.5-39.7-.6-41.6-18-1.2-10.8-.2-85.4 1.2-90.8a16 16 0 0 1 7.9-9.3c2.4-.9 13-.8 33.5.3m267.6-98.9c-9 1.1-13 3.2-15.6 8.4-2 4-2 6.3-2.3 213-.2 138.8.1 211.9.8 217.5 1.1 9.3 2.6 12.3 8.1 15.5 2.9 1.7 5.8 2 20.8 2.5 9.6.3 28.1.3 41 0 27.9-.6 29.9-1.1 34.1-9.6l2.5-4.9.3-212c.2-152.6-.1-213.5-.9-217.4a17 17 0 0 0-4.4-8.9c-3.2-3.5-3.3-3.6-14.1-4.3-14.4-1-61-.9-70.3.2M844 2859.8a13 13 0 0 0-5.6 5.9c-2.1 4.2-2.1 4.4-2.8 142.5-.4 76.1-1.1 143.1-1.7 148.9-3.1 35-19.1 57.5-46.5 65.5a70 70 0 0 1-28.4.5c-3-.8-8.4-2.8-12-4.6-17.6-8.9-27.2-21.9-35-47.5-6.5-21.6-7.2-23.6-9.6-26.8-5.2-6.8-4.7-6.7-46.9-6.6-37.8 0-38.1 0-42.9 2.4a12 12 0 0 0-7 6.9c-1.9 4.1-2.1 6.2-2 19.6q.7 76.5 62.7 123.7c22 16.8 44.5 27.3 70.7 33 9.2 2 13.3 2.2 32.5 2.2 20.1 0 23.1-.2 35-2.7 7.2-1.6 19.6-5 27.6-7.6 63.3-21.1 98.3-60.3 103.8-116.1 1.7-17.1 3-81 4.2-208.6 1.2-119 1.1-120.1-.8-124.5-3.6-8-3-7.9-50.5-7.9-37.3 0-41.6.2-44.8 1.8"></path><path d="M1786 71.7c-25.6 2.5-40 4.9-59.9 9.8A382 382 0 0 0 1552 181a315 315 0 0 0-89.9 180.5 406 406 0 0 0 15.5 176.5c18.4 55.4 50.8 93.5 99.5 116.8l9.6 4.6-7.9 16c-21.1 43.1-35.4 90.4-44.8 148.1a4377 4377 0 0 0-18.5 146.2c-.4 4.2-1.6 9.1-2.9 11.5-2.4 4.8-1.3 4.1-123.8 84.5-35.4 23.1-113.6 74.4-173.8 114l-114.7 75.1c-7.9 5-13.1 5.2-27.3.9-24.2-7.4-43.1-10-71-10.1-37.8 0-60.8 5.2-93.5 21.3-74.7 36.8-122.5 111-119.2 184.6 1 21.3 7.2 47.4 15.8 66.4 3.8 8.3 4.4 12.7 2.9 19.2-1.2 4.9-2.4 6.4-17.9 21.9-17.6 17.6-29 27.1-73.1 60.5a955 955 0 0 0-70.7 56.9 178 178 0 0 0-44.7 66.5c-5 13.9-29.8 115.1-35.6 145.1a565 565 0 0 0-2.4 197c11.9 69.6 30 109.4 63.8 139.8a128 128 0 0 0 45.5 26.6c18.9 6.6 26.3 7.7 59.6 8.6 16.5.5 31.4 1.2 33 1.5l13.5 2.7c5.8 1.1 19.7 4.2 31 7 133.4 32.2 234.6 49.1 323 53.8 11.3.6 22.2 1.5 24.2 2.1 5.4 1.4 6.6 4.4 7.8 20a373 373 0 0 0 40.3 146.3c43.3 84.1 102.2 128 180.7 134.7 24.3 2 45.8 0 88.6-8.6a2266 2266 0 0 0 183.2-45.9c158.3-45.4 313.6-97 486.2-161.6a806 806 0 0 1 48-16.8c4.7-1.2 15-2.8 23-3.7a474 474 0 0 0 98.5-22.9c62.8-20.9 103.1-40.7 203.3-100a697 697 0 0 0 63-39.8 633 633 0 0 0 83.8-72.9c45-45.8 79.3-88.2 117.4-145.4 19.3-29 33.5-45.4 52.4-60.7 5.4-4.4 23.7-17.1 40.5-28.2s35.6-24 41.6-28.6a312 312 0 0 1 48.5-30.5c20.8-10.5 32-14.9 75.4-29.5 83.7-28.1 149.2-55 228.1-93.4 62.5-30.5 107.8-55.7 208-115.6 31.9-19.1 65.7-39.1 75-44.5 20.8-12 31.5-19.1 44.2-29.4 58.5-47.1 94.1-125.6 101.3-223.6 1.3-18.1 1.3-50.4 0-63.6a201 201 0 0 0-55.4-120.6c-6-6.3-14.3-14.1-18.5-17.5a258 258 0 0 0-81.6-42.8c-11.3-3.8-16-7.4-16.9-13.1-.3-1.9-1.4-13.2-2.6-25.2-9-93.5-33.7-195.6-72.6-299.4a2155 2155 0 0 0-42.9-104.8c-37.4-86.4-38.5-89.1-38.5-94.9 0-5.1.5-6.2 6.5-15 26.8-39.6 35.4-90.1 25.4-150.1-10.5-63.7-40.4-118-90.6-164.6a311 311 0 0 0-141-76.8 261 261 0 0 0-74.3-8.6c-28.8 0-35.8.6-59.3 5.1-33 6.4-66.7 19.5-93.4 36.5-8.3 5.3-10.6 6.3-15.3 6.6-4.3.4-21.3-2.7-78-14.1-39.9-8-83.5-16.6-97-19a1399 1399 0 0 0-205.4-22.7 3278 3278 0 0 0-172.1 1c-110.5 6.3-190.4 16.7-281 36.8-35 7.7-47.9 8-65.8 1.8-12.2-4.2-20.1-9.8-34.8-24.4a197 197 0 0 0-53.9-41c-34.9-17.8-72.2-25.3-124.4-24.9-12.7 0-24.7.3-26.6.5m704 95.3c100 3.8 179.1 12.6 319 35.6 86.7 14.2 138.5 28.3 199 54.1 104.7 44.6 186.8 109.4 238.7 188.1 28.7 43.6 90 164.7 125.5 247.7 49.5 115.9 84.4 231.8 97.7 325 15.5 107.6 8.6 185.4-22.5 254.6-22.7 50.6-62.2 97.3-113 133.6-36.2 25.9-102.2 62.2-153.9 84.7-121.5 53-272 96.4-438.1 126.6-33.7 6.1-46.8 8-86.4 12.5l-37 4.4c-6.7 1.1-20 6.1-20 7.6.1 3.1 2.5 3.7 31.4 6.9 16.4 1.9 30 3.6 30.2 3.9 1.4 1.4-19.1 12-31.7 16.5-38.9 13.7-108.7 16-175.9 5.6-22.5-3.5-66.8-12.9-68.5-14.6-.3-.3 2.8-1.8 7-3.3 5.8-2.1 8.3-3.6 11.1-6.8l3.5-4.2-4.1-1.9c-3.8-1.9-4.7-1.9-20.8-.7l-28.2 2.1a1510 1510 0 0 1-130-4.1 1263 1263 0 0 1-202-35.5c-49.8-12.4-111-30.1-111-32.1 0-.8 13.4-6.5 43.3-18.5 147.3-58.7 268.4-124.5 353.2-191.7 51.5-40.7 97.9-90.3 121.9-129.9 16.4-27.1 23.5-46.8 31.1-86.1 5.9-30.6 7.7-46.3 8.2-71.8.6-25.5-.4-39.2-4.1-56.8-1.7-8-2-11.2-1.2-11.7.6-.4 17-7.1 36.3-14.8a1329 1329 0 0 0 51-21.3c58.2-27 109.5-65 150.6-111.7 33.7-38.3 48.9-67.4 55.9-107 1.9-11.1 1.6-45.8-.5-58.5a323 323 0 0 0-63.4-138.5c-47.6-59.5-122.3-93.3-206.3-93.3-29.9-.1-52.3 3.4-79.3 12.3a254 254 0 0 0-98.6 61.5c-55 53.6-84.5 112.5-100.5 201-4.6 25.2-5.3 32.1-8.6 87.9-.5 8.7-1.1 16-1.3 16.2s-13.6 3.5-29.7 7.4a706 706 0 0 0-38.5 10.1 384 384 0 0 0-63 31.9c-13.2 7.8-38.2 21.6-55.5 30.5-99.1 51-323.6 164.3-353 178.1a3154 3154 0 0 1-102.2 46.4c-1.6 0-.3-91.6 1.6-119 6.7-95.2 22.9-195.2 52-321.1 4.2-17.8 8.1-34.2 8.8-36.3 2.1-6.3 4.9-7.6 17.9-8.7a195 195 0 0 0 72.6-20.3c17.5-8.6 38-21 38.7-23.4l1-5.3c1-5.8 6.4-11.1 15.3-15a496 496 0 0 0 66.3-37.2c91-60.7 152.8-140.7 186.6-241.2a438 438 0 0 0 17.9-71c5.4-29.3 4.8-27.2 8.4-32.3l2.9-3.9 18.9-.6c23.4-.7 36.7-2.9 78.8-13.1A860 860 0 0 1 2220 181c43-6.9 92.5-11.8 141.5-13.9 28.1-1.2 98.2-1.2 128.5-.1m-657.5 57a86 86 0 0 1 39.8 25.4 37 37 0 0 1 9.7 24.6c-.1 11.4-4.4 20.4-24.4 49.8-19.5 28.9-92.2 116.9-126 152.5-19.1 20.2-26.5 26.4-38.6 32.4a25 25 0 0 1-15.7 3.8c-7.6 0-8.4-.2-12-3.1-5.4-4.3-7.7-9-11.3-22.8-6.2-23.4-14-60.7-14-67 0-21.2 9.6-55.1 23-81.9 28.9-57.4 80.3-102.2 130.5-113.7a98 98 0 0 1 39 0m783.6 378.9c22.2 8.5 40.8 30 49.2 56.7 4.8 15.2 6.1 25.2 6.1 47.4.1 22.8-1.1 30.3-7.6 45.8-9.1 22-29.7 42.8-48.6 49.4a49 49 0 0 1-19.2 2.3 42 42 0 0 1-19.4-2.8c-26.3-10.4-46.2-37.7-53.3-73.5-1.2-6.1-1.7-13.6-1.7-25.2s.5-19.1 1.7-25.2c7.5-37.4 29-66.5 55.6-75.3 6.8-2.3 8.9-2.5 19.6-2.2 9.3.3 13.3.9 17.6 2.6m-404 328.8a31 31 0 0 1 14.7 13.7c2.1 4.2 2.6 6.5 2.6 13.1.1 6.8-.3 8.9-2.7 13.7-5.2 10.6-14.9 16.2-27.7 16.1-20.1-.1-33.5-18.9-27.6-38.7a29 29 0 0 1 19.1-19.3c5.4-1.7 16-1.1 21.6 1.4m106.8 34.3c12.3 6.6 19.9 17 20.9 28.6 1.1 14-9.4 22-25.1 19.2-16.1-2.9-32.7-20.5-32.7-34.7 0-5.8 3.8-12.1 9.1-14.9 3.9-2.1 5.4-2.3 12.9-2 7.3.4 9.4.9 14.9 3.8m-97 68.6a78 78 0 0 1 40.7 28.7c8.8 12.2 13.3 14.7 27.3 14.7q30 .2 41.3 22.8c3.3 6.6 3.3 6.8 3.3 21.2a54 54 0 0 1-3.3 24 93 93 0 0 1-38.2 47.9 80 80 0 0 1-50 14.8 103 103 0 0 1-71.8-35.1 123 123 0 0 1-23.8-48.1c-2.5-10.6-2.5-32-.1-41.9a112 112 0 0 1 19-39.1c8.3-10.2 33.9-14.7 55.6-9.9m170.1 1.3c9.8 4.4 16 15.6 16 28.6 0 33.5-38.6 43.7-50.2 13.2a46 46 0 0 1-.4-25.5 34 34 0 0 1 13-15.9 25 25 0 0 1 21.6-.4m1144.4 155.5c16.3 8 23.9 29.4 14.4 40.2-4.7 5.3-8.3 6.8-16.3 6.8-8.5 0-14.3-2.4-21-8.5a27 27 0 0 1-9.9-21.4c0-7.5 1.4-11.3 5.7-15.3 6.2-5.8 17.5-6.5 27.1-1.8m-2296 141.6c9.7 91 32.4 167.7 74.6 252.1a953 953 0 0 0 290.7 341.2 1184 1184 0 0 0 326 165.1 1307 1307 0 0 0 542.8 54.5c24.2-2.6 45-5.7 95.5-13.8 53.9-8.8 53.2-8.7 54.7-6.3 1 1.6-.6 3.4-14 15.4a274 274 0 0 1-45.4 35.1c-90.3 59.3-166.8 105.9-192.6 117.4-41.2 18.3-84.9 27.4-158.7 33-28.1 2.1-110.7 2.4-139.5.5a1759 1759 0 0 1-250.9-34.8c-40.6-8.2-60.5-12.9-85.1-19.9-89.5-25.3-175.1-65.7-263-124-110.2-73-217.1-169.5-285.8-257.8-76-97.7-126.9-230.3-141.4-368.7a945 945 0 0 1 0-119c3.8-35.1 8.7-62.6 12.2-68.5 4.9-8.3 4.8-8.3 81.5-53.7 25.6-15.1 57.5-34.3 71-42.6l24.5-15.1.6 47.2c.4 33.1 1.1 51.8 2.3 62.7m2370.9-80.5c4.5.7 10.1 5.4 12.7 10.5 6.5 12.8 4 37.8-4.7 46.2-8.1 7.7-14.9 8.6-22.7 3-9.6-6.8-14.4-19.6-12.6-33.6 1.2-9.6 4-16.3 8.9-21 3.9-3.8 10.3-6.8 13.1-6.1zm-128.3 44.6c2.4 1.1 5.8 3 7.5 4.3 7.9 6 13.1 6.8 25.2 4a51 51 0 0 1 27.5 1.3 36 36 0 0 1 15.7 14.8c3.6 7.2 5 13.9 5.7 26.5 1.9 33.9-10.4 61.5-34.6 78-9 6.1-16.8 9.4-33.3 13.9l-14.5 4-9.8-1.5c-27.7-4.1-45.6-11.9-59.9-26-9.7-9.4-13.5-16.1-13.5-23.7 0-7.2.8-8.7 13.5-26.2 5.6-7.7 17-24.1 25.4-36.5a416 416 0 0 1 19.4-26.9c7.6-8 16.7-10.1 25.7-6M881.4 1402.3a51 51 0 0 1 19.5 12.6c1 1.4 2.2 4 2.5 5.7.6 2.8-.2 4.4-8.5 15.5-24.4 32.7-51.2 67-51.9 66.2-1.4-1.4-6-17.7-8.1-28.4-4.9-25.6-2.4-63.6 4.7-71 3.3-3.4 5.4-3.8 21.9-3.5 11.2.3 14 .7 19.9 2.9M2703.3 381.5q-10.8 3.1-16 10.7c-2.5 3.7-2.8 5.1-2.8 12.2 0 7.3.4 8.7 3.4 14.3a74 74 0 0 0 36 31.2c15.4 5.9 34.8 7.9 46 4.5a25 25 0 0 0 17.1-24.8c0-17.5-25.2-41.1-50.7-47.7a84 84 0 0 0-33-.4m290.7 28.1c-25.3 4.7-46.5 27.4-43.6 46.6 1 6.5 3.6 9.4 12.8 13.8 7.3 3.6 8.3 3.8 12.6 3 20.2-3.8 42-18.8 48.9-33.6 3.9-8.4 3.9-17.6.1-22.6-4.1-5.4-8.8-7.2-19.3-7.4a116 116 0 0 0-11.5.2m123.7 140.9a146 146 0 0 0-59.2 23.2 197 197 0 0 0-85.9 125.1c-4 19.5-5 29.6-5 52.2a166 166 0 0 0 27.5 98c7.9 12 38.2 42.6 54.9 55.4 38.3 29.7 84.8 53 121.1 60.7 13.8 3 40.2 3.3 52.6.6q56.1-12 92.6-67.2a175 175 0 0 0 27.7-79.3c1.9-16.5.8-57.7-2-73.2a270 270 0 0 0-50.3-113.9 330 330 0 0 0-38.8-40.7 190 190 0 0 0-79.6-39.5c-13-2.7-42.7-3.5-55.6-1.4m-2.2 94.7c26 5.7 49.9 32.8 58.5 66.1 7.5 29.5 4.7 63.7-7.5 89.4-10.7 22.7-25 37-44.7 45.1a46 46 0 0 1-16.3 3c-12.6.6-19.3-.8-29.8-6A57 57 0 0 1 3058 829c-18.1-18.3-27.3-39-30.1-67.9-4.1-41.1 7.2-76 32.1-99.5a58 58 0 0 1 55.5-16.4m.9 29.2q-5.9 2.5-11.3 14.8c-2.8 6.2-3 7.4-3.7 25.1-.8 21 0 25.4 5.7 30.2 3.8 3.1 8.9 3.3 22.6.5 18.7-3.7 25-9.2 26.1-22.6.4-5.1.8-6.5 2.4-7 1.7-.5 1.3-1.7-4.4-12.5-8.5-16.2-14.8-24.6-20.1-26.9-6-2.6-13.5-3.3-17.3-1.6M2851 854.6c-36.9 13.5-41.5 15.8-44.5 21.9q-3.5 7.4 2.9 17.1a94 94 0 0 0 47.6 35.2 84 84 0 0 0 28.4 4.2c24.7-.1 40.6-8.2 46.7-23.9a36 36 0 0 0 2.3-15.6c.1-9.4-.1-10.5-3.2-16.7a34 34 0 0 0-17.8-16.9c-6.1-2.9-39.1-12-42.9-11.8-1.1.1-9.9 3-19.5 6.5m29.5 175.6a191 191 0 0 1-102.2 44.4c-5.5.6-6.3.9-6.3 2.8 0 2.8 7.9 8.2 14.7 9.9 2.8.8 6.3 2.1 7.7 3 4.8 3.2 4.5 5.7-5.3 44.4-16.9 67.1-20.5 85.9-20.5 109.8a134 134 0 0 0 13.4 62.3c11.3 24 24.6 37.1 42.5 41.7 7.7 2 25.2 2 33 0a64 64 0 0 0 33.8-23.3c13.8-18.9 32.2-63.2 39.1-94.4 6.1-27.4 7-36 7-67.8 0-27.5-.2-30.5-2.6-44-1.5-8-4.3-20.1-6.3-26.9-1.9-6.8-3.4-12.5-3.3-12.6l12.5-6.4c10.5-5.2 12.1-6.3 11.6-8.1q-.6-1.9-2.7-2a77 77 0 0 1-24.6-7.1 77 77 0 0 1-27.9-26.2 31 31 0 0 0-5-6.6c-.3 0-4.2 3.2-8.6 7.1m-49.8 126.3a71 71 0 0 1 26 16.9c23.4 22 37.6 57.6 36 90.5a68 68 0 0 1-8.3 32.9 64 64 0 0 1-39.2 32.9c-8.3 2.7-8.3 2.7-14.7 1.1-9-2.4-12.7-5.2-18.5-14-12-18.2-16.7-33.8-21.5-72.3l-2.5-19.6 2.1-19.7a689 689 0 0 1 3-26.2c3.6-22.5 16.4-30.2 37.6-22.5m-224-515.5a46 46 0 0 0-8.2 12.2c-3.6 7.3-4.5 10-4.5 14.3a35 35 0 0 1-1.5 9.5c-2.6 7.3-2 15.7 1.6 22.9 5.4 10.8 12.3 14 22.7 10.3 3.1-1.1 8.1-2.2 11.1-2.6 7.5-.8 15.3-4.7 18.3-9.4 2.3-3.4 4.8-9.9 6.2-16.2.7-3-11.5-28.4-16.4-34.3a30 30 0 0 0-19.6-9.5c-5.7-.4-6.3-.3-9.7 2.8M3395 2847.7a241 241 0 0 0-85.5 22.2 197 197 0 0 0-56.4 39.6c-53.4 51.9-78.4 120-72 196.2 5 59.7 25.6 108.3 62.8 148.3 35.8 38.6 83 61.9 140.6 69.6a338 338 0 0 0 70.4.1 227 227 0 0 0 125-63.2 230 230 0 0 0 71.1-162c0-17.8-2.9-24.5-11.6-26.5-2.2-.6-51.2-1-112.9-1-104 0-109.2.1-113.1 1.9q-7.3 3.3-9.5 11.4c-1.4 5.3-1.4 52.3.1 57.6 1.3 5 4.5 9 8.6 10.7 2.6 1.1 14.3 1.6 49.6 2.4 45.7.9 65.2 1.7 69.6 2.6 2.1.4 1.8 1-5 11.2-19.1 28.5-48.7 46.6-86.3 52.7-12.1 2-36.6 1.9-48.6-.1a120 120 0 0 1-97.9-91.9 170 170 0 0 1-4.7-52.1c.5-20.7 2.3-31.7 7.6-46.6 13.9-39.8 48.9-69 94.1-78.5 12.1-2.6 43-2.5 55 .1a124 124 0 0 1 80.5 54.1 50 50 0 0 0 16.9 17.4c8.2 4.3 12.3 4.5 52.1 3.4 33.2-.9 37.7-1.2 41.1-2.9 5.6-2.7 6.9-6.1 5.4-13.8-4.5-22.9-16.6-49-33.3-71.6-36.6-49.4-101.3-85.2-164.7-90.9a425 425 0 0 0-49-.4m-1503.9 10.4a26 26 0 0 0-12.3 7.9c-6.8 6.8-6.5 6.3-28.3 56.5-40.7 93.6-81 183-85.8 190.3l-5 7.7-4.5-9.5c-4.2-9.2-48.6-109.6-85.4-193.5l-19.9-44.7a28 28 0 0 0-12.7-12.9c-4.6-2.3-4.9-2.3-46.3-2.1a412 412 0 0 0-44.6 1.3c-3.5 1.3-7 4.5-8.9 8.1-2.2 4.2-10.6 54.7-30.9 186.3l-27.7 178.5c-10.1 65-10.9 74.1-6.9 78.4 3.8 4.1 9.3 4.6 49.5 4.6 41.6 0 44.7-.4 50.3-6.2 1.8-1.8 3.9-5.3 4.8-7.8s5.8-34 11-70.1c21.3-148 23.9-163.9 28.1-177.2 2.1-6.4 4.1-6.1 9.1 1 5.5 7.9 6.1 9.1 39.3 81.8 63.4 138.8 75.5 164.3 81.1 170.9a21 21 0 0 0 24.9 5.6 35 35 0 0 0 13.6-14.2l41.3-89.5c74.6-162.7 76.1-165.8 79.4-165.8 1.9 0 2.3 1.2 4.9 16 3.2 18.4 19.7 128 29.3 194.4a700 700 0 0 0 8 48.8q3.4 8.1 11.6 10.8c4.1 1.4 10.4 1.6 45.1 1.3 36.3-.3 40.6-.5 43.5-2.1a13 13 0 0 0 7-10.4c.2-2.2-3.1-26.7-8.1-58.3l-33.1-212.5a8203 8203 0 0 0-26.1-162.6 14 14 0 0 0-8.9-9.9c-1.8-.7-15.2-1.5-34.5-2-43.2-1.2-44.5-1.2-51.9 1.1m856.4-1.4c-17.8 1.5-22.6 4-24.4 12.4-.8 3.5-1.1 62.7-1.1 193.7a13593 13593 0 0 1-.9 193.1q-1.6 8-7.7 11c-1.8.9-8.7 1.7-18.9 2.3-30.9 1.6-36.6 4.1-43.6 19.3-7.2 15.9-9.6 26.3-27.9 124.3-12.1 64.9-18.7 97.7-20.1 100.8-2.7 5.7-8 10.1-14.4 11.9-2.7.8-14 3.1-25 5-32.6 5.8-49 10.8-69.9 21.2a203 203 0 0 0-96.9 105.3 375 375 0 0 0-22.8 82.5c-7.1 39.1-10.1 48.5-25.8 80.1-13.9 28.1-50.8 94.2-55.4 99.3-4.2 4.6-9.9 8.1-13.2 8.1-4.2 0-12.4-7.2-15.4-13.3-2.6-5.5-9.7-40.8-11.2-56.2-1.6-16.1-.6-66.8 2.2-117.5 3.1-53.5 3.3-123.1.6-145.4-3.7-29.2-8.1-45.1-16.4-59.1a83 83 0 0 0-48.4-39.2 75 75 0 0 0-21.9-1.7c-13.5.1-16.8.4-25.4 2.7-18.7 5-37.4 16.1-50.2 29.9-12.4 13.5-26.8 34.7-52.9 78.3-16.6 27.6-27.6 44.8-29.4 45.9q-1 .5-2.5 0c-1.4-.6-1.6-7.6-1.6-70.9 0-82.9-.4-88.1-7.7-95.7-5.1-5.3-10.6-6.3-32.9-6.1-22.6.2-33.7 1.4-39.3 4.2a24 24 0 0 0-11.4 13.8c-2.6 8-16.9 135.9-22.2 198.8-4.3 50.5-7.5 64.2-20.9 88.5a3385 3385 0 0 1-47.3 89c-45.2 82.5-44.9 82-51 88.2a27 27 0 0 1-6.1 5.3c-.3-.2-1.1-5.5-1.8-11.7-1.4-12.6-1.7-1.5 4.6-180.3 6.1-172.2 6.2-177 5.8-212.6-.3-32.8-.3-33.5-2.7-38.3a21 21 0 0 0-16-11.2c-2.5-.4-24.6 0-49.1 1a6922 6922 0 0 1-77.5 2.6c-32.1.8-33.3.9-44.5 3.8a127 127 0 0 0-61 35.2 159 159 0 0 0-28.6 38.3l-9.6 17.2a73 73 0 0 1-10.5 13.1c-13.6 13.7-29.1 19-61.8 21.1-7.7.5-8.2.4-11.3-2.2-3.7-3.1-5.2-7.5-10.6-31-11-47.5-18.9-65.4-37.5-84.8a94 94 0 0 0-44.6-26.7 108 108 0 0 0-41.6-1.5c-29.4 5.9-47.1 17.9-80.2 54.2-6.5 7.1-15 15.8-18.9 19.3l-7 6.3.7-51.9c.6-39.9.5-53.3-.5-57.9-3.6-17.4-13.1-22.9-35.4-20.6a321 321 0 0 0-41.6 6.9 25 25 0 0 0-16.4 16.2c-1.9 6.3-12.9 68.3-18.1 102a1619 1619 0 0 0-16.6 164c-2.3 43.4-1.2 170.1 2.1 245.5a994 994 0 0 0 20.1 167.5c3.6 16.3 5.4 20.4 10.6 25.2 6.1 5.4 10.6 6.1 38.3 5.6s32.1-1.4 40.1-8.6c4.1-3.7 5.2-5.5 7.1-11.5 2.3-7.8 2.3-11-.2-100.2-1.9-69.4-3.2-139.8-2.5-144 .7-4.9 4.2-9.1 8.3-9.9 1.5-.3 8.8-.8 16.2-1.1 56.8-2.7 97.7-20.3 132.9-57.1a297 297 0 0 0 71.1-118.9 69 69 0 0 1 15.3-29.7 56 56 0 0 1 22.7-12.6c8-1.9 29-5.2 33.5-5.2 7.9 0 8.8 4 5.8 23.6a427 427 0 0 0 0 79.9c4.3 28.4 10.4 51 17.2 63.2a62 62 0 0 0 83.4 23.1c7-4.1 17.4-13.9 26.5-25.2 7.2-9 36.2-49.1 44.6-61.6 2.4-3.6 4.4-6.7 4.6-6.8q.3-.3 2.2.2c2.2.7 1.9-1.8 6.2 45.7 6.4 69.9 12.9 103.5 27.1 139.2 8.2 20.5 15.9 33.4 26.3 43.9 32.4 32.7 83.2 31.5 117.2-2.9 11.7-11.8 16.9-20.5 51.1-85.8 19.5-37.1 24.8-46.5 26.3-46.5 2 0 4.5 10.9 9.5 42.3 6.1 37.8 7.4 43.2 11 47.5 5.3 6.3 7.3 6.7 36 6.7 28-.1 34.4-.9 40.7-5 7.2-4.8 8-7.5 31.8-107.5 24.2-102.3 27.1-113.3 37-143a504 504 0 0 1 48-106.5c13.8-23 33.3-49.4 41-55.5 10.1-8 18.8-7.4 22.7 1.8 1.6 3.8 4.7 31.2 6.5 57.2 1.7 26.5 1.4 98.8-.7 150-3.3 82.1-.7 116 12 154.7 11.3 34.3 24.7 49.1 50.9 56.3 20.4 5.6 47.1 3.7 66.8-4.7a87 87 0 0 0 38.1-31.2c6.3-8.4 33.4-50.9 45.7-71.9 2.3-3.9 4.4-7.2 4.7-7.2s5.9 4.3 12.6 9.6c13.7 10.7 23.7 17 34.5 21.5A88 88 0 0 0 2547 3857c7.6-10.3 10-15.4 25.3-52.6a1094 1094 0 0 1 19-44l4.5-8.9.6 3.5c.4 1.9 2.7 20.6 5.1 41.5 11 92.3 19.6 137.8 35.5 185.5 11.2 33.7 27.3 69.1 38 83.2a70 70 0 0 0 34.5 24.5c6.8 2.2 9.8 2.6 20 2.7 14 0 20.8-1.5 33.2-7.5a72 72 0 0 0 34-38.1c6.4-15.2 16.7-50 37.8-126.8 11.3-41.3 18.9-66.7 20.5-68.3.4-.4 4.3 2.2 8.6 5.9q35.2 30 65.6 19.5c21.4-7.4 33.6-19.9 65.3-67.1 17.8-26.5 23.6-34.3 24.5-33.3 1.1 1.1 3.5 19.3 6.5 48.8 9.4 91.3 20.3 136.4 40.2 166.3a85 85 0 0 0 55.3 37.8c20 3.6 40.7-1.2 59-13.6 12.5-8.5 27.7-26.4 39.7-46.9a6024 6024 0 0 0 103.1-209.6c14.8-32.4 17.2-38.4 17.2-43.7 0-9-8.3-17.1-20.4-19.8-8.6-1.9-16.6 1.7-22.4 10.3a7417 7417 0 0 0-59.4 110.2c-71 133-68.3 128.1-76.3 139.1-5.7 7.9-7.1 9.2-8.6 8.4-5-2.7-5.2-16-2-111.3 3.1-89.1 7.8-263.7 8.3-305.2.2-21.2-.6-25.2-6.4-30-7-5.9-15.1-6.4-54.8-3.9-14 1-42 1.8-65.5 1.9-44.2.3-49.9.8-66.7 6.1-32 10.1-66.4 38.8-87.8 73.3a265 265 0 0 0-33 88.2l-5.6 29.4c-2.7 14.3-22.1 84.6-55.4 201.5-12 42.1-22.6 79.4-23.5 83a79 79 0 0 1-14.4 28.4c-2.2 2.2-4.2 3.8-4.4 3.5s-1.9-6-3.7-12.9l-3.2-12.5-1-57c-1.2-73.6-.4-197.4 1.6-251.5 4.9-131.5 14.2-344.9 15.5-358.8 1.3-12.6 2.8-15.7 8.8-18.4 4.1-1.8 7.6-2.1 29.7-2.7 26.2-.8 30-1.4 33.8-5.7 4.4-5 4.3-1.8 4.9-129.4.3-66.8 1-123.2 1.5-125.2l.9-3.8 4.6 5.8c2.5 3.1 27.7 37.6 55.9 76.7 64.7 89.4 113 155.4 118.9 162.4a65 65 0 0 0 22.1 16.6c8.8 3 22.8 3.8 45.9 2.5 24.2-1.3 27.1-2.1 30-7.9 3.8-7.6 4.1-22.6 4.1-220.6 0-195.1-.3-214.1-3.8-221.5-3.4-7-4.4-7.2-41.5-7.8-44-.6-51.8.4-56.4 7.5-1.7 2.5-1.8 10.3-2.4 122.8-.3 66-.9 121-1.3 122.2-1.5 4.1-3.3 3.3-8.9-3.5-5.4-6.6-64.2-88.3-132.2-183.7-19.3-27-37-51.1-39.5-53.6a40 40 0 0 0-19.5-11.3c-4.7-1.3-11.1-1.6-30.5-1.4a828 828 0 0 0-28.5.5m-1462.7 686.9c4.7 1.9 8.5 5.6 12.8 12.1a91 91 0 0 1 14.4 37.3c3 21.5 4 60.7 1.6 66.3-1.8 4.5-7.4 9.1-13.8 11.5-18.9 7-119 41.3-119.4 41-2.1-2.1 24.3-63.6 49.7-115.6 12.8-26.3 17.2-32.9 28.7-42.9 9.2-8 9.7-8.3 13.9-9.9 5-1.7 7.6-1.7 12.1.2m367.7 20.2c1.7 1 4 3.8 5.3 6.2 2.1 3.9 2.3 5.5 1.8 12-.7 9.7-5.5 28.5-10.8 41.9-2.3 5.8-25.1 52.3-50.6 103.3-43.8 87.7-46.7 93.1-52.5 99.5-7.8 8.6-9.7 8.6-13.4.5a39 39 0 0 1-3.1-17.5c-.5-14.5 1.2-43.2 3.8-62.8a312 312 0 0 1 55.8-145.3 126 126 0 0 1 29.2-29.6c16.5-10.5 26.2-12.8 34.5-8.2m1379.8-1.4c4.3 1.8 8.4 6.7 9.8 11.9 2.2 8.1-3.9 38.3-11.6 57.2-7.5 18.6-94.5 187.7-98.9 192.2a46 46 0 0 1-8.3 5.6l-6.2 3.5-2.8-6.6c-2.8-6.6-2.8-7-2.7-26.2.2-45.2 9.7-95.3 25.6-135.5 12.7-32.1 37.4-70.5 54.7-85.2q26.7-22.8 40.4-16.9m-447.9 24.4-52.1 130.4-48.7 121.8h-8.5l-1-5.3a217 217 0 0 1-4.8-49.8c-.8-37.7 1.9-62.4 9.7-90.2 10.8-38.3 34.4-77.2 59-97a97 97 0 0 1 33.4-18.3l12.1-4.2 2.2 2 2.1 2zM1297 3722.4c0 3.7-5.6 22.2-9.5 31.6-2.5 5.8-8.2 17-12.8 25-19.2 33.6-34.4 52.1-56.2 68.3-12 9-19.3 12.1-28.5 12.1-6.5.1-8.2-.3-12.4-2.8a48 48 0 0 1-16.4-17c-2.3-4.4-2.7-6.3-2.7-13.6 0-7.9.3-9.1 4.2-17.3 14.6-30.4 35.6-46.3 100.9-76.3 21.6-9.9 33.4-13.5 33.4-10m-259.9-864.3c-6.6 1.1-10.3 3.2-12.7 7.3-1.8 3-1.9 7.8-2.2 131.6-.3 129.8.1 149.5 3.4 171.4 4.2 28.5 12.3 51 26.5 73.8a171 171 0 0 0 105.1 75.7c51 13.2 104.8 8.6 148.8-12.5a168 168 0 0 0 93.5-120.9c3.6-18.2 4.3-27.4 5.6-73 1.3-50 .4-236.6-1.3-243-.5-2.2-1.9-5-3-6.2-4.2-4.5-6.9-4.8-49.3-4.7-43.7.1-45.9.4-49.9 5.7-2.1 2.8-2.1 3.3-2.8 111.5-.6 106.5-1.8 163.7-3.9 179.7a75 75 0 0 1-21.9 46.7 57 57 0 0 1-19.1 13.7 78 78 0 0 1-39.4 9.5 77 77 0 0 1-45.8-13.1 76 76 0 0 1-36.3-55.1c-1.5-8.5-2.7-87.4-3.6-244.2-.3-43.2-.3-43.5-2.6-47.1-4.5-7.3-5.1-7.4-46.7-7.6-20.3 0-39.4.3-42.4.8m1117.4-.2c-24.4.7-26.9 1.3-30.2 7.4-1.7 3-1.8 14.6-1.8 220.7 0 239.9-.5 221.1 6.3 225.6 1.8 1.2 5.6 2.6 8.5 3 9.1 1.3 72.6.9 78.4-.5q9.1-2.2 11.3-10c.6-2.1 1.3-26.3 1.6-58.6.7-62.5.5-60.9 8.5-65.5 4.5-2.5 2.5-2.3 53.4-5 24.9-1.3 40.3-3.2 54.2-6.5a146.5 146.5 0 0 0 114.2-118.2 168 168 0 0 0-4.9-89.4 144 144 0 0 0-34-56.3c-27.1-28.1-59.4-42.4-102.9-45.7-15.9-1.2-130.7-1.9-162.6-1m117 99.1c36.6 1.9 46.2 3.5 56.5 9.3a59 59 0 0 1 25.9 36.5c2.7 12.9.8 26.9-5.2 39.2a76 76 0 0 1-26.7 26.8c-11.5 5.7-17.7 6.4-51.5 6-39.6-.5-39.7-.6-41.6-18-1.2-10.8-.2-85.4 1.2-90.8a16 16 0 0 1 7.9-9.3c2.4-.9 13-.8 33.5.3m267.6-98.9c-9 1.1-13 3.2-15.6 8.4-2 4-2 6.3-2.3 213-.2 138.8.1 211.9.8 217.5 1.1 9.3 2.6 12.3 8.1 15.5 2.9 1.7 5.8 2 20.8 2.5 9.6.3 28.1.3 41 0 27.9-.6 29.9-1.1 34.1-9.6l2.5-4.9.3-212c.2-152.6-.1-213.5-.9-217.4a17 17 0 0 0-4.4-8.9c-3.2-3.5-3.3-3.6-14.1-4.3-14.4-1-61-.9-70.3.2M844 2859.8a13 13 0 0 0-5.6 5.9c-2.1 4.2-2.1 4.4-2.8 142.5-.4 76.1-1.1 143.1-1.7 148.9-3.1 35-19.1 57.5-46.5 65.5a70 70 0 0 1-28.4.5c-3-.8-8.4-2.8-12-4.6-17.6-8.9-27.2-21.9-35-47.5-6.5-21.6-7.2-23.6-9.6-26.8-5.2-6.8-4.7-6.7-46.9-6.6-37.8 0-38.1 0-42.9 2.4a12 12 0 0 0-7 6.9c-1.9 4.1-2.1 6.2-2 19.6q.7 76.5 62.7 123.7c22 16.8 44.5 27.3 70.7 33 9.2 2 13.3 2.2 32.5 2.2 20.1 0 23.1-.2 35-2.7 7.2-1.6 19.6-5 27.6-7.6 63.3-21.1 98.3-60.3 103.8-116.1 1.7-17.1 3-81 4.2-208.6 1.2-119 1.1-120.1-.8-124.5-3.6-8-3-7.9-50.5-7.9-37.3 0-41.6.2-44.8 1.8"></path></svg>