<svg xmlns="http://www.w3.org/2000/svg" viewBox="0 0 3000 3000"><path fill="#fff" d="M332 1507v878h721V629H332zm805 0v878h721V629h-721zm805 0v878h721V629h-721z"/><path d="M332 1507v878h721V629H332zm376.6 216.3c35.5 30.5 73.5 70 105.3 109.2 91.3 112.7 146.2 235.8 158.6 355.8 3.7 36.7 4 73.6.7 109.2l-.7 7-45.6.3-45.6.2.5-13.8c.8-22.4-2.5-44.4-8.9-59.3l-2.1-4.9H513.1l-1 3.7c-3.9 14.5-8 42.8-8.8 61l-.6 13.3h-102l.6-27.3c1-46.4 5.5-83.6 15.3-126.7 27.1-119.9 89.9-239.1 183.2-347.7a966 966 0 0 1 80.6-82.7l12-10.5 2.5 1.9c1.4 1 7.6 6.1 13.7 11.3m-20.8 140.4a462 462 0 0 0-34.2 34.3c-38.6 43.8-69.2 99-90.6 163-5 14.9-15 51-15 54 0 .7 51.6 1 147 1h147v-2.9c0-4-2.6-18.8-5.6-31.1-13.4-56.5-49.4-119.8-102.8-180.5a692 692 0 0 0-40.8-41.5c-.5 0-2.7 1.7-5 3.7M1137 1507v878h721V629h-721zm413 197c19.7 1.4 27.7 2.5 47 6.6a314 314 0 0 1 74.5 25.9c34.8 17 62.1 36.9 90.3 65.8 6.7 6.9 12.2 12.9 12.2 13.4 0 .8-90.1 68.9-94.7 71.6-.9.6-3.5-1.4-8.6-6.3a203 203 0 0 0-199.6-50.5 200 200 0 0 0-140.6 150.9 195 195 0 0 0 17.9 129.3 202 202 0 0 0 148.9 106c15 2.3 47 2.3 61.7 0a206 206 0 0 0 120.4-65.5c2.6-2.9 5.3-5.1 6-4.9a33111 33111 0 0 1 71.9 59.5 219 219 0 0 1 19.7 17.3c0 2.1-35.8 36.7-47 45.3a328 328 0 0 1-160.6 67.3c-18 2.4-64.7 2.4-82.3 0a322 322 0 0 1-185.4-89.7 313 313 0 0 1-83.7-310.7 319 319 0 0 1 161.8-196.1A318 318 0 0 1 1550 1704m392-197v878h721V629h-721zm378 197a323 323 0 0 1 212.9 98.6 314 314 0 0 1 57.3 353.4 323 323 0 0 1-100.8 120.6 333 333 0 0 1-152.9 59.6c-15.3 1.9-64 1.6-79.3-.5a327 327 0 0 1-160.2-67.1 424 424 0 0 1-53.2-53.1 313 313 0 0 1-65.4-157 411 411 0 0 1-.6-71 304 304 0 0 1 31.2-106c16.3-33 33.9-57.5 60-83.5a310 310 0 0 1 109.5-72 329.9 329.9 0 0 1 141.5-22m-32.5 118.6a201.5 201.5 0 0 0-180.9 138.2c-14.6 45-12 95.5 7 138.3a202 202 0 0 0 166.3 118.9c38.3 3.7 79.6-4.4 113.1-22.3 57.5-30.6 96-85 105.2-148.6 1.6-11.2 1.6-42.2 0-53.5a203 203 0 0 0-60.4-116.1 204 204 0 0 0-150.3-54.9"/></svg>