<svg xmlns="http://www.w3.org/2000/svg" viewBox="0 0 3000 3000"><path fill="#fff" d="M1147.5 556c-9.3 1.4-15 3.9-23.3 10.3a61 61 0 0 0-14.9 18.7c-3.9 8.9-3.8 6.3-3.8 154.5v143l48 .3c26.4.1 49 0 50.3-.3l2.3-.6-.3-143.9c-.2-113.5-.6-144.2-1.5-145.2-.7-.6-1.3-2-1.3-3.1 0-3.5-6.5-14-12.1-19.6a51 51 0 0 0-20.2-12.5 64 64 0 0 0-23.2-1.6m212.5-.4a52 52 0 0 0-42.6 36.3c-1.1 3.6-1.4 12.9-1.4 42.3V672h100v-36.3c0-39.1-.4-42.6-5.6-53.2a51 51 0 0 0-50.4-26.9m210 0c-18.9 2-36.8 17-41.7 34.9-3.1 11.2-3.3 18.9-3.3 154.3 0 124 .2 137 1.6 137.6.9.3 23.6.6 50.5.6h48.9V738.6c0-95.3-.3-144.7-1-145.1-.5-.3-1-1.5-1-2.6 0-1.9-2-6.5-5.1-11.9-.8-1.4-4.3-5.5-7.9-9.1a47 47 0 0 0-21-12.7 77 77 0 0 0-20-1.6m208.5.4a48 48 0 0 0-27.4 14.1 49 49 0 0 0-12.1 19.8c0 1-.6 2.3-1.2 2.9-1 1-1.3 10.4-1.3 40v38.7l50.3.3 50.4.2-.4-38.7c-.4-36.5-.6-39.1-2.6-44.1a51 51 0 0 0-31-31.1 61 61 0 0 0-24.7-2.1M979 697.6a41 41 0 0 0-16.3 5.4 52 52 0 0 0-24.7 30.4c-1.6 4.9-1.7 25.3-.1 26.9a48.2 48.2 0 0 0 11 19.8A58 58 0 0 0 966 793c.5 0 1.8.4 2.8.9 5.7 2.9 10.3 3.1 59.5 3.1h50.7l-.2-50.3-.3-50.2-46.5-.1c-34.4-.1-48.2.2-53 1.2m260.7-.9c-.4.3-.7 23.1-.7 50.5V797h266v-48.9c0-26.9-.3-49.6-.6-50.5-.6-1.4-13.1-1.6-132.3-1.6-72.5 0-132.1.3-132.4.7m426 0c-.4.3-.7 23.1-.7 50.5V797h157.2c115.1 0 158.1-.3 160.7-1.1a53 53 0 0 0 37.1-41.7c1.8-10.1.5-18.1-5.1-29.6a51 51 0 0 0-29.9-25.4c-10.5-3.1-18-3.2-167.1-3.2-83.4 0-151.9.3-152.2.7M1316 960v134h100V826h-100zm420.7-133.3c-.9.8-.9 263.5-.1 265.7.5 1.4 5.9 1.6 50.5 1.6h49.9l-.2-133.8-.3-133.7-49.6-.3c-27.2-.1-49.9.1-50.2.5m-763.2 84.5a60 60 0 0 0-22.1 13.3c-6 5.9-12.4 15.9-12.4 19.4 0 .9-.5 2.2-1.1 2.8a81 81 0 0 0 .1 26.9c5.3 16 17.7 29 32.5 33.9 10.5 3.5 18.7 3.6 171 3.3l150-.3.3-50.3.2-50.2-157.7.1c-104.4.1-158.8.5-160.8 1.1m478.7 49 .3 50.3h265l.3-50.3.2-50.2h-266zm424.8-.3c0 44.6.2 50 1.6 50.5.9.3 21.4.6 45.7.6 51.6 0 57.9-.7 70.2-7.2a52 52 0 0 0 25.6-37.6c3.4-18.1-9-42.1-26.1-50.4-12.3-6-10.1-5.8-65.7-5.8H1877zm-771.5 78.3c-.3.7-.4 60.7-.3 133.3l.3 132h100v-266l-49.8-.3c-39.3-.2-49.9 0-50.2 1m420 0c-.3.7-.4 60.7-.3 133.3l.3 132 50.3.3 50.2.2v-267h-50c-39.1 0-50.2.3-50.5 1.2M982 1122.7c-9.5.9-22.5 6.5-28.6 12.3-6.9 6.4-14.4 17.7-14.4 21.7a5 5 0 0 1-1.1 3c-.7.7-1.1 5.4-1.1 12a44 44 0 0 0 8.7 29.8 49 49 0 0 0 24.5 18.6l6.5 2.4h102v-100l-46.5-.1c-25.6 0-48.1.1-50 .3m257.5.5c-.3.7-.4 23.3-.3 50.3l.3 49h265l.3-48c.1-26.4 0-49-.3-50.3l-.5-2.2h-132.1c-104.6 0-132.1.3-132.4 1.2m426 0c-.3.7-.4 23.3-.3 50.3l.3 49H1823c174.2 0 159.6.5 172.1-6.2 17-9.2 28.5-32.5 24.9-50.5a48 48 0 0 0-15-29c-5.6-5.5-11-8.8-20.2-12.5-4-1.6-15-1.8-161.6-2-127-.3-157.3-.1-157.7.9M1316 1390.7c0 155.2-.3 145.9 5.5 157.7a52 52 0 0 0 21.5 21.2 38 38 0 0 0 22 4.9c16.3 0 24.6-3.2 35.6-14a47 47 0 0 0 14.3-25.3c.8-3.7 1.1-47.2 1.1-146.2v-141h-100zm420.2 1c.3 119.5.6 144.4 1.7 147.3 1.9 4.8 5.5 12.4 6.1 13l3.9 5c5 6.6 13.3 12.3 22.9 15.8a71 71 0 0 0 31.5-.1 50 50 0 0 0 19.3-12.1c6-6 9.2-10.9 12.5-19.1l2.4-6 .3-143.8.3-143.7h-101.2zm-761.3-55.2a53 53 0 0 0-36.6 34.3c-2.1 6.4-2.1 23 0 29.4a52 52 0 0 0 37 34.3c5 1.3 26.1 1.5 161.2 1.5H1292v-101l-156.2.1c-123 .1-157.3.4-160.9 1.4m477.1 49v50.5h266v-101h-266zm425.5-49.3c-.3.7-.4 23.3-.3 50.3l.3 49 49 .3c47.3.3 52.9 0 60-2.8a54 54 0 0 0 26.9-22 48 48 0 0 0-.1-51.1 53 53 0 0 0-33.5-23.8c-7.1-1.7-101.7-1.5-102.3.1m-772.4 161.7c.3 29.5.7 39.3 1.7 40.3.6.6 1.2 1.9 1.2 2.8 0 3.1 7.1 15.1 11.5 19.5a65 65 0 0 0 20.3 12.3 75 75 0 0 0 30.2.3 52 52 0 0 0 26.8-20c8.6-12.9 8.7-13.7 8.7-56.6v-37l-50.4-.3-50.3-.2zm420.6-38.2c-.4.3-.7 14.6-.7 31.7 0 38.6 1.3 48 8.3 59.8a55 55 0 0 0 17.7 17.2c5.5 3.2 6.7 3.7 16.5 5.8 5.7 1.2 20 .4 24.2-1.3a53 53 0 0 0 33.2-35 356 356 0 0 0 1.1-41.2V1459h-49.8a919 919 0 0 0-50.5.7m334.9 367.6c-2.8.7-5.1 1.9-5.3 2.7l-1.4 3.7-1.8 4.5-17.6 44.8-17.6 44.7-1.9 4.8-2 5-1.9 4.7c-.4 1.3-1.4 3.6-2.1 5.3-2.4 5.6-3.4 8.3-8 20.5l-6 15.5-2.3 5.5a104 104 0 0 1-3.8 9.5c-19.1 48.8-36.4 92.8-37.6 95.5l-3.8 8.5-4 9c-7.5 17.4-14 25.4-24.5 30.1a32 32 0 0 1-12 3.9l-8.7 1.1-4.3.6v12.8h115v-12.8l-5.2-.6c-13.8-1.6-23.6-3.5-24.4-4.7q-.6-.8-2-.9c-2 0-7.3-4.9-9.1-8.4-2.1-4-1.2-13.5 2.3-24.1 2.8-9 8.1-24 9.4-27 .9-2.2 5.3-14.4 7.6-21.5.8-2.5 1.9-5.4 2.4-6.5s1.4-3.8 2.1-6c2.4-7.3-1.8-6.8 57.2-7.3 61.3-.5 55.9-1.4 59.2 9.4 1 3.3 2.1 6.3 2.5 6.9a96 96 0 0 1 3 8.5c1.3 4.1 2.7 7.9 3.2 8.4s.8 1.9.8 3.1.4 2.5.8 3.1c.4.5 1.4 2.7 2.1 4.9s1.6 4.9 2.1 6 1.8 4.9 3 8.5 2.5 7.4 3 8.5c.9 1.9 3.5 10.3 6.1 19.2.6 2.2.8 5.4.5 6.9-.9 3.5-6.6 8.9-10.3 9.8a217 217 0 0 1-16.8 3.3c-4.9.7-5.5 1.5-5.5 8v5.3h124.1l-.3-6.3-.3-6.2-5-.8-10.3-1.3c-2.9-.4-5.5-1-5.8-1.5q-.6-.8-2.3-.9c-3.7 0-13.5-7.5-17.1-13.1a100 100 0 0 1-10.9-22.2l-2.2-5.5-1.9-4.7-1.8-4.5-2.2-6-2-5.5-2-5.5-2-5.5-2-5.5-2-5.5-2-5.5-2-5.5c-1-2.4-3.2-8.4-10.5-28.5l-7.6-20.8-6.9-18.7-2-5.5-2-5.5-2-5.5-2-5.5-2-5.5-2-5.5-2-5.5-2-5.5-2-5.5-2-5.5-2-5.5-2-5.5-6.9-18.8-7.1-19.2-10.5-28.5-6.6-18.3c-1.5-4.2-3.1-4.5-12.3-2.4m-7.2 66.9c.8 1.8 2 5.1 2.7 7.3s1.7 4.4 2.1 4.9.8 2 .8 3.2q.1 2.1.8 2.8c.4.3 1.4 2.8 2.2 5.6s1.8 5.3 2.2 5.6q.7.7.8 2.8a6 6 0 0 0 .8 3.1c.4.6 1.4 2.8 2.1 5s1.6 4.9 2.1 6 1.8 4.9 3 8.5 2.5 7.4 3 8.5 1.6 4 2.4 6.5c1.8 5.3 7.5 21.4 14.1 39.5 2.6 7.1 4.8 13.9 4.9 15 .1 2-.6 2-47.1 2.3l-47.3.2v-2.3c0-1.3.4-2.7.8-3.2s1.4-2.8 2.1-5 1.6-4.9 2.1-6l3-8 3-8a3584 3584 0 0 0 27.7-74 50 50 0 0 1 3.4-8c.5-.5.9-1.7.9-2.7s.4-2.6.9-3.6l2.6-5.5c.9-2 1.8-3.7 2-3.7s1.1 1.5 1.9 3.2m-1073.6-62.4-112.8.2v12.5l5.3 1.3c2.9.6 7 1.2 9.2 1.2a36 36 0 0 1 19.1 6.7c2.9 2.5 5 6 7.1 11.8 1.7 4.7 1.8 11.9 1.8 131.7 0 100-.3 127-1.2 127.9-.7.7-1.3 2.2-1.3 3.2 0 2.1-3.3 7.2-6.4 10-4.9 4.4-16 7.4-32.1 8.6l-8 .6-.3 6.2-.3 6.3h122.6c97.2 0 122.6-.3 122.9-1.3l1.4-5.2a186 186 0 0 1 5.6-19.5 820 820 0 0 0 5.7-21.3l1.9-7.5c2.4-9.5 3.2-12.9 3.7-16 .3-1.8.9-3.5 1.4-3.8 2-1.2.9-4.4-1.8-5a34 34 0 0 1-5.1-1.5c-5.2-2.1-5.9-1.4-11.6 9.8-16.2 32.3-29.3 47.4-44.1 50.8-12.2 2.8-84 3-91.5.3a23 23 0 0 1-14.6-13.2c-3.3-8.7-3.5-14.3-3.2-70.1l.3-56 32-.3c42.2-.4 52.5 1 59.9 8.4 4.6 4.7 7.1 10.6 9.6 22.9 2.1 10.6 2 10.5 9.5 10.5h6.5v-103h-6.5c-5.9 0-6.6.2-7.4 2.2a66 66 0 0 0-3.1 14 43 43 0 0 1-3.5 9.5c-3.9 8-7.2 10.9-16 13.9-4.4 1.5-9.8 1.7-43 1.8l-38 .1-.3-60.6c-.2-66-.3-64.6 5.3-67.5 2.2-1.1 10-1.4 40.3-1.4 20.7 0 38.9.4 40.6.9s5.5 1.5 8.4 2.1a49 49 0 0 1 8.2 2.7 43 43 0 0 1 13.5 15l4.9 10.3c1.7 3.6 4.7 11.4 6.6 17.3 3.1 9.6 3.7 10.7 5.5 10.2a41 41 0 0 1 6.8-1.2l4.7-.6v-6.5c0-3.6-.4-12.7-1-20.1l-2.1-31.4c-.7-9.8-1.5-17.9-1.8-18s-51.3-.1-113.3.1m1679.2.2-112.5.5-.3 6.1-.3 6.2 3.8.6 10.8 1.5c3.9.5 7.9 1.2 9 1.6 12.5 4.4 17 10.8 19.2 27 1.1 7.9 1 236.5 0 243-1.5 9.1-3.1 13.5-6.2 16.9-3.3 3.9-9.6 7.6-12.5 7.6-1 0-2.1.4-2.4.9-.6.9-6.9 1.8-20.1 2.9l-8 .7-.3 6.3-.3 6.2 122.7-.2 122.7-.3 4.9-17a1365 1365 0 0 0 11.9-43.8l2-8c.6-2.3 1.1-5.5 1.2-7.2.2-2.7-.2-3-3.8-3.8l-6.5-1.3c-2.3-.5-2.9.3-8.3 10.8a207 207 0 0 1-14 24.8c-10 14.4-20 23.2-29 25.2-13.5 3.1-83 3.5-92.7.6-5.2-1.5-14-9.5-14-12.7q0-1.8-.9-2.5c-2-1.3-2.5-13.3-2.5-67.1l-.1-57 32.5-.3c44.2-.4 54.1 1.1 60.9 9.7 3.7 4.6 5.5 9 7.5 18.2.9 4.1 2.1 8.9 2.7 10.7l1.1 3.3 6.6-.3 6.7-.3v-102h-14l-2.3 10.5c-3.2 14.4-5.9 20.2-11.7 24.2-5.6 4-8.3 4.8-20 5.8a848 848 0 0 1-68.9.4c-1.4-.6-1.6-6.8-1.6-60.6 0-65.7-.1-64.1 6-67.3 2.4-1.3 8.8-1.5 39.9-1.5 35.4 0 39.8.3 50.1 3.2a31 31 0 0 1 15.5 9.3 152 152 0 0 1 18.5 41l1.4 3.9c.5 1.4 1.2 1.7 2.9 1.1 1.2-.4 4.2-1 6.7-1.4 4.2-.6 4.5-.8 4.4-3.6l-1.4-23.5-1.8-34.2a61 61 0 0 0-1.7-14.5c-.5-.4-51.6-.6-113.5-.3m-2097.3.7c-.4.3-.7 3.2-.7 6.4v5.7l3.8.6 11.2 1.5a42 42 0 0 1 16.7 4.3c6.5 3.2 9.6 7.5 12.4 16.8 2 6.4 2.1 255.2.2 257.2-.7.6-1.3 2-1.3 3 0 4.1-5.6 10.6-11.1 13.1a64 64 0 0 1-23.9 5.4c-3.6.3-6.8 1-7.2 1.6a20 20 0 0 0-.8 6.4v5.3h72.7c43.7 0 75.3-.4 79.2-1a200 200 0 0 0 23.6-4.2 188 188 0 0 0 32.5-12.1c1.4-.6 4.4-2.4 6.7-3.9s4.4-2.8 4.8-2.8 2.5-1.5 4.8-3.3a88 88 0 0 0 34.5-53 91 91 0 0 0-1.8-38.2l-2.2-6c-3.2-9.9-15.5-24.4-27.3-32.2-10.7-7-30.1-14.9-43-17.4l-7.8-1.6q-6.3-1.2 4.4-5c6.9-2.4 9.1-3.4 15.4-6.6a54 54 0 0 0 12.5-7.7c6-4 16.4-15.2 20.2-21.6a66 66 0 0 0 9.2-27.9q2.5-21.6-4.6-37.5a80 80 0 0 0-28.8-31c-15-8.3-30.7-12.1-58-14a3270 3270 0 0 0-146.3-.3m138.8 17.8c14.5 2.9 13.4 2.6 22 6.6 21.7 10.2 33.8 33 32.2 60.4a71 71 0 0 1-7.6 29.5c-3.3 6.1-13.3 17-15.6 17q-1.3.1-1.5.8c0 .8-8.6 4.9-16.5 7.8-9.6 3.5-59.8 7-63 4.4-1.3-1.1-1.5-7.2-1.5-47.4 0-56.9.5-67.6 3.4-71.9 2.6-3.9 6.3-5.8 13.6-7.3 7.8-1.6 26.2-1.5 34.5.1m3.9 145.5a138 138 0 0 1 32.1 9.5 66.6 66.6 0 0 1 25.5 22c14.8 22.7 14.8 59.2-.1 83.2a67 67 0 0 1-34.4 27.3l-4.8 1.9c-1.5.6-3.9 1.1-5.3 1.1s-3.4.5-4.5 1-9.1 1.1-19 1.1c-14.8 0-18-.3-24-2.2a25 25 0 0 1-16.1-13.1c-4.2-9.7-4.1-8.4-4.6-70.6-.2-33.1-.1-60.9.2-61.7.9-2.5 39.6-2.1 55 .5m577.6-157.7v6.4l4.3.8c2.3.4 7.1 1.1 10.7 1.5 13.9 1.7 19.7 4.4 24.6 11.5 5 7.3 4.9 4.2 4.9 138.5 0 140 .4 132-6.9 139.4-6.6 6.7-13.2 8.9-30.3 10.3l-7.3.5v12.8h72.8c41 0 75.2-.4 78.3-.9s8.8-1.5 12.9-2.1a108 108 0 0 0 17-4c9.1-2.5 12.1-3.7 25.5-10.1a57 57 0 0 0 9.5-5.1c4.1-1.5 17.6-13 24-20.4a74 74 0 0 0 10.8-16.2 35 35 0 0 0 3.2-7.2 25 25 0 0 1 2.1-5.5c2.4-3.4 3.7-33.1 1.8-41.5-.7-3-1.6-5.9-2.1-6.5s-.8-1.6-.8-2.5-1-3.6-2.1-6.1c-11-22.7-35.8-38.7-72.9-46.9-3-.7-5.9-1.5-6.4-1.8-1.1-.6 5.2-4.1 7.5-4.2.9 0 2.9-.6 4.5-1.4l7.4-3.5a79 79 0 0 0 40-39.6q.1-1.4 1-2c.6-.3 1-1.6 1-2.9s.4-2.6.9-3.1a80 80 0 0 0 2.8-25 59 59 0 0 0-13.6-36.3 44 44 0 0 0-6-7.2 19 19 0 0 1-3.6-2.8 77 77 0 0 0-28.8-15.7c-7.6-2.5-13.6-3.6-28.7-5.6-4.1-.6-41.4-1.3-82.7-1.5l-75.3-.6zm139 12.2c17.8 3.3 26.9 7.6 36.9 17.4a57 57 0 0 1 15.4 26.4c1.4 5.9 2 30.5.8 34.7l-2.2 8a53 53 0 0 1-33.9 34l-5.5 2c-7 3-60.4 6.6-61.9 4.2-.3-.6-.7-26.4-.8-57.4-.2-49.9 0-56.7 1.4-59.8q2.5-5.6 7.3-7.5c7.9-3.3 30.2-4.4 42.5-2m3.5 145.5c24.5 4.1 37.4 10 50.3 22.7 4.5 4.5 8.2 8.7 8.2 9.3s.9 2.4 1.9 3.8a62 62 0 0 1 7.6 36.2c0 18.9-1.4 26.2-6.8 36.5l-3.1 5.9a69 69 0 0 1-32.1 26.5l-8.3 3.2c-1.3.5-3.4.9-4.8.9s-3.4.5-4.5 1c-2.7 1.5-35.1 1.4-39.7-.1-12.3-3.9-17.7-9.1-21.3-20.2l-2.3-7.2.2-59 .2-60.3c0-2.2 40-1.6 54.5.8m160.5-157.8v6.3l5.3 1.3a56 56 0 0 0 8.4 1.2c1.8 0 5.7.6 8.7 1.4 13 3.4 18 7.8 21.4 18.8 1.4 4.7 1.6 18.2 1.9 120.7.3 68.2 0 120-.5 126.7-2.1 24.2-8 29.1-38.9 32l-6.3.6v12.8h134v-5.3c0-2.8-.4-5.7-.8-6.3s-3.2-1.4-6.2-1.8c-26.2-3-31.9-6-36.6-19.6-1.8-5.1-1.9-8.9-1.9-57.5v-52l18 .2c30.3.3 32.8 1.8 50.4 30.8l10.7 17.2c1.9 2.9 3.4 5.5 3.4 5.8a93 93 0 0 0 5 8c2.8 4.1 5 7.9 5 8.5q.1.9 1 1t1 1c0 .6 3.7 6.6 8.2 13.3 25.3 37.9 38.7 49.6 64.3 56.2a197 197 0 0 0 36.8 4.5h7.7l.2-4.5.2-6q0-1.6-7.4-4.8c-14.3-6.2-24.2-14.8-40-34.2l-7-8.5c-.4-.3-2.6-3.4-5-7l-4.9-7a1045.9 1045.9 0 0 1-50.1-76 48 48 0 0 1-4-6.5c0-.4-.9-1.9-2-3.5-2.4-3.3-2.4-3.3 7.9-8.5 9.5-4.7 13.9-7.6 22.6-14.6 8.1-6.5 18.5-17.6 18.5-19.7 0-.5.8-1.7 1.8-2.8s2.2-3 2.8-4.4c5.5-12.1 5.3-11.7 8.4-24 1.2-4.7.9-29-.4-34.5a93 93 0 0 0-6.6-20 76.9 76.9 0 0 0-23-26.1 123 123 0 0 0-23.8-11.6l-7.2-1.9c-3.4-1-7.6-1.8-21.5-4-4.5-.7-34.5-1.3-83.2-1.6l-76.3-.5zm143 12.5a70 70 0 0 1 15.2 5.4c1 .5 2.3.9 2.8.9 3.6 0 21.3 15.5 24.6 21.5l6.5 12.7c.5 1 .9 2.8.9 4.1a7 7 0 0 0 .8 3.3c1.6 1.8 3.2 14.2 3.2 25 0 9.4-.6 14.1-3.7 29.7-.3 1.5-.9 3-1.4 3.3q-.8.6-.9 1.9c0 3-7.7 14.4-14.1 20.7-17.4 17.3-33 22.1-68.9 21.6l-19.5-.3v-139l2.3-3.7c2.2-3.5 4.4-5 11.7-7.6a205 205 0 0 1 40.5.5m453.4-16.4c-.3 1.3-.4 4.1-.2 6.3.3 4.3 1.3 4.7 12.8 6.3a42.9 42.9 0 0 1 31.2 21.3 470 470 0 0 1 15.8 37.8l2.2 6c1.5 3.6 2.4 6 3.8 10s2.3 6.4 3.8 10l3.2 8.5 3 8 5.3 14c8.2 22 16.8 45 17.7 47l3 8 3 8 2 5.5 2 5.5 2 5.5c1.5 4.2 2.9 7.9 4.1 10.2.5 1 .9 2.5.9 3.3s.5 2.4 1 3.5l2 4a9 9 0 0 1 1 3.5c0 .8.4 2.3.9 3.3 1.2 2.3 2.6 6 4.1 10.2l2 5.5 2 5.5 2 5.5 4.5 12c7.5 20.6 16.6 45.2 19.4 52.5l1.7 4.5h7.9c5.9 0 8-.4 8.5-1.5a173 173 0 0 0 6-14.5l1.9-4.8 2.4-5.7 13.2-32.5 13.2-32.5 2.3-5.5 3.9-9.8 2.1-5.2 2-5 2-5 2-5 1.9-4.8q1.7-4.4 4.4-10.7c.9-1.9 2.5-6 3.7-9s2.8-7.1 3.7-9l2.4-5.8 1.8-4.5 2.4-5.7 20.7-50.5 5-12c1.7-4.4 3.8-9.6 4.7-11.5l4.2-10.3c1.1-2.8 4-9.4 8.1-18.2l4.3-9.5a62 62 0 0 1 18.3-22.6 48 48 0 0 1 19.9-7l7.3-1.6 4.2-1.1V1832l-57.2.2-57.3.3-.3 6.1-.3 6.1 3.8.8 18.3 3.1c2.5.3 5 1 5.5 1.4s2.3 1 3.8 1.4c3.9.9 9.3 6.8 10.1 11.1q1.2 5.7-2 15.3a1579 1579 0 0 1-17.4 45.7l-5.2 13.5-1.8 4.5-2 5c-1.6 3.7-2.2 5.5-5 13l-3.2 8.5-1.9 4.7-1.9 4.8-1.9 4.7c-14 35.3-43.8 108.7-45.3 111.5q-1.1 2.1-1.9 2.3c-.9 0-3.9-5.8-3.9-7.7 0-.7-.4-2.1-.9-3.1-1.2-2.3-2.6-6-4.1-10.2l-2.1-5.8-1.8-4.5-2.1-5.7c-1.4-4-2.3-6.4-3.8-10l-2.2-6-2-5.5-2-5.5a870.2 870.2 0 0 1-13.1-34.5 1488 1488 0 0 1-20-55l-1.9-5c-.4-.6-1.2-3-2-5.5-.7-2.5-1.7-4.9-2.2-5.5-.4-.5-.8-1.8-.8-3q-.1-2-.8-3.1c-.5-.5-1.5-2.9-2.2-5.4s-1.6-5-2-5.5-1.3-3-2-5.5-1.6-5-2-5.5-1.2-3-2-5.5c-.7-2.5-1.7-4.9-2.2-5.4-.4-.6-.8-1.9-.8-3.1q-.1-2-.8-3.1c-.5-.5-1.4-2.9-2.1-5.4s-1.7-5.5-2.2-6.8c-1.4-3.5-1.1-11.5.5-13.8 2.6-3.7 10.4-6.8 21.1-8.4 13.1-2 12.5-1.6 12.5-7 0-8.8 6.5-8-64.1-8H1982zm293.6 450.4c-17.9 1.8-35.3 12.9-42.1 27a53 53 0 0 0-4.8 26.1c.5 2.1.9 5.2.9 7.1 0 4.9 5.2 14.9 10.7 20.5 6.9 7 14.5 11.9 26.6 17 8.3 3.5 10.4 4.5 16 7l6.2 2.6a65 65 0 0 1 14.6 10.7 26 26 0 0 1 8.4 19 37 37 0 0 1-10.9 31.7 36 36 0 0 1-21.6 10.9 46 46 0 0 1-26.7-4.3 62 62 0 0 1-19.9-18.8c-1-1.7-2.4-3.2-3-3.2-1.3 0-2.4 3.1-2.4 6.9 0 2.3-1.1 6.6-3.1 11.7-.9 2.6 1.2 4.8 8.4 8.8a76 76 0 0 0 41.5 7.6c20.3-2.6 30.1-6.8 40.7-17.4 6.9-6.9 13.5-17.5 13.5-21.7q0-1.7.9-2.3a68 68 0 0 0 2.3-16.6c0-5.5-1.8-15.2-3.5-18.8-4.5-9.7-17.9-20.3-33.2-26.2a587 587 0 0 1-22.5-9.8 48 48 0 0 1-21.3-18.3c-8.5-18.6-1.7-38.3 16.1-46.5 4.8-2.3 7.2-2.7 14.7-2.8 7.6 0 9.8.3 14 2.4 6.2 3 13.9 10.8 16.8 16.9 2.3 4.8 5 6.1 5.5 2.6.6-4.6 3.1-12.5 5.3-16.7.7-1.4.1-2.3-3.3-4.5a69 69 0 0 0-44.8-8.6m-1655.3 10.2.2 6.6 6.3-.2 25.9-1.4c14.2-.8 20.2-.8 21.6 0 1.9 1 2.1 2.3 2.8 20.5.8 20.1 0 118.4-1.1 138.3l-.6 11.3h11.5c6.4 0 11.8-.3 12-.8s0-20.6-.6-44.9c-1-44.5-.2-121.9 1.3-124.3.7-1.1 5-1.1 23.2-.1 12.2.6 24.6 1.4 27.3 1.6l5.1.5v-13.6l-67.6-.1h-67.5zm261.9 8c1 18.9 1 133.2 0 152.2l-.8 14.7 47.1-.1 47.1-.1v-12.8l-3.4.6c-7.1 1.3-29.7 2.5-48.2 2.6h-19.1l-.7-4.6c-.9-7-.7-73.7.3-75.3.7-1.1 5.5-1.2 27.2-.7 14.5.4 28.7.9 31.6 1.2l5.1.5v-14.3l-5.1.6c-2.9.3-17.2.9-31.9 1.2l-26.7.6-.7-2.8c-.8-3 .1-66.3 1-67.1.8-.9 39.7-.3 46.6.7 3.6.5 10.3 1 15 1h8.5v-12.6h-93.7zm219.9-14c.1.4 2.5 4.2 5.2 8.6l6.4 10.5 1.9 3c1 1 37.4 60.8 39.7 65.3.8 1.5 1.3 3.4 1 4.1a2060 2060 0 0 1-55.8 82.9c-2.3 2.5-3 5.7-1.5 6.3.7.3 4.4.4 8.1.2l6.8-.3 12-20.5a1313 1313 0 0 1 32.7-53.5c0-.3.7-1.7 1.6-3q3-4.4 6.4 2.2c.8 1.5 3.6 6 6.2 10 2.7 4 4.8 7.4 4.8 7.7s1.4 2.8 3 5.6a1438 1438 0 0 1 26.4 48.2l2 3.8h13.3c8.3 0 13.3-.4 13.3-1 0-1-2-4.2-12.7-20.7a63 63 0 0 1-5.3-9.3q0-.9-1-1t-1-1.1c0-.5-1.7-3.6-3.9-6.7-3.6-5.4-32.4-53-35-58.1-1.2-2.1-.3-3.8 12-22 13-19.3 24.8-36.1 26-37.1l4.9-7c2.4-3.6 4.6-6.7 5-7 .8-.6 7-9.7 7-10.2 0-.3-3.7-.5-8.3-.5-9.1-.2-8.3-.6-12.8 7.3l-4 7.1-5.2 9.3a952 952 0 0 1-30.4 47.9c-.6.8-4-3.1-6.1-7a72 72 0 0 0-5.2-8.9c-.5-.5-1.2-1.7-5.2-8.9a197.6 197.6 0 0 1-11.6-20.1l-6.2-11.5-5.4-10.1-2.8-5.1h-13.3c-7.4.1-13.2.3-13 .6m247.2 2c.7 2.5.7 6.3.1 9.2-.3 1.6.8 1.6 33-.2q21.3-1.3 22.2-.3c2 2 3.4 77.9 2.1 114.9a2236 2236 0 0 0-1.1 44.8v10.8l11.8-.3 11.7-.3-.3-2.5c-.2-1.4-.6-39.2-.9-84.2l-.5-81.6 2.3-1.3c1.8-.9 6.8-.9 23.4 0 11.5.6 23.3 1.4 26.2 1.7l5.2.5v-13.7l-67.9-.1h-68zm262.8 88.3v90.8h22.8l-.9-27.3c-1.1-34.8-1.1-92.6 0-127.2l.9-27h-22.8zm168.2-76.2c.8 17.2 1 109.6.3 143l-.5 23.5 47.5.1c26.1 0 47.8-.1 48.2-.3.3-.2.3-1.7-.2-3.3-.5-1.7-.5-4.4 0-6.1l.9-3.2-4.5.7a495 495 0 0 1-52.9 2.4l-16-.3-.8-11c-.8-11.2-.1-127.4.9-148.5l.5-11.6H1779zm228-4.6c.9 11.4 1.1 129.3.3 154.6l-.5 16.5h94.5v-12.7l-2.7.5c-6.5 1.4-36.1 2.8-51.8 2.5l-17-.3-.6-3c-.4-1.7-.7-19.3-.8-39.1-.1-30.8.1-36.3 1.4-37.4 1.1-.9 7.6-1.1 27.7-.6 14.5.4 28.4.9 31.1 1.2l4.7.6v-14.4l-8.7.9c-4.9.4-19.4.8-32.3.8h-23.5l-.3-23c-.3-22.4 1-45.2 2.5-46.5.9-.6 37.7.4 56.6 1.5l11.7.8v-12.9h-93z"/><path d="M1147.5 556c-9.3 1.4-15 3.9-23.3 10.3a61 61 0 0 0-14.9 18.7c-3.9 8.9-3.8 6.3-3.8 154.5v143l48 .3c26.4.1 49 0 50.3-.3l2.3-.6-.3-143.9c-.2-113.5-.6-144.2-1.5-145.2-.7-.6-1.3-2-1.3-3.1 0-3.5-6.5-14-12.1-19.6a51 51 0 0 0-20.2-12.5 64 64 0 0 0-23.2-1.6m212.5-.4a52 52 0 0 0-42.6 36.3c-1.1 3.6-1.4 12.9-1.4 42.3V672h100v-36.3c0-39.1-.4-42.6-5.6-53.2a51 51 0 0 0-50.4-26.9m210 0c-18.9 2-36.8 17-41.7 34.9-3.1 11.2-3.3 18.9-3.3 154.3 0 124 .2 137 1.6 137.6.9.3 23.6.6 50.5.6h48.9V738.6c0-95.3-.3-144.7-1-145.1-.5-.3-1-1.5-1-2.6 0-1.9-2-6.5-5.1-11.9-.8-1.4-4.3-5.5-7.9-9.1a47 47 0 0 0-21-12.7 77 77 0 0 0-20-1.6m208.5.4a48 48 0 0 0-27.4 14.1 49 49 0 0 0-12.1 19.8c0 1-.6 2.3-1.2 2.9-1 1-1.3 10.4-1.3 40v38.7l50.3.3 50.4.2-.4-38.7c-.4-36.5-.6-39.1-2.6-44.1a51 51 0 0 0-31-31.1 61 61 0 0 0-24.7-2.1M979 697.6a41 41 0 0 0-16.3 5.4 52 52 0 0 0-24.7 30.4c-1.6 4.9-1.7 25.3-.1 26.9a48.2 48.2 0 0 0 11 19.8A58 58 0 0 0 966 793c.5 0 1.8.4 2.8.9 5.7 2.9 10.3 3.1 59.5 3.1h50.7l-.2-50.3-.3-50.2-46.5-.1c-34.4-.1-48.2.2-53 1.2m260.7-.9c-.4.3-.7 23.1-.7 50.5V797h266v-48.9c0-26.9-.3-49.6-.6-50.5-.6-1.4-13.1-1.6-132.3-1.6-72.5 0-132.1.3-132.4.7m426 0c-.4.3-.7 23.1-.7 50.5V797h157.2c115.1 0 158.1-.3 160.7-1.1a53 53 0 0 0 37.1-41.7c1.8-10.1.5-18.1-5.1-29.6a51 51 0 0 0-29.9-25.4c-10.5-3.1-18-3.2-167.1-3.2-83.4 0-151.9.3-152.2.7M1316 960v134h100V826h-100zm420.7-133.3c-.9.8-.9 263.5-.1 265.7.5 1.4 5.9 1.6 50.5 1.6h49.9l-.2-133.8-.3-133.7-49.6-.3c-27.2-.1-49.9.1-50.2.5m-763.2 84.5a60 60 0 0 0-22.1 13.3c-6 5.9-12.4 15.9-12.4 19.4 0 .9-.5 2.2-1.1 2.8a81 81 0 0 0 .1 26.9c5.3 16 17.7 29 32.5 33.9 10.5 3.5 18.7 3.6 171 3.3l150-.3.3-50.3.2-50.2-157.7.1c-104.4.1-158.8.5-160.8 1.1m478.7 49 .3 50.3h265l.3-50.3.2-50.2h-266zm424.8-.3c0 44.6.2 50 1.6 50.5.9.3 21.4.6 45.7.6 51.6 0 57.9-.7 70.2-7.2a52 52 0 0 0 25.6-37.6c3.4-18.1-9-42.1-26.1-50.4-12.3-6-10.1-5.8-65.7-5.8H1877zm-771.5 78.3c-.3.7-.4 60.7-.3 133.3l.3 132h100v-266l-49.8-.3c-39.3-.2-49.9 0-50.2 1m420 0c-.3.7-.4 60.7-.3 133.3l.3 132 50.3.3 50.2.2v-267h-50c-39.1 0-50.2.3-50.5 1.2M982 1122.7c-9.5.9-22.5 6.5-28.6 12.3-6.9 6.4-14.4 17.7-14.4 21.7a5 5 0 0 1-1.1 3c-.7.7-1.1 5.4-1.1 12a44 44 0 0 0 8.7 29.8 49 49 0 0 0 24.5 18.6l6.5 2.4h102v-100l-46.5-.1c-25.6 0-48.1.1-50 .3m257.5.5c-.3.7-.4 23.3-.3 50.3l.3 49h265l.3-48c.1-26.4 0-49-.3-50.3l-.5-2.2h-132.1c-104.6 0-132.1.3-132.4 1.2m426 0c-.3.7-.4 23.3-.3 50.3l.3 49H1823c174.2 0 159.6.5 172.1-6.2 17-9.2 28.5-32.5 24.9-50.5a48 48 0 0 0-15-29c-5.6-5.5-11-8.8-20.2-12.5-4-1.6-15-1.8-161.6-2-127-.3-157.3-.1-157.7.9M1316 1390.7c0 155.2-.3 145.9 5.5 157.7a52 52 0 0 0 21.5 21.2 38 38 0 0 0 22 4.9c16.3 0 24.6-3.2 35.6-14a47 47 0 0 0 14.3-25.3c.8-3.7 1.1-47.2 1.1-146.2v-141h-100zm420.2 1c.3 119.5.6 144.4 1.7 147.3 1.9 4.8 5.5 12.4 6.1 13l3.9 5c5 6.6 13.3 12.3 22.9 15.8a71 71 0 0 0 31.5-.1 50 50 0 0 0 19.3-12.1c6-6 9.2-10.9 12.5-19.1l2.4-6 .3-143.8.3-143.7h-101.2zm-761.3-55.2a53 53 0 0 0-36.6 34.3c-2.1 6.4-2.1 23 0 29.4a52 52 0 0 0 37 34.3c5 1.3 26.1 1.5 161.2 1.5H1292v-101l-156.2.1c-123 .1-157.3.4-160.9 1.4m477.1 49v50.5h266v-101h-266zm425.5-49.3c-.3.7-.4 23.3-.3 50.3l.3 49 49 .3c47.3.3 52.9 0 60-2.8a54 54 0 0 0 26.9-22 48 48 0 0 0-.1-51.1 53 53 0 0 0-33.5-23.8c-7.1-1.7-101.7-1.5-102.3.1m-772.4 161.7c.3 29.5.7 39.3 1.7 40.3.6.6 1.2 1.9 1.2 2.8 0 3.1 7.1 15.1 11.5 19.5a65 65 0 0 0 20.3 12.3 75 75 0 0 0 30.2.3 52 52 0 0 0 26.8-20c8.6-12.9 8.7-13.7 8.7-56.6v-37l-50.4-.3-50.3-.2zm420.6-38.2c-.4.3-.7 14.6-.7 31.7 0 38.6 1.3 48 8.3 59.8a55 55 0 0 0 17.7 17.2c5.5 3.2 6.7 3.7 16.5 5.8 5.7 1.2 20 .4 24.2-1.3a53 53 0 0 0 33.2-35 356 356 0 0 0 1.1-41.2V1459h-49.8a919 919 0 0 0-50.5.7m334.9 367.6c-2.8.7-5.1 1.9-5.3 2.7l-1.4 3.7-1.8 4.5-17.6 44.8-17.6 44.7-1.9 4.8-2 5-1.9 4.7c-.4 1.3-1.4 3.6-2.1 5.3-2.4 5.6-3.4 8.3-8 20.5l-6 15.5-2.3 5.5a104 104 0 0 1-3.8 9.5c-19.1 48.8-36.4 92.8-37.6 95.5l-3.8 8.5-4 9c-7.5 17.4-14 25.4-24.5 30.1a32 32 0 0 1-12 3.9l-8.7 1.1-4.3.6v12.8h115v-12.8l-5.2-.6c-13.8-1.6-23.6-3.5-24.4-4.7q-.6-.8-2-.9c-2 0-7.3-4.9-9.1-8.4-2.1-4-1.2-13.5 2.3-24.1 2.8-9 8.1-24 9.4-27 .9-2.2 5.3-14.4 7.6-21.5.8-2.5 1.9-5.4 2.4-6.5s1.4-3.8 2.1-6c2.4-7.3-1.8-6.8 57.2-7.3 61.3-.5 55.9-1.4 59.2 9.4 1 3.3 2.1 6.3 2.5 6.9a96 96 0 0 1 3 8.5c1.3 4.1 2.7 7.9 3.2 8.4s.8 1.9.8 3.1.4 2.5.8 3.1c.4.5 1.4 2.7 2.1 4.9s1.6 4.9 2.1 6 1.8 4.9 3 8.5 2.5 7.4 3 8.5c.9 1.9 3.5 10.3 6.1 19.2.6 2.2.8 5.4.5 6.9-.9 3.5-6.6 8.9-10.3 9.8a217 217 0 0 1-16.8 3.3c-4.9.7-5.5 1.5-5.5 8v5.3h124.1l-.3-6.3-.3-6.2-5-.8-10.3-1.3c-2.9-.4-5.5-1-5.8-1.5q-.6-.8-2.3-.9c-3.7 0-13.5-7.5-17.1-13.1a100 100 0 0 1-10.9-22.2l-2.2-5.5-1.9-4.7-1.8-4.5-2.2-6-2-5.5-2-5.5-2-5.5-2-5.5-2-5.5-2-5.5-2-5.5c-1-2.4-3.2-8.4-10.5-28.5l-7.6-20.8-6.9-18.7-2-5.5-2-5.5-2-5.5-2-5.5-2-5.5-2-5.5-2-5.5-2-5.5-2-5.5-2-5.5-2-5.5-2-5.5-6.9-18.8-7.1-19.2-10.5-28.5-6.6-18.3c-1.5-4.2-3.1-4.5-12.3-2.4m-7.2 66.9c.8 1.8 2 5.1 2.7 7.3s1.7 4.4 2.1 4.9.8 2 .8 3.2q.1 2.1.8 2.8c.4.3 1.4 2.8 2.2 5.6s1.8 5.3 2.2 5.6q.7.7.8 2.8a6 6 0 0 0 .8 3.1c.4.6 1.4 2.8 2.1 5s1.6 4.9 2.1 6 1.8 4.9 3 8.5 2.5 7.4 3 8.5 1.6 4 2.4 6.5c1.8 5.3 7.5 21.4 14.1 39.5 2.6 7.1 4.8 13.9 4.9 15 .1 2-.6 2-47.1 2.3l-47.3.2v-2.3c0-1.3.4-2.7.8-3.2s1.4-2.8 2.1-5 1.6-4.9 2.1-6l3-8 3-8a3584 3584 0 0 0 27.7-74 50 50 0 0 1 3.4-8c.5-.5.9-1.7.9-2.7s.4-2.6.9-3.6l2.6-5.5c.9-2 1.8-3.7 2-3.7s1.1 1.5 1.9 3.2m-1073.6-62.4-112.8.2v12.5l5.3 1.3c2.9.6 7 1.2 9.2 1.2a36 36 0 0 1 19.1 6.7c2.9 2.5 5 6 7.1 11.8 1.7 4.7 1.8 11.9 1.8 131.7 0 100-.3 127-1.2 127.9-.7.7-1.3 2.2-1.3 3.2 0 2.1-3.3 7.2-6.4 10-4.9 4.4-16 7.4-32.1 8.6l-8 .6-.3 6.2-.3 6.3h122.6c97.2 0 122.6-.3 122.9-1.3l1.4-5.2a186 186 0 0 1 5.6-19.5 820 820 0 0 0 5.7-21.3l1.9-7.5c2.4-9.5 3.2-12.9 3.7-16 .3-1.8.9-3.5 1.4-3.8 2-1.2.9-4.4-1.8-5a34 34 0 0 1-5.1-1.5c-5.2-2.1-5.9-1.4-11.6 9.8-16.2 32.3-29.3 47.4-44.1 50.8-12.2 2.8-84 3-91.5.3a23 23 0 0 1-14.6-13.2c-3.3-8.7-3.5-14.3-3.2-70.1l.3-56 32-.3c42.2-.4 52.5 1 59.9 8.4 4.6 4.7 7.1 10.6 9.6 22.9 2.1 10.6 2 10.5 9.5 10.5h6.5v-103h-6.5c-5.9 0-6.6.2-7.4 2.2a66 66 0 0 0-3.1 14 43 43 0 0 1-3.5 9.5c-3.9 8-7.2 10.9-16 13.9-4.4 1.5-9.8 1.7-43 1.8l-38 .1-.3-60.6c-.2-66-.3-64.6 5.3-67.5 2.2-1.1 10-1.4 40.3-1.4 20.7 0 38.9.4 40.6.9s5.5 1.5 8.4 2.1a49 49 0 0 1 8.2 2.7 43 43 0 0 1 13.5 15l4.9 10.3c1.7 3.6 4.7 11.4 6.6 17.3 3.1 9.6 3.7 10.7 5.5 10.2a41 41 0 0 1 6.8-1.2l4.7-.6v-6.5c0-3.6-.4-12.7-1-20.1l-2.1-31.4c-.7-9.8-1.5-17.9-1.8-18s-51.3-.1-113.3.1m1679.2.2-112.5.5-.3 6.1-.3 6.2 3.8.6 10.8 1.5c3.9.5 7.9 1.2 9 1.6 12.5 4.4 17 10.8 19.2 27 1.1 7.9 1 236.5 0 243-1.5 9.1-3.1 13.5-6.2 16.9-3.3 3.9-9.6 7.6-12.5 7.6-1 0-2.1.4-2.4.9-.6.9-6.9 1.8-20.1 2.9l-8 .7-.3 6.3-.3 6.2 122.7-.2 122.7-.3 4.9-17a1365 1365 0 0 0 11.9-43.8l2-8c.6-2.3 1.1-5.5 1.2-7.2.2-2.7-.2-3-3.8-3.8l-6.5-1.3c-2.3-.5-2.9.3-8.3 10.8a207 207 0 0 1-14 24.8c-10 14.4-20 23.2-29 25.2-13.5 3.1-83 3.5-92.7.6-5.2-1.5-14-9.5-14-12.7q0-1.8-.9-2.5c-2-1.3-2.5-13.3-2.5-67.1l-.1-57 32.5-.3c44.2-.4 54.1 1.1 60.9 9.7 3.7 4.6 5.5 9 7.5 18.2.9 4.1 2.1 8.9 2.7 10.7l1.1 3.3 6.6-.3 6.7-.3v-102h-14l-2.3 10.5c-3.2 14.4-5.9 20.2-11.7 24.2-5.6 4-8.3 4.8-20 5.8a848 848 0 0 1-68.9.4c-1.4-.6-1.6-6.8-1.6-60.6 0-65.7-.1-64.1 6-67.3 2.4-1.3 8.8-1.5 39.9-1.5 35.4 0 39.8.3 50.1 3.2a31 31 0 0 1 15.5 9.3 152 152 0 0 1 18.5 41l1.4 3.9c.5 1.4 1.2 1.7 2.9 1.1 1.2-.4 4.2-1 6.7-1.4 4.2-.6 4.5-.8 4.4-3.6l-1.4-23.5-1.8-34.2a61 61 0 0 0-1.7-14.5c-.5-.4-51.6-.6-113.5-.3m-2097.3.7c-.4.3-.7 3.2-.7 6.4v5.7l3.8.6 11.2 1.5a42 42 0 0 1 16.7 4.3c6.5 3.2 9.6 7.5 12.4 16.8 2 6.4 2.1 255.2.2 257.2-.7.6-1.3 2-1.3 3 0 4.1-5.6 10.6-11.1 13.1a64 64 0 0 1-23.9 5.4c-3.6.3-6.8 1-7.2 1.6a20 20 0 0 0-.8 6.4v5.3h72.7c43.7 0 75.3-.4 79.2-1a200 200 0 0 0 23.6-4.2 188 188 0 0 0 32.5-12.1c1.4-.6 4.4-2.4 6.7-3.9s4.4-2.8 4.8-2.8 2.5-1.5 4.8-3.3a88 88 0 0 0 34.5-53 91 91 0 0 0-1.8-38.2l-2.2-6c-3.2-9.9-15.5-24.4-27.3-32.2-10.7-7-30.1-14.9-43-17.4l-7.8-1.6q-6.3-1.2 4.4-5c6.9-2.4 9.1-3.4 15.4-6.6a54 54 0 0 0 12.5-7.7c6-4 16.4-15.2 20.2-21.6a66 66 0 0 0 9.2-27.9q2.5-21.6-4.6-37.5a80 80 0 0 0-28.8-31c-15-8.3-30.7-12.1-58-14a3270 3270 0 0 0-146.3-.3m138.8 17.8c14.5 2.9 13.4 2.6 22 6.6 21.7 10.2 33.8 33 32.2 60.4a71 71 0 0 1-7.6 29.5c-3.3 6.1-13.3 17-15.6 17q-1.3.1-1.5.8c0 .8-8.6 4.9-16.5 7.8-9.6 3.5-59.8 7-63 4.4-1.3-1.1-1.5-7.2-1.5-47.4 0-56.9.5-67.6 3.4-71.9 2.6-3.9 6.3-5.8 13.6-7.3 7.8-1.6 26.2-1.5 34.5.1m3.9 145.5a138 138 0 0 1 32.1 9.5 66.6 66.6 0 0 1 25.5 22c14.8 22.7 14.8 59.2-.1 83.2a67 67 0 0 1-34.4 27.3l-4.8 1.9c-1.5.6-3.9 1.1-5.3 1.1s-3.4.5-4.5 1-9.1 1.1-19 1.1c-14.8 0-18-.3-24-2.2a25 25 0 0 1-16.1-13.1c-4.2-9.7-4.1-8.4-4.6-70.6-.2-33.1-.1-60.9.2-61.7.9-2.5 39.6-2.1 55 .5m577.6-157.7v6.4l4.3.8c2.3.4 7.1 1.1 10.7 1.5 13.9 1.7 19.7 4.4 24.6 11.5 5 7.3 4.9 4.2 4.9 138.5 0 140 .4 132-6.9 139.4-6.6 6.7-13.2 8.9-30.3 10.3l-7.3.5v12.8h72.8c41 0 75.2-.4 78.3-.9s8.8-1.5 12.9-2.1a108 108 0 0 0 17-4c9.1-2.5 12.1-3.7 25.5-10.1a57 57 0 0 0 9.5-5.1c4.1-1.5 17.6-13 24-20.4a74 74 0 0 0 10.8-16.2 35 35 0 0 0 3.2-7.2 25 25 0 0 1 2.1-5.5c2.4-3.4 3.7-33.1 1.8-41.5-.7-3-1.6-5.9-2.1-6.5s-.8-1.6-.8-2.5-1-3.6-2.1-6.1c-11-22.7-35.8-38.7-72.9-46.9-3-.7-5.9-1.5-6.4-1.8-1.1-.6 5.2-4.1 7.5-4.2.9 0 2.9-.6 4.5-1.4l7.4-3.5a79 79 0 0 0 40-39.6q.1-1.4 1-2c.6-.3 1-1.6 1-2.9s.4-2.6.9-3.1a80 80 0 0 0 2.8-25 59 59 0 0 0-13.6-36.3 44 44 0 0 0-6-7.2 19 19 0 0 1-3.6-2.8 77 77 0 0 0-28.8-15.7c-7.6-2.5-13.6-3.6-28.7-5.6-4.1-.6-41.4-1.3-82.7-1.5l-75.3-.6zm139 12.2c17.8 3.3 26.9 7.6 36.9 17.4a57 57 0 0 1 15.4 26.4c1.4 5.9 2 30.5.8 34.7l-2.2 8a53 53 0 0 1-33.9 34l-5.5 2c-7 3-60.4 6.6-61.9 4.2-.3-.6-.7-26.4-.8-57.4-.2-49.9 0-56.7 1.4-59.8q2.5-5.6 7.3-7.5c7.9-3.3 30.2-4.4 42.5-2m3.5 145.5c24.5 4.1 37.4 10 50.3 22.7 4.5 4.5 8.2 8.7 8.2 9.3s.9 2.4 1.9 3.8a62 62 0 0 1 7.6 36.2c0 18.9-1.4 26.2-6.8 36.5l-3.1 5.9a69 69 0 0 1-32.1 26.5l-8.3 3.2c-1.3.5-3.4.9-4.8.9s-3.4.5-4.5 1c-2.7 1.5-35.1 1.4-39.7-.1-12.3-3.9-17.7-9.1-21.3-20.2l-2.3-7.2.2-59 .2-60.3c0-2.2 40-1.6 54.5.8m160.5-157.8v6.3l5.3 1.3a56 56 0 0 0 8.4 1.2c1.8 0 5.7.6 8.7 1.4 13 3.4 18 7.8 21.4 18.8 1.4 4.7 1.6 18.2 1.9 120.7.3 68.2 0 120-.5 126.7-2.1 24.2-8 29.1-38.9 32l-6.3.6v12.8h134v-5.3c0-2.8-.4-5.7-.8-6.3s-3.2-1.4-6.2-1.8c-26.2-3-31.9-6-36.6-19.6-1.8-5.1-1.9-8.9-1.9-57.5v-52l18 .2c30.3.3 32.8 1.8 50.4 30.8l10.7 17.2c1.9 2.9 3.4 5.5 3.4 5.8a93 93 0 0 0 5 8c2.8 4.1 5 7.9 5 8.5q.1.9 1 1t1 1c0 .6 3.7 6.6 8.2 13.3 25.3 37.9 38.7 49.6 64.3 56.2a197 197 0 0 0 36.8 4.5h7.7l.2-4.5.2-6q0-1.6-7.4-4.8c-14.3-6.2-24.2-14.8-40-34.2l-7-8.5c-.4-.3-2.6-3.4-5-7l-4.9-7a1045.9 1045.9 0 0 1-50.1-76 48 48 0 0 1-4-6.5c0-.4-.9-1.9-2-3.5-2.4-3.3-2.4-3.3 7.9-8.5 9.5-4.7 13.9-7.6 22.6-14.6 8.1-6.5 18.5-17.6 18.5-19.7 0-.5.8-1.7 1.8-2.8s2.2-3 2.8-4.4c5.5-12.1 5.3-11.7 8.4-24 1.2-4.7.9-29-.4-34.5a93 93 0 0 0-6.6-20 76.9 76.9 0 0 0-23-26.1 123 123 0 0 0-23.8-11.6l-7.2-1.9c-3.4-1-7.6-1.8-21.5-4-4.5-.7-34.5-1.3-83.2-1.6l-76.3-.5zm143 12.5a70 70 0 0 1 15.2 5.4c1 .5 2.3.9 2.8.9 3.6 0 21.3 15.5 24.6 21.5l6.5 12.7c.5 1 .9 2.8.9 4.1a7 7 0 0 0 .8 3.3c1.6 1.8 3.2 14.2 3.2 25 0 9.4-.6 14.1-3.7 29.7-.3 1.5-.9 3-1.4 3.3q-.8.6-.9 1.9c0 3-7.7 14.4-14.1 20.7-17.4 17.3-33 22.1-68.9 21.6l-19.5-.3v-139l2.3-3.7c2.2-3.5 4.4-5 11.7-7.6a205 205 0 0 1 40.5.5m453.4-16.4c-.3 1.3-.4 4.1-.2 6.3.3 4.3 1.3 4.7 12.8 6.3a42.9 42.9 0 0 1 31.2 21.3 470 470 0 0 1 15.8 37.8l2.2 6c1.5 3.6 2.4 6 3.8 10s2.3 6.4 3.8 10l3.2 8.5 3 8 5.3 14c8.2 22 16.8 45 17.7 47l3 8 3 8 2 5.5 2 5.5 2 5.5c1.5 4.2 2.9 7.9 4.1 10.2.5 1 .9 2.5.9 3.3s.5 2.4 1 3.5l2 4a9 9 0 0 1 1 3.5c0 .8.4 2.3.9 3.3 1.2 2.3 2.6 6 4.1 10.2l2 5.5 2 5.5 2 5.5 4.5 12c7.5 20.6 16.6 45.2 19.4 52.5l1.7 4.5h7.9c5.9 0 8-.4 8.5-1.5a173 173 0 0 0 6-14.5l1.9-4.8 2.4-5.7 13.2-32.5 13.2-32.5 2.3-5.5 3.9-9.8 2.1-5.2 2-5 2-5 2-5 1.9-4.8q1.7-4.4 4.4-10.7c.9-1.9 2.5-6 3.7-9s2.8-7.1 3.7-9l2.4-5.8 1.8-4.5 2.4-5.7 20.7-50.5 5-12c1.7-4.4 3.8-9.6 4.7-11.5l4.2-10.3c1.1-2.8 4-9.4 8.1-18.2l4.3-9.5a62 62 0 0 1 18.3-22.6 48 48 0 0 1 19.9-7l7.3-1.6 4.2-1.1V1832l-57.2.2-57.3.3-.3 6.1-.3 6.1 3.8.8 18.3 3.1c2.5.3 5 1 5.5 1.4s2.3 1 3.8 1.4c3.9.9 9.3 6.8 10.1 11.1q1.2 5.7-2 15.3a1579 1579 0 0 1-17.4 45.7l-5.2 13.5-1.8 4.5-2 5c-1.6 3.7-2.2 5.5-5 13l-3.2 8.5-1.9 4.7-1.9 4.8-1.9 4.7c-14 35.3-43.8 108.7-45.3 111.5q-1.1 2.1-1.9 2.3c-.9 0-3.9-5.8-3.9-7.7 0-.7-.4-2.1-.9-3.1-1.2-2.3-2.6-6-4.1-10.2l-2.1-5.8-1.8-4.5-2.1-5.7c-1.4-4-2.3-6.4-3.8-10l-2.2-6-2-5.5-2-5.5a870.2 870.2 0 0 1-13.1-34.5 1488 1488 0 0 1-20-55l-1.9-5c-.4-.6-1.2-3-2-5.5-.7-2.5-1.7-4.9-2.2-5.5-.4-.5-.8-1.8-.8-3q-.1-2-.8-3.1c-.5-.5-1.5-2.9-2.2-5.4s-1.6-5-2-5.5-1.3-3-2-5.5-1.6-5-2-5.5-1.2-3-2-5.5c-.7-2.5-1.7-4.9-2.2-5.4-.4-.6-.8-1.9-.8-3.1q-.1-2-.8-3.1c-.5-.5-1.4-2.9-2.1-5.4s-1.7-5.5-2.2-6.8c-1.4-3.5-1.1-11.5.5-13.8 2.6-3.7 10.4-6.8 21.1-8.4 13.1-2 12.5-1.6 12.5-7 0-8.8 6.5-8-64.1-8H1982zm293.6 450.4c-17.9 1.8-35.3 12.9-42.1 27a53 53 0 0 0-4.8 26.1c.5 2.1.9 5.2.9 7.1 0 4.9 5.2 14.9 10.7 20.5 6.9 7 14.5 11.9 26.6 17 8.3 3.5 10.4 4.5 16 7l6.2 2.6a65 65 0 0 1 14.6 10.7 26 26 0 0 1 8.4 19 37 37 0 0 1-10.9 31.7 36 36 0 0 1-21.6 10.9 46 46 0 0 1-26.7-4.3 62 62 0 0 1-19.9-18.8c-1-1.7-2.4-3.2-3-3.2-1.3 0-2.4 3.1-2.4 6.9 0 2.3-1.1 6.6-3.1 11.7-.9 2.6 1.2 4.8 8.4 8.8a76 76 0 0 0 41.5 7.6c20.3-2.6 30.1-6.8 40.7-17.4 6.9-6.9 13.5-17.5 13.5-21.7q0-1.7.9-2.3a68 68 0 0 0 2.3-16.6c0-5.5-1.8-15.2-3.5-18.8-4.5-9.7-17.9-20.3-33.2-26.2a587 587 0 0 1-22.5-9.8 48 48 0 0 1-21.3-18.3c-8.5-18.6-1.7-38.3 16.1-46.5 4.8-2.3 7.2-2.7 14.7-2.8 7.6 0 9.8.3 14 2.4 6.2 3 13.9 10.8 16.8 16.9 2.3 4.8 5 6.1 5.5 2.6.6-4.6 3.1-12.5 5.3-16.7.7-1.4.1-2.3-3.3-4.5a69 69 0 0 0-44.8-8.6m-1655.3 10.2.2 6.6 6.3-.2 25.9-1.4c14.2-.8 20.2-.8 21.6 0 1.9 1 2.1 2.3 2.8 20.5.8 20.1 0 118.4-1.1 138.3l-.6 11.3h11.5c6.4 0 11.8-.3 12-.8s0-20.6-.6-44.9c-1-44.5-.2-121.9 1.3-124.3.7-1.1 5-1.1 23.2-.1 12.2.6 24.6 1.4 27.3 1.6l5.1.5v-13.6l-67.6-.1h-67.5zm261.9 8c1 18.9 1 133.2 0 152.2l-.8 14.7 47.1-.1 47.1-.1v-12.8l-3.4.6c-7.1 1.3-29.7 2.5-48.2 2.6h-19.1l-.7-4.6c-.9-7-.7-73.7.3-75.3.7-1.1 5.5-1.2 27.2-.7 14.5.4 28.7.9 31.6 1.2l5.1.5v-14.3l-5.1.6c-2.9.3-17.2.9-31.9 1.2l-26.7.6-.7-2.8c-.8-3 .1-66.3 1-67.1.8-.9 39.7-.3 46.6.7 3.6.5 10.3 1 15 1h8.5v-12.6h-93.7zm219.9-14c.1.4 2.5 4.2 5.2 8.6l6.4 10.5 1.9 3c1 1 37.4 60.8 39.7 65.3.8 1.5 1.3 3.4 1 4.1a2060 2060 0 0 1-55.8 82.9c-2.3 2.5-3 5.7-1.5 6.3.7.3 4.4.4 8.1.2l6.8-.3 12-20.5a1313 1313 0 0 1 32.7-53.5c0-.3.7-1.7 1.6-3q3-4.4 6.4 2.2c.8 1.5 3.6 6 6.2 10 2.7 4 4.8 7.4 4.8 7.7s1.4 2.8 3 5.6a1438 1438 0 0 1 26.4 48.2l2 3.8h13.3c8.3 0 13.3-.4 13.3-1 0-1-2-4.2-12.7-20.7a63 63 0 0 1-5.3-9.3q0-.9-1-1t-1-1.1c0-.5-1.7-3.6-3.9-6.7-3.6-5.4-32.4-53-35-58.1-1.2-2.1-.3-3.8 12-22 13-19.3 24.8-36.1 26-37.1l4.9-7c2.4-3.6 4.6-6.7 5-7 .8-.6 7-9.7 7-10.2 0-.3-3.7-.5-8.3-.5-9.1-.2-8.3-.6-12.8 7.3l-4 7.1-5.2 9.3a952 952 0 0 1-30.4 47.9c-.6.8-4-3.1-6.1-7a72 72 0 0 0-5.2-8.9c-.5-.5-1.2-1.7-5.2-8.9a197.6 197.6 0 0 1-11.6-20.1l-6.2-11.5-5.4-10.1-2.8-5.1h-13.3c-7.4.1-13.2.3-13 .6m247.2 2c.7 2.5.7 6.3.1 9.2-.3 1.6.8 1.6 33-.2q21.3-1.3 22.2-.3c2 2 3.4 77.9 2.1 114.9a2236 2236 0 0 0-1.1 44.8v10.8l11.8-.3 11.7-.3-.3-2.5c-.2-1.4-.6-39.2-.9-84.2l-.5-81.6 2.3-1.3c1.8-.9 6.8-.9 23.4 0 11.5.6 23.3 1.4 26.2 1.7l5.2.5v-13.7l-67.9-.1h-68zm262.8 88.3v90.8h22.8l-.9-27.3c-1.1-34.8-1.1-92.6 0-127.2l.9-27h-22.8zm168.2-76.2c.8 17.2 1 109.6.3 143l-.5 23.5 47.5.1c26.1 0 47.8-.1 48.2-.3.3-.2.3-1.7-.2-3.3-.5-1.7-.5-4.4 0-6.1l.9-3.2-4.5.7a495 495 0 0 1-52.9 2.4l-16-.3-.8-11c-.8-11.2-.1-127.4.9-148.5l.5-11.6H1779zm228-4.6c.9 11.4 1.1 129.3.3 154.6l-.5 16.5h94.5v-12.7l-2.7.5c-6.5 1.4-36.1 2.8-51.8 2.5l-17-.3-.6-3c-.4-1.7-.7-19.3-.8-39.1-.1-30.8.1-36.3 1.4-37.4 1.1-.9 7.6-1.1 27.7-.6 14.5.4 28.4.9 31.1 1.2l4.7.6v-14.4l-8.7.9c-4.9.4-19.4.8-32.3.8h-23.5l-.3-23c-.3-22.4 1-45.2 2.5-46.5.9-.6 37.7.4 56.6 1.5l11.7.8v-12.9h-93z"/></svg>