<svg xmlns="http://www.w3.org/2000/svg" viewBox="0 0 3000 3000"><path fill="#fff" d="M1062.7 325.2a83 83 0 0 0-5.5 7.8c-1 1.9-5.4 9.3-9.7 16.5s-9.1 15.5-10.7 18.5l-10.5 20a523 523 0 0 0-26.8 59.5l-6.7 17a459 459 0 0 0-16.4 50A529 529 0 0 0 958.9 671a410 410 0 0 0 33 143l9.5 22.3a1388 1388 0 0 0 34.8 70.7c5.3 9.7 14.3 25.2 21.5 37l11.4 19c5.7 9.8 30.3 46.4 45.2 67.5l8.9 12.8c3.6 5.3 19.3 26.4 35.1 47.2l20.3 27a651 651 0 0 0 31.4 39.5c4.4 5.2 15.1 18.5 23.8 29.5 8.6 11 21.6 26.8 28.7 35.1 15.3 17.8 20.4 24 32.6 39.4l12.3 15.1 8.1 9.8a1061 1061 0 0 0 18.5 22.6 375 375 0 0 1 15.5 20l28.1 37.6a984 984 0 0 1 31.9 44.9c32.4 49.7 46.7 69.8 65 91.5 2.3 2.7 5.6 7.2 7.4 10 1.7 2.7 3.1 4.6 3.1 4.1 0-2.3-9.2-30.9-15.9-49.3q-12.8-35.1-16.5-46.8c-3.5-11.3-11.8-35.2-16.1-47-8.1-21.8-10.9-29.6-16.2-44.5-5.6-15.9-8.1-23.1-22.1-64-12.8-37.6-25.4-73-41.7-117.5-2.6-7.2-5.7-16.4-7-20.6-2.5-8.3-10.2-30.8-18.5-53.9-2.8-8-6.7-18.8-8.4-24-6.4-18.5-18.2-51.7-26.1-73.5-2.6-7.2-6.4-18.6-8.5-25.5s-6.1-18.8-8.9-26.5c-7.2-19.3-16.9-46.5-25.9-72.5a2656.4 2656.4 0 0 1-27.2-78.5c-1.6-5-5-14.9-7.6-22l-9-25-9.4-26c-2.8-7.7-9.3-26.8-14.6-42.5s-11.8-34.4-14.4-41.5c-2.7-7.2-8-22.2-11.9-33.5-3.8-11.3-9.3-26.8-12.1-34.5-6.4-17.5-11.2-31.3-19.9-57.5-3.8-11.3-9.9-28.8-13.6-39l-15-42.5c-4.5-13.2-10.2-29.2-12.5-35.5-4.3-11.8-11.3-32.1-15.5-44.5-1.2-3.8-2.7-7.1-3.3-7.3-.5-.1-2.6 1.6-4.5 4M1469 847a867 867 0 0 0-101 15l-12.5 3-18 4.7-18 4.9c-14.7 4-15.5 4.3-15.5 6.6 0 1.1 2 8.2 4.4 15.7 4.5 13.8 9.8 30.9 13.3 43.6 1.1 3.8 2.7 7.3 3.5 7.8 1 .7 8.9-1.5 25.9-7.1 26.2-8.7 30.1-9.8 45.4-13.2l16-3.6a854 854 0 0 1 47-8.9 523.6 523.6 0 0 1 93.5-5.9c45.7.1 58.3 1.1 102 8 44.2 7 98.2 21.6 129 34.9a667 667 0 0 1 120 61.8c46.4 30.9 73 53.3 114.4 96.2 27.2 28.3 42 46.7 66.9 83.5a341 341 0 0 1 24.5 39l9.9 18.8 13.9 27.3c9.4 18.8 9.5 19 14 21 7.5 3.1 7.5 3 .6-15.1-9.5-25-14.5-36.4-30.2-68.5a411 411 0 0 0-32.5-57l-9.9-15.5c-3-5-8.4-12.7-19.8-28.1a504 504 0 0 0-45.1-53.7 643 643 0 0 0-124.2-105.3c-26.9-18-68.7-41-94-51.7l-21.7-9.1a669 669 0 0 0-194.3-47.7c-18.1-1.9-91.4-2.8-107.5-1.4m-617.4 79.2c-.3 1.3-1.1 13.3-1.7 26.8-1.2 26-.7 57.3 1.2 71.7 6.5 51.3 10.4 69.4 20.9 97.8a351 351 0 0 0 24.9 53.6c4.4 8.1 18.9 29.3 25.3 36.9a502 502 0 0 0 76.8 69.9 1154 1154 0 0 0 63.5 41.6c3.9 2.3 13.8 8 22 12.5l23 12.8a2395 2395 0 0 0 171.5 80.3c47.3 20.1 121.6 57.2 150 74.9 8.6 5.4 58.6 31 60.5 31s-.5-3.7-7.5-12c-4.4-5.2-12.6-15.4-18.2-22.5-19-24.2-23-29-38.8-46a774 774 0 0 1-23.9-26.8 752 752 0 0 0-24.8-28c-14.7-15.8-25.8-28-63.3-69.2a3316 3316 0 0 0-174-173.6 888 888 0 0 0-28-24.8l-15-13.5a1684 1684 0 0 0-66.9-58l-32.1-26.4c-37.3-31-39.1-32.5-47-38.8-6.2-5-27.4-21.3-44-33.9L888.8 949a280 280 0 0 0-35.3-25q-1.2.2-1.9 2.2m937.9 232.5c-26.7 3-80.6 20.3-111.5 35.8-14 7-32.4 18.5-44.5 27.9a588 588 0 0 0-59.3 54.6 3430 3430 0 0 1-75.3 79.5 524 524 0 0 0-28.5 31c-4.4 4.9-8.8 10.1-9.7 11.5-3.2 4.6-3.4 3.7 13.8 58.5a2809 2809 0 0 1 24.9 85.5c.9 3 1.6 7 1.6 8.8 0 2.8-.5 3.4-3.7 4.8l-13.8 6.5c-5.5 2.7-10.3 4.9-10.6 4.9s-5.5 2.7-11.5 6.1-16.3 8.5-22.9 11.6c-21.2 9.7-36.8 18-55.5 29.6a391 391 0 0 0-31 20.3 298 298 0 0 1-65.5 35.4l-10.5 3.5c-1.9.8-4.7 1.6-6.2 1.9-3.3.7-7.6 6.5-15.7 21.1a1175 1175 0 0 0-27.4 54.5l-8.4 18a1036 1036 0 0 0-27.8 66c-5.8 14.2-25.7 76.2-28.6 89l-5.4 23.5-4.6 20c-1 4.9-2.4 10-2.9 11.2-1.7 3.9-3.9 24.2-5.5 49.1-1.9 30.3-1.9 38 0 61.7 2.6 33.1 5.4 50.2 14.1 86.5 2 8 4.2 17.6 5 21.5s3.3 12.6 5.5 19.5c6.6 20.4 11.5 35.6 16.4 51.5 6.5 20.6 9 27.9 14.7 43l9.4 25.5 6.4 17.5 2.5 7.2c.3 1.3 1.1 2.3 1.6 2.3 1.1 0 .6-2.6-2.6-13.5a680.6 680.6 0 0 1-16.5-74c-4.7-31-7.1-73.5-5.1-89 2.4-18.4 8.1-51.2 10.2-58.5a389 389 0 0 1 26.6-70.8c11.4-22.3 22.4-36.4 49.2-63.3 11.3-11.3 24-23 28.1-26.1a488 488 0 0 1 26.3-18.4l11-6.7c10-6.1 32.3-16.5 45.2-21.2a262 262 0 0 1 68.7-13.5c7.6 0 7.9.1 8.9 2.7 1.6 4.2.2 15.1-2.6 19.8a76 76 0 0 1-8.6 10.3 146 146 0 0 1-21.9 18.2q-.8.1-1.4 1.6c-.5 1.4 0 1.5 4.1.9 6.2-.9 42.9-9.9 51.3-12.6 31.9-10.1 70.9-26.7 88.3-37.6l7-4.2a294 294 0 0 0 91.7-85.1l10.6-14.5a619 619 0 0 0 51.4-84c1.1-1.4 21.5-42.1 28.5-57 7.7-16.2 9-19.1 11.3-25.5 2.1-5.6 11.2-28 13.6-33.5.8-1.7 1.9-4.8 2.6-7s2.4-6.7 3.8-10c3.4-8.2 7.6-19.9 19.7-55 12.6-36.7 13.2-38.4 20.2-50.9 14-25.4 40.5-58 62.3-76.7a265 265 0 0 1 57.6-35.5 399 399 0 0 1 72.9-16.3 624 624 0 0 1 97.5-4.2c43.9 2.7 72 5.3 91 8.2 35.7 5.5 48 7.1 49.5 6.5 1.3-.5 1.5-1.3 1-3.4-.9-3.8-2.4-5.2-7.1-7.4-7.8-3.4-54.8-13.5-89.9-19.3a528 528 0 0 1-115.6-35.3 244 244 0 0 0-20-8.6 321 321 0 0 1-46.5-24.4 197 197 0 0 1-33.5-30.7 286 286 0 0 0-46.1-40.3 222 222 0 0 0-84.8-38.7c-7.7-1.6-30.3-2.7-37.5-1.8m72.3 59.3a43 43 0 0 1 27.5 21.7 45 45 0 0 1-.1 37.6 54 54 0 0 1-19.8 18.3 40 40 0 0 1-43.6-6.7 44 44 0 0 1-12.9-22.7 43 43 0 0 1 12.1-37.3 37 37 0 0 1 17.7-10.8 51 51 0 0 1 19.1-.1m-1113.5 49.6c-1.3 3.5 14.5 48.5 21.7 61.6l9.3 18a324 324 0 0 0 61.2 86.4 236 236 0 0 0 43 35.9 210 210 0 0 0 39 21.6 591 591 0 0 0 44.5 16l12 3.4a569 569 0 0 0 82 16.5c39.8 5 65.6 7.6 89 9l33 2c8.5.5 26.8 1.2 40.5 1.5 30.6.8 35.1 1.7 32.5 6.4-1.6 3.1-6.8 4-30 5.1a494 494 0 0 0-38.5 3 2112 2112 0 0 0-88 11c-32.7 5.7-56.2 10.6-57 12-1.2 1.9 30.3 34.8 45 47a486 486 0 0 0 46.1 33.8 217 217 0 0 0 55.8 22.1c7.6 1.4 27.4 1.4 39 .1 10.7-1.3 32.1-7.2 46.6-13a562 562 0 0 0 82.4-43.9 530 530 0 0 1 76.6-42.6c10.5-4.3 29-14.3 29-15.6q0-.7-.9-1.4c-1.3-.8-20.7-3.1-46.6-5.5-46.1-4.3-52.8-5.4-55.1-9.1q-.4-1 .7-2c2.4-1.5 20.7-1 36.4 1 35.7 4.6 83.7 8.8 86.5 7.5 2.4-1.1 3.9-.2-31-19.3-21-11.6-60.6-31.7-75.5-38.4-5.5-2.5-19-8.9-30-14.4s-24.5-11.8-30-14.2-15.4-7-22-10.1c-12.5-6-20.2-9.5-54.5-25l-26.8-12.1a69 69 0 0 0-6.9-2.9 2337 2337 0 0 0-66.8-27.5l-12-4.9-8.5-3.4-12.5-4.8-17.5-6.4-26.5-9.7A1731 1731 0 0 0 983 1334l-12.5-4.3-42-13.2c-3.8-1.3-12.2-3.8-18.5-5.5s-20.5-6-31.5-9.5c-30.4-9.6-91.2-26.3-119.8-32.9-7.7-1.8-10-2-10.4-1m94.2 201.1c-1.4 3.3-1.8 78.6-.5 93.7 3.3 39.4 6.3 64.2 9.4 80l4.6 23.6c1.8 10.7 8.7 36.9 13.1 50.1l6 18.4a521 521 0 0 0 24.9 63c4.8 10.5 9 20 9.4 21.1 2 6.3 16.9 32.7 32.7 57.9a547 547 0 0 0 52.3 73.5c19.4 23.1 57.7 63.2 59.1 61.8.3-.3-.1-4.6-.9-9.4a406 406 0 0 1-4.6-42.3c0-3.3-.4-7-.9-8.3s-5.3-8.2-10.7-15.3a602 602 0 0 1-35.1-53 481 481 0 0 1-38.9-75.5c-8.1-20-9.1-22.3-12.2-29.5s-10.3-29-14.1-42.5l-6.1-21a362 362 0 0 1-9.5-39.5l-3-17c-6.9-37.9-8.7-60-8.9-109l-.2-40-7.9-5.3-14.5-9.3c-3.6-2.2-8.3-5.3-10.5-6.9l-12-8.5-13-9c-5.6-4-7-4.2-8-1.8m1295.6 35.8-13.9 7.5c-.2 0-5 2.7-10.6 6-5.7 3.3-10.6 6-10.9 6-1.3 0-12.3 7.4-19 12.8a57 57 0 0 0-17.6 22.7 69 69 0 0 0-3 30.1 61 61 0 0 0 23.9 43.8c3.3 2.6 6 5.4 6 6.2s-2.6 2.7-5.7 4.3c-3.2 1.6-8.6 5-12 7.5l-6.3 4.6v5.7a80 80 0 0 1-.6 9.5c-.6 3.4-.4 3.8 1.5 3.8 2.5 0 16.3-7.1 26.5-13.7a55 55 0 0 1 23.9-10.3c2.3 0 8.3.8 13.2 1.9 5 1.1 13 2.4 17.9 3.1 4.9.6 13.4 2 18.9 3.1a37 37 0 0 0 10.8 1.2c.4-.4.9-7 1.1-14.5.2-11.2 0-14-1.2-15.2-1.5-1.5-3.2-1.7-42-5.1-25.6-2.3-35.1-5.1-47.1-13.8-5.3-3.8-8-6.7-10.3-10.7-2.9-5.1-3.1-6.2-3.1-15.5 0-8.9.3-10.6 2.6-15 5.1-9.6 11.6-14.3 31.4-22.8a745 745 0 0 0 25.7-11.6 55 55 0 0 1 14.1-5.5c2.9 1.1 4.8 7.8 8.8 30.4 3.6 20.5 5.2 26.4 7.2 26.8.9.2 3.8-.4 6.3-1.4l4.5-1.7-.6-5.1c-.4-2.8-1.7-10.7-3-17.6l-4-22c-2.2-12.4-9.3-40-10.7-41.7-.6-.7-2.9-1.3-5.2-1.3-3.2 0-7 1.6-17.5 7.5m29.9 200.6a141 141 0 0 1-25.8 10.1c-7 2-9.7 2.2-28.5 1.9-28.3-.3-35.7 1.4-44.7 10.2-8.8 8.7-14.2 20.7-18.5 41.2-2.1 10.2-1.3 11.7 5.8 11.3 5.9-.3 6.6-1.3 9.2-11.3 3-11.5 8.7-20 15.7-23.6q6.6-3.5 33.2-.5c9.5 1.1 12.2 1.8 13.3 3.2s1.3 4.5.8 14.4c-.7 13.7.6 22.4 4.8 32.9 2.9 7 13.4 23.1 15.1 23.1.8 0 3.1-3.9 5.2-8.8 5.4-12.2 5.2-15.6-1.4-29.7a105 105 0 0 1-9.2-29.1c0-6.2 3.5-9.2 15.5-13.8 8.7-3.2 12.9-5.8 15-9 1.4-2.1 5.3-20.5 5.5-25.4 0-1.9-1.9-1.4-11 2.9m-131.2 106.6c-.8 1-6.3 11.2-12.1 22.8a413 413 0 0 1-49.2 78 40 40 0 0 0-6.5 9.7c0 2 4.3 5.6 7.9 6.5 2.1.5 3.2-.2 7-4.4 5.8-6.2 28.7-38.4 33.5-46.9l4.2-7.4c2.9-5.3 6.3-9 8-9 .7 0 6.2 2.3 12.1 5.1a1383 1383 0 0 0 55.8 24.9c6.2 2.9 14.7 6 16.3 6 1.2 0 3.5-3.4 8-11.9 3.4-6.5 6.2-12.4 6.2-13 0-1.5-12.2-6.3-61-24-19.9-7.3-24.2-9.5-24.8-12.6a29 29 0 0 1 2.7-8.9c4.1-9.4 4.4-12.6 1.1-14.2-4.9-2.4-7.5-2.6-9.2-.7m-100.5 144.6c-4 4.1-7.3 7.9-7.3 8.5s5 6.7 11.1 13.4c6.2 6.8 12.6 14 14.2 16.1 3.7 4.5 8.5 7.7 11.8 7.7 1.7 0 4.6-2.3 9.6-7.5 8.9-9.2 9.3-11.2 3.1-17.2a327 327 0 0 0-33.5-28.3 37 37 0 0 0-9 7.3m-46.4 40.3c-.8.9-4.4 3.7-8.2 6.2a36 36 0 0 0-7.4 5.8 48 48 0 0 0 3.5 12.1c9 24.5 8.8 23.6 6.9 29.5-2.4 7.4-5.8 13.1-8.8 14.5-2.2 1.1-4.6.8-16.2-2.2a525 525 0 0 1-31.5-9.4c-9.9-3.4-19.4-6.1-21.2-6.1-3.6 0-12.3 4-15.8 7.3-3.6 3.4-2.7 7.7 2.1 10.1 2.2 1 5.9 1.9 8.4 2 3.3.1 4.8.7 6.1 2.3.9 1.2 4.3 3.4 7.5 4.8 6.9 3.2 6.9 3-1 15.7-7.7 12.5-9.2 16.4-10.2 26.9a627 627 0 0 0-2.9 49.5c1 .9 15.9-4.2 27.6-9.6 6.9-3.2 7.2-5.7 3.6-32.3-2.3-17.3-2-21.3 2.2-29.6 2-3.9 4.7-7.9 6-8.7 2.9-1.9 3.6-1.8 27.7 4.1 12.6 3.1 22.7 4.9 34.8 6.2 16.3 1.6 17.5 1.6 25.8 0 4.7-1 10.9-2.9 13.6-4.2 4.9-2.4 20.1-14.3 19.2-15.1-.2-.2-12-1.3-26.3-2.5-27.5-2.2-35.1-3.4-36.7-6-.8-1.3-.1-3.6 2.7-9.5 5.9-12.2 7.6-18 7.6-25.3 0-8-1.5-13-6.9-23.9-6.7-13.8-9.2-16.2-12.2-12.6m-235.9 48c-.8.2-4.4.6-8 .9a32 32 0 0 0-7.8 1.4c-.9.5-1.8 7.4-2.8 22.2-.8 11.8-1.7 24.2-2.1 27.5q-.4 6.2.6 6.8c2 1.3 28.2-1.5 52.1-5.5 27-4.6 33.8-4.8 35.7-.9a48 48 0 0 1-.6 24.3c-2.7 7.7-6.5 12.9-17.4 23.9a140 140 0 0 0-12.8 14.8 59 59 0 0 0-8.6 28.2l-.6 8.8h2.5c2.3 0 25.3-4.4 28.9-5.5 1.3-.4 1.7-2.6 2.2-9.8.8-11 2.3-16.2 7.3-25.3 4.9-9 8.4-14.1 14.3-20.9 6-6.9 11.6-17.5 12.5-23.6.4-2.6.2-7.3-.3-10.5a169 169 0 0 0-6-28.7 65 65 0 0 0-24.2 5.5c-.5.7-.9 3-.9 5.1 0 3.1-.3 3.8-1.7 3.5-1-.2-2.4-1.8-3.2-3.6-1.7-3.7-2.1-3.7-12.7-1.7a354 354 0 0 1-34.5 5.5c-6.5 0-6.9-1.2-6.9-22.3 0-16.7-.2-18.7-1.7-19.5-1-.5-2.5-.7-3.3-.6m-395.9 83.1a48 48 0 0 0-2.8 14.8c1 2.6 34.2 14.6 73.2 26.5a685 685 0 0 0 45 11.5l26 4.9a774 774 0 0 0 118.4 10.2c13.3-.6 16.2-.9 15-2-.2-.2-11.2-.9-24.4-1.5a573 573 0 0 1-135.5-23.2 506 506 0 0 1-61-20.9l-14-5.9-23-10c-7.4-3.3-14-6.1-14.7-6.1q-1.2.2-2.2 1.7m607.6 294.5a118 118 0 0 0-10.7 19.8c0 .5 2.1 1 4.8 1l4.7-.1 9.3-10.5c5.1-5.7 9.5-11.1 9.9-11.9.4-1.2-.9-1.5-7.5-1.5-8 0-8.1.1-10.5 3.2m-995.2 29.7a49 49 0 0 0-33.1 29.7 38 38 0 0 0-2.7 17.4c0 8.9.4 11.5 2.7 17.4a53 53 0 0 0 14.1 20.7 56 56 0 0 0 40.6 10c8.2-1.3 21-7.2 27.3-12.6l4-3.3-2.9-4.2a30 30 0 0 0-5.6-6l-2.7-2-4.8 3.9a34 34 0 0 1-17.2 8.2 34 34 0 0 1-35.8-16.3c-2.7-4.9-2.9-6-2.9-15.8 0-9.6.2-10.9 2.7-15.1a39 39 0 0 1 15.7-14.3c3.7-1.7 6.5-2.1 14.1-2.1 8.7 0 10 .3 16.1 3.3a35 35 0 0 1 8.4 5.3c1 1 2.7 1.9 3.7 1.9 2.1 0 10.8-7.6 10.8-9.5 0-2.1-8.2-8.7-15.2-12.3a51 51 0 0 0-37.3-4.3m402.5-.5a57 57 0 0 0-31.4 24.4 55 55 0 0 0-5.6 22.6 48.5 48.5 0 0 0 55.7 48.8 47 47 0 0 0 33.3-20.7 50 50 0 0 0-5.2-61 49 49 0 0 0-46.8-14.1m25.3 19a34 34 0 0 1 15.5 15.1c5.2 10 3 25.5-5.1 35.1a31 31 0 0 1-28.9 10.4c-8-1.5-13-4.1-18.4-9.6-6.4-6.6-8.7-13.7-8.1-24.4.5-9.8 2.4-14.4 8.4-20.6 4.1-4.2 9.6-7.3 15.3-8.5 5.5-1.2 15.6 0 21.3 2.5m742.8-18.8a51 51 0 0 0-37.1 40.2 46 46 0 0 0 5.7 30.3 39 39 0 0 0 20.8 20.5c18.9 9 42.1 5.8 57.9-8l5-4.3-4.8-5.1a21 21 0 0 0-6.1-5.2c-.7 0-3.4 1.6-6 3.6a36 36 0 0 1-48-2.3c-5.4-5.6-7.5-11.8-7.5-22.3 0-11.6 1.6-15.5 8.7-22.2a30 30 0 0 1 21.2-9.5q13.3-1 25.6 7.3c2.9 1.9 5.5 3.4 6 3.4 1.4 0 10.5-8.2 10.5-9.5 0-1.9-7.3-7.6-15-11.9a52 52 0 0 0-36.9-5m107.4-1.1-6.5 2a49.3 49.3 0 0 0-6.3 90.8c6.6 3.1 7.1 3.2 20.8 3.2 13.9 0 14 0 21-3.4a48 48 0 0 0 27.7-43.2 49.6 49.6 0 0 0-56.7-49.4m22.1 19.8a32 32 0 0 1 17.4 27.8q0 12.7-6.4 21.1a31.7 31.7 0 0 1-56.1-26.6 30 30 0 0 1 23-24.7 40 40 0 0 1 22.1 2.4m-1227.9-17.7c-.4.4-.7 21.3-.7 46.5v45.9l2.3.5c1.2.3 12.3.4 24.7.3l22.5-.3.3-7.8.3-7.7h-15.3a101 101 0 0 1-16.4-.8 6 6 0 0 1-1.8-3 71 71 0 0 1 1.5-21.3c.6-1.1 4.3-1.4 16.1-1.4h15.3l.3-7.4c.2-5.3-.1-7.7-1-8.2-.7-.5-7.7-.9-15.4-.9-10.2 0-14.4-.4-15.2-1.3-1.7-2-2.5-10.9-1.3-13.9l1-2.7 15.8-.3 15.8-.3v-16l-24.1-.3c-13.2-.1-24.3.1-24.7.4m68.8.6c-.3.7-.4 21.8-.3 46.8l.3 45.5h15l.6-10.5c.4-5.8.7-18.7.8-28.8.1-17.3.2-18.2 2-18.2s4.8 3.3 6.4 7l4.4 7.3 15.2 23.3c6.2 9.6 12.4 18.2 13.6 19q2.3 1.5 8.7 1.2l6.3-.3.6-13.5c1.2-25.6 1-77.5-.3-78.8-1.2-1.2-11.4-1.7-14.2-.6-1.4.5-1.6 4.1-1.6 29.5 0 27.7-.1 28.9-1.9 28.9q-2-.1-5.2-5.3l-16-24.7-15.6-24-2.8-4.5-7.8-.3c-5.6-.2-7.9.1-8.2 1m88.2-.6c-.4.4-.7 4-.7 8 0 8.2.2 8.4 8.5 8.4 9 0 8.5-2.1 8.5 39.6v36.4l2.3.5c1.3.4 4.8.5 7.8.3l5.4-.3.5-37.3c.6-43.1-.1-40.6 9.9-39.5 7.4.7 8.3-.3 7.9-9.4l-.3-6.8-24.6-.3c-13.5-.1-24.8.1-25.2.4m66.6.1c-1.8 1.3-2.5 31.2-1.6 64.8l.8 28h16l.5-18.9c.7-24.9 1.3-25.2 11.3-4.6 3.7 7.4 8.1 15.7 9.9 18.5l3.3 5 7.4.3c4.1.2 7.8-.1 8.3-.6s-3-8.5-8.6-19.6a197 197 0 0 1-9.6-20.1c0-.8 1.2-2.2 2.6-3.2 10.6-7.4 13.7-12.5 13.8-22.8.1-12.3-6.7-22.4-17.3-25.6-4.5-1.3-35.2-2.3-36.8-1.2m34.8 20c1.1 1 2.2 3.6 2.6 5.6.5 3.1.1 4-2.4 6.6-2.4 2.4-4.1 3-9.6 3.6-9 1-9.7.3-9.7-9.4 0-7.9.5-9.5 3-10.3 2.7-.9 14.1 1.9 16.1 3.9m180.1-19.5c-.7.7-1.2 3.9-1.2 7.5 0 5.9.2 6.4 2.6 7.3 1.4.6 4.5 1 6.8 1q4.2 0 5.6 1.5c1 1.2 1.4 10.9 1.9 38.3l.6 36.7h15l.5-37.2c.4-28.2.8-37.5 1.8-38.5.7-.7 3.9-1.3 8-1.3h6.7l.8-5.5q.8-5.4-.2-8.3l-1.1-2.7h-23.3c-16.8 0-23.6.3-24.5 1.2m64.3 0c-.3.7-.4 21.8-.3 46.8l.3 45.5h49l.3-7.8.3-7.7h-15.3a91 91 0 0 1-16.7-.9c-2-1.3-1.6-23.2.5-24.7q1.3-1.2 13.8-.7a95 95 0 0 0 15-.1c2.7-.7 2.7-.8 2.4-8.4l-.3-7.7-14.9-.3c-9-.1-15.5-.7-16.3-1.4q-1.2-1.1-1.3-7.8 0-6.7 1.3-7.8c.8-.7 7.3-1.3 16.3-1.4l14.9-.3.3-8.3.3-8.2h-24.6c-18.7 0-24.7.3-25 1.2m70.3-.6c-.5.4-.8 21-.8 45.9 0 33.7.3 45.4 1.2 46.3.7.7 4 1.2 8 1.2h6.8l.2-10.3c.3-18.2.6-25.7 1.2-27.2 1.4-3.8 3.8-.7 11.5 14.7 12.2 24.6 10.6 22.8 20 22.8 4.4 0 8.3-.4 8.6-1s-3.7-9.2-9-19.3a154 154 0 0 1-9.5-20.5q-.1-2 5.8-5.9c7.5-5 10.6-10.9 10.6-20.3a29 29 0 0 0-7.2-19.3 35 35 0 0 0-7.7-4.9c-4.4-2-6.9-2.3-22-2.6-9.3-.2-17.3 0-17.7.4m29.5 17.4c4 0 8.7 4.9 8.7 9 0 5.1-4.3 8.6-11.7 9.5-9.9 1.1-10.3.8-10.3-8.8 0-10.7 1.2-12.3 7.5-10.5 1.6.4 4.3.8 5.8.8m73.4-17.3c-.5.9-7.7 19.6-16.4 42.8l-12.2 32c-3.4 8.7-5.9 16.5-5.7 17.2.7 1.8 15 1.8 16.3 0 .6-.6 2-4.3 3.3-8.1 3.6-10.8 3.1-10.6 23.4-10.6 20.7 0 20.3-.2 24.4 11.5l2.9 8h8.4c6.9 0 8.4-.3 8.2-1.5-.3-2.5-8.7-25.4-15.1-41.5-3.2-8.3-8.8-22.4-12.2-31.5-3.5-9.1-6.8-17.1-7.3-17.8-1-1.3-17.2-1.8-18-.5m16 38.8c4.9 14.2 5.1 16.3 2.1 17.3a41 41 0 0 1-19.3-.2c-1.9-1.4-1.9-1.6.8-8 1.5-3.7 2.7-7 2.7-7.5s1.3-3.9 3-7.6c4.3-9.5 5.5-8.9 10.7 6m54.8-38.4c-.3.8-.4 21.9-.3 46.9l.3 45.5h15l.5-19.2a158 158 0 0 1 1.2-19.8c.4-.4 4.3-.9 8.7-1.1 9.3-.4 13.4-1.9 19.8-7.1 6.1-5 8.3-9.9 8.3-18.7 0-9.2-1.6-13.9-6.3-18.8-6.7-6.9-10.7-8-29.9-8.6-13.7-.4-16.9-.2-17.3.9m33.5 18.4c1.5.8 3.3 2.8 4 4.5 2.7 6.5-2.7 11.8-12.9 12.7-8.1.8-9.5-.8-8.9-9.9.7-9.2 1.7-10.2 9.2-9.3 3.3.3 7.2 1.3 8.6 2m40.6-17.9c-.9 2.4-.7 89.7.2 91.2.7.9 6.3 1.2 24.8 1l23.9-.3v-15l-15.8-.5c-12.5-.4-16-.8-16.7-2a63 63 0 0 1 0-22.1c1-1.7 2.3-1.9 14.8-1.9 18.9 0 18.2.3 18.2-8.1 0-6.5-.2-7-2.6-7.9-1.4-.6-8.5-1-15.8-1q-13.3 0-14.4-1.2c-1.4-1.4-1.6-12.6-.2-14.8.7-1.2 4.2-1.6 16.7-2l15.8-.5v-16l-24.1-.3c-21.4-.2-24.2-.1-24.8 1.4m67.1-.9c-1.1 1-.8 60.1.3 67.8 1.5 10.6 5 16.7 12 21.5 3.4 2.3 8.1 4.5 11.1 5.1 6.4 1.4 16.7.6 21.4-1.7a36 36 0 0 0 14.6-14.1c2.4-4.8 2.4-5 2.4-41.8v-37l-6.3-.3c-3.8-.2-6.9.2-7.8.9-1.1.9-1.4 6.7-1.4 32.3 0 17.1-.5 32.9-1 35s-2.2 5.3-3.9 6.9c-2.4 2.5-4 3.1-8.7 3.5-6.8.6-11-1.3-14-6.1-1.8-3-1.9-5.4-1.9-37.1 0-33-.1-33.9-2-34.7a41 41 0 0 0-14.8-.2m75.8 1.6c-.4 1.3-.5 4.8-.3 7.8l.3 5.4 6.7.6a22 22 0 0 1 8.2 1.8c1.4 1.2 1.6 5.8 1.6 36.5 0 19.3.3 36.1.6 37.3.6 2.1 1.3 2.3 6.6 2.3 10.6 0 9.8 3.3 9.8-38.5v-36.4l2.2-1.5c1.4-1 4.4-1.6 7.9-1.6 6.6 0 6.9-.4 6.9-9 0-4.4-.4-5.9-1.6-6.4a309 309 0 0 0-25-.6H1907zm64.7-1.1c-1.4 1.4-1.7 89.4-.3 91.6.5.9 2.9 1.2 8.2 1l7.4-.3.3-45.9c.2-36.1 0-46.1-1-46.8-2-1.2-13.3-.9-14.6.4m-393.5 138.9a40 40 0 0 0-15.4 8 25 25 0 0 0-8.4 10.6c-3 6.2-3.3 7.7-3.3 15.8 0 8.3.2 9.5 3.4 15.3 4.4 8.3 12 15.2 19.2 17.5a35 35 0 0 0 43-18.9c1.8-3.9 2.3-6.7 2.3-13.5 0-7.8-.3-9.1-3.7-16.1-3-6-4.9-8.4-9.3-11.7q-13.7-10.4-27.8-7m17.4 12c7.4 3.7 12.2 12.7 12.2 22.9a23 23 0 0 1-25.8 23.6c-13.5-1.6-23.1-17-19.1-30.8a33 33 0 0 1 12-16c5.8-3.1 14.2-3 20.7.3m-549.5-8.9c-1.2 2-8.5 20.8-13.3 34.3l-5.9 15.2a96 96 0 0 0-4.4 12.7c0 1.3 1.1 1.6 5.4 1.6h5.5l1.5-5.3c2.4-8.3 3.2-8.7 17.3-8.7 6.7 0 12.8.3 13.7.6s2.3 2.9 3.2 5.7c2.2 7 3.9 8.7 8.4 8.7 6.2 0 6.3-1.2.8-15.5l-10.4-27.5-7.2-19-1.8-4.5-5.6-.3c-5-.3-5.9 0-7.2 2m12.2 26.4c4.6 12.7 4.5 12.9-5.3 12.9-7.9 0-8 0-8.3-2.6-.2-1.5 1.1-5.7 2.7-9.4s3.1-7.4 3.1-8.1c0-1.3 1.9-2.4 3.5-2a32 32 0 0 1 4.3 9.2m39.5-27.9c-2 .7-1.8 63.6.1 65.2 1 .8 5.1.9 14.7.4l13.4-.8.3-3.3c.5-5.2-1-6.2-9.2-6.2-4.3 0-7.7-.5-8.4-1.2-.9-.9-1.2-8.1-1.2-26.4 0-21.6-.2-25.5-1.6-26.8-1.5-1.5-5.5-2-8.1-.9m34.4-.1c-.4.4-.7 2.6-.7 5 0 4.6.9 5.4 6.5 5.4 1.8 0 3.8.6 4.4 1.3q1.1 1.5 1.3 27.3l.3 25.9h10l.7-19.7 1-27 .3-7.3 5.3-.8 5.3-.9-.3-4.6-.3-4.7-16.6-.3c-9.1-.1-16.8.1-17.2.4m46.5.6a499 499 0 0 0-.4 63.6c.7.9 4.8 1.2 17.3 1l16.4-.3v-9l-10.8-.5c-8.1-.4-11-.9-11.8-2-1.5-2.3-.7-15.9 1.1-17 .8-.5 6.1-1 11.8-1h10.2v-9.7l-11.2-.9-11.3-.9-.3-5.3c-.4-7.6.4-8.2 10.8-8.2 11.5 0 12-.2 12-5.5q0-4.4-1.6-4.9c-3.1-1.2-30.9-.7-32.2.6m50-.4c-.9.6-1.2 7.9-1 32.8l.3 31.9 4.1.5c2.3.3 4.6.4 5.3.2q1-.3 1.1-12c0-18 1.9-18.6 10.1-3.5s8.2 15.3 13.8 15.3c2.6 0 5-.3 5.3-.6.4-.3-1.1-3.7-3.3-7.4l-3.9-7.4c0-.3-1.3-2.7-3-5.3-3.6-5.6-3.7-7.7-.9-10.1 8.5-6.9 10.9-12.3 9.1-20.2-2.5-11-7.8-14.1-24.7-14.7-6-.2-11.6 0-12.3.5m24.2 12.3a6 6 0 0 1 2.6 5.4c0 4.7-3.7 7.5-9.9 7.5-2.6 0-5.2-.5-5.9-1.2s-1.2-3.5-1.2-6.3.5-5.6 1.2-6.3c2-2 10.2-1.5 13.2.9m29.5-10.4c-1.3 3.4-.4 61.2.9 62.5.5.5 2.7.8 4.8.6l3.9-.3.5-20c.4-17.9.7-20 2.2-20.3 1.3-.2 3.3 2 7 7.9l13.3 20.3c7.7 11.6 8.3 12.1 12.4 13 7.2 1.5 7.1 1.8 7.1-33 0-26.2-.2-30.5-1.6-31.8q-2.5-2.7-7.9-.6l-2.7 1 .4 19c.3 20.8-.2 23.3-4.2 18.3-1.2-1.5-6.9-10-12.6-18.8-11.9-18.2-14-20.5-19-20.5-2.8 0-3.6.5-4.5 2.7m90-1c-1.7 2-4 7.3-9.5 21.3-5.1 13.1-15.4 41.3-15.4 42.2 0 .5 2.2.8 5 .8h5l3.2-6.8 3.3-6.7 13.4-.3c8.2-.2 13.8.1 14.6.8a26 26 0 0 1 3.4 7l2.2 6h5.5c2.9 0 5.4-.4 5.4-.9s-2.7-8.1-6.1-16.8l-8.9-23.3c-9.3-24.6-9.6-25-15.4-25q-4.4 0-5.7 1.7m11.3 26.7c1.6 4.4 2.8 9.1 2.6 10.5-.3 2.5-.6 2.6-8.1 2.9-9.2.3-10-.5-7.4-7.8 3.9-10.8 5.8-14.1 8-13.8 1.6.2 2.7 2.1 4.9 8.2m32.5-27.7c-.4.3-.7 2.6-.7 5v4.3h3.8c7.6 0 7.7.3 7.8 23.2l.2 26.5.2 6.3h4.9c4.2 0 4.9-.3 5.5-2.3.3-1.2.6-13 .6-26.3 0-25.9.1-26.4 5.3-26.4q6.8 0 6.7-5.3c0-1.8-.5-3.8-1.2-4.5a141 141 0 0 0-33.1-.5m45.5.1c-.9.7-1.2 7.9-1 32.7l.3 31.8 2.8 1a7 7 0 0 0 5.3-.2l2.4-1.1v-31.4c0-30.1-.1-31.6-1.9-32.6-2.3-1.2-6.1-1.3-7.9-.2m23 0c-.9.6-.1 3.9 3.4 13.8l6.4 18.4c7.6 22 11.9 32.4 13.6 33.1 1.1.3 3.7.4 5.9 0 4.4-.7 3.7.6 11.7-21.6l8.4-23.5c5.8-15.9 6.6-19 5.1-19.6-.7-.2-2.9-.5-5.1-.7l-3.8-.2-3.5 9c-1.9 4.9-5.3 14.1-7.4 20.4-4.7 13.4-5.5 15.1-7.5 15.1-1.7 0-1.2 1.1-9.9-23.5a284 284 0 0 0-7.7-20.3c-1.2-1.3-7.6-1.6-9.6-.4m176.5-.2c-.4.4-.7 15.1-.7 32.6v31.8l2.6 1c1.4.6 3.6.7 4.9.4 2.9-.7 3.6-4.5 3.2-18-.3-12.2-.1-12.4 11.9-12.4 13.3 0 13.4.2 13.4 16.9v12.9l3.2.4c7.3 1.1 6.9 3.3 6.6-33.1l-.3-32.6h-9l-.5 11.3c-.6 14-.8 14.2-13 14.2s-12.4-.2-12.8-13.9c-.4-10.6-.5-11.1-2.6-11.1-1.1 0-3-.3-4.1-.6s-2.4-.2-2.8.2m63 0c-.4.4-.7 11.4-.7 24.5 0 21.4.2 24.4 2 29.2q3.3 9 11.2 12.1c4.7 2 13.5 2.1 17.9.2 4.7-2 10.7-8.3 12-12.5.6-2.2.9-13.4.7-28.6l-.3-25-4.3-.3q-4.2-.3-4.7 1c-.2.7-.6 12-.9 25.1-.5 26.4-.7 27.6-7.2 30.3a10 10 0 0 1-7.4.4c-7.2-1.9-7.4-3-8-31.5l-.5-25-4.5-.3c-2.5-.2-4.9 0-5.3.4m61 .1c-.4.3-.7 15.1-.7 32.9 0 35.8-.4 33.7 6.8 32.6l3.2-.4V2593h-4.3c-2.4 0-4.7.3-5 .7m19.7 1.7c-1.3 5.4-.3 7 5.1 8 2.8.6 5.3 1.5 5.7 2s.8 11.9.8 25.1.3 25 .6 26.2c.6 2 1.3 2.3 5.5 2.3h4.9v-25.8c0-19.3.3-26.3 1.3-27.6.7-1 3.3-2 6.2-2.4l5-.7v-9l-17.2-.3-17.3-.2zm43.3-1.7c-.4.3-.7 2.6-.7 5v4.3h8.6c8.6 0 12.4 1 12.4 3.3 0 .7-3 7.9-6.6 16.2s-7.1 16.6-7.9 18.6a128 128 0 0 1-4.4 9.7 45 45 0 0 0-3.1 7.1c0 1.5 14.4 2.3 26.6 1.6l11.5-.7-.3-4.7-.3-4.6-9.7-.3q-9.6-.3-10.7-1.6c-.8-1-.2-3.4 2.5-9.7 2-4.6 4-8.9 4.4-9.4 2.1-2.9 15-33.7 14.5-34.5-.7-1.1-35.7-1.4-36.8-.3m50.4.2c-1.2.7-1.4 6.4-1.3 32.2.1 17.2.6 31.7 1 32.1s2.9.8 5.3.6l4.4-.3.3-31.4c.2-22.3-.1-31.8-.9-32.7-1.3-1.6-6.7-1.8-8.8-.5m27.1-.1c-.9.7-1.2 7.9-1 32.8l.3 31.9 14.3.3 14.3.3-.3-4.8-.3-4.8-7.2-.3c-5.1-.2-7.5-.7-8.5-1.9s-1.4-8-1.8-27.7l-.5-26.1-4-.3c-2.2-.1-4.6.2-5.3.6m41.5-.1c-.4.3-.7 15.1-.7 32.8v32.2l4.1.7c4.9.8 24.8-.4 25.5-1.5.2-.4.2-2.6-.2-4.8l-.7-4.1h-7.8c-6.7 0-8-.3-8.9-1.9-.6-1.2-1-11.6-1-26.8 0-18-.3-25.2-1.2-26.1-1.3-1.3-8-1.7-9.1-.5m40.5.5c-1.3 1.3-1.5 32.7-.3 53.2l.6 11 3 .8c6.8 1.8 6.5 3.1 6.5-32.1 0-23.3-.3-32-1.2-32.9-.7-.7-2.6-1.2-4.3-1.2s-3.6.5-4.3 1.2"/><path d="M1062.7 325.2a83 83 0 0 0-5.5 7.8c-1 1.9-5.4 9.3-9.7 16.5s-9.1 15.5-10.7 18.5l-10.5 20a523 523 0 0 0-26.8 59.5l-6.7 17a459 459 0 0 0-16.4 50A529 529 0 0 0 958.9 671a410 410 0 0 0 33 143l9.5 22.3a1388 1388 0 0 0 34.8 70.7c5.3 9.7 14.3 25.2 21.5 37l11.4 19c5.7 9.8 30.3 46.4 45.2 67.5l8.9 12.8c3.6 5.3 19.3 26.4 35.1 47.2l20.3 27a651 651 0 0 0 31.4 39.5c4.4 5.2 15.1 18.5 23.8 29.5 8.6 11 21.6 26.8 28.7 35.1 15.3 17.8 20.4 24 32.6 39.4l12.3 15.1 8.1 9.8a1061 1061 0 0 0 18.5 22.6 375 375 0 0 1 15.5 20l28.1 37.6a984 984 0 0 1 31.9 44.9c32.4 49.7 46.7 69.8 65 91.5 2.3 2.7 5.6 7.2 7.4 10 1.7 2.7 3.1 4.6 3.1 4.1 0-2.3-9.2-30.9-15.9-49.3q-12.8-35.1-16.5-46.8c-3.5-11.3-11.8-35.2-16.1-47-8.1-21.8-10.9-29.6-16.2-44.5-5.6-15.9-8.1-23.1-22.1-64-12.8-37.6-25.4-73-41.7-117.5-2.6-7.2-5.7-16.4-7-20.6-2.5-8.3-10.2-30.8-18.5-53.9-2.8-8-6.7-18.8-8.4-24-6.4-18.5-18.2-51.7-26.1-73.5-2.6-7.2-6.4-18.6-8.5-25.5s-6.1-18.8-8.9-26.5c-7.2-19.3-16.9-46.5-25.9-72.5a2656.4 2656.4 0 0 1-27.2-78.5c-1.6-5-5-14.9-7.6-22l-9-25-9.4-26c-2.8-7.7-9.3-26.8-14.6-42.5s-11.8-34.4-14.4-41.5c-2.7-7.2-8-22.2-11.9-33.5-3.8-11.3-9.3-26.8-12.1-34.5-6.4-17.5-11.2-31.3-19.9-57.5-3.8-11.3-9.9-28.8-13.6-39l-15-42.5c-4.5-13.2-10.2-29.2-12.5-35.5-4.3-11.8-11.3-32.1-15.5-44.5-1.2-3.8-2.7-7.1-3.3-7.3-.5-.1-2.6 1.6-4.5 4M1469 847a867 867 0 0 0-101 15l-12.5 3-18 4.7-18 4.9c-14.7 4-15.5 4.3-15.5 6.6 0 1.1 2 8.2 4.4 15.7 4.5 13.8 9.8 30.9 13.3 43.6 1.1 3.8 2.7 7.3 3.5 7.8 1 .7 8.9-1.5 25.9-7.1 26.2-8.7 30.1-9.8 45.4-13.2l16-3.6a854 854 0 0 1 47-8.9 523.6 523.6 0 0 1 93.5-5.9c45.7.1 58.3 1.1 102 8 44.2 7 98.2 21.6 129 34.9a667 667 0 0 1 120 61.8c46.4 30.9 73 53.3 114.4 96.2 27.2 28.3 42 46.7 66.9 83.5a341 341 0 0 1 24.5 39l9.9 18.8 13.9 27.3c9.4 18.8 9.5 19 14 21 7.5 3.1 7.5 3 .6-15.1-9.5-25-14.5-36.4-30.2-68.5a411 411 0 0 0-32.5-57l-9.9-15.5c-3-5-8.4-12.7-19.8-28.1a504 504 0 0 0-45.1-53.7 643 643 0 0 0-124.2-105.3c-26.9-18-68.7-41-94-51.7l-21.7-9.1a669 669 0 0 0-194.3-47.7c-18.1-1.9-91.4-2.8-107.5-1.4m-617.4 79.2c-.3 1.3-1.1 13.3-1.7 26.8-1.2 26-.7 57.3 1.2 71.7 6.5 51.3 10.4 69.4 20.9 97.8a351 351 0 0 0 24.9 53.6c4.4 8.1 18.9 29.3 25.3 36.9a502 502 0 0 0 76.8 69.9 1154 1154 0 0 0 63.5 41.6c3.9 2.3 13.8 8 22 12.5l23 12.8a2395 2395 0 0 0 171.5 80.3c47.3 20.1 121.6 57.2 150 74.9 8.6 5.4 58.6 31 60.5 31s-.5-3.7-7.5-12c-4.4-5.2-12.6-15.4-18.2-22.5-19-24.2-23-29-38.8-46a774 774 0 0 1-23.9-26.8 752 752 0 0 0-24.8-28c-14.7-15.8-25.8-28-63.3-69.2a3316 3316 0 0 0-174-173.6 888 888 0 0 0-28-24.8l-15-13.5a1684 1684 0 0 0-66.9-58l-32.1-26.4c-37.3-31-39.1-32.5-47-38.8-6.2-5-27.4-21.3-44-33.9L888.8 949a280 280 0 0 0-35.3-25q-1.2.2-1.9 2.2m937.9 232.5c-26.7 3-80.6 20.3-111.5 35.8-14 7-32.4 18.5-44.5 27.9a588 588 0 0 0-59.3 54.6 3430 3430 0 0 1-75.3 79.5 524 524 0 0 0-28.5 31c-4.4 4.9-8.8 10.1-9.7 11.5-3.2 4.6-3.4 3.7 13.8 58.5a2809 2809 0 0 1 24.9 85.5c.9 3 1.6 7 1.6 8.8 0 2.8-.5 3.4-3.7 4.8l-13.8 6.5c-5.5 2.7-10.3 4.9-10.6 4.9s-5.5 2.7-11.5 6.1-16.3 8.5-22.9 11.6c-21.2 9.7-36.8 18-55.5 29.6a391 391 0 0 0-31 20.3 298 298 0 0 1-65.5 35.4l-10.5 3.5c-1.9.8-4.7 1.6-6.2 1.9-3.3.7-7.6 6.5-15.7 21.1a1175 1175 0 0 0-27.4 54.5l-8.4 18a1036 1036 0 0 0-27.8 66c-5.8 14.2-25.7 76.2-28.6 89l-5.4 23.5-4.6 20c-1 4.9-2.4 10-2.9 11.2-1.7 3.9-3.9 24.2-5.5 49.1-1.9 30.3-1.9 38 0 61.7 2.6 33.1 5.4 50.2 14.1 86.5 2 8 4.2 17.6 5 21.5s3.3 12.6 5.5 19.5c6.6 20.4 11.5 35.6 16.4 51.5 6.5 20.6 9 27.9 14.7 43l9.4 25.5 6.4 17.5 2.5 7.2c.3 1.3 1.1 2.3 1.6 2.3 1.1 0 .6-2.6-2.6-13.5a680.6 680.6 0 0 1-16.5-74c-4.7-31-7.1-73.5-5.1-89 2.4-18.4 8.1-51.2 10.2-58.5a389 389 0 0 1 26.6-70.8c11.4-22.3 22.4-36.4 49.2-63.3 11.3-11.3 24-23 28.1-26.1a488 488 0 0 1 26.3-18.4l11-6.7c10-6.1 32.3-16.5 45.2-21.2a262 262 0 0 1 68.7-13.5c7.6 0 7.9.1 8.9 2.7 1.6 4.2.2 15.1-2.6 19.8a76 76 0 0 1-8.6 10.3 146 146 0 0 1-21.9 18.2q-.8.1-1.4 1.6c-.5 1.4 0 1.5 4.1.9 6.2-.9 42.9-9.9 51.3-12.6 31.9-10.1 70.9-26.7 88.3-37.6l7-4.2a294 294 0 0 0 91.7-85.1l10.6-14.5a619 619 0 0 0 51.4-84c1.1-1.4 21.5-42.1 28.5-57 7.7-16.2 9-19.1 11.3-25.5 2.1-5.6 11.2-28 13.6-33.5.8-1.7 1.9-4.8 2.6-7s2.4-6.7 3.8-10c3.4-8.2 7.6-19.9 19.7-55 12.6-36.7 13.2-38.4 20.2-50.9 14-25.4 40.5-58 62.3-76.7a265 265 0 0 1 57.6-35.5 399 399 0 0 1 72.9-16.3 624 624 0 0 1 97.5-4.2c43.9 2.7 72 5.3 91 8.2 35.7 5.5 48 7.1 49.5 6.5 1.3-.5 1.5-1.3 1-3.4-.9-3.8-2.4-5.2-7.1-7.4-7.8-3.4-54.8-13.5-89.9-19.3a528 528 0 0 1-115.6-35.3 244 244 0 0 0-20-8.6 321 321 0 0 1-46.5-24.4 197 197 0 0 1-33.5-30.7 286 286 0 0 0-46.1-40.3 222 222 0 0 0-84.8-38.7c-7.7-1.6-30.3-2.7-37.5-1.8m72.3 59.3a43 43 0 0 1 27.5 21.7 45 45 0 0 1-.1 37.6 54 54 0 0 1-19.8 18.3 40 40 0 0 1-43.6-6.7 44 44 0 0 1-12.9-22.7 43 43 0 0 1 12.1-37.3 37 37 0 0 1 17.7-10.8 51 51 0 0 1 19.1-.1m-1113.5 49.6c-1.3 3.5 14.5 48.5 21.7 61.6l9.3 18a324 324 0 0 0 61.2 86.4 236 236 0 0 0 43 35.9 210 210 0 0 0 39 21.6 591 591 0 0 0 44.5 16l12 3.4a569 569 0 0 0 82 16.5c39.8 5 65.6 7.6 89 9l33 2c8.5.5 26.8 1.2 40.5 1.5 30.6.8 35.1 1.7 32.5 6.4-1.6 3.1-6.8 4-30 5.1a494 494 0 0 0-38.5 3 2112 2112 0 0 0-88 11c-32.7 5.7-56.2 10.6-57 12-1.2 1.9 30.3 34.8 45 47a486 486 0 0 0 46.1 33.8 217 217 0 0 0 55.8 22.1c7.6 1.4 27.4 1.4 39 .1 10.7-1.3 32.1-7.2 46.6-13a562 562 0 0 0 82.4-43.9 530 530 0 0 1 76.6-42.6c10.5-4.3 29-14.3 29-15.6q0-.7-.9-1.4c-1.3-.8-20.7-3.1-46.6-5.5-46.1-4.3-52.8-5.4-55.1-9.1q-.4-1 .7-2c2.4-1.5 20.7-1 36.4 1 35.7 4.6 83.7 8.8 86.5 7.5 2.4-1.1 3.9-.2-31-19.3-21-11.6-60.6-31.7-75.5-38.4-5.5-2.5-19-8.9-30-14.4s-24.5-11.8-30-14.2-15.4-7-22-10.1c-12.5-6-20.2-9.5-54.5-25l-26.8-12.1a69 69 0 0 0-6.9-2.9 2337 2337 0 0 0-66.8-27.5l-12-4.9-8.5-3.4-12.5-4.8-17.5-6.4-26.5-9.7A1731 1731 0 0 0 983 1334l-12.5-4.3-42-13.2c-3.8-1.3-12.2-3.8-18.5-5.5s-20.5-6-31.5-9.5c-30.4-9.6-91.2-26.3-119.8-32.9-7.7-1.8-10-2-10.4-1m94.2 201.1c-1.4 3.3-1.8 78.6-.5 93.7 3.3 39.4 6.3 64.2 9.4 80l4.6 23.6c1.8 10.7 8.7 36.9 13.1 50.1l6 18.4a521 521 0 0 0 24.9 63c4.8 10.5 9 20 9.4 21.1 2 6.3 16.9 32.7 32.7 57.9a547 547 0 0 0 52.3 73.5c19.4 23.1 57.7 63.2 59.1 61.8.3-.3-.1-4.6-.9-9.4a406 406 0 0 1-4.6-42.3c0-3.3-.4-7-.9-8.3s-5.3-8.2-10.7-15.3a602 602 0 0 1-35.1-53 481 481 0 0 1-38.9-75.5c-8.1-20-9.1-22.3-12.2-29.5s-10.3-29-14.1-42.5l-6.1-21a362 362 0 0 1-9.5-39.5l-3-17c-6.9-37.9-8.7-60-8.9-109l-.2-40-7.9-5.3-14.5-9.3c-3.6-2.2-8.3-5.3-10.5-6.9l-12-8.5-13-9c-5.6-4-7-4.2-8-1.8m1295.6 35.8-13.9 7.5c-.2 0-5 2.7-10.6 6-5.7 3.3-10.6 6-10.9 6-1.3 0-12.3 7.4-19 12.8a57 57 0 0 0-17.6 22.7 69 69 0 0 0-3 30.1 61 61 0 0 0 23.9 43.8c3.3 2.6 6 5.4 6 6.2s-2.6 2.7-5.7 4.3c-3.2 1.6-8.6 5-12 7.5l-6.3 4.6v5.7a80 80 0 0 1-.6 9.5c-.6 3.4-.4 3.8 1.5 3.8 2.5 0 16.3-7.1 26.5-13.7a55 55 0 0 1 23.9-10.3c2.3 0 8.3.8 13.2 1.9 5 1.1 13 2.4 17.9 3.1 4.9.6 13.4 2 18.9 3.1a37 37 0 0 0 10.8 1.2c.4-.4.9-7 1.1-14.5.2-11.2 0-14-1.2-15.2-1.5-1.5-3.2-1.7-42-5.1-25.6-2.3-35.1-5.1-47.1-13.8-5.3-3.8-8-6.7-10.3-10.7-2.9-5.1-3.1-6.2-3.1-15.5 0-8.9.3-10.6 2.6-15 5.1-9.6 11.6-14.3 31.4-22.8a745 745 0 0 0 25.7-11.6 55 55 0 0 1 14.1-5.5c2.9 1.1 4.8 7.8 8.8 30.4 3.6 20.5 5.2 26.4 7.2 26.8.9.2 3.8-.4 6.3-1.4l4.5-1.7-.6-5.1c-.4-2.8-1.7-10.7-3-17.6l-4-22c-2.2-12.4-9.3-40-10.7-41.7-.6-.7-2.9-1.3-5.2-1.3-3.2 0-7 1.6-17.5 7.5m29.9 200.6a141 141 0 0 1-25.8 10.1c-7 2-9.7 2.2-28.5 1.9-28.3-.3-35.7 1.4-44.7 10.2-8.8 8.7-14.2 20.7-18.5 41.2-2.1 10.2-1.3 11.7 5.8 11.3 5.9-.3 6.6-1.3 9.2-11.3 3-11.5 8.7-20 15.7-23.6q6.6-3.5 33.2-.5c9.5 1.1 12.2 1.8 13.3 3.2s1.3 4.5.8 14.4c-.7 13.7.6 22.4 4.8 32.9 2.9 7 13.4 23.1 15.1 23.1.8 0 3.1-3.9 5.2-8.8 5.4-12.2 5.2-15.6-1.4-29.7a105 105 0 0 1-9.2-29.1c0-6.2 3.5-9.2 15.5-13.8 8.7-3.2 12.9-5.8 15-9 1.4-2.1 5.3-20.5 5.5-25.4 0-1.9-1.9-1.4-11 2.9m-131.2 106.6c-.8 1-6.3 11.2-12.1 22.8a413 413 0 0 1-49.2 78 40 40 0 0 0-6.5 9.7c0 2 4.3 5.6 7.9 6.5 2.1.5 3.2-.2 7-4.4 5.8-6.2 28.7-38.4 33.5-46.9l4.2-7.4c2.9-5.3 6.3-9 8-9 .7 0 6.2 2.3 12.1 5.1a1383 1383 0 0 0 55.8 24.9c6.2 2.9 14.7 6 16.3 6 1.2 0 3.5-3.4 8-11.9 3.4-6.5 6.2-12.4 6.2-13 0-1.5-12.2-6.3-61-24-19.9-7.3-24.2-9.5-24.8-12.6a29 29 0 0 1 2.7-8.9c4.1-9.4 4.4-12.6 1.1-14.2-4.9-2.4-7.5-2.6-9.2-.7m-100.5 144.6c-4 4.1-7.3 7.9-7.3 8.5s5 6.7 11.1 13.4c6.2 6.8 12.6 14 14.2 16.1 3.7 4.5 8.5 7.7 11.8 7.7 1.7 0 4.6-2.3 9.6-7.5 8.9-9.2 9.3-11.2 3.1-17.2a327 327 0 0 0-33.5-28.3 37 37 0 0 0-9 7.3m-46.4 40.3c-.8.9-4.4 3.7-8.2 6.2a36 36 0 0 0-7.4 5.8 48 48 0 0 0 3.5 12.1c9 24.5 8.8 23.6 6.9 29.5-2.4 7.4-5.8 13.1-8.8 14.5-2.2 1.1-4.6.8-16.2-2.2a525 525 0 0 1-31.5-9.4c-9.9-3.4-19.4-6.1-21.2-6.1-3.6 0-12.3 4-15.8 7.3-3.6 3.4-2.7 7.7 2.1 10.1 2.2 1 5.9 1.9 8.4 2 3.3.1 4.8.7 6.1 2.3.9 1.2 4.3 3.4 7.5 4.8 6.9 3.2 6.9 3-1 15.7-7.7 12.5-9.2 16.4-10.2 26.9a627 627 0 0 0-2.9 49.5c1 .9 15.9-4.2 27.6-9.6 6.9-3.2 7.2-5.7 3.6-32.3-2.3-17.3-2-21.3 2.2-29.6 2-3.9 4.7-7.9 6-8.7 2.9-1.9 3.6-1.8 27.7 4.1 12.6 3.1 22.7 4.9 34.8 6.2 16.3 1.6 17.5 1.6 25.8 0 4.7-1 10.9-2.9 13.6-4.2 4.9-2.4 20.1-14.3 19.2-15.1-.2-.2-12-1.3-26.3-2.5-27.5-2.2-35.1-3.4-36.7-6-.8-1.3-.1-3.6 2.7-9.5 5.9-12.2 7.6-18 7.6-25.3 0-8-1.5-13-6.9-23.9-6.7-13.8-9.2-16.2-12.2-12.6m-235.9 48c-.8.2-4.4.6-8 .9a32 32 0 0 0-7.8 1.4c-.9.5-1.8 7.4-2.8 22.2-.8 11.8-1.7 24.2-2.1 27.5q-.4 6.2.6 6.8c2 1.3 28.2-1.5 52.1-5.5 27-4.6 33.8-4.8 35.7-.9a48 48 0 0 1-.6 24.3c-2.7 7.7-6.5 12.9-17.4 23.9a140 140 0 0 0-12.8 14.8 59 59 0 0 0-8.6 28.2l-.6 8.8h2.5c2.3 0 25.3-4.4 28.9-5.5 1.3-.4 1.7-2.6 2.2-9.8.8-11 2.3-16.2 7.3-25.3 4.9-9 8.4-14.1 14.3-20.9 6-6.9 11.6-17.5 12.5-23.6.4-2.6.2-7.3-.3-10.5a169 169 0 0 0-6-28.7 65 65 0 0 0-24.2 5.5c-.5.7-.9 3-.9 5.1 0 3.1-.3 3.8-1.7 3.5-1-.2-2.4-1.8-3.2-3.6-1.7-3.7-2.1-3.7-12.7-1.7a354 354 0 0 1-34.5 5.5c-6.5 0-6.9-1.2-6.9-22.3 0-16.7-.2-18.7-1.7-19.5-1-.5-2.5-.7-3.3-.6m-395.9 83.1a48 48 0 0 0-2.8 14.8c1 2.6 34.2 14.6 73.2 26.5a685 685 0 0 0 45 11.5l26 4.9a774 774 0 0 0 118.4 10.2c13.3-.6 16.2-.9 15-2-.2-.2-11.2-.9-24.4-1.5a573 573 0 0 1-135.5-23.2 506 506 0 0 1-61-20.9l-14-5.9-23-10c-7.4-3.3-14-6.1-14.7-6.1q-1.2.2-2.2 1.7m607.6 294.5a118 118 0 0 0-10.7 19.8c0 .5 2.1 1 4.8 1l4.7-.1 9.3-10.5c5.1-5.7 9.5-11.1 9.9-11.9.4-1.2-.9-1.5-7.5-1.5-8 0-8.1.1-10.5 3.2m-995.2 29.7a49 49 0 0 0-33.1 29.7 38 38 0 0 0-2.7 17.4c0 8.9.4 11.5 2.7 17.4a53 53 0 0 0 14.1 20.7 56 56 0 0 0 40.6 10c8.2-1.3 21-7.2 27.3-12.6l4-3.3-2.9-4.2a30 30 0 0 0-5.6-6l-2.7-2-4.8 3.9a34 34 0 0 1-17.2 8.2 34 34 0 0 1-35.8-16.3c-2.7-4.9-2.9-6-2.9-15.8 0-9.6.2-10.9 2.7-15.1a39 39 0 0 1 15.7-14.3c3.7-1.7 6.5-2.1 14.1-2.1 8.7 0 10 .3 16.1 3.3a35 35 0 0 1 8.4 5.3c1 1 2.7 1.9 3.7 1.9 2.1 0 10.8-7.6 10.8-9.5 0-2.1-8.2-8.7-15.2-12.3a51 51 0 0 0-37.3-4.3m402.5-.5a57 57 0 0 0-31.4 24.4 55 55 0 0 0-5.6 22.6 48.5 48.5 0 0 0 55.7 48.8 47 47 0 0 0 33.3-20.7 50 50 0 0 0-5.2-61 49 49 0 0 0-46.8-14.1m25.3 19a34 34 0 0 1 15.5 15.1c5.2 10 3 25.5-5.1 35.1a31 31 0 0 1-28.9 10.4c-8-1.5-13-4.1-18.4-9.6-6.4-6.6-8.7-13.7-8.1-24.4.5-9.8 2.4-14.4 8.4-20.6 4.1-4.2 9.6-7.3 15.3-8.5 5.5-1.2 15.6 0 21.3 2.5m742.8-18.8a51 51 0 0 0-37.1 40.2 46 46 0 0 0 5.7 30.3 39 39 0 0 0 20.8 20.5c18.9 9 42.1 5.8 57.9-8l5-4.3-4.8-5.1a21 21 0 0 0-6.1-5.2c-.7 0-3.4 1.6-6 3.6a36 36 0 0 1-48-2.3c-5.4-5.6-7.5-11.8-7.5-22.3 0-11.6 1.6-15.5 8.7-22.2a30 30 0 0 1 21.2-9.5q13.3-1 25.6 7.3c2.9 1.9 5.5 3.4 6 3.4 1.4 0 10.5-8.2 10.5-9.5 0-1.9-7.3-7.6-15-11.9a52 52 0 0 0-36.9-5m107.4-1.1-6.5 2a49.3 49.3 0 0 0-6.3 90.8c6.6 3.1 7.1 3.2 20.8 3.2 13.9 0 14 0 21-3.4a48 48 0 0 0 27.7-43.2 49.6 49.6 0 0 0-56.7-49.4m22.1 19.8a32 32 0 0 1 17.4 27.8q0 12.7-6.4 21.1a31.7 31.7 0 0 1-56.1-26.6 30 30 0 0 1 23-24.7 40 40 0 0 1 22.1 2.4m-1227.9-17.7c-.4.4-.7 21.3-.7 46.5v45.9l2.3.5c1.2.3 12.3.4 24.7.3l22.5-.3.3-7.8.3-7.7h-15.3a101 101 0 0 1-16.4-.8 6 6 0 0 1-1.8-3 71 71 0 0 1 1.5-21.3c.6-1.1 4.3-1.4 16.1-1.4h15.3l.3-7.4c.2-5.3-.1-7.7-1-8.2-.7-.5-7.7-.9-15.4-.9-10.2 0-14.4-.4-15.2-1.3-1.7-2-2.5-10.9-1.3-13.9l1-2.7 15.8-.3 15.8-.3v-16l-24.1-.3c-13.2-.1-24.3.1-24.7.4m68.8.6c-.3.7-.4 21.8-.3 46.8l.3 45.5h15l.6-10.5c.4-5.8.7-18.7.8-28.8.1-17.3.2-18.2 2-18.2s4.8 3.3 6.4 7l4.4 7.3 15.2 23.3c6.2 9.6 12.4 18.2 13.6 19q2.3 1.5 8.7 1.2l6.3-.3.6-13.5c1.2-25.6 1-77.5-.3-78.8-1.2-1.2-11.4-1.7-14.2-.6-1.4.5-1.6 4.1-1.6 29.5 0 27.7-.1 28.9-1.9 28.9q-2-.1-5.2-5.3l-16-24.7-15.6-24-2.8-4.5-7.8-.3c-5.6-.2-7.9.1-8.2 1m88.2-.6c-.4.4-.7 4-.7 8 0 8.2.2 8.4 8.5 8.4 9 0 8.5-2.1 8.5 39.6v36.4l2.3.5c1.3.4 4.8.5 7.8.3l5.4-.3.5-37.3c.6-43.1-.1-40.6 9.9-39.5 7.4.7 8.3-.3 7.9-9.4l-.3-6.8-24.6-.3c-13.5-.1-24.8.1-25.2.4m66.6.1c-1.8 1.3-2.5 31.2-1.6 64.8l.8 28h16l.5-18.9c.7-24.9 1.3-25.2 11.3-4.6 3.7 7.4 8.1 15.7 9.9 18.5l3.3 5 7.4.3c4.1.2 7.8-.1 8.3-.6s-3-8.5-8.6-19.6a197 197 0 0 1-9.6-20.1c0-.8 1.2-2.2 2.6-3.2 10.6-7.4 13.7-12.5 13.8-22.8.1-12.3-6.7-22.4-17.3-25.6-4.5-1.3-35.2-2.3-36.8-1.2m34.8 20c1.1 1 2.2 3.6 2.6 5.6.5 3.1.1 4-2.4 6.6-2.4 2.4-4.1 3-9.6 3.6-9 1-9.7.3-9.7-9.4 0-7.9.5-9.5 3-10.3 2.7-.9 14.1 1.9 16.1 3.9m180.1-19.5c-.7.7-1.2 3.9-1.2 7.5 0 5.9.2 6.4 2.6 7.3 1.4.6 4.5 1 6.8 1q4.2 0 5.6 1.5c1 1.2 1.4 10.9 1.9 38.3l.6 36.7h15l.5-37.2c.4-28.2.8-37.5 1.8-38.5.7-.7 3.9-1.3 8-1.3h6.7l.8-5.5q.8-5.4-.2-8.3l-1.1-2.7h-23.3c-16.8 0-23.6.3-24.5 1.2m64.3 0c-.3.7-.4 21.8-.3 46.8l.3 45.5h49l.3-7.8.3-7.7h-15.3a91 91 0 0 1-16.7-.9c-2-1.3-1.6-23.2.5-24.7q1.3-1.2 13.8-.7a95 95 0 0 0 15-.1c2.7-.7 2.7-.8 2.4-8.4l-.3-7.7-14.9-.3c-9-.1-15.5-.7-16.3-1.4q-1.2-1.1-1.3-7.8 0-6.7 1.3-7.8c.8-.7 7.3-1.3 16.3-1.4l14.9-.3.3-8.3.3-8.2h-24.6c-18.7 0-24.7.3-25 1.2m70.3-.6c-.5.4-.8 21-.8 45.9 0 33.7.3 45.4 1.2 46.3.7.7 4 1.2 8 1.2h6.8l.2-10.3c.3-18.2.6-25.7 1.2-27.2 1.4-3.8 3.8-.7 11.5 14.7 12.2 24.6 10.6 22.8 20 22.8 4.4 0 8.3-.4 8.6-1s-3.7-9.2-9-19.3a154 154 0 0 1-9.5-20.5q-.1-2 5.8-5.9c7.5-5 10.6-10.9 10.6-20.3a29 29 0 0 0-7.2-19.3 35 35 0 0 0-7.7-4.9c-4.4-2-6.9-2.3-22-2.6-9.3-.2-17.3 0-17.7.4m29.5 17.4c4 0 8.7 4.9 8.7 9 0 5.1-4.3 8.6-11.7 9.5-9.9 1.1-10.3.8-10.3-8.8 0-10.7 1.2-12.3 7.5-10.5 1.6.4 4.3.8 5.8.8m73.4-17.3c-.5.9-7.7 19.6-16.4 42.8l-12.2 32c-3.4 8.7-5.9 16.5-5.7 17.2.7 1.8 15 1.8 16.3 0 .6-.6 2-4.3 3.3-8.1 3.6-10.8 3.1-10.6 23.4-10.6 20.7 0 20.3-.2 24.4 11.5l2.9 8h8.4c6.9 0 8.4-.3 8.2-1.5-.3-2.5-8.7-25.4-15.1-41.5-3.2-8.3-8.8-22.4-12.2-31.5-3.5-9.1-6.8-17.1-7.3-17.8-1-1.3-17.2-1.8-18-.5m16 38.8c4.9 14.2 5.1 16.3 2.1 17.3a41 41 0 0 1-19.3-.2c-1.9-1.4-1.9-1.6.8-8 1.5-3.7 2.7-7 2.7-7.5s1.3-3.9 3-7.6c4.3-9.5 5.5-8.9 10.7 6m54.8-38.4c-.3.8-.4 21.9-.3 46.9l.3 45.5h15l.5-19.2a158 158 0 0 1 1.2-19.8c.4-.4 4.3-.9 8.7-1.1 9.3-.4 13.4-1.9 19.8-7.1 6.1-5 8.3-9.9 8.3-18.7 0-9.2-1.6-13.9-6.3-18.8-6.7-6.9-10.7-8-29.9-8.6-13.7-.4-16.9-.2-17.3.9m33.5 18.4c1.5.8 3.3 2.8 4 4.5 2.7 6.5-2.7 11.8-12.9 12.7-8.1.8-9.5-.8-8.9-9.9.7-9.2 1.7-10.2 9.2-9.3 3.3.3 7.2 1.3 8.6 2m40.6-17.9c-.9 2.4-.7 89.7.2 91.2.7.9 6.3 1.2 24.8 1l23.9-.3v-15l-15.8-.5c-12.5-.4-16-.8-16.7-2a63 63 0 0 1 0-22.1c1-1.7 2.3-1.9 14.8-1.9 18.9 0 18.2.3 18.2-8.1 0-6.5-.2-7-2.6-7.9-1.4-.6-8.5-1-15.8-1q-13.3 0-14.4-1.2c-1.4-1.4-1.6-12.6-.2-14.8.7-1.2 4.2-1.6 16.7-2l15.8-.5v-16l-24.1-.3c-21.4-.2-24.2-.1-24.8 1.4m67.1-.9c-1.1 1-.8 60.1.3 67.8 1.5 10.6 5 16.7 12 21.5 3.4 2.3 8.1 4.5 11.1 5.1 6.4 1.4 16.7.6 21.4-1.7a36 36 0 0 0 14.6-14.1c2.4-4.8 2.4-5 2.4-41.8v-37l-6.3-.3c-3.8-.2-6.9.2-7.8.9-1.1.9-1.4 6.7-1.4 32.3 0 17.1-.5 32.9-1 35s-2.2 5.3-3.9 6.9c-2.4 2.5-4 3.1-8.7 3.5-6.8.6-11-1.3-14-6.1-1.8-3-1.9-5.4-1.9-37.1 0-33-.1-33.9-2-34.7a41 41 0 0 0-14.8-.2m75.8 1.6c-.4 1.3-.5 4.8-.3 7.8l.3 5.4 6.7.6a22 22 0 0 1 8.2 1.8c1.4 1.2 1.6 5.8 1.6 36.5 0 19.3.3 36.1.6 37.3.6 2.1 1.3 2.3 6.6 2.3 10.6 0 9.8 3.3 9.8-38.5v-36.4l2.2-1.5c1.4-1 4.4-1.6 7.9-1.6 6.6 0 6.9-.4 6.9-9 0-4.4-.4-5.9-1.6-6.4a309 309 0 0 0-25-.6H1907zm64.7-1.1c-1.4 1.4-1.7 89.4-.3 91.6.5.9 2.9 1.2 8.2 1l7.4-.3.3-45.9c.2-36.1 0-46.1-1-46.8-2-1.2-13.3-.9-14.6.4m-393.5 138.9a40 40 0 0 0-15.4 8 25 25 0 0 0-8.4 10.6c-3 6.2-3.3 7.7-3.3 15.8 0 8.3.2 9.5 3.4 15.3 4.4 8.3 12 15.2 19.2 17.5a35 35 0 0 0 43-18.9c1.8-3.9 2.3-6.7 2.3-13.5 0-7.8-.3-9.1-3.7-16.1-3-6-4.9-8.4-9.3-11.7q-13.7-10.4-27.8-7m17.4 12c7.4 3.7 12.2 12.7 12.2 22.9a23 23 0 0 1-25.8 23.6c-13.5-1.6-23.1-17-19.1-30.8a33 33 0 0 1 12-16c5.8-3.1 14.2-3 20.7.3m-549.5-8.9c-1.2 2-8.5 20.8-13.3 34.3l-5.9 15.2a96 96 0 0 0-4.4 12.7c0 1.3 1.1 1.6 5.4 1.6h5.5l1.5-5.3c2.4-8.3 3.2-8.7 17.3-8.7 6.7 0 12.8.3 13.7.6s2.3 2.9 3.2 5.7c2.2 7 3.9 8.7 8.4 8.7 6.2 0 6.3-1.2.8-15.5l-10.4-27.5-7.2-19-1.8-4.5-5.6-.3c-5-.3-5.9 0-7.2 2m12.2 26.4c4.6 12.7 4.5 12.9-5.3 12.9-7.9 0-8 0-8.3-2.6-.2-1.5 1.1-5.7 2.7-9.4s3.1-7.4 3.1-8.1c0-1.3 1.9-2.4 3.5-2a32 32 0 0 1 4.3 9.2m39.5-27.9c-2 .7-1.8 63.6.1 65.2 1 .8 5.1.9 14.7.4l13.4-.8.3-3.3c.5-5.2-1-6.2-9.2-6.2-4.3 0-7.7-.5-8.4-1.2-.9-.9-1.2-8.1-1.2-26.4 0-21.6-.2-25.5-1.6-26.8-1.5-1.5-5.5-2-8.1-.9m34.4-.1c-.4.4-.7 2.6-.7 5 0 4.6.9 5.4 6.5 5.4 1.8 0 3.8.6 4.4 1.3q1.1 1.5 1.3 27.3l.3 25.9h10l.7-19.7 1-27 .3-7.3 5.3-.8 5.3-.9-.3-4.6-.3-4.7-16.6-.3c-9.1-.1-16.8.1-17.2.4m46.5.6a499 499 0 0 0-.4 63.6c.7.9 4.8 1.2 17.3 1l16.4-.3v-9l-10.8-.5c-8.1-.4-11-.9-11.8-2-1.5-2.3-.7-15.9 1.1-17 .8-.5 6.1-1 11.8-1h10.2v-9.7l-11.2-.9-11.3-.9-.3-5.3c-.4-7.6.4-8.2 10.8-8.2 11.5 0 12-.2 12-5.5q0-4.4-1.6-4.9c-3.1-1.2-30.9-.7-32.2.6m50-.4c-.9.6-1.2 7.9-1 32.8l.3 31.9 4.1.5c2.3.3 4.6.4 5.3.2q1-.3 1.1-12c0-18 1.9-18.6 10.1-3.5s8.2 15.3 13.8 15.3c2.6 0 5-.3 5.3-.6.4-.3-1.1-3.7-3.3-7.4l-3.9-7.4c0-.3-1.3-2.7-3-5.3-3.6-5.6-3.7-7.7-.9-10.1 8.5-6.9 10.9-12.3 9.1-20.2-2.5-11-7.8-14.1-24.7-14.7-6-.2-11.6 0-12.3.5m24.2 12.3a6 6 0 0 1 2.6 5.4c0 4.7-3.7 7.5-9.9 7.5-2.6 0-5.2-.5-5.9-1.2s-1.2-3.5-1.2-6.3.5-5.6 1.2-6.3c2-2 10.2-1.5 13.2.9m29.5-10.4c-1.3 3.4-.4 61.2.9 62.5.5.5 2.7.8 4.8.6l3.9-.3.5-20c.4-17.9.7-20 2.2-20.3 1.3-.2 3.3 2 7 7.9l13.3 20.3c7.7 11.6 8.3 12.1 12.4 13 7.2 1.5 7.1 1.8 7.1-33 0-26.2-.2-30.5-1.6-31.8q-2.5-2.7-7.9-.6l-2.7 1 .4 19c.3 20.8-.2 23.3-4.2 18.3-1.2-1.5-6.9-10-12.6-18.8-11.9-18.2-14-20.5-19-20.5-2.8 0-3.6.5-4.5 2.7m90-1c-1.7 2-4 7.3-9.5 21.3-5.1 13.1-15.4 41.3-15.4 42.2 0 .5 2.2.8 5 .8h5l3.2-6.8 3.3-6.7 13.4-.3c8.2-.2 13.8.1 14.6.8a26 26 0 0 1 3.4 7l2.2 6h5.5c2.9 0 5.4-.4 5.4-.9s-2.7-8.1-6.1-16.8l-8.9-23.3c-9.3-24.6-9.6-25-15.4-25q-4.4 0-5.7 1.7m11.3 26.7c1.6 4.4 2.8 9.1 2.6 10.5-.3 2.5-.6 2.6-8.1 2.9-9.2.3-10-.5-7.4-7.8 3.9-10.8 5.8-14.1 8-13.8 1.6.2 2.7 2.1 4.9 8.2m32.5-27.7c-.4.3-.7 2.6-.7 5v4.3h3.8c7.6 0 7.7.3 7.8 23.2l.2 26.5.2 6.3h4.9c4.2 0 4.9-.3 5.5-2.3.3-1.2.6-13 .6-26.3 0-25.9.1-26.4 5.3-26.4q6.8 0 6.7-5.3c0-1.8-.5-3.8-1.2-4.5a141 141 0 0 0-33.1-.5m45.5.1c-.9.7-1.2 7.9-1 32.7l.3 31.8 2.8 1a7 7 0 0 0 5.3-.2l2.4-1.1v-31.4c0-30.1-.1-31.6-1.9-32.6-2.3-1.2-6.1-1.3-7.9-.2m23 0c-.9.6-.1 3.9 3.4 13.8l6.4 18.4c7.6 22 11.9 32.4 13.6 33.1 1.1.3 3.7.4 5.9 0 4.4-.7 3.7.6 11.7-21.6l8.4-23.5c5.8-15.9 6.6-19 5.1-19.6-.7-.2-2.9-.5-5.1-.7l-3.8-.2-3.5 9c-1.9 4.9-5.3 14.1-7.4 20.4-4.7 13.4-5.5 15.1-7.5 15.1-1.7 0-1.2 1.1-9.9-23.5a284 284 0 0 0-7.7-20.3c-1.2-1.3-7.6-1.6-9.6-.4m176.5-.2c-.4.4-.7 15.1-.7 32.6v31.8l2.6 1c1.4.6 3.6.7 4.9.4 2.9-.7 3.6-4.5 3.2-18-.3-12.2-.1-12.4 11.9-12.4 13.3 0 13.4.2 13.4 16.9v12.9l3.2.4c7.3 1.1 6.9 3.3 6.6-33.1l-.3-32.6h-9l-.5 11.3c-.6 14-.8 14.2-13 14.2s-12.4-.2-12.8-13.9c-.4-10.6-.5-11.1-2.6-11.1-1.1 0-3-.3-4.1-.6s-2.4-.2-2.8.2m63 0c-.4.4-.7 11.4-.7 24.5 0 21.4.2 24.4 2 29.2q3.3 9 11.2 12.1c4.7 2 13.5 2.1 17.9.2 4.7-2 10.7-8.3 12-12.5.6-2.2.9-13.4.7-28.6l-.3-25-4.3-.3q-4.2-.3-4.7 1c-.2.7-.6 12-.9 25.1-.5 26.4-.7 27.6-7.2 30.3a10 10 0 0 1-7.4.4c-7.2-1.9-7.4-3-8-31.5l-.5-25-4.5-.3c-2.5-.2-4.9 0-5.3.4m61 .1c-.4.3-.7 15.1-.7 32.9 0 35.8-.4 33.7 6.8 32.6l3.2-.4V2593h-4.3c-2.4 0-4.7.3-5 .7m19.7 1.7c-1.3 5.4-.3 7 5.1 8 2.8.6 5.3 1.5 5.7 2s.8 11.9.8 25.1.3 25 .6 26.2c.6 2 1.3 2.3 5.5 2.3h4.9v-25.8c0-19.3.3-26.3 1.3-27.6.7-1 3.3-2 6.2-2.4l5-.7v-9l-17.2-.3-17.3-.2zm43.3-1.7c-.4.3-.7 2.6-.7 5v4.3h8.6c8.6 0 12.4 1 12.4 3.3 0 .7-3 7.9-6.6 16.2s-7.1 16.6-7.9 18.6a128 128 0 0 1-4.4 9.7 45 45 0 0 0-3.1 7.1c0 1.5 14.4 2.3 26.6 1.6l11.5-.7-.3-4.7-.3-4.6-9.7-.3q-9.6-.3-10.7-1.6c-.8-1-.2-3.4 2.5-9.7 2-4.6 4-8.9 4.4-9.4 2.1-2.9 15-33.7 14.5-34.5-.7-1.1-35.7-1.4-36.8-.3m50.4.2c-1.2.7-1.4 6.4-1.3 32.2.1 17.2.6 31.7 1 32.1s2.9.8 5.3.6l4.4-.3.3-31.4c.2-22.3-.1-31.8-.9-32.7-1.3-1.6-6.7-1.8-8.8-.5m27.1-.1c-.9.7-1.2 7.9-1 32.8l.3 31.9 14.3.3 14.3.3-.3-4.8-.3-4.8-7.2-.3c-5.1-.2-7.5-.7-8.5-1.9s-1.4-8-1.8-27.7l-.5-26.1-4-.3c-2.2-.1-4.6.2-5.3.6m41.5-.1c-.4.3-.7 15.1-.7 32.8v32.2l4.1.7c4.9.8 24.8-.4 25.5-1.5.2-.4.2-2.6-.2-4.8l-.7-4.1h-7.8c-6.7 0-8-.3-8.9-1.9-.6-1.2-1-11.6-1-26.8 0-18-.3-25.2-1.2-26.1-1.3-1.3-8-1.7-9.1-.5m40.5.5c-1.3 1.3-1.5 32.7-.3 53.2l.6 11 3 .8c6.8 1.8 6.5 3.1 6.5-32.1 0-23.3-.3-32-1.2-32.9-.7-.7-2.6-1.2-4.3-1.2s-3.6.5-4.3 1.2"/></svg>