<svg xmlns="http://www.w3.org/2000/svg" viewBox="0 0 3000 3000"><path fill="#fff" d="M613 1009a490 490 0 0 0-159 36l-10.4 4.3a495.5 495.5 0 0 0-196.4 156.1 476 476 0 0 0-74.3 143.6 338 338 0 0 0-9.4 32.5l-3.5 15a495.8 495.8 0 0 0 5.5 231l3.5 13a568 568 0 0 0 23.7 63.5 576 576 0 0 0 36.2 66 496 496 0 0 0 229.9 188.3l8 3.2a552 552 0 0 0 71.7 20.9 505 505 0 0 0 57 8.6c11.2 1.2 79.2 1.2 90 0a487 487 0 0 0 132-31c2.8 0 44.3-19.3 60-27.9a550 550 0 0 0 41.2-25.6l9.9-7c23.3-16.2 59.2-49 82.1-75a582 582 0 0 0 56.6-79.2 1088 1088 0 0 0 24-48.3 497 497 0 0 0 39.7-165c2.4-31.3.2-75.1-5.4-110.5a552 552 0 0 0-18.4-75.5c-1.3-4.5-7.9-22.9-9.1-25.5-.5-1.1-3.7-8.3-6.9-16a496 496 0 0 0-61.1-104 522 522 0 0 0-90.6-90.7 505 505 0 0 0-84.4-52c-18.1-8.7-17.6-8.5-27.1-12.3l-9.5-3.9-9.5-3.6-8.5-3a498.6 498.6 0 0 0-187.5-26m59 10.5a470 470 0 0 1 184 50c45.9 22.9 87.7 53 124 89.5a472 472 0 0 1 70.6 89 486 486 0 0 1 66.4 183.5l1.9 15c2.5 18.6 3.5 53.5 2.2 77.4-.7 13-1.7 26.7-2.1 30.6-1.9 14.7-4 28.4-6 38.5l-3.1 15a588 588 0 0 1-16.8 57.5l-4 10.3a487 487 0 0 1-209.6 243.5 622 622 0 0 1-49 24.7 481.8 481.8 0 0 1-316.5 22.2 492 492 0 0 1-58.5-20.2l-8-3.4a517 517 0 0 1-111.9-68.6 431 431 0 0 1-34.6-31.9 460 460 0 0 1-71.5-90.1 506 506 0 0 1-52.4-119.6 594 594 0 0 1-10.6-46.9c-.4-2.2-1-6-1.6-8.5a503 503 0 0 1-3.1-23c-3-25-3.2-80.7-.5-102.5 3.4-26.4 5.9-42.4 7.7-49.5l3-13c5.3-22.8 15.7-55 24.5-75.5a484 484 0 0 1 262-259.6l9-3.4a417 417 0 0 1 38-13 466 466 0 0 1 58.5-13c20.9-3.2 25.2-3.7 42.5-5 25.2-1.7 40.7-1.7 65.5 0m-44.5 32.2c-31.5.9-78.6 7.8-104 15.3l-12 3.6a406 406 0 0 0-48.9 17.7 651 651 0 0 0-52.6 27.1 453 453 0 0 0-187.7 223.1c-10 25-21.8 69.2-24.8 93l-2 14.5a526 526 0 0 0 .5 113.5A449 449 0 0 0 300.2 1793a641 641 0 0 0 47.2 47.5 497 497 0 0 0 70.6 50.2c7.6 4.4 33.9 17.6 43 21.6a450 450 0 0 0 430.5-39.6 464 464 0 0 0 100.6-93.7 454 454 0 0 0 24.3-34l6.7-10.2c1-1.5 1.9-3 1.9-3.4s.8-1.8 1.9-3.2a451 451 0 0 0 16.3-424.6 450 450 0 0 0-206.8-206.8c-16.3-7.9-16-7.8-31.4-13.9-10.9-4.3-36.6-13-43.5-14.8l-12-3a465 465 0 0 0-122-13.4m43 10.4c17.1 1 21.1 1.4 38.5 3.9a437.5 437.5 0 0 1 108.5 32 442 442 0 0 1 252.6 311.5c1.8 8.3 2.9 15 5.8 34 1.6 10.3 4.1 45.9 4.1 57.5a698 698 0 0 1-4 56.5 460 460 0 0 1-13.1 64 537 537 0 0 1-19.9 55.3l-7.8 16.2a441 441 0 0 1-65.8 99.2 825 825 0 0 1-43.5 42.9l-15.5 12.4a439 439 0 0 1-388.4 76.9 437 437 0 0 1-196.1-117 445 445 0 0 1-85.9-125.9l-3.5-8c-6-13.4-13.4-34.3-17.9-50.5a401 401 0 0 1-16.5-101.5c-.9-22.1.1-61.3 1.8-69.9l1.6-11.1c1.1-10.6 4.6-28.9 10.5-53.5a605 605 0 0 1 15-45.5 440.7 440.7 0 0 1 142.5-190 460 460 0 0 1 48.6-32.7c8-4.6 36-18.7 43.4-21.9a570 570 0 0 1 33.1-12.7c8-2.7 13.1-4.2 28.4-8.7a454 454 0 0 1 58-11.4c5.7-.8 33.6-2.8 49-3.4 7-.3 14.1 0 36.5 1.4m-18 65.3c-3.5 1.6-5.1 4-6 9-.8 4.2-1.4 4.3-9.5 1.5-7.4-2.6-11-2.2-6.3.6 2.5 1.4 3 2.2 2.1 3.2q-1 1.2-2.3 1.3t-2.5 1.5c-1.5 1.9-1.2 1.9 6.2-.1 9.8-2.5 11.6-1.9 15.2 5.1a59 59 0 0 0 18.3 19.7c3.4 2.5 7 5.4 8 6.4 3.9 3.9.8 18.1-5.5 24.7a53 53 0 0 1-10.5 7c-7.1 3.8-10.3 6.1-23 16.9-3.6 3.1-5.5 3.9-11.3 4.8-3.8.5-7.9 1.3-9.1 1.6q-4.7 1.5.8-5.2a56 56 0 0 0 6.1-10.2c2.7-5.7 3-7 2.6-14.5-.4-9.7-2.8-15.3-11.8-27.8-10.1-14.2-17.9-22.1-25.6-25.9-6.6-3.2-7.4-3.4-17.9-3.3-24.6.1-40.7 8.4-39.1 20.1.7 5.5 3.3 9.1 10.4 14.5a87 87 0 0 0 26.4 14.2c10.3 3.3 12.8 5.4 12.8 11 0 2.3-.6 5-1.4 6-1.4 1.9-1.5 1.9-10.8 0a65 65 0 0 0-45.4 5.1 49 49 0 0 1-7.1 3.4c-.5 0-2.1-3.3-3.6-7.3a80 80 0 0 0-5.7-12 68 68 0 0 0-22.4-19.6c-8.2-4-14.6-5.2-27.8-5.2-19.8 0-29.9 3.2-32.7 10.4-1.3 3.4-1.2 4.4.3 9.3 3.5 11 17.1 21.5 35.1 26.9 11.1 3.4 12.5 4.5 12.5 10.1 0 3.3-.8 5.2-3.7 9.2a63 63 0 0 1-7.3 7.8l-4 3.4-6.5 4.6c-19.1 12.9-28.2 20.5-35.1 29.6a71 71 0 0 0-7.5 12.3c-3.6 8-6.9 21.8-6.9 28.8s3.1 18 6.9 24.7c1.7 3 3.1 5.8 3.1 6.2 0 1.8-11.8 6.2-16.6 6.3-12.1 0-19.3-13.2-15-27.6 2.7-8.7 4.4-11.3 18.4-27.9a46 46 0 0 0 11.9-36.3 57 57 0 0 0-18.2-37.1 75 75 0 0 0-24.3-16.7 42 42 0 0 0-22.6-1.9c-4 1.3-8.6 6.2-8.6 9.1 0 3.1-2.7 3.3-6.1.5-3-2.6-5.9-3.4-5.9-1.7q.1.9 1.5 2.1 3.4 2.9-1.2 3.1-3.2 0 1.5 1c8.3 1.6 9.5 2.7 12.3 11.2a52 52 0 0 0 16 25.5 59 59 0 0 1 9.5 11.6c.9 3.8-1.9 9.5-6.8 13.6a88 88 0 0 0-29 41.8 68 68 0 0 0 .4 36.9 68 68 0 0 0 45.6 44.7 80 80 0 0 0 36.2.5c1.2-.3 1.6 1.5 2.1 10.6a51 51 0 0 0 10.7 32.4c4.1 5.3 4.8 5.9 12.1 10.8a48 48 0 0 0 22.6 7.7l8 1.2.3 3.9c.2 2.2-.1 8.7-.7 14.5-2.2 20.8-8 29.7-29.6 45-11.9 8.4-13.3 9.8-14.5 14.2-2.3 8 4 15 22.5 24.8 13.5 7.2 14.6 10.9 6.8 24.2-5.2 8.9-4 16.2 3.9 22.8l3 2.5-1.6 3.9c-.9 2.1-1.6 5-1.6 6.3 0 4.3 4.1 10.2 9.7 13.9 2.9 1.9 5.7 4.3 6.3 5.4a27 27 0 0 1-.1 14.7 56 56 0 0 0-1.6 11.3c-.5 7.8-.3 9 2 13.5q9.9 19.8 43.4 18.2c13.8-.6 21.5-1.7 41.3-5.9l14.5-3.1 8.5 1.8c16.4 3.3 30.3 12.8 44.3 30.1 12.9 16 25.6 48.2 27.3 69.3.7 7.6 2.1 13.1 3.5 13.1 5.6 0 1-36.3-6.8-54-11.8-26.7-25.9-44.3-43.8-54.7-5.4-3.1-15.5-7-19.4-7.5s-3.5-2.2.9-4.1c2.2-.9 4.3-1.7 4.7-1.7 3.9 0 35.8-15.6 44.5-21.7 15.4-10.8 29-24.9 38.9-40.3 4.8-7.6 10.6-19.7 11.4-24.2.8-4.1 3.2-7 3.9-4.7 2.3 7.8 5.4 15.4 8.2 20.3l3.5 5.9-13.9 13.6c-17.5 17-22.2 25-25.7 43.4-5.9 30.9 7.5 60.7 35.5 79.5 11 7.3 20 11.3 30.3 13.6q2.8.5 2.7 2.9a88 88 0 0 0 6.2 22.1c1.1 2.2 4 6.9 6.4 10.4a64 64 0 0 1 10.3 22.2c5.3 18.2 10.5 26.6 19.2 31.1 2.3 1.1 3.9 2.7 3.9 3.7 0 4-4.2 14.1-7 16.7q-5.9 5.5.5 4.1c3.4-.7 3.5-.6 3.5 2.4q0 3 1.4 3c2.2 0 2.8-1.5 3.7-9.8 1.4-12.8 4-17.1 11.9-19.7 10.9-3.6 19-18.2 19-34.4 0-10.7-2.2-16.6-10.4-27.4-18.7-24.7-17.5-34.5 5.6-48.1 22.1-13.1 30.1-19.9 36.2-30.9a60 60 0 0 0 7.6-31.9c0-12.4-1.1-11.3 12-12.2 18.8-1.2 38.6-15.8 48.2-35.6a74 74 0 0 0 5.8-40.9c-.6-5.1-1-9.5-.7-9.7 1-1 9.1 1.8 19.2 6.7 12.7 6.1 19.1 7.4 28.7 5.9 3.9-.6 7.5-1.3 7.9-1.6 1.4-.8 5.4 2.4 8.8 7.1 5.8 8.1 8.8 9.9 7.6 4.6-.6-2.9-.5-3 3.7-3.3l4.3-.3-4-1.4a36 36 0 0 1-13.4-9.3c-.7-1.2-.6-2.5.6-4.9 2.6-5.2 2-13.7-1.3-20.5a94 94 0 0 0-20.8-23.1l-3.9-3 3.9-6.9a64 64 0 0 0 7.4-52.8l-2-7.9 4.8-5.1a72 72 0 0 0 16.3-39.8 73 73 0 0 0-27.1-67 82 82 0 0 0-21.3-11.3c-3.8-1-3.4-3.1 1.2-5.4 4.1-2.2 8.1-7.5 8.1-10.9 0-1.1 1.1-3 2.5-4.1a86 86 0 0 1 19.5-7.9l3.5-1-4.2-.1c-4.9-.1-5.2-.8-1.9-4.8 2.3-2.8 4.6-6.6 4.6-7.7q-.1-.5-1.8-.6c-1 0-4.6 3.1-8 6.9a53 53 0 0 1-10.4 9l-4.1 2-3.7-4.9c-7.4-9.9-14.2-13-30.7-13.7-12.8-.6-12.6-.4-9.8-9.6a72 72 0 0 0-3.5-50.4 65 65 0 0 0-38.3-32.5c-5-1.6-8.4-1.9-17.2-1.6q-10.8.3-10.8-.7l1.8-9.4c3.7-18.2-1.4-36.5-12-42.6-4.3-2.6-4.5-2.9-4.5-7.3.1-2.6.7-6.5 1.5-8.7s1.2-4.1.9-4.4c-.9-.9-3.4-.9-3.4 0 0 1.5-1.9 1-4.1-1.2q-4.6-4.6-2.9 5.6c.5 3.3 1 7.6 1 9.6 0 3.3-.3 3.7-5.3 5.7a34 34 0 0 0-18.8 23.3c-1 3.8-1 6.4.1 13.2.7 4.7 1 10.2.7 12.2-.7 4.5-3.9 11.1-5.2 10.8-.5-.1-1.7-3.5-2.5-7.5a40 40 0 0 0-13.9-23.8 53 53 0 0 0-15.6-11.4c-7.7-3.7-8.5-3.9-20-4.3-6.6-.3-12.6-.6-13.3-.9-.9-.2-.4-2 1.8-6.3 2.7-5.4 3-7 3-14.9 0-10.4-2.1-17.4-7.6-25.7-8.2-12.4-17.7-16.3-44.4-18.1-5.3-.3-8.4 0-10.5 1m25.4 5.5a35 35 0 0 1 27.1 22c1.9 5.2 2.2 7.5 1.8 15.5-.4 9.4-.5 9.6-7.1 22.8-7.6 15.1-9.7 20.6-9.7 25.5 0 10.9 11.2 15.8 26.7 11.8 7.7-2 10.6-1.2 14.9 4 4.9 6 5.6 11.4 2 14.8-5.9 5.5-22.6 9.4-33 7.7-7-1.1-9-2.3-19.7-12.3l-8.4-7.7.1-10.4a55 55 0 0 1 5-24.1c7.8-17.9 8.8-23.2 5.2-28.4a35 35 0 0 0-7.8-7.3c-16.9-11.6-26.3-27.5-19.9-33.9 1.9-1.9 2.9-2.1 9.3-1.6 3.9.2 10 1 13.5 1.6m-94.9 18.3c7.8 3.6 12.7 8.3 21.6 20.4 11.5 15.8 12.9 19 12.9 29.9 0 7.8-.4 9.7-2.7 14-3.6 7-16.6 20-26.3 26.3a72 72 0 0 0-23.2 23.1c-2 3.6-4.1 6.9-4.6 7.2s-5.1.9-10.4 1.3l-10.6.9c-1.9.3-2-6.1-.1-13.2 3.2-12.2 10.1-21.2 23.7-30.6 21.5-14.9 24.2-17.9 24.2-27.3 0-6.2-.1-6.6-3.7-9.6a27 27 0 0 0-8-4.5 115 115 0 0 1-27.8-14.4c-6.2-5.8-8-8.7-8-12.9 0-2.9.7-4.5 2.7-6.4 2.5-2.3 3.8-2.8 15.3-5.9a41 41 0 0 1 25 1.7m-117.4 27.4c9.1 1.9 13.7 4 21.5 9.9a46 46 0 0 1 19.9 38c0 17.8-7.6 30.3-31.1 51.2a219 219 0 0 0-15.7 15 52 52 0 0 0-6.2 21.8v5.4l-6.2 3.7c-3.6 2.1-11.8 9.2-19.1 16.3-14.4 14.1-13.3 14-16.9 2.6-5.7-18.1-.9-39.8 12.6-57.4 4.7-6.1 12.8-12.8 31.1-25.9 12.3-8.8 15.7-11.9 19.6-17.9 4.4-7 5.4-11.5 3.4-15.8-2.2-4.4-4.6-5.9-15.7-9.7-15.9-5.3-26.7-13.4-30.3-22.6-1.5-3.6-1.5-4.7-.5-7.3 1.7-4 5.4-5.8 15.2-7 4.6-.6 8.5-1.2 8.7-1.5.6-.6 1.2-.5 9.7 1.2m344.4 5.9c3.5 1.8 6 5.4 8.6 12a75 75 0 0 1 0 34 74 74 0 0 1-28 37.8c-3.3 2.4-11.5 7.4-18.1 11.2a86 86 0 0 0-34.9 34.7c-2 3.4-3.6 3.5-12.1.3-11.2-4.2-14.5-6.3-14.5-8.8 0-9.6 5.1-22.7 12-31.1 8.5-10.2 18.2-15.9 39.5-23.1 12.7-4.2 19.2-8 22-12.7 1.7-2.8 2.1-5.7 2.5-19.4.5-15.8.6-16.1 3.9-22.6 3.6-7.1 5.9-9.8 10.6-12.2 3.7-2 4.9-2 8.5-.1m-82.4 12.4c17.8 4.6 32.4 17.4 36.8 32.1 1.7 5.6 2.1 13.7.8 15.6a118 118 0 0 1-21.7 8.4c-.9 0-1.1-1.8-.7-6.8.3-5.2 0-7.6-1.3-10.3q-7.6-15-27.2-9.3c-6.7 1.9-11.2 1.3-14.4-2.2-4.6-4.9-2.4-19 3.8-24.6 5.4-4.9 12.7-5.8 23.9-2.9m-61 17.8c-.4 2.7-.9 8.1-1.3 12-.3 4-.8 7.3-1 7.3l-5.1-1.5-10.4-3c-3.2-.9-5.8-2-5.8-2.5 0-2 20.5-16.9 23.4-17 .5 0 .6 2.1.2 4.7m-97.3-.7c1.5.7 2.6 1.8 2.4 2.4a80 80 0 0 1-11.2 9.3c-19.3 14.4-26.7 24.3-28.7 38.3-2 13.7-1.3 12.7-11.1 17a96 96 0 0 0-13.9 7.5c-4.7 3.4-5.3 3.6-6.4 2.1-1.4-2-2.9-20.4-1.9-23.7.4-1.3 2.7-4.9 5-7.9a59 59 0 0 0 12.1-28.3c.7-5.2 3.3-8.1 10.8-11.9 10-5.2 17.4-6.8 29.1-6.5 6.5.2 12.1.9 13.8 1.7m-205.2 9.7a90 90 0 0 1 25.6 18.9c5.9 6.5 10.1 15 12 24.3 1.5 7.6 1.5 8.6-.2 16.4a53 53 0 0 1-15.8 28.6c-10.7 11.2-13.9 17.7-14.5 28.6-.5 10 .8 15 5.3 20.2 4.9 5.7 10.4 7.7 19.7 7.1 12.4-.9 16.6-3.6 38.3-24.7a86 86 0 0 1 28-20.7c17-7.8 37.4-6.2 53.1 4.2 2.9 2 11.5 10.1 19.1 18.1 20.8 22 31 28.2 52.6 31.8 2 .3 3.7 1 3.7 1.4 0 .5-1.2 2.6-2.6 4.7-5.6 8.2-12.4 21-14.5 27.1-1.2 3.8-2.6 6.3-3.5 6.3-1.9 0-19.9-7.2-24.9-10-6.7-3.7-14.5-10-25-20-16.1-15.5-22.5-19-34.3-19-12.8 0-18.1 2.6-38.8 19.1-22.2 17.8-29.7 22.2-42.4 25.5a58 58 0 0 1-52.2-16 60 60 0 0 1-16.6-63.1c4-13.1 7-17.7 22.8-34 16.4-16.9 16.6-20.1 2.1-34.5a54 54 0 0 1-12.3-16c-4.6-9.6-6.5-18.4-4.8-23.4 2.2-6.9 6.9-7.1 20.1-.9m287.4 12.2a78 78 0 0 1 31.4 19.7 54 54 0 0 1 10.5 54.1 66 66 0 0 1-44 39.8c-14.4 3.3-24.6.8-38.9-9.7a126 126 0 0 0-32-17.2c-7.2-2.3-21-4.6-28-4.6s-23.3 2.5-26.7 4c-1.9.9-3.2.6-7.3-1.6a62 62 0 0 0-19.7-6.4c-1.5 0-3-.4-3.3-1-1-1.5 2.4-7 7.9-12.8a82 82 0 0 1 52.6-23.8c18.3-1.3 36.5 5.3 58.5 21.2 16.1 11.7 20.7 13.7 29.3 13.2q13.1-.8 17.3-10.4c2.4-5.7 2.4-9.6.1-15.7-7.3-19.1-32.3-25.8-49.2-13.1a49 49 0 0 0-7.5 7c-1.9 3-2.3 2.9-13-1-3.8-1.4-9-2.8-11.5-3.2-9.2-1.2-9.6-1.9-5.5-8.5a81 81 0 0 1 42.5-30.8 75 75 0 0 1 36.5.8m198.9 3.1a61 61 0 0 1 34.1 30.1 75 75 0 0 1 6.5 28.8c-.1 13.5-5.1 29.4-10 31.7l-10.1 4.8a45 45 0 0 0-12.6 8.6c-5.7 5.7-5.9 5.6-6.9-3.8-.3-3.2-1.7-8.9-3-12.9-3-9-3-9.3.6-12.8 4.2-4 6-8.5 6-14.9q-.1-14.5-13.1-21.1a23 23 0 0 0-12.7-2.5c-9.4 0-14.1 1.7-19.4 6.8l-3.7 3.5-10.2-1.3c-17.2-2.2-16.9-1.6-4.9-9.6 5.8-3.8 12.2-8.4 14.4-10.3a98 98 0 0 0 14.9-19.2c3.1-5.5 4.7-6.9 9-8 4.4-1.1 14.9-.1 21.1 2.1m-123.5 22.8a63 63 0 0 0-17.2 20.4 27 27 0 0 1-3.9 6.7c-.3.1-.9-2.2-1.3-5.1a63 63 0 0 0-3.7-12.2c-1.6-3.9-3-7.5-3.1-8.1s4.4-1.3 10.8-1.7c7.1-.4 12.8-1.4 16-2.7 6-2.3 7.2-1 2.4 2.7m-89.7 9.7a24 24 0 0 1 13.4 13c2.9 6 2.9 8.7.5 14.1-3.4 7.5-8.8 9.2-17.4 5.4a140 140 0 0 1-26.5-19.5c-.5-2.3 5.8-8.3 12-11.5a21 21 0 0 1 18-1.5M492 1282c.6 3.6 1.9 8.4 2.7 10.8 1.4 4.2 1.3 4.4-1.5 8-1.6 2-4 5.6-5.3 7.8-2.3 4.1-2.4 4.2-9.4 4.9-3.8.3-9.1 1.2-11.7 2s-5 1-5.3.5c-1-1.6 1.3-13.7 3.3-17.6 1.1-2.1 3.5-5.6 5.4-7.6 4.8-5.4 19.1-16.9 19.9-16 .3.4 1.2 3.6 1.9 7.2m341-2c7.5 2.1 15 11.5 15 18.7 0 3.9-2.1 10.1-4 11.8-1.6 1.5-2 1.2-5.4-3.3a48 48 0 0 0-16.3-14.6c-7.6-3.9-8.7-5-7.6-7.1 1.4-2.4 9.1-6.5 12.3-6.5 1.4 0 4.1.4 6 1m-41.5 6.5c6.4.7 16.5 4 23.5 7.7 14.2 7.6 24.7 23.9 28.5 44.3 1.5 7.7 1.6 10.2.6 17-2.2 14.3-9.8 32.6-16.7 39.8l-2.6 2.9-8.3-8.4a122 122 0 0 0-15.4-12.8c-3.8-2.5-7-4.8-7-5.2-.1-.3 2.1-2.4 4.8-4.5 6.4-5 9.1-10.3 9.1-17.9 0-9.4-4.1-15.5-14-20.6-3.9-2-6-2.3-15.5-2.3s-11.7.3-16 2.4c-2.7 1.3-5.7 3-6.6 3.8-1.4 1.1-1.9 1-4-.9l-6.8-6-4.2-3.6 2.2-4.4c3.5-6.8 13.3-19.2 19.1-24 8.5-7 8.8-7.2 13.7-7.8a50 50 0 0 1 15.6.5m-75.1 30.2c3.3 1.5 10.3 5.2 15.5 8.3a69 69 0 0 1 23.4 99c-9.2 14.5-22.1 23.2-46.8 31.5a143 143 0 0 0-27.6 11.2c-18.1 10.4-27.1 31-20.8 47.7 4.3 11.7 17.1 21.1 31.9 23.8q10 1.7 6.6 5a81 81 0 0 0-10.6 17.9 69 69 0 0 0-3 11.9c-1.8 11.3-1.6 11-5.3 10.3a101 101 0 0 1-29.9-14.5 85 85 0 0 1-35.8-51.3c-2-7.9-2.2-10.7-1.7-22.5a76 76 0 0 1 6.8-31.5c2.3-5.2 9.5-15.8 14.3-21.1a127 127 0 0 1 48.1-29.8c20.7-7.3 26.9-10.1 32.6-15.3a22 22 0 0 0 8.1-18c.1-11.3-7.1-21.2-19.7-27.4-6.7-3.3-7.4-3.4-18-3.3-9 0-12 .5-16.4 2.3-21.8 8.9-39.7 33-44.6 60.2-1.7 9-1.7 10.1-.2 17.7 2.1 10.5 2.1 14.6 0 16.3-5.1 4.2-13 21-15.8 33.5l-2.1 8.3c-1.1 3.1-14.2-12.9-19.6-23.9a70 70 0 0 1 1.3-65.6c5.3-9.6 30.3-41.3 34.3-43.5.6-.4 5.6-.3 11.1.3a57 57 0 0 0 45.7-12.1c8-6.1 12.2-10.9 18.5-21.3l4.8-8 4.4.6c2.4.3 7.1 1.8 10.5 3.3m-150.5 7.7c13.9 4 20.9 7.3 31.8 15.4 4.4 3.3 9.9 7 12.1 8.3 2.3 1.3 4.2 2.9 4.2 3.6s-2.4 3.7-5.2 6.9c-14.9 16-12.9 14.9-22.8 12.4a74 74 0 0 1-26.1-11.8c-7.5-5.5-33.4-32.2-32.3-33.2.5-.4 2.9-1.5 5.4-2.4 5.5-2 24.5-1.5 32.9.8m220.4 7.6c15.1 5.7 19 20.8 8 31.2-4.4 4.2-10.7 6.1-15.5 4.6-4.7-1.4-7.1-4.2-9.4-11.1a74 74 0 0 0-9.7-17.4c-1.7-2.3 11.6-8.9 18.5-9.2 1.5-.1 5.1.8 8.1 1.9m122.8-.4c15.6 3.4 25.9 13.7 23 22.7-1.8 5.4-6.4 8.1-23.6 13.8-17.9 6-26.9 11.8-32.3 20.9-2.5 4.1-2.7 5.4-2.6 14.5a39 39 0 0 0 8.9 27.1c6 8.4 11.1 12.6 29.8 25 9 6 18.5 13.2 22 16.7 20.6 20.7 25.9 45.1 15.4 71.7-2 5.2-6.5 14-7.2 14l-8.1-3.7-7.9-3.8-15 .1c-13.3 0-15.7.3-21 2.3a79 79 0 0 0-24.1 16.1c-10.1 9-14.7 11.3-19.4 10s-12-7.3-17.3-14.1a143 143 0 0 1-19.1-40.9c-.6-3.3-.3-3.9 6.3-10.2a88 88 0 0 0 24.6-40.6c1.1-3.9 2.2-7.2 2.6-7.2s1.4 1.1 2.3 2.4c2.1 3.2 12.5 13.9 15.4 15.7 2.2 1.4 2.2 1.5.7 6.9-.8 3-1.8 9.1-2.1 13.5-1.4 17.3 6.7 34 18.4 38 15.6 5.3 29.1-4.3 28-19.9-.9-12.5-7.1-20.4-26.1-33-26.5-17.6-34.5-27.8-37.2-48.1a93 93 0 0 0-12.3-33.5c-2.8-4.5-2.8-4.8 1.1-9.1a77 77 0 0 0 16.7-30.4 44 44 0 0 1 17-24.6 64 64 0 0 1 22.8-11.9 33 33 0 0 1 20.3-.4m-218.8 21c15.4 4 26.1 17.3 24.3 30.3-1.6 11.8-10.3 17.3-45.9 28.8-4.1 1.3-18.1 8.5-22.5 11.5-2.6 1.8-6.8 5.2-9.4 7.6l-4.8 4.4-1-2.6a65 65 0 0 1 1-27.1c6.8-24.3 25.6-46.8 44-52.6 7-2.2 7.1-2.2 14.3-.3m97.1 23a94 94 0 0 1 47.7 63.9 89 89 0 0 1-2.4 36 91 91 0 0 1-24.5 36.7c-6.7 6.2-15.1 12-16.6 11.5-.6-.2-3.6-4-6.6-8.5a104 104 0 0 0-24.2-25.4c-5.5-3.4-5.9-4.5-2-5.4 13.6-3.1 24.9-11.5 27.2-20.4 1.6-5.9.6-16.4-1.9-21.5a56 56 0 0 0-10.6-13.6c-4.2-3.4-7.5-6.8-7.5-7.7 0-.5 1.2-3.6 2.6-6.8a79 79 0 0 0 6.4-32.6v-11l2.7.7c1.5.3 5.9 2.2 9.7 4.1m-305.4-2c0 .9-.7 2.8-1.4 4.2a174 174 0 0 0-9.6 23.2c-6.2 18.6-6.5 20.8-6.4 47.9l.1 25.3-5.1-.6a58 58 0 0 1-24.2-11.8 55 55 0 0 1-13.5-20.8 40 40 0 0 1-2.3-15.6c-.1-11.1 1.1-13.2 9.3-17.4 5.3-2.6 14.1-9.3 31.1-23.5a83 83 0 0 1 20.8-12.5q1 .1 1.2 1.6m14.1 1c3 1.5 9.9 7.2 16.8 13.9 14.3 13.9 18.9 17.5 28.9 22.5 7 3.5 25 10 27.8 10q1 0 1.7 13a66 66 0 0 0 8.9 34c5.6 9.8 14.8 21 19.8 24.4 4.4 2.9 4.4 3 5.9 17.1a81 81 0 0 0 18.5 44.9 91 91 0 0 0 52.1 33l5 1.2-.3 3.9c-.6 9.1-5.3 24.9-10.6 35.5a101 101 0 0 1-20.6 28.3 149 149 0 0 1-52.9 35.9 311 311 0 0 1-67.5 20c-6.5 1.6-26.3 1.2-33.1-.7a32 32 0 0 1-17.4-11.3q-4.7-7-2.1-26.3c1.8-13.6 1-16.2-7.5-22.8-3.9-3.1-6.7-6.1-7.1-7.7-1-4.1.8-9.5 3.9-11.8 2.7-2 3.9-2.1 20.2-1.8 17.6.3 21.5-.3 21.5-3.3 0-1.2-1.5-1.4-7.8-1.2l-7.8.2-13.5-6.8c-11.7-5.8-14.2-6.8-18-6.5l-4.4.3 4.5 2.4a46 46 0 0 1 13 9c0 .5-2.6 1.1-5.7 1.5-5.5.6-5.8.6-9.1-2.7-5.3-5.3-5.4-10-.7-17.9a25 25 0 0 0 4.3-12.1c.6-7.3.1-7.8-14.8-16.7-12.6-7.4-18-12.5-18-16.7 0-3.4 8.2-11.5 16.1-16.1a54 54 0 0 0 19.4-20.7c6.6-13.9 8.3-29 6.6-58.4-1.3-21.5-.4-35.4 3-50.1 4.3-18.1 13.1-42 15.5-42zm428.5-.6a69 69 0 0 1 43.2 41.3c5 13.4 5 35.8-.2 50-4.2 11.5-12.2 24.3-13.3 21.2a75 75 0 0 0-4.5-7.5 66 66 0 0 0-19-19.4l-5.5-3.5.5-10.3c.4-9.2.2-11-1.8-15.6-4.7-10.9-14-15.9-31.7-17.1-10.7-.7-12.2-1.8-12.3-9.2-.1-13.1 9.5-24.2 25.5-29.7a25 25 0 0 1 19.1-.2m-22.3 46.2c7 2.5 12.9 8.1 14.6 13.9a44 44 0 0 1 .7 16.6c-1.1 1.1-17.6-11-23.2-17-6-6.5-10.4-13.3-9.7-15.4.6-1.7 10.6-.6 17.6 1.9m-133.1 14.5c12.5 12.9 13.9 27 3.5 37-6.3 6.2-12 8.8-19.2 8.7-6.8 0-9.4-1.1-22.5-9.8a93 93 0 0 0-13.2-7.4c-4.9-1.7-5.8-2.6-3.5-3.5l9.7-4c17.1-7 27.6-14.1 33.4-22.3 4.3-6.2 4.5-6.2 11.8 1.3m-60 31.8c4.6 1.3 26.7 14.6 40.7 24.4a119 119 0 0 1 34 36.8 87 87 0 0 1-1.8 75.9c-3.5 7.2-12.6 18.4-14.9 18.4-4.4 0-18.6-14.2-20.3-20.2a65 65 0 0 1 1.6-25.3c1.9-9 1.9-13-.2-19.1a57 57 0 0 0-11.6-18.7c-4.1-4-15.1-11.1-30.7-20.2-19.1-11-29.2-17.9-33.9-23-3.8-4.1-4-4.6-2.9-7.5.6-1.7 3.6-5.9 6.7-9.2 11.3-12.2 21.4-16 33.3-12.3m171.6 30.9c5.4 4 10.9 8.7 12.1 10.4 10 14.1 7.2 31-5.2 31.2-5.9 0-12.9-6.3-17-15.4-3.7-8.1-4.6-33.6-1.2-33.6a63 63 0 0 1 11.3 7.4m-207.7 6.9c3.2 3 14 10.2 23.9 16.1a157 157 0 0 1 18 11.6c0 1.7-5.8 4-10 4-14 0-32-10.9-36.9-22.2-2.8-6.7-3.6-14.8-1.4-14.8.3 0 3.1 2.4 6.4 5.3m131.7 21.9c.5.7 1.3 2.9 1.7 4.8a109 109 0 0 0 7.5 21.2c0 2.1 9.1 15.9 13.9 21.1 6.9 7.4 13.6 10.7 21.9 10.7 8.2-.1 13.2-2.8 23.6-12.8s16.7-13.7 26.7-15.8c20-4.2 47.5 7.8 61.5 26.9 10.5 14.2 9.1 27-3.4 30.8-3.5 1-5 .9-9.9-.6-3.2-1-8.2-3.1-11.3-4.6-15.8-7.8-17.8-8.3-29.5-8.4-9.9 0-11.5.3-15.8 2.5a82 82 0 0 0-12.9 10.6c-4.6 4.5-10.8 9.7-13.8 11.6-13.6 8.7-29.8 8.9-45.9.7a86 86 0 0 1-23.6-21.7l-2.9-4.4 1.7-6.1c6.4-22.9 6.9-29.5 3.2-47.2-1.4-6.6-2.5-12.7-2.5-13.5.1-1.3 6.4-6.7 8.1-6.9q.7 0 1.7 1.1m-81 11.7a40 40 0 0 1 18.2 31.5 45 45 0 0 1-1.7 10.7c-1 3.2-1.7 8.9-1.7 13.9-.1 8.1.1 8.8 3.3 13.9 3.6 5.6 10.8 11.7 26.7 22.8a125 125 0 0 1 13.7 11A61 61 0 0 1 797 1698a35 35 0 0 1-17.5 21 149 149 0 0 1-24.6 10.8c-.4-.2.1-2.7 1.1-5.6a49 49 0 0 0-.4-37.9c-3.3-6.6-13.8-17.9-27.7-29.8-20.4-17.5-29.7-31.9-34.9-54.3-5-20.9.2-43.7 12.9-57.2 2.5-2.7 6.6-5.8 9.1-6.9 5.5-2.5 4.4-2.5 8.8-.2m181.3 70.3a111 111 0 0 1-1.5 34.3 65 65 0 0 1-16.9 27.7c-11.1 11.4-25.1 18.2-35.9 17.6l-5.3-.3-3.3-9.5a537 537 0 0 0-17.2-44c0-.3 3.9 0 8.8.8a52 52 0 0 0 17.6.2c14.1-1.7 18.8-4.4 34.3-19.9 7.7-7.7 12.6-11 16.5-11.1q1.8 0 2.9 4.2m-113.1 1.2c2.4 4 12.8 13.7 18.1 17.2 5.4 3.4 7.1 6 12.6 20.1 15.2 38.3 15.8 40.6 15.8 57.8-.1 11.1-.4 13.8-2.3 18.3a77 77 0 0 1-27.7 33c-6.4 4-6.7 4.1-14.7 8.8-6 3.6-12.5 9.8-15 14.6a20 20 0 0 0-1.8 9.5c0 5.2.6 7.3 3.8 13.5 2.1 4 6.2 10.6 9.1 14.7 7.7 10.7 9.1 14.2 9.1 23.2a41 41 0 0 1-10.6 29.3c-5.9 5.7-11.3 4.6-19.5-3.9q-7.3-7.4-11.5-24.4c-2.2-8.7-7-18.8-12.5-25.9a70 70 0 0 1-8.9-25.1 59 59 0 0 1 8.7-40.8c6-9.1 12.4-13.8 29.8-22.4 22.7-11.1 27.9-16.8 31.1-34.4 1.5-7.7 1.5-9.3 0-17.7a64 64 0 0 0-20.1-39.3l-8.9-7-3.8-3.1 4.6-4.9c2.6-2.8 6.1-7.1 7.8-9.8 1.7-2.6 3.5-4.7 3.9-4.7s1.7 1.5 2.9 3.4m-81.9 39.7c4.1 3.9 10.4 9.8 14.2 13.1 7 6.4 8 8.3 4.8 9.3-3 .9-12.3 11.4-15.3 17.2a41 41 0 0 0 3.6 43.3c1.6 2.5 6.3 7.9 10.4 12.2 6.7 6.9 7.3 7.8 6.2 9.8a71 71 0 0 0-5.8 20.4c-1 8.7-3.2 8.6-19.7-.8a81 81 0 0 1-41.1-50.1 77 77 0 0 1 .5-37 77 77 0 0 1 13.2-24.1c5-6.3 19.3-20.4 20.7-20.4.5 0 4.2 3.2 8.3 7.1m31.8 29.6c2.8 3.2 6.3 8.3 7.8 11.3 2.4 4.7 2.8 6.7 2.8 14.5 0 8.9-.8 12.5-5.8 27a57 57 0 0 1-4.4 9.8l-2.4 3.8-4.1-3.2a75 75 0 0 1-14.9-18.2 53 53 0 0 1-3.5-10.6c-1.5-6.6-1.5-7.4.4-14.9 1.1-4.4 3.3-10 4.7-12.4 3.7-5.8 10.5-12.8 12.6-12.8 1 0 4 2.6 6.8 5.7m555.1-473.2V1325h56.5c52.1 0 57.5-.2 69.3-2 20.2-3.3 32.6-7.3 50.7-16.5 34-17.2 56.4-43.4 65.7-76.8 3-10.8 3.3-35.2.5-46.2-11.3-44.3-45.5-76.3-97.2-91-18.6-5.3-34.9-6.4-96.2-6.5H1297zm119-108.6a126 126 0 0 1 57.5 31.8c15.1 14.8 23.1 29.8 29.1 54.3 2.6 10.5 2.6 37.5.1 47.5a107 107 0 0 1-31.4 55.6 111 111 0 0 1-52.8 28.5c-7.2 1.7-12.2 1.9-48.5 1.9h-40.5l-.3-109c-.1-60 0-110.1.3-111.3l.6-2.4 38.7.5c35.8.4 39.3.6 47.2 2.6m344.2 5.3c-4.5 9-13.6 26.9-20.3 39.8l-29.1 57a2477 2477 0 0 1-38 73l-15.8 29.5-7 13a99 99 0 0 1-5.3 9.3c-.8 1 .6 1.2 7.4 1l8.4-.3 6.5-13.1 15.9-32.5a371 371 0 0 1 11.4-22.2l1.8-2.7h145.8l1.9 2.7c1 1.6 9.2 17.5 18.1 35.5l16.1 32.8h17.5c9.9 0 17.5-.4 17.5-.9s-7.1-15-15.8-32.3l-49.2-97.3-44-87-10.7-21-12.4-.3-12.5-.3zm20.9 25.5 18.4 37.8 19.5 40c13.9 28.5 19 39.2 19 39.9 0 .3-31.5.6-70 .6s-70-.3-70-.6c0-.5 13.3-26.7 26-50.9 22.7-43.6 31.6-60.8 39-75.3a66 66 0 0 1 7.1-12.2c.5 0 5.5 9.3 11 20.7m223.6-41c-.4.3-.7 2.1-.7 4v3.3h46.4c25.5 0 47.1.3 48 .6 1.4.6 1.6 11.7 1.6 115.5V1325h33v-114.9c0-103.8.2-114.9 1.6-115.5.9-.3 22.3-.6 47.5-.6h46l-.3-3.8-.3-3.7-111.1-.3a4489 4489 0 0 0-111.7.5M1404 1383a172 172 0 0 0-74.5 31.1 111 111 0 0 0-43.5 90.6c0 16.1 3.2 29.5 10.6 44.6 17.8 36.2 54.4 62 101.9 71.9 9.7 2 13.7 2.2 34 2.2 20.7-.1 24.2-.4 35-2.7 12.1-2.6 18.6-4.3 26.1-7.1a172 172 0 0 0 22.9-11c1.9-1.5 1.9-1.7-3.4-6.5l-5.4-5-4.3 3a28 28 0 0 1-4.8 2.9 143.3 143.3 0 0 1-34.9 14.9 119 119 0 0 1-76.9-5.5c-25.2-11.1-41.4-26-52.1-47.7a110 110 0 0 1-11.8-53.7c0-50.6 19.4-86.3 57.1-104.6a113 113 0 0 1 65.8-8.9 117 117 0 0 1 60.4 26.6 34 34 0 0 0 5.1 3.9c.2 0 1.9-2.4 3.7-5.2 2.3-3.8 2.9-5.7 2.3-6.8q-2.3-3.5-19.5-12.4a130 130 0 0 0-47.2-14.6 152 152 0 0 0-46.6 0m1331 0a187 187 0 0 0-36.5 10l-8 3.4a118 118 0 0 0-68.3 71.6 128 128 0 0 0-3.6 56c7.2 35.1 32.2 65.2 68.9 83a151 151 0 0 0 74.5 16.3 155.8 155.8 0 0 0 86.3-21.2c.5-.5-1.5-3.1-4.4-5.8l-5.3-5.1-6.5 4a131 131 0 0 1-61.6 20.4 110 110 0 0 1-58.7-12.1 99 99 0 0 1-27.7-19c-14.9-14.1-24.5-33.1-29.2-58-2.1-10.9-1.6-36.7.9-49.7a113 113 0 0 1 19.7-47.8 107 107 0 0 1 47-33.6c8.1-2.7 25.4-5.4 35.2-5.4 9 0 28.8 2.8 36.1 5.1a130 130 0 0 1 41.6 21.6c5.8 4.7 6.6 5 7.8 3.5a38 38 0 0 0 5.8-9c0-2.3-11.4-9.6-24.8-15.8a129 129 0 0 0-42.6-12.4 152 152 0 0 0-46.6 0m-1101 121.5V1624h177.1l-.3-3.8-.3-3.7-71.7-.3-71.8-.2v-231h-33zm287 0V1624h33l-.2-119.3-.3-119.2-16.2-.3-16.3-.2zm164 0V1624h32v-100.9c0-67.8.3-101.2 1-101.6s19.4 17.5 41.8 39.8c178.4 177 163.4 162.6 169 162.7h4.2v-239h-33v100.5c0 55.3-.3 100.5-.7 100.5-.5 0-10.6-9.6-22.5-21.3l-155.9-153.4-26.5-26.3h-9.4zm379 0V1624h33l-.2-119.3-.3-119.2-16.2-.3-16.3-.2zm-947.5 201.7c-8.2 4.2-11.5 9.5-11.5 18.3 0 11.3 5.5 15.5 25.3 19 10.7 2 16.7 6.8 16.7 13.5 0 3.8-3.2 9.1-7.1 11.7-3.2 2.1-4.9 2.5-11.9 2.5-6.8 0-8.9-.5-13.3-2.7-2.9-1.5-6-3.4-7-4.3-1.9-1.7-1.9-1.7-3.6 1.6-1.5 2.8-1 3.6 3.9 6.7a41 41 0 0 0 22.5 5.2c8.6-.8 12.6-2.2 17.2-6.2 3.2-2.7 4.4-4.7 5.7-9.5 1.6-5.7 1.6-6.4.1-11-2.7-8.1-7.4-11.2-21-14-11.8-2.4-13.9-3.2-16.8-6.1-2.7-2.7-2.9-3.4-2.5-8.5.6-6.6 3.1-9.7 9.4-11.4 6-1.7 13.6-.7 20.7 2.8l5.8 2.9 1.7-2.4c1.5-2.4 1.5-2.6-.9-4.4-7.7-6-25.3-8-33.4-3.7m523.5-.5c-15.4 5.4-24.2 20.5-22.6 38.9 1.3 16.4 10.6 28 25.4 31.8a39 39 0 0 0 29.4-3.3c5.1-2.8 5.6-3.7 3.5-6.5-1.2-1.6-1.7-1.5-7.7 1.3-12 5.7-27.5 3.7-35.2-4.5-5.3-5.7-7.3-11.9-7.3-22.9.1-8.6.4-10.7 2.5-14.8a31 31 0 0 1 13.8-13.4c2.2-.9 6.8-1.5 11.9-1.5 7.1 0 9.2.4 14.8 3.1l6.6 3 1.1-2.5c1.1-2.3.9-2.8-1.2-4.4-1.4-1.1-5-2.8-8.1-4a51 51 0 0 0-26.9-.3m519 .1a33 33 0 0 0-22.2 27.9c-1.9 12.9 1.7 26.4 8.8 33.7a39 39 0 0 0 45.2 5.9c5.5-2.8 6-3.8 3.9-6.7-1.3-1.7-1.6-1.7-6.8 1a29 29 0 0 1-14.4 3.2c-8.3.3-9.4.1-14.5-2.5-10.3-5.3-15.7-16.2-14.7-29.7.7-9.8 2.1-13.6 6.7-18.9 6-6.7 11.4-9 21.6-8.9 7.2 0 9.3.4 14.9 3.1l6.6 3 1.1-2.5c1.1-2.3.9-2.8-1.2-4.4-7.6-5.8-25.1-7.8-35-4.2m-1221.6 2.9-2.4 5.8-3.5 8.5-3.5 8.5-3.5 8.5-3.5 8.5c-2.2 4.9-11 27-11 27.8 0 .4 1.6.7 3.6.5 3.9-.3 4.7-1.4 8.5-10.6l2.1-5.2h38.6l1.4 3.2c.9 1.8 2.4 5.4 3.4 8 1.8 4.6 2.1 4.8 5.8 4.8 4.5 0 4.6.8-1.4-13.5l-14-34-3.5-8.5a224 224 0 0 0-5.5-13.3c-.8-2.4-1.4-2.7-5.5-2.7-4.4 0-4.7.2-6.1 3.7m8 8.5 4.1 9.8 3.5 8.5c1.6 3.6 5.7 13.9 6.4 16.2l.7 2.3h-33.2l.6-2.3c.4-1.2 2.4-6.3 4.5-11.2 2-5 5.3-12.9 7.1-17.7 1.9-4.9 3.7-8.8 4.1-8.8s1.4 1.5 2.2 3.2m70.6 23.8v36h48v-6l-19.7-.2-19.8-.3-.3-13.8-.3-13.7h37.1v-6l-18.2-.2-18.3-.3-.3-12.8-.3-12.7h40.1v-6h-48zm175-33v3h10.8q10.7 0 12 1.2c.9.9 1.2 9.6 1.2 33.1v31.8l3.3-.3 3.2-.3.5-32.5.5-32.5 11.3-.3 11.2-.3v-5.9h-54zm94.5-1.7c-.3.6-.4 16.7-.3 35.7l.3 34.5h7l.3-16.8.2-16.7h44l.2 16.7.3 16.8h7l.3-35.8.2-35.7h-8v31h-44v-31h-3.5c-2 0-3.8.6-4 1.3M1789 1741v36h48v-6l-19.7-.2-19.8-.3-.3-13.8-.3-13.7h37.1v-6l-18.2-.2-18.3-.3-.3-12.8-.3-12.7h40.1v-6h-48zm85.4-34.5c-1.5 3.9.1 4.5 11.6 4.5h11l.2 32.7.3 32.8 3.7.3 3.8.3.2-32.8.3-32.8 11.3-.3 11.2-.3v-5.9h-26.5c-22.7 0-26.6.2-27.1 1.5m93.6 34.5v36h8v-72h-8zm203.5-34.7c-.3.6-.4 16.7-.3 35.7l.3 34.5 3.8.3 3.7.3v-31.7c0-27 .2-31.5 1.4-30.5q1.8 1.5 9.8 21.1l9.3 21.5 8.2 19 3.5.3 3.5.3 4.2-9.8 5.1-11.8 8.6-20c4.2-9.9 8.2-18.9 8.8-20 .8-1.5 1.2 5.5 1.6 29.5l.5 31.5 3.8.3 3.7.3V1705h-6.3c-6.9 0-6.7-.1-11.1 10a654 654 0 0 1-22.2 49.3c-.9.2-2.3-2.2-5-8.8l-3.4-8-3.5-8-3.5-8-6.1-14c-2.3-5.5-4.7-10.6-5.2-11.3-1.3-1.6-12.6-1.6-13.2.1M2295 1741v36h48v-6l-19.7-.2-19.8-.3-.3-13.8-.3-13.7h37.1v-6l-18.2-.2-18.3-.3-.3-12.8-.3-12.7h40.1v-6h-48zm90 0v36h12.8c7 0 15.7-.5 19.3-1q29-4.2 28.9-35 0-29.3-25.8-34.9a148 148 0 0 0-20.2-1.1h-15zm37-27.5c5.3 2.1 9.2 5.5 12.8 11 2.3 3.5 2.7 5.3 3 14.6.4 9.2.1 11.2-1.8 15.8a25 25 0 0 1-15.1 13.6c-3.1 1-8.9 1.7-16.1 1.8l-11.3.2-.3-29.9-.2-29.9 12.2.5c8.4.4 13.7 1.1 16.8 2.3m65.2 27.2.3 35.8h7l.3-35.8.2-35.7h-8zm149.8.4v36l3.8-.3 3.7-.3.3-35.8.2-35.7h-8zm52.2-.4.3 35.8 3.3.3 3.2.3v-29.5c0-17.9.4-29.7 1-30.1 1-.6 2.7 1.5 15.3 20.1a1279 1279 0 0 0 26.2 37.6q1.6 1.8 5.5 1.8h4v-72h-7v29.5c0 22.9-.3 29.5-1.2 29.5-.7 0-5-5.5-9.6-12.3l-18.4-26.7-11.6-17.2c-1.5-2.4-2.3-2.8-6.5-2.8h-4.7zm103.8.3v36l23.8-.2 23.7-.3.3-2.7.3-2.8-20.3-.2-20.3-.3-.3-13.8-.3-13.7h38.1v-6l-18.7-.2-18.8-.3v-25l20.3-.3 20.2-.2v-6h-48zm-1461.9 93.3c-10.4 5.2-12.8 17.1-5.5 27.9 1.9 2.8 3.4 5.1 3.4 5.3 0 .1-2.5 1.5-5.5 3a28 28 0 0 0-8.3 6.2c-2.4 3.2-2.7 4.5-2.7 10.8s.3 7.6 2.9 10.9q5.7 7.6 18.6 7.6c8.3 0 13.2-1.9 18.6-7.2l4.2-4 6.1 5.6c4.6 4.2 6.8 5.6 9.1 5.6 1.6 0 3-.5 3-1.2a40 40 0 0 0-7-8c-3.8-3.8-7-7.1-7-7.4s2.3-4 5-8.1c6.7-9.8 6.9-10.3 3.3-10.3-2.6 0-3.6 1-7.7 7-2.5 3.8-4.9 7-5.2 7-.9 0-15.4-14.9-15.4-15.7 0-.5 2.4-1.8 5.3-3.1 6.4-2.8 9-4.9 11.1-9a20 20 0 0 0 .2-15 20 20 0 0 0-26.5-7.9m18.1 7.6c4.3 4.8 3.8 13.9-1.1 17.9a42 42 0 0 1-11.4 5.2c-.7 0-2.9-2.3-4.9-5.1q-6.6-9-1.9-16.3c2.9-4.3 5.9-5.7 11.5-5.3 4.1.4 5.5 1 7.8 3.6m-5.9 38.9c4.8 4.8 8.7 9.2 8.7 9.8 0 1.8-6.3 7.1-10.4 8.8q-8 3.3-15.1-.7c-10.2-5.7-9.4-19 1.3-24.7 2.1-1 4.4-1.9 5.2-2 .9 0 5.5 3.9 10.3 8.8m693.4-47.1c-12.8 3.9-18.4 19.8-10.5 29.8q4.4 5.5 19.4 8c13.6 2.2 18.4 6 18.4 14.6 0 4-.6 5.5-3.1 8.3-6.1 7-21.2 7.3-32.1.6-4.9-3-5.2-3.1-6.5-1.4-2 2.8-1.6 4.1 2.4 6.6 7 4.3 12.4 5.8 21 5.8 16.6 0 26.3-7.8 26.3-21.3 0-10.7-6.6-16.2-23.5-19.7-12.8-2.6-14-3.1-16.5-7.3-2.5-4-2.5-6.8-.1-11.5 2.8-5.5 6.5-7.2 15.3-7.2 6.4 0 8.4.5 13.7 3.1 5.1 2.6 6.5 2.9 7.2 1.8q3.8-6-11-10.3a36 36 0 0 0-20.4.1m88.9.3c-8 3.1-11.7 7.6-13.1 15.6-1.9 11.8 6 19.6 22.5 21.9 7.1 1 13.5 3.4 15.8 5.8 3.1 3.3 3.8 10.3 1.5 14.7-4.8 9.2-21.6 10.6-33.9 2.8l-4.8-3-1.9 2.3c-1.9 2.4-1.9 2.4 1.4 5.1q8 7 22.7 6.8c7.4-.1 9.5-.5 14.2-2.8 8-3.9 11.4-9.4 11.4-18.3 0-5.7-.4-7.2-2.8-10.3-3.5-4.7-8.2-7-18.1-9-12.8-2.6-15.2-3.5-17.9-6.7-4.6-5.4-2.8-14 3.7-17.9 2.4-1.5 5-2 10.7-2 6.5 0 8.3.4 13.4 3.1 5.7 3 6 3.1 7.3 1.3 2-2.8 1.6-4-2.1-6.2a38 38 0 0 0-30-3.2m-690.6-.3c0 .9 4.5 15.6 9 29.3l6.9 21.5c7.1 22.2 6.8 21.5 10.6 21.5 4 0 4.6-.7 7.4-10l3.1-10c.4-1.4 2-6.3 3.3-11 6.9-23 9.3-30 10.1-29.7.7.2 3.1 7.7 14.7 46.2 4.2 13.9 4.2 14 8.6 14.3l3.9.3 4.2-12.8 7.8-24.3 7-21.8c4.4-13.5 4.4-14.4-.2-14-4.2.3-3.3-1.9-14.3 35.3-7.3 24.6-8.1 26.9-9.1 25.8-.5-.4-2.3-5.8-4-11.8l-5-17-5.5-18.5c-2-6.8-3.9-12.8-4.1-13.2-.8-1.3-7.1-.9-8.1.4a19 19 0 0 0-2.1 5.3 2840.2 2840.2 0 0 0-13.9 47.5 56 56 0 0 1-2.3 7c-1 1.8-1.8.1-5.1-11l-3.5-11.5-3.4-11.5c-1.2-4.1-2.7-9.3-3.5-11.5s-2.1-6.6-2.9-9.8l-1.7-5.7h-3.9c-2.2 0-4 .3-4 .7m140 35.8v36.5l23.8-.2 23.7-.3.3-3.2.3-3.3-20.3-.2-20.3-.3v-27l18.8-.3 18.7-.2v-6l-18.7-.2-18.8-.3v-24l20-.5 20-.5v-6l-23.7-.3-23.8-.2zm89.5-35.3c-.3.7-.4 17.1-.3 36.3l.3 35h42l.3-3.2.3-3.3-17.3-.2-17.3-.3-.5-32.5-.5-32.5-3.3-.3q-3.1-.2-3.7 1m82.5 35.3v36.5l21.3-.2 21.2-.3.3-3.2.3-3.3-17.3-.2-17.3-.3-.3-32.8-.2-32.7h-8zm83.5-35.3c-.3.7-.4 17.1-.3 36.3l.3 35 3.8.3 3.7.3v-29.9c0-16.4.3-30.2.6-30.5.6-.6 2.8 2.4 18.5 25.3l10 14.5c2 2.7 5.9 8.5 8.8 12.8 5.3 7.8 5.3 7.8 9.5 7.5l4.1-.3v-72l-3.7-.3-3.8-.3v30c0 16.6-.3 30.1-.8 30.1s-2.2-2.1-3.9-4.8l-7-10.2-11.8-17c-20.2-29.4-18.6-27.5-23.3-27.8q-4.2-.3-4.7 1m104 .1c-.3.6-.4 17-.3 36.2l.3 35h23.4c20.4 0 23.5-.2 24.4-1.6.6-.9.7-2.4.4-3.3-.6-1.4-3-1.6-20.6-1.6-17.2 0-20-.2-20.5-1.6-.3-.9-.6-6.4-.6-12.4s.3-11.5.6-12.4c.5-1.4 3.2-1.6 19.1-1.6h18.4l-.3-2.8-.3-2.7-18.5-.5-18.5-.5v-24l19.4-.3c12.3-.1 19.9-.6 20.8-1.3 1.8-1.6 1.6-4.6-.3-5.3a287 287 0 0 0-24-.6c-17.1 0-22.6.3-22.9 1.3"/><path d="M613 1009a490 490 0 0 0-159 36l-10.4 4.3a495.5 495.5 0 0 0-196.4 156.1 476 476 0 0 0-74.3 143.6 338 338 0 0 0-9.4 32.5l-3.5 15a495.8 495.8 0 0 0 5.5 231l3.5 13a568 568 0 0 0 23.7 63.5 576 576 0 0 0 36.2 66 496 496 0 0 0 229.9 188.3l8 3.2a552 552 0 0 0 71.7 20.9 505 505 0 0 0 57 8.6c11.2 1.2 79.2 1.2 90 0a487 487 0 0 0 132-31c2.8 0 44.3-19.3 60-27.9a550 550 0 0 0 41.2-25.6l9.9-7c23.3-16.2 59.2-49 82.1-75a582 582 0 0 0 56.6-79.2 1088 1088 0 0 0 24-48.3 497 497 0 0 0 39.7-165c2.4-31.3.2-75.1-5.4-110.5a552 552 0 0 0-18.4-75.5c-1.3-4.5-7.9-22.9-9.1-25.5-.5-1.1-3.7-8.3-6.9-16a496 496 0 0 0-61.1-104 522 522 0 0 0-90.6-90.7 505 505 0 0 0-84.4-52c-18.1-8.7-17.6-8.5-27.1-12.3l-9.5-3.9-9.5-3.6-8.5-3a498.6 498.6 0 0 0-187.5-26m59 10.5a470 470 0 0 1 184 50c45.9 22.9 87.7 53 124 89.5a472 472 0 0 1 70.6 89 486 486 0 0 1 66.4 183.5l1.9 15c2.5 18.6 3.5 53.5 2.2 77.4-.7 13-1.7 26.7-2.1 30.6-1.9 14.7-4 28.4-6 38.5l-3.1 15a588 588 0 0 1-16.8 57.5l-4 10.3a487 487 0 0 1-209.6 243.5 622 622 0 0 1-49 24.7 481.8 481.8 0 0 1-316.5 22.2 492 492 0 0 1-58.5-20.2l-8-3.4a517 517 0 0 1-111.9-68.6 431 431 0 0 1-34.6-31.9 460 460 0 0 1-71.5-90.1 506 506 0 0 1-52.4-119.6 594 594 0 0 1-10.6-46.9c-.4-2.2-1-6-1.6-8.5a503 503 0 0 1-3.1-23c-3-25-3.2-80.7-.5-102.5 3.4-26.4 5.9-42.4 7.7-49.5l3-13c5.3-22.8 15.7-55 24.5-75.5a484 484 0 0 1 262-259.6l9-3.4a417 417 0 0 1 38-13 466 466 0 0 1 58.5-13c20.9-3.2 25.2-3.7 42.5-5 25.2-1.7 40.7-1.7 65.5 0m-44.5 32.2c-31.5.9-78.6 7.8-104 15.3l-12 3.6a406 406 0 0 0-48.9 17.7 651 651 0 0 0-52.6 27.1 453 453 0 0 0-187.7 223.1c-10 25-21.8 69.2-24.8 93l-2 14.5a526 526 0 0 0 .5 113.5A449 449 0 0 0 300.2 1793a641 641 0 0 0 47.2 47.5 497 497 0 0 0 70.6 50.2c7.6 4.4 33.9 17.6 43 21.6a450 450 0 0 0 430.5-39.6 464 464 0 0 0 100.6-93.7 454 454 0 0 0 24.3-34l6.7-10.2c1-1.5 1.9-3 1.9-3.4s.8-1.8 1.9-3.2a451 451 0 0 0 16.3-424.6 450 450 0 0 0-206.8-206.8c-16.3-7.9-16-7.8-31.4-13.9-10.9-4.3-36.6-13-43.5-14.8l-12-3a465 465 0 0 0-122-13.4m43 10.4c17.1 1 21.1 1.4 38.5 3.9a437.5 437.5 0 0 1 108.5 32 442 442 0 0 1 252.6 311.5c1.8 8.3 2.9 15 5.8 34 1.6 10.3 4.1 45.9 4.1 57.5a698 698 0 0 1-4 56.5 460 460 0 0 1-13.1 64 537 537 0 0 1-19.9 55.3l-7.8 16.2a441 441 0 0 1-65.8 99.2 825 825 0 0 1-43.5 42.9l-15.5 12.4a439 439 0 0 1-388.4 76.9 437 437 0 0 1-196.1-117 445 445 0 0 1-85.9-125.9l-3.5-8c-6-13.4-13.4-34.3-17.9-50.5a401 401 0 0 1-16.5-101.5c-.9-22.1.1-61.3 1.8-69.9l1.6-11.1c1.1-10.6 4.6-28.9 10.5-53.5a605 605 0 0 1 15-45.5 440.7 440.7 0 0 1 142.5-190 460 460 0 0 1 48.6-32.7c8-4.6 36-18.7 43.4-21.9a570 570 0 0 1 33.1-12.7c8-2.7 13.1-4.2 28.4-8.7a454 454 0 0 1 58-11.4c5.7-.8 33.6-2.8 49-3.4 7-.3 14.1 0 36.5 1.4m-18 65.3c-3.5 1.6-5.1 4-6 9-.8 4.2-1.4 4.3-9.5 1.5-7.4-2.6-11-2.2-6.3.6 2.5 1.4 3 2.2 2.1 3.2q-1 1.2-2.3 1.3t-2.5 1.5c-1.5 1.9-1.2 1.9 6.2-.1 9.8-2.5 11.6-1.9 15.2 5.1a59 59 0 0 0 18.3 19.7c3.4 2.5 7 5.4 8 6.4 3.9 3.9.8 18.1-5.5 24.7a53 53 0 0 1-10.5 7c-7.1 3.8-10.3 6.1-23 16.9-3.6 3.1-5.5 3.9-11.3 4.8-3.8.5-7.9 1.3-9.1 1.6q-4.7 1.5.8-5.2a56 56 0 0 0 6.1-10.2c2.7-5.7 3-7 2.6-14.5-.4-9.7-2.8-15.3-11.8-27.8-10.1-14.2-17.9-22.1-25.6-25.9-6.6-3.2-7.4-3.4-17.9-3.3-24.6.1-40.7 8.4-39.1 20.1.7 5.5 3.3 9.1 10.4 14.5a87 87 0 0 0 26.4 14.2c10.3 3.3 12.8 5.4 12.8 11 0 2.3-.6 5-1.4 6-1.4 1.9-1.5 1.9-10.8 0a65 65 0 0 0-45.4 5.1 49 49 0 0 1-7.1 3.4c-.5 0-2.1-3.3-3.6-7.3a80 80 0 0 0-5.7-12 68 68 0 0 0-22.4-19.6c-8.2-4-14.6-5.2-27.8-5.2-19.8 0-29.9 3.2-32.7 10.4-1.3 3.4-1.2 4.4.3 9.3 3.5 11 17.1 21.5 35.1 26.9 11.1 3.4 12.5 4.5 12.5 10.1 0 3.3-.8 5.2-3.7 9.2a63 63 0 0 1-7.3 7.8l-4 3.4-6.5 4.6c-19.1 12.9-28.2 20.5-35.1 29.6a71 71 0 0 0-7.5 12.3c-3.6 8-6.9 21.8-6.9 28.8s3.1 18 6.9 24.7c1.7 3 3.1 5.8 3.1 6.2 0 1.8-11.8 6.2-16.6 6.3-12.1 0-19.3-13.2-15-27.6 2.7-8.7 4.4-11.3 18.4-27.9a46 46 0 0 0 11.9-36.3 57 57 0 0 0-18.2-37.1 75 75 0 0 0-24.3-16.7 42 42 0 0 0-22.6-1.9c-4 1.3-8.6 6.2-8.6 9.1 0 3.1-2.7 3.3-6.1.5-3-2.6-5.9-3.4-5.9-1.7q.1.9 1.5 2.1 3.4 2.9-1.2 3.1-3.2 0 1.5 1c8.3 1.6 9.5 2.7 12.3 11.2a52 52 0 0 0 16 25.5 59 59 0 0 1 9.5 11.6c.9 3.8-1.9 9.5-6.8 13.6a88 88 0 0 0-29 41.8 68 68 0 0 0 .4 36.9 68 68 0 0 0 45.6 44.7 80 80 0 0 0 36.2.5c1.2-.3 1.6 1.5 2.1 10.6a51 51 0 0 0 10.7 32.4c4.1 5.3 4.8 5.9 12.1 10.8a48 48 0 0 0 22.6 7.7l8 1.2.3 3.9c.2 2.2-.1 8.7-.7 14.5-2.2 20.8-8 29.7-29.6 45-11.9 8.4-13.3 9.8-14.5 14.2-2.3 8 4 15 22.5 24.8 13.5 7.2 14.6 10.9 6.8 24.2-5.2 8.9-4 16.2 3.9 22.8l3 2.5-1.6 3.9c-.9 2.1-1.6 5-1.6 6.3 0 4.3 4.1 10.2 9.7 13.9 2.9 1.9 5.7 4.3 6.3 5.4a27 27 0 0 1-.1 14.7 56 56 0 0 0-1.6 11.3c-.5 7.8-.3 9 2 13.5q9.9 19.8 43.4 18.2c13.8-.6 21.5-1.7 41.3-5.9l14.5-3.1 8.5 1.8c16.4 3.3 30.3 12.8 44.3 30.1 12.9 16 25.6 48.2 27.3 69.3.7 7.6 2.1 13.1 3.5 13.1 5.6 0 1-36.3-6.8-54-11.8-26.7-25.9-44.3-43.8-54.7-5.4-3.1-15.5-7-19.4-7.5s-3.5-2.2.9-4.1c2.2-.9 4.3-1.7 4.7-1.7 3.9 0 35.8-15.6 44.5-21.7 15.4-10.8 29-24.9 38.9-40.3 4.8-7.6 10.6-19.7 11.4-24.2.8-4.1 3.2-7 3.9-4.7 2.3 7.8 5.4 15.4 8.2 20.3l3.5 5.9-13.9 13.6c-17.5 17-22.2 25-25.7 43.4-5.9 30.9 7.5 60.7 35.5 79.5 11 7.3 20 11.3 30.3 13.6q2.8.5 2.7 2.9a88 88 0 0 0 6.2 22.1c1.1 2.2 4 6.9 6.4 10.4a64 64 0 0 1 10.3 22.2c5.3 18.2 10.5 26.6 19.2 31.1 2.3 1.1 3.9 2.7 3.9 3.7 0 4-4.2 14.1-7 16.7q-5.9 5.5.5 4.1c3.4-.7 3.5-.6 3.5 2.4q0 3 1.4 3c2.2 0 2.8-1.5 3.7-9.8 1.4-12.8 4-17.1 11.9-19.7 10.9-3.6 19-18.2 19-34.4 0-10.7-2.2-16.6-10.4-27.4-18.7-24.7-17.5-34.5 5.6-48.1 22.1-13.1 30.1-19.9 36.2-30.9a60 60 0 0 0 7.6-31.9c0-12.4-1.1-11.3 12-12.2 18.8-1.2 38.6-15.8 48.2-35.6a74 74 0 0 0 5.8-40.9c-.6-5.1-1-9.5-.7-9.7 1-1 9.1 1.8 19.2 6.7 12.7 6.1 19.1 7.4 28.7 5.9 3.9-.6 7.5-1.3 7.9-1.6 1.4-.8 5.4 2.4 8.8 7.1 5.8 8.1 8.8 9.9 7.6 4.6-.6-2.9-.5-3 3.7-3.3l4.3-.3-4-1.4a36 36 0 0 1-13.4-9.3c-.7-1.2-.6-2.5.6-4.9 2.6-5.2 2-13.7-1.3-20.5a94 94 0 0 0-20.8-23.1l-3.9-3 3.9-6.9a64 64 0 0 0 7.4-52.8l-2-7.9 4.8-5.1a72 72 0 0 0 16.3-39.8 73 73 0 0 0-27.1-67 82 82 0 0 0-21.3-11.3c-3.8-1-3.4-3.1 1.2-5.4 4.1-2.2 8.1-7.5 8.1-10.9 0-1.1 1.1-3 2.5-4.1a86 86 0 0 1 19.5-7.9l3.5-1-4.2-.1c-4.9-.1-5.2-.8-1.9-4.8 2.3-2.8 4.6-6.6 4.6-7.7q-.1-.5-1.8-.6c-1 0-4.6 3.1-8 6.9a53 53 0 0 1-10.4 9l-4.1 2-3.7-4.9c-7.4-9.9-14.2-13-30.7-13.7-12.8-.6-12.6-.4-9.8-9.6a72 72 0 0 0-3.5-50.4 65 65 0 0 0-38.3-32.5c-5-1.6-8.4-1.9-17.2-1.6q-10.8.3-10.8-.7l1.8-9.4c3.7-18.2-1.4-36.5-12-42.6-4.3-2.6-4.5-2.9-4.5-7.3.1-2.6.7-6.5 1.5-8.7s1.2-4.1.9-4.4c-.9-.9-3.4-.9-3.4 0 0 1.5-1.9 1-4.1-1.2q-4.6-4.6-2.9 5.6c.5 3.3 1 7.6 1 9.6 0 3.3-.3 3.7-5.3 5.7a34 34 0 0 0-18.8 23.3c-1 3.8-1 6.4.1 13.2.7 4.7 1 10.2.7 12.2-.7 4.5-3.9 11.1-5.2 10.8-.5-.1-1.7-3.5-2.5-7.5a40 40 0 0 0-13.9-23.8 53 53 0 0 0-15.6-11.4c-7.7-3.7-8.5-3.9-20-4.3-6.6-.3-12.6-.6-13.3-.9-.9-.2-.4-2 1.8-6.3 2.7-5.4 3-7 3-14.9 0-10.4-2.1-17.4-7.6-25.7-8.2-12.4-17.7-16.3-44.4-18.1-5.3-.3-8.4 0-10.5 1m25.4 5.5a35 35 0 0 1 27.1 22c1.9 5.2 2.2 7.5 1.8 15.5-.4 9.4-.5 9.6-7.1 22.8-7.6 15.1-9.7 20.6-9.7 25.5 0 10.9 11.2 15.8 26.7 11.8 7.7-2 10.6-1.2 14.9 4 4.9 6 5.6 11.4 2 14.8-5.9 5.5-22.6 9.4-33 7.7-7-1.1-9-2.3-19.7-12.3l-8.4-7.7.1-10.4a55 55 0 0 1 5-24.1c7.8-17.9 8.8-23.2 5.2-28.4a35 35 0 0 0-7.8-7.3c-16.9-11.6-26.3-27.5-19.9-33.9 1.9-1.9 2.9-2.1 9.3-1.6 3.9.2 10 1 13.5 1.6m-94.9 18.3c7.8 3.6 12.7 8.3 21.6 20.4 11.5 15.8 12.9 19 12.9 29.9 0 7.8-.4 9.7-2.7 14-3.6 7-16.6 20-26.3 26.3a72 72 0 0 0-23.2 23.1c-2 3.6-4.1 6.9-4.6 7.2s-5.1.9-10.4 1.3l-10.6.9c-1.9.3-2-6.1-.1-13.2 3.2-12.2 10.1-21.2 23.7-30.6 21.5-14.9 24.2-17.9 24.2-27.3 0-6.2-.1-6.6-3.7-9.6a27 27 0 0 0-8-4.5 115 115 0 0 1-27.8-14.4c-6.2-5.8-8-8.7-8-12.9 0-2.9.7-4.5 2.7-6.4 2.5-2.3 3.8-2.8 15.3-5.9a41 41 0 0 1 25 1.7m-117.4 27.4c9.1 1.9 13.7 4 21.5 9.9a46 46 0 0 1 19.9 38c0 17.8-7.6 30.3-31.1 51.2a219 219 0 0 0-15.7 15 52 52 0 0 0-6.2 21.8v5.4l-6.2 3.7c-3.6 2.1-11.8 9.2-19.1 16.3-14.4 14.1-13.3 14-16.9 2.6-5.7-18.1-.9-39.8 12.6-57.4 4.7-6.1 12.8-12.8 31.1-25.9 12.3-8.8 15.7-11.9 19.6-17.9 4.4-7 5.4-11.5 3.4-15.8-2.2-4.4-4.6-5.9-15.7-9.7-15.9-5.3-26.7-13.4-30.3-22.6-1.5-3.6-1.5-4.7-.5-7.3 1.7-4 5.4-5.8 15.2-7 4.6-.6 8.5-1.2 8.7-1.5.6-.6 1.2-.5 9.7 1.2m344.4 5.9c3.5 1.8 6 5.4 8.6 12a75 75 0 0 1 0 34 74 74 0 0 1-28 37.8c-3.3 2.4-11.5 7.4-18.1 11.2a86 86 0 0 0-34.9 34.7c-2 3.4-3.6 3.5-12.1.3-11.2-4.2-14.5-6.3-14.5-8.8 0-9.6 5.1-22.7 12-31.1 8.5-10.2 18.2-15.9 39.5-23.1 12.7-4.2 19.2-8 22-12.7 1.7-2.8 2.1-5.7 2.5-19.4.5-15.8.6-16.1 3.9-22.6 3.6-7.1 5.9-9.8 10.6-12.2 3.7-2 4.9-2 8.5-.1m-82.4 12.4c17.8 4.6 32.4 17.4 36.8 32.1 1.7 5.6 2.1 13.7.8 15.6a118 118 0 0 1-21.7 8.4c-.9 0-1.1-1.8-.7-6.8.3-5.2 0-7.6-1.3-10.3q-7.6-15-27.2-9.3c-6.7 1.9-11.2 1.3-14.4-2.2-4.6-4.9-2.4-19 3.8-24.6 5.4-4.9 12.7-5.8 23.9-2.9m-61 17.8c-.4 2.7-.9 8.1-1.3 12-.3 4-.8 7.3-1 7.3l-5.1-1.5-10.4-3c-3.2-.9-5.8-2-5.8-2.5 0-2 20.5-16.9 23.4-17 .5 0 .6 2.1.2 4.7m-97.3-.7c1.5.7 2.6 1.8 2.4 2.4a80 80 0 0 1-11.2 9.3c-19.3 14.4-26.7 24.3-28.7 38.3-2 13.7-1.3 12.7-11.1 17a96 96 0 0 0-13.9 7.5c-4.7 3.4-5.3 3.6-6.4 2.1-1.4-2-2.9-20.4-1.9-23.7.4-1.3 2.7-4.9 5-7.9a59 59 0 0 0 12.1-28.3c.7-5.2 3.3-8.1 10.8-11.9 10-5.2 17.4-6.8 29.1-6.5 6.5.2 12.1.9 13.8 1.7m-205.2 9.7a90 90 0 0 1 25.6 18.9c5.9 6.5 10.1 15 12 24.3 1.5 7.6 1.5 8.6-.2 16.4a53 53 0 0 1-15.8 28.6c-10.7 11.2-13.9 17.7-14.5 28.6-.5 10 .8 15 5.3 20.2 4.9 5.7 10.4 7.7 19.7 7.1 12.4-.9 16.6-3.6 38.3-24.7a86 86 0 0 1 28-20.7c17-7.8 37.4-6.2 53.1 4.2 2.9 2 11.5 10.1 19.1 18.1 20.8 22 31 28.2 52.6 31.8 2 .3 3.7 1 3.7 1.4 0 .5-1.2 2.6-2.6 4.7-5.6 8.2-12.4 21-14.5 27.1-1.2 3.8-2.6 6.3-3.5 6.3-1.9 0-19.9-7.2-24.9-10-6.7-3.7-14.5-10-25-20-16.1-15.5-22.5-19-34.3-19-12.8 0-18.1 2.6-38.8 19.1-22.2 17.8-29.7 22.2-42.4 25.5a58 58 0 0 1-52.2-16 60 60 0 0 1-16.6-63.1c4-13.1 7-17.7 22.8-34 16.4-16.9 16.6-20.1 2.1-34.5a54 54 0 0 1-12.3-16c-4.6-9.6-6.5-18.4-4.8-23.4 2.2-6.9 6.9-7.1 20.1-.9m287.4 12.2a78 78 0 0 1 31.4 19.7 54 54 0 0 1 10.5 54.1 66 66 0 0 1-44 39.8c-14.4 3.3-24.6.8-38.9-9.7a126 126 0 0 0-32-17.2c-7.2-2.3-21-4.6-28-4.6s-23.3 2.5-26.7 4c-1.9.9-3.2.6-7.3-1.6a62 62 0 0 0-19.7-6.4c-1.5 0-3-.4-3.3-1-1-1.5 2.4-7 7.9-12.8a82 82 0 0 1 52.6-23.8c18.3-1.3 36.5 5.3 58.5 21.2 16.1 11.7 20.7 13.7 29.3 13.2q13.1-.8 17.3-10.4c2.4-5.7 2.4-9.6.1-15.7-7.3-19.1-32.3-25.8-49.2-13.1a49 49 0 0 0-7.5 7c-1.9 3-2.3 2.9-13-1-3.8-1.4-9-2.8-11.5-3.2-9.2-1.2-9.6-1.9-5.5-8.5a81 81 0 0 1 42.5-30.8 75 75 0 0 1 36.5.8m198.9 3.1a61 61 0 0 1 34.1 30.1 75 75 0 0 1 6.5 28.8c-.1 13.5-5.1 29.4-10 31.7l-10.1 4.8a45 45 0 0 0-12.6 8.6c-5.7 5.7-5.9 5.6-6.9-3.8-.3-3.2-1.7-8.9-3-12.9-3-9-3-9.3.6-12.8 4.2-4 6-8.5 6-14.9q-.1-14.5-13.1-21.1a23 23 0 0 0-12.7-2.5c-9.4 0-14.1 1.7-19.4 6.8l-3.7 3.5-10.2-1.3c-17.2-2.2-16.9-1.6-4.9-9.6 5.8-3.8 12.2-8.4 14.4-10.3a98 98 0 0 0 14.9-19.2c3.1-5.5 4.7-6.9 9-8 4.4-1.1 14.9-.1 21.1 2.1m-123.5 22.8a63 63 0 0 0-17.2 20.4 27 27 0 0 1-3.9 6.7c-.3.1-.9-2.2-1.3-5.1a63 63 0 0 0-3.7-12.2c-1.6-3.9-3-7.5-3.1-8.1s4.4-1.3 10.8-1.7c7.1-.4 12.8-1.4 16-2.7 6-2.3 7.2-1 2.4 2.7m-89.7 9.7a24 24 0 0 1 13.4 13c2.9 6 2.9 8.7.5 14.1-3.4 7.5-8.8 9.2-17.4 5.4a140 140 0 0 1-26.5-19.5c-.5-2.3 5.8-8.3 12-11.5a21 21 0 0 1 18-1.5M492 1282c.6 3.6 1.9 8.4 2.7 10.8 1.4 4.2 1.3 4.4-1.5 8-1.6 2-4 5.6-5.3 7.8-2.3 4.1-2.4 4.2-9.4 4.9-3.8.3-9.1 1.2-11.7 2s-5 1-5.3.5c-1-1.6 1.3-13.7 3.3-17.6 1.1-2.1 3.5-5.6 5.4-7.6 4.8-5.4 19.1-16.9 19.9-16 .3.4 1.2 3.6 1.9 7.2m341-2c7.5 2.1 15 11.5 15 18.7 0 3.9-2.1 10.1-4 11.8-1.6 1.5-2 1.2-5.4-3.3a48 48 0 0 0-16.3-14.6c-7.6-3.9-8.7-5-7.6-7.1 1.4-2.4 9.1-6.5 12.3-6.5 1.4 0 4.1.4 6 1m-41.5 6.5c6.4.7 16.5 4 23.5 7.7 14.2 7.6 24.7 23.9 28.5 44.3 1.5 7.7 1.6 10.2.6 17-2.2 14.3-9.8 32.6-16.7 39.8l-2.6 2.9-8.3-8.4a122 122 0 0 0-15.4-12.8c-3.8-2.5-7-4.8-7-5.2-.1-.3 2.1-2.4 4.8-4.5 6.4-5 9.1-10.3 9.1-17.9 0-9.4-4.1-15.5-14-20.6-3.9-2-6-2.3-15.5-2.3s-11.7.3-16 2.4c-2.7 1.3-5.7 3-6.6 3.8-1.4 1.1-1.9 1-4-.9l-6.8-6-4.2-3.6 2.2-4.4c3.5-6.8 13.3-19.2 19.1-24 8.5-7 8.8-7.2 13.7-7.8a50 50 0 0 1 15.6.5m-75.1 30.2c3.3 1.5 10.3 5.2 15.5 8.3a69 69 0 0 1 23.4 99c-9.2 14.5-22.1 23.2-46.8 31.5a143 143 0 0 0-27.6 11.2c-18.1 10.4-27.1 31-20.8 47.7 4.3 11.7 17.1 21.1 31.9 23.8q10 1.7 6.6 5a81 81 0 0 0-10.6 17.9 69 69 0 0 0-3 11.9c-1.8 11.3-1.6 11-5.3 10.3a101 101 0 0 1-29.9-14.5 85 85 0 0 1-35.8-51.3c-2-7.9-2.2-10.7-1.7-22.5a76 76 0 0 1 6.8-31.5c2.3-5.2 9.5-15.8 14.3-21.1a127 127 0 0 1 48.1-29.8c20.7-7.3 26.9-10.1 32.6-15.3a22 22 0 0 0 8.1-18c.1-11.3-7.1-21.2-19.7-27.4-6.7-3.3-7.4-3.4-18-3.3-9 0-12 .5-16.4 2.3-21.8 8.9-39.7 33-44.6 60.2-1.7 9-1.7 10.1-.2 17.7 2.1 10.5 2.1 14.6 0 16.3-5.1 4.2-13 21-15.8 33.5l-2.1 8.3c-1.1 3.1-14.2-12.9-19.6-23.9a70 70 0 0 1 1.3-65.6c5.3-9.6 30.3-41.3 34.3-43.5.6-.4 5.6-.3 11.1.3a57 57 0 0 0 45.7-12.1c8-6.1 12.2-10.9 18.5-21.3l4.8-8 4.4.6c2.4.3 7.1 1.8 10.5 3.3m-150.5 7.7c13.9 4 20.9 7.3 31.8 15.4 4.4 3.3 9.9 7 12.1 8.3 2.3 1.3 4.2 2.9 4.2 3.6s-2.4 3.7-5.2 6.9c-14.9 16-12.9 14.9-22.8 12.4a74 74 0 0 1-26.1-11.8c-7.5-5.5-33.4-32.2-32.3-33.2.5-.4 2.9-1.5 5.4-2.4 5.5-2 24.5-1.5 32.9.8m220.4 7.6c15.1 5.7 19 20.8 8 31.2-4.4 4.2-10.7 6.1-15.5 4.6-4.7-1.4-7.1-4.2-9.4-11.1a74 74 0 0 0-9.7-17.4c-1.7-2.3 11.6-8.9 18.5-9.2 1.5-.1 5.1.8 8.1 1.9m122.8-.4c15.6 3.4 25.9 13.7 23 22.7-1.8 5.4-6.4 8.1-23.6 13.8-17.9 6-26.9 11.8-32.3 20.9-2.5 4.1-2.7 5.4-2.6 14.5a39 39 0 0 0 8.9 27.1c6 8.4 11.1 12.6 29.8 25 9 6 18.5 13.2 22 16.7 20.6 20.7 25.9 45.1 15.4 71.7-2 5.2-6.5 14-7.2 14l-8.1-3.7-7.9-3.8-15 .1c-13.3 0-15.7.3-21 2.3a79 79 0 0 0-24.1 16.1c-10.1 9-14.7 11.3-19.4 10s-12-7.3-17.3-14.1a143 143 0 0 1-19.1-40.9c-.6-3.3-.3-3.9 6.3-10.2a88 88 0 0 0 24.6-40.6c1.1-3.9 2.2-7.2 2.6-7.2s1.4 1.1 2.3 2.4c2.1 3.2 12.5 13.9 15.4 15.7 2.2 1.4 2.2 1.5.7 6.9-.8 3-1.8 9.1-2.1 13.5-1.4 17.3 6.7 34 18.4 38 15.6 5.3 29.1-4.3 28-19.9-.9-12.5-7.1-20.4-26.1-33-26.5-17.6-34.5-27.8-37.2-48.1a93 93 0 0 0-12.3-33.5c-2.8-4.5-2.8-4.8 1.1-9.1a77 77 0 0 0 16.7-30.4 44 44 0 0 1 17-24.6 64 64 0 0 1 22.8-11.9 33 33 0 0 1 20.3-.4m-218.8 21c15.4 4 26.1 17.3 24.3 30.3-1.6 11.8-10.3 17.3-45.9 28.8-4.1 1.3-18.1 8.5-22.5 11.5-2.6 1.8-6.8 5.2-9.4 7.6l-4.8 4.4-1-2.6a65 65 0 0 1 1-27.1c6.8-24.3 25.6-46.8 44-52.6 7-2.2 7.1-2.2 14.3-.3m97.1 23a94 94 0 0 1 47.7 63.9 89 89 0 0 1-2.4 36 91 91 0 0 1-24.5 36.7c-6.7 6.2-15.1 12-16.6 11.5-.6-.2-3.6-4-6.6-8.5a104 104 0 0 0-24.2-25.4c-5.5-3.4-5.9-4.5-2-5.4 13.6-3.1 24.9-11.5 27.2-20.4 1.6-5.9.6-16.4-1.9-21.5a56 56 0 0 0-10.6-13.6c-4.2-3.4-7.5-6.8-7.5-7.7 0-.5 1.2-3.6 2.6-6.8a79 79 0 0 0 6.4-32.6v-11l2.7.7c1.5.3 5.9 2.2 9.7 4.1m-305.4-2c0 .9-.7 2.8-1.4 4.2a174 174 0 0 0-9.6 23.2c-6.2 18.6-6.5 20.8-6.4 47.9l.1 25.3-5.1-.6a58 58 0 0 1-24.2-11.8 55 55 0 0 1-13.5-20.8 40 40 0 0 1-2.3-15.6c-.1-11.1 1.1-13.2 9.3-17.4 5.3-2.6 14.1-9.3 31.1-23.5a83 83 0 0 1 20.8-12.5q1 .1 1.2 1.6m14.1 1c3 1.5 9.9 7.2 16.8 13.9 14.3 13.9 18.9 17.5 28.9 22.5 7 3.5 25 10 27.8 10q1 0 1.7 13a66 66 0 0 0 8.9 34c5.6 9.8 14.8 21 19.8 24.4 4.4 2.9 4.4 3 5.9 17.1a81 81 0 0 0 18.5 44.9 91 91 0 0 0 52.1 33l5 1.2-.3 3.9c-.6 9.1-5.3 24.9-10.6 35.5a101 101 0 0 1-20.6 28.3 149 149 0 0 1-52.9 35.9 311 311 0 0 1-67.5 20c-6.5 1.6-26.3 1.2-33.1-.7a32 32 0 0 1-17.4-11.3q-4.7-7-2.1-26.3c1.8-13.6 1-16.2-7.5-22.8-3.9-3.1-6.7-6.1-7.1-7.7-1-4.1.8-9.5 3.9-11.8 2.7-2 3.9-2.1 20.2-1.8 17.6.3 21.5-.3 21.5-3.3 0-1.2-1.5-1.4-7.8-1.2l-7.8.2-13.5-6.8c-11.7-5.8-14.2-6.8-18-6.5l-4.4.3 4.5 2.4a46 46 0 0 1 13 9c0 .5-2.6 1.1-5.7 1.5-5.5.6-5.8.6-9.1-2.7-5.3-5.3-5.4-10-.7-17.9a25 25 0 0 0 4.3-12.1c.6-7.3.1-7.8-14.8-16.7-12.6-7.4-18-12.5-18-16.7 0-3.4 8.2-11.5 16.1-16.1a54 54 0 0 0 19.4-20.7c6.6-13.9 8.3-29 6.6-58.4-1.3-21.5-.4-35.4 3-50.1 4.3-18.1 13.1-42 15.5-42zm428.5-.6a69 69 0 0 1 43.2 41.3c5 13.4 5 35.8-.2 50-4.2 11.5-12.2 24.3-13.3 21.2a75 75 0 0 0-4.5-7.5 66 66 0 0 0-19-19.4l-5.5-3.5.5-10.3c.4-9.2.2-11-1.8-15.6-4.7-10.9-14-15.9-31.7-17.1-10.7-.7-12.2-1.8-12.3-9.2-.1-13.1 9.5-24.2 25.5-29.7a25 25 0 0 1 19.1-.2m-22.3 46.2c7 2.5 12.9 8.1 14.6 13.9a44 44 0 0 1 .7 16.6c-1.1 1.1-17.6-11-23.2-17-6-6.5-10.4-13.3-9.7-15.4.6-1.7 10.6-.6 17.6 1.9m-133.1 14.5c12.5 12.9 13.9 27 3.5 37-6.3 6.2-12 8.8-19.2 8.7-6.8 0-9.4-1.1-22.5-9.8a93 93 0 0 0-13.2-7.4c-4.9-1.7-5.8-2.6-3.5-3.5l9.7-4c17.1-7 27.6-14.1 33.4-22.3 4.3-6.2 4.5-6.2 11.8 1.3m-60 31.8c4.6 1.3 26.7 14.6 40.7 24.4a119 119 0 0 1 34 36.8 87 87 0 0 1-1.8 75.9c-3.5 7.2-12.6 18.4-14.9 18.4-4.4 0-18.6-14.2-20.3-20.2a65 65 0 0 1 1.6-25.3c1.9-9 1.9-13-.2-19.1a57 57 0 0 0-11.6-18.7c-4.1-4-15.1-11.1-30.7-20.2-19.1-11-29.2-17.9-33.9-23-3.8-4.1-4-4.6-2.9-7.5.6-1.7 3.6-5.9 6.7-9.2 11.3-12.2 21.4-16 33.3-12.3m171.6 30.9c5.4 4 10.9 8.7 12.1 10.4 10 14.1 7.2 31-5.2 31.2-5.9 0-12.9-6.3-17-15.4-3.7-8.1-4.6-33.6-1.2-33.6a63 63 0 0 1 11.3 7.4m-207.7 6.9c3.2 3 14 10.2 23.9 16.1a157 157 0 0 1 18 11.6c0 1.7-5.8 4-10 4-14 0-32-10.9-36.9-22.2-2.8-6.7-3.6-14.8-1.4-14.8.3 0 3.1 2.4 6.4 5.3m131.7 21.9c.5.7 1.3 2.9 1.7 4.8a109 109 0 0 0 7.5 21.2c0 2.1 9.1 15.9 13.9 21.1 6.9 7.4 13.6 10.7 21.9 10.7 8.2-.1 13.2-2.8 23.6-12.8s16.7-13.7 26.7-15.8c20-4.2 47.5 7.8 61.5 26.9 10.5 14.2 9.1 27-3.4 30.8-3.5 1-5 .9-9.9-.6-3.2-1-8.2-3.1-11.3-4.6-15.8-7.8-17.8-8.3-29.5-8.4-9.9 0-11.5.3-15.8 2.5a82 82 0 0 0-12.9 10.6c-4.6 4.5-10.8 9.7-13.8 11.6-13.6 8.7-29.8 8.9-45.9.7a86 86 0 0 1-23.6-21.7l-2.9-4.4 1.7-6.1c6.4-22.9 6.9-29.5 3.2-47.2-1.4-6.6-2.5-12.7-2.5-13.5.1-1.3 6.4-6.7 8.1-6.9q.7 0 1.7 1.1m-81 11.7a40 40 0 0 1 18.2 31.5 45 45 0 0 1-1.7 10.7c-1 3.2-1.7 8.9-1.7 13.9-.1 8.1.1 8.8 3.3 13.9 3.6 5.6 10.8 11.7 26.7 22.8a125 125 0 0 1 13.7 11A61 61 0 0 1 797 1698a35 35 0 0 1-17.5 21 149 149 0 0 1-24.6 10.8c-.4-.2.1-2.7 1.1-5.6a49 49 0 0 0-.4-37.9c-3.3-6.6-13.8-17.9-27.7-29.8-20.4-17.5-29.7-31.9-34.9-54.3-5-20.9.2-43.7 12.9-57.2 2.5-2.7 6.6-5.8 9.1-6.9 5.5-2.5 4.4-2.5 8.8-.2m181.3 70.3a111 111 0 0 1-1.5 34.3 65 65 0 0 1-16.9 27.7c-11.1 11.4-25.1 18.2-35.9 17.6l-5.3-.3-3.3-9.5a537 537 0 0 0-17.2-44c0-.3 3.9 0 8.8.8a52 52 0 0 0 17.6.2c14.1-1.7 18.8-4.4 34.3-19.9 7.7-7.7 12.6-11 16.5-11.1q1.8 0 2.9 4.2m-113.1 1.2c2.4 4 12.8 13.7 18.1 17.2 5.4 3.4 7.1 6 12.6 20.1 15.2 38.3 15.8 40.6 15.8 57.8-.1 11.1-.4 13.8-2.3 18.3a77 77 0 0 1-27.7 33c-6.4 4-6.7 4.1-14.7 8.8-6 3.6-12.5 9.8-15 14.6a20 20 0 0 0-1.8 9.5c0 5.2.6 7.3 3.8 13.5 2.1 4 6.2 10.6 9.1 14.7 7.7 10.7 9.1 14.2 9.1 23.2a41 41 0 0 1-10.6 29.3c-5.9 5.7-11.3 4.6-19.5-3.9q-7.3-7.4-11.5-24.4c-2.2-8.7-7-18.8-12.5-25.9a70 70 0 0 1-8.9-25.1 59 59 0 0 1 8.7-40.8c6-9.1 12.4-13.8 29.8-22.4 22.7-11.1 27.9-16.8 31.1-34.4 1.5-7.7 1.5-9.3 0-17.7a64 64 0 0 0-20.1-39.3l-8.9-7-3.8-3.1 4.6-4.9c2.6-2.8 6.1-7.1 7.8-9.8 1.7-2.6 3.5-4.7 3.9-4.7s1.7 1.5 2.9 3.4m-81.9 39.7c4.1 3.9 10.4 9.8 14.2 13.1 7 6.4 8 8.3 4.8 9.3-3 .9-12.3 11.4-15.3 17.2a41 41 0 0 0 3.6 43.3c1.6 2.5 6.3 7.9 10.4 12.2 6.7 6.9 7.3 7.8 6.2 9.8a71 71 0 0 0-5.8 20.4c-1 8.7-3.2 8.6-19.7-.8a81 81 0 0 1-41.1-50.1 77 77 0 0 1 .5-37 77 77 0 0 1 13.2-24.1c5-6.3 19.3-20.4 20.7-20.4.5 0 4.2 3.2 8.3 7.1m31.8 29.6c2.8 3.2 6.3 8.3 7.8 11.3 2.4 4.7 2.8 6.7 2.8 14.5 0 8.9-.8 12.5-5.8 27a57 57 0 0 1-4.4 9.8l-2.4 3.8-4.1-3.2a75 75 0 0 1-14.9-18.2 53 53 0 0 1-3.5-10.6c-1.5-6.6-1.5-7.4.4-14.9 1.1-4.4 3.3-10 4.7-12.4 3.7-5.8 10.5-12.8 12.6-12.8 1 0 4 2.6 6.8 5.7m555.1-473.2V1325h56.5c52.1 0 57.5-.2 69.3-2 20.2-3.3 32.6-7.3 50.7-16.5 34-17.2 56.4-43.4 65.7-76.8 3-10.8 3.3-35.2.5-46.2-11.3-44.3-45.5-76.3-97.2-91-18.6-5.3-34.9-6.4-96.2-6.5H1297zm119-108.6a126 126 0 0 1 57.5 31.8c15.1 14.8 23.1 29.8 29.1 54.3 2.6 10.5 2.6 37.5.1 47.5a107 107 0 0 1-31.4 55.6 111 111 0 0 1-52.8 28.5c-7.2 1.7-12.2 1.9-48.5 1.9h-40.5l-.3-109c-.1-60 0-110.1.3-111.3l.6-2.4 38.7.5c35.8.4 39.3.6 47.2 2.6m344.2 5.3c-4.5 9-13.6 26.9-20.3 39.8l-29.1 57a2477 2477 0 0 1-38 73l-15.8 29.5-7 13a99 99 0 0 1-5.3 9.3c-.8 1 .6 1.2 7.4 1l8.4-.3 6.5-13.1 15.9-32.5a371 371 0 0 1 11.4-22.2l1.8-2.7h145.8l1.9 2.7c1 1.6 9.2 17.5 18.1 35.5l16.1 32.8h17.5c9.9 0 17.5-.4 17.5-.9s-7.1-15-15.8-32.3l-49.2-97.3-44-87-10.7-21-12.4-.3-12.5-.3zm20.9 25.5 18.4 37.8 19.5 40c13.9 28.5 19 39.2 19 39.9 0 .3-31.5.6-70 .6s-70-.3-70-.6c0-.5 13.3-26.7 26-50.9 22.7-43.6 31.6-60.8 39-75.3a66 66 0 0 1 7.1-12.2c.5 0 5.5 9.3 11 20.7m223.6-41c-.4.3-.7 2.1-.7 4v3.3h46.4c25.5 0 47.1.3 48 .6 1.4.6 1.6 11.7 1.6 115.5V1325h33v-114.9c0-103.8.2-114.9 1.6-115.5.9-.3 22.3-.6 47.5-.6h46l-.3-3.8-.3-3.7-111.1-.3a4489 4489 0 0 0-111.7.5M1404 1383a172 172 0 0 0-74.5 31.1 111 111 0 0 0-43.5 90.6c0 16.1 3.2 29.5 10.6 44.6 17.8 36.2 54.4 62 101.9 71.9 9.7 2 13.7 2.2 34 2.2 20.7-.1 24.2-.4 35-2.7 12.1-2.6 18.6-4.3 26.1-7.1a172 172 0 0 0 22.9-11c1.9-1.5 1.9-1.7-3.4-6.5l-5.4-5-4.3 3a28 28 0 0 1-4.8 2.9 143.3 143.3 0 0 1-34.9 14.9 119 119 0 0 1-76.9-5.5c-25.2-11.1-41.4-26-52.1-47.7a110 110 0 0 1-11.8-53.7c0-50.6 19.4-86.3 57.1-104.6a113 113 0 0 1 65.8-8.9 117 117 0 0 1 60.4 26.6 34 34 0 0 0 5.1 3.9c.2 0 1.9-2.4 3.7-5.2 2.3-3.8 2.9-5.7 2.3-6.8q-2.3-3.5-19.5-12.4a130 130 0 0 0-47.2-14.6 152 152 0 0 0-46.6 0m1331 0a187 187 0 0 0-36.5 10l-8 3.4a118 118 0 0 0-68.3 71.6 128 128 0 0 0-3.6 56c7.2 35.1 32.2 65.2 68.9 83a151 151 0 0 0 74.5 16.3 155.8 155.8 0 0 0 86.3-21.2c.5-.5-1.5-3.1-4.4-5.8l-5.3-5.1-6.5 4a131 131 0 0 1-61.6 20.4 110 110 0 0 1-58.7-12.1 99 99 0 0 1-27.7-19c-14.9-14.1-24.5-33.1-29.2-58-2.1-10.9-1.6-36.7.9-49.7a113 113 0 0 1 19.7-47.8 107 107 0 0 1 47-33.6c8.1-2.7 25.4-5.4 35.2-5.4 9 0 28.8 2.8 36.1 5.1a130 130 0 0 1 41.6 21.6c5.8 4.7 6.6 5 7.8 3.5a38 38 0 0 0 5.8-9c0-2.3-11.4-9.6-24.8-15.8a129 129 0 0 0-42.6-12.4 152 152 0 0 0-46.6 0m-1101 121.5V1624h177.1l-.3-3.8-.3-3.7-71.7-.3-71.8-.2v-231h-33zm287 0V1624h33l-.2-119.3-.3-119.2-16.2-.3-16.3-.2zm164 0V1624h32v-100.9c0-67.8.3-101.2 1-101.6s19.4 17.5 41.8 39.8c178.4 177 163.4 162.6 169 162.7h4.2v-239h-33v100.5c0 55.3-.3 100.5-.7 100.5-.5 0-10.6-9.6-22.5-21.3l-155.9-153.4-26.5-26.3h-9.4zm379 0V1624h33l-.2-119.3-.3-119.2-16.2-.3-16.3-.2zm-947.5 201.7c-8.2 4.2-11.5 9.5-11.5 18.3 0 11.3 5.5 15.5 25.3 19 10.7 2 16.7 6.8 16.7 13.5 0 3.8-3.2 9.1-7.1 11.7-3.2 2.1-4.9 2.5-11.9 2.5-6.8 0-8.9-.5-13.3-2.7-2.9-1.5-6-3.4-7-4.3-1.9-1.7-1.9-1.7-3.6 1.6-1.5 2.8-1 3.6 3.9 6.7a41 41 0 0 0 22.5 5.2c8.6-.8 12.6-2.2 17.2-6.2 3.2-2.7 4.4-4.7 5.7-9.5 1.6-5.7 1.6-6.4.1-11-2.7-8.1-7.4-11.2-21-14-11.8-2.4-13.9-3.2-16.8-6.1-2.7-2.7-2.9-3.4-2.5-8.5.6-6.6 3.1-9.7 9.4-11.4 6-1.7 13.6-.7 20.7 2.8l5.8 2.9 1.7-2.4c1.5-2.4 1.5-2.6-.9-4.4-7.7-6-25.3-8-33.4-3.7m523.5-.5c-15.4 5.4-24.2 20.5-22.6 38.9 1.3 16.4 10.6 28 25.4 31.8a39 39 0 0 0 29.4-3.3c5.1-2.8 5.6-3.7 3.5-6.5-1.2-1.6-1.7-1.5-7.7 1.3-12 5.7-27.5 3.7-35.2-4.5-5.3-5.7-7.3-11.9-7.3-22.9.1-8.6.4-10.7 2.5-14.8a31 31 0 0 1 13.8-13.4c2.2-.9 6.8-1.5 11.9-1.5 7.1 0 9.2.4 14.8 3.1l6.6 3 1.1-2.5c1.1-2.3.9-2.8-1.2-4.4-1.4-1.1-5-2.8-8.1-4a51 51 0 0 0-26.9-.3m519 .1a33 33 0 0 0-22.2 27.9c-1.9 12.9 1.7 26.4 8.8 33.7a39 39 0 0 0 45.2 5.9c5.5-2.8 6-3.8 3.9-6.7-1.3-1.7-1.6-1.7-6.8 1a29 29 0 0 1-14.4 3.2c-8.3.3-9.4.1-14.5-2.5-10.3-5.3-15.7-16.2-14.7-29.7.7-9.8 2.1-13.6 6.7-18.9 6-6.7 11.4-9 21.6-8.9 7.2 0 9.3.4 14.9 3.1l6.6 3 1.1-2.5c1.1-2.3.9-2.8-1.2-4.4-7.6-5.8-25.1-7.8-35-4.2m-1221.6 2.9-2.4 5.8-3.5 8.5-3.5 8.5-3.5 8.5-3.5 8.5c-2.2 4.9-11 27-11 27.8 0 .4 1.6.7 3.6.5 3.9-.3 4.7-1.4 8.5-10.6l2.1-5.2h38.6l1.4 3.2c.9 1.8 2.4 5.4 3.4 8 1.8 4.6 2.1 4.8 5.8 4.8 4.5 0 4.6.8-1.4-13.5l-14-34-3.5-8.5a224 224 0 0 0-5.5-13.3c-.8-2.4-1.4-2.7-5.5-2.7-4.4 0-4.7.2-6.1 3.7m8 8.5 4.1 9.8 3.5 8.5c1.6 3.6 5.7 13.9 6.4 16.2l.7 2.3h-33.2l.6-2.3c.4-1.2 2.4-6.3 4.5-11.2 2-5 5.3-12.9 7.1-17.7 1.9-4.9 3.7-8.8 4.1-8.8s1.4 1.5 2.2 3.2m70.6 23.8v36h48v-6l-19.7-.2-19.8-.3-.3-13.8-.3-13.7h37.1v-6l-18.2-.2-18.3-.3-.3-12.8-.3-12.7h40.1v-6h-48zm175-33v3h10.8q10.7 0 12 1.2c.9.9 1.2 9.6 1.2 33.1v31.8l3.3-.3 3.2-.3.5-32.5.5-32.5 11.3-.3 11.2-.3v-5.9h-54zm94.5-1.7c-.3.6-.4 16.7-.3 35.7l.3 34.5h7l.3-16.8.2-16.7h44l.2 16.7.3 16.8h7l.3-35.8.2-35.7h-8v31h-44v-31h-3.5c-2 0-3.8.6-4 1.3M1789 1741v36h48v-6l-19.7-.2-19.8-.3-.3-13.8-.3-13.7h37.1v-6l-18.2-.2-18.3-.3-.3-12.8-.3-12.7h40.1v-6h-48zm85.4-34.5c-1.5 3.9.1 4.5 11.6 4.5h11l.2 32.7.3 32.8 3.7.3 3.8.3.2-32.8.3-32.8 11.3-.3 11.2-.3v-5.9h-26.5c-22.7 0-26.6.2-27.1 1.5m93.6 34.5v36h8v-72h-8zm203.5-34.7c-.3.6-.4 16.7-.3 35.7l.3 34.5 3.8.3 3.7.3v-31.7c0-27 .2-31.5 1.4-30.5q1.8 1.5 9.8 21.1l9.3 21.5 8.2 19 3.5.3 3.5.3 4.2-9.8 5.1-11.8 8.6-20c4.2-9.9 8.2-18.9 8.8-20 .8-1.5 1.2 5.5 1.6 29.5l.5 31.5 3.8.3 3.7.3V1705h-6.3c-6.9 0-6.7-.1-11.1 10a654 654 0 0 1-22.2 49.3c-.9.2-2.3-2.2-5-8.8l-3.4-8-3.5-8-3.5-8-6.1-14c-2.3-5.5-4.7-10.6-5.2-11.3-1.3-1.6-12.6-1.6-13.2.1M2295 1741v36h48v-6l-19.7-.2-19.8-.3-.3-13.8-.3-13.7h37.1v-6l-18.2-.2-18.3-.3-.3-12.8-.3-12.7h40.1v-6h-48zm90 0v36h12.8c7 0 15.7-.5 19.3-1q29-4.2 28.9-35 0-29.3-25.8-34.9a148 148 0 0 0-20.2-1.1h-15zm37-27.5c5.3 2.1 9.2 5.5 12.8 11 2.3 3.5 2.7 5.3 3 14.6.4 9.2.1 11.2-1.8 15.8a25 25 0 0 1-15.1 13.6c-3.1 1-8.9 1.7-16.1 1.8l-11.3.2-.3-29.9-.2-29.9 12.2.5c8.4.4 13.7 1.1 16.8 2.3m65.2 27.2.3 35.8h7l.3-35.8.2-35.7h-8zm149.8.4v36l3.8-.3 3.7-.3.3-35.8.2-35.7h-8zm52.2-.4.3 35.8 3.3.3 3.2.3v-29.5c0-17.9.4-29.7 1-30.1 1-.6 2.7 1.5 15.3 20.1a1279 1279 0 0 0 26.2 37.6q1.6 1.8 5.5 1.8h4v-72h-7v29.5c0 22.9-.3 29.5-1.2 29.5-.7 0-5-5.5-9.6-12.3l-18.4-26.7-11.6-17.2c-1.5-2.4-2.3-2.8-6.5-2.8h-4.7zm103.8.3v36l23.8-.2 23.7-.3.3-2.7.3-2.8-20.3-.2-20.3-.3-.3-13.8-.3-13.7h38.1v-6l-18.7-.2-18.8-.3v-25l20.3-.3 20.2-.2v-6h-48zm-1461.9 93.3c-10.4 5.2-12.8 17.1-5.5 27.9 1.9 2.8 3.4 5.1 3.4 5.3 0 .1-2.5 1.5-5.5 3a28 28 0 0 0-8.3 6.2c-2.4 3.2-2.7 4.5-2.7 10.8s.3 7.6 2.9 10.9q5.7 7.6 18.6 7.6c8.3 0 13.2-1.9 18.6-7.2l4.2-4 6.1 5.6c4.6 4.2 6.8 5.6 9.1 5.6 1.6 0 3-.5 3-1.2a40 40 0 0 0-7-8c-3.8-3.8-7-7.1-7-7.4s2.3-4 5-8.1c6.7-9.8 6.9-10.3 3.3-10.3-2.6 0-3.6 1-7.7 7-2.5 3.8-4.9 7-5.2 7-.9 0-15.4-14.9-15.4-15.7 0-.5 2.4-1.8 5.3-3.1 6.4-2.8 9-4.9 11.1-9a20 20 0 0 0 .2-15 20 20 0 0 0-26.5-7.9m18.1 7.6c4.3 4.8 3.8 13.9-1.1 17.9a42 42 0 0 1-11.4 5.2c-.7 0-2.9-2.3-4.9-5.1q-6.6-9-1.9-16.3c2.9-4.3 5.9-5.7 11.5-5.3 4.1.4 5.5 1 7.8 3.6m-5.9 38.9c4.8 4.8 8.7 9.2 8.7 9.8 0 1.8-6.3 7.1-10.4 8.8q-8 3.3-15.1-.7c-10.2-5.7-9.4-19 1.3-24.7 2.1-1 4.4-1.9 5.2-2 .9 0 5.5 3.9 10.3 8.8m693.4-47.1c-12.8 3.9-18.4 19.8-10.5 29.8q4.4 5.5 19.4 8c13.6 2.2 18.4 6 18.4 14.6 0 4-.6 5.5-3.1 8.3-6.1 7-21.2 7.3-32.1.6-4.9-3-5.2-3.1-6.5-1.4-2 2.8-1.6 4.1 2.4 6.6 7 4.3 12.4 5.8 21 5.8 16.6 0 26.3-7.8 26.3-21.3 0-10.7-6.6-16.2-23.5-19.7-12.8-2.6-14-3.1-16.5-7.3-2.5-4-2.5-6.8-.1-11.5 2.8-5.5 6.5-7.2 15.3-7.2 6.4 0 8.4.5 13.7 3.1 5.1 2.6 6.5 2.9 7.2 1.8q3.8-6-11-10.3a36 36 0 0 0-20.4.1m88.9.3c-8 3.1-11.7 7.6-13.1 15.6-1.9 11.8 6 19.6 22.5 21.9 7.1 1 13.5 3.4 15.8 5.8 3.1 3.3 3.8 10.3 1.5 14.7-4.8 9.2-21.6 10.6-33.9 2.8l-4.8-3-1.9 2.3c-1.9 2.4-1.9 2.4 1.4 5.1q8 7 22.7 6.8c7.4-.1 9.5-.5 14.2-2.8 8-3.9 11.4-9.4 11.4-18.3 0-5.7-.4-7.2-2.8-10.3-3.5-4.7-8.2-7-18.1-9-12.8-2.6-15.2-3.5-17.9-6.7-4.6-5.4-2.8-14 3.7-17.9 2.4-1.5 5-2 10.7-2 6.5 0 8.3.4 13.4 3.1 5.7 3 6 3.1 7.3 1.3 2-2.8 1.6-4-2.1-6.2a38 38 0 0 0-30-3.2m-690.6-.3c0 .9 4.5 15.6 9 29.3l6.9 21.5c7.1 22.2 6.8 21.5 10.6 21.5 4 0 4.6-.7 7.4-10l3.1-10c.4-1.4 2-6.3 3.3-11 6.9-23 9.3-30 10.1-29.7.7.2 3.1 7.7 14.7 46.2 4.2 13.9 4.2 14 8.6 14.3l3.9.3 4.2-12.8 7.8-24.3 7-21.8c4.4-13.5 4.4-14.4-.2-14-4.2.3-3.3-1.9-14.3 35.3-7.3 24.6-8.1 26.9-9.1 25.8-.5-.4-2.3-5.8-4-11.8l-5-17-5.5-18.5c-2-6.8-3.9-12.8-4.1-13.2-.8-1.3-7.1-.9-8.1.4a19 19 0 0 0-2.1 5.3 2840.2 2840.2 0 0 0-13.9 47.5 56 56 0 0 1-2.3 7c-1 1.8-1.8.1-5.1-11l-3.5-11.5-3.4-11.5c-1.2-4.1-2.7-9.3-3.5-11.5s-2.1-6.6-2.9-9.8l-1.7-5.7h-3.9c-2.2 0-4 .3-4 .7m140 35.8v36.5l23.8-.2 23.7-.3.3-3.2.3-3.3-20.3-.2-20.3-.3v-27l18.8-.3 18.7-.2v-6l-18.7-.2-18.8-.3v-24l20-.5 20-.5v-6l-23.7-.3-23.8-.2zm89.5-35.3c-.3.7-.4 17.1-.3 36.3l.3 35h42l.3-3.2.3-3.3-17.3-.2-17.3-.3-.5-32.5-.5-32.5-3.3-.3q-3.1-.2-3.7 1m82.5 35.3v36.5l21.3-.2 21.2-.3.3-3.2.3-3.3-17.3-.2-17.3-.3-.3-32.8-.2-32.7h-8zm83.5-35.3c-.3.7-.4 17.1-.3 36.3l.3 35 3.8.3 3.7.3v-29.9c0-16.4.3-30.2.6-30.5.6-.6 2.8 2.4 18.5 25.3l10 14.5c2 2.7 5.9 8.5 8.8 12.8 5.3 7.8 5.3 7.8 9.5 7.5l4.1-.3v-72l-3.7-.3-3.8-.3v30c0 16.6-.3 30.1-.8 30.1s-2.2-2.1-3.9-4.8l-7-10.2-11.8-17c-20.2-29.4-18.6-27.5-23.3-27.8q-4.2-.3-4.7 1m104 .1c-.3.6-.4 17-.3 36.2l.3 35h23.4c20.4 0 23.5-.2 24.4-1.6.6-.9.7-2.4.4-3.3-.6-1.4-3-1.6-20.6-1.6-17.2 0-20-.2-20.5-1.6-.3-.9-.6-6.4-.6-12.4s.3-11.5.6-12.4c.5-1.4 3.2-1.6 19.1-1.6h18.4l-.3-2.8-.3-2.7-18.5-.5-18.5-.5v-24l19.4-.3c12.3-.1 19.9-.6 20.8-1.3 1.8-1.6 1.6-4.6-.3-5.3a287 287 0 0 0-24-.6c-17.1 0-22.6.3-22.9 1.3"/></svg>