<svg xmlns="http://www.w3.org/2000/svg" viewBox="0 0 3000 3000"><path fill="#fff" d="M1773.5 1041.1a172 172 0 0 0-35.5 9.3 106 106 0 0 0-43.5 35.1 110 110 0 0 0-15 75.5c5 33.5 19.6 52.2 56.7 72.8a305 305 0 0 0 53.3 21.2c33.6 10.8 46.7 18.9 50.1 30.7 4.7 16.1-5.6 29.6-25.2 33.2-8.1 1.5-25.9 1.4-34.6-.3a130 130 0 0 1-59.8-30.7l-8.4-7.3-10 10.6-28.3 29.6-18.2 18.9 7.7 7.5c39.7 38.3 91 57.8 145.7 55.5 56.3-2.5 97.7-27.1 114.6-68.1a101 101 0 0 0 7.6-46.6 78 78 0 0 0-3.1-25.3 88 88 0 0 0-25.8-41.2c-17.5-16.1-40.1-27.6-89.3-45.2-23.7-8.5-31.6-12-37.1-16.4-6.4-5-7.7-7.9-7.2-15.8.4-8.1 3-12.6 9.7-17.2 6.8-4.5 11.2-5.4 25.6-5.3 10.9 0 14.6.4 23 2.7a147 147 0 0 1 41.9 20.6l7.9 6 7.6-9.3 24.6-30a314 314 0 0 0 17.2-21.9c.5-3.1-28.3-23.4-44.9-31.6a200 200 0 0 0-45.8-15.2 310 310 0 0 0-61.5-1.8m516-.5a181 181 0 0 0-63.8 18.5 177 177 0 0 0-87.2 96.9 194 194 0 0 0-8 102.8 181 181 0 0 0 120.3 135.2c17.4 5.7 31.5 8.1 51.8 8.7 26.6.9 50.5-2.5 74.4-10.3a238 238 0 0 0 45.8-22.3l7.2-5.2V1235h-85v79.8l-3.2 1.1a116 116 0 0 1-54.8 1.1 99 99 0 0 1-68.1-78c-1.4-8.3-1.4-26.6 0-35a97 97 0 0 1 72.5-76.7c8.6-1.8 25.9-2 34.1-.4q21.8 4.4 41.7 17.7c7.5 5 8.2 5.3 9.4 3.7.6-1 12.3-16.2 25.8-33.8s24.6-32.2 24.6-32.5a209 209 0 0 0-21.5-15.8c-2.7-1.7-10.2-5.5-16.5-8.6a176 176 0 0 0-81-17.4c-8.5 0-16.8.3-18.5.4M171 1407v365h754v-730H171zm397.5-246a251 251 0 0 1 153.6 65.6 246 246 0 0 1 77.6 139.4c2.4 13 2.7 17.1 2.7 39.5.1 19.6-.3 27.5-1.7 36.5a249 249 0 0 1-118.3 174.2c-35 21.2-72.5 33-114.2 35.8-9.5.7-41.6 1-81.2.8l-65.5-.3v-198l72.5-.5c70.8-.5 72.6-.6 78-2.6a47.3 47.3 0 0 0 27.8-67.3 54 54 0 0 0-19.5-18.9c-12-6.3-9.5-6.2-122-6.2H356v294h-66v-361h135.8c147.1 0 144.5-.1 163.7 5.5a113 113 0 0 1 81.5 99c2.3 25.2-4 51.4-17.3 71.8a114 114 0 0 1-59.1 45.6c-16.4 5.8-21.2 6.3-65.8 6.8l-40.8.5v64.8h36.3c48.1 0 61.5-1.5 86.2-9.7 13.5-4.5 25.1-9.7 36.4-16.5a181 181 0 0 0 86.3-119.3c2.8-12.8 3.1-15.7 3.1-33.5.1-17.6-.2-20.8-2.7-32.5-8-38.1-24.4-67.7-52.7-95-27.6-26.6-57.4-41.8-98.4-50.2-7.2-1.5-23-1.7-150.2-2l-142.3-.4V1160h132.3c77.4 0 138 .4 146.2 1m434.5 60v175h77.9c72.7 0 78.7-.1 89.3-1.9 74.3-12.8 131.5-66.6 145.8-137.1 4.1-20.2 4.1-50.7.1-70.7a172 172 0 0 0-73.1-107.7 190 190 0 0 0-72.5-29.1c-16.5-2.8-36-3.4-103.2-3.5H1003zm160.2-86.7a97 97 0 0 1 33.6 16.8c35.3 28.5 42.5 85.1 15.9 124.3a87 87 0 0 1-36 29.4c-15.3 6.2-17.5 6.5-52.4 7l-32.3.3v-89.9c0-49.4.3-90.2.8-90.6s14.2-.6 30.7-.4c28.4.5 30.5.6 39.7 3.1m209.8 87.2V1397h258v-81h-169l.2-29.3.3-29.2 64.8-.3 64.7-.2-.2-37.3-.3-37.2-64.8-.3-64.7-.2.2-27.3.3-27.2 82.8-.3 82.7-.2-.2-40.3-.3-40.2-127.2-.3-127.3-.2zm611 0V1397h89v-351h-89zm504 0V1397h87v-209.5l13.3 20.1 68.7 104.8 55.5 84.6 40.5-.3 40.5-.2v-350l-43.2-.3-43.3-.2v99.2c0 79.4-.3 99-1.2 98-.7-.7-29.9-45.3-64.8-99l-63.5-97.7-44.8-.3-44.7-.2zm-1488 386.9V1759h77v-95h31.4c34.1 0 42.3-.8 57.1-5.6a94 94 0 0 0 65.2-75.7c2-11.4 2.2-32.6.4-42.7-7.5-41.4-37.5-70.8-81.6-79.7-6.8-1.4-18.6-1.7-78.7-2l-70.8-.4zm124.8-80.4c24.4 3.2 37.6 25.1 27.9 46.3a34 34 0 0 1-16.5 16.9l-6.6 3.3-26.3.3-26.3.3V1527h20.3c11.1 0 23.5.5 27.5 1m147.2 80.5V1759h77v-96h40.5l22.4 48 22.4 48h86.8l-29-57.4c-16-31.6-29.1-57.6-29.1-57.9a35 35 0 0 1 6.3-5 99 99 0 0 0 31.5-39.7c5.4-13.6 7.6-31.3 6.1-48.9a96 96 0 0 0-10.4-37.6c-15.2-30.7-43.4-49.4-80.7-53.5-5.8-.6-36.9-1-76.8-1h-67zm137.1-78.6a34 34 0 0 1 17.6 15.8c2.4 4.9 2.7 6.9 2.8 14.8 0 8.2-.3 9.6-3.3 15.7-3.8 7.7-9.2 13-17.1 16.7-5.6 2.6-5.8 2.6-32.8 2.9l-27.3.3v-69.3l27.3.4c25 .4 27.7.7 32.8 2.7m147.9 78.6V1759h77v-301h-77zm138 0V1759h74v-89.7c0-75.7.2-89.5 1.4-88.3.7.8 27.4 41.2 59.2 89.7l57.8 88.3h69.6v-301h-74v85c0 46.7-.3 85-.7 84.9-.5 0-25.5-38.2-55.8-84.9l-55-84.9-38.2-.1H1695zm306-114.5v36h80v229h77v-229h81v-72h-238zm282 114.5V1759h222v-69l-72.7-.2-72.8-.3v-50l55.3-.3 55.2-.2v-64l-55.2-.2-55.3-.3v-47l70.8-.3 70.7-.2v-69h-218zm268-.1V1759h76v-96l20.7.2 20.6.3 22.2 47.5 22.2 47.5 43.2.3c23.7.1 43.1 0 43.1-.3s-12.8-26.2-28.5-57.5a2946 2946 0 0 1-28.5-57.7c0-.5 1.9-2 4.3-3.5 2.3-1.5 7.1-5.2 10.5-8.3 19.7-17.9 29.2-41 29.2-71 0-51.6-30.2-89-81-100.2-6.5-1.4-17.4-1.7-80.7-2l-73.3-.4zm128.3-80.4c15.9 2.3 26.6 12.3 28.5 26.6a36 36 0 0 1-19.8 38.3c-5.4 2.6-5.8 2.6-33.2 2.9l-27.8.3v-33.9c0-18.6.3-34.2.7-34.5 1-1.1 44-.8 51.6.3m-253 361.7c-3.9 2-5.1 4.5-5.9 12.8l-.7 6.5h-3.3c-3.1 0-3.4.3-3.4 3s.3 3 3.5 3h3.5v44h8v-44h10v-7h-10.2l.7-4.8c.9-6.1 2.5-7.7 8-7.7 4 0 4.4-.2 4.9-2.9q.6-3-.6-3.8c-2.1-1.3-11.1-.8-14.5.9M1695 1924v35h9v-28.8l15.3-.4c14-.3 15.5-.5 19.6-2.8q4.5-2.5 6.9-7c2.1-3.9 2.3-5.4 1.9-11.8-.8-10.7-3.5-14.4-12.3-17.2-5.6-1.7-9.3-2-23.5-2H1695zm38.1-25.4c5.3 2.7 7.8 13.2 4.3 18.2-3 4.3-7.1 5.5-20.6 6l-12.8.5V1897h13c9.9 0 13.8.4 16.1 1.6M1841 1924v35h3.5c3.2 0 3.5-.2 3.5-3.1v-3.1l3.5 3c8.6 7.7 22.7 4.5 29.2-6.5 2.3-4 2.8-6.1 3.1-14 .4-8.6.2-9.6-2.6-15.7-3.4-7.2-5.7-9.1-13.4-11.1a16 16 0 0 0-15.8 3.1l-3 2.6V1889h-8zm27.7-8c1.8 1 4 3.4 4.9 5.2a40 40 0 0 1 1.4 21.2c-3.7 11.3-14.8 14.7-22.2 6.8-6.4-6.7-6.4-22.8-.1-30.3 4.4-5.2 10.4-6.3 16-2.9m41.3 8v35h8v-70h-8zm34-30v5h8v-10h-8zm103 0v5h8v-10h-8zm70 7.6v12.5l-3.2-2.4a21 21 0 0 0-21.4-1.9c-4 2.1-8.3 8.2-10 13.9a39 39 0 0 0 1.5 24 28 28 0 0 0 11.8 11.4c6.3 2.4 16.7.1 19.8-4.5 1.5-2 1.5-1.9 1.5 1.2s.2 3.2 4 3.2h4v-70h-8zm-7.2 14.4q7.1 4.4 7.2 17.7c0 12.7-4.7 19.6-13.4 19.6-9 0-14-7-14-19.8 0-8.5 1.3-12.3 5.6-16.1 4.3-4 9.6-4.4 14.6-1.4m148.2-14.4v12.6l-2.9-2.5c-8.9-7.4-22.5-4.6-28.8 6-2.6 4.5-2.8 5.5-2.8 15.8s.2 11.3 2.8 15.8c3.6 6.1 9.3 9.9 15.7 10.5 6.5.6 9.3-.2 13.5-3.9l3.5-3.1v3.1c0 2.9.3 3.1 3.5 3.1h3.5v-70h-8zm-4.4 16.7c7 7.6 7.3 23.9.6 30.9-7.4 7.9-18.5 4.5-22.2-6.8a40 40 0 0 1 1.4-21.2c4.2-8 14.2-9.5 20.2-2.9m81.4 5.7v35h52v-8h-43v-24h39v-8h-39v-22h42v-8h-51zm325-30.5v4.5h8v-9h-8zm-40.2-.2c-3.6 2.1-3.7 2.4-4 8.7s-.4 6.5-3 6.8c-2.4.3-2.8.8-2.8 3.3 0 2.6.3 2.9 3 2.9h3v18.4c0 10.2.4 19.6 1 21.1 1.3 3.4 7.2 5.9 12.3 5.2 4.8-.7 4.9-.7 4.1-4.5-.6-2.8-1.1-3.2-3.8-3.2-5.4 0-5.6-.8-5.6-19.7V1915h4.5c4.3 0 4.5-.1 4.5-2.9s-.3-3-4.2-3.3l-4.3-.3-.5-8.7-.5-8.6zm-625.9 15c-10.5 3-15.1 9.9-15.7 23.5-.5 10 .9 15.7 5.1 20.7q6 7.4 17 7.5c7.3 0 11.3-1.7 15.8-6.7 3.3-3.7 5.8-9.7 4.6-10.9-.2-.3-2.1-.8-4.1-1.1-3.1-.5-3.6-.3-3.6 1.3 0 3.4-3.9 8.5-7.7 10q-7.2 3-13.8-2.7c-4.4-3.9-5.9-9.2-5.3-18.5.6-8.6 3.1-13.4 8.5-15.9 6.9-3.3 13.4-.7 17.8 7 .9 1.5 1.8 1.7 4.8 1.1l3.7-.7-1.6-3.7a17 17 0 0 0-8.9-9.7 28 28 0 0 0-16.6-1.2m173.5.1c-3.4.7-7.3 2-8.8 2.9-2.4 1.6-6.6 8.3-6.6 10.6 0 .5 1.8 1.1 4 1.3 3.5.3 4.1.1 4.6-1.8 1-4.1 5-6.7 10.7-7.2 9.3-.7 14.7 3 14.7 10.3 0 2.9-.9 3.2-15 5.6-9.4 1.6-12.1 2.5-15 4.8a14 14 0 0 0-2.3 20.1c5.2 6.2 18 6.8 27.1 1.2 6.1-3.7 6.2-3.8 6.2-1.5 0 3.5 1.3 4.3 5.2 3.3 3.5-1 3.6-1.1 2.7-4.8-.5-2-.9-10.7-.9-19.2 0-12.7-.3-16.1-1.8-19-3.1-6.4-13.2-9-24.8-6.6m18.6 29.1c0 4.4-2.1 9.6-4.9 12.2a22 22 0 0 1-8 3.3c-5 1-6.2 1-9-.4-5.7-3-6.7-9.9-1.8-13 1.9-1.3 17.2-5.1 22-5.5 1.3-.1 1.7.7 1.7 3.4m298.9-29.2c-6.2 1.8-10.4 5-13.6 10.5-2.6 4.3-2.8 5.5-2.8 15.3 0 10 .2 10.8 3 15.5 4.2 6.8 11.3 10.4 20.4 10.4 10.5-.1 17.1-4 20.6-12.3 1.5-3.6 1.5-3.7-.7-3.7-1.3 0-3.2-.3-4.4-.6-1.6-.4-2.4.1-3.4 2.5-3.6 8.7-15.6 10.2-22.7 2.9-2.8-2.9-6.1-11.3-5-12.4.2-.3 8.9-.8 19.2-1.1l18.7-.6-.5-5.7c-1.4-15.4-14.3-24.7-28.8-20.7m14.6 8.1c2.6 1.7 4.8 5.4 5.9 9.8l.6 2.8h-29v-2.4c0-3.4 4-8.8 8-10.9a16 16 0 0 1 14.5.7m58-8.5c-12.2 3.1-18.3 13.3-17.3 28.7q.9 13.8 9.7 19.9c3.9 2.7 5 3 12.5 3s8.7-.3 12.5-2.8c3.1-2 5-4.4 6.8-8.3 1.4-3.1 2.3-5.7 2.2-5.9-.2-.2-2-.6-3.9-1-3.4-.6-3.6-.5-5.5 3.6q-3.9 8.5-12 8.4c-9.1 0-14-7.1-13.9-20.1 0-9.2 1.8-13.4 7.4-17.1 6.3-4.3 15.2-2 18 4.7 1.2 2.9 1.6 3.2 4.8 2.6 1.9-.3 3.7-.7 3.9-1 .3-.3-.5-2.6-1.7-5.1-3.6-7.4-14.5-11.9-23.5-9.6m225.5.5c-3.6.6-7.5 1.7-8.7 2.4-2.7 1.5-6 6-6.8 9.5-.6 2.4-.4 2.7 1.8 2.7 1.4 0 3.2.3 4.1.6q1.6.6 1.6-1c0-.9 1.3-3 2.8-4.7 2.4-2.7 3.7-3.3 8.4-3.7 9-.7 14.8 3.3 14.8 10.2 0 3-.9 3.3-15 5.7-9.4 1.6-12.1 2.5-15 4.8-6.4 5.1-7.5 14-2.4 20 5.3 6.3 18.1 6.9 27.2 1.3 6.1-3.7 6.2-3.8 6.2-1.5q0 4.8 4.5 3.5l3-.8-.4-19.5c-.2-13.2-.7-20.4-1.6-22.6-2.6-6.2-12.8-9.1-24.5-6.9m18 28.3q-.1 13.4-13.1 16.3c-4.8 1.1-6 1-8.8-.4-5.7-3-6.7-9.9-1.8-13 1.9-1.3 17.2-5.1 22-5.5q1.7-.3 1.7 2.6m-1026.8-7.5c.3 17 .6 20.8 2.1 23.5 2.1 3.9 5.5 5.9 12 6.8 6.7 1 10.8 0 15.5-4.1l4.2-3.6v3.6c0 3.4.2 3.6 3.5 3.6h3.5v-50h-8v15.4c0 18.2-.4 20.8-4 24.5-3.4 3.8-10.7 5.1-15.5 2.8-4.5-2.1-5.5-7-5.5-26.6V1909h-8.2zm169.8 4.8v25h8v-50h-8zm103 0v25h8v-50h-8zm613 0v25h8v-50h-8zm34.2-23.8 9.4 25 8.9 23.8h8l8.9-23.8 9.4-25c.3-1-.6-1.2-3.8-1l-4.3.3-7.1 19.9a151 151 0 0 1-7.4 19l-7-19.9-6.7-19-4.4-.3c-3.3-.2-4.2 0-3.9 1"/><path d="M1773.5 1041.1a172 172 0 0 0-35.5 9.3 106 106 0 0 0-43.5 35.1 110 110 0 0 0-15 75.5c5 33.5 19.6 52.2 56.7 72.8a305 305 0 0 0 53.3 21.2c33.6 10.8 46.7 18.9 50.1 30.7 4.7 16.1-5.6 29.6-25.2 33.2-8.1 1.5-25.9 1.4-34.6-.3a130 130 0 0 1-59.8-30.7l-8.4-7.3-10 10.6-28.3 29.6-18.2 18.9 7.7 7.5c39.7 38.3 91 57.8 145.7 55.5 56.3-2.5 97.7-27.1 114.6-68.1a101 101 0 0 0 7.6-46.6 78 78 0 0 0-3.1-25.3 88 88 0 0 0-25.8-41.2c-17.5-16.1-40.1-27.6-89.3-45.2-23.7-8.5-31.6-12-37.1-16.4-6.4-5-7.7-7.9-7.2-15.8.4-8.1 3-12.6 9.7-17.2 6.8-4.5 11.2-5.4 25.6-5.3 10.9 0 14.6.4 23 2.7a147 147 0 0 1 41.9 20.6l7.9 6 7.6-9.3 24.6-30a314 314 0 0 0 17.2-21.9c.5-3.1-28.3-23.4-44.9-31.6a200 200 0 0 0-45.8-15.2 310 310 0 0 0-61.5-1.8m516-.5a181 181 0 0 0-63.8 18.5 177 177 0 0 0-87.2 96.9 194 194 0 0 0-8 102.8 181 181 0 0 0 120.3 135.2c17.4 5.7 31.5 8.1 51.8 8.7 26.6.9 50.5-2.5 74.4-10.3a238 238 0 0 0 45.8-22.3l7.2-5.2V1235h-85v79.8l-3.2 1.1a116 116 0 0 1-54.8 1.1 99 99 0 0 1-68.1-78c-1.4-8.3-1.4-26.6 0-35a97 97 0 0 1 72.5-76.7c8.6-1.8 25.9-2 34.1-.4q21.8 4.4 41.7 17.7c7.5 5 8.2 5.3 9.4 3.7.6-1 12.3-16.2 25.8-33.8s24.6-32.2 24.6-32.5a209 209 0 0 0-21.5-15.8c-2.7-1.7-10.2-5.5-16.5-8.6a176 176 0 0 0-81-17.4c-8.5 0-16.8.3-18.5.4M171 1407v365h754v-730H171zm397.5-246a251 251 0 0 1 153.6 65.6 246 246 0 0 1 77.6 139.4c2.4 13 2.7 17.1 2.7 39.5.1 19.6-.3 27.5-1.7 36.5a249 249 0 0 1-118.3 174.2c-35 21.2-72.5 33-114.2 35.8-9.5.7-41.6 1-81.2.8l-65.5-.3v-198l72.5-.5c70.8-.5 72.6-.6 78-2.6a47.3 47.3 0 0 0 27.8-67.3 54 54 0 0 0-19.5-18.9c-12-6.3-9.5-6.2-122-6.2H356v294h-66v-361h135.8c147.1 0 144.5-.1 163.7 5.5a113 113 0 0 1 81.5 99c2.3 25.2-4 51.4-17.3 71.8a114 114 0 0 1-59.1 45.6c-16.4 5.8-21.2 6.3-65.8 6.8l-40.8.5v64.8h36.3c48.1 0 61.5-1.5 86.2-9.7 13.5-4.5 25.1-9.7 36.4-16.5a181 181 0 0 0 86.3-119.3c2.8-12.8 3.1-15.7 3.1-33.5.1-17.6-.2-20.8-2.7-32.5-8-38.1-24.4-67.7-52.7-95-27.6-26.6-57.4-41.8-98.4-50.2-7.2-1.5-23-1.7-150.2-2l-142.3-.4V1160h132.3c77.4 0 138 .4 146.2 1m434.5 60v175h77.9c72.7 0 78.7-.1 89.3-1.9 74.3-12.8 131.5-66.6 145.8-137.1 4.1-20.2 4.1-50.7.1-70.7a172 172 0 0 0-73.1-107.7 190 190 0 0 0-72.5-29.1c-16.5-2.8-36-3.4-103.2-3.5H1003zm160.2-86.7a97 97 0 0 1 33.6 16.8c35.3 28.5 42.5 85.1 15.9 124.3a87 87 0 0 1-36 29.4c-15.3 6.2-17.5 6.5-52.4 7l-32.3.3v-89.9c0-49.4.3-90.2.8-90.6s14.2-.6 30.7-.4c28.4.5 30.5.6 39.7 3.1m209.8 87.2V1397h258v-81h-169l.2-29.3.3-29.2 64.8-.3 64.7-.2-.2-37.3-.3-37.2-64.8-.3-64.7-.2.2-27.3.3-27.2 82.8-.3 82.7-.2-.2-40.3-.3-40.2-127.2-.3-127.3-.2zm611 0V1397h89v-351h-89zm504 0V1397h87v-209.5l13.3 20.1 68.7 104.8 55.5 84.6 40.5-.3 40.5-.2v-350l-43.2-.3-43.3-.2v99.2c0 79.4-.3 99-1.2 98-.7-.7-29.9-45.3-64.8-99l-63.5-97.7-44.8-.3-44.7-.2zm-1488 386.9V1759h77v-95h31.4c34.1 0 42.3-.8 57.1-5.6a94 94 0 0 0 65.2-75.7c2-11.4 2.2-32.6.4-42.7-7.5-41.4-37.5-70.8-81.6-79.7-6.8-1.4-18.6-1.7-78.7-2l-70.8-.4zm124.8-80.4c24.4 3.2 37.6 25.1 27.9 46.3a34 34 0 0 1-16.5 16.9l-6.6 3.3-26.3.3-26.3.3V1527h20.3c11.1 0 23.5.5 27.5 1m147.2 80.5V1759h77v-96h40.5l22.4 48 22.4 48h86.8l-29-57.4c-16-31.6-29.1-57.6-29.1-57.9a35 35 0 0 1 6.3-5 99 99 0 0 0 31.5-39.7c5.4-13.6 7.6-31.3 6.1-48.9a96 96 0 0 0-10.4-37.6c-15.2-30.7-43.4-49.4-80.7-53.5-5.8-.6-36.9-1-76.8-1h-67zm137.1-78.6a34 34 0 0 1 17.6 15.8c2.4 4.9 2.7 6.9 2.8 14.8 0 8.2-.3 9.6-3.3 15.7-3.8 7.7-9.2 13-17.1 16.7-5.6 2.6-5.8 2.6-32.8 2.9l-27.3.3v-69.3l27.3.4c25 .4 27.7.7 32.8 2.7m147.9 78.6V1759h77v-301h-77zm138 0V1759h74v-89.7c0-75.7.2-89.5 1.4-88.3.7.8 27.4 41.2 59.2 89.7l57.8 88.3h69.6v-301h-74v85c0 46.7-.3 85-.7 84.9-.5 0-25.5-38.2-55.8-84.9l-55-84.9-38.2-.1H1695zm306-114.5v36h80v229h77v-229h81v-72h-238zm282 114.5V1759h222v-69l-72.7-.2-72.8-.3v-50l55.3-.3 55.2-.2v-64l-55.2-.2-55.3-.3v-47l70.8-.3 70.7-.2v-69h-218zm268-.1V1759h76v-96l20.7.2 20.6.3 22.2 47.5 22.2 47.5 43.2.3c23.7.1 43.1 0 43.1-.3s-12.8-26.2-28.5-57.5a2946 2946 0 0 1-28.5-57.7c0-.5 1.9-2 4.3-3.5 2.3-1.5 7.1-5.2 10.5-8.3 19.7-17.9 29.2-41 29.2-71 0-51.6-30.2-89-81-100.2-6.5-1.4-17.4-1.7-80.7-2l-73.3-.4zm128.3-80.4c15.9 2.3 26.6 12.3 28.5 26.6a36 36 0 0 1-19.8 38.3c-5.4 2.6-5.8 2.6-33.2 2.9l-27.8.3v-33.9c0-18.6.3-34.2.7-34.5 1-1.1 44-.8 51.6.3m-253 361.7c-3.9 2-5.1 4.5-5.9 12.8l-.7 6.5h-3.3c-3.1 0-3.4.3-3.4 3s.3 3 3.5 3h3.5v44h8v-44h10v-7h-10.2l.7-4.8c.9-6.1 2.5-7.7 8-7.7 4 0 4.4-.2 4.9-2.9q.6-3-.6-3.8c-2.1-1.3-11.1-.8-14.5.9M1695 1924v35h9v-28.8l15.3-.4c14-.3 15.5-.5 19.6-2.8q4.5-2.5 6.9-7c2.1-3.9 2.3-5.4 1.9-11.8-.8-10.7-3.5-14.4-12.3-17.2-5.6-1.7-9.3-2-23.5-2H1695zm38.1-25.4c5.3 2.7 7.8 13.2 4.3 18.2-3 4.3-7.1 5.5-20.6 6l-12.8.5V1897h13c9.9 0 13.8.4 16.1 1.6M1841 1924v35h3.5c3.2 0 3.5-.2 3.5-3.1v-3.1l3.5 3c8.6 7.7 22.7 4.5 29.2-6.5 2.3-4 2.8-6.1 3.1-14 .4-8.6.2-9.6-2.6-15.7-3.4-7.2-5.7-9.1-13.4-11.1a16 16 0 0 0-15.8 3.1l-3 2.6V1889h-8zm27.7-8c1.8 1 4 3.4 4.9 5.2a40 40 0 0 1 1.4 21.2c-3.7 11.3-14.8 14.7-22.2 6.8-6.4-6.7-6.4-22.8-.1-30.3 4.4-5.2 10.4-6.3 16-2.9m41.3 8v35h8v-70h-8zm34-30v5h8v-10h-8zm103 0v5h8v-10h-8zm70 7.6v12.5l-3.2-2.4a21 21 0 0 0-21.4-1.9c-4 2.1-8.3 8.2-10 13.9a39 39 0 0 0 1.5 24 28 28 0 0 0 11.8 11.4c6.3 2.4 16.7.1 19.8-4.5 1.5-2 1.5-1.9 1.5 1.2s.2 3.2 4 3.2h4v-70h-8zm-7.2 14.4q7.1 4.4 7.2 17.7c0 12.7-4.7 19.6-13.4 19.6-9 0-14-7-14-19.8 0-8.5 1.3-12.3 5.6-16.1 4.3-4 9.6-4.4 14.6-1.4m148.2-14.4v12.6l-2.9-2.5c-8.9-7.4-22.5-4.6-28.8 6-2.6 4.5-2.8 5.5-2.8 15.8s.2 11.3 2.8 15.8c3.6 6.1 9.3 9.9 15.7 10.5 6.5.6 9.3-.2 13.5-3.9l3.5-3.1v3.1c0 2.9.3 3.1 3.5 3.1h3.5v-70h-8zm-4.4 16.7c7 7.6 7.3 23.9.6 30.9-7.4 7.9-18.5 4.5-22.2-6.8a40 40 0 0 1 1.4-21.2c4.2-8 14.2-9.5 20.2-2.9m81.4 5.7v35h52v-8h-43v-24h39v-8h-39v-22h42v-8h-51zm325-30.5v4.5h8v-9h-8zm-40.2-.2c-3.6 2.1-3.7 2.4-4 8.7s-.4 6.5-3 6.8c-2.4.3-2.8.8-2.8 3.3 0 2.6.3 2.9 3 2.9h3v18.4c0 10.2.4 19.6 1 21.1 1.3 3.4 7.2 5.9 12.3 5.2 4.8-.7 4.9-.7 4.1-4.5-.6-2.8-1.1-3.2-3.8-3.2-5.4 0-5.6-.8-5.6-19.7V1915h4.5c4.3 0 4.5-.1 4.5-2.9s-.3-3-4.2-3.3l-4.3-.3-.5-8.7-.5-8.6zm-625.9 15c-10.5 3-15.1 9.9-15.7 23.5-.5 10 .9 15.7 5.1 20.7q6 7.4 17 7.5c7.3 0 11.3-1.7 15.8-6.7 3.3-3.7 5.8-9.7 4.6-10.9-.2-.3-2.1-.8-4.1-1.1-3.1-.5-3.6-.3-3.6 1.3 0 3.4-3.9 8.5-7.7 10q-7.2 3-13.8-2.7c-4.4-3.9-5.9-9.2-5.3-18.5.6-8.6 3.1-13.4 8.5-15.9 6.9-3.3 13.4-.7 17.8 7 .9 1.5 1.8 1.7 4.8 1.1l3.7-.7-1.6-3.7a17 17 0 0 0-8.9-9.7 28 28 0 0 0-16.6-1.2m173.5.1c-3.4.7-7.3 2-8.8 2.9-2.4 1.6-6.6 8.3-6.6 10.6 0 .5 1.8 1.1 4 1.3 3.5.3 4.1.1 4.6-1.8 1-4.1 5-6.7 10.7-7.2 9.3-.7 14.7 3 14.7 10.3 0 2.9-.9 3.2-15 5.6-9.4 1.6-12.1 2.5-15 4.8a14 14 0 0 0-2.3 20.1c5.2 6.2 18 6.8 27.1 1.2 6.1-3.7 6.2-3.8 6.2-1.5 0 3.5 1.3 4.3 5.2 3.3 3.5-1 3.6-1.1 2.7-4.8-.5-2-.9-10.7-.9-19.2 0-12.7-.3-16.1-1.8-19-3.1-6.4-13.2-9-24.8-6.6m18.6 29.1c0 4.4-2.1 9.6-4.9 12.2a22 22 0 0 1-8 3.3c-5 1-6.2 1-9-.4-5.7-3-6.7-9.9-1.8-13 1.9-1.3 17.2-5.1 22-5.5 1.3-.1 1.7.7 1.7 3.4m298.9-29.2c-6.2 1.8-10.4 5-13.6 10.5-2.6 4.3-2.8 5.5-2.8 15.3 0 10 .2 10.8 3 15.5 4.2 6.8 11.3 10.4 20.4 10.4 10.5-.1 17.1-4 20.6-12.3 1.5-3.6 1.5-3.7-.7-3.7-1.3 0-3.2-.3-4.4-.6-1.6-.4-2.4.1-3.4 2.5-3.6 8.7-15.6 10.2-22.7 2.9-2.8-2.9-6.1-11.3-5-12.4.2-.3 8.9-.8 19.2-1.1l18.7-.6-.5-5.7c-1.4-15.4-14.3-24.7-28.8-20.7m14.6 8.1c2.6 1.7 4.8 5.4 5.9 9.8l.6 2.8h-29v-2.4c0-3.4 4-8.8 8-10.9a16 16 0 0 1 14.5.7m58-8.5c-12.2 3.1-18.3 13.3-17.3 28.7q.9 13.8 9.7 19.9c3.9 2.7 5 3 12.5 3s8.7-.3 12.5-2.8c3.1-2 5-4.4 6.8-8.3 1.4-3.1 2.3-5.7 2.2-5.9-.2-.2-2-.6-3.9-1-3.4-.6-3.6-.5-5.5 3.6q-3.9 8.5-12 8.4c-9.1 0-14-7.1-13.9-20.1 0-9.2 1.8-13.4 7.4-17.1 6.3-4.3 15.2-2 18 4.7 1.2 2.9 1.6 3.2 4.8 2.6 1.9-.3 3.7-.7 3.9-1 .3-.3-.5-2.6-1.7-5.1-3.6-7.4-14.5-11.9-23.5-9.6m225.5.5c-3.6.6-7.5 1.7-8.7 2.4-2.7 1.5-6 6-6.8 9.5-.6 2.4-.4 2.7 1.8 2.7 1.4 0 3.2.3 4.1.6q1.6.6 1.6-1c0-.9 1.3-3 2.8-4.7 2.4-2.7 3.7-3.3 8.4-3.7 9-.7 14.8 3.3 14.8 10.2 0 3-.9 3.3-15 5.7-9.4 1.6-12.1 2.5-15 4.8-6.4 5.1-7.5 14-2.4 20 5.3 6.3 18.1 6.9 27.2 1.3 6.1-3.7 6.2-3.8 6.2-1.5q0 4.8 4.5 3.5l3-.8-.4-19.5c-.2-13.2-.7-20.4-1.6-22.6-2.6-6.2-12.8-9.1-24.5-6.9m18 28.3q-.1 13.4-13.1 16.3c-4.8 1.1-6 1-8.8-.4-5.7-3-6.7-9.9-1.8-13 1.9-1.3 17.2-5.1 22-5.5q1.7-.3 1.7 2.6m-1026.8-7.5c.3 17 .6 20.8 2.1 23.5 2.1 3.9 5.5 5.9 12 6.8 6.7 1 10.8 0 15.5-4.1l4.2-3.6v3.6c0 3.4.2 3.6 3.5 3.6h3.5v-50h-8v15.4c0 18.2-.4 20.8-4 24.5-3.4 3.8-10.7 5.1-15.5 2.8-4.5-2.1-5.5-7-5.5-26.6V1909h-8.2zm169.8 4.8v25h8v-50h-8zm103 0v25h8v-50h-8zm613 0v25h8v-50h-8zm34.2-23.8 9.4 25 8.9 23.8h8l8.9-23.8 9.4-25c.3-1-.6-1.2-3.8-1l-4.3.3-7.1 19.9a151 151 0 0 1-7.4 19l-7-19.9-6.7-19-4.4-.3c-3.3-.2-4.2 0-3.9 1"/></svg>