<svg xmlns="http://www.w3.org/2000/svg" viewBox="0 0 3000 3000"><path fill="#fff" d="m1478.5 225.7-40 1.8a1117 1117 0 0 0-197 24.7 1484 1484 0 0 0-99.5 23.9 1652 1652 0 0 0-73 24.5c-5.7 1.5-45.8 17.5-78.5 31.2a902 902 0 0 0-44.5 21c-14.6 7.4-35 17.8-45.5 22.9-26.9 13.4-36.8 19.4-97.5 58.8a1431 1431 0 0 0-119.8 89.3A949 949 0 0 0 633 569l-22.5 21c-7.9 7.4-7.9 7.3-24.5 25a1280 1280 0 0 0-61 68c-3.3 2.7-46.3 58.4-52.8 68.4A582 582 0 0 1 455 776c-18 24-43.2 64.3-67.8 108.6-5.2 9.5-34.5 67.6-38 75.4l-7.2 16.5-6.6 15a659 659 0 0 0-21.9 55c-4 11.8-11.9 34.1-16.9 47.5a402 402 0 0 0-6.2 18.5L284 1134l-7 24.5c-1.7 6.6-3.6 13.1-4.1 14.5s-1.6 5.4-2.4 9l-2.5 10.5-2 8.5a1976 1976 0 0 0-15.5 78.5c-4.6 24.9-10 63.4-12 85a924 924 0 0 0-4.5 66.9c-1.8 51.2-.6 132 2.6 164.1l2.5 28.5c1.1 15.6 4.5 44.2 6.1 51.5 2.3 10.7 5.7 13.5 16.5 13.8 5.7.2 6.7-.1 8.4-2.2q1.9-2.4 1.9-6.5c0-4.2-2.7-24.9-5.4-41.1-1.4-9.2-2.6-24.3-4.8-64.5-1.7-28.7-1.6-141.1 0-168.5a1179 1179 0 0 1 15.5-130l3.7-18.5a1112 1112 0 0 1 8.6-40.5q9-40.7 27.6-102c7.3-24.2 18-54.1 27.4-76.4a2423 2423 0 0 1 35.9-81.6c4.3-9.3 11.8-24.2 16.7-33.5l8.8-16.5a1205 1205 0 0 1 121.7-185 1100 1100 0 0 1 68.4-79 1577 1577 0 0 1 95.2-92.5c7.2-6.4 32.6-27.3 43.8-36 9.2-7.2 32.8-25.2 40.4-31 8.8-6.5 66.1-44.6 73.5-48.7l9.3-5.2a634 634 0 0 0 24.2-14.1l13.5-8c24.8-14.8 75.2-39.7 114.9-56.7l23.5-10.2c5.7-2.6 31.8-13 43.1-17.2A2899 2899 0 0 1 1163 297c3.6-1.1 7-2 7.5-2s4.6-1.1 9-2.5a852 852 0 0 1 117.5-25c58-9.6 69.8-11.1 108.8-13.5l17.5-1.4c1.8-.3 21.3-1.1 43.4-1.7A1200 1200 0 0 1 1626 257a1950 1950 0 0 1 95.5 13.5l16.4 2.5a618 618 0 0 1 72.6 17.1l18 4.9c6.1 1.5 14.3 3.8 18.3 4.9l14 4c10 2.9 57.1 18.6 61.2 20.4 1.9.9 8.5 3.5 14.5 5.7l16 6.2 11.3 4.4c3.4 1.3 9.7 3.9 14 5.8l19.6 8.6c6.6 2.8 14.5 6.4 17.5 8.1a1863.6 1863.6 0 0 1 86.6 43.1l15 8.8 21 12a1291 1291 0 0 1 121.5 83.1c6.9 5.7 15 12.2 18 14.4a643 643 0 0 1 50 41.8c24.4 22.4 71.5 69.2 87.8 87.2 13.1 14.4 21.4 23.5 23.8 25.9l23.8 29.4c21.1 26.3 27.4 34.7 53.2 70.7a1164 1164 0 0 1 72.1 115 1330 1330 0 0 1 57.2 118.1l9.8 24.5a1485.3 1485.3 0 0 1 48.4 146.4c3.9 14.1 6.4 24.7 9.4 39.5l4.9 24c3.4 16.9 4.3 22 8.7 50.5l3 19c.5 3.3 1.4 10 1.8 15l2.4 21.5c1.7 13.2 2.9 24.2 4.9 45.5 2 20.5 1.6 165.5-.6 192.5a805 805 0 0 1-4.7 49c-5.8 41.1-5.9 44.5-1.6 47.5q2.1 1.5 9.2 1.5c7.8 0 9.5-1 12.9-7.7 2.5-5 6.3-29.8 8.6-55.8l2.5-25c.7-7.2 1.6-21.1 1.9-31 .4-9.9 1.1-25.5 1.8-34.6 2.3-33.9-3-144.8-9.3-193.4l-2.4-20.9a917 917 0 0 0-13.4-79.6c-4.4-21.7-5.2-25.7-6.1-29l-9-36a678 678 0 0 0-16.5-60l-6.9-21.5c-7-22.3-18-52-25.3-68.5l-4.8-12.5c-8.8-24-17.7-43.7-37.6-83-24.6-48.8-24.2-48-42.6-79.5a374 374 0 0 0-16.9-26.7l-9.8-16.5a350 350 0 0 0-12-18.7q-2.5-4.3-20.2-29.2c-22.8-32-48.5-64.8-66.5-85l-30.4-34.4a1486 1486 0 0 0-97.6-96.4c-3.1-2.5-14.9-12.6-26.1-22.3a732 732 0 0 0-52.3-42l-17.5-12.7a897 897 0 0 0-83.5-56.1 925 925 0 0 0-87.5-49.4l-28.5-14.5a614 614 0 0 0-37.3-17.3l-14-5.7-22.2-8.9a806 806 0 0 0-51-19.2 2683.5 2683.5 0 0 0-61.5-20l-16.5-4.5-15.5-4c-2.7-.8-9.3-2.3-14.5-3.5l-24-5.5-24.5-5.6c-26.7-5.7-25.8-5.5-60-11.5-4.9-.9-12.1-2-16-2.5-3.8-.5-11.7-1.5-17.5-2.4l-26-3.1c-8.5-.8-19.1-2-23.5-2.5-7.4-.8-39-2.6-85.5-4.9-18.1-.9-43.3-1-57.5-.3m-265.7 668.6c-2 .8-5.5 1.7-7.7 2.1-2.3.3-5.8 1.5-7.8 2.5l-7.3 3.5c-1.9.9-7.3 5.2-12 9.6a60 60 0 0 1-13.8 10.2c-4.7 2-5.3 2.6-4.9 4.8q1.1 6-4.8 6c-4.5 0-4.5-1.6-.1-5.9 1.8-1.8 3.9-5 4.6-7.1a50 50 0 0 1 7.7-11.5c3.5-4.2 6.1-8.1 5.8-8.6-3.5-5.5-27.1 12-38 28.1-3.4 5.1-3.6 5.9-3 10.4 1 7.7 5.3 14 7.4 10.9q1.7-2.4 7.2-1.4 3.4.8 6.4-.7c2.9-1.5 17.4-12.1 30-22 11-8.6 18.9-13.2 34.5-19.7l11.5-4.8c6.6-2.8 7.2-3.4 5.4-5.2-2.2-2.2-16.3-3-21.1-1.2M1245 930a43 43 0 0 0-12.8 5.8c-.3 1.1 4.4 2.2 9.6 2.2 4.5 0 21.2 5.5 27.2 8.9l7.1 4a373 373 0 0 1 36.2 29.2c6 5.4 11.4 9.9 11.9 9.9 5.7 0-23.7-37.1-36.7-46.2a74 74 0 0 0-28.2-12.8c-6-2.1-10.1-2.4-14.3-1m682.9 11.4c-.4.4-8.7 1.1-18.5 1.6-23.1 1.1-36.1 3.3-44.1 7.3q-19.7 9.6 21.7 1.1c13.2-2.7 55.7-2.5 69.5.4l17 3.3c3.9.7 12.9 2.8 20 4.7 7.2 1.9 16.6 4.2 21 5.2a282 282 0 0 1 43.9 13.6 964 964 0 0 1 48.1 27.2 196 196 0 0 1 32.5 24.1c11.1 9.8 16 13.1 16 10.9 0-1.7-9.4-11.3-16-16.3-2.8-2.2-10.2-8.5-16.3-14.1a176 176 0 0 0-29.4-23.2c-8.6-5-62.9-32.2-64.3-32.2a177.3 177.3 0 0 0-49.5-12.1c-8-1.1-50.8-2.3-51.6-1.5m-909.4 2.6a105 105 0 0 0-44 12.3c-14.1 8.2-31.9 23-39.3 32.5a154 154 0 0 0-14.2 21.1c0 2-9.4 9.2-16 12.1-27.4 12.1-38.2 23.4-47.8 50-6.2 17.1-7.6 22.9-6.3 25.6.9 2.2 1.4 2.4 2.6 1.4q1.4-1.2 1.5-2.3c0-1.4 5.9-15.4 11-26.4 2.9-6.1 5.6-9.9 10.7-15.1 9-9.1 15.8-12.8 38.8-21.2 16.6-6.1 23-8.8 41-17.6 18.3-8.9 22.1-11.2 21-12.2-.5-.6-15.2 1.8-24.2 3.9-12.5 2.9-17.3 2.5-17.3-1.5 0-1.3 1.6-3.7 3.8-5.7a256 256 0 0 1 31.7-23.9c8.2-5.6 21.1-11.6 32.5-15.2 12.4-3.9 28.5-5.2 53.7-4.4 20.5.6 48.3-.2 50.4-1.5s-1.6-4.5-6.4-5.7a184 184 0 0 0-36.7-5.7 261 261 0 0 0-46.5-.5m600 12.7a45 45 0 0 0-24.8 10.8c-6.4 7-7.8 15.2-4.7 27.2 3.2 12.2 3.1 20.8-.3 27-10.6 19.1-11.3 22-12.2 47.7-.5 15.9-.3 19.1 2.5 34.1.5 2.7 1.2 7.1 1.5 9.8s1 4.5 1.6 4.1c.6-.3 1-6.9.9-16.2a102 102 0 0 1 1.8-24.7c4.3-19.9 7.7-27.5 13.6-30.7a45 45 0 0 1 12.2-1.8c11-.8 16-2.7 17-6.7a43 43 0 0 0-2.6-12.4c-3.4-11.1-4.4-21.8-2.2-25.7 1-1.7 2.2-2.2 5.5-2.2 3.9 0 4.6.4 11.2 7.3 10.3 10.9 19.7 18.4 24.6 19.7 7.6 2.1 19-1.2 22.3-6.3 3.7-5.5 3.1-11.9-2.3-26.6a53 53 0 0 1-3.1-11.1c0-4.9 3.9-6.3 10.2-3.6 1.8.8 8 3 13.8 4.9s13.7 4.7 17.5 6.2c7.9 3 16.6 5.8 27 8.5 25.1 6.6 30.2 7.5 42.5 7.5s18.5-1.2 33.2-6.6l10.8-3.8c5-1.6 23.8-10.4 26.5-12.4 3.3-2.5.9-3.1-5.2-1.3a118 118 0 0 1-28.3 6.1c-11.9.9-12.8 1.1-16.4 5.1-3.2 3.5-3.5 3.6-14.3 4.7-9.6.9-11.5.9-15.9-.7-2.7-.9-7.4-2.4-10.4-3.2s-6.4-1.9-7.5-2.4l-7-2.6-43.5-15.3c-15.7-5.6-33.9-11-47.5-14.1-3.9-.9-42-1.1-48-.3M1166 972.6a61 61 0 0 0-23.5 13.6 68 68 0 0 0-12.5 23.5c0 1.3-.5 3.4-1.1 4.5s-1.7 5.5-2.5 9.7l-2.3 12.1a76 76 0 0 0-.2 23.4c1 .7 4-8.3 4.7-14.4a37 37 0 0 1 2.1-8.4c.8-2.2 1.8-5.8 2.3-8a100 100 0 0 1 18.9-39.2c7.1-7.2 18-11.4 31.2-12.1 9.5-.6 9.6-.6 19.1 3.6 10 4.4 19.2 11.3 35.8 26.9 7.7 7.3 10.5 8 5.3 1.4a103.5 103.5 0 0 0-18.9-21.3 69 69 0 0 0-24.4-13c-3-.6-7.4-1.7-9.8-2.5a55 55 0 0 0-24.2.2m215.5 12.5c-1.6.5-5.7 1.4-9 2-11 1.8-15.1 5-7.4 5.7 5.4.6 6.1 1.7 5.3 8.9-.3 3.4-.4 7.3 0 8.6 1 4 8.6 7.3 30.6 13.3 3.2.9 10.5 1.6 17.6 1.7 13.7.2 15.7 1.1 16.7 7.1.3 1.8 1.4 5.3 2.5 7.7s2.3 6.4 2.7 8.9c.9 6.6 4.6 15.5 5.6 13.8.5-.7.9-7.5.9-15.1V1034l-6.4-12.5c-3.6-6.8-7.9-14.5-9.6-17a53 53 0 0 0-16.7-15.6 74 74 0 0 0-32.8-3.8m-114.9 12.2c.2.7 1.5 1.9 2.8 2.7s5.7 4.4 9.7 8l13 11.5c17.4 15.5 30 24.7 31.6 23.2.6-.7-1.4-4.3-5.5-9.9a171 171 0 0 0-44.5-33.9c-5.1-3.1-7.9-3.7-7.1-1.6m-102.4 24.7c-11 5-14.9 16-9.3 26.8 6.5 12.6 19.2 13.5 29.6 2 6.8-7.6 8.3-16.5 3.7-22.8-2.5-3.4-11.7-8-16.1-8-2 0-5.5.9-7.9 2m735 16.1c-1.3.5-3.5 2.3-5 4-11.9 14.2-12.2 23.3-.9 29.1 8.3 4.2 18 2.3 23.1-4.5 4.8-6.4.7-21.9-7.2-27.2-3.9-2.6-6.2-3-10-1.4m-886.2 21.3c0 10.2 12.3 50.2 22.7 73.8 3.8 8.9 7.7 19.3 12.2 32.8 3.7 11.1 6.6 33 5.2 39.1-.6 2.4-1.1 6.2-1.1 8.4 0 3.3.2 3.7 1.3 2.5a58 58 0 0 0 6.2-15.5c1.4-5.8.6-33.2-.9-37-.9-2-2-6.4-2.6-9.8s-1.5-6.7-1.9-7.2-1.3-2.9-2-5.2-2.9-8-5-12.5-4.1-9.7-4.5-11.3-1.4-4.4-2.1-6c-.8-1.7-3-7.3-4.8-12.5-6.4-17.8-18.8-42.9-21.6-43.8q-1-.3-1.1 4.2m1066.2.8c-6.2 6.5-12.2 24.5-12.2 36.5a71 71 0 0 0 8.5 29c4.5 8.8 4.7 9.2 3.4 12.8-.8 2-3.8 6.5-6.7 9.8-18.5 21.2-28.4 36.1-30.8 46.2a48.5 48.5 0 0 0-3.7 14.5c-.9 5.2-1.8 10.2-2.2 11.1q-.4 1.6.6 2.5c1.2.7 2.2-.2 6.2-5.7a675 675 0 0 0 30.8-45c12.7-18.9 23.9-43.6 23.9-52.4 0-5.3-1.9-13.5-3-13.5-.5 0-1.1 1.7-1.5 3.7a39 39 0 0 1-3.3 9.3c-2.2 4.4-3.2 5.5-5.1 5.5-4.1 0-4.9-4.5-5-28.1-.1-21.1-.1-21.2 2.9-29.5 1.6-4.6 3-8.7 3-9.2 0-1.7-2.8-.5-5.8 2.5m68.8 8.2c0 2 4.3 8.7 7.1 11a43 43 0 0 0 12.4 6.6c.3 0 2.5.9 4.8 1.9 2.4 1.1 5.6 2.3 7.2 2.6q4 1.1 1-.7c-1.1-.8-3.2-1.8-4.6-2.1s-3.8-1.8-5.5-3.2c-1.6-1.4-3.4-2.5-4-2.5s-4.2-2.6-8-5.8c-9.8-8-10.4-8.5-10.4-7.8m-707.6 26.1c-1 4.1.6 28.8 2.2 34.2 11.7 37.8 10.9 53.7-4 84.4-5.8 12-6.1 12.9-4.8 12.9 1 0 8.9-6.7 13-11a84 84 0 0 0 15-25.8 86 86 0 0 0 .4-41.6 173 173 0 0 0-9.2-27.2c0-.7-1.9-5.8-4.1-11.5-2.3-5.7-4.5-11.7-4.8-13.3-.8-3.9-2.9-4.4-3.7-1.1m748.1.9c6.5 4.4 12.2 10 21.5 21.1 4.1 5 9.5 11 12 13.5 6.4 6.3 13.8 15.6 16.2 20.3 3.5 7 6.7 25.2 7.8 44.9 2.4 42.1 3.7 50.8 10.2 70.1 1.5 4.4 1.9 7.6 1.5 14-.2 4.5-.8 9.3-1.2 10.7-.8 2.3-.8 2.4.8.8.9-.9 1.7-2.1 1.7-2.7s.9-2.5 2-4.3c1.6-2.7 2-5.1 2-12.3 0-7.9-2.1-23.2-3.5-25.5-.3-.5-1-17.9-1.5-38.7a581 581 0 0 0-1.9-42.3l-2.1-11a48 48 0 0 0-9.8-21c-1.5-1.6-11.5-9.9-22.2-18.5-19.1-15.2-30.7-22.5-36.2-22.5-1.8 0-1.3.7 2.7 3.4m-1352.4 10.3a83 83 0 0 1-11.8 25.7c-10.2 16.5-13.8 27.4-19.8 59.6-.7 4.1-1.6 8.2-1.9 9-1.9 5-8.5 39.6-11.1 58.5-.9 6-1.8 11.7-2.1 12.5s-1.4 8.2-2.4 16.5c-2 16-3.9 27.9-7 44l-3 16.5c-.6 3.6-1.7 9.2-2.5 12.5l-4 18.5-3.6 16.7c-1.5 6.9-1.1 7 2.7.7a333 333 0 0 0 26.4-61.9c1-3.3 3-9.2 4.5-13 4.2-11 11.8-38.2 13-46.5l2.1-13.6c3.9-24.2 8.3-70.7 6.9-74.1-.2-.7 0-10.1.6-20.9.8-16.2 1.3-20.3 2.9-23.5a18 18 0 0 0 2-5.3c0-.9 1.4-3.7 3-6.3s3-5.3 3-6 1.2-2.6 2.7-4.1c2.4-2.4 2.7-3.5 2.8-10.2.1-4.1.3-8.1.6-8.9q.2-1.3-1.2-1.8c-1.2-.3-1.9 1-2.8 5.4m769.5 10.4c-2.7 2.1-2.7 2.4-2.4 10.8.4 8.2 4 21 7 24.8q3.4 4 2.5-8.2c-.5-7.1-.3-8.5 1.2-9.9 1-.9 2.2-1.6 2.7-1.6 2.1 0 18.7 15.9 23.7 22.7 9.2 12.3 33 37.3 38.4 40.1 2.7 1.5 4.1.9 2.6-1l-11.9-14.9c-6-7.4-12-15-13.4-16.9-14.4-19.4-37.2-44.3-42.7-46.6-4.2-1.8-4.5-1.8-7.7.7m-337.2 9.1c2.4 16.3 3.5 28.3 3.4 37.1-.1 13.9 2 22.6 8.4 34.8 3.3 6.2 14.9 18.9 17.3 18.9 1.9 0 1.5-.8-6.1-12.6a87 87 0 0 1-8-15.8c-2.3-6.8-2.5-9-2.8-26.2-.2-16.7-.5-19.7-2.5-25.6-2.3-6.9-7.3-14.8-9.2-14.8q-1.2 0-.5 4.2m104.8-.5a76 76 0 0 0 1.2 26.8c.9 2.2 2.1 6 2.7 8.5 1 4.6 1.4 5.5 8.9 21.5a101 101 0 0 1 7.1 17c.7 2.2 1.6 4.4 2 5s1 2.5 1.4 4.4 2.5 8.1 4.5 13.7c2.1 5.7 4.6 13.1 5.4 16.6q5.3 20.3 5.6 3.3c.1-4.7-1.2-9.9-5.6-23.5-3.1-9.6-6.4-19-7.2-20.9-1.8-4.3-5.1-15.3-6.2-21.1a294 294 0 0 0-8.5-32.5 54 54 0 0 0-6.1-16.2c-2.7-4.6-4-5.3-5.2-2.6m-523.2.9c0 .8.5 2.5 1.1 3.6 1.2 2.2 17.3 18.4 26 26.1a1608 1608 0 0 1 41.9 40.2 214 214 0 0 0 33 28.5c19.2 12.9 27.4 16.2 35.9 14.2 3.9-.9 5.2-2.9 2.4-3.8-4.9-1.7-17.7-8.3-25.5-13.1-6.4-3.9-11-7.9-18-15.4-26.9-29.3-33.5-35-57.2-49.4-4.4-2.7-11.8-8.1-16.5-12a87 87 0 0 1-16.9-17.5c-2.5-3.2-6.2-4.1-6.2-1.4m223.1 30.2c.4 2.1 2 6.3 3.4 9.3s2.5 6 2.5 6.7.7 2.7 1.6 4.3c1.6 3.2 4.8 14.1 6.5 21.9l2.3 9.5c1.8 6.4 4.2 16 6.6 25.5a390 390 0 0 0 18.6 59.3 194 194 0 0 0 23.5 42.7c23 34.4 28.4 46.2 37 80.5.6 2.2 2.1 6.2 3.4 9s2.9 6.4 3.5 8.2c3.1 8.3 5.8.6 4-11.2a206 206 0 0 0-15.6-55l-4.7-10.5c-1.3-3.2-3.9-6.9-16-23.3a134 134 0 0 1-13.8-26c-1.1-2.9-3.2-7.7-4.5-10.7a503 503 0 0 1-24.8-63.5c-4-12.7-13-36.8-18.7-50.3a114.8 114.8 0 0 0-14.7-30q-1-.3-.1 3.6m1099.2 24.4q-6.7 7.3-13.5 27.8c-8.8 26.7-11 38.2-11.6 63-.4 17.6 1.6 32.4 7.4 54.5 1.7 6.5 4.7 11.5 6.1 10.1.4-.4.8-15.5.8-33.4 0-27.1.3-34.2 1.7-41.2a82 82 0 0 0 1.8-13c0-2.5.7-7.7 1.5-11.5.9-3.9 2-11.1 2.5-16s1.6-12.6 2.4-17c3.2-17.6 3.8-22.1 3.5-23.9-.4-1.6-.6-1.6-2.6.6M1582 1231c-7.4 1.8-8.8 6.8-6.6 23.6a83 83 0 0 0 24.6 51.4 73 73 0 0 0 41.8 22.4l16.7 3.5 21.5 4.6a151 151 0 0 1 14 3.5c.8.4 3.3 1.1 5.5 1.5a139 139 0 0 1 38.5 15.7 113 113 0 0 1 25.5 25.2l12.7 17.5c11.2 15.2 14.7 21.9 15.4 29.6.6 6 .2 8.9-3.6 24.5l-4.1 17.5a278 278 0 0 1-4.8 19.5l-3 10.9c-2 7.2-3.8 12.9-8.6 27.6a327 327 0 0 0-14.6 77.4 145 145 0 0 0 8.1 60.8 720.3 720.3 0 0 0 10.3 29.4c1.9 5.2 4.6 13 6 17.4 2.3 7.2 4.7 13.8 10.8 30.5 1.2 3 2.3 6.4 2.6 7.5l2.8 9.6c1.3 4.1 2.9 12 3.5 17.5l2.7 22.9c2.2 19.3 2.2 82.6-.2 91l-3.4 14-2.6 10.9c-1.3 4.7 1.5 2.7 4.6-3.3a221 221 0 0 0 12.4-43.6c4.9-30.4 5.3-46.7 2.5-98.5-1.5-26.5-3-33-12.5-52.5-5.9-12-9.6-21.6-16.2-42l-4.5-13.7q-3.4-10.2-6.5-28.8c-1.6-9.8-1.3-35.8.6-48a713 713 0 0 1 5.6-33.5c.9-3.9 1.9-10.2 2.4-14a541 541 0 0 1 13.3-62c9.6-35.3 9.7-36 9.8-44.2 0-6-.6-9.8-2.1-13.9a225 225 0 0 0-23.1-35.5 22 22 0 0 1-3.8-5.7c0-.5-1.9-3.2-4.3-5.8-2.4-2.7-6.4-7.5-8.9-10.7-11.6-15-34.2-25.4-71.3-32.9l-11.5-2.5c-3.6-.8-10.1-2.1-14.5-2.8s-10.9-1.9-14.5-2.8-9-2-12-2.6c-16.5-2.9-22.5-5.8-31-14.5a86 86 0 0 1-22.7-50.4c-.5-6.5-.3-8.1 1.1-9.5 2.6-2.6 8.1-2.1 19.1 1.9 5.5 2 11.1 3.9 12.5 4.3a319 319 0 0 1 37.5 19.6c6.5 5 26.3 11.8 39.5 13.5a192.3 192.3 0 0 0 34.5 4c28 1.2 43.8 5.6 64.1 18 3.6 2.2 6.8 4 7.1 4s1.7.9 3.3 2 7.3 4.2 12.8 7c21.2 10.6 44.3 10.7 58.5.3 9.8-7.2 13.5-19.8 8.7-29.3-3.7-7.3-21.5-20.6-32.9-24.6-2.5-.9-5.3-1.9-6.2-2.4s-5.1-1.4-9.5-2c-4.3-.7-8.7-1.6-9.6-2.1a83 83 0 0 0-26.3-2.8c-12.4.1-12.3.5.5 2.9l10.5 2.1 9.5 1.9c20.2 3.8 42.7 13.7 51.5 22.5 4.2 4.2 5.3 6 6.4 10.8 1.4 6.6.2 14.4-2.7 17a36 36 0 0 1-19.9 5.7c-13.6 0-25.5-4.2-61.8-22.1-31.4-15.4-35.9-16.9-52.5-17.9-29.3-1.7-59.4-6-75-10.7a194 194 0 0 1-42.5-21.3c-10.4-6.9-21.2-13-23.1-13-.6 0-4-.9-7.4-2a42 42 0 0 0-6.9-1.9zm442.3 32.1a121 121 0 0 0-10.6 23.4c-6.4 19.1-6.5 20-9.8 49.5-1.2 10.5-.6 38.4 1 47.6l2.1 13.4c2.3 16.5 8.6 38.3 13.9 48.7 3.4 6.8 9 12.5 14.4 14.7 5.3 2.2 28.9 3.9 41.7 3.1 25.2-1.6 43.4-7.1 58.4-17.4 4.3-3 19.9-18.9 25.2-25.7 3.5-4.5 11.7-17 14.9-22.9a508 508 0 0 0 23.5-46.3q0-1.3-2.7-1c-2.3.2-3.6 1.7-7.3 7.9-2.5 4.1-6.3 10-8.5 13s-4.5 6.3-5.1 7.4a181 181 0 0 1-9.4 15.9c0 .4-2.2 4-5 8a93 93 0 0 1-41 36.3 107 107 0 0 1-44.4 12.2c-10.4 1.2-29.1 0-34.9-2.1-5.3-2-9.1-10-14.7-30.8-1.1-4.1-2.5-10-3-13l-2.5-14c-5.9-32.1-6.4-96.5-.9-107.3.8-1.5 1.9-4.6 2.4-7 .4-2.3 1.6-6.2 2.5-8.6 1.7-4.7 1.6-7.2-.2-5m-641.1 14.1c-.8.8-1.2 5.9-1.2 16.5a73 73 0 0 0 2.2 23.1 78 78 0 0 1 2.2 22.7c.1 14.2 0 15.4-2.7 21.8-1.5 3.8-6.5 13.5-11.1 21.5a1006 1006 0 0 0-24.1 43.8 25 25 0 0 1-6.4 8.7c-4.5 2.6-5.9.7-7.5-10.3a249 249 0 0 0-3.2-17 64 64 0 0 1-1.1-19c.3-6.4 1-12.7 1.6-14.1a99 99 0 0 0 3.1-27.9c-1.5-2.8-4.4-1.1-6.8 3.8l-3 5.7a60 60 0 0 0-6.2 17.5c0 1.7-.9 6.7-2.1 11.2-1.7 6.6-2 9.6-1.4 16.7.3 4.7 1.3 10.8 2.1 13.6s1.9 7.7 2.4 11l2 12.6q1.1 6.5.1 10.5l-1.9 7.4c-.5 1.9-2 6-3.4 9-3.6 7.8-5.3 12.9-4.6 13.5 1.9 1.9 15-10.1 18.5-16.8.8-1.6 3.5-5.6 6.1-8.9s6.5-8.7 8.7-11.9l16.6-23.1c6.9-9.5 15.2-21.1 18.3-25.8s7.3-10.3 9-12.5a64 64 0 0 0 10.6-17.5c2.1-5.2 2.2-6.6 1.7-23.5-.6-19.4-3.4-38.9-6.6-47.6-2.5-6.5-8.2-15.9-9.6-15.9q-1 0-2.3 1.2m-151.3 49.9c-.3 4 .6 8.2 3.8 17.8 4.8 14.4 5.4 27.4 2.4 48.3a144 144 0 0 0-1.2 37.8c.8 2.4.8 2.4 2.5-1.5a89 89 0 0 0 3.6-11c3.3-12.1 6.7-23.8 8.9-30.4 1.4-4.5 2.1-9 2.1-14.7 0-9-.9-11.5-11.1-32.1-4.9-9.7-10.8-17.4-11-14.2m-122.2 53.6a48 48 0 0 0-3.2 7.3c-.4 1.4-3.6 8.3-7.1 15.5a140 140 0 0 0-12.4 37l-2.3 14.5a390 390 0 0 0-4.2 66c0 28.9.5 35.7 4.2 60.5l2.4 16.3a131 131 0 0 0 2.3 12.5c4.9 21 5.9 25.9 7.2 36.5a348 348 0 0 0 7 45.7c3.6 10.5 13 22.1 33.4 41.4 8.4 8 17.4 17.6 20.1 21.4 2.7 3.9 4.9 6.4 4.9 5.6 0-2.7-5.9-17.1-8.5-20.9-1.4-2-5.1-5.9-8.1-8.6a90 90 0 0 1-21.1-27.9 53 53 0 0 1-6.6-23c-.9-7.2-2.4-22-3.3-33s-2-22.9-2.5-26.4c-.6-3.6-1.9-14.6-3-24.5-1-10-2.3-21.5-2.9-25.6a974 974 0 0 1-2.1-40.5c-1.6-42.8-.2-90.2 3.1-103.4 1.1-4.7 2.5-13 3.1-18.5.5-5.6 1.4-11.4 1.9-13a60 60 0 0 0 1.6-10.6q1.2-14.4-3.9-4.3m725.9 35a260.7 260.7 0 0 1 15.8 52.5l5.1 23c4.3 19.7 6.3 30 7.4 39.3l2.1 14.5c1.3 7 3.7 28 5.5 48 .8 8.5 1.9 17.7 2.4 20.5.6 2.7 1.5 9.7 2.1 15.5 1.7 16.6 2.9 23.8 5.1 30.7 4.1 12.5 7.7 11.8 9-1.9 1.4-14.9 1-63.1-.7-76.8l-2.9-24.5a600 600 0 0 0-9.6-55.5 329 329 0 0 0-15.6-51.9 119 119 0 0 0-21.1-35.4c-6.5-6.6-7.7-6.2-4.6 2m-1093.2 39.5-7 8.3c-8.5 11-25.9 30-44.9 49.5-21.9 22.3-29.5 31.6-29.5 36 0 3.4 5.6 11.9 9.1 13.9 2.4 1.3 2.9 1.3 5.2-.2 1.4-.9 9.5-12.1 17.9-24.9 17.1-25.9 16.9-25.6 25.3-39.8 3.3-5.6 10.8-17.5 16.6-26.4s10.8-16.9 11.2-17.9c1-2.6-.6-2-3.9 1.5m1456.3 24.5c-1.2 1.1-.7 7.5 1.3 17.9 2.6 13.5 6.3 25 11.7 36.4 7.7 16.4 12.3 23.1 30.6 45.5 5.4 6.6 13.5 17.4 17.9 23.9 12.9 19 16.8 22.7 21.8 20.6a8 8 0 0 0 4.6-9c-1.2-6.4-16.7-27.6-31.7-43.5-24.3-25.7-37.8-47.8-52.9-86.8-2.4-6.1-2.3-6-3.3-5m-1348.8 65.5c5.6 14.4 32.1 54.1 53.1 79.8 2 2.5 8.3 11.2 13.8 19.5 14.5 21.4 17.5 25.6 21.6 29.4 5.8 5.6 5.8 5.7-3.4-18.4a357 357 0 0 0-44.6-75.1c-10-12.7-29.9-32.6-35.2-35.3s-6.4-2.7-5.3.1m1218.7 87.9c-.9 2.4-2.3 7.5-3.2 11.4-1.6 7.5-5.1 16.9-9.2 25a86 86 0 0 1-13.9 18.5c-3.5 2.8-18.8 14.2-30.8 22.7a226 226 0 0 0-33 27.5c-7.5 8.3-9.1 12.9-15.5 43.8l-1.9 8c-6.1 22.7-10.1 31.9-25 57.8-4.3 7.5-8.9 16.6-10 20.2-4.1 12.4-4.9 40.1-1.5 49.7 1.8 4.9 4.1 6 8.1 3.9 8-4.1 10.7-10.3 12.4-28.1 1-10.7 3.6-20.4 6.7-25.5l5.7-9c2.3-3.6 6.1-10.1 8.5-14.5l6-10.5c1-1.4 3.4-6.1 5.4-10.5l4.5-9.5c2.1-3.9 9.2-30.3 12.1-45 1.9-9.9 6.1-21 9.8-25.8 4.9-6.5 7.5-8.7 25.1-21.5 8.5-6.2 18.1-13.6 21.3-16.6a82 82 0 0 0 24.5-52.6c.6-9.4-.8-18.8-3.1-22-1.2-1.7-1.5-1.4-3 2.6M1097 1751.9c0 1 2.3 5.4 5.1 9.7a592 592 0 0 0 22.8 31.4c1.4 1.2 9 11.1 15.2 19.7 3.7 5.1 9.1 12.1 12.1 15.6a465 465 0 0 1 20.2 24c7.4 9.4 9.9 10.9 9 5.4-.8-4.3-7.8-20.9-11.1-26-4-6.3-13.7-18.2-22.8-27.7a162 162 0 0 1-12.4-14.8 367 367 0 0 0-32.5-36c-4.2-3.7-5.6-4-5.6-1.3m40.3 130.7a49 49 0 0 0 5.3 18.5c1.3 3.1 2.4 6 2.4 6.4 0 1.2 14.6 23.1 18.8 28.2 5.6 6.9 6.4 6 6-6a33 33 0 0 0-3.1-16c-6.2-13.2-17.6-27-26-31.3-2.5-1.3-2.8-1.3-3.4.2m-588.4 140.3a94 94 0 0 0-21.4 15.1 604 604 0 0 1-38 27.1c-44.7 30.2-57.6 39.3-61.4 43.5-2.9 3.2-3.3 4.1-2.9 7.8.6 4.7 8.3 18.4 16.2 28.6a423 423 0 0 0 37.3 41.4 58 58 0 0 0 24.1 12.5c11.4 2.4 20.8 1 42.2-6.4 29.9-10.4 38-17 50.1-41 11.9-23.6 12.4-25.2 12.3-37.5 0-15.3-3-22.2-22.9-52.5l-14.1-21.9c-9.1-14.7-14.5-18.9-21.5-16.7m6.6 41.3c2.6 1.2 12.9 15.7 17.3 24.3 5.5 11 7.1 25.7 3.8 36.8a64 64 0 0 1-30.8 36.1 60 60 0 0 1-30.2 7.6c-5.6 0-11.7-.5-13.7-1-5-1.4-14.9-8-20.7-13.8-5-5-15.9-18.9-18-22.9-3.2-6-.6-10.1 15.2-23.7a117 117 0 0 1 28.1-20.3 270 270 0 0 0 20.7-12.5c18.8-12.1 22.2-13.4 28.3-10.6m1923.5-13.6c-8 2.2-13.4 5.7-23.9 15.8a91 91 0 0 0-20.5 27.3 54 54 0 0 0-7.2 22.3c-1.1 11.9 1.5 16.8 19.1 35.6 8.5 9.2 9.9 10.3 14.6 11.4 2.8.7 7.9 1 11.3.8 10.2-.9 16.9-5 47.1-29.1 8.2-6.6 17.4-13.2 20.4-14.5 17-7.8 32 2.8 30.9 21.6a45 45 0 0 1-28.5 37 48 48 0 0 1-11.1 2.2c-8.3 0-18.4 7.5-21.3 15.9-1.4 4.1.2 6.8 5.6 9.2a43 43 0 0 0 35-2.4c10.7-5.6 32.9-30 39.4-43.3a77 77 0 0 0 7.7-33.6c-1.7-18.8-12.2-30.4-34.1-37.6-15.7-5.2-20.9-5.3-30-.6a132 132 0 0 0-25.5 18.4l-12.5 10.5a51 51 0 0 1-19 12.6c-5.7 2.1-5.9 2.1-11.4.4-6.8-2.1-10.6-6-12.6-13-2.7-9.2 1.2-19.9 10.9-29.7a39 39 0 0 1 23.5-11.2c5.8-.9 8.9-2 11.5-4a70 70 0 0 0 13.6-15.6c0-2.2-4.5-4.8-10.9-6.3-8.3-2-14.8-2.1-22.1-.1M665.6 2182.5c-2 1.3-6.2 5-9.4 8.2a401 401 0 0 1-25.6 23.8c-2.7 2.2-8.4 8.3-12.6 13.5a182 182 0 0 1-30 30.2 192 192 0 0 0-26.8 26.2c-4.9 6.4-1.8 15.4 7.4 21.5 8.8 5.8 9.3 5.5 32.9-18.8q19.5-20.2 25.7-20.1c5.1 0 8.9 2.9 25.7 19.4 19.8 19.5 22.1 22.4 22.1 28.1 0 5.6-1.9 8-24.5 30-21.1 20.5-21.2 20.8-15.2 28.7q7.2 9.3 13.2 8.2c8.8-1.8 20.6-11.3 33.5-26.9 11.6-14 18-20.5 29.2-29.6 5.3-4.3 14.9-13.8 21.3-20.9 11-12.3 19.6-20.1 29.3-26.5 5.7-3.7 5.5-5.7-1.3-12.2-6.9-6.5-15.3-10.8-19.2-9.8-5.6 1.3-12.3 6.8-23.7 19.3-12.5 13.9-18.4 19.2-21.3 19.2-1 0-4.1-1.9-6.9-4.3a411 411 0 0 1-40-42.1c-1.3-5.3.6-7.9 16.8-23.9 12.4-12.3 16.5-17 18.5-21.3 2.1-4.7 2.3-5.9 1.3-8.9a27 27 0 0 0-11.7-12.2c-4.3-1.7-4.4-1.7-8.7 1.2m1699.9 13.2c-14.6 3.5-41.2 23.5-51.4 38.7-13 19.4-17 45.9-9.8 65.1 5.3 14.4 37.3 48.6 52.8 56.5a90 90 0 0 0 38.3 7.7 81 81 0 0 0 38-14.6c2.9-2.2 8.7-7.7 13-12.3a64 64 0 0 0 16.1-28.8c1.3-8.5 3.5-10 11.6-7.9l4.9 1.3 4.1-4q6.9-6.7 6.9-11.6c0-3.4-6.5-16.4-9.6-19.3a74 74 0 0 0-10.8-7.1 201 201 0 0 1-34.1-24.6 29 29 0 0 0-9.3-6.8c-1.3 0-5 3.3-10.4 9.1-4.6 5.1-12.9 14.1-18.5 20-12.6 13.3-13 14.7-5.3 22.1s9.2 7 23.5-6c6.6-6 7.2-6.4 10.8-5.9 4.7.6 8 3.6 12.7 11.4 3.3 5.4 3.5 6.3 3.5 14.3 0 7.6-.4 9.2-3.4 15.5a56 56 0 0 1-25.8 24.9 33 33 0 0 1-16.5 2.8c-8 0-10.3-.4-16.4-3a99 99 0 0 1-48.7-48.1c-3-6.2-3.2-7.3-3.2-17.7 0-10.7.1-11.2 3.7-18.5a43 43 0 0 1 16.6-19.3c9.9-6 14.2-7.1 28.2-7.2 6.9 0 13-.1 13.7-.2 2-.3 17.2-14.3 17.9-16.4 1-3.2-5-6.2-19.1-9.4a85 85 0 0 0-24-.7M809.7 2314.1a69 69 0 0 0-7.8 13.7 80 80 0 0 1-20.3 29.7 69 69 0 0 0-14.4 19.3 140 140 0 0 1-25.8 34.2c-18.4 18.8-23 27.2-18.9 34.9 2.3 4.6 10.8 11.5 23.3 18.9a119 119 0 0 1 30.7 23.7 74 74 0 0 0 23.2 17.4c8.6 4.3 12 4.1 17.9-1 7-6.1 8.7-8.5 7.5-10.7-1.3-2.5-9.4-8.6-21.6-16.2-5.5-3.5-13.8-9.3-18.4-12.9l-15.5-11.9c-10.8-8.1-11.6-9-11.6-13.4 0-4.8 2.2-9.2 9.7-19.4 10.6-14.1 15.1-16.6 23.9-12.9 4.5 1.9 22.8 14.1 31.4 20.9 15.8 12.6 20.5 14.5 27.6 10.8 2.1-1.2 5.4-3.4 7.2-5.1 2.9-2.6 3.2-3.2 2.1-5-.7-1.1-4.7-3.9-8.9-6.2a182 182 0 0 1-39.3-26.7c-9.8-8.3-10.7-9.5-10.7-14.9 0-6.5 14.2-27.6 19.6-28.9 3.8-1 11.2 2.5 21.4 10.1l16.5 12c3.9 2.7 11.4 8.4 16.9 12.7a41 41 0 0 0 12.2 7.8c2.7 0 6.4-4.4 9.5-11.4 2.1-4.8 2.1-4.9.2-7.5a61 61 0 0 0-9.9-8.1 969 969 0 0 1-38-28.2 1244 1244 0 0 0-33.4-25.1c-2.8-1.9-3.8-2-6.3-.6m1393.8 20.8c-5.8 1.7-23.1 9.8-28 13.1a160 160 0 0 0-25.5 24.5c-5.2 7-6.6 10-9.1 19.6a95 95 0 0 0 6.1 58.2c3.5 7.4 13.1 20 18.7 24.6 24.1 19.5 34.3 26.4 42.3 28.8 10.7 3.1 36.8 0 47.9-5.7a159 159 0 0 0 39.5-36.1 49 49 0 0 0 8.5-31.4c0-19.1-1-22.3-16.3-49.9-7.7-14-13-21.1-20.7-27.8a80 80 0 0 0-32.4-16.4c-6-1.7-26.8-2.7-31-1.5m22.8 31a62 62 0 0 1 24.6 16.1 76 76 0 0 1 18.2 26c4.8 11.8 6.2 27 3.4 36.3a48 48 0 0 1-23.1 25.7l-6.9 3.5h-29l-8-3.9c-15.2-7.4-27.5-23-33.9-43.1a52 52 0 0 1-2.6-19.4c0-10.5.2-11.8 3-17.5a51 51 0 0 1 28.8-24.1c7.1-2 18.9-1.8 25.5.4M982 2435.3c-4.7 2.3-24.2 21-38.4 37-8.1 9.1-18 18.1-30.9 28a83 83 0 0 0-16.2 17.2 83 83 0 0 1-22.6 22.3c-5.3 3.6-6.4 5.5-4.7 8.2a36 36 0 0 0 16.6 8.6c5.8.9 10.8-1.8 22.5-12.1 9.1-8 9.9-8.5 14.3-8.5 5.3 0 15.8 4.6 28.9 12.6 4.4 2.7 11.1 6.5 14.9 8.4 10.4 5.3 10.7 6 9.9 26.1-.6 15.8-.5 16.8 1.5 20.1 2.3 3.7 9 7.8 15.9 9.8 3.6 1.1 4.6 1.1 6.7-.4 1.4-.9 3.2-2.9 3.9-4.4a180 180 0 0 0 5.7-36.7 199 199 0 0 1 2-17.5l2.5-17c.8-6.3 2-13.5 2.5-16 1.1-5.3 4.4-28 6.1-42.9 2.1-18.4-.4-29.5-8.1-36.5-9.1-8.2-23.5-10.9-33-6.3m11.1 30.8c1.2 2.3.5 17.7-1.1 25.4-.8 3.8-1.4 7.4-4.1 25.5-1.9 12.3-4.5 17-9.4 17a110 110 0 0 1-24.8-11.3c-15.1-8.6-14.6-11.6 5.8-32.6a440 440 0 0 1 18.7-18.2c9.4-8.4 12.7-9.7 14.9-5.8m1033.9-21.6c-6.5 1.4-11.5 2.9-20 6a651 651 0 0 0-59 30c-2 2.1-2.1 2.8-1.2 6.2 2.5 9.5 7.9 21.9 15.1 35.3a673 673 0 0 1 30.8 64.5l4.7 11 4.6 10.5c4.3 9.8 9.3 17.7 12 18.5 3.1 1 6.8-.1 19.2-5.6 43.7-19.4 59.4-30 71.2-47.9 7.4-11.2 8.9-15.8 11.5-34.5a67 67 0 0 0-4-33.4 194 194 0 0 0-28.6-41.2c-10.4-11.8-16.9-15.9-28.8-18.4a67 67 0 0 0-27.5-1m18.3 30.9a70 70 0 0 1 23.7 15.6c12.6 12.7 17.4 26.5 16.8 48.4-.3 12.1-.5 13.6-3.2 18.9a40 40 0 0 1-8.1 10.5c-8.2 7.5-34.4 21.2-40.6 21.2-4.2 0-8.2-5.7-12.9-18.4-1.2-3-5.6-10.9-10-17.6a163 163 0 0 1-20.5-41.5q-9-19.2-3.2-24.2 5.3-4.8 24.5-11.3c14.6-5 24.2-5.4 33.5-1.6m-926.9 17.3c-5.4 4.7-10.8 21.1-22.9 69.9-8 32.5-11.8 42.5-20.1 52.3-5.5 6.6-8.6 26.8-4.6 30.4a35 35 0 0 0 15.5 3.7c6.7 0 13.5-12.1 19.7-35 2.7-10.4 9.8-32.6 15-47.5a189 189 0 0 0 5.5-17.5q4.1-15.7 9.7-9.3c2.2 2.6 2.6 4.2 4.4 16.1.8 5.9 2.4 13.8 3.4 17.7 2.9 11.2 5.7 25.3 6.9 35 2.5 19.9 10 51.8 13.8 58.2a36 36 0 0 0 16.8 13.8c7.1 3.2 16.7 4.4 19.1 2.5 2.8-2.4 5.5-9 8.6-20.9 1.6-6.4 4-14.7 5.3-18.6 3.5-10.7 10.1-31.9 13-42 2.4-8.1 6.5-20.4 18.6-55.3 2.1-6.1 3.9-12 3.9-13 0-2.4-3-3.7-11.8-5.1-10.2-1.6-11.7-1.4-15 1.4s-4.1 4.6-7.2 16.5l-4 14.5c-1 3.3-3.3 11.4-5 18s-4.5 16.5-6.2 22l-4.8 16.4c-2.1 7.5-6.7 14.5-9.7 14.9q-4.3.7-6.1-11.9c-.5-3.5-1.7-9.8-2.5-13.9s-2.5-12.5-3.6-18.5l-3.6-19-2.6-14c-7.3-40.6-11.4-51.2-21.2-55.8a60 60 0 0 0-20.3-7.2c-4.9-.6-6.3-.4-8 1.2m169.6 46.1c0 2 3.2 9.9 12.8 31.2a1176.4 1176.4 0 0 1 26.8 69 64 64 0 0 1 1 31.3c-.8 5-2 14.8-2.6 21.6-1.2 11.7-1.1 12.4.7 15 2.2 2.9 6.3 4 15.8 4q6 .1 8.2-1.4c3.1-2.1 5.7-11.3 8.8-30.3 3.6-21.4 4.8-25.9 10.7-37.6a103 103 0 0 1 24.6-33.3 143 143 0 0 0 20.1-24.3l10.3-15.1c4.5-6.1.1-9.7-11.7-9.8-7.5-.1-10.6 1.7-17.2 9.7l-7.6 9.3c-3.8 4.6-9.9 12.9-20.9 28.4-10.2 14.2-13.3 16.7-17.3 14.1q-2.3-1.5-4.4-8.3c-4-12.5-8-25.7-10.7-35.3a139 139 0 0 0-6.6-17.8c-4.5-9.5-8.2-12.9-17.5-15.6l-11.8-3.8c-9.6-3.2-11.5-3.4-11.5-1m394.5-.2a83 83 0 0 0-17.2 5.5c-12.6 5.6-25.7 18-29.4 27.9a49 49 0 0 0-.4 26.8 81 81 0 0 0 12 22.9c4.3 5.6 7 12.5 5.8 14.7-.5.9-5.1 6-10.3 11.4-14.2 14.5-18.5 24.3-18.4 41.2.1 9.8 2.4 19.6 6 25.8 5.2 8.8 26.5 21.2 40.9 23.7a71 71 0 0 0 26.5-1.1c5.8-.9 19.1-5.5 25.4-8.6a74 74 0 0 0 14.2-10.9c4.5-4.4 9.1-7.9 10.2-7.9q5.3 0 15.2 8.6c9.4 8.1 12.5 9.4 24.2 9.4 9.7 0 23-2 26.8-4 1.1-.6 2-1.9 2-2.8 0-3.4-14.7-15.8-36.5-30.7-9.5-6.5-11.5-8.8-11.5-13.2 0-5.6 3.2-12 15.9-31.8a392 392 0 0 1 11.1-15.5c9.3-12.5 12.3-17.9 11.8-21.3-.9-6.3-27.2-3.5-33.8 3.5-1.2 1.3-6.9 10.4-12.7 20.3-12.3 21.1-14.6 24.3-17.8 25.1-3.7.9-12-3.5-21.7-11.5-12.5-10.5-13.5-14.9-5.3-22.6l10.1-9.5a52 52 0 0 0 15.2-29c.8-11.1-3.4-19.9-14.9-31.7a41 41 0 0 0-32.4-14.8c-4.9-.2-9.9-.2-11 .1m15.4 25c4.5 2.8 7.2 5.8 9.3 9.8 3 5.9 2.2 18.8-1.6 27.3-3.1 6.8-9.7 13.8-14.1 14.9-7.4 1.8-17.8-5.8-23.1-17-7.5-15.5-2.8-31.1 10.8-36.3 4.3-1.6 15.3-.9 18.7 1.3m-13.4 90c4.1 1.9 28.4 22.3 33.8 28.2 5.8 6.5 4.9 11.5-3.3 19a45 45 0 0 1-33.7 9.1c-8.4-1.4-10.7-2.6-15.9-8.1-8.5-8.8-9.4-23.1-2.4-37.5q6-12.3 14.1-12.3c2.3 0 5.6.7 7.4 1.6"/><path d="m1478.5 225.7-40 1.8a1117 1117 0 0 0-197 24.7 1484 1484 0 0 0-99.5 23.9 1652 1652 0 0 0-73 24.5c-5.7 1.5-45.8 17.5-78.5 31.2a902 902 0 0 0-44.5 21c-14.6 7.4-35 17.8-45.5 22.9-26.9 13.4-36.8 19.4-97.5 58.8a1431 1431 0 0 0-119.8 89.3A949 949 0 0 0 633 569l-22.5 21c-7.9 7.4-7.9 7.3-24.5 25a1280 1280 0 0 0-61 68c-3.3 2.7-46.3 58.4-52.8 68.4A582 582 0 0 1 455 776c-18 24-43.2 64.3-67.8 108.6-5.2 9.5-34.5 67.6-38 75.4l-7.2 16.5-6.6 15a659 659 0 0 0-21.9 55c-4 11.8-11.9 34.1-16.9 47.5a402 402 0 0 0-6.2 18.5L284 1134l-7 24.5c-1.7 6.6-3.6 13.1-4.1 14.5s-1.6 5.4-2.4 9l-2.5 10.5-2 8.5a1976 1976 0 0 0-15.5 78.5c-4.6 24.9-10 63.4-12 85a924 924 0 0 0-4.5 66.9c-1.8 51.2-.6 132 2.6 164.1l2.5 28.5c1.1 15.6 4.5 44.2 6.1 51.5 2.3 10.7 5.7 13.5 16.5 13.8 5.7.2 6.7-.1 8.4-2.2q1.9-2.4 1.9-6.5c0-4.2-2.7-24.9-5.4-41.1-1.4-9.2-2.6-24.3-4.8-64.5-1.7-28.7-1.6-141.1 0-168.5a1179 1179 0 0 1 15.5-130l3.7-18.5a1112 1112 0 0 1 8.6-40.5q9-40.7 27.6-102c7.3-24.2 18-54.1 27.4-76.4a2423 2423 0 0 1 35.9-81.6c4.3-9.3 11.8-24.2 16.7-33.5l8.8-16.5a1205 1205 0 0 1 121.7-185 1100 1100 0 0 1 68.4-79 1577 1577 0 0 1 95.2-92.5c7.2-6.4 32.6-27.3 43.8-36 9.2-7.2 32.8-25.2 40.4-31 8.8-6.5 66.1-44.6 73.5-48.7l9.3-5.2a634 634 0 0 0 24.2-14.1l13.5-8c24.8-14.8 75.2-39.7 114.9-56.7l23.5-10.2c5.7-2.6 31.8-13 43.1-17.2A2899 2899 0 0 1 1163 297c3.6-1.1 7-2 7.5-2s4.6-1.1 9-2.5a852 852 0 0 1 117.5-25c58-9.6 69.8-11.1 108.8-13.5l17.5-1.4c1.8-.3 21.3-1.1 43.4-1.7A1200 1200 0 0 1 1626 257a1950 1950 0 0 1 95.5 13.5l16.4 2.5a618 618 0 0 1 72.6 17.1l18 4.9c6.1 1.5 14.3 3.8 18.3 4.9l14 4c10 2.9 57.1 18.6 61.2 20.4 1.9.9 8.5 3.5 14.5 5.7l16 6.2 11.3 4.4c3.4 1.3 9.7 3.9 14 5.8l19.6 8.6c6.6 2.8 14.5 6.4 17.5 8.1a1863.6 1863.6 0 0 1 86.6 43.1l15 8.8 21 12a1291 1291 0 0 1 121.5 83.1c6.9 5.7 15 12.2 18 14.4a643 643 0 0 1 50 41.8c24.4 22.4 71.5 69.2 87.8 87.2 13.1 14.4 21.4 23.5 23.8 25.9l23.8 29.4c21.1 26.3 27.4 34.7 53.2 70.7a1164 1164 0 0 1 72.1 115 1330 1330 0 0 1 57.2 118.1l9.8 24.5a1485.3 1485.3 0 0 1 48.4 146.4c3.9 14.1 6.4 24.7 9.4 39.5l4.9 24c3.4 16.9 4.3 22 8.7 50.5l3 19c.5 3.3 1.4 10 1.8 15l2.4 21.5c1.7 13.2 2.9 24.2 4.9 45.5 2 20.5 1.6 165.5-.6 192.5a805 805 0 0 1-4.7 49c-5.8 41.1-5.9 44.5-1.6 47.5q2.1 1.5 9.2 1.5c7.8 0 9.5-1 12.9-7.7 2.5-5 6.3-29.8 8.6-55.8l2.5-25c.7-7.2 1.6-21.1 1.9-31 .4-9.9 1.1-25.5 1.8-34.6 2.3-33.9-3-144.8-9.3-193.4l-2.4-20.9a917 917 0 0 0-13.4-79.6c-4.4-21.7-5.2-25.7-6.1-29l-9-36a678 678 0 0 0-16.5-60l-6.9-21.5c-7-22.3-18-52-25.3-68.5l-4.8-12.5c-8.8-24-17.7-43.7-37.6-83-24.6-48.8-24.2-48-42.6-79.5a374 374 0 0 0-16.9-26.7l-9.8-16.5a350 350 0 0 0-12-18.7q-2.5-4.3-20.2-29.2c-22.8-32-48.5-64.8-66.5-85l-30.4-34.4a1486 1486 0 0 0-97.6-96.4c-3.1-2.5-14.9-12.6-26.1-22.3a732 732 0 0 0-52.3-42l-17.5-12.7a897 897 0 0 0-83.5-56.1 925 925 0 0 0-87.5-49.4l-28.5-14.5a614 614 0 0 0-37.3-17.3l-14-5.7-22.2-8.9a806 806 0 0 0-51-19.2 2683.5 2683.5 0 0 0-61.5-20l-16.5-4.5-15.5-4c-2.7-.8-9.3-2.3-14.5-3.5l-24-5.5-24.5-5.6c-26.7-5.7-25.8-5.5-60-11.5-4.9-.9-12.1-2-16-2.5-3.8-.5-11.7-1.5-17.5-2.4l-26-3.1c-8.5-.8-19.1-2-23.5-2.5-7.4-.8-39-2.6-85.5-4.9-18.1-.9-43.3-1-57.5-.3m-265.7 668.6c-2 .8-5.5 1.7-7.7 2.1-2.3.3-5.8 1.5-7.8 2.5l-7.3 3.5c-1.9.9-7.3 5.2-12 9.6a60 60 0 0 1-13.8 10.2c-4.7 2-5.3 2.6-4.9 4.8q1.1 6-4.8 6c-4.5 0-4.5-1.6-.1-5.9 1.8-1.8 3.9-5 4.6-7.1a50 50 0 0 1 7.7-11.5c3.5-4.2 6.1-8.1 5.8-8.6-3.5-5.5-27.1 12-38 28.1-3.4 5.1-3.6 5.9-3 10.4 1 7.7 5.3 14 7.4 10.9q1.7-2.4 7.2-1.4 3.4.8 6.4-.7c2.9-1.5 17.4-12.1 30-22 11-8.6 18.9-13.2 34.5-19.7l11.5-4.8c6.6-2.8 7.2-3.4 5.4-5.2-2.2-2.2-16.3-3-21.1-1.2M1245 930a43 43 0 0 0-12.8 5.8c-.3 1.1 4.4 2.2 9.6 2.2 4.5 0 21.2 5.5 27.2 8.9l7.1 4a373 373 0 0 1 36.2 29.2c6 5.4 11.4 9.9 11.9 9.9 5.7 0-23.7-37.1-36.7-46.2a74 74 0 0 0-28.2-12.8c-6-2.1-10.1-2.4-14.3-1m682.9 11.4c-.4.4-8.7 1.1-18.5 1.6-23.1 1.1-36.1 3.3-44.1 7.3q-19.7 9.6 21.7 1.1c13.2-2.7 55.7-2.5 69.5.4l17 3.3c3.9.7 12.9 2.8 20 4.7 7.2 1.9 16.6 4.2 21 5.2a282 282 0 0 1 43.9 13.6 964 964 0 0 1 48.1 27.2 196 196 0 0 1 32.5 24.1c11.1 9.8 16 13.1 16 10.9 0-1.7-9.4-11.3-16-16.3-2.8-2.2-10.2-8.5-16.3-14.1a176 176 0 0 0-29.4-23.2c-8.6-5-62.9-32.2-64.3-32.2a177.3 177.3 0 0 0-49.5-12.1c-8-1.1-50.8-2.3-51.6-1.5m-909.4 2.6a105 105 0 0 0-44 12.3c-14.1 8.2-31.9 23-39.3 32.5a154 154 0 0 0-14.2 21.1c0 2-9.4 9.2-16 12.1-27.4 12.1-38.2 23.4-47.8 50-6.2 17.1-7.6 22.9-6.3 25.6.9 2.2 1.4 2.4 2.6 1.4q1.4-1.2 1.5-2.3c0-1.4 5.9-15.4 11-26.4 2.9-6.1 5.6-9.9 10.7-15.1 9-9.1 15.8-12.8 38.8-21.2 16.6-6.1 23-8.8 41-17.6 18.3-8.9 22.1-11.2 21-12.2-.5-.6-15.2 1.8-24.2 3.9-12.5 2.9-17.3 2.5-17.3-1.5 0-1.3 1.6-3.7 3.8-5.7a256 256 0 0 1 31.7-23.9c8.2-5.6 21.1-11.6 32.5-15.2 12.4-3.9 28.5-5.2 53.7-4.4 20.5.6 48.3-.2 50.4-1.5s-1.6-4.5-6.4-5.7a184 184 0 0 0-36.7-5.7 261 261 0 0 0-46.5-.5m600 12.7a45 45 0 0 0-24.8 10.8c-6.4 7-7.8 15.2-4.7 27.2 3.2 12.2 3.1 20.8-.3 27-10.6 19.1-11.3 22-12.2 47.7-.5 15.9-.3 19.1 2.5 34.1.5 2.7 1.2 7.1 1.5 9.8s1 4.5 1.6 4.1c.6-.3 1-6.9.9-16.2a102 102 0 0 1 1.8-24.7c4.3-19.9 7.7-27.5 13.6-30.7a45 45 0 0 1 12.2-1.8c11-.8 16-2.7 17-6.7a43 43 0 0 0-2.6-12.4c-3.4-11.1-4.4-21.8-2.2-25.7 1-1.7 2.2-2.2 5.5-2.2 3.9 0 4.6.4 11.2 7.3 10.3 10.9 19.7 18.4 24.6 19.7 7.6 2.1 19-1.2 22.3-6.3 3.7-5.5 3.1-11.9-2.3-26.6a53 53 0 0 1-3.1-11.1c0-4.9 3.9-6.3 10.2-3.6 1.8.8 8 3 13.8 4.9s13.7 4.7 17.5 6.2c7.9 3 16.6 5.8 27 8.5 25.1 6.6 30.2 7.5 42.5 7.5s18.5-1.2 33.2-6.6l10.8-3.8c5-1.6 23.8-10.4 26.5-12.4 3.3-2.5.9-3.1-5.2-1.3a118 118 0 0 1-28.3 6.1c-11.9.9-12.8 1.1-16.4 5.1-3.2 3.5-3.5 3.6-14.3 4.7-9.6.9-11.5.9-15.9-.7-2.7-.9-7.4-2.4-10.4-3.2s-6.4-1.9-7.5-2.4l-7-2.6-43.5-15.3c-15.7-5.6-33.9-11-47.5-14.1-3.9-.9-42-1.1-48-.3M1166 972.6a61 61 0 0 0-23.5 13.6 68 68 0 0 0-12.5 23.5c0 1.3-.5 3.4-1.1 4.5s-1.7 5.5-2.5 9.7l-2.3 12.1a76 76 0 0 0-.2 23.4c1 .7 4-8.3 4.7-14.4a37 37 0 0 1 2.1-8.4c.8-2.2 1.8-5.8 2.3-8a100 100 0 0 1 18.9-39.2c7.1-7.2 18-11.4 31.2-12.1 9.5-.6 9.6-.6 19.1 3.6 10 4.4 19.2 11.3 35.8 26.9 7.7 7.3 10.5 8 5.3 1.4a103.5 103.5 0 0 0-18.9-21.3 69 69 0 0 0-24.4-13c-3-.6-7.4-1.7-9.8-2.5a55 55 0 0 0-24.2.2m215.5 12.5c-1.6.5-5.7 1.4-9 2-11 1.8-15.1 5-7.4 5.7 5.4.6 6.1 1.7 5.3 8.9-.3 3.4-.4 7.3 0 8.6 1 4 8.6 7.3 30.6 13.3 3.2.9 10.5 1.6 17.6 1.7 13.7.2 15.7 1.1 16.7 7.1.3 1.8 1.4 5.3 2.5 7.7s2.3 6.4 2.7 8.9c.9 6.6 4.6 15.5 5.6 13.8.5-.7.9-7.5.9-15.1V1034l-6.4-12.5c-3.6-6.8-7.9-14.5-9.6-17a53 53 0 0 0-16.7-15.6 74 74 0 0 0-32.8-3.8m-114.9 12.2c.2.7 1.5 1.9 2.8 2.7s5.7 4.4 9.7 8l13 11.5c17.4 15.5 30 24.7 31.6 23.2.6-.7-1.4-4.3-5.5-9.9a171 171 0 0 0-44.5-33.9c-5.1-3.1-7.9-3.7-7.1-1.6m-102.4 24.7c-11 5-14.9 16-9.3 26.8 6.5 12.6 19.2 13.5 29.6 2 6.8-7.6 8.3-16.5 3.7-22.8-2.5-3.4-11.7-8-16.1-8-2 0-5.5.9-7.9 2m735 16.1c-1.3.5-3.5 2.3-5 4-11.9 14.2-12.2 23.3-.9 29.1 8.3 4.2 18 2.3 23.1-4.5 4.8-6.4.7-21.9-7.2-27.2-3.9-2.6-6.2-3-10-1.4m-886.2 21.3c0 10.2 12.3 50.2 22.7 73.8 3.8 8.9 7.7 19.3 12.2 32.8 3.7 11.1 6.6 33 5.2 39.1-.6 2.4-1.1 6.2-1.1 8.4 0 3.3.2 3.7 1.3 2.5a58 58 0 0 0 6.2-15.5c1.4-5.8.6-33.2-.9-37-.9-2-2-6.4-2.6-9.8s-1.5-6.7-1.9-7.2-1.3-2.9-2-5.2-2.9-8-5-12.5-4.1-9.7-4.5-11.3-1.4-4.4-2.1-6c-.8-1.7-3-7.3-4.8-12.5-6.4-17.8-18.8-42.9-21.6-43.8q-1-.3-1.1 4.2m1066.2.8c-6.2 6.5-12.2 24.5-12.2 36.5a71 71 0 0 0 8.5 29c4.5 8.8 4.7 9.2 3.4 12.8-.8 2-3.8 6.5-6.7 9.8-18.5 21.2-28.4 36.1-30.8 46.2a48.5 48.5 0 0 0-3.7 14.5c-.9 5.2-1.8 10.2-2.2 11.1q-.4 1.6.6 2.5c1.2.7 2.2-.2 6.2-5.7a675 675 0 0 0 30.8-45c12.7-18.9 23.9-43.6 23.9-52.4 0-5.3-1.9-13.5-3-13.5-.5 0-1.1 1.7-1.5 3.7a39 39 0 0 1-3.3 9.3c-2.2 4.4-3.2 5.5-5.1 5.5-4.1 0-4.9-4.5-5-28.1-.1-21.1-.1-21.2 2.9-29.5 1.6-4.6 3-8.7 3-9.2 0-1.7-2.8-.5-5.8 2.5m68.8 8.2c0 2 4.3 8.7 7.1 11a43 43 0 0 0 12.4 6.6c.3 0 2.5.9 4.8 1.9 2.4 1.1 5.6 2.3 7.2 2.6q4 1.1 1-.7c-1.1-.8-3.2-1.8-4.6-2.1s-3.8-1.8-5.5-3.2c-1.6-1.4-3.4-2.5-4-2.5s-4.2-2.6-8-5.8c-9.8-8-10.4-8.5-10.4-7.8m-707.6 26.1c-1 4.1.6 28.8 2.2 34.2 11.7 37.8 10.9 53.7-4 84.4-5.8 12-6.1 12.9-4.8 12.9 1 0 8.9-6.7 13-11a84 84 0 0 0 15-25.8 86 86 0 0 0 .4-41.6 173 173 0 0 0-9.2-27.2c0-.7-1.9-5.8-4.1-11.5-2.3-5.7-4.5-11.7-4.8-13.3-.8-3.9-2.9-4.4-3.7-1.1m748.1.9c6.5 4.4 12.2 10 21.5 21.1 4.1 5 9.5 11 12 13.5 6.4 6.3 13.8 15.6 16.2 20.3 3.5 7 6.7 25.2 7.8 44.9 2.4 42.1 3.7 50.8 10.2 70.1 1.5 4.4 1.9 7.6 1.5 14-.2 4.5-.8 9.3-1.2 10.7-.8 2.3-.8 2.4.8.8.9-.9 1.7-2.1 1.7-2.7s.9-2.5 2-4.3c1.6-2.7 2-5.1 2-12.3 0-7.9-2.1-23.2-3.5-25.5-.3-.5-1-17.9-1.5-38.7a581 581 0 0 0-1.9-42.3l-2.1-11a48 48 0 0 0-9.8-21c-1.5-1.6-11.5-9.9-22.2-18.5-19.1-15.2-30.7-22.5-36.2-22.5-1.8 0-1.3.7 2.7 3.4m-1352.4 10.3a83 83 0 0 1-11.8 25.7c-10.2 16.5-13.8 27.4-19.8 59.6-.7 4.1-1.6 8.2-1.9 9-1.9 5-8.5 39.6-11.1 58.5-.9 6-1.8 11.7-2.1 12.5s-1.4 8.2-2.4 16.5c-2 16-3.9 27.9-7 44l-3 16.5c-.6 3.6-1.7 9.2-2.5 12.5l-4 18.5-3.6 16.7c-1.5 6.9-1.1 7 2.7.7a333 333 0 0 0 26.4-61.9c1-3.3 3-9.2 4.5-13 4.2-11 11.8-38.2 13-46.5l2.1-13.6c3.9-24.2 8.3-70.7 6.9-74.1-.2-.7 0-10.1.6-20.9.8-16.2 1.3-20.3 2.9-23.5a18 18 0 0 0 2-5.3c0-.9 1.4-3.7 3-6.3s3-5.3 3-6 1.2-2.6 2.7-4.1c2.4-2.4 2.7-3.5 2.8-10.2.1-4.1.3-8.1.6-8.9q.2-1.3-1.2-1.8c-1.2-.3-1.9 1-2.8 5.4m769.5 10.4c-2.7 2.1-2.7 2.4-2.4 10.8.4 8.2 4 21 7 24.8q3.4 4 2.5-8.2c-.5-7.1-.3-8.5 1.2-9.9 1-.9 2.2-1.6 2.7-1.6 2.1 0 18.7 15.9 23.7 22.7 9.2 12.3 33 37.3 38.4 40.1 2.7 1.5 4.1.9 2.6-1l-11.9-14.9c-6-7.4-12-15-13.4-16.9-14.4-19.4-37.2-44.3-42.7-46.6-4.2-1.8-4.5-1.8-7.7.7m-337.2 9.1c2.4 16.3 3.5 28.3 3.4 37.1-.1 13.9 2 22.6 8.4 34.8 3.3 6.2 14.9 18.9 17.3 18.9 1.9 0 1.5-.8-6.1-12.6a87 87 0 0 1-8-15.8c-2.3-6.8-2.5-9-2.8-26.2-.2-16.7-.5-19.7-2.5-25.6-2.3-6.9-7.3-14.8-9.2-14.8q-1.2 0-.5 4.2m104.8-.5a76 76 0 0 0 1.2 26.8c.9 2.2 2.1 6 2.7 8.5 1 4.6 1.4 5.5 8.9 21.5a101 101 0 0 1 7.1 17c.7 2.2 1.6 4.4 2 5s1 2.5 1.4 4.4 2.5 8.1 4.5 13.7c2.1 5.7 4.6 13.1 5.4 16.6q5.3 20.3 5.6 3.3c.1-4.7-1.2-9.9-5.6-23.5-3.1-9.6-6.4-19-7.2-20.9-1.8-4.3-5.1-15.3-6.2-21.1a294 294 0 0 0-8.5-32.5 54 54 0 0 0-6.1-16.2c-2.7-4.6-4-5.3-5.2-2.6m-523.2.9c0 .8.5 2.5 1.1 3.6 1.2 2.2 17.3 18.4 26 26.1a1608 1608 0 0 1 41.9 40.2 214 214 0 0 0 33 28.5c19.2 12.9 27.4 16.2 35.9 14.2 3.9-.9 5.2-2.9 2.4-3.8-4.9-1.7-17.7-8.3-25.5-13.1-6.4-3.9-11-7.9-18-15.4-26.9-29.3-33.5-35-57.2-49.4-4.4-2.7-11.8-8.1-16.5-12a87 87 0 0 1-16.9-17.5c-2.5-3.2-6.2-4.1-6.2-1.4m223.1 30.2c.4 2.1 2 6.3 3.4 9.3s2.5 6 2.5 6.7.7 2.7 1.6 4.3c1.6 3.2 4.8 14.1 6.5 21.9l2.3 9.5c1.8 6.4 4.2 16 6.6 25.5a390 390 0 0 0 18.6 59.3 194 194 0 0 0 23.5 42.7c23 34.4 28.4 46.2 37 80.5.6 2.2 2.1 6.2 3.4 9s2.9 6.4 3.5 8.2c3.1 8.3 5.8.6 4-11.2a206 206 0 0 0-15.6-55l-4.7-10.5c-1.3-3.2-3.9-6.9-16-23.3a134 134 0 0 1-13.8-26c-1.1-2.9-3.2-7.7-4.5-10.7a503 503 0 0 1-24.8-63.5c-4-12.7-13-36.8-18.7-50.3a114.8 114.8 0 0 0-14.7-30q-1-.3-.1 3.6m1099.2 24.4q-6.7 7.3-13.5 27.8c-8.8 26.7-11 38.2-11.6 63-.4 17.6 1.6 32.4 7.4 54.5 1.7 6.5 4.7 11.5 6.1 10.1.4-.4.8-15.5.8-33.4 0-27.1.3-34.2 1.7-41.2a82 82 0 0 0 1.8-13c0-2.5.7-7.7 1.5-11.5.9-3.9 2-11.1 2.5-16s1.6-12.6 2.4-17c3.2-17.6 3.8-22.1 3.5-23.9-.4-1.6-.6-1.6-2.6.6M1582 1231c-7.4 1.8-8.8 6.8-6.6 23.6a83 83 0 0 0 24.6 51.4 73 73 0 0 0 41.8 22.4l16.7 3.5 21.5 4.6a151 151 0 0 1 14 3.5c.8.4 3.3 1.1 5.5 1.5a139 139 0 0 1 38.5 15.7 113 113 0 0 1 25.5 25.2l12.7 17.5c11.2 15.2 14.7 21.9 15.4 29.6.6 6 .2 8.9-3.6 24.5l-4.1 17.5a278 278 0 0 1-4.8 19.5l-3 10.9c-2 7.2-3.8 12.9-8.6 27.6a327 327 0 0 0-14.6 77.4 145 145 0 0 0 8.1 60.8 720.3 720.3 0 0 0 10.3 29.4c1.9 5.2 4.6 13 6 17.4 2.3 7.2 4.7 13.8 10.8 30.5 1.2 3 2.3 6.4 2.6 7.5l2.8 9.6c1.3 4.1 2.9 12 3.5 17.5l2.7 22.9c2.2 19.3 2.2 82.6-.2 91l-3.4 14-2.6 10.9c-1.3 4.7 1.5 2.7 4.6-3.3a221 221 0 0 0 12.4-43.6c4.9-30.4 5.3-46.7 2.5-98.5-1.5-26.5-3-33-12.5-52.5-5.9-12-9.6-21.6-16.2-42l-4.5-13.7q-3.4-10.2-6.5-28.8c-1.6-9.8-1.3-35.8.6-48a713 713 0 0 1 5.6-33.5c.9-3.9 1.9-10.2 2.4-14a541 541 0 0 1 13.3-62c9.6-35.3 9.7-36 9.8-44.2 0-6-.6-9.8-2.1-13.9a225 225 0 0 0-23.1-35.5 22 22 0 0 1-3.8-5.7c0-.5-1.9-3.2-4.3-5.8-2.4-2.7-6.4-7.5-8.9-10.7-11.6-15-34.2-25.4-71.3-32.9l-11.5-2.5c-3.6-.8-10.1-2.1-14.5-2.8s-10.9-1.9-14.5-2.8-9-2-12-2.6c-16.5-2.9-22.5-5.8-31-14.5a86 86 0 0 1-22.7-50.4c-.5-6.5-.3-8.1 1.1-9.5 2.6-2.6 8.1-2.1 19.1 1.9 5.5 2 11.1 3.9 12.5 4.3a319 319 0 0 1 37.5 19.6c6.5 5 26.3 11.8 39.5 13.5a192.3 192.3 0 0 0 34.5 4c28 1.2 43.8 5.6 64.1 18 3.6 2.2 6.8 4 7.1 4s1.7.9 3.3 2 7.3 4.2 12.8 7c21.2 10.6 44.3 10.7 58.5.3 9.8-7.2 13.5-19.8 8.7-29.3-3.7-7.3-21.5-20.6-32.9-24.6-2.5-.9-5.3-1.9-6.2-2.4s-5.1-1.4-9.5-2c-4.3-.7-8.7-1.6-9.6-2.1a83 83 0 0 0-26.3-2.8c-12.4.1-12.3.5.5 2.9l10.5 2.1 9.5 1.9c20.2 3.8 42.7 13.7 51.5 22.5 4.2 4.2 5.3 6 6.4 10.8 1.4 6.6.2 14.4-2.7 17a36 36 0 0 1-19.9 5.7c-13.6 0-25.5-4.2-61.8-22.1-31.4-15.4-35.9-16.9-52.5-17.9-29.3-1.7-59.4-6-75-10.7a194 194 0 0 1-42.5-21.3c-10.4-6.9-21.2-13-23.1-13-.6 0-4-.9-7.4-2a42 42 0 0 0-6.9-1.9zm442.3 32.1a121 121 0 0 0-10.6 23.4c-6.4 19.1-6.5 20-9.8 49.5-1.2 10.5-.6 38.4 1 47.6l2.1 13.4c2.3 16.5 8.6 38.3 13.9 48.7 3.4 6.8 9 12.5 14.4 14.7 5.3 2.2 28.9 3.9 41.7 3.1 25.2-1.6 43.4-7.1 58.4-17.4 4.3-3 19.9-18.9 25.2-25.7 3.5-4.5 11.7-17 14.9-22.9a508 508 0 0 0 23.5-46.3q0-1.3-2.7-1c-2.3.2-3.6 1.7-7.3 7.9-2.5 4.1-6.3 10-8.5 13s-4.5 6.3-5.1 7.4a181 181 0 0 1-9.4 15.9c0 .4-2.2 4-5 8a93 93 0 0 1-41 36.3 107 107 0 0 1-44.4 12.2c-10.4 1.2-29.1 0-34.9-2.1-5.3-2-9.1-10-14.7-30.8-1.1-4.1-2.5-10-3-13l-2.5-14c-5.9-32.1-6.4-96.5-.9-107.3.8-1.5 1.9-4.6 2.4-7 .4-2.3 1.6-6.2 2.5-8.6 1.7-4.7 1.6-7.2-.2-5m-641.1 14.1c-.8.8-1.2 5.9-1.2 16.5a73 73 0 0 0 2.2 23.1 78 78 0 0 1 2.2 22.7c.1 14.2 0 15.4-2.7 21.8-1.5 3.8-6.5 13.5-11.1 21.5a1006 1006 0 0 0-24.1 43.8 25 25 0 0 1-6.4 8.7c-4.5 2.6-5.9.7-7.5-10.3a249 249 0 0 0-3.2-17 64 64 0 0 1-1.1-19c.3-6.4 1-12.7 1.6-14.1a99 99 0 0 0 3.1-27.9c-1.5-2.8-4.4-1.1-6.8 3.8l-3 5.7a60 60 0 0 0-6.2 17.5c0 1.7-.9 6.7-2.1 11.2-1.7 6.6-2 9.6-1.4 16.7.3 4.7 1.3 10.8 2.1 13.6s1.9 7.7 2.4 11l2 12.6q1.1 6.5.1 10.5l-1.9 7.4c-.5 1.9-2 6-3.4 9-3.6 7.8-5.3 12.9-4.6 13.5 1.9 1.9 15-10.1 18.5-16.8.8-1.6 3.5-5.6 6.1-8.9s6.5-8.7 8.7-11.9l16.6-23.1c6.9-9.5 15.2-21.1 18.3-25.8s7.3-10.3 9-12.5a64 64 0 0 0 10.6-17.5c2.1-5.2 2.2-6.6 1.7-23.5-.6-19.4-3.4-38.9-6.6-47.6-2.5-6.5-8.2-15.9-9.6-15.9q-1 0-2.3 1.2m-151.3 49.9c-.3 4 .6 8.2 3.8 17.8 4.8 14.4 5.4 27.4 2.4 48.3a144 144 0 0 0-1.2 37.8c.8 2.4.8 2.4 2.5-1.5a89 89 0 0 0 3.6-11c3.3-12.1 6.7-23.8 8.9-30.4 1.4-4.5 2.1-9 2.1-14.7 0-9-.9-11.5-11.1-32.1-4.9-9.7-10.8-17.4-11-14.2m-122.2 53.6a48 48 0 0 0-3.2 7.3c-.4 1.4-3.6 8.3-7.1 15.5a140 140 0 0 0-12.4 37l-2.3 14.5a390 390 0 0 0-4.2 66c0 28.9.5 35.7 4.2 60.5l2.4 16.3a131 131 0 0 0 2.3 12.5c4.9 21 5.9 25.9 7.2 36.5a348 348 0 0 0 7 45.7c3.6 10.5 13 22.1 33.4 41.4 8.4 8 17.4 17.6 20.1 21.4 2.7 3.9 4.9 6.4 4.9 5.6 0-2.7-5.9-17.1-8.5-20.9-1.4-2-5.1-5.9-8.1-8.6a90 90 0 0 1-21.1-27.9 53 53 0 0 1-6.6-23c-.9-7.2-2.4-22-3.3-33s-2-22.9-2.5-26.4c-.6-3.6-1.9-14.6-3-24.5-1-10-2.3-21.5-2.9-25.6a974 974 0 0 1-2.1-40.5c-1.6-42.8-.2-90.2 3.1-103.4 1.1-4.7 2.5-13 3.1-18.5.5-5.6 1.4-11.4 1.9-13a60 60 0 0 0 1.6-10.6q1.2-14.4-3.9-4.3m725.9 35a260.7 260.7 0 0 1 15.8 52.5l5.1 23c4.3 19.7 6.3 30 7.4 39.3l2.1 14.5c1.3 7 3.7 28 5.5 48 .8 8.5 1.9 17.7 2.4 20.5.6 2.7 1.5 9.7 2.1 15.5 1.7 16.6 2.9 23.8 5.1 30.7 4.1 12.5 7.7 11.8 9-1.9 1.4-14.9 1-63.1-.7-76.8l-2.9-24.5a600 600 0 0 0-9.6-55.5 329 329 0 0 0-15.6-51.9 119 119 0 0 0-21.1-35.4c-6.5-6.6-7.7-6.2-4.6 2m-1093.2 39.5-7 8.3c-8.5 11-25.9 30-44.9 49.5-21.9 22.3-29.5 31.6-29.5 36 0 3.4 5.6 11.9 9.1 13.9 2.4 1.3 2.9 1.3 5.2-.2 1.4-.9 9.5-12.1 17.9-24.9 17.1-25.9 16.9-25.6 25.3-39.8 3.3-5.6 10.8-17.5 16.6-26.4s10.8-16.9 11.2-17.9c1-2.6-.6-2-3.9 1.5m1456.3 24.5c-1.2 1.1-.7 7.5 1.3 17.9 2.6 13.5 6.3 25 11.7 36.4 7.7 16.4 12.3 23.1 30.6 45.5 5.4 6.6 13.5 17.4 17.9 23.9 12.9 19 16.8 22.7 21.8 20.6a8 8 0 0 0 4.6-9c-1.2-6.4-16.7-27.6-31.7-43.5-24.3-25.7-37.8-47.8-52.9-86.8-2.4-6.1-2.3-6-3.3-5m-1348.8 65.5c5.6 14.4 32.1 54.1 53.1 79.8 2 2.5 8.3 11.2 13.8 19.5 14.5 21.4 17.5 25.6 21.6 29.4 5.8 5.6 5.8 5.7-3.4-18.4a357 357 0 0 0-44.6-75.1c-10-12.7-29.9-32.6-35.2-35.3s-6.4-2.7-5.3.1m1218.7 87.9c-.9 2.4-2.3 7.5-3.2 11.4-1.6 7.5-5.1 16.9-9.2 25a86 86 0 0 1-13.9 18.5c-3.5 2.8-18.8 14.2-30.8 22.7a226 226 0 0 0-33 27.5c-7.5 8.3-9.1 12.9-15.5 43.8l-1.9 8c-6.1 22.7-10.1 31.9-25 57.8-4.3 7.5-8.9 16.6-10 20.2-4.1 12.4-4.9 40.1-1.5 49.7 1.8 4.9 4.1 6 8.1 3.9 8-4.1 10.7-10.3 12.4-28.1 1-10.7 3.6-20.4 6.7-25.5l5.7-9c2.3-3.6 6.1-10.1 8.5-14.5l6-10.5c1-1.4 3.4-6.1 5.4-10.5l4.5-9.5c2.1-3.9 9.2-30.3 12.1-45 1.9-9.9 6.1-21 9.8-25.8 4.9-6.5 7.5-8.7 25.1-21.5 8.5-6.2 18.1-13.6 21.3-16.6a82 82 0 0 0 24.5-52.6c.6-9.4-.8-18.8-3.1-22-1.2-1.7-1.5-1.4-3 2.6M1097 1751.9c0 1 2.3 5.4 5.1 9.7a592 592 0 0 0 22.8 31.4c1.4 1.2 9 11.1 15.2 19.7 3.7 5.1 9.1 12.1 12.1 15.6a465 465 0 0 1 20.2 24c7.4 9.4 9.9 10.9 9 5.4-.8-4.3-7.8-20.9-11.1-26-4-6.3-13.7-18.2-22.8-27.7a162 162 0 0 1-12.4-14.8 367 367 0 0 0-32.5-36c-4.2-3.7-5.6-4-5.6-1.3m40.3 130.7a49 49 0 0 0 5.3 18.5c1.3 3.1 2.4 6 2.4 6.4 0 1.2 14.6 23.1 18.8 28.2 5.6 6.9 6.4 6 6-6a33 33 0 0 0-3.1-16c-6.2-13.2-17.6-27-26-31.3-2.5-1.3-2.8-1.3-3.4.2m-588.4 140.3a94 94 0 0 0-21.4 15.1 604 604 0 0 1-38 27.1c-44.7 30.2-57.6 39.3-61.4 43.5-2.9 3.2-3.3 4.1-2.9 7.8.6 4.7 8.3 18.4 16.2 28.6a423 423 0 0 0 37.3 41.4 58 58 0 0 0 24.1 12.5c11.4 2.4 20.8 1 42.2-6.4 29.9-10.4 38-17 50.1-41 11.9-23.6 12.4-25.2 12.3-37.5 0-15.3-3-22.2-22.9-52.5l-14.1-21.9c-9.1-14.7-14.5-18.9-21.5-16.7m6.6 41.3c2.6 1.2 12.9 15.7 17.3 24.3 5.5 11 7.1 25.7 3.8 36.8a64 64 0 0 1-30.8 36.1 60 60 0 0 1-30.2 7.6c-5.6 0-11.7-.5-13.7-1-5-1.4-14.9-8-20.7-13.8-5-5-15.9-18.9-18-22.9-3.2-6-.6-10.1 15.2-23.7a117 117 0 0 1 28.1-20.3 270 270 0 0 0 20.7-12.5c18.8-12.1 22.2-13.4 28.3-10.6m1923.5-13.6c-8 2.2-13.4 5.7-23.9 15.8a91 91 0 0 0-20.5 27.3 54 54 0 0 0-7.2 22.3c-1.1 11.9 1.5 16.8 19.1 35.6 8.5 9.2 9.9 10.3 14.6 11.4 2.8.7 7.9 1 11.3.8 10.2-.9 16.9-5 47.1-29.1 8.2-6.6 17.4-13.2 20.4-14.5 17-7.8 32 2.8 30.9 21.6a45 45 0 0 1-28.5 37 48 48 0 0 1-11.1 2.2c-8.3 0-18.4 7.5-21.3 15.9-1.4 4.1.2 6.8 5.6 9.2a43 43 0 0 0 35-2.4c10.7-5.6 32.9-30 39.4-43.3a77 77 0 0 0 7.7-33.6c-1.7-18.8-12.2-30.4-34.1-37.6-15.7-5.2-20.9-5.3-30-.6a132 132 0 0 0-25.5 18.4l-12.5 10.5a51 51 0 0 1-19 12.6c-5.7 2.1-5.9 2.1-11.4.4-6.8-2.1-10.6-6-12.6-13-2.7-9.2 1.2-19.9 10.9-29.7a39 39 0 0 1 23.5-11.2c5.8-.9 8.9-2 11.5-4a70 70 0 0 0 13.6-15.6c0-2.2-4.5-4.8-10.9-6.3-8.3-2-14.8-2.1-22.1-.1M665.6 2182.5c-2 1.3-6.2 5-9.4 8.2a401 401 0 0 1-25.6 23.8c-2.7 2.2-8.4 8.3-12.6 13.5a182 182 0 0 1-30 30.2 192 192 0 0 0-26.8 26.2c-4.9 6.4-1.8 15.4 7.4 21.5 8.8 5.8 9.3 5.5 32.9-18.8q19.5-20.2 25.7-20.1c5.1 0 8.9 2.9 25.7 19.4 19.8 19.5 22.1 22.4 22.1 28.1 0 5.6-1.9 8-24.5 30-21.1 20.5-21.2 20.8-15.2 28.7q7.2 9.3 13.2 8.2c8.8-1.8 20.6-11.3 33.5-26.9 11.6-14 18-20.5 29.2-29.6 5.3-4.3 14.9-13.8 21.3-20.9 11-12.3 19.6-20.1 29.3-26.5 5.7-3.7 5.5-5.7-1.3-12.2-6.9-6.5-15.3-10.8-19.2-9.8-5.6 1.3-12.3 6.8-23.7 19.3-12.5 13.9-18.4 19.2-21.3 19.2-1 0-4.1-1.9-6.9-4.3a411 411 0 0 1-40-42.1c-1.3-5.3.6-7.9 16.8-23.9 12.4-12.3 16.5-17 18.5-21.3 2.1-4.7 2.3-5.9 1.3-8.9a27 27 0 0 0-11.7-12.2c-4.3-1.7-4.4-1.7-8.7 1.2m1699.9 13.2c-14.6 3.5-41.2 23.5-51.4 38.7-13 19.4-17 45.9-9.8 65.1 5.3 14.4 37.3 48.6 52.8 56.5a90 90 0 0 0 38.3 7.7 81 81 0 0 0 38-14.6c2.9-2.2 8.7-7.7 13-12.3a64 64 0 0 0 16.1-28.8c1.3-8.5 3.5-10 11.6-7.9l4.9 1.3 4.1-4q6.9-6.7 6.9-11.6c0-3.4-6.5-16.4-9.6-19.3a74 74 0 0 0-10.8-7.1 201 201 0 0 1-34.1-24.6 29 29 0 0 0-9.3-6.8c-1.3 0-5 3.3-10.4 9.1-4.6 5.1-12.9 14.1-18.5 20-12.6 13.3-13 14.7-5.3 22.1s9.2 7 23.5-6c6.6-6 7.2-6.4 10.8-5.9 4.7.6 8 3.6 12.7 11.4 3.3 5.4 3.5 6.3 3.5 14.3 0 7.6-.4 9.2-3.4 15.5a56 56 0 0 1-25.8 24.9 33 33 0 0 1-16.5 2.8c-8 0-10.3-.4-16.4-3a99 99 0 0 1-48.7-48.1c-3-6.2-3.2-7.3-3.2-17.7 0-10.7.1-11.2 3.7-18.5a43 43 0 0 1 16.6-19.3c9.9-6 14.2-7.1 28.2-7.2 6.9 0 13-.1 13.7-.2 2-.3 17.2-14.3 17.9-16.4 1-3.2-5-6.2-19.1-9.4a85 85 0 0 0-24-.7M809.7 2314.1a69 69 0 0 0-7.8 13.7 80 80 0 0 1-20.3 29.7 69 69 0 0 0-14.4 19.3 140 140 0 0 1-25.8 34.2c-18.4 18.8-23 27.2-18.9 34.9 2.3 4.6 10.8 11.5 23.3 18.9a119 119 0 0 1 30.7 23.7 74 74 0 0 0 23.2 17.4c8.6 4.3 12 4.1 17.9-1 7-6.1 8.7-8.5 7.5-10.7-1.3-2.5-9.4-8.6-21.6-16.2-5.5-3.5-13.8-9.3-18.4-12.9l-15.5-11.9c-10.8-8.1-11.6-9-11.6-13.4 0-4.8 2.2-9.2 9.7-19.4 10.6-14.1 15.1-16.6 23.9-12.9 4.5 1.9 22.8 14.1 31.4 20.9 15.8 12.6 20.5 14.5 27.6 10.8 2.1-1.2 5.4-3.4 7.2-5.1 2.9-2.6 3.2-3.2 2.1-5-.7-1.1-4.7-3.9-8.9-6.2a182 182 0 0 1-39.3-26.7c-9.8-8.3-10.7-9.5-10.7-14.9 0-6.5 14.2-27.6 19.6-28.9 3.8-1 11.2 2.5 21.4 10.1l16.5 12c3.9 2.7 11.4 8.4 16.9 12.7a41 41 0 0 0 12.2 7.8c2.7 0 6.4-4.4 9.5-11.4 2.1-4.8 2.1-4.9.2-7.5a61 61 0 0 0-9.9-8.1 969 969 0 0 1-38-28.2 1244 1244 0 0 0-33.4-25.1c-2.8-1.9-3.8-2-6.3-.6m1393.8 20.8c-5.8 1.7-23.1 9.8-28 13.1a160 160 0 0 0-25.5 24.5c-5.2 7-6.6 10-9.1 19.6a95 95 0 0 0 6.1 58.2c3.5 7.4 13.1 20 18.7 24.6 24.1 19.5 34.3 26.4 42.3 28.8 10.7 3.1 36.8 0 47.9-5.7a159 159 0 0 0 39.5-36.1 49 49 0 0 0 8.5-31.4c0-19.1-1-22.3-16.3-49.9-7.7-14-13-21.1-20.7-27.8a80 80 0 0 0-32.4-16.4c-6-1.7-26.8-2.7-31-1.5m22.8 31a62 62 0 0 1 24.6 16.1 76 76 0 0 1 18.2 26c4.8 11.8 6.2 27 3.4 36.3a48 48 0 0 1-23.1 25.7l-6.9 3.5h-29l-8-3.9c-15.2-7.4-27.5-23-33.9-43.1a52 52 0 0 1-2.6-19.4c0-10.5.2-11.8 3-17.5a51 51 0 0 1 28.8-24.1c7.1-2 18.9-1.8 25.5.4M982 2435.3c-4.7 2.3-24.2 21-38.4 37-8.1 9.1-18 18.1-30.9 28a83 83 0 0 0-16.2 17.2 83 83 0 0 1-22.6 22.3c-5.3 3.6-6.4 5.5-4.7 8.2a36 36 0 0 0 16.6 8.6c5.8.9 10.8-1.8 22.5-12.1 9.1-8 9.9-8.5 14.3-8.5 5.3 0 15.8 4.6 28.9 12.6 4.4 2.7 11.1 6.5 14.9 8.4 10.4 5.3 10.7 6 9.9 26.1-.6 15.8-.5 16.8 1.5 20.1 2.3 3.7 9 7.8 15.9 9.8 3.6 1.1 4.6 1.1 6.7-.4 1.4-.9 3.2-2.9 3.9-4.4a180 180 0 0 0 5.7-36.7 199 199 0 0 1 2-17.5l2.5-17c.8-6.3 2-13.5 2.5-16 1.1-5.3 4.4-28 6.1-42.9 2.1-18.4-.4-29.5-8.1-36.5-9.1-8.2-23.5-10.9-33-6.3m11.1 30.8c1.2 2.3.5 17.7-1.1 25.4-.8 3.8-1.4 7.4-4.1 25.5-1.9 12.3-4.5 17-9.4 17a110 110 0 0 1-24.8-11.3c-15.1-8.6-14.6-11.6 5.8-32.6a440 440 0 0 1 18.7-18.2c9.4-8.4 12.7-9.7 14.9-5.8m1033.9-21.6c-6.5 1.4-11.5 2.9-20 6a651 651 0 0 0-59 30c-2 2.1-2.1 2.8-1.2 6.2 2.5 9.5 7.9 21.9 15.1 35.3a673 673 0 0 1 30.8 64.5l4.7 11 4.6 10.5c4.3 9.8 9.3 17.7 12 18.5 3.1 1 6.8-.1 19.2-5.6 43.7-19.4 59.4-30 71.2-47.9 7.4-11.2 8.9-15.8 11.5-34.5a67 67 0 0 0-4-33.4 194 194 0 0 0-28.6-41.2c-10.4-11.8-16.9-15.9-28.8-18.4a67 67 0 0 0-27.5-1m18.3 30.9a70 70 0 0 1 23.7 15.6c12.6 12.7 17.4 26.5 16.8 48.4-.3 12.1-.5 13.6-3.2 18.9a40 40 0 0 1-8.1 10.5c-8.2 7.5-34.4 21.2-40.6 21.2-4.2 0-8.2-5.7-12.9-18.4-1.2-3-5.6-10.9-10-17.6a163 163 0 0 1-20.5-41.5q-9-19.2-3.2-24.2 5.3-4.8 24.5-11.3c14.6-5 24.2-5.4 33.5-1.6m-926.9 17.3c-5.4 4.7-10.8 21.1-22.9 69.9-8 32.5-11.8 42.5-20.1 52.3-5.5 6.6-8.6 26.8-4.6 30.4a35 35 0 0 0 15.5 3.7c6.7 0 13.5-12.1 19.7-35 2.7-10.4 9.8-32.6 15-47.5a189 189 0 0 0 5.5-17.5q4.1-15.7 9.7-9.3c2.2 2.6 2.6 4.2 4.4 16.1.8 5.9 2.4 13.8 3.4 17.7 2.9 11.2 5.7 25.3 6.9 35 2.5 19.9 10 51.8 13.8 58.2a36 36 0 0 0 16.8 13.8c7.1 3.2 16.7 4.4 19.1 2.5 2.8-2.4 5.5-9 8.6-20.9 1.6-6.4 4-14.7 5.3-18.6 3.5-10.7 10.1-31.9 13-42 2.4-8.1 6.5-20.4 18.6-55.3 2.1-6.1 3.9-12 3.9-13 0-2.4-3-3.7-11.8-5.1-10.2-1.6-11.7-1.4-15 1.4s-4.1 4.6-7.2 16.5l-4 14.5c-1 3.3-3.3 11.4-5 18s-4.5 16.5-6.2 22l-4.8 16.4c-2.1 7.5-6.7 14.5-9.7 14.9q-4.3.7-6.1-11.9c-.5-3.5-1.7-9.8-2.5-13.9s-2.5-12.5-3.6-18.5l-3.6-19-2.6-14c-7.3-40.6-11.4-51.2-21.2-55.8a60 60 0 0 0-20.3-7.2c-4.9-.6-6.3-.4-8 1.2m169.6 46.1c0 2 3.2 9.9 12.8 31.2a1176.4 1176.4 0 0 1 26.8 69 64 64 0 0 1 1 31.3c-.8 5-2 14.8-2.6 21.6-1.2 11.7-1.1 12.4.7 15 2.2 2.9 6.3 4 15.8 4q6 .1 8.2-1.4c3.1-2.1 5.7-11.3 8.8-30.3 3.6-21.4 4.8-25.9 10.7-37.6a103 103 0 0 1 24.6-33.3 143 143 0 0 0 20.1-24.3l10.3-15.1c4.5-6.1.1-9.7-11.7-9.8-7.5-.1-10.6 1.7-17.2 9.7l-7.6 9.3c-3.8 4.6-9.9 12.9-20.9 28.4-10.2 14.2-13.3 16.7-17.3 14.1q-2.3-1.5-4.4-8.3c-4-12.5-8-25.7-10.7-35.3a139 139 0 0 0-6.6-17.8c-4.5-9.5-8.2-12.9-17.5-15.6l-11.8-3.8c-9.6-3.2-11.5-3.4-11.5-1m394.5-.2a83 83 0 0 0-17.2 5.5c-12.6 5.6-25.7 18-29.4 27.9a49 49 0 0 0-.4 26.8 81 81 0 0 0 12 22.9c4.3 5.6 7 12.5 5.8 14.7-.5.9-5.1 6-10.3 11.4-14.2 14.5-18.5 24.3-18.4 41.2.1 9.8 2.4 19.6 6 25.8 5.2 8.8 26.5 21.2 40.9 23.7a71 71 0 0 0 26.5-1.1c5.8-.9 19.1-5.5 25.4-8.6a74 74 0 0 0 14.2-10.9c4.5-4.4 9.1-7.9 10.2-7.9q5.3 0 15.2 8.6c9.4 8.1 12.5 9.4 24.2 9.4 9.7 0 23-2 26.8-4 1.1-.6 2-1.9 2-2.8 0-3.4-14.7-15.8-36.5-30.7-9.5-6.5-11.5-8.8-11.5-13.2 0-5.6 3.2-12 15.9-31.8a392 392 0 0 1 11.1-15.5c9.3-12.5 12.3-17.9 11.8-21.3-.9-6.3-27.2-3.5-33.8 3.5-1.2 1.3-6.9 10.4-12.7 20.3-12.3 21.1-14.6 24.3-17.8 25.1-3.7.9-12-3.5-21.7-11.5-12.5-10.5-13.5-14.9-5.3-22.6l10.1-9.5a52 52 0 0 0 15.2-29c.8-11.1-3.4-19.9-14.9-31.7a41 41 0 0 0-32.4-14.8c-4.9-.2-9.9-.2-11 .1m15.4 25c4.5 2.8 7.2 5.8 9.3 9.8 3 5.9 2.2 18.8-1.6 27.3-3.1 6.8-9.7 13.8-14.1 14.9-7.4 1.8-17.8-5.8-23.1-17-7.5-15.5-2.8-31.1 10.8-36.3 4.3-1.6 15.3-.9 18.7 1.3m-13.4 90c4.1 1.9 28.4 22.3 33.8 28.2 5.8 6.5 4.9 11.5-3.3 19a45 45 0 0 1-33.7 9.1c-8.4-1.4-10.7-2.6-15.9-8.1-8.5-8.8-9.4-23.1-2.4-37.5q6-12.3 14.1-12.3c2.3 0 5.6.7 7.4 1.6"/></svg>