<svg xmlns="http://www.w3.org/2000/svg" width="1080" height="1080" viewBox="0 0 810 810"><defs><clipPath id="a"><path d="M47.73 358H85v43H47.73Zm0 0"/></clipPath><clipPath id="b"><path d="M323 340.7h56V424h-56Zm0 0"/></clipPath><clipPath id="c"><path d="M707 340.7h55.48V424H707Zm0 0"/></clipPath><clipPath id="d"><path d="M181 453h16v15.94h-16Zm0 0"/></clipPath><clipPath id="e"><path d="M208 453h10v15.94h-10Zm0 0"/></clipPath><clipPath id="f"><path d="M229 453h12v15.94h-12Zm0 0"/></clipPath><clipPath id="g"><path d="M251 453h13v15.94h-13Zm0 0"/></clipPath><clipPath id="h"><path d="M275 453h13v15.94h-13Zm0 0"/></clipPath><clipPath id="i"><path d="M300 453h10v15.94h-10Zm0 0"/></clipPath><clipPath id="j"><path d="M321 453h12v15.94h-12Zm0 0"/></clipPath><clipPath id="k"><path d="M344 453h3v15.94h-3Zm0 0"/></clipPath><clipPath id="l"><path d="M358 453h17v15.94h-17Zm0 0"/></clipPath><clipPath id="m"><path d="M402 453h12v15.94h-12Zm0 0"/></clipPath><clipPath id="n"><path d="M426 453h12v15.94h-12Zm0 0"/></clipPath><clipPath id="o"><path d="M448 453h18v15.94h-18Zm0 0"/></clipPath><clipPath id="p"><path d="M476 453h17v15.94h-17Zm0 0"/></clipPath><clipPath id="q"><path d="M505 453h10v15.94h-10Zm0 0"/></clipPath><clipPath id="r"><path d="M526 453h15v15.94h-15Zm0 0"/></clipPath><clipPath id="s"><path d="M552 453h14v15.94h-14Zm0 0"/></clipPath><clipPath id="t"><path d="M578 453h12v15.94h-12Zm0 0"/></clipPath><clipPath id="u"><path d="M601 453h10v15.94h-10Zm0 0"/></clipPath><clipPath id="v"><path d="M622 453h13v15.94h-13Zm0 0"/></clipPath></defs><g clip-path="url(#a)"><path d="m47.73 400.02.6-.52q.28-.26.55-.68.1-.2.25-.57t.29-.98a18 18 0 0 0 .34-3.8V365.5q0-4.47-1.2-5.87-.2-.15-.38-.33a3 3 0 0 0-.4-.34h12.18q1.72 0 3.58.08 1.87.07 3.76.3 1.9.24 3.68.66 1.8.41 3.29 1.09 2.7 1.2 4.66 3.14 1.97 1.95 3.27 4.33 1.3 2.39 1.94 5.14.65 2.76.65 5.55 0 8.62-5.13 14.38a15 15 0 0 1-4.2 3.33 23 23 0 0 1-4.9 1.92q-2.56.67-5.23.9-2.67.24-5.31.24Zm26.85-5.5q5.23-5.55 5.23-14.9 0-9.45-5.23-14.95a13 13 0 0 0-4.48-3.2 24 24 0 0 0-5.26-1.52 36 36 0 0 0-5.65-.5l-5.65-.02v40.17q3.06 0 5.93.05 2.88.06 5.52-.33t5.06-1.48a15 15 0 0 0 4.53-3.32m0 0"/></g><path d="m86.55 373.7 5.34-2.18v7q.46-.92 1.11-1.91.65-1 1.53-1.82.46-.47 1.2-1.01.72-.55 1.57-1.04t1.8-.83 1.76-.34q.97 0 1.65.52l.2.21q.12.06.14.1.03.06.08.1.51.63.57 1.38t-.52 1.33q-.53.57-1.14.57a2.3 2.3 0 0 1-1.14-.37q-.16-.16-.34-.25l-.33-.21q-.27-.26-.5-.4l-.44-.28a3.6 3.6 0 0 0-3.55.1q-.86.52-1.55 1.36-.7.82-1.24 1.84-.55 1.01-.86 2.05v14.06q0 1.67.34 3.17.33 1.5 1.73 2.54h-6.53q.83-.66 1.3-2.02a9 9 0 0 0 .1-.93q.06-.67.05-2.5v-11.36q0-1.72-.02-2.86l-.06-1.84q-.02-.7-.05-1.06a3 3 0 0 0-.07-.52q-.31-1.5-1.2-2.13l-.44-.24zm9.95 19.88q0-1.97 1.17-3.55 1.17-1.59 2.87-2.86a23 23 0 0 1 3.63-2.2q1.92-.95 3.42-1.61 1.1-.42 2.07-.91 1-.49 1.82-1.07.57-.41.96-1.24t.33-1.61a14 14 0 0 0-.33-2.65q-.3-1.25-.9-2.18a4.4 4.4 0 0 0-1.7-1.48 6 6 0 0 0-2.72-.54q-.93 0-1.89.15-.96.16-1.84.52 0-.05-.02-.05t-.03-.05l-.26-.31q1-.31 2-.5 1-.18 2.05-.18 1.24 0 2.48.18 1.24.19 2.34.63 1.08.44 2 1.2.9.74 1.42 1.94.1.3.28 1.42t.18 3.77v9.96a83 83 0 0 0 .16 5.35q.16 1.25.88 1.92.78.63 1.6.62h.26q-.83.79-1.89 1.3-1.06.52-2.25.52-.89 0-1.55-.28-.68-.3-1.35-.65a8 8 0 0 0-1.74-.78 5 5 0 0 0-1.32-.21q-.84 0-1.48.28-.65.3-1.32.65t-1.48.65-2 .29q-2.53 0-4.24-1.72a6 6 0 0 1-1.2-2.05 8 8 0 0 1-.41-2.67m4.72 3.12a6 6 0 0 0 1.7 1.37 4.1 4.1 0 0 0 3.53.18 6 6 0 0 1 2.28-.52q.94 0 1.69.32.75.3 1.47.72.94.52 1.87.83l-.31-.3a3 3 0 0 1-.41-.97 8 8 0 0 1-.22-2.05l-.05-1.45.05-.06v-13.9a8 8 0 0 1-2.25 1.58q-1.32.65-2.87 1.32a28 28 0 0 0-3.86 2.13 12 12 0 0 0-3.22 2.96 6.3 6.3 0 0 0-1.27 3.66q-.05 2 1.87 4.18M120.13 397.42q0-1.04.7-1.7a2.4 2.4 0 0 1 1.74-.68 2.3 2.3 0 0 1 2.38 2.38q0 1.05-.67 1.74-.67.7-1.71.7t-1.74-.7a2.4 2.4 0 0 1-.7-1.74M257.11 401.88v20.5h-53.63v-1.04c4.54 0 5.77-.1 5.77-12.63v-53.78q0-2.03-.05-3.63c-5 21.36-23.82 40.02-23.83 71.08h-1.16l-24.52-73.6v59.93c0 12.52 1.23 12.63 5.77 12.63v1.04h-12.71v-1.04c4.54 0 5.77-.1 5.77-12.63v-53.78c0-12.53-1.23-12.64-5.77-12.64v-1.04h11.79l21.49 64.52c5.26-23.85 20.26-40.43 22.83-59.13-.66-4.3-2.22-4.35-5.38-4.35v-1.04h50.95v20.5h-1.04c0-6.43-.85-18.97-16.67-19.33h-20.11v44.35c2.74-9.07 10.6-13.76 18.05-16.46s9.95-5.86 9.95-12.1h1.05v32.33h-1.05c0-12.66.35-19.7-5.43-19.7-1.37 0-3.73.4-6.25 1.23-8 2.95-16.32 9.39-16.32 23.1v26.04h22.63c15.97-.28 16.83-12.88 16.83-19.33ZM277.09 412.42v9.96h-13.13v-1.04c4.53 0 5.77-.1 5.77-12.63v-53.78c0-12.53-1.24-12.64-5.77-12.64v-1.04h18.9v1.04c-4.54 0-5.77.11-5.78 12.6Zm40.52 3.48c-2.8 4.79-5.91 7.42-14.96 7.42-4.5 0-20.95-4.23-25.56-.94v-1.17c8.89-6.14 24.03.94 29.92.94q6.43 0 10.05-6.45Zm-3.25-5.86h-18.9V409c4.54 0 5.77-.1 5.77-12.64v-41.43c0-12.53-1.23-12.64-5.77-12.64v-1.04h18.9v1.04c-4.52 0-5.76.1-5.77 12.43v41.69c0 12.48 1.23 12.59 5.77 12.59zm0 0"/><g clip-path="url(#b)"><path d="M352.41 423.32c-20.75 0-28.7-13.73-28.7-18.11l14.15-8.68.55.85c-11.71 7.07-2.55 24.77 14 24.77 10.4 0 21.63-4.33 21.63-17.21 0-27.35-50.37-13.26-50.37-42.92 0-11.67 9.15-21.7 22.74-21.7 20.75 0 28.7 13.72 28.7 18.1l-14.15 8.69-.6-.83c11.86-7.16 2.6-24.8-13.95-24.8-10.13 0-18.23 6.82-18.23 16.04 0 25.93 50.7 12.77 50.7 43.55 0 11.9-9.24 22.25-26.47 22.25m0 0"/></g><path d="M453.07 421.34v1.04h-24.55v-1.04c3.44 0 8.86-.29 5.4-10.87l-10.95-32.88c.21 5.77-2.12 11.87-12.66 14.86-7.6 2.15-12.53 3.6-16.14 14.32l-1.62 4.82c-2.72 9.48 2.43 9.75 5.74 9.75v1.04H379.9v-1.04c4.46 0 8.35-.5 12-11.43l18.89-56.75c3.42-10.51-1.97-10.87-5.4-10.87v-1.04h12.84l22.86 68.66c3.63 10.9 7.53 11.43 11.98 11.43m-32.75-51.72-6.8-20.41-16.63 49.46c3.41-4.5 7.64-5.5 13.1-7.12 9.58-2.83 14.77-8.6 10.33-21.93M552.4 421.34v1.04h-13.13c-5.78-21.64-12.02-45.6-24.05-42.5-5.52 2.66-9.6 6.4-9.6 13.1v15.77c0 12.48 1.24 12.59 5.77 12.59v1.04h-18.9v-1.04c4.54 0 5.78-.1 5.78-12.63v-53.78c0-12.53-1.24-12.64-5.77-12.64v-1.04h13.13c24.72 0 39.22 3.5 39.22 18.6 0 11.81-13.47 14-24.63 17.99 15.03-.73 19.05 16.76 23.9 35.4 2.56 7.3 4.42 8.1 8.27 8.1m-14.9-61.48c0-14.9-11.73-17.44-31.87-17.44v44.69c5.85-13.14 31.87-9.47 31.87-27.25M556.37 422.38v-1.04c4.54 0 5.77-.1 5.77-12.63v-53.78c0-12.53-1.23-12.64-5.77-12.64v-1.04h18.9v1.04c-4.51 0-5.76.1-5.77 12.43v54.03c0 12.48 1.24 12.59 5.77 12.59v1.04ZM637.6 351.95c-5.23 21.1-23.67 39.7-23.68 70.43h-1.17l-22.88-68.69v.03c-3.62-10.9-7.52-11.43-11.98-11.43v-1.04h24.56v1.04c-3.43 0-8.81.3-5.44 10.75l17.56 52.73c4.68-21.2 17.07-36.67 21.55-52.98 2.72-10.2-2.29-10.5-7.71-10.5v-1.04h18.38v1.04c-4.6 0-6.5.34-9.2 9.67ZM706.72 421.34v1.04h-24.55v-1.04c3.44 0 8.85-.29 5.4-10.87l-10.95-32.88c.22 5.77-2.12 11.87-12.66 14.86-7.6 2.15-12.53 3.6-16.14 14.32l-1.62 4.82c-2.72 9.48 2.43 9.75 5.74 9.75v1.04h-18.39v-1.04c4.46 0 8.35-.5 11.99-11.43l18.9-56.75c3.42-10.51-1.97-10.87-5.4-10.87v-1.04h12.84l22.86 68.66c3.63 10.9 7.53 11.43 11.98 11.43m-32.75-51.72-6.8-20.41-16.63 49.46c3.4-4.5 7.64-5.5 13.1-7.12 9.58-2.83 14.77-8.6 10.33-21.93m0 0"/><g clip-path="url(#c)"><path d="M736 423.32c-20.74 0-28.68-13.73-28.68-18.11l14.13-8.68.56.85c-11.72 7.07-2.56 24.77 14 24.77 10.4 0 21.63-4.33 21.63-17.21 0-27.35-50.37-13.26-50.37-42.92 0-11.67 9.15-21.7 22.74-21.7 20.75 0 28.7 13.72 28.7 18.1l-14.14 8.69-.61-.83c11.86-7.16 2.6-24.8-13.95-24.8-10.13 0-18.23 6.82-18.23 16.04 0 25.93 50.7 12.77 50.7 43.55 0 11.9-9.23 22.25-26.47 22.25m0 0"/></g><g clip-path="url(#d)"><path d="M192.66 466.1h-7.16l-1.32 3.66h-2.26l5.94-16.34h2.47l5.9 16.34h-2.25Zm-3.58-10.04-2.97 8.3h5.94Zm0 0"/></g><g clip-path="url(#e)"><path d="M217.07 455.07h-6.68v5.5h5.98v1.76h-5.98V468h6.68v1.77h-8.83V453.3h8.83Zm0 0"/></g><g clip-path="url(#f)"><path d="M234.94 469.93c-3.3 0-5.63-1.84-5.67-4.56h2.28c.14 1.37 1.1 2.74 3.4 2.74 2.06 0 3.29-1.18 3.29-2.74 0-4.43-8.88-1.6-8.88-7.7 0-2.72 2.2-4.56 5.44-4.56 3.13 0 5.18 1.73 5.44 4.23h-2.36c-.14-1.11-1.17-2.36-3.18-2.39-1.76-.04-3.15.87-3.15 2.64 0 4.25 8.85 1.6 8.85 7.7 0 2.33-1.9 4.64-5.46 4.64m0 0"/></g><g clip-path="url(#g)"><path d="M251.96 453.32h11.11v1.75h-4.47v14.7h-2.14v-14.7h-4.5Zm0 0"/></g><g clip-path="url(#h)"><path d="M285.63 462.3h-8.36v7.46h-2.14v-16.44h2.14v7.22h8.36v-7.22h2.14v16.44h-2.14Zm0 0"/></g><g clip-path="url(#i)"><path d="M309.64 455.07h-6.68v5.5h5.97v1.76h-5.97V468h6.68v1.77h-8.83V453.3h8.83Zm0 0"/></g><g clip-path="url(#j)"><path d="M321.3 453.32h11.1v1.75h-4.47v14.7h-2.14v-14.7h-4.5Zm0 0"/></g><g clip-path="url(#k)"><path d="M344.46 453.32h2.14v16.44h-2.14Zm0 0"/></g><g clip-path="url(#l)"><path d="M367.06 453.11c3.56 0 6.38 1.8 7.6 4.98h-2.56c-.9-1.98-2.64-3.09-5.04-3.09-3.44 0-6 2.5-6 6.53 0 4 2.56 6.5 6 6.5 2.4 0 4.14-1.1 5.04-3.06h2.56c-1.22 3.16-4.04 4.93-7.6 4.93-4.6 0-8.2-3.44-8.2-8.37s3.6-8.42 8.2-8.42m0 0"/></g><g clip-path="url(#m)"><path d="M408.26 462.9h-3.15v6.86h-2.15v-16.44h5.3c3.86 0 5.67 2.13 5.67 4.82 0 2.5-1.6 4.76-5.67 4.76m0-1.77c2.45 0 3.49-1.15 3.49-3 0-1.9-1.04-3.04-3.49-3.04h-3.15v6.04Zm0 0"/></g><g clip-path="url(#n)"><path d="M431.3 453.32c3.87 0 5.7 2.15 5.7 4.84 0 2.1-1.15 4.1-3.9 4.71l4.12 6.9h-2.57l-3.9-6.73h-2.6v6.72h-2.14v-16.44Zm0 1.77h-3.14v6.23h3.15c2.42 0 3.48-1.32 3.48-3.16 0-1.86-1.03-3.07-3.48-3.07m0 0"/></g><g clip-path="url(#o)"><path d="M457.18 469.93c-4.61 0-8.24-3.47-8.24-8.4s3.63-8.4 8.24-8.4c4.64 0 8.24 3.47 8.24 8.4s-3.6 8.4-8.24 8.4m0-1.87c3.46 0 6.05-2.52 6.05-6.53 0-4.03-2.59-6.53-6.05-6.53s-6.05 2.5-6.05 6.53c0 4 2.6 6.53 6.05 6.53m0 0"/></g><g clip-path="url(#p)"><path d="M485.05 453.11c3.56 0 6.39 1.8 7.61 4.98h-2.57c-.9-1.98-2.63-3.09-5.04-3.09-3.43 0-6 2.5-6 6.53 0 4 2.57 6.5 6 6.5 2.4 0 4.15-1.1 5.04-3.06h2.57c-1.22 3.16-4.05 4.93-7.6 4.93-4.6 0-8.2-3.44-8.2-8.37s3.6-8.42 8.2-8.42m0 0"/></g><g clip-path="url(#q)"><path d="M514.09 455.07h-6.7v5.5h5.99v1.76h-5.98V468h6.69v1.77h-8.83V453.3h8.83Zm0 0"/></g><g clip-path="url(#r)"><path d="M540.57 461.58c0 5.1-3.32 8.18-8.71 8.18h-5.11v-16.44h5.1c5.4 0 8.72 3.16 8.72 8.26m-8.71 6.41c4.28 0 6.52-2.4 6.52-6.41s-2.24-6.51-6.52-6.51h-2.97v12.92Zm0 0"/></g><g clip-path="url(#s)"><path d="M552.77 453.32h2.14v10.4c0 3.02 1.62 4.32 4.05 4.32s4.02-1.3 4.02-4.32v-10.4h2.14v10.38c0 4.27-2.8 6.23-6.19 6.23s-6.16-1.96-6.16-6.23Zm0 0"/></g><g clip-path="url(#t)"><path d="M583.42 453.32c3.86 0 5.7 2.15 5.7 4.84 0 2.1-1.16 4.1-3.91 4.71l4.12 6.9h-2.57l-3.9-6.73h-2.6v6.72h-2.14v-16.44Zm0 1.77h-3.16v6.23h3.16c2.42 0 3.48-1.32 3.48-3.16 0-1.86-1.03-3.07-3.48-3.07m0 0"/></g><g clip-path="url(#u)"><path d="M610.68 455.07h-6.69v5.5h5.98v1.76H604V468h6.69v1.77h-8.83V453.3h8.83Zm0 0"/></g><g clip-path="url(#v)"><path d="M628.55 469.93c-3.3 0-5.63-1.84-5.67-4.56h2.28c.14 1.37 1.1 2.74 3.39 2.74 2.07 0 3.3-1.18 3.3-2.74 0-4.43-8.88-1.6-8.88-7.7 0-2.72 2.19-4.56 5.44-4.56 3.13 0 5.18 1.73 5.43 4.23h-2.35c-.14-1.11-1.18-2.36-3.18-2.39-1.76-.04-3.15.87-3.15 2.64 0 4.25 8.85 1.6 8.85 7.7 0 2.33-1.9 4.64-5.46 4.64m0 0"/></g></svg>