<svg xmlns="http://www.w3.org/2000/svg" viewBox="0 0 3000 3000"><path fill="#8d8d8d" d="M2044 1048.6c0 .3 5.1 9.2 11.4 19.7l36.6 62.2 13.5 23a5675 5675 0 0 1 49.4 84c14.8 24.8 34.4 58 37.5 63.7 1.4 2.5 7.7 13.2 14.1 23.8l11.5 19.5c0 .2 3.8 6.6 8.4 14.3l18.6 31.5 10.2 17.7-5.3 9.2-12.6 21.6c-4 6.8-7.3 12.6-7.3 12.9s-2.2 4.2-4.9 8.7-5.8 9.7-6.8 11.6a1594 1594 0 0 1-23.3 40.5c0 .2-2.2 4.2-4.9 8.7l-6.8 11.8-27.3 47.5c0 .3-1.9 3.5-4.1 7.2l-8.4 14.3-15.9 28-28 48.2-8.7 15.3-7.1 12.3a58 58 0 0 0-3.8 6.7c0 .2-2.7 4.9-6 10.3s-6 10.2-6 10.6c0 .3-2.5 4.6-5.5 9.6s-5.5 9.2-5.5 9.5c0 .2-2.9 5.3-6.5 11.4-3.6 6-6.5 11.2-6.5 11.5s62.9.6 139.9.6h139.9l3.9-6.8c11.1-18.9 15.4-26.2 18.4-31.7 1.8-3.3 5.7-10 8.6-14.8a121 121 0 0 0 5.3-9.2l6-10.5 6-10.5c0-.4 12.9-22.3 15-25.5.6-.8 1.4-2.5 2-3.8 1.7-4 7.9-13.2 8.9-13.2.5 0 1.3 1 1.6 2.1s4 7.6 8 14.3c9.8 16.4 34.3 58.1 37.2 63.4l10.6 18a461 461 0 0 1 13 22.2l3.3 5.5 133.7.3 133.7.2-3.7-6.7c-2-3.8-6.1-10.8-9-15.6a121 121 0 0 1-5.3-9.2l-6-10.5-6-10.5c0-.2-3.4-6-7.5-12.9s-7.5-12.8-7.5-13.1-3.1-5.6-7-12c-3.8-6.4-7-11.8-7-12s-2.7-5-6.1-10.7l-8.4-14.3c-3.1-5.6-15.2-26.6-28.5-49.5l-13.3-23-18.1-31.3c-3-5-6.6-11.5-8.1-14.2-2.7-4.9-6.9-12.1-19.9-34.3-3.6-6.2-6.6-11.4-6.6-11.7s-3.1-5.6-7-12c-3.8-6.4-7-11.8-7-12 0-.3-3.4-6.2-7.5-13.1s-7.5-12.7-7.5-12.9-2.3-4.3-5.2-9.1l-5.1-8.7 2.4-4.6c1.3-2.5 5.6-10.1 9.6-16.9l7.3-12.7c0-.2 3.2-5.6 7-12 3.9-6.4 7-11.8 7-12.2s3.4-6.1 7.5-13l7.5-12.8c0-.1 3.7-6.8 8.3-14.7l13.2-22.8 16.5-28.5 6-10.5 6-10.5c0-.2 3.2-5.6 7-12 3.9-6.4 7-11.8 7-12 0-.3 2.9-5.3 6.4-11.2l8.6-14.8 27-47c0-.4 12.9-22.2 15-25.5a273 273 0 0 1 7.1-12.5l6.6-11.5c5-8.8 21.7-37.7 23-39.7.8-1.1 1-2.3.6-2.6s-12.5-.8-26.8-1.1-38.1-1.1-53-1.7-43.4-1.4-63.5-1.9l-66-1.9-48.3-1.3-18.9-.3-2.5 4.5-13 22.5-2.2 4c-.5 1.2-3.4 6.3-6.5 11.3s-5.6 9.4-5.6 9.7l-6 10.5c-3.3 5.6-6 10.4-6 10.6s-1.1 2.3-2.6 4.5l-13.4 23.2c-14 24.6-12.6 22.7-14.7 19.8-1.6-2-15.2-25.3-23-39.1l-7.8-13.5-7.5-13-7.8-13.5-21.6-37.3-2.7-4.7h-137.4c-75.6 0-137.5.3-137.5.6M576 1412.5V1776h238v-154.5c0-85 .3-154.5.8-154.5s1.6 1.7 2.7 3.7l7.7 13.6c3.2 5.4 5.8 10.1 5.8 10.3s1.1 2.2 2.5 4.4l6.8 11.7 31.7 55.8c0 .2 2.7 4.9 6 10.3s6 10.2 6 10.6c0 .3 2.5 4.6 5.5 9.6s5.5 9.3 5.5 9.5 2.2 4.2 4.9 8.7A662 662 0 0 1 913 1638l10 17.5 10 17.5 6.6 11.5a666 666 0 0 0 11.7 20.5c.3.8 9.5 17 20.4 36l19.8 34.5 122.8.3 122.7.2v-363c0-289.7-.3-363-1.2-363.1-6.2-.5-235.1.2-235.9.7-.7.4-1 32.6-.9 102.8.1 56.1.2 127.1.1 157.6-.1 60.5.2 58.1-5.6 47.5l-8.9-15.5c-7.3-12.2-20.4-34.7-23.6-40.5l-8.6-14.6c-3.5-5.9-6.4-10.9-6.4-11.2l-7-12.2a1458 1458 0 0 1-19.3-33A4117 4117 0 0 0 888 1177l-9-15.5-8.6-14.8c-3.5-5.9-6.4-10.9-6.4-11.2s-3.8-6.7-8.5-14.5l-8.5-14.5c0-.2-3.4-6.1-7.5-13l-7.5-13.1c0-.2-3.2-5.5-7-11.9-3.9-6.4-7.9-13.4-9-15.6l-2-3.9H576zm-328 .5v363h244v-726H248zm1168-362.1c0 .5 4.6 8.5 10.3 17.7l16.3 26.7 7.4 12.2 15.4 25.2 19.8 32a120 120 0 0 1 6.9 11.6c1 1.1 13.8 22 46.6 75.9l13.8 22.8H1727l-.2 136.7-.3 136.8-87.2.3-87.3.2v-135.4c0-107.3-.3-135.7-1.2-136.3-.7-.4-43.8-.7-95.8-.6l-111.2.3H1327v495.7l5.3.4c2.8.2 143.4.4 312.2.4h307v-360c0-198-.3-360.8-.7-361.8-.7-1.6-14.4-1.7-267.8-1.7-155.5 0-267 .4-267 .9M393 1841.1a52 52 0 0 0-43.8 44.3 81 81 0 0 0 1.7 26.1l3.5 7.8a55 55 0 0 0 22.6 22.4c32.2 15.9 71.2.2 80.2-32.2a84 84 0 0 0 1.5-13.8c.4-8.6.1-10.9-2.2-18a48 48 0 0 0-14.8-23.3 57 57 0 0 0-48.7-13.3m22.3 9.4a43 43 0 0 1 20.5 11.4c9.4 9.6 12.2 16.2 12.9 31a41 41 0 0 1-15 35.4 43 43 0 0 1-32.7 10.5c-5.5-.3-10.5-.9-11.2-1.5s-2.6-1.3-4.1-1.7c-7.5-1.8-18-11.4-22.5-20.7a45 45 0 0 1 19.8-61c4-1.9 8.6-3.6 11.5-4.2 4.6-1 15.5-.6 20.8.8m826.7-9.4a50 50 0 0 0-21.3 8.7 48 48 0 0 0-22.4 42.9 39 39 0 0 0 2.2 19 50 50 0 0 0 26 30.2c8.8 4.4 16.1 6 26.7 6.1 13.6 0 25.4-3.9 34.1-11.3l3.8-3.2-3-3.3-3.1-3.3-5.2 3.9c-9.2 6.7-12.6 7.7-26.9 7.7-7.7 0-13.1-.4-14-1.1-.8-.6-2.7-1.4-4.4-1.8a56 56 0 0 1-15.3-10.5 47 47 0 0 1-11.5-31 43 43 0 0 1 45.8-44.5c10.6-.1 11.3.1 18.7 3.6 4.2 2 8.5 4.5 9.4 5.7s2.3 2.1 2.9 2.1c1.4 0 5.5-4.2 5.5-5.6 0-2-6.7-7.2-13-10.2-9.9-4.5-22.9-6-35-4.1m706.5.3a51.4 51.4 0 0 0-43.5 52 52 52 0 0 0 41.3 53c26.1 6.1 52.5-5.5 63.1-27.7 4.6-9.5 6-16.9 5.3-28.2a51 51 0 0 0-45.1-49.4 52 52 0 0 0-21.1.3m31.8 12.4a41 41 0 0 1 24.1 33 43.8 43.8 0 0 1-47.5 52 41 41 0 0 1-11.1-1.5c-.7-.6-2.6-1.3-4.3-1.7-5.7-1.4-15.9-10.3-20.7-18.1a52 52 0 0 1-4.3-37.5 44.4 44.4 0 0 1 46.1-30.6c8.3.3 9.9.7 17.7 4.4m-1731.9-11.4c-.3.8-.4 2.7-.2 4.3l.3 2.8 18.5.5 18.5.5.3 48.8.2 48.8 4.8-.3 4.7-.3.3-48.8.2-48.7h37v-9h-42c-35.4 0-42.1.2-42.6 1.4m408.1-.7c-1.6.2-6.6 2.2-11 4.3a55 55 0 0 0-27.1 29.5 81 81 0 0 0 .1 37A54 54 0 0 0 671 1948a55 55 0 0 0 53.5-38 78 78 0 0 0-.1-30.8 49 49 0 0 0-21.2-29.5c-11-7.2-13.8-7.9-29.7-8.2-7.7-.2-15.3-.1-17 .2m32.5 10.8a45 45 0 0 1 25.7 28.9 56 56 0 0 1-.3 26.6c-3.7 11.9-16 25.4-24.9 27.6-1.7.4-3.6 1.2-4.4 1.8s-6.3 1.1-14.1 1.1-13.2-.4-14.1-1.1c-.8-.6-2.7-1.4-4.4-1.8-7-1.7-17.8-12.1-22.7-21.6-3.2-6.3-3.2-6.8-3.3-19.6 0-8.1.4-14 1.2-15.5l2.8-6c.9-2 3.8-6.1 6.5-9.1a47.5 47.5 0 0 1 52-11.3m433.3-7.3-4.8 10.3-4.5 10-10.5 23-8.9 19.7-7.6 16.8-7.6 16.8-2.4 5.7c0 .7 7.6.6 9.4-.1q1.5-.6 1.6-1.4c0-.4 1.7-4.6 3.9-9.2l5.9-13.1 2.1-4.7h60.6l1.2 2.7 5.8 13.2c2.5 5.7 5 11 5.6 11.8 1.3 1.5 9.9 1.8 9.9.3 0-.6-1.3-3.9-2.9-7.3l-9.1-20.2-10.5-23-4.5-10-5.7-12.5-5.3-11.5-5.1-11.5c-3.9-9.4-4.5-10-9.8-10-4.6 0-4.8.1-6.8 4.2m10.3 13.5 8.8 19.6 3.6 8.2c0 .3 1.1 2.9 8.1 18.2 1 2.4 1.9 4.5 1.9 4.8s-11.7.5-26 .5h-25.9l1.8-4.3 7.1-16.2 3.1-7 4.4-10 4.5-10c3.3-7.7 4.3-9.5 5.2-9.5.5 0 2 2.6 3.4 5.7m447.4-16.8c-8.7 1.9-20 8.8-27 16.5-5 5.5-6.6 8.2-9.7 16.1-2.5 6.3-2.8 8.2-2.8 19.5 0 13.1.2 14.1 5.8 25.8a53 53 0 0 0 35 26.6 55.7 55.7 0 0 0 66.7-35c2.7-8.2 3-25.5.5-33.1a51 51 0 0 0-21.3-28.6c-11-7.1-13.9-7.9-29.7-8.3-7.7-.1-15.6.1-17.5.5m29.5 9.1c16 6.5 24.5 15 28.8 28.7a45 45 0 0 1-26.8 56.9 41 41 0 0 1-16 1.9c-9.8 0-11.8-.3-18.4-2.9a45 45 0 0 1-23.2-22.1c-3.2-6.8-3.3-7.4-3.4-19.5 0-12.1.1-12.7 3.2-19.2a46 46 0 0 1 29.6-24.3 64 64 0 0 1 26.2.5m424.5-9.4c0 .4 3.5 5.4 7.8 11.3l9.4 13.1 10.2 14a104 104 0 0 1 8.6 12.5c0 .5-3.7 5.9-8.1 12l-9.5 13-11.4 15.7-10 14c0 .7 9.6.6 10.6 0 .6-.4 5.8-7.2 11.6-15.2l16.4-22.7c3.2-4.5 6.4-8.2 7.1-8.3 1.1 0 2.2 1.4 10.8 13.5l14.2 19.6 10.2 13.8 5.1-.2c2.7-.1 5-.5 5-.9s-7.1-10.4-15.7-22.2L2089 1901l-3.7-5.3c-2.5-3.3-2.4-3.6 2.9-10.8a715 715 0 0 0 30.8-43.3c0-.3-2.1-.6-4.7-.6l-4.8.1-10 13.6a633 633 0 0 0-19.1 26.6c-1.4 2.1-2.9 3.5-3.6 3.1-1-.6-16.1-20.9-25.2-33.8-6.4-9.1-7.1-9.6-12.6-9.6-2.8 0-5 .3-5 .6m167.8 0c-.5.4-.8 24.1-.8 52.7v51.9l28.8-.4c32.3-.5 33.8-.8 47-8.6a48 48 0 0 0 22.7-33.9c1.5-8.2 1.5-9.6 0-18a60 60 0 0 0-4.5-15.7c0-1.5-8.1-11.9-11.8-15.2a55 55 0 0 0-9.6-6.2c-11.7-5.8-14.8-6.3-44.1-6.9-14.8-.3-27.3-.2-27.7.3m56.8 9.8a42 42 0 0 1 18.9 10.7 39 39 0 0 1 12.1 23.5c1.5 7.5 1.5 9.5.4 15.3a43 43 0 0 1-11.3 22.8 46 46 0 0 1-22 12.6c-3.1.7-13.3 1.2-25.2 1.2h-20l-.3-43c-.1-23.7 0-43.6.3-44.4.7-1.9 39.6-.9 47.1 1.3m104.6-9.2q-1.1 1.2-1.2 2.1c0 .4-1.2 3.4-2.6 6.5l-5.1 11.2-5.8 12.5-11.8 25.5-5.6 12.2-6.2 13.5a411 411 0 0 0-8.2 18.5c-.6 1.6 0 1.8 4.4 1.8 4.8 0 5.1-.1 6.5-3.6 2-4.8 9.2-20.5 10.3-22.4.7-1.3 5.4-1.5 30.9-1.8l30.1-.2 3 6.2 5 11.3c4.2 9.7 4.5 10 10 10.3 2.8.2 5.1.1 5.1-.2l-4.6-10.3-11.2-24.3-6.2-13.5-5.7-12.5-4.8-10.5-11.9-25.8-3.5-7.7h-4.8c-2.7 0-5.4.5-6.1 1.2m7.8 12.9c0 .4 1.8 4.7 4 9.4s4 8.8 4 9c0 .3 1.4 3.3 11.1 24.4 6.1 13.2 8 12.1-21 12.1-14.1 0-25.2-.4-25.5-.9s.8-4 2.5-7.8l9.7-21.3 10.4-23.3c1.7-3.8 2.3-4.5 3.4-3.6q1.3 1 1.4 2m-1878 39v52.1l28.3-.5c30.6-.5 31.9-.7 43.4-6.6a46 46 0 0 0 23.8-28.6 57 57 0 0 0-4-43.1 66 66 0 0 0-15.1-16.7c-15.6-8.4-17.5-8.7-49.3-8.7H493zm56.6-42.7a42 42 0 0 1 24.9 18.1 49 49 0 0 1 1.9 45.5c-4 8.7-17 18.4-28.4 21.2a207 207 0 0 1-24.7 1.5l-20.3.4v-89.4l20.8.6c13.4.4 22.5 1.1 25.8 2.1M807 1894v52h73v-8h-63v-41l27.3-.2 27.2-.3.3-3.8.3-3.7H817v-40h62v-7h-72zm109-.1v52.1h9v-41.9c0-24.9.4-42.2.9-42.6.8-.4 34 40.1 51.1 62.1 16.8 21.8 17.4 22.4 22.2 22.4h3.8v-104h-8.8l-.6 6.2c-.4 3.5-.6 22.4-.4 42s0 36-.3 36.3-15.8-18.5-34.4-41.7l-33.8-42.3-4.4-.3-4.3-.3zm408 .1v52h74v-8l-31.7-.2-31.8-.3-.3-20.3-.2-20.2h55v-8l-27.2-.2-27.3-.3v-39l30.8-.3 30.7-.2v-7h-72zm108 0v52h10v-33h17.4c9.6 0 18.1-.3 18.9-.6q1.3-.8 10.1 11.3l9.3 12.8c.5.5 2.1 2.9 3.7 5.2 2.8 4.2 3 4.3 8.3 4.3h5.5l-4.5-6.3c-16.8-23.8-19.7-28.1-19.4-29.1.2-.6 2.5-2.2 5.1-3.5a36 36 0 0 0 14-13.2 39 39 0 0 0 3-23.6 29 29 0 0 0-13.6-21.6c-9.2-6-13.4-6.7-42.2-6.7H1432zm53.1-42.7c12.6 4.1 17.4 9.9 18.6 22.1q1.9 19.4-14.5 27.3c-5.7 2.8-5.8 2.8-26.2 2.8h-20.5l-.3-26.4c-.2-20.5.1-26.7 1-27.3 2.2-1.5 36.6-.2 41.9 1.5M1731 1894v52h9v-104h-9zm53 0v52h10v-42.5c0-23.4.3-42.5.8-42.4.4 0 15.9 19.1 34.5 42.5l33.8 42.4h7.9v-104h-9l-.2 41.7c-.2 26.7-.7 41.7-1.3 41.9-.5.2-2.4-1.6-4.2-3.9-1.7-2.3-4.3-5.6-5.7-7.2l-12-15-10.9-13.5-18.2-22.8-17-21.2h-8.5zm364 0v52h10v-104h-10zm301 .1v52l31.8-.4c26.8-.3 32.4-.6 36.1-2.1 14.1-5.5 19.1-12 19.1-24.9 0-12.4-6-21.6-16-24.6-3.7-1.1-5.7-4.1-2.7-4.1 2.4 0 8.8-6.3 11-10.8 2.7-5.8 2.8-16.3.2-21.9-3.2-6.9-6.9-9.9-17-13.5-4.3-1.6-8.5-1.8-33.7-1.8H2449zm59-42.9c8.8 4 12.2 9 12.2 17.8 0 8.7-3.5 13.9-11.7 17.6-3.4 1.5-7.6 1.9-26.4 2.2-17.9.3-22.5.1-23.2-1-1-1.5-1.2-34.8-.3-37.3.6-1.5 2.9-1.6 23.3-1.3 18 .3 23.3.7 26.1 2m1.2 47.2c11.4 2.7 16.8 8.8 16.8 19.2 0 9.7-4.3 15.5-14.2 18.8-3.9 1.4-8.9 1.6-29 1.4l-24.3-.3-.3-19a299 299 0 0 1 .2-20.2c.8-1.9 42.9-1.8 50.8.1m60.8-4.4v52h69v-8l-29.2-.2-29.3-.3-.3-47.8-.2-47.7h-10zm97 0v52h74v-8l-31.7-.2-31.8-.3-.3-20.3-.2-20.2h55v-8l-27.2-.2-27.3-.3v-39l30.8-.3 30.7-.2v-7h-72z"/><path fill="#676767" d="M2044 1048.6c0 .3 5.1 9.2 11.4 19.7l36.6 62.2 13.5 23a5675 5675 0 0 1 49.4 84c14.8 24.8 34.4 58 37.5 63.7 1.4 2.5 7.7 13.2 14.1 23.8l11.5 19.5c0 .2 3.8 6.6 8.4 14.3l18.6 31.5 10.2 17.7-5.3 9.2-12.6 21.6c-4 6.8-7.3 12.6-7.3 12.9s-2.2 4.2-4.9 8.7-5.8 9.7-6.8 11.6a1594 1594 0 0 1-23.3 40.5c0 .2-2.2 4.2-4.9 8.7l-6.8 11.8-27.3 47.5c0 .3-1.9 3.5-4.1 7.2l-8.4 14.3-15.9 28-28 48.2-8.7 15.3-7.1 12.3a58 58 0 0 0-3.8 6.7c0 .2-2.7 4.9-6 10.3s-6 10.2-6 10.6c0 .3-2.5 4.6-5.5 9.6s-5.5 9.2-5.5 9.5c0 .2-2.9 5.3-6.5 11.4-3.6 6-6.5 11.2-6.5 11.5s62.9.6 139.9.6h139.9l3.9-6.8c11.1-18.9 15.4-26.2 18.4-31.7 1.8-3.3 5.7-10 8.6-14.8a121 121 0 0 0 5.3-9.2l6-10.5 6-10.5c0-.4 12.9-22.3 15-25.5.6-.8 1.4-2.5 2-3.8 1.7-4 7.9-13.2 8.9-13.2.5 0 1.3 1 1.6 2.1s4 7.6 8 14.3a5299 5299 0 0 1 48 81.7c4.7 7.7 8.5 14.4 8.5 14.8q.1.9 1.5 2.1 1.3 1 1.5.6c0-.9-4.3-9-5.2-9.6a9 9 0 0 1-1.3-3.3c-.4-1.5-1.1-2.7-1.5-2.7q-.7-.2-1.4-1.5c-.5-1.3 14.5-1.5 131.5-1.5 131.2 0 132.1 0 132.6 2q.6 1.8 1.3 2c.4 0 1.1 1.1 1.4 2.5q.7 2.3 1.6 2.5 1 .1 1 1.3c0 .8 1.2 3.2 2.8 5.3 3.4 4.9 6.2 9.9 6.2 11.1 0 .5-54 .8-131.7.7l-131.7-.1-2.3-3.7c-3.2-5-4-4.5-1.1.6l2.3 4.3 133.8.3 133.7.2-3.7-6.7c-2-3.8-6.1-10.8-9-15.6a121 121 0 0 1-5.3-9.2l-6-10.5-6-10.5c0-.2-3.4-6-7.5-12.9s-7.5-12.8-7.5-13.1-3.1-5.6-7-12c-3.8-6.4-7-11.8-7-12s-2.7-5-6.1-10.7l-8.4-14.3c-3.1-5.6-15.2-26.6-28.5-49.5l-13.3-23-18.1-31.3c-3-5-6.6-11.5-8.1-14.2-2.7-4.9-6.9-12.1-19.9-34.3-3.6-6.2-6.6-11.4-6.6-11.7s-3.1-5.6-7-12c-3.8-6.4-7-11.8-7-12 0-.3-3.4-6.2-7.5-13.1s-7.5-12.7-7.5-12.9-2.3-4.3-5.2-9.1l-5.1-8.7 2.4-4.6c1.3-2.5 5.6-10.1 9.6-16.9l7.3-12.7c0-.2 3.2-5.6 7-12 3.9-6.4 7-11.8 7-12.2s3.4-6.1 7.5-13l7.5-12.8c0-.1 3.7-6.8 8.3-14.7l13.2-22.8 16.5-28.5 6-10.5 6-10.5c0-.2 3.2-5.6 7-12 3.9-6.4 7-11.8 7-12 0-.3 2.9-5.3 6.4-11.2l8.6-14.8 27-47c0-.4 12.9-22.2 15-25.5a273 273 0 0 1 7.1-12.5l6.6-11.5c5-8.8 21.7-37.7 23-39.7.8-1.1 1-2.3.6-2.6s-13.9-.8-29.8-1.1c-17-.3-26.5-.1-23 .4 3.3.4 14.1.8 24.1.9s20.2.4 22.7.7l4.6.7-1.9 2.5a9 9 0 0 0-2 3.8q0 1.3-1 1.4c-.5 0-1.2 1.1-1.6 2.5q-.6 2.3-1.4 2.5c-.5 0-1.1 1.3-1.5 3l-.7 3h-139.4c-132.5 0-144.2-.2-138-2.6.8-.3 1.8-1.9 2.1-3.5s2.2-5.5 4.1-8.7 4.2-7.4 5.2-9.4c1.4-3 2.3-3.7 5.2-4.1q5.2-.5-.4-.3c-3.5.1-4 .5-6.3 4.6l-13 22.5-2.2 4c-.5 1.2-3.4 6.3-6.5 11.3s-5.6 9.4-5.6 9.7l-6 10.5c-3.3 5.6-6 10.4-6 10.6s-1.1 2.3-2.6 4.5l-13.4 23.2c-14 24.6-12.6 22.7-14.7 19.8-1.6-2-15.2-25.3-23-39.1l-7.8-13.5-7.5-13-7.8-13.5-21.6-37.3-2.7-4.7h-137.4c-75.6 0-137.5.3-137.5.6M576 1412.5V1776h238v-154.5c0-85 .3-154.5.8-154.5s1.6 1.7 2.7 3.7l7.7 13.6c3.2 5.4 5.8 10.1 5.8 10.3s1.1 2.2 2.5 4.4l6.8 11.7 31.7 55.8c0 .2 2.7 4.9 6 10.3s6 10.2 6 10.6c0 .3 2.5 4.6 5.5 9.6s5.5 9.3 5.5 9.5 2.2 4.2 4.9 8.7A662 662 0 0 1 913 1638l10 17.5 10 17.5 6.6 11.5a666 666 0 0 0 11.7 20.5c.3.8 9.5 17 20.4 36 18.9 33 19.9 34.5 22.8 34.6q3.4.1.5-.3c-1.5-.2-3.3-1.7-4.4-3.6a107 107 0 0 1-8.6-17.5q0-1-.9-1.2t-1.7-2.3a7 7 0 0 0-1.8-2.9c-.6-.4 53.2-.8 119.7-.8 106.6 0 120.7.2 120.7 1.5q.1 1.3 1 1.5t1 1.4q.2 1.3 1.5 2t1.5 2.1q.1 1.3 1 1.5t1 1.4c0 .8.6 2.1 1.3 2.8 1.7 1.9 4.7 6.9 5.4 9q.5 1.6 1.4 1.8c1.7 0 .9 2.8-.8 3.3q-1.3.5 1.5.6l3.2.1v-363c0-289.7-.3-363-1.2-363.1-6.2-.5-235.1.2-235.9.7-.7.4-1 32.6-.9 102.8.1 56.1.2 127.1.1 157.6-.1 60.5.2 58.1-5.6 47.5l-8.9-15.5c-7.3-12.2-20.4-34.7-23.6-40.5l-8.6-14.6c-3.5-5.9-6.4-10.9-6.4-11.2l-7-12.2a1458 1458 0 0 1-19.3-33A4117 4117 0 0 0 888 1177l-9-15.5-8.6-14.8c-3.5-5.9-6.4-10.9-6.4-11.2s-3.8-6.7-8.5-14.5l-8.5-14.5c0-.2-3.4-6.1-7.5-13l-7.5-13.1c0-.2-3.2-5.5-7-11.9-3.9-6.4-7.9-13.4-9-15.6l-2-3.9H576zm659.2-347-.3 14.5H1001v-29h234.5zm-654.2-3.9q0 1.2.8 1.6a19 19 0 0 1 3.1 5.3c1.4 2.7 2.8 5.2 3.2 5.5s1.1 1.8 1.4 3.3l.7 2.7H578v-11.8c.1-10.5.2-11.5 1.5-9.8a7 7 0 0 1 1.5 3.2m1897-12.3c.7.6 28.7 1.6 63.5 2.1 21 .3 25.3.2 15.5-.4-17.2-1-79.7-2.4-79-1.7M248 1413v363h244v-726H248zm242-347.5v14.5H249v-29h241zm1237.8 95.9.2 111.3 110.8-110.9 111.1-111.4c.2-.2-49.7-.4-111-.4h-111.4zM2585 1053c5.8.4 27.6 1 48.5 1.3 24.2.3 32.4.2 22.5-.3-21.9-1.1-84-2-71-1m-1240.7 223.8-17.3.2v270l81.5 81.7 112 112.3 30.5 30.6v-77.1l.3-179.5c.2-56.4.2-87.1 0-68.3l-.3 34.3-83.3.1h-83.2l-5.5 6.5-8.5 9.9-14.5 17a1502 1502 0 0 1-23.5 27.8 10 10 0 0 0-2.5 3.7c0 .6 40.6 1 110.3 1 72 .1 109.6.4 108.5 1s-41.2.9-110.5.8l-108.8-.3-.3-2.2q-.4-2 6-9.5c3.5-4 9.1-10.7 12.5-14.9l8.3-10 14.2-17.4 5-5.9c2.4-2.6 4.7-5.5 5.2-6.4s2.2-3 3.7-4.6a1190.2 1190.2 0 0 0 21.9-26.1l15.3-18.5 43.7-53 14-17 7.5-9 7.5-9 7-8.5 7-8.5a649 649 0 0 1 19-23 412 412 0 0 1 23-26.7c1.2-1 .2-1.3-5.5-1.5-9.4-.3-178.4-.4-200.2 0m495-.1-112.3.3v270h223.3l-2-2.3-4.1-4.7-8.9-10.6-11.6-14-22.7-27.4-7.5-9.1-7.5-9-7.4-8.8-5.5-6.6-17.1-20.9-7.5-9.1-7.5-9-7.5-9a1190 1190 0 0 1-21.5-26l-15-18.1-5.3-6.6a1509 1509 0 0 0-25.9-31.3l-4.5-5.6-7.3-8.8-20.9-25a20 20 0 0 1-3.9-5.7c.7-.7 5.4 4.4 18.3 20.1q10.5 12.7 11.8 13.3.7.4.7 1.4a12 12 0 0 0 3 4.1c6 6.4 12 13.4 12 14.1 0 .3 1.8 2.3 4 4.5 2.2 2.1 4 4.4 4 5 0 .8 22.7 1.1 83.5 1.1 45.9 0 83.5.1 83.5.2l.7 24.8c.3 13.5.7 24.7.9 24.9s.4-26 .4-58.2-.1-58.6-.2-58.5c-.2.2-50.8.4-112.5.5m-175.2 272.7c.3.3 12.5 1.3 18.2 1.6.4 0 .7 49.5.7 109.9 0 103.7-.1 109.9-1.7 110.6-1 .5-11 1.1-22.3 1.5-17.5.6-14.1.7 23 .8l43.5.2v-225h-30.9c-17 0-30.7.2-30.5.4m285.9 1.3c0 .5-49.7 50.7-110.4 111.8l-110.4 111 110.1.3c60.6.1 110.8 0 111.5-.3 1.6-.6 1.8-223.5.2-223.5q-.9 0-1 .7m-894.2 225c21.5.2 56.9.2 78.5 0 21.5-.1 3.9-.2-39.3-.2s-60.8.1-39.2.2M393 1841.1a52 52 0 0 0-43.8 44.3 81 81 0 0 0 1.7 26.1l3.5 7.8a55 55 0 0 0 22.6 22.4c32.2 15.9 71.2.2 80.2-32.2a84 84 0 0 0 1.5-13.8c.4-8.6.1-10.9-2.2-18a48 48 0 0 0-14.8-23.3 57 57 0 0 0-48.7-13.3m22.3 9.4a43 43 0 0 1 20.5 11.4c9.4 9.6 12.2 16.2 12.9 31a41 41 0 0 1-15 35.4 43 43 0 0 1-32.7 10.5c-5.5-.3-10.5-.9-11.2-1.5s-2.6-1.3-4.1-1.7c-7.5-1.8-18-11.4-22.5-20.7a45 45 0 0 1 19.8-61c4-1.9 8.6-3.6 11.5-4.2 4.6-1 15.5-.6 20.8.8m826.7-9.4a50 50 0 0 0-21.3 8.7 48 48 0 0 0-22.4 42.9 39 39 0 0 0 2.2 19 50 50 0 0 0 26 30.2c8.8 4.4 16.1 6 26.7 6.1 13.6 0 25.4-3.9 34.1-11.3l3.8-3.2-3-3.3-3.1-3.3-5.2 3.9c-9.2 6.7-12.6 7.7-26.9 7.7-7.7 0-13.1-.4-14-1.1-.8-.6-2.7-1.4-4.4-1.8a56 56 0 0 1-15.3-10.5 47 47 0 0 1-11.5-31 43 43 0 0 1 45.8-44.5c10.6-.1 11.3.1 18.7 3.6 4.2 2 8.5 4.5 9.4 5.7s2.3 2.1 2.9 2.1c1.4 0 5.5-4.2 5.5-5.6 0-2-6.7-7.2-13-10.2-9.9-4.5-22.9-6-35-4.1m706.5.3a51.4 51.4 0 0 0-43.5 52 52 52 0 0 0 41.3 53c26.1 6.1 52.5-5.5 63.1-27.7 4.6-9.5 6-16.9 5.3-28.2a51 51 0 0 0-45.1-49.4 52 52 0 0 0-21.1.3m31.8 12.4a41 41 0 0 1 24.1 33 43.8 43.8 0 0 1-47.5 52 41 41 0 0 1-11.1-1.5c-.7-.6-2.6-1.3-4.3-1.7-5.7-1.4-15.9-10.3-20.7-18.1a52 52 0 0 1-4.3-37.5 44.4 44.4 0 0 1 46.1-30.6c8.3.3 9.9.7 17.7 4.4m-1731.9-11.4c-.3.8-.4 2.7-.2 4.3l.3 2.8 18.5.5 18.5.5.3 48.8.2 48.8 4.8-.3 4.7-.3.3-48.8.2-48.7h37v-9h-42c-35.4 0-42.1.2-42.6 1.4m408.1-.7c-1.6.2-6.6 2.2-11 4.3a55 55 0 0 0-27.1 29.5 81 81 0 0 0 .1 37A54 54 0 0 0 671 1948a55 55 0 0 0 53.5-38 78 78 0 0 0-.1-30.8 49 49 0 0 0-21.2-29.5c-11-7.2-13.8-7.9-29.7-8.2-7.7-.2-15.3-.1-17 .2m32.5 10.8a45 45 0 0 1 25.7 28.9 56 56 0 0 1-.3 26.6c-3.7 11.9-16 25.4-24.9 27.6-1.7.4-3.6 1.2-4.4 1.8s-6.3 1.1-14.1 1.1-13.2-.4-14.1-1.1c-.8-.6-2.7-1.4-4.4-1.8-7-1.7-17.8-12.1-22.7-21.6-3.2-6.3-3.2-6.8-3.3-19.6 0-8.1.4-14 1.2-15.5l2.8-6c.9-2 3.8-6.1 6.5-9.1a47.5 47.5 0 0 1 52-11.3m433.3-7.3-4.8 10.3-4.5 10-10.5 23-8.9 19.7-7.6 16.8-7.6 16.8-2.4 5.7c0 .7 7.6.6 9.4-.1q1.5-.6 1.6-1.4c0-.4 1.7-4.6 3.9-9.2l5.9-13.1 2.1-4.7h60.6l1.2 2.7 5.8 13.2c2.5 5.7 5 11 5.6 11.8 1.3 1.5 9.9 1.8 9.9.3 0-.6-1.3-3.9-2.9-7.3l-9.1-20.2-10.5-23-4.5-10-5.7-12.5-5.3-11.5-5.1-11.5c-3.9-9.4-4.5-10-9.8-10-4.6 0-4.8.1-6.8 4.2m10.3 13.5 8.8 19.6 3.6 8.2c0 .3 1.1 2.9 8.1 18.2 1 2.4 1.9 4.5 1.9 4.8s-11.7.5-26 .5h-25.9l1.8-4.3 7.1-16.2 3.1-7 4.4-10 4.5-10c3.3-7.7 4.3-9.5 5.2-9.5.5 0 2 2.6 3.4 5.7m447.4-16.8c-8.7 1.9-20 8.8-27 16.5-5 5.5-6.6 8.2-9.7 16.1-2.5 6.3-2.8 8.2-2.8 19.5 0 13.1.2 14.1 5.8 25.8a53 53 0 0 0 35 26.6 55.7 55.7 0 0 0 66.7-35c2.7-8.2 3-25.5.5-33.1a51 51 0 0 0-21.3-28.6c-11-7.1-13.9-7.9-29.7-8.3-7.7-.1-15.6.1-17.5.5m29.5 9.1c16 6.5 24.5 15 28.8 28.7a45 45 0 0 1-26.8 56.9 41 41 0 0 1-16 1.9c-9.8 0-11.8-.3-18.4-2.9a45 45 0 0 1-23.2-22.1c-3.2-6.8-3.3-7.4-3.4-19.5 0-12.1.1-12.7 3.2-19.2a46 46 0 0 1 29.6-24.3 64 64 0 0 1 26.2.5m424.5-9.4c0 .4 3.5 5.4 7.8 11.3l9.4 13.1 10.2 14a104 104 0 0 1 8.6 12.5c0 .5-3.7 5.9-8.1 12l-9.5 13-11.4 15.7-10 14c0 .7 9.6.6 10.6 0 .6-.4 5.8-7.2 11.6-15.2l16.4-22.7c3.2-4.5 6.4-8.2 7.1-8.3 1.1 0 2.2 1.4 10.8 13.5l14.2 19.6 10.2 13.8 5.1-.2c2.7-.1 5-.5 5-.9s-7.1-10.4-15.7-22.2L2089 1901l-3.7-5.3c-2.5-3.3-2.4-3.6 2.9-10.8a715 715 0 0 0 30.8-43.3c0-.3-2.1-.6-4.7-.6l-4.8.1-10 13.6a633 633 0 0 0-19.1 26.6c-1.4 2.1-2.9 3.5-3.6 3.1-1-.6-16.1-20.9-25.2-33.8-6.4-9.1-7.1-9.6-12.6-9.6-2.8 0-5 .3-5 .6m167.8 0c-.5.4-.8 24.1-.8 52.7v51.9l28.8-.4c32.3-.5 33.8-.8 47-8.6a48 48 0 0 0 22.7-33.9c1.5-8.2 1.5-9.6 0-18a60 60 0 0 0-4.5-15.7c0-1.5-8.1-11.9-11.8-15.2a55 55 0 0 0-9.6-6.2c-11.7-5.8-14.8-6.3-44.1-6.9-14.8-.3-27.3-.2-27.7.3m56.8 9.8a42 42 0 0 1 18.9 10.7 39 39 0 0 1 12.1 23.5c1.5 7.5 1.5 9.5.4 15.3a43 43 0 0 1-11.3 22.8 46 46 0 0 1-22 12.6c-3.1.7-13.3 1.2-25.2 1.2h-20l-.3-43c-.1-23.7 0-43.6.3-44.4.7-1.9 39.6-.9 47.1 1.3m104.6-9.2q-1.1 1.2-1.2 2.1c0 .4-1.2 3.4-2.6 6.5l-5.1 11.2-5.8 12.5-11.8 25.5-5.6 12.2-6.2 13.5a411 411 0 0 0-8.2 18.5c-.6 1.6 0 1.8 4.4 1.8 4.8 0 5.1-.1 6.5-3.6 2-4.8 9.2-20.5 10.3-22.4.7-1.3 5.4-1.5 30.9-1.8l30.1-.2 3 6.2 5 11.3c4.2 9.7 4.5 10 10 10.3 2.8.2 5.1.1 5.1-.2l-4.6-10.3-11.2-24.3-6.2-13.5-5.7-12.5-4.8-10.5-11.9-25.8-3.5-7.7h-4.8c-2.7 0-5.4.5-6.1 1.2m7.8 12.9c0 .4 1.8 4.7 4 9.4s4 8.8 4 9c0 .3 1.4 3.3 11.1 24.4 6.1 13.2 8 12.1-21 12.1-14.1 0-25.2-.4-25.5-.9s.8-4 2.5-7.8l9.7-21.3 10.4-23.3c1.7-3.8 2.3-4.5 3.4-3.6q1.3 1 1.4 2m-1878 39v52.1l28.3-.5c30.6-.5 31.9-.7 43.4-6.6a46 46 0 0 0 23.8-28.6 57 57 0 0 0-4-43.1 66 66 0 0 0-15.1-16.7c-15.6-8.4-17.5-8.7-49.3-8.7H493zm56.6-42.7a42 42 0 0 1 24.9 18.1 49 49 0 0 1 1.9 45.5c-4 8.7-17 18.4-28.4 21.2a207 207 0 0 1-24.7 1.5l-20.3.4v-89.4l20.8.6c13.4.4 22.5 1.1 25.8 2.1M807 1894v52h73v-8h-63v-41l27.3-.2 27.2-.3.3-3.8.3-3.7H817v-40h62v-7h-72zm109-.1v52.1h9v-41.9c0-24.9.4-42.2.9-42.6.8-.4 34 40.1 51.1 62.1 16.8 21.8 17.4 22.4 22.2 22.4h3.8v-104h-8.8l-.6 6.2c-.4 3.5-.6 22.4-.4 42s0 36-.3 36.3-15.8-18.5-34.4-41.7l-33.8-42.3-4.4-.3-4.3-.3zm408 .1v52h74v-8l-31.7-.2-31.8-.3-.3-20.3-.2-20.2h55v-8l-27.2-.2-27.3-.3v-39l30.8-.3 30.7-.2v-7h-72zm108 0v52h10v-33h17.4c9.6 0 18.1-.3 18.9-.6q1.3-.8 10.1 11.3l9.3 12.8c.5.5 2.1 2.9 3.7 5.2 2.8 4.2 3 4.3 8.3 4.3h5.5l-4.5-6.3c-16.8-23.8-19.7-28.1-19.4-29.1.2-.6 2.5-2.2 5.1-3.5a36 36 0 0 0 14-13.2 39 39 0 0 0 3-23.6 29 29 0 0 0-13.6-21.6c-9.2-6-13.4-6.7-42.2-6.7H1432zm53.1-42.7c12.6 4.1 17.4 9.9 18.6 22.1q1.9 19.4-14.5 27.3c-5.7 2.8-5.8 2.8-26.2 2.8h-20.5l-.3-26.4c-.2-20.5.1-26.7 1-27.3 2.2-1.5 36.6-.2 41.9 1.5M1731 1894v52h9v-104h-9zm53 0v52h10v-42.5c0-23.4.3-42.5.8-42.4.4 0 15.9 19.1 34.5 42.5l33.8 42.4h7.9v-104h-9l-.2 41.7c-.2 26.7-.7 41.7-1.3 41.9-.5.2-2.4-1.6-4.2-3.9-1.7-2.3-4.3-5.6-5.7-7.2l-12-15-10.9-13.5-18.2-22.8-17-21.2h-8.5zm364 0v52h10v-104h-10zm301 .1v52l31.8-.4c26.8-.3 32.4-.6 36.1-2.1 14.1-5.5 19.1-12 19.1-24.9 0-12.4-6-21.6-16-24.6-3.7-1.1-5.7-4.1-2.7-4.1 2.4 0 8.8-6.3 11-10.8 2.7-5.8 2.8-16.3.2-21.9-3.2-6.9-6.9-9.9-17-13.5-4.3-1.6-8.5-1.8-33.7-1.8H2449zm59-42.9c8.8 4 12.2 9 12.2 17.8 0 8.7-3.5 13.9-11.7 17.6-3.4 1.5-7.6 1.9-26.4 2.2-17.9.3-22.5.1-23.2-1-1-1.5-1.2-34.8-.3-37.3.6-1.5 2.9-1.6 23.3-1.3 18 .3 23.3.7 26.1 2m1.2 47.2c11.4 2.7 16.8 8.8 16.8 19.2 0 9.7-4.3 15.5-14.2 18.8-3.9 1.4-8.9 1.6-29 1.4l-24.3-.3-.3-19a299 299 0 0 1 .2-20.2c.8-1.9 42.9-1.8 50.8.1m60.8-4.4v52h69v-8l-29.2-.2-29.3-.3-.3-47.8-.2-47.7h-10zm97 0v52h74v-8l-31.7-.2-31.8-.3-.3-20.3-.2-20.2h55v-8l-27.2-.2-27.3-.3v-39l30.8-.3 30.7-.2v-7h-72z"/><path fill="#606060" d="M2044 1048.6c0 .3 5.1 9.2 11.4 19.7l36.6 62.2 13.5 23a5675 5675 0 0 1 49.4 84c14.8 24.8 34.4 58 37.5 63.7 1.4 2.5 7.7 13.2 14.1 23.8l11.5 19.5c0 .2 3.8 6.6 8.4 14.3l18.6 31.5 10.2 17.7-5.3 9.2-12.6 21.6c-4 6.8-7.3 12.6-7.3 12.9s-2.2 4.2-4.9 8.7-5.8 9.7-6.8 11.6a1594 1594 0 0 1-23.3 40.5c0 .2-2.2 4.2-4.9 8.7l-6.8 11.8-27.3 47.5c0 .3-1.9 3.5-4.1 7.2l-8.4 14.3-15.9 28-28 48.2-8.7 15.3-7.1 12.3a58 58 0 0 0-3.8 6.7c0 .2-2.7 4.9-6 10.3s-6 10.2-6 10.6c0 .3-2.5 4.6-5.5 9.6s-5.5 9.2-5.5 9.5c0 .2-2.9 5.3-6.5 11.4-3.6 6-6.5 11.2-6.5 11.5s62.9.6 139.9.6h139.9l3.9-6.8c11.1-18.9 15.4-26.2 18.4-31.7 1.8-3.3 5.7-10 8.6-14.8a121 121 0 0 0 5.3-9.2l6-10.5 6-10.5c0-.4 12.9-22.3 15-25.5.6-.8 1.4-2.5 2-3.8 1.7-4 7.9-13.2 8.9-13.2.5 0 1.3 1 1.6 2.1s3.7 7.2 7.4 13.3l14.1 23.8c4 7 7.5 12.6 7.8 12.4s-.7-2.1-2.1-4.3c-2.4-3.8-16.1-28-20.5-35.9a20 20 0 0 1-2.2-5.8q0-1.5-1-1.6c-1.5 0-1.2-1.9.4-3.6 1.3-1.2 20.1-1.4 131.5-1.4H2665l.6 2.5q.6 2.3 1.3 2.5c.4 0 1.2 1.2 1.8 2.7 1.2 2.7 3.3 6.3 4.3 7.3.8.8 2.7 4.1 5 8.7 1.2 2.3 2.8 4.7 3.7 5.5 1.7 1.3-1.4-4.6-9.8-18.7l-6.6-11.5-28.3-49-13.3-23-18.1-31.3c-3-5-6.6-11.5-8.1-14.2-2.7-4.9-6.9-12.1-19.9-34.3-3.6-6.2-6.6-11.4-6.6-11.7s-3.1-5.6-7-12c-3.8-6.4-7-11.8-7-12 0-.3-3.4-6.2-7.5-13.1s-7.5-12.7-7.5-12.9-2.3-4.3-5.2-9.1l-5.1-8.7 2.4-4.6c1.3-2.5 5.6-10.1 9.6-16.9l7.3-12.7c0-.2 3.2-5.6 7-12 3.9-6.4 7-11.8 7-12.2s3.4-6.1 7.5-13l7.5-12.8c0-.1 3.7-6.8 8.3-14.7l13.2-22.8 16.5-28.5 6-10.5 6-10.5c0-.2 3.2-5.6 7-12 3.9-6.4 7-11.8 7-12 0-.3 2.9-5.3 6.4-11.2l8.6-14.8 23.9-41.3c3.5-5.9 3.8-7 1.6-5.2q-1.3 1.2-1.5 2.1c0 .5-1.2 2.8-2.7 5.2a54 54 0 0 0-5.9 9.9q-.6 1.6-1.5 1.8t-.9 1.3c0 .7-.9 2-2 3-1.9 1.6-10.9 1.7-139.6 1.7h-137.5l.7-2.3c.3-1.2 1.1-2.4 1.5-2.5q.8-.5.9-1.8a87 87 0 0 1 8.2-16.2c1.1-1.8 1.8-3.5 1.5-3.8-.2-.3-3.2 4.4-6.5 10.3-8.5 15-7.8 14.3-9.9 11.4-1.6-2-15.2-25.3-23-39.1l-7.8-13.5-7.5-13-7.8-13.5-21.6-37.3-2.7-4.7h-137.4c-75.6 0-137.5.3-137.5.6M576 1412.5V1776h238v-154.5c0-85 .3-154.5.8-154.5s1.6 1.7 2.7 3.7l7.7 13.6c3.2 5.4 5.8 10.1 5.8 10.3s1.1 2.2 2.5 4.4l6.8 11.7 31.7 55.8c0 .2 2.7 4.9 6 10.3s6 10.2 6 10.6c0 .3 2.5 4.6 5.5 9.6s5.5 9.3 5.5 9.5 2.2 4.2 4.9 8.7A662 662 0 0 1 913 1638l10 17.5a1200 1200 0 0 1 15.7 27.5c6.7 12 8.5 15 9 15 .3 0-1.1-2.8-3-6.3l-7.2-13.2c-2-3.9-4.4-7.8-5.3-8.8q-1.3-1.5-.9-1.7c.4 0-.7-2.3-2.3-5-1.7-2.8-3-5.5-3-6q0-.8-.9-1.2c-.4-.2-1.2-1.3-1.5-2.6l-.7-2.2h119c65.4 0 119.6.3 120.5.6s1.6 1.4 1.6 2.4q0 1.8 1 2.5a588 588 0 0 1 27.7 45.5l11 18.7c5.7 9.5 10.3 17.7 10.3 18.3q.1.9 1 1t1 1.1c0 .6 2.9 5.9 6.4 11.8 9.1 15 11.6 19.8 11.6 21.5q.2 1.5 1.5 1.6c1.3 0 1.5-38.3 1.3-339.8a26799 26799 0 0 0-.9-308.7l-.8 39.2-.1 8.3h-234l-.1-11.3-.9-62.2c-.6-44.2-.7-37.3-.7 51.5l-.2 158c-.1 60.5.2 58.1-5.6 47.5l-8.9-15.5c-7.3-12.2-20.4-34.7-23.6-40.5l-8.6-14.6c-3.5-5.9-6.4-10.9-6.4-11.2l-7-12.2a1458 1458 0 0 1-19.3-33A4117 4117 0 0 0 888 1177l-9-15.5-8.6-14.8c-3.5-5.9-6.4-10.9-6.4-11.2s-3.8-6.7-8.5-14.5l-8.5-14.5c0-.2-3.4-6.1-7.5-13l-7.5-13.1c0-.2-3.2-5.5-7-11.9-3.9-6.4-7.9-13.4-9-15.6l-2-3.9H576zm6.4-350.4c2 3.3 3.6 6.2 3.6 6.4s2 3.8 4.5 7.8 4.5 7.7 4.5 8c0 .4 2 4 4.5 8s4.5 8 4.5 8.6q.1 1 .8 1.1c.4 0 1.3 1.2 1.9 2.7 1.2 2.9 4.4 8.7 11.4 20.5 2.1 3.6 3.9 7.1 3.9 7.7q.1 1 .8 1.1c.4 0 1.3 1.2 1.9 2.7.7 1.6 2.5 5 4.1 7.8 3.3 5.8 12.1 21.9 13.6 25.2q1 2.1 1.9 2.3.6.1.7 1.5c0 1.3-4.4 1.5-33.3 1.5h-33.4l-.6-44.3c-.9-58.9-.9-74.7.2-74.7.5 0 2.5 2.7 4.5 6.1m464.4-12.4c2.3.2 6.1.2 8.5 0 2.3-.2.4-.4-4.3-.4s-6.6.2-4.2.4m127 0c4.5.2 11.9.2 16.5 0 4.5-.1.8-.3-8.3-.3s-12.8.2-8.2.3m-683 41.5a3014 3014 0 0 1-.7 65.5l-.1 18.3H370c-95.3 0-120-.3-120.1-1.3l-.9-26.2c-.3-13.8-.7 122-.8 301.7L248 1776h244v-363c0-199.7-.2-363-.5-363s-.6 18.6-.7 41.2M1728 1052q.1 1.8 1 2 1-.1 1-1c0-.7 36.3-1 106.8-1.1 58.7-.1 108.1-.5 109.7-.9s-46.8-.8-107.7-.9c-110.2-.1-110.8-.1-110.8 1.9m975.8 3.7c1.7.2 4.7.2 6.5 0s.3-.4-3.3-.4-5 .2-3.2.4m-1359.5 221.1-17.3.2.1 135.3c0 84.1.4 134.3 1 132.9.5-1.3 1.4-2.9 2.1-3.6l6.8-8.1c3-3.8 6.7-8.1 8.3-9.7 1.5-1.6 2.7-3.2 2.7-3.6s1.7-2.6 3.8-4.8l6.8-8 10.4-12.5c2-2.2 7.8-9.3 10.4-12.7 2.8-3.7 6.5-8 9.9-11.5 1.5-1.6 2.7-3.2 2.7-3.5 0-.4 1.7-2.6 3.8-4.8l6.8-8 6-7.4 4.5-5.5 5.5-6.6 7.9-9.4 5-5.9 5-6.1a1494 1494 0 0 1 25.1-30.5l3.4-4 7-8.5c3.5-4.4 7-8.4 7.7-8.8q1.2-.8 1.3-1.9c0-.6 1-2 2.3-3.2 1.8-1.8 6.3-7.1 11.2-13.4l3.6-4.1 5-6.2a65 65 0 0 1 5.1-6.4l8.5-10c3.2-3.9 6.4-7.4 7.1-7.8q1-.8 1.2-1.9c0-.6 1-2 2.3-3.2 1.2-1.1 3.2-3.5 4.5-5.1 3.3-4.4 7.1-8.9 12.9-15.3 2.8-3.1 4.9-5.9 4.6-6.2-.5-.5-174.6-.7-205-.2m606.5 1.4c-.3.7-.2 10.3.2 21.3l.7 20 .1-21.3c.1-11.6 0-21.2-.2-21.2q-.4.1-.8 1.2M1727 1412.7V1546h110.5c60.8 0 110.5-.2 110.5-.5a23 23 0 0 0-2.8-3.3 61 61 0 0 1-5.2-6.2c-1.3-1.8-3.5-4.5-4.9-6.1-4-4.3-8.1-9.3-9-10.7-.4-.7-2.4-3.2-4.4-5.5l-7.8-9.2-7.9-9.5-8-9.5-16.3-19.9-4.9-5.7a30 30 0 0 1-3.5-4.3c-.4-.8-2.5-3.2-4.5-5.5a26 26 0 0 1-3.8-4.6 166.7 166.7 0 0 1-13.5-16.3l-4.2-4.9a23 23 0 0 1-3.3-4.2c0-.3-1.9-2.7-4.2-5.3l-7-8a115 115 0 0 0-11-12.6q-.8-.4-.8-1.3c0-.6-.9-2-2.1-3.2l-4.8-5.7c-1.4-1.8-3.7-4.6-5.1-6.1l-3.5-4.1-10.4-12.7-14.1-17.2-7-8.4-7.5-9a1190 1190 0 0 1-22.8-27.9 109 109 0 0 1-6.7-7.7c-1.9-2.4-5-5.9-6.7-7.9l-3.2-3.5zm-176 92.5c0 8.4-.3 21-.6 27.9-.5 8.9-.3 12.8.5 13.3s1.1-6.8 1.1-27.8c0-15.7-.2-28.6-.5-28.6s-.5 6.9-.5 15.2m161.5 44.8c3.9.3 8.1.3 9.5-.1s-1.7-.7-7-.7l-9.5.1zm238.3 1.3c-.5 1-.8 48.9-.8 106.3 0 68.9-.3 104.4-1 104.4q-.9.2-1 2t-1.5 2q-1.3 0-1.5.9c0 .5-.7 1.7-1.6 2.5-1.3 1.4-4.7 1.6-22 1.6-12.9 0-20.4.4-20.4 1s-2.2 1-5 1-5-.5-5-1c0-.7-19-1-55-1-35.4 0-55 .4-55 1s-9.7 1.1-25.7 1.3c-14.2.1 24.1.3 85 .5 87.9.2 110.9-.1 111.2-1.1.8-2.1.1-223.3-.7-221.4m732.3 129.2c1 2.6 10.2 17.5 10.6 17.2.2-.3-1.7-4-4.3-8.3-4.4-7.4-7.2-11.3-6.3-8.9m-980.8 93.2c4.2.2 11.2.2 15.5 0 4.2-.1.7-.3-7.8-.3s-12 .2-7.7.3M393 1841.1a52 52 0 0 0-43.8 44.3 81 81 0 0 0 1.7 26.1l3.5 7.8a55 55 0 0 0 22.6 22.4c32.2 15.9 71.2.2 80.2-32.2a84 84 0 0 0 1.5-13.8c.4-8.6.1-10.9-2.2-18a48 48 0 0 0-14.8-23.3 57 57 0 0 0-48.7-13.3m23 1.8c0 .5 2.3 1.1 5 1.5s5 1.1 5 1.6q.1 1 1.5 1t1.5.9c0 .5 1.1 1.2 2.5 1.5s2.5 1.1 2.5 1.6q.1 1 1.4 1c1.9 0 13.6 11.7 13.6 13.6q0 1.3.9 1.4c.5 0 1.2 1.3 1.6 3s1 3 1.5 3 1.2 2 1.6 4.5c.3 2.5 1 4.5 1.5 4.5s.9 5.4.9 12-.4 12-.9 12-1.2 2-1.5 4.5-1.1 4.5-1.6 4.5-1.1 1.3-1.5 3-1.1 3-1.6 3q-.8.1-.9 1.4c0 2.6-6.5 8.6-9.4 8.6-2.7 0-3.7 2.4-1.3 3.4q.8.5-1.4 0-2.6-.5-4.2 1c-.8.9-2.3 1.6-3.2 1.6q-1.8 0-1.2 2 .6 2.1-1.4 2-1.7 0-1.9 1t-1.5 1-1.5-1c0-.6-1.3-1-3-1s-3 .4-3 1-1.1 1-2.5 1q-2.4 0-2.5 1.5c0 1.2-1.5 1.5-7.6 1.5-5.4 0-8-.4-9-1.5q-1.6-1.5-7-1.5c-3 0-5.4-.4-5.4-1s-1.6-1.2-3.5-1.6c-1.9-.3-3.5-1-3.5-1.4q-.1-.9-2.1-1.5a46 46 0 0 1-12.9-13.1q0-1.3-1-1.4-.9-.2-1.6-2.5c-.3-1.4-1-2.5-1.4-2.5s-1.1-1.6-1.4-3.5c-.4-1.9-1.1-3.5-1.6-3.5s-1-1.4-1-3-.3-3-.7-3c-.5 0-.8-5.2-.8-11.5s.3-11.5.8-11.5q.7-.2.7-2.5c0-1.4.4-2.5.9-2.5s1.2-1.6 1.5-3.5 1.1-3.5 1.6-3.5q1-.1 1-1.4 0-1.4 1.9-.9 2 .4 3.7-1.6c1-1.2 2.2-2.1 2.6-2.1 1.4 0 .8 2.8-.7 3.4q-1.3.6-1.5 2.1 0 1.3-.9 1.5c-.5 0-1.2 1.2-1.6 2.7-.3 1.5-1.2 3.1-1.8 3.5-1.7 1-1.7 32.6 0 33.6.6.4 1.5 2 1.8 3.5s1.1 2.7 1.6 2.7q.8.1.9 1.5.2 1.5 1.5 2.1t1.5 1.9c0 1.6 6.3 8.5 7.6 8.5.5 0 1.7.9 2.7 2 .9 1.1 2.4 2 3.2 2q1.4 0 1.5.9c0 .5 1.5 1.2 3.4 1.5s3.6 1.2 3.9 1.9c.3.9 4.4 1.2 15.2 1.2s14.9-.3 15.2-1.2c.3-.7 2-1.5 3.9-1.9s3.4-1 3.4-1.5q.1-.8 1.5-.9c.8 0 2.3-.9 3.2-2q1.7-1.8 2.6-2c.8 0 3-1.6 5-3.8 3.1-3.3 3.7-4.1 3.7-5.2q.1-1 1.4-1.6c.8-.3 1.7-1.7 2.1-3.2s1.1-3 1.7-3.3 1.2-2.5 1.5-4.8 1-4.1 1.4-4.1q.8-.2.9-2.5c0-4.5-1.5-2.6-3.7 4.8-4.7 15.4-14.4 24.8-31.1 30.2a37 37 0 0 1-15.2 1.3c-5.5-.3-10.5-.9-11.2-1.5s-2.6-1.3-4.1-1.7c-7.5-1.8-18-11.4-22.5-20.7a44.7 44.7 0 0 1 37.3-65.6c13.7-1 26.5 3.6 35.3 12.6 8 8.1 10.5 13.1 12.9 25.3.6 3.1 1.8 3.6 2.7 1.2 1.1-2.9.7-6.4-.9-6.4-1.1 0-1.5-1.2-1.5-4.5s-.4-4.5-1.5-4.5c-.8 0-1.7-1.1-2.1-2.4-.3-1.4-1.2-2.7-2-3a2 2 0 0 1-1.4-2.1q0-1.4-.9-1.5t-1.3-2.8c-.2-2.1-.9-2.8-3-3-2.2-.3-2.8-.9-2.8-2.8 0-2-.6-2.5-4-3-2.2-.4-4-1-4-1.5q-.2-.8-1.5-.9-1.5-.2-2.1-1.5c-.7-1.7-6.4-2.1-6.4-.5q0 .9-1 1-.9-.1-1-1.9c0-2.3-2.6-3.1-11.2-3.1-7.9 0-9.8.6-9.8 3.1q-.2 1.7-1.5 1.9-1.4-.1-1.5-1c0-.6-1.2-1-2.6-1-2.6 0-5.4 2-5.4 3.9 0 .6-1.9 1.1-4.3 1.1-3.5 0-4.7.5-6.7 3-1.4 1.6-3 2.9-3.7 3-.7 0-2.7 1.6-4.6 3.5a18 18 0 0 1-4.2 3.5c-.5 0 2.1-2.9 5.7-6.5 3.7-3.6 7.1-6.5 7.7-6.5q1 0 1.1-1c0-.5 1.1-1.2 2.5-1.6q2.3-.6 2.5-1.5.1-.8 1.5-.9t1.5-1c0-.5 2.3-1.2 5-1.6s5-1 5-1.5 5.6-.9 12.5-.9a44 44 0 0 1 12.5.9m33 52.1q0 4 1 3.5c.6-.3 1-1.9 1-3.5s-.4-3.2-1-3.5q-1-.4-1 3.5m793-53.9a50 50 0 0 0-21.3 8.7 48 48 0 0 0-22.4 42.9 39 39 0 0 0 2.2 19c6 17.8 20 30.5 38.4 34.9 14.7 3.5 33.8.6 44.3-6.8 2.4-1.7 2.6-2.2 1.6-4.8-.5-1.7-1.4-3-1.9-3q-.8-.1.3-1.3c1.9-2.1 4.9.9 4.1 4.2-.6 2.6-.6 2.6 1.5.7 2.3-2 2.2-2.5-2.1-6.8-1.7-1.8-1.9-1.7-7 2-9.1 6.7-12.5 7.7-26.8 7.7-7.7 0-13.1-.4-14-1.1-.8-.6-2.7-1.4-4.4-1.8a56 56 0 0 1-15.3-10.5 47 47 0 0 1-11.5-31 43 43 0 0 1 15.4-34.4 50 50 0 0 1 45.3-8.2q2 .9 1.4-.6c-.2-.8-1.5-1.6-2.8-1.7a8 8 0 0 1-4-2.1c-2.1-2.5-5.9-3.2-12.9-2.5-4.5.5-6.2 1.1-6.6 2.4q-.6 1.8-5 2.5c-2.5.3-4.5 1-4.5 1.5s-1.2 1.1-2.7 1.5-3.1 1.2-3.5 1.8-2.3 1-4.2.9c-2.7-.2-3.6.1-3.6 1.3q.1 1.4 1.1 1.5c.6 0-.8 1.7-3 3.8s-4.1 4.4-4.1 5q0 1.1-1 1.2-.9.2-1.6 2.5c-.3 1.4-1 2.5-1.5 2.5s-1.1 1.6-1.5 3.5-1 3.5-1.5 3.5-.9 6.3-.9 14c0 8.2.4 14 1 14s1.2 1.6 1.6 3.5c.3 1.9 1 3.5 1.4 3.5q.8.2 1.4 2.5c.4 1.4 1.1 2.5 1.6 2.5q1 .1 1 1.3c0 .7.8 2 1.8 2.9l6 6c.9 1 2.2 1.8 2.9 1.8q1.2 0 1.3 1t2.5 1.6q2.3.6 2.5 1.4c0 .5 1.5 1.2 3.3 1.5s3.5 1.3 3.9 1.9c1 1.5 29.6 1.5 30.6 0 .4-.6 2-1.4 3.6-1.8 1.5-.4 3.5-1.4 4.3-2.1 2.1-2.2 4-1.8 4.7.7.9 3.4.8 3.5-2.1 4.3-1.5.3-3.1 1.2-3.5 1.8s-3.1 1-6.2.9c-4.3-.1-5.6.2-5.6 1.3s-1.9 1.5-10.5 1.5-10.5-.3-10.5-1.5-1.3-1.5-6-1.5-6-.3-6-1.5q0-1.4-2.5-1.5-2.4 0-2.5-1.6.1-1.7-2.5-1.2c-2 .4-2.5.1-2.5-1.5q.1-2-2-1.4c-2.2.6-8-4.4-8-6.9q0-1.3-1-1.4c-.5 0-1.2-1.1-1.6-2.4-.3-1.4-1.2-2.7-2-3s-1.4-1.6-1.4-3-.5-2.6-1-2.8-1.3-2.1-1.7-4.3-1-4.3-1.5-4.6a76 76 0 0 1 0-23.8c.5-.3 1.3-3 1.7-5.9.4-2.8 1.1-5.2 1.6-5.2q.8-.1.9-1.5.1-1.5 1.4-2.1c.8-.3 1.7-1.6 2-3s1.1-2.4 1.6-2.4q1-.1 1-1.3c0-1.4 4.1-5.7 5.4-5.7.5 0 1.9-1.1 3.1-2.4s3.6-2.7 5.3-3.1c1.8-.3 3.2-1.1 3.2-1.6q.2-.8 1.5-.9t1.5-1c0-.5 2.3-1.2 5-1.6s5-1 5-1.5 5.2-.9 11.5-.9 11.5.4 11.5.9 2.5 1.2 5.5 1.6c3 .3 5.5 1.1 5.5 1.6q.2.8 1.5.9t1.5.9c0 .5 1.2 1.2 2.6 1.5 3.2.8 8.1 5.9 6.3 6.5q-1.2.2-2.4-1.2a7 7 0 0 0-3.8-2.2c-1.5-.4-2.7-1.1-2.7-1.6q-.2-.8-1.5-.9t-1.5 1q-.2.9-2.2 1-2.7-.1 3.2 3.1a24 24 0 0 1 6.3 4.4c.4.8 1.4 1.5 2.1 1.5 1.4 0 5.6-4.1 5.6-5.6 0-2-6.7-7.2-13-10.2-9.9-4.5-22.9-6-35-4.1m706.5.3a51.4 51.4 0 0 0-43.5 52 52 52 0 0 0 41.3 53c26.1 6.1 52.5-5.5 63.1-27.7 4.6-9.5 6-16.9 5.3-28.2a51 51 0 0 0-45.1-49.4 52 52 0 0 0-21.1.3m24.5 1.5c0 .6 2 1.3 4.5 1.7s4.5 1 4.5 1.5q.2.8 1.5.9t1.5.9c0 .5 1.4 1.2 3 1.6s3 1.1 3 1.6.8 1.3 1.8 1.6c2.2.9 9.6 8.3 10.5 10.5q.6 1.6 1.7 1.8.9.1 1 1.5t.9 1.5c.5 0 1.2 1.3 1.6 3s1.1 3 1.5 3c.5 0 1.2 2.7 1.6 6s1.1 6 1.5 6c.5 0 .9 3.1.9 7 0 3.8-.4 7-.9 7s-1.1 3-1.4 6.7c-.4 3.7-1.1 6.9-1.6 7.2-.5.4-1.3 1.9-1.6 3.4s-1.1 2.7-1.6 2.7q-.8.1-.9 1.4-.2 1.3-1.5 2t-1.5 2.1c0 1.8-7.7 9.5-9.5 9.5q-1.2.2-1.9 1.5-.5 1.7-3.1.9-2.7-.8-2.5 1c0 .9-.8 2-1.7 2.3-1 .4-2.1 1.1-2.4 1.6-.4.5-3 .9-5.8.9q-5.3-.2-5.8 1.4c-.8 2.1-19.3 2.1-19.3-.1q0-1.5-3-1.5c-1.6 0-3-.5-3-1q-.2-1-2-1t-2 1-1.5 1-1.5-.9-2.5-1.5q-2.3-.7-2.5-1.9-.2-3.9-5.4-4.3c-2-.2-4.4-1-5.2-1.9s-1.9-1.5-2.4-1.5-1.2-1-1.6-2.2c-.3-1.2-1.3-2.8-2-3.6a4 4 0 0 1-1.4-2.7q-.2-1.2-1.5-1.9c-.8-.3-1.5-1.7-1.5-3.1q0-2.3-.9-2.5c-.6 0-1.3-2-1.7-4.5s-1-4.5-1.5-4.5-.9-5.4-.9-12 .4-12 .9-12 1.1-1.9 1.4-4.2 1.1-4.4 1.6-4.6 1.1-1.5 1.1-2.8c0-1.4.6-2.7 1.4-3s1.7-1.6 2-3 1.1-2.4 1.6-2.4q1 0 1-1.2c0-1.4 4.8-5.8 6.2-5.8.5 0 1.9-1.1 3.1-2.4 1.3-1.4 3.5-2.8 5-3.1s2.7-1.1 2.7-1.6q.1-.8 1.5-.9t1.5-1c0-.5 2.3-1.2 5-1.6s5-1 5-1.5 5.6-.9 12.5-.9a43 43 0 0 1 12.5.9m-21.2 1.8c-1 .2-1.8 1.3-1.8 2.4q.1 2-2.5 1.9-2.3-.1-2.5-1-.1-1-1.6-1c-1.8 0-4.4 2.3-4.4 3.9 0 .6-1.3 1.1-3 1.1-2.3 0-3 .4-3 2q0 1.8-1 2c-1.4 0-10.8 9.7-11.5 12-.3 1.1-1.1 2-1.6 2q-.8.2-.9 1.5t-1 1.5c-.5 0-1.2 1.6-1.6 3.5-.3 1.9-1 3.5-1.5 3.5s-.9 5.8-.9 13c0 7.1.4 13 .9 13s1.2 2 1.5 4.5 1.1 4.5 1.7 4.5q.8.2.9 1.5t.9 1.5q1 .2 1.6 2a40 40 0 0 0 11.4 12q1 0 1.1 1t2.5 1.6c1.4.3 2.5 1 2.5 1.4 0 .5 1.5 1.2 3.3 1.5s3.5 1.3 3.9 1.9c1 1.5 27.6 1.5 28.6 0 .4-.6 2.6-1.5 5-1.9 2.3-.4 4.2-1.1 4.2-1.5q.2-.9 2.1-1.5c1.1-.4 3.8-2.6 6-4.8l6.3-6.8c1.4-1.5 2.8-3.8 3.1-5.2s1.3-2.8 2.1-3.1 1.4-1.6 1.4-3 .6-2.6 1.3-2.9c1.7-.5 1.7-28.9-.1-29.5-.6-.2-1.5-2.1-1.8-4.3s-1.1-3.9-1.6-3.9q-.9-.1-1.5-1.8a66 66 0 0 0-15.3-15.1c0-.5-1.3-1.2-3-1.6s-3-1.1-3-1.6-1.8-1.2-4-1.5q-4.2-.6-4-2.4 0-1.8-3.1-2.4c-3.5-.7-13.4-.6-16.1.1m28.5 9.1a41 41 0 0 1 24.1 33 43.8 43.8 0 0 1-47.5 52 41 41 0 0 1-11.1-1.5c-.7-.6-2.6-1.3-4.3-1.7-5.7-1.4-15.9-10.3-20.7-18.1a52 52 0 0 1-4.3-37.5 44.4 44.4 0 0 1 46.1-30.6c8.3.3 9.9.7 17.7 4.4m-1731.9-11.4c-.3.8-.4 2.7-.2 4.3l.3 2.8 18.5.5 18.5.5.3 48.8.2 48.8 4.8-.3 4.7-.3.3-48.8.2-48.7h37v-9h-42c-35.4 0-42.1.2-42.6 1.4m82.6 1.1c0 1.3-2.7 1.5-18.5 1.5H294v48.2c0 26.6-.3 49.3-.6 50.5-.5 1.7-1.4 2.3-3.5 2.3H287v-48.5c0-26.7-.3-48.4-.7-48.4q-5.1.7-5.3-2.1c0-1.9-.7-2-13.9-2-13.9 0-17.1-.4-17.1-2.1 0-.5 17.4-.9 40.5-.9 35.3 0 40.5.2 40.5 1.5m325.5-1.8c-1.6.2-6.6 2.2-11 4.3a55 55 0 0 0-27.1 29.5 81 81 0 0 0 .1 37A54 54 0 0 0 671 1948a55 55 0 0 0 53.5-38 78 78 0 0 0-.1-30.8 49 49 0 0 0-21.2-29.5c-11-7.2-13.8-7.9-29.7-8.2-7.7-.2-15.3-.1-17 .2m26.5 1.2c0 .5 2.3 1.1 5 1.5s5 1.1 5 1.6q.2 1 1.5 1t1.5 1 2 1c1.1 0 2.3.7 2.6 1.5q.7 1.3 2 1.5c.8 0 2.2.9 3.1 2q1.7 1.8 2.5 2c1.4 0 4.8 3.4 4.8 4.7q0 1.2 1 1.3c.5 0 1.2 1.1 1.6 2.4.3 1.4 1.2 2.7 2 3q1.3.6 1.4 2.1 0 1.3.9 1.5c.5 0 1.3 2.5 1.6 5.5s1.1 5.5 1.6 5.5.9 5.4.9 12-.4 12-.9 12-1.2 2.5-1.6 5.5c-.3 3-1.1 5.5-1.6 5.5q-.8.2-.9 1.5-.2 1.5-1.5 2.1t-1.5 1.9c0 .8-.6 2-1.4 2.7s-1.6 2.3-2 3.5c-.9 2.8-3.6 3.9-2.9 1.2q.6-2-1.1-1.9-1.5.2-1.6 1.5t-1.5 1.5q-1.3.2-1.5 1.5t-1.5 1.5q-1.5.2-2.1 1.5c-.4.8-1.7 1.5-2.9 1.5-1.3 0-3 .7-3.9 1.5q-1.4 1.3-2.5 1.5-1 .2-1.2 1.7 0 1.7-.6.5c-.6-1.4-6.3-1.7-6.3-.2 0 .5-1.1 1-2.5 1q-2.5 0-2.5 1.5c0 1.2-1.6 1.5-8 1.5s-8-.3-8-1.5-1.4-1.5-6.5-1.5c-3.6 0-6.5-.4-6.5-.9s-1.3-1.2-3-1.6-3-1-3-1.5-1.1-1.1-2.5-1.4a45 45 0 0 1-13.5-12.8c0-.5-.7-1.6-1.5-2.4a6 6 0 0 1-1.5-3.5c0-1-.4-1.9-1-1.9s-1.2-1.7-1.6-3.8-1.2-4-1.7-4.4c-1.5-1-1.6-30.6-.1-31.6.6-.4 1.5-2.2 1.9-4s1-3.2 1.5-3.2q.8-.2 1.4-2.5c.4-1.4 1.1-2.5 1.6-2.5q1-.1 1-1.1a45 45 0 0 1 13-12.8c0-.5 1.1-1.2 2.5-1.5q2.3-.7 2.5-1.6t2-1q1.8 0 2-.9c0-.5 2.5-1.3 5.5-1.6s5.5-1.1 5.5-1.6 5.2-.9 11.5-.9 11.5.4 11.5.9m-21.2 1.8c-1 .2-1.8 1.3-1.8 2.4s-.7 1.9-1.5 1.9q-1.3-.1-1.5-1c0-1.5-4.9-1.2-6.6.4-.8.8-1.4 2.1-1.4 2.9q0 1.4-3 .9c-2.5-.3-3-.1-3 1.5s-.5 1.9-2.9 1.5c-2.7-.4-3-.1-3.6 3.2-.4 2-1.1 3.6-1.6 3.6q-.8.2-.9 1.5c0 .8-.9 2.3-2 3.2s-2 2.3-2 3q0 1.2-1 1.3c-.5 0-1.2 1.7-1.6 3.7-.4 2.1-1.2 4.1-1.8 4.5q-1 .9-1.1 14.8 0 14 1.1 14.8c.6.4 1.4 2.4 1.8 4.4s1.1 3.8 1.6 3.8q1 .2 1 1.5.2 1.5 1.5 2.1c.8.3 1.7 1.5 2.1 2.6.7 2.5 3.5 5.8 4.8 5.8.5 0 1.9 1.1 3.1 2.4a14 14 0 0 0 4.3 3.1c1.2.3 2.2 1 2.2 1.5s1.7 1.1 3.7 1.5c2.1.4 4.1 1.2 4.5 1.8 1 1.6 28.6 1.7 29.6.1.4-.6 2.2-1.5 4-1.9s3.2-1 3.2-1.5q.2-.8 2.5-1.4c1.4-.4 2.5-1.1 2.5-1.6q.1-1 1.4-1c1.5 0 7.2-5.2 7.8-7.2q.6-1.1 4.1-1c2.8.2 3.7-.1 3.7-1.3q0-1.5-2.7-1.5-2.5-.1-1.7-.8c.6-.4 1.4-1.7 1.8-3 .4-1.2 1.1-2.2 1.6-2.2s1.2-2 1.6-4.5c.3-2.5 1-4.5 1.5-4.5q.8-.2.9-2c0-3.8-1.7-2-3.5 3.7a47 47 0 0 1-16 22.7 40 40 0 0 1-9 5.2c-1.7.4-3.6 1.2-4.4 1.8s-6.3 1.1-14.1 1.1-13.2-.4-14.1-1.1c-.8-.6-2.7-1.4-4.4-1.8-7-1.7-17.8-12.1-22.7-21.6-3.2-6.3-3.2-6.8-3.3-19.6 0-8.1.4-14 1.2-15.5l2.8-6c2.9-6.5 11-14.5 18.5-18.3a46 46 0 0 1 53.5 6.9c9.3 9 13.5 18.6 13.7 31.5.2 10.3 1.8 8.5 1.8-2 0-5.3-.4-9-1-9s-1-2-1-4.5c0-3.3-.4-4.5-1.5-4.5q-1.3-.1-1.5-1.5c0-.8-.9-2.3-2-3.2q-1.8-1.7-2-2.6a19 19 0 0 0-3.9-4.7 16 16 0 0 1-4.3-6.2c-.3-2-.9-2.3-5.5-2.6q-5.5-.2-5.3-1.8-.1-1.2-1.5-1.4t-1.5-1q-.1-1-1.5-1t-1.5 1-1.5 1q-1.3-.1-1.5-1.9t-2.2-2.5c-2.6-.6-14.4-.6-17 .1m460.5.5-4.8 10.3-4.5 10-10.5 23-8.9 19.7-7.6 16.8-7.6 16.8-2.4 5.7c0 .7 7.6.6 9.4-.1q1.5-.6 1.6-1.4c0-.4 1.7-4.6 3.9-9.2l5.9-13.1 2.1-4.7h60.6l1.2 2.7 5.8 13.2c2.5 5.7 5 11 5.6 11.8 1.3 1.5 9.9 1.8 9.9.3 0-.6-1.3-3.9-2.9-7.3l-9.1-20.2-10.5-23-4.5-10-5.7-12.5-5.3-11.5-5.1-11.5c-3.9-9.4-4.5-10-9.8-10-4.6 0-4.8.1-6.8 4.2m10.7-1.7q.1 1.3 1 1.5t1 2 .9 2c.5 0 1.2 1.3 1.6 3s1 3 1.5 3 1.1 1.6 1.4 3.5c.4 1.9 1.1 3.5 1.6 3.5s1.1 1.3 1.5 3 1 3 1.5 3 1 1.8 1.4 4 1 4 1.5 4 1.2 1.3 1.6 3 1 3 1.5 3 1.1 1.3 1.5 3 1 3 1.5 3 1 1.8 1.4 4 1 4 1.5 4 1.2 1.3 1.6 3 1.1 3 1.5 3c.5 0 1.2 1.6 1.6 3.5.3 1.9 1 3.5 1.4 3.5.5 0 1.1 1.3 1.5 3s1 3 1.5 3 1.1 1.3 1.5 3 1 3 1.5 3 1 1.8 1.4 4 1 4 1.5 4 1.2 1.2 1.6 2.7c.3 1.5 1 3 1.4 3.3.5.3 1.1 2.3 1.5 4.5s.3 3.5-.1 2.9-1.9-1.4-3.3-1.5c-2.1-.3-2.4-.9-2.2-3.2q.3-2.7-1.2-2.7c-.8 0-1.7-1.3-2.1-3s-1-3-1.5-3-.9-2.4-1.2-5.3c-.3-3.2-1.2-6.1-2.3-7.5-2.2-2.5-4.5-2.9-4.5-.7 0 1.7.7 1.6-13.5 1.5a35 35 0 0 1-11.3-1.1c-.5-1.2-18.2-1.2-18.2.1 0 .6-3.2 1-7.5 1s-7.5-.4-7.5-1q-.1-1-1.4-1c-1.6 0-3.1 3.4-2.2 4.9q.5 1-1 2.5a12 12 0 0 0-2.1 5.1c-.3 1.9-1 3.5-1.4 3.5q-.8.1-.9 1.6c0 .8-.7 2.2-1.5 3a6 6 0 0 0-1.5 3.5c0 2.3-2.3 2.5-4.3.4-1.5-1.4-1.2-5.5.3-5.5.5 0 1.1-1.4 1.5-3s1-3 1.5-3 1-1.8 1.4-4 1.1-4 1.6-4q1-.2 1-1.5t.9-1.5c.5 0 1.2-1.4 1.6-3s1.1-3 1.6-3 1.2-1.8 1.5-4 1-4 1.4-4c.5 0 1.1-1.4 1.5-3s1-3 1.5-3 1.1-1.4 1.5-3 1-3 1.5-3 1-1.8 1.4-4 1-4 1.5-4 1.2-1.4 1.6-3 1-3 1.5-3 1.1-1.4 1.5-3 1-3 1.5-3 1.1-1.6 1.4-3.5c.4-1.9 1.1-3.5 1.6-3.5s1.1-1.4 1.5-3 1.1-3 1.6-3q.8-.1.9-1.6c0-1.2.9-1.5 3.7-1.2q3.5.3 4.1-1 1.2-3.7 4.8 4.5l8.8 19.6 3.6 8.2c0 .3 1.1 2.9 8.1 18.2 1 2.4 1.9 4.5 1.9 4.8s-11.7.5-26 .5h-25.9l1.8-4.3 7.1-16.2 3.1-7 4.4-10c6.9-15.1 7.4-16.5 5.5-16.5q-.9.2-1.6 2.5-.6 2.3-1.4 2.5c-.4 0-1.1 1.6-1.4 3.5-.4 1.9-1.1 3.5-1.6 3.5s-1.3 1.8-1.6 4-1 4-1.4 4c-.5 0-1.1 1.3-1.5 3s-1 3-1.5 3-1.1 1.8-1.5 4-1.1 4-1.5 4c-.5 0-1.1 1.3-1.5 3s-1.1 3-1.6 3-.9 1.4-.9 3-.6 3.3-1.4 3.6-1.6 2.3-2 4.5c-.3 2.1-1.1 3.9-1.6 3.9q-1 .2-1 1.5c0 1.7 4.6 2.1 5.2.5.2-.6 10.7-1 27.2-1l26.9-.1-.7-4.5c-.3-2.5-1.3-5.2-2.1-6-.8-.9-1.5-2.2-1.5-3 0-1.7-2.4-4.4-3.8-4.4-.6 0-1.3-1.4-1.7-3s-1.1-3-1.6-3-1.2-1.8-1.5-4-1-4-1.4-4c-.5 0-1.1-1.4-1.5-3s-1-3-1.5-3-1.1-2.9-1.5-6.5-1-6.5-1.5-6.5-1.1-1.4-1.5-3-1.1-3-1.6-3q-.8-.2-.9-2.5t-.9-2.5q-.9-.2-1.5-2.5c-.5-2.1-1.2-2.5-4.7-2.5-3.4 0-3.8-.2-2.7-1.5 1.8-2 7.8-2 7.8 0m447-1.6c-8.7 1.9-20 8.8-27 16.5-5 5.5-6.6 8.2-9.7 16.1-2.5 6.3-2.8 8.2-2.8 19.5 0 13.1.2 14.1 5.8 25.8a53 53 0 0 0 35 26.6 55.7 55.7 0 0 0 66.7-35c2.7-8.2 3-25.5.5-33.1a51 51 0 0 0-21.3-28.6c-11-7.1-13.9-7.9-29.7-8.3-7.7-.1-15.6.1-17.5.5m27 1c0 .5 2.5 1.2 5.5 1.6 3 .3 5.5 1.1 5.5 1.6q.2.8 1.5.9t1.5.9c0 .5 1.2 1.2 2.6 1.5s3.6 1.8 4.8 3.1c1.3 1.4 2.7 2.5 3.2 2.5 1.1 0 5.4 4.5 5.4 5.5 0 .4 1.1 1.8 2.5 3.1 1.3 1.2 2.7 3.4 3.1 4.8s1 2.6 1.4 2.6 1 1.9 1.4 4.2 1.2 4.6 1.9 5c.8.5 1.1 4.8 1.1 13.8s-.3 13.3-1.1 13.8c-.7.4-1.5 2.7-1.9 5s-1 4.2-1.4 4.2-1.1 1.2-1.4 2.6c-.4 1.4-1.8 3.6-3.1 4.8-1.4 1.3-2.5 2.8-2.5 3.3s-1.2 2.3-2.6 3.8c-2 2.2-3.5 2.9-6.1 2.8-2-.1-3.6.4-3.9 1.2s-1.6 1.6-3 1.9c-1.3.4-2.4 1.1-2.4 1.6q-.2 1-1.5 1-1.3.2-1.5 1.5c0 1.6-1.3 1.9-7.7 1.5-3.4-.1-4.3.2-4.3 1.4 0 1.3-1.4 1.6-8.5 1.6-6.9 0-8.5-.3-8.5-1.5q-.2-1.3-2-1.5t-2-1c0-1.5-7.7-1.2-8.3.2q-.5 1.1-.6-.6 0-2-2.1-1.3t-2-1.4q-.1-1.7-1.5-1.9t-1.5-1c0-1.5-3-1.2-3.1.2q0 1.5-.6 0c-.2-.6-1.1-1.2-1.8-1.2-1.8 0-10.5-8.8-10.5-10.6q0-1.3-.9-1.4c-.5 0-1.2-1.4-1.6-3s-1-3-1.5-3-1-1.9-1.4-4.2-1.2-4.6-1.9-5a89 89 0 0 1 0-28.6c.5-.4 1.3-2.4 1.7-4.5.4-2 1.1-3.7 1.6-3.7s1.1-1.4 1.5-3 1.1-3 1.6-3q.8-.1.9-1.1a38 38 0 0 1 11-10.9q1-.1 1.6-1.4c.3-.8 1.9-1.8 3.5-2.1s2.9-1.1 2.9-1.6q.2-.8 2-.9t2-1c0-.5 2.3-1.2 5-1.6s5-1 5-1.5 5.2-.9 11.5-.9 11.5.4 11.5.9m-22 4.1c-1 1.4-2.6 2-5.6 2-3.4 0-4.3.4-4.7 2s-1.1 1.9-3.1 1.4q-2.6-.6-2.6.5c0 1.6-4.9 6.1-6.6 6.1-.7 0-1.6 1-1.9 2.2-.4 1.1-1.7 3.1-2.9 4.2a14 14 0 0 0-2.9 3.8c-.3 1-1.1 1.8-1.6 1.8s-1.3 1.7-1.7 3.7c-.4 2.1-1.2 4.1-1.7 4.5-1.6 1-1.4 29.1.1 29.6.7.2 1.5 2.1 1.8 4.2s1.3 4.1 2 4.4q1.3.6 1.4 1.7c0 .6 1.1 2.2 2.5 3.5s2.5 3 2.5 3.9q.1 1.4 1.3 1.5c.7 0 2.4 1.3 3.7 3s3.3 2.9 4.3 3q1.7.1 2.3 1.4c.3.7 2.3 1.6 4.4 2s4 1.2 4.2 1.8c.6 1.8 28.5 1.8 29.6.1.4-.6 2.4-1.4 4.5-1.8 2-.4 3.7-1.1 3.7-1.6q.2-.8 1.5-.9 1.5-.1 2.1-1.5t1.9-1.5c1.2 0 2.5-1.2 9-8.1.8-.9 1.5-2.1 1.5-2.7q0-1.1 1-1.2c.5 0 1.2-1.1 1.6-2.5q.6-2.3 1.5-2.5c.4 0 1.1-1.6 1.5-3.5s1-3.5 1.4-3.5c.9 0 2-14.7 1.3-18.3-.9-4.5-2.5-3.1-1.8 1.5a45 45 0 0 1-12.1 34.3c-10.2 10-17.7 13-32.9 13-9.8 0-11.8-.3-18.4-2.9a45 45 0 0 1-23.2-22.1c-3.2-6.8-3.3-7.4-3.4-19.5 0-12.1.1-12.7 3.2-19.2a45 45 0 0 1 44.8-25.5c4.4.2 9.4 1 11 1.7 16.1 6.5 24.6 15.1 29.1 29.5 1.8 5.5 3.4 7.2 3.4 3.5q0-1.8-.9-2c-.5 0-1.2-2-1.5-4.5s-1.1-4.5-1.6-4.5-1.1-1.1-1.4-2.5q-.7-2.3-1.6-2.5-1-.1-1-1.1a41 41 0 0 0-11.2-11.2q-1.7-.7-1.8-1.6c0-.5-1.5-1.3-3.2-1.6s-3.6-1.2-3.9-1.7-2.5-1.2-4.8-1.5c-3.1-.4-4.1-1-4.1-2.4 0-1.7-.9-1.9-9.3-1.9-8.1 0-9.4.2-10.7 2m449-5.4c0 .4 3.5 5.4 7.8 11.3l9.4 13.1 10.2 14a104 104 0 0 1 8.6 12.5c0 .5-3.7 5.9-8.1 12l-9.5 13-11.4 15.7-10 14c0 .7 9.6.6 10.6 0 .6-.4 5.8-7.2 11.6-15.2l16.4-22.7c3.2-4.5 6.4-8.2 7.1-8.3 1.1 0 2.2 1.4 10.8 13.5l14.2 19.6 10.2 13.8 5.1-.2c2.7-.1 5-.5 5-.9s-7.1-10.4-15.7-22.2L2089 1901l-3.7-5.3c-2.5-3.3-2.4-3.6 2.9-10.8a715 715 0 0 0 30.8-43.3c0-.3-2.1-.6-4.7-.6l-4.8.1-10 13.6a633 633 0 0 0-19.1 26.6c-1.4 2.1-2.9 3.5-3.6 3.1-1-.6-16.1-20.9-25.2-33.8-6.4-9.1-7.1-9.6-12.6-9.6-2.8 0-5 .3-5 .6m10.5 2.5c.4 1.1.4 2.3.1 2.6q-.5.5-.6-.5c0-.7-1.5-1.3-3.2-1.3q-2.9-.2-1.5-.6 1.5-.5 1.7-1.4c0-1.8 2.9-.9 3.5 1.2m70.5-.6q0 1.5-2.9 1.5c-3.2 0-4.1 1.4-4.1 6.6q0 3.5-1.5 3.4-1.4.2-1.5 1.5t-1.5 1.5-1.5 1.5-1 1.5c-.5 0-1 1.3-1 3 0 2.3-.5 3-1.8 3-2.2 0-5.6 2.7-6.5 5.2q-.6 1.7-1.7 1.8-.9.2-1 1.5t-1.5 1.5-2.1 2.5-1.5 2.5c-.5 0-.9 1.8-.9 4q0 4.1-1.5 4.6c-.8.4-1.5 1.7-1.5 2.9 0 1.8-.7 2.5-3.2 3-3.1.7-8.8 5.4-8.8 7.2 0 .5-1.3 2-3 3.3a8 8 0 0 0-3 5.2c0 1.6-.4 2.8-1 2.8s-1.9.9-3 2c-2.2 2.2-2.6 4-1 4q1 .2 1 1.5t-.9 1.5-1.6 2q-.7 2-3.1 2-2.3 0-2.4 1.5 0 1.3-1 1.5c-.5 0-1 1.4-1 3 0 1.8-.6 3.3-1.5 3.6q-1.3.8-1.5 2.1 0 1.3-1 .8c-.5-.3-2.1-.3-3.5.1q-2.6.5-2.5 3c0 1.3-.4 2.4-1 2.4-1.9 0-1-4.1 1.3-6.3 1.3-1.2 2.6-3 3-4q.6-1.5 1.7-1.7.9-.2 1-1.5c0-.8.9-2.3 2-3.2s2-2.5 2-3.5.9-1.9 1.9-2.3a5 5 0 0 0 2.7-2.7c.3-1.2 1.7-3.1 3-4.3s2.4-2.8 2.4-3.4q.1-1 1.5-1.7t1.5-2c0-.8.9-2.2 2-3.1 1.1-1 2-2.2 2-2.7s1.1-1.9 2.4-3.1a14 14 0 0 0 3.1-4.3c.3-1.2 1.1-2.2 1.6-2.2 1.5 0 1-2.7-.6-3.4a2 2 0 0 1-1.5-2.1c0-.9-1.1-2.6-2.5-3.9s-2.5-2.7-2.5-3.2-.9-1.7-2-2.7c-1.1-.9-2-2.4-2-3.2q-.1-1.4-1-1.5t-1.7-1.8c-.4-.9-1.7-2.7-3-3.9-2.7-2.6-2.9-3.3-.8-3.3q1.4-.2 1.5-1.5-.1-1.4-1.5-1.5-1.4.1-1.5 1.1-.1.8-1.6-.5c-.8-.9-1.9-1.6-2.4-1.6q-.8-.2-1.4-2.5c-.4-1.4-1.1-2.5-1.6-2.5q-1-.2-1-1.5.1-1.4 1-1.5t1-1.5q.2-1.4 1.5-1.5 1.4.1 1.5 1.1c0 .7 1.1 2.2 2.4 3.4a14 14 0 0 1 3.1 4.3q.6 2 1.6 2.2.8.1.9 1.5.1 1.5 1.5 2.1c.8.3 1.7 1.5 2.1 2.6.3 1.2 1.7 3.1 3 4.3s2.4 2.8 2.4 3.4q.1 1 1.5 1.7c.8.3 1.7 1.5 2.1 2.6.7 2.3 5.1 6.8 6.7 6.8 1.4 0 5.7-4.3 5.7-5.8q0-1 .9-1.2c.5 0 1.3-1 1.6-2.2a14 14 0 0 1 3.1-4.3c1.3-1.2 2.4-2.7 2.4-3.2s1.1-1.9 2.5-2.9 2.5-2.5 2.5-3.2q.1-1.2 1.5-1.8t1.5-2c0-.8.9-2.2 2-3.1 1.1-1 2-2.3 2-3q0-1.2.9-1.3c.5 0 1.3-1 1.7-2.2 1.6-5.1 9.4-10.3 9.4-6.3m-26 61c0 .6 1.1 1.9 2.5 2.9s2.5 2.5 2.5 3.2q0 1.3.9 1.4 1 .2 1.6 2.2a14 14 0 0 0 3.1 4.3c1.3 1.2 2.4 2.8 2.4 3.4q.1 1 1.5 1.7c.8.3 1.7 1.6 2.1 2.7s1.7 3.1 2.9 4.3c1.3 1.1 2.6 3.1 3 4.2q.6 2 1.6 2.2c.5 0 1.3.8 1.6 1.7a11 11 0 0 0 2 3.1c.7.7 1.3 2.1 1.2 3q0 2-.6.2c-1.3-3.3-6.3-5.7-6.3-3q0 .9-1 1-.9-.1-1-1.5c0-.8-.9-2.3-2-3.2s-2-2.3-2-3q0-1.2-.9-1.3c-.5 0-1.3-1-1.6-2.2-.4-1.1-1.7-3.1-3-4.2a14 14 0 0 1-2.9-4.3c-.4-1.2-1.6-2.5-2.7-2.8q-1.7-.7-2-1.8l-.4-5.1c-.1-2.2-.7-4.2-1.3-4.4q-1.1-.5-1.2-1.7-.1-1.4-1.4-2.2a6 6 0 0 1-2.1-3.1c-.7-2.3-.6-2.3 1.4-.5 1.2.9 2.1 2.2 2.1 2.8m112.7-62.8c-.4.3-.7 24-.7 52.6v51.9l28.8-.4c32.3-.5 33.8-.8 47-8.6a48 48 0 0 0 22.7-33.9c1.5-8.2 1.5-9.6 0-18a60 60 0 0 0-4.5-15.7c0-1.5-8.1-11.9-11.8-15.2a60 60 0 0 0-30.6-12.4c-6.8 0-3.6 1.7 4.4 2.4 4.4.4 8 1.2 8 1.7q.2.8 2 .9t2 .9c0 .5 1.4 1.2 3 1.6s3 1.1 3 1.6q.2.8 1.5.9 1.5.2 2.1 1.5t1.9 1.5c1.7 0 7.5 5.8 7.5 7.5q.2 1.2 1.5 1.9t1.5 2.1q0 1.3.9 1.5c.5 0 1.2 1.3 1.6 3s1.1 3 1.5 3c.5 0 1.2 2.7 1.6 6s1.1 6 1.5 6c.5 0 .9 3.6.9 8s-.4 8-.9 8-1.2 2.7-1.6 6-1.1 6-1.5 6c-.5 0-1.1 1.3-1.5 2.9s-1.3 3.2-2.1 3.5q-1.3.6-1.4 1.6c0 1.2-1 2.5-5.2 6.9q-2.8 3-4.8 2.4-2-.5-2 1c0 .9-1.3 1.8-3 2.2s-3 1.1-3 1.6-1.1.9-2.4.9c-1.4 0-3.1.7-4 1.5s-2.2 1.5-3 1.5q-1.5.2-1.6 1.5c0 1.3-3.5 1.5-25.2 1.5-13.9 0-27 .3-29 .6l-3.8.7V1844h5.5c3 0 5.5-.4 5.5-1s6.7-1.1 16.8-1.3c15.5-.2 15.1-.3-5.9-.5-12.4-.1-22.9.1-23.2.5m161.5.5q-1.1 1.2-1.2 2.1c0 .4-1.2 3.4-2.6 6.5l-5.1 11.2-5.8 12.5-11.8 25.5-5.6 12.2-6.2 13.5a411 411 0 0 0-8.2 18.5c-.6 1.6 0 1.8 4.3 1.8 3.9 0 5.2-.4 6-1.9 1.3-2.5 1.3-3.1 0-3.1q-.9.1-1 1.3 0 1.4-3 .9c-2.7-.4-4.5-3.2-2.1-3.2.5 0 1.2-1.4 1.6-3s1-3 1.5-3 1-1.8 1.4-4 1-4 1.5-4 1.2-1.4 1.6-3 1.1-3 1.6-3 1.2-1.8 1.5-4 1-4 1.4-4c.5 0 1.1-1.4 1.5-3s1-3 1.5-3 1.1-1.4 1.5-3 1-3 1.5-3 1.1-1.4 1.5-3 1-3 1.5-3 1.1-1.8 1.5-4 1.1-4 1.5-4c.5 0 1.1-1.4 1.5-3s1-3 1.5-3 1.1-1.4 1.5-3 1-3 1.5-3 1.1-1.6 1.4-3.5c.4-1.9 1.1-3.5 1.6-3.5s1.1-1.4 1.5-3 1.1-3 1.6-3q.8-.2.9-1.5t1-1.5c.5 0 1.3-1.8 1.6-4s1-4 1.4-4 1.1-1.2 1.4-2.6q1.4-5.5 6.5-5.4 3.1 0 3.1 1.5.1 1.3 1 1.5 1 0 1 1c0 .5-1.3 1-3 1s-3-.5-3-1q-.1-1-1.5-1-1.4.2-1.5 2 0 1.8-.9 2c-.5 0-1.3 1.4-1.6 3.2-.4 1.7-1.4 3.8-2.1 4.6-.9.8-1.3 3.2-1.2 5.9.1 2.4-.4 4.8-1 5.1-.6.4-1.4 2-1.7 3.5s-1.1 2.7-1.6 2.7q-.8.2-.9 1.5t-.9 1.5c-.5 0-1.1 1.8-1.5 4s-1 4-1.5 4-1.2 1.3-1.6 3-1.1 3-1.6 3q-.8.2-.9 1.5c0 .8-.9 2.3-2 3.2s-2 2.3-2 3q0 1.2-1 1.3c-1.4 0-1.2 2.7.3 3.3q1.3.5.1 1.4c-3.4 2.6-2.5 9.3 1.2 9.3q2.3-.1 2.4-1.4c0-1.1 4.7-1.3 25.3-1.3h25.2l-.2-2.8c-.1-1.6-.6-3.1-1.1-3.4s-1.2-2.3-1.6-4.4c-.4-2-1.1-3.7-1.6-3.7s-1.1-1.4-1.5-3-1.1-3-1.6-3q-.8-.2-.9-2.5c0-1.4-.6-2.8-1.4-3.1s-1.6-2.3-2-4.5c-.3-2.1-1-3.9-1.6-3.9-.5 0-1.2-1.6-1.6-3.5-.3-1.9-1-3.5-1.5-3.5q-.8-.2-.9-1.5.1-1.4 1-1.5t1-1.5-2.5-1.5c-2 0-2.5-.5-2.5-2.5 0-1.4.5-2.5 1-2.5q1-.1 1-1.6c0-2.6 2.6.7 3.5 4.4.3 1.8 1 3.2 1.5 3.2s1.1 1.3 1.5 3 1 3 1.5 3 1.1 1.3 1.5 3 1 3 1.5 3 1 1.8 1.4 4 1 4 1.5 4 1.2 1.3 1.6 3 1 3 1.5 3 1.2 2.5 1.5 5.5c.6 4.4 1.1 5.5 2.5 5.5q1.8 0 2.5 3c.4 1.6 1 3 1.5 3s1.1 1.3 1.5 3 1 3 1.5 3 1.1 1.6 1.4 3.5c.4 1.9 1.1 3.5 1.6 3.5s1.2 1.6 1.6 3.5c.3 1.9 1 3.5 1.5 3.5q.8.2.9 2-.1 1.8-1.5 2-1.4 0-1.5 1c0 2.3-1.9.8-2.5-2-.4-1.7-1-3-1.5-3s-1.1-1.6-1.4-3.5c-.4-1.9-1.1-3.5-1.6-3.5s-1.7-1.4-2.7-3c-1.4-2.5-2.4-3-5.5-3-2.1 0-3.8.4-3.8 1s-1.3 1-3 1-3-.5-3-1-8.3-1-23-1c-21.3 0-23.1.1-24.9 1.9-1 1-2.2 2.8-2.5 3.9-.4 1.1-1.3 2.3-2.1 2.6q-1.5.5-1.5 4.5c0 2.2-.5 4.1-1 4.3s-1.3 2.1-1.5 4.3c-.5 3.4.1 2.6 4-5.5l5.4-11c.7-1.3 5.4-1.5 30.9-1.8l30.1-.2 3 6.2 5 11.3c4.2 9.7 4.5 10 10 10.3 2.8.2 5.1.1 5.1-.2l-4.6-10.3-11.2-24.3-6.2-13.5-5.7-12.5-4.8-10.5-11.9-25.8-3.5-7.7h-4.8c-2.7 0-5.4.5-6.1 1.2m7.8 12.9c0 .4 1.8 4.7 4 9.4s4 8.8 4 9c0 .3 1.4 3.3 11.1 24.4 6.1 13.2 8 12.1-21 12.1-14.1 0-25.2-.4-25.5-.9s.8-4 2.5-7.8l9.7-21.3 10.4-23.3c1.7-3.8 2.3-4.5 3.4-3.6q1.3 1 1.4 2m45.4 82.3c.3 1.4.3 3.1 0 3.9-.8 2.1-3.4 3-3.4 1.3q-.1-1.4-1.2-1.9-1.2-.5.5-.6t1.7-2.6c0-3.2 1.6-3.2 2.4-.1M493 1845.5c0 1.9.5 3.5 1 3.5s1-1.2 1-2.6v-2.6l29.7.4c22.6.2 29.7.6 30.1 1.5.2.7 1.5 1.3 2.8 1.3s2.4.4 2.4.9 1.4 1.2 3 1.6 3 1 3 1.5q.1.9 2.1 1.5c2.6.9 12.9 11.3 12.9 13.1q0 1.3.9 1.4c.5 0 1.2 1.2 1.6 2.7.3 1.5 1.1 3.1 1.7 3.4.6.4 1.3 2.7 1.5 5.3.3 2.5 1 4.6 1.4 4.6.5 0 .9 4.9.9 11s-.4 11-.9 11-1.1 2.2-1.5 5-1.1 5-1.6 5-1.1 1.3-1.5 3-1 3-1.5 3q-.9.2-1.6 2.2c-.4 1.3-2.5 4-4.6 6.1-2.2 2.1-3.7 4.1-3.4 4.5.9.9 6.3-4.7 10.1-10.4a56.7 56.7 0 0 0 2-56 66 66 0 0 0-15.1-16.7c-15.6-8.4-17.5-8.7-49.3-8.7H493zm314 0q0 3.6 1.5 3.5 1.4 0 1.5-2.5c0-2.5.1-2.5 9-2.5 5.3 0 9-.4 9-1s-4.2-1-10.5-1H807zm50-2.5c0 .5 4.4 1.1 10 1.2 8.6.3 9.8.5 8.9 1.8q-1.1 1.7-1.6.2c-.6-1.4-6.3-1.7-6.3-.2 0 .6-7.5 1-20.5 1s-20.5-.4-20.5-1-2.4-1-5.4-1h-5.5l-.6 4.2c-.3 2.4-.5 12.6-.3 22.8l.3 18.5 26.8.3c23.5.2 26.7.4 26.7 1.8s-2.7 1.6-23.7 1.4c-13.1-.1-25.3-.2-27-.1l-3.3.1v21.4c0 11.8.3 22.1.6 23 .5 1.4 4.4 1.6 32.3 1.8 17.4.1 27.9.4 23.4.5-4.6.2-8.3.8-8.3 1.3s-6.3 1-15.5 1c-9.7 0-15.5-.4-15.5-1 0-1.5-19.7-1.3-20.4.2q-.6 1.5-1.2 0c-1-2.2-3.4-1.3-3.4 1.3v2.5h73v-8h-63v-41l27.3-.2 27.2-.3.3-3.8.3-3.7H817v-40h62v-7h-11c-6.4 0-11 .4-11 1m59 37.9c0 25.4.4 39.1 1 39.1s1-12.5 1-35.5.4-35.5 1-35.5c1.4 0 1.2-3.7-.2-4.3q-1-.5 1.4-.6 5.7-.2 5.8 2.7c0 .8 1.6 3 3.5 4.9s3.5 3.9 3.5 4.6c.1.7 1.4 2.3 3 3.7 1.7 1.3 3 2.8 3 3.3a19 19 0 0 0 3.9 4.7c2.1 2.1 4.2 4.7 4.5 5.8.4 1.1 1.3 2.3 2.1 2.6q1.3.6 1.5 1.7c0 .6 1.8 2.9 4 5 2.2 2.2 4 4.5 4 5.1.1.7 1.4 2.4 3 3.8s3 2.8 3 3.3 1.4 2.2 3 3.9 3 3.5 3 4.1c.1.7 1.4 2.3 3 3.7 1.7 1.3 3 2.8 3 3.3s1.4 2.2 3 3.9 3 3.4 3 3.9 1.8 2.6 4 4.8 4 4.4 4 5.1q.1 1 1.8.8c1.3-.3 1.7-1.3 1.7-4.2 0-2.3.5-4.1 1.3-4.3q1-.6 1.2-1.9-.1-1.3-1.2-1.4c-1 0-1.3-7.3-1.3-33.3.1-42.9-.2-39.7 3.4-39.7h3v48.3c0 31.6-.3 48.7-1 49.7q-1.1 1.7-1.6.2c-.6-1.4-3.3-1.6-3.3-.2q-.2.7-2-.7c-1.1-1-2-2.3-2-2.9q-.1-1.2-1.1-1.6c-.6-.2-1.2-1.7-1.3-3.4-.2-3.3-4.1-7.8-6.1-7.1-1.5.7-3.5-1.1-3.5-3.3-.1-.8-1.4-2.6-3-4s-3-2.8-3-3.3-1.3-2.2-3-3.9-3-3.4-3-3.9-1.3-2.2-3-3.7c-2.2-2-2.8-3.3-2.4-5 .5-1.8.2-2.2-1.8-2.2-2.2 0-5.8-3-5.8-4.8 0-.4-.8-1.5-1.7-2.4-3.1-2.9-4.4-4.8-3.3-4.8q.9-.1 1-1.5t-.9-1.5c-.5 0-1.2-1.1-1.5-2.5q-.7-2.3-1.6-2.5-1-.1-1-1.3c0-.7-1.3-2.4-2.9-3.8a15 15 0 0 1-3.5-4.6c-.4-1.2-1.3-2.4-2.1-2.7q-1.3-.6-1.5-1.6c0-1.7-5.6-7-7.4-7q-1.5.1-1.6 1.4t-1.2 1.9c-1 .3-1.3 9.4-1.4 40.8l-.2 42.2c-.2 1.4-.7 1.7-2.4 1.1-1.3-.3-2.4-1.1-2.6-1.5-.7-1.9-2.2-.8-2.2 1.6 0 2.3.4 2.5 4.5 2.5h4.5l.1-42.3v-43q0-.8.9-.2c.8.5 41.8 51.3 51 63.1 16.8 21.8 17.4 22.4 22.2 22.4h3.8v-104h-8.8l-.6 6.2c-.4 3.5-.6 22.4-.4 42s0 36-.3 36.3-15.8-18.5-34.4-41.7l-33.8-42.3-4.4-.3-4.3-.3zm408 13.1v52h74v-8l-31.7-.2-31.8-.3-.3-20.3-.2-20.2h55v-8l-27.2-.2-27.3-.3v-39l12.8-.3c16.8-.3 16.9-2.2.1-2.2-9.5 0-12.9.3-14 1.4-1.1 1.2-1.4 5.3-1.4 20.6s.3 19.4 1.4 20.6c1.2 1.1 6.3 1.4 27.5 1.4 22.5 0 26.1.2 26.1 1.5s-3.7 1.5-27.4 1.5c-21 0-27.5.3-27.9 1.2-.2.7-.2 10.5.1 21.8.4 14.6.9 20.8 1.8 21.7.9 1 8.5 1.4 31.1 1.5 26.4.2 27.4.3 8.6.5-13.1.2-21.3.7-21.3 1.3s-5.1 1-12.9 1h-12.8l-.5-45.9c-.2-25.3-.2-47.6 0-49.5l.4-3.6h8.4c4.9 0 8.4-.4 8.4-1s-3.8-1-9.5-1h-9.5zm60-51.1c0 .6 2.2 1.1 5 1.3 4.2.3 4.8.5 3.9 1.8q-1.1 1.7-1.6.2c-.6-1.4-4.3-1.6-4.3-.2 0 .5-2.5 1-5.5 1s-5.5.4-5.5 1 4 1 10 1h10v-7h-6c-3.3 0-6 .4-6 .9m48.7-.2c-.4.3-.7 23.7-.7 52v51.3h10v-14c0-8.7-.4-14-1-14s-1 4.8-1 12.5c0 12.5 0 12.5-2.4 12.5-2.1 0-2.4-.5-2.9-6.8-.6-5.5-.8-77.6-.3-89l.1-3.2h8.8c5.1 0 8.7-.4 8.7-1 0-1.1-18.2-1.4-19.3-.3m43.3.2c0 .4 3.5 1.1 7.8 1.5s7.9 1.1 8 1.6q.5 1 1.8 1t1.4 1 1.5 1q1.5.1 2.1 1.5t1.9 1.5c1.8 0 6.2 4.4 7 7.1.4 1.3 1.2 2.7 1.7 3s1.2 2.5 1.5 4.8 1 4.1 1.4 4.1c.5 0 .9 2.5.9 5.5s-.4 5.5-.9 5.5-1.2 2.5-1.6 5.5c-.3 3-1.1 5.5-1.6 5.5q-.8.1-.9 1.3c0 .7-.9 2-2 3q-1.8 1.4-2 .7-.1-1-1.5-1-1.3.1-1.5 1.5t-2 1.5c-2.3 0-5.5 2.9-6.5 5.9-.3 1.2-1.3 2.1-2.1 2.1-2.1 0-1.7 3.8.6 5.7 1.1 1 2 2.3 2 3q.1 1.2 1 1.3t1 1.4c0 .8.6 2.1 1.4 2.8.7.8 1.7 2.4 2 3.6q.8 2 1.7 2.2.8.1.9 1.5c0 .7.8 1.8 1.7 2.4q1.5.9 1 1.8-.9.5-1.8-1t-1.9-1.7c-2 0-5-3.5-5-5.7q0-2.4-2-2.3c-2.2 0-9-5.9-9-7.9q0-1-1-1.1t-1-1.4c0-1.2-3.3-1.4-20.2-1.1-23.7.3-21.8.1-21.8 2 0 1.6 1.6 2.1 2.2.6.2-.6 8.4-1.1 19.2-1.2l19-.1 8.3 11.3 9 12.4c.5.5 2.1 2.9 3.7 5.2 2.8 4.2 3 4.3 8.3 4.3h5.5l-4.5-6.3c-16.8-23.8-19.7-28.1-19.4-29.1.2-.6 2.5-2.2 5.1-3.5a36 36 0 0 0 14-13.2 39 39 0 0 0 3-23.6 31 31 0 0 0-6.1-15 41 41 0 0 0-18.5-11.7c-6-1.7-12.8-2.1-12.8-.7m32.3 96.1c1.6 1.9 2.3 4 1.2 4-.9 0-4.5-4-4.5-5 0-1.6 1.4-1.2 3.3 1m222.7-92c0 2.7.5 5 1 5s1-1.8 1-4c0-3.3.3-4 2-4s2 .7 2 4c0 2.2.5 4 1 4s1 3.8 1 9.5-.4 9.5-1 9.5-1 8.3-1 23 .4 23 1 23 1 4.5 1 11.5c0 6.3-.4 11.5-.9 11.5q-.8.2-1.4 2c-.6 2.3-3.7 2.7-3.7.5q0-1.3-1-1.5-.9.2-1 2.5c0 2.3.4 2.5 4.5 2.5h4.5v-104h-9zm53 47v52h10v-42c0-27.3-.3-42-1-42s-1 13.8-1 39.5v39.5h-6v-97h3c1.6 0 3.5.7 4.2 1.5l2.6 3c.6.7 1.2 1.7 1.2 2.2s1.3 2 3 3.3c1.6 1.4 2.9 3 3 3.7 0 .6 1.4 2.5 3 4.1 1.7 1.7 3 3.4 3 3.9s1.3 2 3 3.3c1.6 1.4 2.9 3 3 3.7 0 .6 1.4 2.5 3 4.1 1.7 1.7 3 3.4 3 3.8s1.6 2.2 3.5 4.1 3.5 3.9 3.5 4.5 1.6 2.5 3.5 4.4c1.9 1.8 3.5 3.7 3.5 4.1 0 .5 1.3 2 3 3.3 1.6 1.4 2.9 3 3 3.7 0 .6 1.4 2.5 3 4.1 1.7 1.7 3 3.4 3 3.9s1.3 2 2.9 3.4 3.1 3.4 3.5 4.6 1.3 2.4 2.1 2.7 1.5 1.4 1.5 2.5c0 2 3.2 3.7 5 2.6.5-.3 1-1.5 1-2.6 0-1 .5-1.9 1-1.9s1-2.7 1-6-.4-6-1-6-1-11-1-31 .4-31 1-31c1.5 0 1.2-4.7-.2-5.3q-.9-.5 2-.6l3.2-.1-.1 49.4-.1 49.4-2.6.5c-2.6.5-6.2-1.9-6.2-4.1 0-.4-1.3-1.9-3-3.2s-2.9-3-3-3.7c0-.6-.7-1.9-1.6-2.7q-1.3-1.5-.5-1.6 1-.2 1.1-2-.1-1.8-1.5-2-1.3 0-1.5 1 0 .9-1 1-.9-.1-1-1.4c0-.8-1.3-2.8-3-4.4s-3-3.4-3-3.9-1.3-2-2.9-3.4a16 16 0 0 1-3.5-4.6c-.4-1.2-1.6-2.5-2.6-2.8s-2.2-1.6-2.6-2.8a16 16 0 0 0-3.5-4.6c-1.6-1.4-2.9-2.9-2.9-3.4s-1.3-2.2-3-3.9-3-3.4-3-4a12 12 0 0 0-3-4c-1.6-1.6-3-3.5-3-4.3q-.1-1.2-1.5-1.9-1.7-.5-.9-3.1t-.9-2.5c-.8 0-1.8.6-2.1 1.2q-.5 1 0-1.4.8-2.9-1-3.4c-.9-.3-1.6-1.2-1.6-1.9 0-.8-.6-2-1.3-2.7s-1.6-2.1-2-3.2c-.6-1.4-1.3-1.7-3.5-1.1q-4.8 1-2.6 2.3c.5.4 16.2 19.7 34.8 42.9l33.7 42.3h7.9v-104h-9l-.2 41.7c-.2 26.7-.7 41.7-1.3 41.9-.5.2-2.4-1.6-4.2-3.9-1.7-2.3-4.3-5.6-5.7-7.2l-12-15-10.9-13.5-18.2-22.8-17-21.2h-8.5zm364 0v52h10v-104h-10zm7.4-46.3c.3 2.1.6 24.4.6 49.5 0 45.1 0 45.8-2 45.8q-1.8-.2-2-1.5 0-1.3-1-1.5c-1.5 0-1.4-86.7.1-87.2.6-.2 1.1-2.3 1.2-4.6.2-5.2 2.2-5.5 3.1-.5m293.6 46.4v52l31.8-.4c26.8-.3 32.4-.6 36.1-2.1 14.1-5.5 19.1-12 19.1-24.9 0-12.4-6-21.6-16-24.6-3.7-1.1-5.7-4.1-2.7-4.1 2.3 0 8.7-6.1 10.6-10.1 1.1-2.1 2.1-6 2.4-8.6q.3-4.2 0-2.8a9 9 0 0 1-2.3 3.5c-.9.8-2.1 2.6-2.5 3.9a14 14 0 0 1-3 4.6 10 10 0 0 0-3 4.8c-.4 1.5-1.3 2.7-2.1 2.7q-1.3 0-1.4 1c0 .5-1.7 1.2-3.7 1.6-2.1.4-4.1 1.2-4.5 1.8q-.7 1-23.8 1.4c-21.8.4-23 .3-23-1.5 0-1.7 1.3-1.8 23.2-1.8 17.6 0 23.2-.3 23.6-1.3q.4-1 1.8-1.2t1.4-1q.1-1 1.4-1c1.8 0 7.6-5.7 7.6-7.5q.1-1.2 1.1-1.7c2-.7 1.5-14.3-.5-16.3-.9-.9-1.6-2.1-1.6-2.6 0-1.4-5-5.9-6.6-5.9q-1.2-.1-1.6-1.1c-.2-.5-2.2-1.3-4.6-1.6s-4.2-1-4.2-1.4c0-.5-5.4-.9-12-.9-7.3 0-12-.4-12-1s-4.7-1-12-1h-12v3.5q0 3.6 1.5 3.5c1.3 0 1.5 2.6 1.5 17 0 10.7-.4 17-1 17s-1 2.2-1 5 .5 5 1 5 1 7 1 19c0 10.9-.4 19-.9 19s-1.3 1.4-1.6 3.2c-.4 1.7-1.4 3.8-2.2 4.6-1.2 1.2-1.4-5.2-1.2-48.2l.1-49.6h16.4c10.3 0 16.4-.4 16.4-1s-6.5-1-17.5-1H2449zm59-42.9c8.8 4 12.2 9 12.2 17.8 0 8.7-3.5 13.9-11.7 17.6-3.4 1.5-7.6 1.9-26.4 2.2-17.9.3-22.5.1-23.2-1-1-1.5-1.2-34.8-.3-37.3.6-1.5 2.9-1.6 23.3-1.3 18 .3 23.3.7 26.1 2m1.2 47.2c11.4 2.7 16.8 8.8 16.8 19.2 0 9.7-4.3 15.5-14.2 18.8-3.9 1.4-8.9 1.6-29 1.4l-24.3-.3-.3-19a299 299 0 0 1 .2-20.2c.8-1.9 42.9-1.8 50.8.1m13.8-.4q.1.9 1.4 1c1.5 0 6.6 4.5 6.6 5.9q.1.9 1.3 1.3c.8.3 1.2 3.2 1.2 9.8s-.4 9.5-1.2 9.7c-.7.3-1.3 1.8-1.3 3.4s-.4 2.9-1 2.9q-.9.2-1 1.5 0 1.5-3 1.5c-1.6 0-3 .4-3 1q-.1.9-1.5 1-1.4.2-1.5 1.5 0 1.5-3 1.5c-1.8 0-3.3.6-3.6 1.5-.5 1.1-2.2 1.5-6.5 1.5-3.3 0-5.9-.4-5.9-1s-6.3-1-17-1-17 .4-17 1q-.1.9-1.5 1t-1.5-.9-1.7-1.4c-1-.3 9.6-.5 23.5-.6s25.2-.5 25.2-1 1.5-1.1 3.4-1.4c3.6-.6 11.6-7.7 11.6-10.3q.1-1.3 1-1.4c.6 0 1-3.5 1-8.5s-.4-8.5-1-8.5q-.9-.2-1-1.5.1-1.4 1-1.5c1.6 0 1.2-1.8-1-4a7 7 0 0 0-4.5-2q-2.6 0-1.9-1.5c.7-1.7 3.4-2.1 3.4-.5m-24-55.1c0 .4 3 1.1 6.7 1.4 3.8.4 6.9 1.1 7.1 1.7q.4.9 1.8 1t1.4.9q.2.9 2.5 1.5c3.1.8 6.5 3.6 6.5 5.3q0 1.2 1 1.3.8.2.4 1.5t.5 1.5 1.1 2.5 1 2.5c2.8 0-1-9.9-5.2-13.6a38 38 0 0 0-20.8-8.4c-2.2 0-4 .4-4 .9m71 51.1v52h69v-2.5q0-2.4-1.5-2.5-1.4 0-1.5 1c0 .6-9.3 1-26 1h-26l-.6-2.4c-.3-1.4-1.2-2.7-2-3-1.2-.5-1.4-8.1-1.4-48.1V1842h-10zm7.8-3.3c-.2 36.2-.6 46.7-1.5 47.1a2 2 0 0 0-1.3 1.8q0 1.3-.9 1.4c-1.7 0-2.1-9.9-2.1-48.5 0-21.6.3-41.3.6-43.9.6-4 1-4.6 3.1-4.6h2.4zm89.2 3.3v52h74v-8h-30c-19.3 0-30 .4-30 1s10.4 1 29.1 1c25.8 0 28.9.2 27.5 1.5-1.6 1.7-6.6 2.1-6.6.5s-38.7-1.3-39.4.2q-.6 1.5-1.2 0c-.3-.7-2.5-1.2-5.5-1.2q-5 0-4.9-1.4-.1-1.3-1.5-2-1.5-.5-1.5-4.6t-1.1-3.4c-.6.3-.9 1.5-.6 2.5s.1 2.2-.4 2.5-.9 1.6-.9 3-.4 2.4-1 2.4q-.9.2-1 1.5t-1.5 1.5c-1.3 0-1.5-6.2-1.5-49.5V1844h13.5c8.3 0 13.5-.4 13.5-1s-5.5-1-14.5-1H2667zm70-49.5c0 2.5-.1 2.5-9 2.5-5.3 0-9 .4-9 1s4 1 10 1h10v-3.5c0-1.9-.4-3.5-1-3.5q-.9.2-1 2.5M505 1846q-.1.9-1.4 1-1.4.1-2 1.6c-.8 2-.8 87.8 0 89.8.5 1.4 3.4 1.6 22 1.6 11.8 0 21.4-.4 21.4-.9s2.3-1.1 5-1.5 5-1.1 5-1.6 1.4-1.1 3-1.5 3-1 3-1.5 1.1-1.1 2.4-1.4c1.4-.3 2.8-1.4 3.1-2.4s2.8-3.5 5.5-5.7 5.1-5.2 5.5-6.8 1-2.7 1.5-2.7 1.1-2 1.4-4.5c.4-2.5 1.1-4.5 1.7-4.5s.9-5 .9-11.5c0-6.3-.4-11.5-.9-11.5-1 0-2.6-5.7-2.2-7.8q.1-1-.7-1.2-1-.2-1.6-2.5c-.4-1.4-1.1-2.5-1.6-2.5s-1.2-1.6-1.6-3.5c-.3-2-1.2-3.5-2-3.5q-1.3-.1-1.4-1.6 0-1.7-2-1.1-2.1.7-2-1.4c0-1-.6-1.9-1.4-1.9q-1.3-.2-2-1.5a2 2 0 0 0-2.1-1.5q-1.4 0-1.5-.9a27 27 0 0 0-8.7-1.5c-4.9-.3-8.9-1.1-9.1-1.6a59 59 0 0 0-15.8-1c-9.6 0-15.4-.4-15.4-1s-1.3-1-3-1-3 .4-3 1m44.6 5.4c27.2 7.7 39.2 36.3 26.8 63.6-4 8.7-17 18.4-28.4 21.2a207 207 0 0 1-24.7 1.5l-20.3.4v-89.4l20.8.6c13.4.4 22.5 1.1 25.8 2.1m1656.4-4.3c0 1.1.7 2.7 1.5 3.5 1.3 1.3 1.5 7.6 1.5 44 0 35.5.2 42.8 1.4 44q1.4 1.3 2.5 1.4c1.6 0 1.3-1.7-.4-2.4-1.3-.5-1.5-6-1.3-44.3l.3-43.8 20.5.1c27.3.2 34.6 2.2 45.5 12.5a39 39 0 0 1 12.1 23.5c1.5 7.5 1.5 9.5.4 15.3-.7 3.6-2.3 9-3.7 11.9a45 45 0 0 1-29.1 23.4c-2.6.6-13.1 1.3-23.4 1.5a81 81 0 0 0-18.8 1.4c0 .5 7.8.9 19 .9 10.5 0 19-.4 19-.9s2.5-1.2 5.5-1.6c3-.3 5.5-1 5.5-1.5s1.4-1.1 3-1.5 3-1 3-1.5 1.2-1.1 2.7-1.5c2.7-.6 9.3-6.8 9.3-8.6 0-.6 1.1-2 2.4-3.2s2.7-3.3 3.1-4.7 1.2-2.8 1.7-3.1 1.3-2.7 1.5-5.3c.3-2.5 1-4.6 1.4-4.6.5 0 .9-3.8.9-8.5s-.4-8.5-.9-8.5-1.2-2.5-1.6-5.5c-.3-3-1.1-5.5-1.6-5.5q-.8-.1-.9-1.5-.1-1.5-1.5-2.1t-1.5-1.9c0-1.8-11.8-13.5-13.6-13.5q-1.3-.1-1.4-1.5 0-1.5-3-1.5c-1.6 0-3-.4-3-.9s-3.1-1.3-7-1.7c-3.8-.3-7-1.1-7-1.5 0-.5-4.7-.9-10.5-.9-6.3 0-10.5-.4-10.5-1s-4.5-1-11.5-1c-11 0-11.5.1-11.5 2.1m465-.9c0 3 1.3 5.8 2.6 5.8.8 0 1.4 1 1.5 2.2q0 2.6 1.2-1.2l1.2-3.5 18.8-.3c11.3-.1 18.7-.6 18.7-1.2s-5.5-1-14-1c-8.7 0-14-.4-14-1s-3.3-1-8-1c-5.7 0-8 .4-8 1.2m-1228.4 2.4q-.8 1.8 1 1c.8-.3 7.8-.6 15.5-.6 8.6 0 13.9-.4 13.9-1s-5.6-1-14.9-1c-12.8 0-15 .2-15.5 1.6m34.4 1c18.6 3.5 25.3 9.5 26.7 23.8q1.9 19.4-14.5 27.3c-5.7 2.8-5.8 2.8-26.2 2.8h-20.5l-.3-23.8a120 120 0 0 0-1.2-23.7c-.6 0-1 9.1-1 24.4 0 23.2.1 24.5 1.9 25.1 3.6 1.1 44.1.1 44.9-1.2.4-.6 2-1.5 3.5-1.8s2.7-1.1 2.7-1.5q.2-.9 2.1-1.5c1.2-.4 2.9-1.5 3.9-2.5s2.1-2.7 2.5-3.9q.6-2 1.5-2.1c.5 0 1.2-2.7 1.6-6s1.1-6 1.5-6q.8-.2.9-1.5t-.9-1.5c-.4 0-1.1-3-1.4-6.7q-.7-6.7-2.2-7.5-1.3-.9-1.5-1.8c0-1.5-3.3-5-4.7-5q-1.2 0-1.3-1c0-.5-1.2-1.3-2.7-1.6s-3.1-1.1-3.4-1.6-3.7-1-7.5-1.3c-3.8-.2-5.8-.2-4.4.1m254 38.4c0 20.7.4 32 1 32s1-11.3 1-32-.4-32-1-32-1 11.3-1 32m944.6-27.3c-.8 2.7-.5 11.3.5 11.9.5.3.9-2.7.9-6.5 0-7.1-.4-8.6-1.4-5.4M807 1881.5c0 9.6.3 11.5 1.5 11.5q1.5 0 1.5-3.5c0-1.9.5-3.5 1-3.5s1-1.4 1-3-.4-3-1-3-1-2.3-1-5c0-3.8-.4-5-1.5-5s-1.5 1.9-1.5 11.5m-314 30.1v34.6l28.3-.5c30.3-.4 32.3-.7 43-6.4l6.3-3.5c1.6-1.2.5-4.8-1.3-4.8q-1.5 0-1 2t-.8 2-1.7 1.2q-.6 1.1-4.1 1c-3-.2-3.7.1-3.8 1.5q0 1.7-.6.5c-.6-1.4-3.3-1.6-3.3-.2q-.2.9-1.5 1t-1.5 1.5c0 1.3-3.8 1.5-28 1.5h-28v-33c0-21.3-.4-33-1-33s-1 12.2-1 34.6m2182-25.2c0 1.3.6 2.7 1.3 2.9q1 .5-.6.6c-1.5.1-1.6.7-1.1 4.3q1 7 2.1 4c.4-.9 6.9-1.2 27.9-1.2h27.4v-8l-27.2-.2-27.3-.3-.3-2.3c-.4-3-2.2-2.8-2.2.2m55 6.1q0 1.5-2.9 1.5c-1.6 0-3.2.6-3.5 1.2q-.6 1.5-1.2 0c-.4-.9-5.7-1.2-21.5-1.2-19.2 0-20.9-.1-20.9-1.8s1.7-1.7 25-1.4c21.2.2 25 .5 25 1.7M807 1910c0 2.7.5 5 1 5s1-2.3 1-5-.4-5-1-5-1 2.2-1 5m1868.8 1.2c-.3.7-.2 3.5.2 6.3l.7 5 .2-6.3q.2-8.9-1.1-5M2584 1939c0 .6 9.8 1 27.5 1s27.5-.4 27.5-1-9.8-1-27.5-1-27.5.4-27.5 1"/><path fill="#515151" d="M2044 1048.6c0 .3 5.1 9.2 11.4 19.7l36.6 62.2 13.5 23a5675 5675 0 0 1 49.4 84c14.8 24.8 34.4 58 37.5 63.7 1.4 2.5 7.7 13.2 14.1 23.8l11.5 19.5c0 .2 3.8 6.6 8.4 14.3l18.6 31.5 10.2 17.7-5.3 9.2-12.6 21.6c-4 6.8-7.3 12.6-7.3 12.9s-2.2 4.2-4.9 8.7-5.8 9.7-6.8 11.6a1594 1594 0 0 1-23.3 40.5c0 .2-2.2 4.2-4.9 8.7l-6.8 11.8-27.3 47.5c0 .3-1.9 3.5-4.1 7.2l-8.4 14.3-15.9 28-28 48.2-8.7 15.3-7.1 12.3a58 58 0 0 0-3.8 6.7c0 .2-2.7 4.9-6 10.3s-6 10.2-6 10.6c0 .3-2.5 4.6-5.5 9.6s-5.5 9.2-5.5 9.5c0 .2-2.9 5.3-6.5 11.4-3.6 6-6.5 11.2-6.5 11.5s62.9.6 139.9.6h139.9l3.9-6.8c11.1-18.9 15.4-26.2 18.4-31.7 1.8-3.3 5.7-10 8.6-14.8a121 121 0 0 0 5.3-9.2l6-10.5 6-10.5c0-.4 12.9-22.3 15-25.5.6-.8 1.4-2.5 2-3.8a52 52 0 0 1 8.9-13.2c.5 0 1.4 1.3 2 3 .5 1.6 1.1 3 1.3 3s.4-2.7.5-6c.2-6.5-.2-5.7 12.3-27a542 542 0 0 0 12-20.5c1.1-1.7 2.3-3.8 2.6-4.8q.7-1.5 1.5-1.7t.9-1.1a81 81 0 0 1 11.1-17.9q.8-.2.9-2t1-2 1-1.5c0-1.3 10.3-1.5 86.6-1.5 92.8 0 88.2-.3 89.9 5a9 9 0 0 0 1.4 3c.7.5 6.3 9.5 7.4 12 .4.8 1.5 2.7 2.5 4.1l5 8.3c1.9 3.1 3.6 5.6 3.8 5.6.6 0-.3-1.7-8.9-16.4l-9-15.6-7.3-12.8-10.8-18.5c-3-5-6.6-11.5-8.1-14.2-2.7-4.9-6.9-12.1-19.9-34.3-3.6-6.2-6.6-11.4-6.6-11.7s-3.1-5.6-7-12c-3.8-6.4-7-11.8-7-12 0-.3-3.4-6.2-7.5-13.1s-7.5-12.7-7.5-12.9-2.3-4.3-5.2-9.1l-5.1-8.7 2.4-4.6c1.3-2.5 5.6-10.1 9.6-16.9l7.3-12.7c0-.2 3.2-5.6 7-12 3.9-6.4 7-11.8 7-12.2s3.4-6.1 7.5-13l7.5-12.8c0-.1 3.7-6.8 8.3-14.7l13.2-22.8 16.5-28.5 6-10.5 6-10.5c0-.2 3.2-5.7 7-12.1a95 95 0 0 0 6.7-12c-.4-.5-16.7 25.9-16.7 27 0 .3-.9 1.5-2 2.6-2 2-3.3 2-140.6 2h-138.5l.7-2.3a6 6 0 0 1 2-3c.8-.4 1.4-1.5 1.4-2.3 0-1.3 1.6-4.2 5.7-10.9l3.6-6.5c5.5-10.2 6.2-11.5 7-11.8q.6-.4.7-1.1c0-.5 3.4-6.9 7.6-14.2l10.6-18.9c1.7-3 4.1-7 5.5-8.7q2.2-3 .9-2.7c-1.6.6-6.3-7-25.9-41.6l-7.2-12.5-7.5-13-7.8-13.5-21.6-37.3-2.7-4.7h-137.4c-75.6 0-137.5.3-137.5.6m-1467.6 5.2c-.1 2.6.1 3.9.3 2.9q1-3.7 3.5 1l5.5 9.8 10.3 18a1200 1200 0 0 1 17 30l4 7 3.2 5.5c4 7.3 11.8 21 16.5 28.8 2.4 4 4.3 7.5 4.3 7.8 0 .4 2.2 4.3 4.9 8.8l7.3 12.6c5 9.3 10.2 18.6 12.3 22 1.2 1.9 3.8 6.5 5.8 10.2l7.4 13.5c7.2 13.4 8.3 15.6 8.3 16.8q.1 1.2 1.5 1.9t1.5 2.1c0 1.3-6.4 1.5-56 1.5h-56l-.1-25.3-.8-61.7c-.4-20.1-.8 108.7-.9 286.2L576 1776h238v-154.5c0-85 .3-154.5.8-154.5s1.6 1.7 2.7 3.7l7.7 13.6c3.2 5.4 5.8 10.1 5.8 10.3s1.1 2.2 2.5 4.4l6.8 11.7 31.7 55.8c0 .3 1.9 3.5 4.1 7.2l7.2 12.3a98 98 0 0 0 11.5 18.6c.2-.3-.2-1.6-1-2.8a359 359 0 0 1-9.7-17.3c-.9-1.7-1.9-3.2-2.2-3.5-.7-.6-2.9-6.9-2.9-8.1 0-.5 53.6-.9 119-.9 102.5 0 119 .2 119 1.4 0 .8.6 2.1 1.3 2.8a1100 1100 0 0 1 30.8 50.8 1563 1563 0 0 1 27.8 47.4c3.8 6.2 8.1 13.6 9.6 16.2l11.1 19.1 16.8 28.5 11 19.1 6.2 10.5c1.8 3.1 3.4 6.3 3.4 6.9q.1 1.2 1 1.3c.7 0 .9-101.6.8-303.3-.1-166.7-.5-288.1-.9-269.7l-.8 42.2-.1 8.8h-234v-21.7a145 145 0 0 0-.7-20.9c-.8.8-1 11.3-1.2 99.6-.1 60.5.2 58.1-5.6 47.5l-8.9-15.5c-7.3-12.2-20.4-34.7-23.6-40.5l-8.6-14.6c-3.5-5.9-6.4-10.9-6.4-11.2l-7-12.2a1458 1458 0 0 1-19.3-33A4117 4117 0 0 0 888 1177l-9-15.5-8.6-14.8c-3.5-5.9-6.4-10.9-6.4-11.2s-3.8-6.7-8.5-14.5l-8.5-14.5c0-.2-3.4-6.1-7.5-13l-7.5-13.1c0-.2-3.2-5.5-7-11.9-3.9-6.4-7.9-13.4-9-15.6l-2-3.9H576.5zm1238.9-3.1c22.4.2 59 .2 81.5 0 22.4-.1 4-.2-40.8-.2s-63.2.1-40.7.2M999.5 1170c0 21.7.1 30.6.2 19.7.2-10.8.2-28.6 0-39.5-.1-10.8-.2-1.9-.2 19.8m-508.5-5.8c0 13.9-.3 39.8-.7 57.5l-.6 32.3H250l-.1-9.8-.8-27.7c-.4-9.9-.8 111.9-.9 270.7L248 1776h244v-318.5c0-175.2-.2-318.5-.5-318.5s-.5 11.4-.5 25.2m872.8 112.5c1.8.2 4.5.2 6 0s0-.4-3.3-.4-4.5.2-2.7.4m115 0c3.4.2 9 .2 12.5 0 3.4-.2.6-.3-6.3-.3s-9.7.1-6.2.3m48.9 0c1.8.2 5 .2 7 0 2.1-.2.7-.4-3.2-.4-3.8 0-5.5.2-3.8.4m-200.4 6.8c0 3.8.2 5.3.4 3.2s.2-5.2 0-7-.4-.1-.4 3.8m.1 35c0 12.1.2 16.9.3 10.7.2-6.2.2-16.1 0-22-.1-5.9-.3-.8-.3 11.3M895 1606.4c0 .9 5.3 9.7 5.6 9.3.5-.4-4.5-9.7-5.2-9.7q-.4 0-.4.4m1056.2 160.3c-.2 5.9-.3 6.2-2.9 6.6l-2.8.4 2.8.2c3.4.1 3.9-1.1 3.4-8l-.3-5.4zm-1550.4 74c1.7.2 4.7.2 6.5 0s.3-.4-3.3-.4-5 .2-3.2.4m849 0c1.8.2 4.5.2 6 0s0-.4-3.3-.4-4.5.2-2.7.4m951.6 1.6c-.2.7-.3 5.8-.1 11.3l.3 9.9.2-10.7.2-10.7 4.3-.4 4.2-.4-4.3-.1q-4.1-.1-4.8 1.1m465.8 51.9c-.2 48.8-.1 51.8 1.6 51.8q1.8 0 .5-.8c-1-.6-1.3-12.5-1.6-51.8l-.2-50.9zm-2372 4.5-.2 48.2-3.7.4-3.8.4 3.8.1c2.2.1 4-.3 4.2-1.1.3-.6.4-22.6.3-48.7l-.3-47.5zm207.3-4.7c0 23.9.1 33.7.2 21.7.2-11.9.2-31.5 0-43.5-.1-11.9-.2-2.1-.2 21.8m830.9-25c0 6.9.1 9.7.3 6.2s.2-9 0-12.5c-.2-3.4-.3-.6-.3 6.3m-517.1-1c0 3.6.2 5 .4 3.2s.2-4.7 0-6.5-.4-.3-.4 3.3m177 19.5c0 4.4.2 6.1.4 3.7s.2-5.9 0-8-.4-.1-.4 4.3m1456.1 9c0 4.9.1 7.1.3 4.8s.2-6.4 0-9-.3-.8-.3 4.2m25.4-6.8c3.4.2 9 .2 12.5 0 3.4-.2.6-.3-6.3-.3s-9.7.1-6.2.3m-1849.5 5.8c0 3.3.2 4.5.4 2.7a30 30 0 0 0 0-6c-.2-1.5-.4 0-.4 3.3m201.5 1.2c2.8.2 7.6.2 10.5 0 2.8-.2.5-.3-5.3-.3s-8.1.1-5.2.3m1658.9 0c1.8.2 5 .2 7 0 2.1-.2.7-.4-3.2-.4-3.8 0-5.5.2-3.8.4m210.1 0c2.8.2 7.6.2 10.5 0 2.8-.2.5-.3-5.3-.3s-8.1.1-5.2.3m-1702.5 17.8c0 3.8.2 5.3.4 3.2s.2-5.2 0-7-.4-.1-.4 3.8m127-3.8c6.5.2 16.8.2 23 0 6.2-.1.9-.3-11.8-.3-12.6 0-17.7.2-11.2.3m1240.5 7c4.5.2 11.9.2 16.5 0 4.5-.1.8-.3-8.3-.3s-12.8.2-8.2.3m-240.4 27.1q.8 1.2-2.1 1.3c-1.5 0-3.7.4-4.8.9q-2.2.9 3.2.7c5.1-.2 6.9-1.6 4.1-3.3q-1-.6-.4.4m-943.4 1.8-4.5 1.2 4.8.1c3.5.1 4.7-.3 4.7-1.4q0-1.3-.2-1.4zm854.5-.8c-1.2 1.3-.2 1.7 4.6 1.9 2.9.1 5 0 4.8-.2-.8-.8-8.8-2.3-9.4-1.7m-955.5 1.3c0 .5 2.1.9 4.7.9 2.5 0 4.4-.2 4.2-.4-.9-.9-8.9-1.4-8.9-.5m-410.2.6c2.8.2 7.6.2 10.5 0 2.8-.2.5-.3-5.3-.3s-8.1.1-5.2.3m925 0c2.9.2 7.4.2 10 0s.2-.3-5.3-.3-7.6.1-4.7.3"/><path fill="#3d3d3d" d="M2044 1048.6c0 .3 5.1 9.2 11.4 19.7l36.6 62.2 13.5 23a5675 5675 0 0 1 49.4 84c14.8 24.8 34.4 58 37.5 63.7 1.4 2.5 7.7 13.2 14.1 23.8l11.5 19.5a2206 2206 0 0 1 26.9 45.8c9.1 15.6 10.1 17.9 9.1 19.9l-1.1 2.3 2-2.4c2.6-2.9 2.6-3.2.2-5.7-1-1.1-2.2-3.1-2.6-4.5a7 7 0 0 0-1.9-3.1c-.6-.4 1.2-.8 4-.8 3.6 0 5.5-.5 6.6-1.8a307 307 0 0 0 17.8-29.6l15.3-26.3 21.2-36.8 26.5-46 26.5-46 17.8-30.9c3.8-6.6 3.9-7.1 2.5-9.5l-23.1-40.1-7.2-12.5-7.5-13-7.8-13.5-21.6-37.3-2.7-4.7h-137.4c-75.6 0-137.5.3-137.5.6m-1468 1.2a5315.8 5315.8 0 0 1 47.3 82.2l9.7 17 10.2 18 22.3 39 24.2 42.3a388 388 0 0 0 9.3 16.1c0 .2 2.7 5 6 10.6l6 10.5 6 10.5a198 198 0 0 1 8.5 15l6.8 11.7 13.9 24.3 12.3 21.3a428 428 0 0 0 9.4 16l6.7 11.2 119.7.3c79.4.1 119.7-.1 119.7-.8 0-.9-3.6-7.6-11.9-22.3-1.6-2.9-2.1-5.7-2.3-12l-.2-8.2-.5 7-.6 7-2.8-4.2-2.7-4.7c0-.3-3.3-6-7.3-12.8-7.8-13-21-35.6-24.7-42.3l-8.6-14.6c-3.5-5.9-6.4-10.9-6.4-11.2l-7-12.2a1458 1458 0 0 1-19.3-33A4117 4117 0 0 0 888 1177l-9-15.5-8.6-14.8c-3.5-5.9-6.4-10.9-6.4-11.2s-3.8-6.7-8.5-14.5l-8.5-14.5c0-.2-3.4-6.1-7.5-13l-7.5-13.1c0-.2-3.2-5.5-7-11.9-3.9-6.4-7.9-13.4-9-15.6l-2-3.9H695c-65.5 0-119 .3-119 .8m-85 307.4c0 15.6-.3 38.1-.7 50l-.6 21.8H250l-.1-11.3c-.1-6.1-.5-16.2-.9-22.2-.3-6.1-.7 77.1-.8 184.7L248 1776h244v-223.5c0-122.9-.2-223.5-.5-223.5s-.5 12.7-.5 28.2m85.2 198.5L576 1776h238v-154.5c0-93 .4-154.5.9-154.5q1 .1 1.4 1.2.6 1.5.6 0c.1-.8-1.2-2.6-2.8-4.1a122 122 0 0 1-15.4-24.3c-.7-.7-2.4-3.3-3.8-5.8l-2.4-4.5-107.3-.3-107.2-.2-.1-9.8-.8-46.7c-.4-20.4-.8 62.1-.9 183.2m659.8-172.4a726 726 0 0 1-.7 33.5l-.6 12.2h-98.9c-101.5 0-101.2 0-97.9 3.5.5.6 2 3.1 3.4 5.6 3.2 6 25.1 44.1 35.9 62.9l18.3 31.5c5.4 9.3 10.9 18.7 12.2 20.7l2.3 4.2a2854.2 2854.2 0 0 1 21.5 37.1l18.3 31.5 15.7 27 15.7 27 16.8 29 14.5 25c8.1 13.7 21.5 36.8 23.2 40 1.1 2.1 1.3-32.4 1.3-204.8 0-113.9-.2-207.2-.5-207.2s-.5 9.6-.5 21.3m1297.9 26.8c-.7 1.3-1.8 3-2.6 3.8-1.6 1.6-1.4 4.2.5 4.9q1.1.3.6-1.2c-.3-.9.4-3.2 1.5-5.2s2-3.9 1.7-4.1c-.2-.3-1 .6-1.7 1.8m-285.5 9.6c-2 3.7-7 12.3-11.1 19.1s-7.3 12.6-7.3 12.9-2.2 4.2-4.9 8.7-5.8 9.7-6.8 11.6a1594 1594 0 0 1-23.3 40.5c0 .2-2.2 4.2-4.9 8.7l-6.8 11.8-27.3 47.5c0 .3-1.9 3.5-4.1 7.2l-8.4 14.3a8021 8021 0 0 1-59.7 103.8 58 58 0 0 0-3.8 6.7c0 .2-2.7 4.9-6 10.3s-6 10.2-6 10.6c0 .3-2.5 4.6-5.5 9.6s-5.5 9.2-5.5 9.5c0 .2-2.9 5.3-6.5 11.4-3.6 6-6.5 11.2-6.5 11.5s62.9.6 139.9.6h139.9l3.9-6.8c11.1-18.9 15.4-26.2 18.4-31.7 1.8-3.3 5.7-10 8.6-14.8a121 121 0 0 0 5.3-9.2l6-10.5 6-10.5c0-.3 10.6-18.4 15-25.5l3.7-7c1.5-3 4.3-6.9 6.1-8.7s3.2-3.8 3.2-4.6 2.3-5.3 5.1-10.2l7.1-12.3 26.6-46.2a1906 1906 0 0 0 20.6-35.8l11.1-19.2 15.2-26.3c3.4-5.9 6.3-10.9 6.3-11.2s2.6-4.8 5.8-10.2c12.8-21.5 25.2-44 25.2-45.7 0-.3-62.3-.6-138.5-.6-123.7 0-138.5-.2-138.5-1.5q.1-1.5 1.5-2.1c.8-.3 1.7-2.1 2.1-4 .3-1.9 1-3.4 1.4-3.4.8 0 2.2-4.2 1.6-4.8-.3-.2-2.1 2.7-4.2 6.5"/><path fill="#2a2a2a" d="M2044 1048.6c0 .3 5.1 9.2 11.4 19.7l36.6 62.2 13.5 23c16.8 28.4 33.9 57.3 37.1 63.1 7.4 13 12 20.4 12.7 20.4.8 0-2.2-6-3.5-7a9 9 0 0 1-1.3-3.3c-.4-1.6-1.4-3.1-2.1-3.4s-1.4-1.4-1.4-2.4c0-1.9 2.7-1.9 106.8-1.9 58.7 0 107.2-.4 107.7-.8s2.1-2.8 3.5-5.5c1.3-2.6 2.8-4.7 3.1-4.7q.7-.2 1.3-2.5c.4-1.4 1.1-2.5 1.6-2.5q1-.1 1-1.1c0-.6 2.7-5.6 6-11.1s6-10.1 6-10.4c0-.2 1.1-2.2 2.5-4.4q3.9-6.1 1.6-8.6c-.7-.7-13.9-23.4-22.4-38.4l-7.2-12.5-7.5-13-7.8-13.5-21.6-37.3-2.7-4.7h-137.4c-75.6 0-137.5.3-137.5.6m-1468 1a1798.3 1798.3 0 0 1 35 59.8 659 659 0 0 0 14 24.1c0 .3 2.7 5 6 10.6a176 176 0 0 1 6 10.5c0 .2 2.5 4.5 5.6 9.6a147 147 0 0 1 8.4 14.8l8 13.5 8 13.5a59 59 0 0 0 5.4 9.3c1.4 2.1 2.6 4.2 2.6 4.7s44.5 1.1 118.7 1.2c117.9.3 118.8.3 119.2 2.3.3 2 1.8 3.5 3.5 3.5q.6-.2-.8-2.5c-1-1.4-2.7-4.5-4-6.8-2.7-5-15.1-26.5-25.3-43.5l-7.3-12.7-7.5-12.9c-4.1-6.9-7.5-12.8-7.5-13 0-.3-3.8-6.8-8.5-14.6l-8.5-14.5c0-.2-3.4-6.1-7.5-13l-7.5-13.1c0-.2-3.2-5.5-7-11.9-3.9-6.4-7.9-13.4-9-15.6l-2-3.9H695c-65.5 0-119 .3-119 .6m-85 482.1c0 18.1-.3 41.9-.7 53l-.6 20.3H250l-.1-4.3c-.2-4.1-.2-4.1-.9 1.3-.5 3-.8 43.4-.9 89.7l-.1 84.3h244v-138.5c0-76.2-.2-138.5-.5-138.5s-.5 14.7-.5 32.7m321.6 40c-.3 4.2-.6 13.4-.6 20.5v12.8H578.2l-.7-11.8a131 131 0 0 0-1-12.7c-.2-.6-.4 43.2-.4 97.2l-.1 98.3h238v-106c0-58.3-.2-106-.4-106a65 65 0 0 0-1 7.7m423.4 2c0 3.2-.3 11.5-.7 18.5l-.6 12.8h-47.4c-26 0-47.3.3-47.3.6 0 .7 4.5 9.1 10 18.4 8.2 14 10.2 17.6 11.3 20.2.6 1.6 1.5 2.8 1.9 2.8q.7.1.8 1.1c0 .6 2.3 4.8 5 9.4s5 8.8 5 9.4q0 1 .9 1.1c.5 0 1.3 1 1.6 2.1s3.4 6.6 6.6 11.9a85 85 0 0 1 5.9 10.9q.1 1 1 1.1 1 0 1 .9c0 .5 3.4 6.7 7.5 13.6l7.5 13c0 .2 3.4 6.1 7.5 13l7.5 13c0 .6 14.1 24 15 24.9.7.7 1-35.7 1-101.7 0-56.5-.2-102.7-.5-102.7s-.5 2.6-.5 5.7m913.6 17.6-6.1 10.7-15.9 28-28.1 48.5-8.6 15-7.1 12.3a58 58 0 0 0-3.8 6.7c0 .2-2.7 4.9-6 10.3s-6 10.2-6 10.6c0 .3-2.5 4.6-5.5 9.6s-5.5 9.2-5.5 9.5c0 .2-2.9 5.3-6.5 11.4-3.6 6-6.5 11.2-6.5 11.5s62.9.6 139.9.6h139.9l3.9-6.8c11.1-18.9 15.4-26.2 18.4-31.7 1.8-3.3 5.7-10 8.6-14.8a121 121 0 0 0 5.3-9.2l6-10.5 6-10.5c0-.4 12.9-22.3 15-25.5a317.6 317.6 0 0 0 13-23.5c1.4-2.8 2.8-5.2 3.3-5.3q.7-.4.7-1.4c0-.6 1.5-3.6 3.4-6.7 3.1-5.1 5.8-9.9 11.2-20.1 1.1-1.9 2.2-3.7 2.7-3.8q.7-.4.7-1.3c0-.5-55-.9-138-.9-75.9 0-138-.4-138-.9 0-1.2 2.2-7.5 2.9-8.1 1.2-1 4-7 3.3-7-.4 0-1.5 1.5-2.6 3.3"/></svg>