<svg xmlns="http://www.w3.org/2000/svg" viewBox="0 0 3000 3000"><path fill="#252525" d="M461 774v177h1115.5l-3-2.5-8.5-6.7-35.5-27.9-86.4-67.7-13.6-10.7-20.7-16.2-120.2-94.2-32.8-25.8-41.8-32.8-34.9-27.3-13-10.2-23.3-18.3-17.6-13.7H461zm727.8-173.8a543 543 0 0 0 22.1 17.3l11.6 9 13.9 10.8 12.6 9.8 17.6 13.7 25.4 19.7 24.5 19 24.6 19 19.8 15.5 11.6 9 24.5 19a3165 3165 0 0 0 44.8 34.8l11.7 9.1 13.5 10.5 19.5 15.1 17.5 13.6 11.5 9a1423 1423 0 0 1 32 24.9l15 11.6 18 13.9 9.5 7.4a687.1 687.1 0 0 1 31 24.1l11.2 8.7 4 3.3h54.8v-41.6l-5.2-3.9-15-11.5-39.7-30.3c-5.1-4-10.3-7.9-11.5-8.7l-10.6-8-21-16.1-40.5-30.9-25-19-22-16.7c-2.8-2.3-9.6-7.5-35-26.8l-17.8-13.6c-9-6.9-24.9-19.1-43.2-32.9l-41.3-31.5c-7.3-5.4-39-29.5-47.7-36.3l-14-10.7-13.7-10.4c-2.6-2.1-3.6-2.1-52.8-2.1h-50.2zm160.3.3 54.8 42.3 30.6 23.7 24.5 19 23.2 18 39.4 30.5 61.5 47.5 28 21.7 51.9 40.2c17.4 13.5 21.9 16.6 23.3 16.6 1.6 0 1.7-9.8 1.7-131.5V597h-343.3zm381.7 190.2-.3 193.8-634.7.3-634.8.2v135h1270v339h-40v-106.8c0-58.8-.3-107.1-.6-107.5a121 121 0 0 0-16.8 11.7l-84.1 63.6-80 60.5-47 35.5-43.9 33.2-12.9 9.8h-27.3c-15 0-27.5-.3-27.7-.8-.3-.4 1-1.8 2.9-3.2l17.2-13.3 21-16.5 13.7-10.7 32-25.1 13.5-10.5 28-21.9 9.2-7.2 14-11.1 69.3-54.2 59.5-46.5 14.4-11.2 13.6-10.7 14-11 16.3-12.7 4.7-3.7V1155h-59.5l-7.2 5.8-14.5 11.4-13.8 10.8-13.9 10.8a1359 1359 0 0 0-27 21.2l-18 14-14.1 11a2735 2735 0 0 0-41.6 32.5l-32.8 25.5a761.6 761.6 0 0 1-30.6 24l-27.9 21.8-52.1 40.7-20.8 16.3-13.7 10.7-20.5 16c-7.8 6-17.1 13.2-20.5 16l-10.9 8.5-6.8 5.2c-1.9 1.6-5.2 1.8-37 1.8a304 304 0 0 1-34.8-.9c0-.6 1.7-2.3 3.7-3.8l23.9-18.3 42.4-32.5 43.3-33.3 27.7-21.2 60.5-46.5 21.5-16.5c12-9.1 30.4-23.4 39-30l17-13 24.8-19 24.2-18.6 29-22.2 26.7-20.5a47 47 0 0 0 8.2-7c.1-.4-248.9-.7-553.2-.7H461.3l-.6 228.2c-.4 125.5-.7 406.7-.7 625V2405h2080v-472.9c0-314.3-.3-473.2-1-473.6s-1-52.2-1-152.1V1155h-236c-129.8 0-236 .2-236 .4 0 .4 32 25.9 46 36.7l97.9 76.8 39.6 31.1 29.9 23.5 91.6 71.9c74.2 58.2 79 62 79 62.8 0 .5-11.6.8-25.8.8h-25.8l-4.4-3.3c-2.5-1.7-5.2-3.9-6.2-4.7l-12.8-10-24.8-19.2-18-14-11-8.5-36.2-28.3-36.3-28.3-13.6-10.5-6.1-4.7-11.1-8.7-19.9-15.5-18-14.1c-3-2.4-9.5-7.4-14.5-11.1-4.9-3.8-10.9-8.3-13.1-10.2l-11.4-8.9-13.5-10.5-20.5-16-25-19.5-18-14-13.5-10.5c-3.4-2.8-11.5-9.1-18-14l-14-11-6.8-5.2-4.4-3.3H1951v4.3c0 2.3.4 7.8.9 12.2s1.3 12 1.7 16.8l.6 8.9 7.3 5.6 9.9 7.7 13.1 10 22 17 17.5 13.5 17.5 13.5 22 17 17.5 13.5c4 3 8.9 6.8 10.9 8.5l6.5 5 18.2 14 17.5 13.5a2116 2116 0 0 1 41.4 31.9l11.7 9c5.5 4.4 14 11 38.3 29.5l13.5 10.5c3.2 2.6 17.8 14 21.5 16.6l12.4 9.5 14.3 11c2.5 1.9 4.4 3.8 4.1 4.2-.2.5-10.7.8-23.3.8h-22.8l-17.1-12.8-83.1-61.8-47.5-35.4-90-67-37.8-28.2a109 109 0 0 0-16.8-11.3c-.5.4-.9 43.3-.9 108.6V1459l-22.7-.2-22.8-.3-.3-169.3-.2-169.2h631V985l-315.2-.2-315.3-.3-.3-193.8-.2-193.7h-175zm-950.5 764.8a39 39 0 0 1 31.3 32.8l.7 5.7h-3.9l-13.5.6-9.5.7-1.2-3.9c-3.4-11.1-9.2-14.9-22.7-14.9q-16.8 0-20.1 8.2c-3.7 8.7 4.3 14.8 26.1 19.8 26.7 6.1 38.8 13.3 45.2 27 2.5 5.3 2.8 7.1 2.8 16 0 8.7-.4 10.7-2.7 15.7-5.5 11.9-12.9 18.1-26.6 22.5a57 57 0 0 1-22.2 2.5 58 58 0 0 1-35.4-8.6 47 47 0 0 1-18.2-30.9l-.6-5.4 7.8-.7 13-1.2 5.2-.6.7 3.3c2.1 9.5 9.1 17.9 16.7 20a55 55 0 0 0 22.1 0c9-2.6 14.8-11.4 12.6-19.4-1.4-5.3-6.9-8.5-20.5-12-32.3-8.3-41.5-13.2-48.6-25.5-2.9-5.1-3.3-6.7-3.6-15.4s-.2-10.2 2.1-15.1a39 39 0 0 1 26.5-21.1c7.6-1.9 27.9-1.9 36.5-.1m642.8-.1a61 61 0 0 1 37.7 27.7c11.2 19.8 11.5 54.2.6 74.9a65 65 0 0 1-21 22.1 77 77 0 0 1-12.9 5.5 54 54 0 0 1-21.5 2.6c-11.1 0-14.8-.4-20.5-2.2-30.5-9.5-46-36.5-42.5-74.1 2-21 9.9-36.1 25-47.7a56 56 0 0 1 19.4-8.7 122 122 0 0 1 35.7-.1M561 1621v65h-27v-130h27zm58.5-52.3 26 42.3 8 13c3.2 5.2 6.7 11 7.9 12.7l2.1 3.2.5-41.7.5-41.7 12.3-.3 12.2-.3V1686h-26.7l-3-4.8-11-17.7-22.4-36.3-14.4-23.2-.5 40.7-.5 40.8-12.7.3-12.8.3V1556h26.6zm312.5-1.2v11.5h-38v107h-27v-107l-19.2-.2-19.3-.3-.3-11.3-.3-11.2H932zm42 53.5v65h-27v-130h27zm119-53.5v11.5h-38v107h-27v-107l-19.2-.2-19.3-.3-.3-9.9c-.1-5.5 0-10.6.2-11.3.4-1.1 10.3-1.3 52.1-1.3h51.5zm44 35.5c.5 42.9.6 46.8 2.4 50.3q5.8 11.7 23.3 11.7c7.5 0 12.5-1.4 16.3-4.7 6.7-5.6 6.5-3.9 6.8-56.6l.3-47.8 13.7.3 13.7.3v45c-.1 49.4-.5 54.8-5.6 65.2-7.9 16.3-27.4 23.9-55.2 21.4-15.9-1.5-24-5.1-32.6-14.8-6.4-7.1-8.7-14-10.1-29.7-1.1-12.6-1.4-85.9-.3-87 .4-.3 6.6-.5 13.7-.4l13.1.3zm198-35.5v11.5h-38v107h-27v-107l-19.2-.2-19.3-.3-.3-9.9c-.1-5.5 0-10.6.2-11.3.4-1.1 10.3-1.3 52.1-1.3h51.5zm-51.9 189.6a43 43 0 0 1 27.6 18.6 46 46 0 0 1 5.3 17.4c0 2.5-.3 2.6-6.7 3.2-3.8.4-9.8.7-13.5.7h-6.7l-1.2-4.2a17 17 0 0 0-9-11.8c-11.8-6.1-32.2-1.6-34.5 7.6-.3 1.2.2 3.9 1.2 5.9 2.2 4.8 8 7.4 25.9 12 22.9 5.9 31.3 9.6 38.2 16.7a33 33 0 0 1 9.6 19.9 38 38 0 0 1-23.5 42.7 86 86 0 0 1-46.6 3.1 45 45 0 0 1-30-23.1c-3.7-7.6-6.6-19.7-4.9-20.3 1.2-.4 22.1-2.5 24.4-2.5.7 0 2 2.8 2.9 6.2 2.3 7.9 8.7 15 15.4 16.9a52 52 0 0 0 22.5 0c6.9-2.3 13.5-9.9 13.5-15.6q0-10.1-16.8-14.5c-32.5-8.7-38.8-11.1-46.4-17.9a35 35 0 0 1-8-10.9 27 27 0 0 1-3.2-14.7c0-7 .4-8.8 3.2-14.7q7.4-15.5 26.7-20.3a125 125 0 0 1 34.6-.4m601.4 2.7a58 58 0 0 1 35.7 39.2c2 6.6 2.3 9.4 2.3 24.5-.1 15.9-.3 17.6-2.9 25.3a57 57 0 0 1-50.5 41.3 65 65 0 0 1-57.5-19.3c-13.4-15.2-18.7-40.9-13.5-66.1 4.2-20.9 16.5-37.1 33.2-43.9 10.2-4.1 14.5-4.8 30.2-4.4 14.1.3 15.5.5 23 3.4m-1322.3 44.4c.3 45.4.3 46.4 2.5 50.4a24 24 0 0 0 13 11.3c5 1.4 16.9 1.3 21.1-.2a23 23 0 0 0 6.3-4.2c6.4-6 6.4-5.3 6.7-56.8l.3-46.7H639v40.7c0 48.4-.8 60.2-4.9 69-8.2 17.4-28.3 25.4-56.4 22.5-18.9-2-30.2-8.8-37-22.2-5.1-10.3-5.7-16.9-5.7-67.8V1758h26.9zm130.6-45c.5.7 3.9 6 7.4 11.8 28.6 46.6 42.3 68.7 43.4 70s1.4-5.2 1.4-40.8V1758h25l-.2 65.2-.3 65.3-12.4.3q-12.3.3-13.7-.9c-.8-.6-6.3-9.1-12.3-18.8l-22.6-36.6c-6.5-10.5-12.8-20.7-13.9-22.7-1.2-2.1-2.4-3.8-2.8-3.8s-.9 18.6-1 41.2l-.3 41.3h-24l-.3-65.3-.2-65.2h12.9c9.1 0 13.2.4 13.9 1.2m130 64-.3 65.3h-26l-.3-65.3-.2-65.2h27zm40.7-64.1c.4.5 2.9 7.4 5.5 15.2l13.5 39.2 10.7 31.2c1.1 3.5 2.3 6.3 2.7 6.3.3 0 7.6-20.9 16-46.5l15.4-46.5H941c7.5 0 13.9.3 14.2.6s-.8 4.2-2.4 8.7L948 1781l-5.5 15.5-5.9 16.5a5505 5505 0 0 1-26.1 72.6l-1.4 3.4h-13.3c-7.3 0-13.8-.4-14.4-.8s-4.4-9.9-8.4-21.2l-10.2-28.5-5.2-14.5-22.6-64.6c0-1.1 2.8-1.4 13.9-1.4 8.8 0 14.2.4 14.6 1.1m201.5 10.4v11.5h-69v28h65.1l-.3 10.7-.3 10.8-32.2.3-32.3.2v34l35.8.2 35.7.3v23h-99l-.3-64c-.1-35.2 0-64.6.3-65.3.3-.9 11-1.2 48.5-1.2h48zm102.7-9.9c9.2 1.9 14 4.2 18.9 9.1a41 41 0 0 1 9.9 29.7c-2.7 17.1-10.2 26-25.7 30.7l-6.8 2.1 5.8 4.3a68 68 0 0 1 10.8 11.2c7.2 9.6 26.4 40.5 25.8 41.5s-29.5 1-30.9 0a171 171 0 0 1-10-14.2c-14.8-22.4-22.5-32.9-26-35.5a35 35 0 0 0-18.7-4.5h-3.8v26.4c0 21.3-.3 26.6-1.4 27.5q-1.4 1.2-13.7.9l-12.4-.3-.3-64c-.1-35.2 0-64.6.3-65.3.7-2 68.2-1.7 78.2.4m200.1 62.8c.1 46.3-.1 64.3-.9 65.2-.9 1.1-4.3 1.4-13.5 1.4H1341v-131.1l13.3.3 13.2.3zm118-53.2-.3 11.3-18.7.3-18.8.2-.2 53.8-.3 53.7h-26l-.3-53.8-.2-53.7h-18.9c-16.3 0-19-.2-19.5-1.6-.8-2.1-.8-19.9.1-20.7.3-.4 23.7-.7 52-.7h51.4zm72.2-3.7 25.8 64.4c12.7 31.6 22.9 57.8 22.6 58.3-.9 1.4-27 1-28.1-.5a39 39 0 0 1-3-6.7l-5.4-13.8-3.2-8.2h-51.4l-2.8 7.7c-5 14.1-7.8 20.8-8.9 21.5-1.6 1.1-26.4 1-27-.1-.3-.4 2.2-7.8 5.5-16.2l23.9-61.4c12.2-31.6 18.4-47.4 19.7-49.8l1.4-2.8 14.1.3 14.1.3zm146.2-4.7a34 34 0 0 1 19.3 16.8c2.8 5.5 3 6.6 3 17.4 0 10.5-.2 11.9-2.7 16.5a43 43 0 0 1-14.4 14.8c-1.6.8-5.5 2.3-8.7 3.2l-5.8 1.7 3.8 2.7c5 3.7 8.7 7.5 13.4 13.6 5.9 7.9 25.8 39.9 25.3 40.7-.3.4-7.4.8-15.8.8h-15.3l-9.8-14.8c-24.2-36.4-26.3-38.5-39.5-39.7-4.3-.4-8.4-.4-8.9 0q-1 .6-1.1 27.6v26.9h-11.9c-6.6 0-12.6-.3-13.5-.6-1.4-.6-1.6-7.2-1.6-64.8 0-35.4.3-64.6.7-65s17.9-.6 38.8-.4c36.1.4 38.3.5 44.7 2.6m72.8 62.7v65.5h-11.9c-6.6 0-12.6-.3-13.5-.6-1.4-.6-1.6-7.2-1.6-64.8 0-35.4.3-64.6.7-64.9s6.4-.7 13.5-.7h12.8zm-68.2 325.7.2 166.8h10.3c12.5 0 15.1 1.1 15.5 6.2.6 7.1 3.3 6.8-66.4 6.6l-61.9-.3-.3-10.2-.3-10.2-6.7 4.6a96 96 0 0 1-30.2 13.6c-7.4 1.9-11.3 2.2-30.5 2.2-24 0-31.3-1-44.3-6.1a95.7 95.7 0 0 1-59.2-71.5c-1.6-10.2-1.3-80.1.4-89.1a112 112 0 0 1 11.7-30.3 96 96 0 0 1 66.2-44.4c11.7-1.6 40.8-1.4 51.2.4a85 85 0 0 1 32.5 13c4.5 3 8.3 5.5 8.6 5.5s.4-25.2.4-56v-56h-15.9c-13.2 0-16.2-.3-17.5-1.6-2.2-2.1-2-6 .4-8.4 2-2 3.1-2 68.8-1.8l66.7.3zM695.2 1985.7c2.2 2 2.3 5.6.2 7.7-1.3 1.4-5.4 1.6-29 1.6H639l.2 159.2.3 159.3 20.9.3c16.7.2 22-.1 26.4-1.3 22.9-6.7 47.9-26.1 68.3-53.2a322 322 0 0 0 24.4-38.6c4.4-8.4 7.5-10.5 13.6-9.2l3.2.7-.7 10.2-2.2 25.1-3.4 38.5-3 32-1 9.7c0 1-28.6 1.3-139.9 1.3-131.7 0-140-.1-142-1.8a9 9 0 0 1-2.7-4.9c-.5-2.6-.1-3.7 1.9-5.7 2.5-2.5 3-2.6 15.7-2.6h13v-158.5c0-87.2.1-158.8.3-159.3s-6.2-.9-14.1-1.2c-15.1-.5-16.2-.9-16.2-5.7 0-5.6-5.1-5.3 97.2-5.3 86.2 0 94.3.1 96 1.7m1469.3 97.4a124.8 124.8 0 0 1 105.9 112.6l.5 5.3h-76.8c-69.2 0-76.9.2-77.5 1.6-.3.9-.6 11.2-.6 22.9 0 32.2 4 53 12.3 63.9 11.3 14.7 29.7 22.7 52.7 22.9 17.8.1 30.7-3.6 43.4-12.7a86 86 0 0 0 28.6-38.1c.7-2.2 1.7-4.6 2.3-5.3 1.1-1.4 8.3-1.6 9.2-.2.3.5-.6 4.8-2 9.6-13.6 44.5-47.6 62.3-118.7 62.4-31.1 0-53.6-6.2-75.7-20.9a125 125 0 0 1-52.2-75.1c-2-8.1-2.3-12.1-2.3-27 0-15.8.2-18.6 2.7-28.4a123 123 0 0 1 34.3-59.6c11.4-11 20.7-17.4 33.7-23.4 11.1-5.2 21.4-8.4 32.2-10.1 10-1.6 37.8-1.9 48-.4M994 2086.4a125 125 0 0 1 97.7 96.1 96 96 0 0 1 2.5 26.5c0 13.4-.4 17-2.7 27a125 125 0 0 1-96.5 95.2 293 293 0 0 1-69.7 1.3A125.5 125.5 0 0 1 818.4 2216a132 132 0 0 1 12.2-61.3 127 127 0 0 1 88.9-68.6c7.5-1.6 13.4-2 36-2 24.8-.1 27.9.1 38.5 2.3m241.8 19.1.2 21 3-5.2c8.3-14.4 29-28.1 53.4-35.2 7.5-2.2 8.8-2.3 36-1.8 24.6.4 28.9.7 34.3 2.5a52 52 0 0 1 34.3 33.7c1.9 5.7 2 8.3 2 100.7v94.8h12.3c14.3 0 16.7.9 16.7 6.5 0 6.8 3.6 6.5-75.5 6.5s-75.5.3-75.5-6.5c0-5 2.8-6.5 12.2-6.5h7.8v-90.8c0-83.5-.1-91.1-1.7-95.5-3.8-10.6-13.1-17.3-22.8-16.5-13.4 1.1-24.6 15.6-31.5 40.8-4.8 17.6-5 21.3-5 93.7v68.1l10.1.4c8.6.2 10.3.6 11.5 2.2 2 2.8 1.7 6.2-.8 8.6-2.1 2-3.1 2-73.5 2h-71.4l-2.4-2.5c-1.4-1.3-2.5-3.1-2.5-4s1.1-2.7 2.5-4c2.3-2.4 3.1-2.5 13.5-2.5h11v-216h-10c-10.5 0-15.1-1.3-16.4-4.5a9 9 0 0 1 1.9-9.1l2.4-2.4 61.8.2 61.8.3zm723.1-18.5a86 86 0 0 1 33.6 17.6 49 49 0 0 1 14.5 38.2c0 12.8-2.1 21.5-7.3 29.3a48 48 0 0 1-67.1 13 47 47 0 0 1-18.5-48.3c1.8-8.6 2.2-8.9 6.6-6.7s7.2 2.4 11.7.5c6.6-2.8 10-9.8 7.2-15.1-5-9.3-18.2-8.7-33 1.4-6.8 4.7-18.4 25.2-25.3 44.7l-2.8 7.9-.3 73.2-.3 73.3h14.8q14.8 0 17.3 1.3c3.4 1.7 3.9 6.8 1.1 9.6-2.1 2.1-2.7 2.1-82.5 2.1h-80.5l-2-2.6c-2.7-3.4-2.6-5 .4-7.9 2.3-2.4 2.9-2.5 16.5-2.5h14v-218h-14.5c-13.2 0-14.7-.2-16.5-2-2.5-2.5-2.5-5.5 0-8 2-2 3.1-2 66.8-1.8l64.7.3.5 19.9.5 19.9 4.3-5.6c13.4-17.3 32.6-30.5 49.7-34.1 9.8-2 16.6-1.9 26.4.4m453.6 4.1c5.5 1.1 16.8 4.3 25.1 7a126 126 0 0 0 18 4.9q5.3 0 12-7.8c3.7-4.3 8-7.2 10.9-7.2 1.3 0 1.5 3.2 1.5 25.8 0 14.3-.3 31.4-.7 38-.6 11.8-.7 12.2-2.9 12.2-2.5 0-5.4-2.4-5.4-4.5 0-.7-1.6-4.4-3.6-8.2-17.7-33.6-43.9-51.3-75.7-51.3-28.6 0-54.7 13.4-54.7 28.1 0 5.4 2.3 9.4 8.2 14.2 4.2 3.5 18 10.7 20.5 10.7 2.1 0 73.4 22.7 81.8 26.1a92 92 0 0 1 29.3 17.4c6.6 5.6 15.3 22.6 18.7 36.6a101 101 0 0 1-1.9 43.4 80 80 0 0 1-41.6 47.3 112 112 0 0 1-64.7 12.2 222 222 0 0 1-15-1.5 167 167 0 0 1-30.3-9.3c-13.4-5.6-20.2-7.6-23.1-6.9-1.3.4-6.6 3.8-11.8 7.7-10.2 7.6-12.7 8.8-14.5 7-.8-.8-1.1-13-1.1-44.1 0-46.7-.1-45.6 5.5-44.2l2.8.8c.2.2 1.9 4.5 3.9 9.7a106 106 0 0 0 27.5 44.3 84 84 0 0 0 49.5 23.1 90 90 0 0 0 47-4.6 37 37 0 0 0 19.7-16.4 20 20 0 0 0-.4-16.2 45 45 0 0 0-26.9-20.4c-2.8-.5-8.2-1.8-11.9-2.9l-18.7-5.1c-28-7.4-50.1-15.6-65-24.3a88 88 0 0 1-23.5-22.1c-14.1-20.6-14.6-54.8-1-78 5.7-9.8 11-15.7 20.2-22.6 14.2-10.7 34-18.5 53.8-21 9.3-1.2 26.8-.3 38.5 2.1m-1017-512.7c-16.7 5.3-24.5 18.5-24.6 41.6-.1 17.5 3.7 28.8 12.3 36.5 6.9 6.3 11.8 8 23.3 8 9.2 0 10.4-.2 15.3-3 15-8.2 21.7-25.7 19.1-49.7q-2.5-25.5-22.2-32.6a41 41 0 0 0-23.2-.8m453.8 202.1q-21 6-24.5 33c-4.2 32.9 11.1 54.8 37.1 53.3 21.5-1.2 33-16.6 33.1-44.1 0-26.9-11.6-42.2-32.9-43.3-4.8-.3-9.5.1-12.8 1.1m-732.3 16.4v16.1h11.3c17.5-.1 31-1.5 34.1-3.5 3.9-2.6 5.6-6.6 5.6-13.5 0-5.7-.2-6.3-3.9-10.3l-4-4.2-21.5-.3-21.6-.3zm421.1-.4c-1.1 3.3-3.2 8.9-4.6 12.5a560 560 0 0 0-9.5 26.5c0 .3 7.5.5 16.6.5h16.6l-.7-2.8c-.4-1.5-2-6.1-3.5-10.2l-6.5-17c-1.9-5.2-4.1-10.8-4.9-12.5l-1.3-2.9zm109.1.2.3 15.8 19.4-.2c10.7-.2 20.9-.7 22.6-1.3s4.5-2.4 6.1-4.1c2.7-2.8 2.9-3.6 2.9-10.4 0-6.4-.3-7.7-2.5-10-4.6-5-7.3-5.5-29-5.5h-20.1zm-85.7 310.4a25 25 0 0 0-12.2 10.7l-2.8 4.7v170l2.5 4.5c6.8 12 22.2 16 38.6 9.9q5.2-2 9.7-6.8c8.8-9.4 8.2-2.3 8.2-92.1v-79.5l-2.8-5.7q-4.4-9.1-14-14c-3.3-1.7-6.3-2.2-14.2-2.4a53 53 0 0 0-13 .7m571.9-7.2a29 29 0 0 0-13.6 12.9c-2.3 4.6-2.3 5.4-2.6 40.9l-.3 36.3h53.1v-35.8c0-35.5 0-35.7-2.4-40.7a26 26 0 0 0-24.1-15.5c-3.7 0-7.6.8-10.1 1.9M946 2102.3a34 34 0 0 0-21.9 20.1c-2.1 5.6-2.1 6.4-2.1 89.6 0 83.4 0 84 2.1 89.7a36 36 0 0 0 16.8 18 33 33 0 0 0 26.1.5 33 33 0 0 0 18.3-20.6c1.5-4.5 1.7-13.2 1.7-87.6s-.2-83.1-1.7-87.6q-4.7-14.1-17.8-20.4a38 38 0 0 0-21.5-1.7M1953 731c0 73.7.2 134 .5 134 .4 0 3.3-2.2 18.5-14l22.5-17.5 26.4-20.6 16.1-12.5 39-30.4 37.1-28.9 26-20.3 102.2-79.6 25-19.6 28.2-22 3-2.5-172.2-.1H1953zm400.8-128.7a1180 1180 0 0 1-28.1 21.5l-10.2 7.8-21 15.9-25.3 19.3-14.5 11-20.7 15.7-11.5 8.8-16 12.2-41.6 31.5-11.1 8.5-14 10.6c-22.2 17-34.5 26.4-44.4 33.8l-27.6 21-26.3 20.1a4600 4600 0 0 0-58.5 44.5l-9.9 7.5-11.5 8.9-9.6 7.4.2 22.1.3 22.1 23.5.3 23.5.2 5.4-4a231 231 0 0 0 13.6-10.6l34.6-26.7 21.9-16.8 20-15.4 11-8.5 17.5-13.5 31.5-24.3 36-27.7 46-35.4 13.5-10.5 15.9-12.3 14.1-10.8c12.5-9.5 35-27 48.5-37.5l13-10 39.3-30.3 10.5-8 10.6-8.2c3.5-2.8 9.4-7.4 13.2-10.2l21.5-16.5 22.4-17.2c1.8-1.4-3.2-1.5-48.5-1.5h-50.5zm158.6-2.5-19.8 15.7-43 33.5-80 62.5-50.1 39.1-52.5 40.9-27.5 21.5-39.6 31-75.8 59.2-33.5 26.1c-12.7 9.8-24 18.8-25.1 19.8-1.9 1.9 2.7 1.9 235.3 1.9H2538V597h-11.2c-10.9.1-11.4.2-14.4 2.8"/><path fill="#858585" d="M1126 597.3c0 .3 1.7 1.7 3.7 3.3s3.3 2.3 2.9 1.6c-.8-1.3-6.6-5.6-6.6-4.9m58.3.4c1 1.6 20.7 16.4 20.7 15.6 0-.5-1.2-1.7-2.7-2.6s-5.5-4-8.8-6.7c-6.3-5.2-10.1-7.8-9.2-6.3m102.6.7a16 16 0 0 0 3.5 2.8q2.8 1.6.7-.6a16 16 0 0 0-3.5-2.8q-2.8-1.7-.7.6m401.6 130.1c0 72.6.1 102.2.2 65.7.2-36.5.2-95.9 0-132-.1-36.1-.2-6.3-.2 66.3m41.7 61.7L1730 984l-634.7.3-634.8.2 634.8.3c507.1.1 634.9-.1 635.2-1.1.3-.6.4-88.1.3-194.2l-.3-193zm176 .5.3 193.8 315.3.3 315.2.2v135h-631l.2 169.2.3 169.3h23l23 .1-22.2-.3-22.3-.3v-337h314.4c263.9 0 314.5-.2 315.5-1.4.8-.9 1-19.6.9-68.2l-.3-66.9-315.2-.3-315.3-.2V790.5c0-128.7-.3-193.5-1-193.5q-1 .2-.8 193.7m46.3-59.7c0 74 .1 104.2.2 67.2.2-36.9.2-97.5 0-134.5-.1-36.9-.2-6.7-.2 67.3M2294 600.1c-3.5 3.1-3.5 3.1-.3.9 1.8-1.1 3.5-2.5 3.8-3 1-1.6.2-1.1-3.5 2.1m54.4 5.2-21.1 16.1c-9.4 7-11.1 8.6-9.9 8.6a3259.7 3259.7 0 0 0 27.7-21c14.2-10.9 15.5-11.9 14.8-12-.4 0-5.5 3.7-11.5 8.3m109.9-6c-1.8 1.2-3.3 2.6-3.3 3s1.6-.4 3.5-1.9a19 19 0 0 0 3.5-3c0-.6-.2-.5-3.7 1.9m50.9 2.1c-7.7 6.2-8.7 7.7-1.5 2.2 5.2-3.9 8.4-6.8 7.1-6.5-.2 0-2.7 1.9-5.6 4.3m29 172.3L2538 951h-237.2l-237.3-.1 4.5-4.1 4.5-4.1-4.3 3.4c-2.4 1.9-4.3 3.8-4.3 4.4.2 1.6 474 1.9 474.6.3.3-.7.4-80.7.3-177.8l-.3-176.5zM1293 602.3a231 231 0 0 0 18.8 15.1q1 .6 1.2.2c0-.2-3.9-3.5-8.7-7.2-4.9-3.6-9.4-7.1-10-7.7q-1.2-.8-1.3-.4m59 1c0 .3 1.7 1.7 3.7 3.3s3.3 2.3 2.9 1.6c-.8-1.3-6.6-5.6-6.6-4.9m1091.5 7.5-35.2 27.1c-4.5 3.4-8.8 7-9.5 7.9-1.6 2-.5 1.2 16.4-11.9l25.1-19.3c11.1-8.6 14.7-11.7 13.5-11.6-.2 0-4.8 3.5-10.3 7.8M1139 607.3c0 .3 1.8 2 4 3.7s4 2.9 4 2.7c0-.3-1.8-2-4-3.7s-4-2.9-4-2.7m1135.5 7.8c-8.3 6.5-14.5 12-10.5 9.3 2-1.4 17.1-13.3 19-15.1 3.7-3.3-.3-.6-8.5 5.8m-910.5-2.8c0 .3 1.8 2 4 3.7s4 2.9 4 2.7c0-.3-1.8-2-4-3.7s-4-2.9-4-2.7m1127.5 3.3-4 3.6 4.3-3.2q5.4-4 4-4a36 36 0 0 0-4.3 3.6M1148 614.3c0 .3 1.8 2 4 3.7s4 2.9 4 2.7c0-.3-1.8-2-4-3.7s-4-2.9-4-2.7m58 0c0 .5 42.6 33.8 130 101.6 31.4 24.3 30.6 23.7 29.2 21.9-.7-.9-3.9-3.6-7-6l-17.8-13.8-23.9-18.5-24.8-19.3a2647 2647 0 0 1-41.5-32.2l-9.6-7.5L1218 623c-10.6-8.4-12-9.4-12-8.7m110 5.9c1.4 1.4 7.2 6.1 13 10.5 35.9 27.2 34 25.8 34 25 0-.5-42.7-33.4-47.5-36.6q-2-1.5.5 1.1m57-.9c0 .3 1.8 2 4 3.7s4 2.9 4 2.7c0-.3-1.8-2-4-3.7s-4-2.9-4-2.7m1108.5 3.8c-6.1 5-8 7-4 4.1a50 50 0 0 0 9.5-8.1c-.3 0-2.7 1.8-5.5 4m-1314.2 6.7c.4.6 2.2 2.1 3.9 3.4s2.8 1.7 2.5 1c-.4-.6-2.2-2.1-3.9-3.4s-2.8-1.7-2.5-1m1084.7 3.3-3.5 3 3.8-2.6q4.9-3.6 3.4-3.5zm55 3.6c-8.6 6.5-11.9 9.3-10.9 9.3.3 0 4.2-2.8 8.6-6.3 4.5-3.4 8.9-6.7 10-7.3q1.6-1.2 1.3-1.7c-.3-.2-4.3 2.4-9 6m157.5-.1-4 3.6 4.3-3.2q5.4-4 4-4a36 36 0 0 0-4.3 3.6m-1069.5-.2c0 .3 2.7 2.6 6 5.1s6 4.4 6 4.1-2.7-2.6-6-5.1-6-4.4-6-4.1m848.5 3.2-4 3.6 4.3-3.2q5.4-4 4-4a36 36 0 0 0-4.3 3.6m-1062.6.7c1.5 1.9 7.1 6.1 7.1 5.4 0-.2-1.9-1.9-4.2-3.7s-3.7-2.6-2.9-1.7m1274.6 3.3-4 3.6 4.3-3.2q5.4-4 4-4a36 36 0 0 0-4.3 3.6m-165.2 5.8-21.5 16.4c-19.5 14.8-23.6 18.1-22.6 18.2a77 77 0 0 0 8.7-6.3l14.3-10.9 14.5-11c4.4-3.5 8.9-6.8 10-7.4q1.6-1.1 1.3-1.7c-.3-.3-2.4.9-4.7 2.7m-881.3-2.1c0 .3 1.7 1.7 3.7 3.3s3.3 2.3 2.9 1.6c-.8-1.3-6.6-5.6-6.6-4.9m983.2 2.9c-2.2 1.8-7.2 5.8-11.2 8.8l-17.5 13.5-34 25.9c-1.1.8-1.8 1.7-1.5 1.9.3.3 5.5-3.4 11.6-8.1l32-24.7 23.3-18.2c4.1-3.5 1.7-2.7-2.7.9M1195 651.3c0 .3 1.7 1.7 3.7 3.3s3.3 2.3 2.9 1.6c-.8-1.3-6.6-5.6-6.6-4.9m1030 2.8-3.5 3 3.8-2.6q4.9-3.6 3.4-3.5zm216.5.5-4 3.6 4.3-3.2q5.4-4 4-4a36 36 0 0 0-4.3 3.6m-1076.6 2.6c1.2 1.6 7 6.1 35.6 27.8l12.3 9.3q1 .8 1.2.4c0-.3-10.5-8.6-23.2-18.3l-25.3-19.3q-2.6-2.3-.6.1m-161.7.4a90 90 0 0 0 12.6 9.8 90 90 0 0 0-12.6-9.8m218.8-.3a55 55 0 0 0 9 6.7c-4-3.6-9-7.3-9-6.7m794.5 3.3-4 3.6 4.3-3.2q5.4-4 4-4a36 36 0 0 0-4.3 3.6m211 5-4 3.6 4.3-3.2q5.4-4 4-4a36 36 0 0 0-4.3 3.6m-992.1 2.2c.8 1.3 6.6 5.6 6.6 4.9 0-.3-1.7-1.7-3.7-3.3s-3.3-2.3-2.9-1.6m766.6 3.8a59 59 0 0 0-6 5.1c-.8.9 1.3-.5 4.8-3.1 3.4-2.6 6.2-4.9 6.2-5.2 0-.7-.2-.5-5 3.2m-980 .7c0 .3 1.8 2 4 3.7s4 2.9 4 2.7c0-.3-1.8-2-4-3.7s-4-2.9-4-2.7m1192 3.8-3.5 3 3.8-2.6q4.9-3.6 3.4-3.5zm-969.7-1.3c.4.6 2.2 2.1 3.9 3.4s2.8 1.7 2.5 1c-.4-.6-2.2-2.1-3.9-3.4q-2.7-2-2.5-1m745.2 6.8q-4.6 4-.9 1.5c2.8-1.8 6.2-5.1 5.3-5.1a33 33 0 0 0-4.4 3.6m-953.1 2.2c.8 1.3 6.6 5.6 6.6 4.9 0-.3-1.7-1.7-3.7-3.3s-3.3-2.3-2.9-1.6m1164.1 2.8-4 3.6 4.3-3.2q5.4-4 4-4a36 36 0 0 0-4.3 3.6m-943.5-2.3c0 .3 1.8 2 4 3.7s4 2.9 4 2.7c0-.3-1.8-2-4-3.7s-4-2.9-4-2.7m779 6.4c-8.6 6.5-11.9 9.3-10.9 9.3.3 0 4.2-2.8 8.6-6.3 4.5-3.4 8.9-6.7 10-7.3q1.6-1.2 1.3-1.7c-.3-.2-4.3 2.4-9 6m-60.5 1.9-4 3.6 4.3-3.2q5.4-4 4-4a36 36 0 0 0-4.3 3.6m-925.5 1.7c0 .3 1.8 2 4 3.7s4 2.9 4 2.7c0-.3-1.8-2-4-3.7s-4-2.9-4-2.7m1137 2.8c-3.5 3.1-3.5 3.1-.3.9 1.8-1.1 3.5-2.5 3.8-3 1-1.6.2-1.1-3.5 2.1m-971.7-1.4c.4.6 4.2 3.8 8.4 7 10.5 7.9 11.3 8.5 11.3 7.9 0-.2-3.9-3.5-8.7-7.2-4.9-3.6-9.4-7.2-10.2-7.8q-1.6-1.2-.8.1m55.7-.4c0 .3 1.7 1.7 3.7 3.3s3.3 2.3 2.9 1.6c-.8-1.3-6.6-5.6-6.6-4.9m695 4.3a59 59 0 0 0-6 5.1c-.8.9 1.3-.5 4.8-3.1 3.4-2.6 6.2-4.9 6.2-5.2 0-.7-.2-.5-5 3.2m44.5 10.5-24.2 18.5c-6.2 4.7-11.3 8.7-11.3 9 0 .8 1.6-.4 13.5-9.4l22.1-16.8c9.5-7.1 14.7-11.6 13.3-11.3-.2 0-6.2 4.5-13.4 10M1262 704c4 3.6 9 7.3 9 6.7a60 60 0 0 0-9-6.7m1053.7 5.2-35.2 27.3c-9.4 7.1-10.7 8.2-30 23.2-6 4.7-11.5 8.7-12.2 9q-1 .5-1.7 2c-.3.8 2.2-.7 5.6-3.4l45.6-35.2a1999 1999 0 0 0 39.2-30.7c0-.9-1.1-.1-11.3 7.8m57.3-1.1-3.5 3 3.8-2.6q4.9-3.6 3.4-3.5zm-224.5 5.5-4 3.6 4.3-3.2q5.4-4 4-4a36 36 0 0 0-4.3 3.6m-712.5-2.3a231 231 0 0 0 18.8 15.1q1 .6 1.2.2c0-.2-3.9-3.5-8.7-7.2-4.9-3.6-9.4-7.1-10-7.7q-1.2-.8-1.3-.4m56 0c0 .3 1.8 2 4 3.7s4 2.9 4 2.7c0-.3-1.8-2-4-3.7s-4-2.9-4-2.7m-219 1c0 .3 1.8 2 4 3.7s4 2.9 4 2.7c0-.3-1.8-2-4-3.7s-4-2.9-4-2.7m1091 2.8c-3.5 3.1-3.5 3.1-.3.9 1.8-1.1 3.5-2.5 3.8-3 1-1.6.2-1.1-3.5 2.1m-224.5 5.5-4 3.6 4.3-3.2q5.4-4 4-4a36 36 0 0 0-4.3 3.6m-633.1 2.2c.8 1.3 6.6 5.6 6.6 4.9 0-.3-1.7-1.7-3.7-3.3s-3.3-2.3-2.9-1.6m-214 5c.8 1.3 6.6 5.6 6.6 4.9 0-.3-1.7-1.7-3.7-3.3s-3.3-2.3-2.9-1.6m164.6-.5a231 231 0 0 0 18.8 15.1q1 .6 1.2.2c0-.2-3.9-3.5-8.7-7.2-4.9-3.6-9.4-7.1-10-7.7q-1.2-.8-1.3-.4m888 2.8-3.5 3 3.8-2.6q4.9-3.6 3.4-3.5zm-828 .9c4 3.6 9 7.3 9 6.7a60 60 0 0 0-9-6.7m608 .6a59 59 0 0 0-6 5.1c-.8.9 1.3-.5 4.8-3.1 3.4-2.6 6.2-4.9 6.2-5.2 0-.7-.2-.5-5 3.2m211.5 5-4 3.6 4.3-3.2q5.4-4 4-4a36 36 0 0 0-4.3 3.6M1304 737c4 3.6 9 7.3 9 6.7a60 60 0 0 0-9-6.7m860.7 7.9c-8.8 6.8-12.8 10.3-9.7 8.5a113 113 0 0 0 18.8-15.3c-.2 0-4.3 3.1-9.1 6.8m-794.2-2.5c2.9 2.5 89.1 69.7 106.5 83q1.9 1.5.2-.6c-.7-.9-5-4.5-9.5-7.9l-26.3-20.4-16.1-12.5-25.8-20q-40.9-32.2-29-21.6m157.5-3.1a55 55 0 0 0 9 6.7c-4-3.6-9-7.3-9-6.7m584 2.8-3.5 3 3.8-2.6q4.9-3.6 3.4-3.5zm-634 1.2c0 .5 13.6 11.4 20.1 16.2 2.7 1.9 18 13.5 44.9 34.1l45 34.3 21 16.1c4.7 3.6 9.2 7 10 7.4 3.3 1.9-3.1-3.5-13.5-11.4l-80-61-46.2-35.2q-1.2-1-1.3-.5m840.5 7.3-4 3.6 4.3-3.2q5.4-4 4-4a36 36 0 0 0-4.3 3.6m-998.5-1.3c0 .3 1.7 1.7 3.7 3.3s3.3 2.3 2.9 1.6c-.8-1.3-6.6-5.6-6.6-4.9m221 0c0 .3 1.8 2 4 3.7s4 2.9 4 2.7c0-.3-1.8-2-4-3.7s-4-2.9-4-2.7m557.5 3.3-4 3.6 4.3-3.2q5.4-4 4-4a36 36 0 0 0-4.3 3.6m50.5 4.2c-1.9 1.6-17.6 13.6-34.7 26.6s-31.3 24-31.3 24.3c0 .8 2.6-1.1 34-25.1l22.7-17.3q15-11.3 13.2-11.3c-.3 0-2 1.3-3.9 2.8m160.5.8q-4.6 4-.9 1.5c2.8-1.8 6.2-5.1 5.3-5.1a33 33 0 0 0-4.4 3.6m-976.5 1.7c0 .3 1.8 2 4 3.7s4 2.9 4 2.7c0-.3-1.8-2-4-3.7s-4-2.9-4-2.7m221 0c0 .3 1.8 2 4 3.7s4 2.9 4 2.7c0-.3-1.8-2-4-3.7s-4-2.9-4-2.7m9.4 7.5c.8 1.3 6.6 5.6 6.6 4.9 0-.3-1.7-1.7-3.7-3.3s-3.3-2.3-2.9-1.6m731.6 2.3-3.5 3 3.8-2.6q4.9-3.6 3.4-3.5zm-223.5 4.5-4 3.6 4.3-3.2q5.4-4 4-4a36 36 0 0 0-4.3 3.6m-723.5-2.3c0 .3 1.7 1.7 3.7 3.3s3.3 2.3 2.9 1.6c-.8-1.3-6.6-5.6-6.6-4.9m876.4 8.5-19.6 15.1c-5.4 4.1-10.3 8.1-11 8.9q-1.9 2.1.7.2c5.5-3.9 40.5-31.2 40.5-31.6 0-.9-1.1-.1-10.6 7.4m57.6-.7c-3.5 3.1-3.5 3.1-.3.9 1.8-1.1 3.5-2.5 3.8-3 1-1.6.2-1.1-3.5 2.1m-925.8-1.5a90 90 0 0 0 12.6 9.8 90 90 0 0 0-12.6-9.8m220.8-.3c0 .3 1.7 1.7 3.7 3.3s3.3 2.3 2.9 1.6c-.8-1.3-6.6-5.6-6.6-4.9m485.5 3.3-4 3.6 4.3-3.2q5.4-4 4-4a36 36 0 0 0-4.3 3.6m-477.5 2.8c0 .3 2.7 2.6 6 5.1s6 4.4 6 4.1-2.7-2.6-6-5.1-6-4.4-6-4.1m683 6.7-3.5 3 3.8-2.6q4.9-3.6 3.4-3.5zm-219 1c-3.5 3.1-3.5 3.1-.3.9 1.8-1.1 3.5-2.5 3.8-3 1-1.6.2-1.1-3.5 2.1m-674 1.2c0 .3 1.8 2 4 3.7s4 2.9 4 2.7c0-.3-1.8-2-4-3.7s-4-2.9-4-2.7m228 5c0 .3 1.8 2 4 3.7s4 2.9 4 2.7c0-.3-1.8-2-4-3.7s-4-2.9-4-2.7m652 2.8c-3.5 3.1-3.5 3.1-.3.9 1.8-1.1 3.5-2.5 3.8-3 1-1.6.2-1.1-3.5 2.1m-868 1.9c4 3.6 9 7.3 9 6.7a60 60 0 0 0-9-6.7m648 .1-3.5 3 3.8-2.6q4.8-3.6 3.4-3.5zm-422.6 2.7c.8 1.3 6.6 5.6 6.6 4.9 0-.3-1.7-1.7-3.7-3.3s-3.3-2.3-2.9-1.6m575.4 3a362 362 0 0 1-14.3 11.2c-12.8 9.8-26.3 20.1-41.3 31.8l-20.1 15.5-14 10.9a50 50 0 0 1-6.8 4.9c-1.2.7-2.4 1.8-2.7 2.6s3.1-1.4 7.6-4.9l15.1-11.6 13-10 17.7-13.7c51.9-40 51.3-39.5 49.5-39.5-.2 0-1.9 1.3-3.7 2.8m-125.5 15-53.7 41c-19 14.5-34.6 26.5-34.6 26.8 0 .9 6.9-4.1 22.3-16.2l45.2-34.4 26.1-19.8c10.5-8 15.7-12.4 14.3-12.1-.2 0-9 6.6-19.6 14.7m-40.8-10.2-4 3.6 4.3-3.2q5.4-4 4-4a36 36 0 0 0-4.3 3.6m-618.5 1.7c0 .2 1.9 1.9 4.3 3.7 2.3 1.9 3.6 2.6 2.8 1.7-1.5-1.9-7.1-6.1-7.1-5.4m223 1c0 .3 1.7 1.7 3.7 3.3s3.3 2.3 2.9 1.6c-.8-1.3-6.6-5.6-6.6-4.9m604.5 3.8c-6.1 5-8 7-4 4.1a50 50 0 0 0 9.5-8.1c-.3 0-2.7 1.8-5.5 4m-222.5 4-3.5 3.1 3.2-2.2c2.9-1.9 5-4 4.1-4-.2 0-1.9 1.4-3.8 3.1m-374-1.7c0 .3 2.7 2.6 6 5.1s6 4.4 6 4.1-2.7-2.6-6-5.1-6-4.4-6-4.1m-216.6 4.4c.8 1.3 6.6 5.6 6.6 4.9 0-.3-1.7-1.7-3.7-3.3s-3.3-2.3-2.9-1.6m61.6.6c0 .3 13.2 10.7 29.3 23.2l31 24.2q1.5 1.3 1.7.6c-.1-.5-4.8-4.5-10.6-8.9l-16.7-12.8-11.2-8.8-11.5-8.9c-9.2-7.2-12-9.2-12-8.6m734.5 6.2-4 3.6 4.3-3.2q5.4-4 4-4a36 36 0 0 0-4.3 3.6m-218.5.5c-3.5 3.1-3.5 3.1-.3.9 1.8-1.1 3.5-2.5 3.8-3 1-1.6.2-1.1-3.5 2.1m-348-1.7c0 .2 3 2.8 6.6 5.6 3.7 2.9 6.4 4.8 6 4.1a77 77 0 0 0-12.6-9.7m-215.6 5.4c.8 1.3 6.6 5.6 6.6 4.9 0-.3-1.7-1.7-3.7-3.3s-3.3-2.3-2.9-1.6m772.1 3.3c-7.6 6.2-8.8 7.9-1.7 2.4q8.4-6.5 7-6.5zm-220.2 2a52 52 0 0 0-6.3 5.4c0 .3 2.9-1.8 6.5-4.6 5.6-4.4 7.3-6 6.3-5.9-.2.1-3.1 2.3-6.5 5.1m-322.3.2c0 .3 1.7 1.7 3.7 3.3s3.3 2.3 2.9 1.6c-.8-1.3-6.6-5.6-6.6-4.9m-215.7 5.5c.4.6 2.2 2.1 3.9 3.4s2.8 1.7 2.5 1c-.4-.6-2.2-2.1-3.9-3.4q-2.7-2-2.5-1m745.2 2.8-4 3.6 4.3-3.2q5.4-4 4-4a36 36 0 0 0-4.3 3.6m-218.5.5c-3.5 3.1-3.5 3.1-.3.9 1.8-1.1 3.5-2.5 3.8-3 1-1.6.2-1.1-3.5 2.1m-350.7 1.6c1.2 2 19.7 16 19.7 14.9 0-.2-3.9-3.5-8.7-7.2-4.9-3.6-9.4-7.2-10.2-7.8q-1.6-1.2-.8.1m52.7-.4c0 .3 1.7 1.7 3.7 3.3s3.3 2.3 2.9 1.6c-.8-1.3-6.6-5.6-6.6-4.9m504.2 7.6c-10.3 8.1-11.3 9.6-1.4 2.1q10.7-8.1 9-7.9c-.2 0-3.6 2.6-7.6 5.8m-720.2-2.6c0 .3 1.8 2 4 3.7s4 2.9 4 2.7c0-.3-1.8-2-4-3.7s-4-2.9-4-2.7m500 4.8-3.5 3 3.8-2.6q4.8-3.6 3.4-3.5zm-315.3 6.9c.6.8 5 4.4 9.8 8l15.8 12.1 14.7 11.3 7.5 5.7.5 20.7.6 20.7-.1-21v-21l-22-16.8c-25.9-19.8-28.4-21.6-26.8-19.7m520.8 2.6-4 3.6 4.3-3.2q5.4-4 4-4a36 36 0 0 0-4.3 3.6m-690.5-2.3c0 .3 1.7 1.7 3.7 3.3s3.3 2.3 2.9 1.6c-.8-1.3-6.6-5.6-6.6-4.9m69.3 6.3c.4.7 6.9 5.9 14.4 11.8l23.6 18.1c5.3 4.2 9.7 7.3 9.7 6.8-.1-.4-3.1-3-6.8-5.8s-10.7-8.2-15.7-12.1l-24.4-18.8q-1.6-1.2-.8 0m-56.3 3.7c0 .3 1.8 2 4 3.7s4 2.9 4 2.7c0-.3-1.8-2-4-3.7s-4-2.9-4-2.7m663.5 3.3-4 3.6 4.3-3.2q5.4-4 4-4a36 36 0 0 0-4.3 3.6m-74 11.9-22.4 17.2-21.6 16.8c-5.7 4.4-11.1 8.5-12.2 9.1q-1.6 1.1-1.3 1.7c.4.4 64.9-48.8 68.2-52.1q4.5-4.5-10.7 7.3m64-4.4c-6.1 5-8 7-4 4.1a50 50 0 0 0 9.5-8.1c-.3 0-2.7 1.8-5.5 4m-638.5 1.2c0 .3 1.7 1.7 3.7 3.3s3.3 2.3 2.9 1.6c-.8-1.3-6.6-5.6-6.6-4.9m463 6.4c-14.5 11-13 7.4-13 31.9 0 11.7.3 21.9.6 22.8.5 1.4 3.6 1.6 24.4 1.6h23.7l8.6-6.5c4.8-3.6 8.7-6.8 8.7-7.1 0-.7-1.1.1-10.6 7.4l-6.9 5.2-23.5-.2-23.5-.3-.3-22.1-.2-22.1 9.3-7.2c5.1-4 9.9-7.6 10.7-8.1q1.3-.9 1-1.4c-.3-.2-4.3 2.5-9 6.1m-450 3.6c0 .3 1.8 2 4 3.7s4 2.9 4 2.7c0-.3-1.8-2-4-3.7s-4-2.9-4-2.7m608 2.8-3.5 3 3.8-2.6q4.9-3.6 3.4-3.5zm-13.5 10.5-4 3.6 4.3-3.2q5.4-4 4-4a36 36 0 0 0-4.3 3.6m-580.5-2.3c0 .3 1.8 2 4 3.7s4 2.9 4 2.7c0-.3-1.8-2-4-3.7s-4-2.9-4-2.7m63 1c0 .3 10.2 8.5 22.6 18.2l22.5 17.5 27.7-.2 27.7-.2-28.2-.6-28.2-.5-2.8-2.6c-1.5-1.4-4.6-3.8-6.7-5.5l-9.1-6.9-24.2-18.8q-1.2-.8-1.3-.4m-53.8 6.3a90 90 0 0 0 12.6 9.8 90 90 0 0 0-12.6-9.8m557.3 6-4 3.6 4.3-3.2q5.4-4 4-4a36 36 0 0 0-4.3 3.6m-9 7-4 3.6 4.3-3.2q5.4-4 4-4a36 36 0 0 0-4.3 3.6m-529.1 2.2c.8 1.3 6.6 5.6 6.6 4.9 0-.3-1.7-1.7-3.7-3.3s-3.3-2.3-2.9-1.6m14.1 11c1.1 1.3 2.9 2.8 4 3.4 2.1 1.1 1.8.8-3-3.2-2.9-2.4-2.9-2.4-1-.2m-830.2 5.9c153.3.2 404.1.2 557.5 0 153.3-.1 27.8-.2-278.8-.2s-432.1.1-278.7.2m355.5 169 634.2.3v337l-19.7.3-19.8.2 20.3.3 20.2.2v-339l-634.7.2-634.8.3zm-81.4 34c440.8.3 553.2.6 553.9 1.6q.9 1.3.4-.3c-.3-1.3-62.7-1.5-553.8-1.5H461.5zm602.5 13.1-62.9 49.1-31.8 24.8c-19.4 15.1-23.2 18.3-21.9 18.3.3 0 5.4-3.9 11.4-8.8l14.3-11.2 14.1-11 18-14a1336 1336 0 0 0 27-21.2l13.9-10.8 13.8-10.8 14.5-11.4 7.2-5.8h59.5v33.7l-4.7 3.7-16.3 12.8c-6.3 5-12 9.2-12.7 9.5q-1 .5-1.7 1.9c-.3.9 2.2-.6 5.5-3.3l18.3-14.3 12.1-9.6v-34.9l-30-.2-30-.3zm333.5-12.3c-.3.8-.4 2-.1 2.7q.5 1 .6-1l.1-2.2h56.5l4.4 3.5 4.7 3.5q1.8.2-4.2-4.5l-4.7-3.5h-28.4c-24 0-28.4.2-28.9 1.5m351.6-.8 236 .3v151.4c0 83.3.3 151.7.8 151.9s.5-68 .2-151.6l-.5-152.2H2066zm-236 1.6c0 .3 1.8 2 4 3.7s4 2.9 4 2.7c0-.3-1.8-2-4-3.7s-4-2.9-4-2.7m-503 3.8c-3.5 3.1-3.5 3.1-.3.9 1.8-1.1 3.5-2.5 3.8-3 1-1.6.2-1.1-3.5 2.1m455.6 3.2c.3.8 1.1 1.8 1.7 2 .7.3 6.2 4.4 12.2 9.1l31.1 24.3 17 13.4c11.4 8.9 13.4 10.4 13.4 9.5 0-.3-15.2-12.3-33.7-26.7l-38.1-29.7c-2.3-1.9-4-2.8-3.6-1.9m-67 14.2c.9 20.8.2 19.1 11 27.3a53 53 0 0 0 9.4 6.5c0-.5-1-1.4-2.2-2.2s-5.3-3.8-9-6.7l-6.6-5.3-.7-9.3c-1.2-16.4-2.4-22.8-1.9-10.3m128.4-10.2c0 .3 1.8 2 4 3.7s4 2.9 4 2.7c0-.3-1.8-2-4-3.7s-4-2.9-4-2.7m-531 3.8-3.5 3 3.8-2.6q4.8-3.6 3.4-3.5zm-8 6c-3.5 3.1-3.5 3.1-.3.9 1.8-1.1 3.5-2.5 3.8-3 1-1.6.2-1.1-3.5 2.1m553 1.2c0 .3 1.8 2 4 3.7s4 2.9 4 2.7c0-.3-1.8-2-4-3.7s-4-2.9-4-2.7m-574.5 15.3-4 3.6 4.3-3.2q5.4-4 4-4a36 36 0 0 0-4.3 3.6m589.5-3.3c0 .3 1.7 1.7 3.7 3.3s3.3 2.3 2.9 1.6c-.8-1.3-6.6-5.6-6.6-4.9m13 10c0 .3 1.8 2 4 3.7s4 2.9 4 2.7c0-.3-1.8-2-4-3.7s-4-2.9-4-2.7m-616 3.8-3.5 3 3.8-2.6q4.8-3.6 3.4-3.5zm-8 6c-3.5 3.1-3.5 3.1-.3.9 1.8-1.1 3.5-2.5 3.8-3 1-1.6.2-1.1-3.5 2.1m638 1.2c0 .3 1.8 2 4 3.7s4 2.9 4 2.7c0-.3-1.8-2-4-3.7s-4-2.9-4-2.7m-162.3 1.8c3.1 3.1 124.9 96.6 125.3 96.2q.3-.5-1.2-1.4a55 55 0 0 1-5.6-4.1c-2.2-1.8-7.2-5.8-11.2-8.8l-17.5-13.5-22-17-17.5-13.5-17.5-13.5-22.2-17.3c-9.5-7.4-13.7-10.2-10.6-7.1m-488.7 7c-3.5 3.1-3.5 3.1-.3.9 1.8-1.1 3.5-2.5 3.8-3 1-1.6.2-1.1-3.5 2.1m160.2 6.6L1631 1238l-13.7 10.7-12.6 9.6q-2 1.4-1.7 2c.4.4 49.4-37.3 53-40.9 3.8-3.7-.8-.6-10.8 7.3m449.8-4.3a1767.1 1767.1 0 0 0 41.3 32.9l11.2 8.8 11.5 8.9 9.5 7.2c9.3 6.5-4.3-4.5-33.5-27.2l-36.2-28.2c-2.1-1.6-3.8-2.7-3.8-2.4m55.4.4c.8 1.3 6.6 5.6 6.6 4.9 0-.3-1.7-1.7-3.7-3.3s-3.3-2.3-2.9-1.6m-678.4 7.3c-3.5 3.1-3.5 3.1-.3.9 1.8-1.1 3.5-2.5 3.8-3 1-1.6.2-1.1-3.5 2.1m692 3.2c0 .3 1.8 2 4 3.7s4 2.9 4 2.7c0-.3-1.8-2-4-3.7s-4-2.9-4-2.7m-713.5 13.3-4 3.6 4.3-3.2q5.4-4 4-4a36 36 0 0 0-4.3 3.6m234.5.5-3.5 3 3.8-2.6q4.8-3.6 3.4-3.5zm493.4-2.3c.8 1.3 6.6 5.6 6.6 4.9 0-.3-1.7-1.7-3.7-3.3s-3.3-2.3-2.9-1.6m-736.4 8.3-3.5 3 3.8-2.6q4.8-3.6 3.4-3.5zm235 0c-3.5 3.1-3.5 3.1-.3.9 1.8-1.1 3.5-2.5 3.8-3 1-1.6.2-1.1-3.5 2.1m515 2.3c0 .2 3 2.8 6.6 5.6 3.7 2.9 6.4 4.8 6 4.1a77 77 0 0 0-12.6-9.7m-763 7.7-3.5 3.1 3.2-2.2c2.9-1.9 5-4 4.1-4-.2 0-1.9 1.4-3.8 3.1m45.8 15.6a430 430 0 0 0-23.4 19.1c.3.2 5.2-3.4 10.9-8s15.7-12.4 22.2-17.3c11.9-9.2 14.5-11.3 14.5-12.1s-.3-.5-24.2 18.3m189.2-15.6-3.5 3 3.8-2.6q4.8-3.6 3.4-3.5zm315.3-2.3c.4.6 2.2 2.1 3.9 3.4s2.8 1.7 2.5 1c-.4-.6-2.2-2.1-3.9-3.4q-2.7-2-2.5-1m-389.4 9.2-18.4 14.5-69.3 54.2-13.6 10.8-8.6 6.8q-2.2 1.6-1.3 1.5a755 755 0 0 0 30-22.9l61.1-47.8c28.7-22.5 33.1-26.1 31.9-26.1-.2 0-5.5 4.1-11.8 9m-169.4-.4-4 3.6 4.3-3.2q5.4-4 4-4a36 36 0 0 0-4.3 3.6m235.5-.5-3.5 3 3.8-2.6q4.8-3.6 3.4-3.5zm331-2.8c0 .3 1.7 1.7 3.7 3.3s3.3 2.3 2.9 1.6c-.8-1.3-6.6-5.6-6.6-4.9m219.4.5c.8 1.3 6.6 5.6 6.6 4.9 0-.3-1.7-1.7-3.7-3.3s-3.3-2.3-2.9-1.6m-558.4 8.3-3.5 3 3.8-2.6q4.8-3.6 3.4-3.5zm-241 5-3.5 3 3.8-2.6q4.8-3.6 3.4-3.5zm813-2.7c0 .3 2.7 2.6 6 5.1s6 4.4 6 4.1-2.7-2.6-6-5.1-6-4.4-6-4.1m-47.2 5.8c.7.9 3.9 3.6 7 6s10.9 8.3 17.2 13.3l17.3 13.5 11 8.7c2.9 2.3 6 4.7 7 5.3 5.4 3.3-1.3-2.2-27.5-22.6l-31.3-24.3q-2.6-2.3-.7.1m-773.8 2.9c-3.5 3.1-3.5 3.1-.3.9 1.8-1.1 3.5-2.5 3.8-3 1-1.6.2-1.1-3.5 2.1m611.4-2.3c.8 1.3 6.6 5.6 6.6 4.9 0-.3-1.7-1.7-3.7-3.3s-3.3-2.3-2.9-1.6m-382.4 6.3c-3.5 3.1-3.5 3.1-.3.9 1.8-1.1 3.5-2.5 3.8-3 1-1.6.2-1.1-3.5 2.1m606-1.8c0 .3 1.9 2 4.3 3.8 2.3 1.9 3.6 2.6 2.8 1.6-1.6-2-7.1-6.1-7.1-5.4m-212 4c0 .3 1.7 1.7 3.7 3.3s3.3 2.3 2.9 1.6c-.8-1.3-6.6-5.6-6.6-4.9m-639 5.8c-3.6 2.8-7.2 5.8-8 6.6-.8.9 2.2-1.2 6.8-4.7 7.1-5.4 9-7.1 8-7-.2 0-3.2 2.3-6.8 5.1m232 2-3.5 3 3.8-2.6q4.8-3.6 3.4-3.5zm415-1.8c0 .3 1.7 1.7 3.7 3.3s3.3 2.3 2.9 1.6c-.8-1.3-6.6-5.6-6.6-4.9m-583.6 2.8c-1.9 2.2-1.9 2.2.3 1 2.4-1.2 3.9-3.1 2.5-3.1-.5 0-1.7 1-2.8 2.1m802-1.3c.8 1.3 6.6 5.6 6.6 4.9 0-.3-1.7-1.7-3.7-3.3s-3.3-2.3-2.9-1.6m-813.9 10.3c-9.3 7.3-13.4 11-10.5 9.4 2.2-1.3 20-15.5 20-16 0-.8-.3-.7-9.5 6.6m164.5 2c-3.5 3.1-3.5 3.1-.3.9 1.8-1.1 3.5-2.5 3.8-3 1-1.6.2-1.1-3.5 2.1m-235 1-3.5 3 3.8-2.6q4.8-3.6 3.4-3.5zm737.5-1.4c3.1 3 20.2 16 18.6 14a185 185 0 0 0-18.5-14.6l-2.1-1.5zm160.5-1.4a55 55 0 0 0 9 6.7c-4-3.6-9-7.3-9-6.7m-671 7.8c-3.5 3.1-3.5 3.1-.3.9 1.8-1.1 3.5-2.5 3.8-3 1-1.6.2-1.1-3.5 2.1m462.4-2.3c.8 1.3 6.6 5.6 6.6 4.9 0-.3-1.7-1.7-3.7-3.3s-3.3-2.3-2.9-1.6m-698.4 3.8a59 59 0 0 0-6 5.1c-.8.9 1.3-.5 4.8-3.1 3.4-2.6 6.2-4.9 6.2-5.2 0-.7-.2-.5-5 3.2m54.3 10.3c-10.7 8.4-18.2 14.9-13.3 11.5l11.7-9.1c5.6-4.4 11.2-8.7 12.5-9.5q2.1-1.5 1.8-2c-.3-.3-6 3.8-12.7 9.1m865.7-9.6c0 .3 1.8 2 4 3.7s4 2.9 4 2.7c0-.3-1.8-2-4-3.7s-4-2.9-4-2.7m-932 8.8c-3.5 3.1-3.5 3.1-.3.9 1.8-1.1 3.5-2.5 3.8-3 1-1.6.2-1.1-3.5 2.1m779.7-1.1a887 887 0 0 0 46.3 35.3q.3-.5-1.4-1.7c-1-.6-6.4-4.7-12.1-9.1-26.6-20.7-30.9-24.1-32.4-24.9q-2-1-.4.4m-49.7 2.3c0 .3 1.7 1.7 3.7 3.3s3.3 2.3 2.9 1.6c-.8-1.3-6.6-5.6-6.6-4.9m-503 3.8-3.5 3 3.8-2.6q4.8-3.6 3.4-3.5zm665-2.4q.2.9 1.8 1.9c1 .6 6.6 5 12.6 9.8 5.9 4.7 11.1 8.6 11.4 8.6q1.4-.2-16-13.6a57 57 0 0 0-9.8-6.7m59 3.6c0 .3 1.8 2 4 3.7s4 2.9 4 2.7c0-.3-1.8-2-4-3.7s-4-2.9-4-2.7m-964 3.8c-3.5 3.1-3.5 3.1-.3.9 1.8-1.1 3.5-2.5 3.8-3 1-1.6.2-1.1-3.5 2.1m35.5 25-33.5 26.2-33.5 26.2-38.7 30.3a111 111 0 0 0-10.8 8.9c0 .8 4.9-2.9 17.1-12.7 3.1-2.5 12-9.5 19.9-15.5l20.5-16 13.7-10.7 20.8-16.3 18-14 18-14.1 15.4-12c1.1-.7 1.8-1.6 1.5-1.8-.2-.2-13 9.4-28.4 21.5m937.5-21.8c0 .3 1.8 2 4 3.7s4 2.9 4 2.7c0-.3-1.8-2-4-3.7s-4-2.9-4-2.7m-982 3.8-3.5 3 3.8-2.6q4.8-3.6 3.4-3.5zm225.5 5.5-7 5.6a57 57 0 0 0 11-7.7c5-4.1 2.4-2.7-4 2.1m549.9-3.8c.8 1.3 6.6 5.6 6.6 4.9 0-.3-1.7-1.7-3.7-3.3s-3.3-2.3-2.9-1.6m165.6 4.6c0 .6 17.6 14.8 20 16.1 2.9 1.5-2.5-3.2-11.2-9.9a70 70 0 0 0-8.8-6.2m-954 3.7-3.5 3 3.8-2.6q4.8-3.6 3.4-3.5zm796.4-2.3c.8 1.3 6.6 5.6 6.6 4.9 0-.3-1.7-1.7-3.7-3.3s-3.3-2.3-2.9-1.6m217.6 3.5c0 .3 1.8 2 4 3.7s4 2.9 4 2.7c0-.3-1.8-2-4-3.7s-4-2.9-4-2.7m-1023 5.3a59 59 0 0 0-6 5.1c-.8.9 1.3-.5 4.8-3.1 3.4-2.6 6.2-4.9 6.2-5.2 0-.7-.2-.5-5 3.2m166.2 5.1c-6.1 4.9-11.9 9.3-12.9 9.9q-1.6 1.2-1.3 1.7c.4.4 22-15.9 25.2-19.1 3.4-3.4-1.2-.3-11 7.5m67.8-5.6-3.5 3 3.8-2.6q4.8-3.6 3.4-3.5zm637.2 2.5c.8 1.2 20.8 16.7 20.8 16.1s-11.2-9.7-17.4-14.3c-2.2-1.6-3.7-2.4-3.4-1.8m161 0a90 90 0 0 0 12.6 9.8 90 90 0 0 0-12.6-9.8m-1044.2 7.5c-3.5 3.1-3.5 3.1-.3.9 1.8-1.1 3.5-2.5 3.8-3 1-1.6.2-1.1-3.5 2.1m998.8-.4 12.5 9.6 11.5 9q1 .8 1.2.4c0-.9-25.6-20.7-26.6-20.6q-.7.1 1.4 1.6m-772.8 5.4c-3.5 3.1-3.5 3.1-.3.9 1.8-1.1 3.5-2.5 3.8-3 1-1.6.2-1.1-3.5 2.1m621.5-.7c1.7 1.4 5 4 7.5 5.7q5.1 3.5 1.5.5c-1.6-1.4-5-4-7.5-5.7q-5.1-3.5-1.5-.5m215.5 2.9c0 .3 1.8 2 4 3.7s4 2.9 4 2.7c0-.3-1.8-2-4-3.7s-4-2.9-4-2.7m-912 9.7-18.9 14.7-13.6 10.8-13.7 10.7a463 463 0 0 0-32.8 26.5q.1.4 1.8-.9l39.2-30.8c50.7-39.7 50-39.1 50-39.6 0-.7-.5-.4-12 8.6m754.3-7.4c.8 1.3 20.7 16.6 20.7 16s-17.3-14.5-19.9-16.1q-1.3-.7-.8.1m-927.3 7.5-3.5 3 3.8-2.6q4.8-3.6 3.4-3.5zm231 .5a59 59 0 0 0-6 5.1c-.8.9 1.3-.5 4.8-3.1 3.4-2.6 6.2-4.9 6.2-5.2 0-.7-.2-.5-5 3.2m863.2-3a90 90 0 0 0 12.6 9.8 90 90 0 0 0-12.6-9.8m-204.2 4.7c0 .3 1.7 1.7 3.7 3.3s3.3 2.3 2.9 1.6c-.8-1.3-6.6-5.6-6.6-4.9m157 .6q.2 1.1 2.3 2.2c1.2.6 4.5 3 7.2 5.3 10.5 8.7 20 15.5 13.5 9.7-6.7-6-23-18.2-23-17.2m-1056 3.7a59 59 0 0 0-6 5.1c-.8.9 1.3-.5 4.8-3.1 3.4-2.6 6.2-4.9 6.2-5.2 0-.7-.2-.5-5 3.2m228 3.5-3.5 3 3.8-2.6q4.8-3.6 3.4-3.5zm730-.8c0 .9 25.1 19.9 25.6 19.4.3-.3-.7-1.4-2.3-2.4s-6.8-5-11.8-8.8c-9.3-7.4-11.5-8.9-11.5-8.2m164 3c0 .3 1.8 2 4 3.7s4 2.9 4 2.7c0-.3-1.8-2-4-3.7s-4-2.9-4-2.7m-1135 4.3a59 59 0 0 0-6 5.1c-.8.9 1.3-.5 4.8-3.1 3.4-2.6 6.2-4.9 6.2-5.2 0-.7-.2-.5-5 3.2m233-.5c-3.5 3.1-3.5 3.1-.3.9 1.8-1.1 3.5-2.5 3.8-3 1-1.6.2-1.1-3.5 2.1m699 1.2c0 .2 3.5 3.1 7.8 6.3l11 8.2c1.7 1.3 3.2 2.2 3.2 1.9a83 83 0 0 0-7.7-6.3l-11-8.2c-1.8-1.3-3.3-2.2-3.3-1.9m-711.5 8.3-4 3.6 4.3-3.2q5.4-4 4-4a36 36 0 0 0-4.3 3.6m875.5-2.2c0 .2 5.6 4.9 12.4 10.3 34.5 27.2 35.6 28 35.6 27 0-.3-9.7-8.1-21.6-17.3-26.2-20.6-26.4-20.7-26.4-20m53-.1c0 .3 1.8 2 4 3.7s4 2.9 4 2.7c0-.3-1.8-2-4-3.7s-4-2.9-4-2.7m-937 8.8-3.5 3 3.8-2.6q4.8-3.6 3.4-3.5zm-233 1-3.5 3 3.8-2.6q4.8-3.6 3.4-3.5zm1019-2.9c0 .3 4.5 4 10 8.2a68 68 0 0 0 9.9 6.9c0-.4-3.6-3.5-8-6.8-10.7-8-11.9-8.8-11.9-8.3m163 2.8c4 3.6 9 7.3 9 6.7a60 60 0 0 0-9-6.7m-205.6 1.8c.8 1.3 6.6 5.6 6.6 4.9 0-.3-1.7-1.7-3.7-3.3s-3.3-2.3-2.9-1.6m-985.4 4.8a59 59 0 0 0-6 5.1c-.8.9 1.3-.5 4.8-3.1 3.4-2.6 6.2-4.9 6.2-5.2 0-.7-.2-.5-5 3.2m1207 5.7c0 .2 1.9 1.9 4.3 3.7 2.3 1.9 3.6 2.6 2.8 1.7-1.5-1.9-7.1-6.1-7.1-5.4m-1220 4.3a59 59 0 0 0-6 5.1c-.8.9 1.3-.5 4.8-3.1 3.4-2.6 6.2-4.9 6.2-5.2 0-.7-.2-.5-5 3.2m1062-3.2c0 .2 6.3 5.3 14.1 11.3l14 10.8-22.1.3c-14.2.1-22.8-.1-24.3-.8q-3-1.7-.3.4c1.7 1.3 5.7 1.6 24.7 1.6 12.5 0 23-.3 23.2-.8.3-.4-1.6-2.3-4.2-4.2l-13.6-10.6c-9.5-7.4-11.5-8.8-11.5-8m-835 6.7c-3.5 3.1-3.5 3.1-.3.9 1.8-1.1 3.5-2.5 3.8-3 1-1.6.2-1.1-3.5 2.1m1005 1.9c4 3.6 9 7.3 9 6.7a60 60 0 0 0-9-6.7m-1244 4.1c-3.5 3.1-3.5 3.1-.3.9 1.8-1.1 3.5-2.5 3.8-3 1-1.6.2-1.1-3.5 2.1m1041.7-1a49 49 0 0 0 10.3 7.6c0-.3-2.6-2.4-5.7-4.8-3.2-2.3-5.3-3.6-4.6-2.8m158.8 4.1c.3.7 2.7 2.8 5.4 4.5l4.7 3.3h25.7c23.9 0 28-.4 24.5-2.6q-1-.6-.4.4c.5.9-5.7 1.2-24.7 1.2h-25.4l-5.2-4.1c-2.8-2.2-4.9-3.5-4.6-2.7m-978 3.4-4 3.6 4.3-3.2q5.4-4 4-4a36 36 0 0 0-4.3 3.6m-231.2 0c-1.8 1.4-3.3 3-3.3 3.5 0 1 67.8 1.3 70.4.3q1.5-.6 1.6-1.7 0-1-1.2.1c-.9.9-10.2 1.2-35.7 1.2l-34.6-.1 3.5-2.9c4.3-3.6 3.7-3.9-.7-.4m174.2.4q-3.8 3-2.4 3.5c.8.3 13.6.4 28.4.2l27-.2-27.5-.3-27.4-.2 3.4-3c4.6-3.8 3.4-3.9-1.5 0M534 1621c0 35.7.3 65 .8 65s.6-29 .4-64.5l-.2-64.4 13.2-.4 13.3-.3-13.7-.2-13.8-.2zm51 0c0 35.7.3 65 .8 65s.6-29 .4-64.5l-.2-64.5h12.9c11.9 0 13 .2 13.6 1.9a8 8 0 0 0 2.1 3.2q1.4 1.1-.6-2.4l-2.2-3.7H585zm79.7-64.3c-.4.3-.7 19.3-.7 42.1v41.4l-2.1-2.3q-2.6-3.1.3 1.1l2.3 3.5.3-42.7.2-42.7 12.3-.4 12.2-.3-12.1-.2c-6.6-.1-12.4.1-12.7.5m72.6.8c-1.8.8-3.3 1.6-3.3 1.9s1.5-.1 3.3-.8l4.7-1.9q2-.6 0-.6c-.8 0-3 .6-4.7 1.4m47.7 0c4.6 1.8 6.4 1.7 2.5 0-1.6-.8-3.7-1.4-4.5-1.4q-1 .2 2 1.4m43.2 9.7.3 11.3h19.3l19.2.1-19-.3-19-.3v-21l51.8-.3 51.7-.2-52.3-.3-52.3-.2zm119 54 .3 65.3.2-64.7.3-64.7 13.3-.4 13.2-.3-13.7-.2-13.8-.2zm42.2-63.9c-.2.7-.3 5.8-.2 11.3l.3 9.9 19.2.3 19.3.2.3 53.3.2 53.2v-107l-19.2-.3-19.3-.2v-21h102v21l-18.7.2-18.8.3v108l.2-53.8.3-53.7h38v-23h-51.5c-41.8 0-51.7.2-52.1 1.3m120.3-.6c-.9.8-.7 76 .2 86.3.3 4.1.4-13.5.2-39.3l-.3-46.7h26.2l.1 44.7c0 24.7.3 45.6.7 46.5.8 1.9.5-88.9-.3-91-.3-.9-3.9-1.2-13.3-1.2-7.1 0-13.2.3-13.5.7m76.3 43.6c0 24.5-.2 46-.5 47.8q-.6 4.2.4.9c.5-1.4.9-22.6 1-47.3l.1-44.7h26.2l-.3 47.2c-.2 26.2-.1 42.4.3 36.3s.7-27.4.5-47.5l-.2-36.5-13.7-.3-13.8-.3zm45.4-43c-.2.7-.3 5.8-.2 11.3l.3 9.9h19.3l19.2.1-19-.3-19-.3v-21l51.8-.3 51.7-.2-51.8-.3c-42.1-.2-51.9 0-52.3 1.1m149.1.2c-3.9 1.7-2.1 1.8 2.5 0q3-1.2 2-1.4c-.8 0-2.8.6-4.5 1.4m47.5 0c4.6 1.8 6.4 1.7 2.5 0-1.6-.8-3.7-1.4-4.5-1.4q-1 .2 2 1.4m-635 3.2c1.4.9 5.2 4.4 8.5 7.7 3.2 3.4 4.9 4.7 3.8 3a45 45 0 0 0-12.5-11.3q-3.2-1.7.2.6m-67.8 4.9-4.7 4.7 5-4.3 5.4-4.7q.3-.3-.3-.3a31 31 0 0 0-5.4 4.6m636.5 4.1c-2.6 2.5-5.8 6-6.9 7.7q-1.9 2.7-1.2 2.1c5.4-5.6 13.6-14.5 13.3-14.5a44 44 0 0 0-5.2 4.7m-738.8 5.8c.5 1.1 1.7 2.9 2.6 4l1.6 2-1-2c-.5-1.1-1.7-2.9-2.6-4l-1.6-2zm779.9 1.2c1.8.2 4.5.2 6 0s0-.4-3.3-.4-4.5.2-2.7.4m-655.4 1.3c-1.2.5-2.5 1.3-2.8 1.9-.5.8 4.9-1.4 6.3-2.6.8-.6-1.4-.2-3.5.7m28.1 1.3c2.2 1.3 4.9 4 6.2 6.2s2.3 3.5 2.3 3c0-3.4-8.1-11.5-11.5-11.5-.5 0 .8 1 3 2.3m32.7-1.8c0 .5.6 2.6 1.3 4.5q1.2 3 1.4 2c0-.8-.6-2.9-1.4-4.5q-1.2-2.7-1.3-2m585.1.5c-3.2 1.3-2.9 2.1.5 1 5.6-1.8 5.8-1.8 3.7-1.9-1.1 0-3 .4-4.2.9m25.1 1c2.8 1.1 5.1 1.8 5.3 1.6.5-.5-7.4-3.6-9-3.6-.6.1 1 1 3.7 2m-524.9.2c-.8 2.2-1 106.8-.2 106.8.4 0 .7-24.1.7-53.5V1579l19.3-.3 19.2-.2-19.3-.3c-14.7-.1-19.4.1-19.7 1m403 0c-.8 2.2-1 106.8-.2 106.8.4 0 .7-24.1.7-53.5V1579l19.3-.3 19.2-.2-19.3-.3c-14.7-.1-19.4.1-19.7 1m128.5 2.1c0 .3 1.8 2 4 3.7s4 2.9 4 2.7c0-.3-1.8-2-4-3.7s-4-2.9-4-2.7m-75.5 4.8c-.9 1.7-1.5 3.3-1.3 3.5.3.2 1.2-1.2 2.1-3.1 2.1-4.3 1.3-4.7-.8-.4m112.8 1.9c1.1 2.7 2.3 4.8 2.5 4.6.4-.5-3.5-9.6-4.2-9.6-.2 0 .5 2.2 1.7 5m-85.3 3.1c-1.2 1.6-2.1 3.2-1.8 3.4.2.2 1.3-1.2 2.6-3.1 2.8-4.2 2.1-4.5-.8-.3m59.7 4.4c.9 1.9 1.8 3.3 2.1 3.1.4-.5-2.6-6.6-3.3-6.6-.3 0 .3 1.6 1.2 3.5m-629.9-1.8c1.2.2 3 .2 4 0q1.2-.5-2.3-.4t-1.7.4m-19.1 1c1.8.2 5 .2 7 0 2.1-.2.7-.4-3.2-.4-3.8 0-5.5.2-3.8.4m557 4.5c-.4 1.3-.9 5.1-1.1 8.3-.5 5.3-.4 5.1.9-2 1.3-7.5 1.4-11.3.2-6.3m-593.2 1.2c1.7.7 4.1 1.6 5.5 2q3 .8-.5-.8c-1.6-.7-4.1-1.6-5.5-2q-3-.8.5.8m-112.6 1.1c.5 1.1 1.7 2.9 2.6 4l1.6 2-1-2c-.5-1.1-1.7-2.9-2.6-4l-1.6-2zm77.1-.1c0 1.1 3 6.6 3.6 6.6.2 0-.3-1.5-1.2-3.3-1.9-3.6-2.4-4.4-2.4-3.3m-106.2 42.4c-.2 23.1 0 41.8.5 41.5s.7-18.7.7-41.1v-40.7l2.1 3.2c2.7 4.2 3.6 4.3 1.2.2-4.3-7.2-4.2-7.4-4.5 36.9m760.8-36.7c-.3 1.7-.5 5.5-.5 8.3.2 4.2.3 3.8.9-2.9.9-8.5.7-10.7-.4-5.4m-600.1-1.2 5.5 1.5q3.6.6 1.5-.3l-5.5-1.5q-3.6-.6-1.5.3m698 15.1c0 13.9.1 14.7.8 7.7.5-4.2.5-11.2 0-15.5-.7-6.9-.8-6.1-.8 7.8m-747.7-10.5a25 25 0 0 0 4.4 5l3.3 3-3.5-4-4.4-5q-.7-.8.2 1m720.3 2.6c.1 2.4.5 5.7.9 7.4q.8 2.5.3-4c-.6-7.9-1.4-10.1-1.2-3.4m-795 .3c1.2 2 2.3 3.6 2.5 3.6.7 0-2.5-5.8-3.6-6.5-.5-.3-.1 1 1.1 2.9m155.1 4.5c2.1 1.8 5.1 4.8 6.8 6.9 1.6 2 3 3.3 3 2.9 0-1.2-9.2-10.7-11.5-11.9q-1.5-.6 1.7 2.1m541.1 4.1c0 2.5.2 3.5.4 2.2a17 17 0 0 0 0-4.5q-.3-1.6-.4 2.3m-610.3-1.5c0 .7 6.1 3.7 6.6 3.3.2-.3-1.2-1.2-3.1-2.1s-3.5-1.5-3.5-1.2m638.5 8.7c.2 4.2.8 8.5 1.5 9.5q1.3 2.5.4-.6c-.3-1.3-1-5.6-1.5-9.5l-.8-7.1zm70.8-1.2c0 2.5.2 3.5.4 2.2a17 17 0 0 0 0-4.5q-.3-1.6-.4 2.3m-786.4-.5c.5 1.1 1.7 2.9 2.6 4l1.6 2-1-2c-.5-1.1-1.7-2.9-2.6-4l-1.6-2zm93.1 0c1.9.7 4.2 1.3 5 1.3q1-.1-2-1.3c-1.9-.7-4.2-1.3-5-1.3q-1 .1 2 1.3m595.1 5.2a38 38 0 0 0 2.5 12.1 40 40 0 0 0-2.5-12.1m-572.1.8c2.4.8 4.6 1.3 4.8 1.1.5-.5-5.9-2.6-7.7-2.5-.9 0 .4.7 2.9 1.4m43.5 14c0 6.4.3 10.6.7 9.3a61 61 0 0 0 0-18.6c-.4-1.3-.7 2.9-.7 9.3M788 1645c.5 1.8 1.2 3.5 1.6 3.9.9.9-.7-5.3-1.7-6.3q-.7-.6.1 2.4m-78-1.2c0 .4 1.6.6 3.5.4s3.5-.6 3.5-.8-1.6-.4-3.5-.4-3.5.4-3.5.8m753.7 7.4c-.9 2.3-1.5 4.3-1.3 4.5s1.1-1.5 2-3.8 1.5-4.3 1.3-4.5-1.1 1.5-2 3.8m-823.4-.7c.9 1.6 2.3 3.9 3.2 5q1.4 1.5-.6-2c-2.7-4.9-4.7-7.2-2.6-3m96.7-2.1c0 1.1 3 6.6 3.6 6.6.2 0-.3-1.5-1.2-3.3-1.9-3.6-2.4-4.4-2.4-3.3m-25.9 4.6c0 .8.6 2.8 1.4 4.5 1.7 3.9 1.8 2.1 0-2.5q-1.2-3-1.4-2m719.8 1.6c-1.3 1.5-4.4 4-6.8 5.5-2.5 1.6-4 2.9-3.4 2.9a38 38 0 0 0 11.2-8.4c1.4-1.4 2.2-2.6 1.9-2.6-.2 0-1.5 1.2-2.9 2.6m-82.2.1c.7 2 3.3 6 3.3 5.2 0-.9-3.1-6.9-3.5-6.9q-.4.2.2 1.7m-208.9.8c1.1 2.2 4.8 5.8 7.2 6.9q1.2.6-1-1.3a36 36 0 0 1-4.8-4.8q-2.1-2.4-1.4-.8m-493.9 4c.5 1.1 1.7 2.9 2.6 4l1.6 2-1-2c-.5-1.1-1.7-2.9-2.6-4l-1.6-2zm811.2 4.2q-3 4.3-1.5 3.1c1.8-1.6 5.9-7.8 5.1-7.8-.2 0-1.8 2.1-3.6 4.7m-740.4 3.4a18 18 0 0 0 3.2 4.2c.8.7.2-.7-1.4-3.1-3.2-4.9-4.5-5.7-1.8-1.1m37.3-2.2c.8.5 3.8 1.1 6.5 1.4 2.9.3 4.2.2 3-.2-2.8-1.1-11.4-2.2-9.5-1.2m399.8.3c2.3.9 15.4.9 16.9 0 .6-.4-3.3-.7-8.8-.7-5.4 0-9.1.3-8.1.7m243.7-.1c1.1.4 5.2.8 9 .8 8.9-.1 7.4-.6-3-1.2-4.4-.2-7.1-.1-6 .4m-629.7.6c1.2.2 3 .2 4 0q1.2-.5-2.3-.4t-1.7.4m-116.9 1.8c.5 1.1 1.7 2.9 2.6 4l1.6 2-1-2c-.5-1.1-1.7-2.9-2.6-4l-1.6-2zm471.1 7.7c2.4 2.7 4.5 4.8 4.7 4.8.8 0 0-.9-4.4-5l-4.8-4.5zm78.9.5-3.4 3.8 3.8-3.4c3.4-3.3 4.2-4.1 3.4-4.1-.2 0-1.9 1.7-3.8 3.7m-478.9-1.8c0 .5 1.6 2.1 3.5 3.5 1.9 1.5 3.5 2.5 3.5 2.3s-1.6-1.8-3.5-3.6c-1.9-1.7-3.5-2.7-3.5-2.2m-65.5 3a10 10 0 0 0 2.5 3.6c.5.3.1-1-1.1-2.9-2.5-4.3-3.6-4.8-1.4-.7m536 4.7c-2.2 1.3-3.5 2.4-3 2.4 1.2 0 7.5-3.8 7.5-4.5 0-.6.2-.7-4.5 2.1m178.5-2.1c0 .7 8.1 4.7 8.6 4.3.2-.3-1.7-1.4-4.1-2.6-2.5-1.2-4.5-2-4.5-1.7m65 2c-2.5 1.3-4.1 2.4-3.7 2.5a31 31 0 0 0 8.7-4.5c0-.7 0-.7-5 2m-706-1c0 .7 6.1 3.7 6.6 3.3.2-.3-1.2-1.2-3.1-2.1s-3.5-1.5-3.5-1.2m64 1.5c-1.9 1.1-3.1 1.9-2.7 2 1.1 0 6.7-2.9 6.7-3.5s-.1-.7-4 1.5m-48 5c2.5.8 10.7 1.3 9.9.6-.2-.2-3.1-.6-6.4-.9q-5.7-.5-3.5.3m30 0-4.5.7 4 .1c2.2 0 5.1-.4 6.5-.8 3.2-1 .5-1-6 0m367 0c2.5.8 10.7 1.3 9.9.6-.2-.2-3.1-.6-6.4-.9q-5.7-.5-3.5.3m246 0c2.5.8 10.7 1.3 9.9.6-.2-.2-3.1-.6-6.4-.9q-5.7-.5-3.5.3m28.5 0-4 .7 3.5.1c1.9 0 4.6-.4 6-.8 3.2-1 .2-1-5.5 0m-655.7 1.7c1.2.2 3.2.2 4.5 0q1.6-.3-2.3-.4c-2.5 0-3.5.2-2.2.4m398.5 0c1.5.2 3.7.2 5 0s0-.4-2.8-.4-3.8.2-2.2.4m243.5 0c1.2.2 3.2.2 4.5 0q1.6-.3-2.3-.4c-2.5 0-3.5.2-2.2.4m-158.7 69.4c-1.8.6-3.1 1.2-2.9 1.4s2.6-.2 5.3-1c2.8-.7 4.1-1.3 3-1.3s-3.5.4-5.4.9m40.4.4c2.7.8 5.1 1.2 5.3 1 .5-.5-6.9-2.5-8.8-2.4-.8 0 .7.7 3.5 1.4m552.6-.4c-1.8.6-3.1 1.2-2.9 1.4s2.6-.2 5.3-1c2.8-.7 4.1-1.3 3-1.3s-3.5.4-5.4.9m37.9-.1c3.4 1.1 6 1.1 3.5 0-1.1-.5-2.9-.8-4-.8q-2.4 0 .5.8m-1340.8 44.2.3 44.3.2-43.7.3-43.7 13.3-.4 13.2-.3-13.7-.2-13.8-.2zm89.5-43.5 13.3.4.3 42.7.2 42.7.3-43.3.2-43.2-13.7.2-13.8.2zm41.5 64.5.3 65.3h24l.3-41.3c.1-27.9.6-41.2 1.3-41.2q.8-.1.4-1c-2.1-3.4-2.5 3.5-2.5 41.6v41.5l-11.2-.3-11.3-.3-.3-64.3-.2-64.2h12.3c8.4 0 12.7.4 13.7 1.2q1.8 1.7.1-.5c-1.2-1.5-3.1-1.7-14.2-1.7H666zm78.8-23.1c0 37.6-.2 42-1.5 40.9q-1.8-1.7-.9.4.6 1.5 2 1.6c1.2 0 1.4-6.8 1.4-42v-42h23v129h-12.2c-10.1 0-12.5-.3-14.2-1.8l-2.1-1.7 1.9 2.3c1.9 2.2 2.5 2.2 14.5 2l12.6-.3.3-65.3.2-65.2h-25zm51.2 23.1.3 65.3 12.4.3c6.8.1 12.8-.1 13.2-.5.5-.4-5-.7-12.1-.5l-13 .3v-129l13.3-.4 13.2-.3-13.8-.2-13.7-.2zm52.5-64.5 14.2.4 1.1 3.5c.7 1.9 1.4 3.3 1.7 3.1.2-.3-.3-2.1-1.1-4.1l-1.5-3.6-14.3.2-14.3.2zm82.8 0c12.1.7 24.3.7 23.8 0-.2-.4-6.8-.6-14.6-.5s-11.9.3-9.2.5m37 .5c-.3.7-.4 30.1-.3 65.3l.3 64 48.9.3c27 .1 49.3-.1 49.7-.5s-21.5-.7-48.6-.5l-49.5.2v-129l48.3-.3 48.2-.2-48.3-.3c-37.9-.1-48.4.1-48.7 1m121 0c-.3.7-.4 30.1-.3 65.3l.3 64 12.4.3q12.3.3 13.7-.9c1.1-.9 1.4-6.2 1.4-27.5v-26.3l4.3-.4 4.2-.4-4.5.1-4.5.1-.5 27-.5 27-12.7.3-12.8.3v-129.2l39.2.3c21.5.2 37.4 0 35.2-.4a644 644 0 0 0-39.2-.7c-27.3-.1-35.4.2-35.7 1.1m264.5-.5 13 .4-.2 64.2-.3 64.2-13 .5-13 .6 12.6.2c9.7.2 12.9-.1 13.8-1.2.8-.9 1-18.9.9-65.2l-.3-63.9h-13.3l-13.2-.1zm28.7 0c-.9.8-.9 18.6-.1 20.7.5 1.4 3.2 1.6 19.5 1.6h18.9l.2 53.7.3 53.8h26l.3-53.7.2-53.8 18.8-.2 18.7-.3.3-11.3.3-11.2h-51.4c-28.3 0-51.7.3-52 .7m102.3 10.8v10.5l-18.7.2-18.8.3-.3 53.7-.2 53.8h-25v-108l-19.2-.2-19.3-.3-.3-10.3-.3-10.2H1485zm41.7-10.8c-.3.5 5.9.7 13.7.5l14.2-.3 1.3 3.6c.7 2 1.5 3.5 1.7 3.2s-.3-2-1.1-4l-1.5-3.7h-14c-7.6 0-14.1.3-14.3.7m94 0c-.4.3-.7 29.5-.7 64.9 0 57.6.2 64.2 1.6 64.8.9.3 7 .5 13.7.4l12.2-.2-13-.6-13-.5-.3-64.3-.2-64.3 39.2.3c21.5.2 37.4 0 35.2-.4-5-.9-73.9-1-74.7-.1m130 0c-.4.3-.7 29.5-.7 64.9 0 57.6.2 64.2 1.6 64.8 2.3.9 25.4.7 25.4-.2 0-.4-5.7-.7-12.7-.7h-12.8l-.3-64.2-.2-64.2 13.2-.4 13.3-.3-13.1-.2c-7.2-.1-13.4.1-13.7.5m-826.1 6.9c-.9 2.6-1.4 4.9-1.2 5.1s1.1-1.7 2-4.3 1.4-4.9 1.2-5.1-1.1 1.7-2 4.3m249.5-4.2c1 .9 8.9 4.6 8.9 4.1a33 33 0 0 0-8.6-4.5q-.6 0-.3.4m122.9 1.3c1.4 1 4.8 3.8 7.5 6.3l5 4.4-4.2-4.5a40 40 0 0 0-7.5-6.2q-4.6-2.6-.8 0m226.1 3.4c-.6 1.8-.9 3.4-.7 3.6s.9-1 1.5-2.8.9-3.4.7-3.6-.9 1-1.5 2.8m-295.4 2.8c-1.9 2.2-4 5-4.6 6.3q-1.8 3.4.6-.2c1-1.4 3.3-4.2 5.2-6.2 1.8-2.1 3.1-3.8 2.8-3.8-.2 0-2.1 1.8-4 3.9m489.3.6 4.8 5.5q.4.3-.6-1.5c-.6-1.1-2.7-3.6-4.8-5.5-3.6-3.3-3.6-3.3.6 1.5m99.3 1.1-4.8 4.6 5.3-4.3c2.8-2.3 5.2-4.4 5.2-4.6 0-.8-1.2 0-5.7 4.3m-627.8 1.4q6.5 9.7 3.2 3.5c-.9-1.7-2.8-4.4-4.2-6q-2.5-2.8 1 2.5m710-4.3 5.5 4.9q4.5 3.8 2 1a43 43 0 0 0-5.5-4.9q-2.6-1.8-2-1m-338.4 4.8c0 .5.9 2.8 2 5q1.6 3.5 1.3 1.5c-.7-2.8-3.3-8-3.3-6.5m248.1 7.2c-2.6 3.8-3.4 5.3-2.9 5.3a23 23 0 0 0 3.1-4c2.9-4.5 2.8-5.6-.2-1.3m-554.7-.2q-5.9 2.7 2.5.1 4-1.4 2.5-1.5c-1.1 0-3.3.6-5 1.4m471.4 4c.9 2.9 1.8 5.2 2 5 .5-.6-2-9.5-2.9-10-.4-.2 0 2 .9 5m127.6-4.8c-4.2.9-8.6 2.5-8.2 2.9.2.3 1.7 0 3.3-.6a56 56 0 0 1 10.4-1.9c6.9-.8 7-.8 2-.9-3 0-6.4.2-7.5.5m-933.9 4.9c-.9 2.6-1.4 4.9-1.2 5.1s1.1-1.7 2-4.3 1.4-4.9 1.2-5.1-1.1 1.7-2 4.3m111.2-3.9-34.8.3.2 14.8.2 14.7.3-14.3.4-14.2h34.4c22.3 0 34.5-.4 34.5-1q0-1-.2-.8c-.2.2-15.9.4-35 .5m836.3-.3c.2.2 2 .6 3.9 1q3.7.6 2-.4c-1.4-.9-6.9-1.5-5.9-.6m-1160.2 2.1c.5 1.1 1.7 2.9 2.6 4l1.6 2-1-2c-.5-1.1-1.7-2.9-2.6-4l-1.6-2zm136.7.5c.3 1.4 1.1 3.2 1.6 4q1 1.5.2-1c-.3-1.4-1.1-3.2-1.6-4q-1-1.5-.2 1m273.6 14.7.3 16.8h12.8l12.7.1-12.5-.3-12.5-.4V1781l19.3-.3 19.2-.2-19.8-.3-19.7-.2zm540.6-16c5.7.2 14.7.2 20 0 5.3-.1.7-.3-10.3-.3s-15.4.2-9.7.3m-710.7 3.4c-.6 1.8-.9 3.4-.7 3.6s.9-1 1.5-2.8.9-3.4.7-3.6-.9 1-1.5 2.8m273.5-1.4c-.4.9-.9 4.4-1.1 7.7l-.4 6.1.8-5.2 1.5-7.8c.7-2.8.2-3.4-.8-.8m-55.6 2.9c1.9 2.2 3.7 3.9 3.9 3.8.6-.5-2.7-4.6-5.1-6.2q-2.5-1.7 1.2 2.4m531.5.2c2.8 3.1 3 3.9 3 10.7s-.2 7.6-3 10.7l-3 3.3 3.5-3.3c3.4-3.1 3.5-3.5 3.5-10.7s-.1-7.6-3.5-10.7l-3.5-3.3zm187.8 2.4a82 82 0 0 1 6.5 7.3q1 1.5-.2-1.1a45 45 0 0 0-11.1-11.4c-.2 0 1.9 2.4 4.8 5.2m31.9.3c1.2 2.4 2.3 4.3 2.6 4.1.4-.5-3.6-8.6-4.3-8.6-.3 0 .5 2 1.7 4.5M873.6 1790c.4 1.4 1.3 3.8 2 5.5q1.6 3.6.8.5c-.4-1.4-1.3-3.9-2-5.5q-1.6-3.6-.8-.5m927.9 1.7c-.8 2-1.3 3.8-1 4.1q.5.4.5 0c0-.3.7-2.2 1.5-4.2s1.3-3.6 1-3.6c-.2 0-1.2 1.6-2 3.7m-486.3-.1c-.2 3.1-.3 3.1-6.3 3.8-3.4.3-9.1.6-12.6.6-5.7 0-6.5-.2-7.3-2.3q-.8-1.9-.9-.7c-.1 4 1.2 4.3 14.5 3.7 7-.4 12.9-.9 13.1-1.1.3-.2.3-1.9 0-3.8l-.4-3.3zm197.5 1.6c-.9 2.3-1.5 4.3-1.3 4.5s1.1-1.5 2-3.8 1.5-4.3 1.3-4.5-1.1 1.5-2 3.8m26.3-2.3c0 .5-.3 1.8-.6 2.8q-.4 1.4.9-.6l1.5-2.4.7 2.2c.9 2.9 1.6 2.3.8-.7-.5-2.1-3.3-3.2-3.3-1.3m-370.7 5.6c0 3.3.2 4.5.4 2.7a30 30 0 0 0 0-6c-.2-1.5-.4 0-.4 3.3m28-2q0 3.5.4 1.7c.2-1.2.2-3 0-4q-.5-1.2-.4 2.3m-348.7 1.5c.3 1.4 1.1 3.2 1.6 4q1 1.5.2-1c-.3-1.4-1.1-3.2-1.6-4q-1-1.5-.2 1m980.9 1.1c-.9 1.7-1.5 3.3-1.3 3.5.3.2 1.2-1.2 2.1-3.1 2.1-4.3 1.3-4.7-.8-.4m-609.5 2a9 9 0 0 0 1 3.9q1 1.7.4-2-1.3-6.6-1.4-1.9m325.6 1.9c.3 1.4 1.1 3.2 1.6 4q1 1.5.2-1c-.3-1.4-1.1-3.2-1.6-4q-1-1.5-.2 1m26.5-1.8c-.1 1.2 3.1 8.9 3.5 8.5.3-.2-.4-2.4-1.5-4.8s-2-4.1-2-3.7m349.5 4.5 1.4 11 .9 6.8-.5-8a61 61 0 0 0-1.4-11q-1.2-4.2-.4 1.2m-195.4 1.5c-.6 2.3-.9 4.4-.7 4.6s.9-1.5 1.5-3.8.9-4.4.7-4.6c-.2-.3-.9 1.4-1.5 3.8m-191.1-.1c-.6 1.8-.9 3.4-.7 3.6s.9-1 1.5-2.8.9-3.4.7-3.6-.9 1-1.5 2.8m-27 2c-.6 1.8-.9 3.4-.7 3.6s.9-1 1.5-2.8.9-3.4.7-3.6-.9 1-1.5 2.8m386.6.4c.3 2.2.7 4.2.9 4.4.8.9.2-4.5-.6-6.4q-1-2.2-.3 2m-1014.5-2c0 .5.6 2.6 1.3 4.5q1.2 3 1.4 2c0-.8-.6-2.9-1.4-4.5q-1.2-2.7-1.3-2m-157.3 2c.5 1.1 1.7 2.9 2.6 4l1.6 2-1-2c-.5-1.1-1.7-2.9-2.6-4l-1.6-2zm550.6.1c2.8.7 5.5 1.3 6 1.3 1.7-.2-6.9-2.7-9-2.7-1.1 0 .3.6 3 1.4m524.1 4c-.8 6-.7 19.8.2 24.8.4 2.2.7-3.5.7-12.8l-.1-16.6zm-944-1.6c.4 1.4 1.3 3.8 2 5.5q1.6 3.6.8.5c-.4-1.4-1.3-3.9-2-5.5q-1.6-3.6-.8-.5m371.1.8a33 33 0 0 0 5.2 6.5l3.5 3.2-3.4-4c-1.9-2.2-4.3-5.1-5.3-6.5-1.7-2.4-1.7-2.4 0 .8m-528.8-.3c.5 1.1 1.7 2.9 2.6 4l1.6 2-1-2c-.5-1.1-1.7-2.9-2.6-4l-1.6-2zm365.1 9.2c-.3 6.2-.1 10.9.3 10.4s.6-5.5.5-11.2l-.3-10.4zm133-10a18 18 0 0 1-2.6 4.9c-1.5 2.1-1.9 3.2-1 2.4 2.1-1.7 4.9-7 4.2-7.8q-.5-.4-.6.5m-43 2.3-7.5.6 7 .1c3.9.1 7.9-.2 9-.7q1.7-.8.5-.7zm140 .4c1.4.7 3.6 1.6 5 2q2 .3-1.5-1.3c-4.5-2.2-7.3-2.7-3.5-.7m387.5-.2c-6 .4-15.4.7-20.8.6-5.3-.2-9.7.1-9.7.6 0 1.2 39.7-.1 41.9-1.4q1.4-.9.6-.8zm-769.4 2.9c-.6 1.8-1.1 3.7-1 4.3 0 .6.7-.7 1.5-2.8.8-2.2 1.2-4.1 1-4.3s-.9 1-1.5 2.8m987.3 7.4c0 5.5.1 7.6.3 4.7s.2-7.4 0-10-.3-.2-.3 5.3m-1168.5-7c.5 1.1 1.7 2.9 2.6 4l1.6 2-1-2c-.5-1.1-1.7-2.9-2.6-4l-1.6-2zm850.7.5c.3 1.4 1.1 3.2 1.6 4q1 1.5.2-1c-.3-1.4-1.1-3.2-1.6-4q-1-1.5-.2 1m-27 1c.3 1.4 1.1 3.2 1.6 4q1 1.5.2-1c-.3-1.4-1.1-3.2-1.6-4q-1-1.5-.2 1m-249.1.2c1 .7 4.4 3.5 7.5 6.3l5.5 4.9-4.5-4.8a36 36 0 0 0-7.5-6.2q-2.5-1.2-1-.2m227.1 2.8c-2.2 5.6-1.9 6.5.5 1.1 1.1-2.4 1.8-4.6 1.5-4.8-.2-.2-1.1 1.4-2 3.7m-828.7-1.5c.5 1.1 1.7 2.9 2.6 4l1.6 2-1-2c-.5-1.1-1.7-2.9-2.6-4l-1.6-2zm802.2 1.6c-.6 1.8-.9 3.4-.7 3.6s.9-1 1.5-2.8.9-3.4.7-3.6-.9 1-1.5 2.8m321.2 2.9c0 3.6.2 5 .4 3.2s.2-4.7 0-6.5-.4-.3-.4 3.3m-639.7-1q-7 5.3-3.1 3.2a31 31 0 0 0 7.5-6.1 28 28 0 0 0-4.4 2.9m-299 0c.4 1.4 1.3 3.8 2 5.5q1.6 3.6.8.5c-.4-1.4-1.3-3.9-2-5.5q-1.6-3.6-.8-.5m349-.9c.6 1.1 8.4 5.2 8.9 4.7.2-.2-1.9-1.5-4.6-2.9-2.7-1.5-4.6-2.3-4.3-1.8m-501.3 3.4c.9 1.6 2.3 3.9 3.2 5q1.4 1.5-.6-2c-2.7-4.9-4.7-7.2-2.6-3m125.3-.5c.4 1.4 1.3 3.8 2 5.5q1.6 3.6.8.5c-.4-1.4-1.3-3.9-2-5.5q-1.6-3.6-.8-.5m1064.6 5.6a89 89 0 0 1-1.3 9.8c-.6 3.2-.8 6-.6 6.3.8.8 2.9-13.3 2.4-16.8q-.5-5-.5.7m-673.2-1.1c4.6 1.8 6.4 1.7 2.5 0-1.6-.8-3.7-1.4-4.5-1.4q-1 .2 2 1.4m306.5.8 1.1 4.3.6 2.4h-33.3l.6-2.3q.8-2.5-.4-.7c-2.7 3.8-1.7 4 16.4 4 19.4 0 19.2.1 15.9-6.5q-1.3-2.6-.9-1.2m-560.3 18.9-.2 17.8 36.4.2c20 .2 36.2 0 35.9-.5-.2-.4-16.4-.7-35.8-.7H996l-.3-17.3-.3-17.2zm701.3-15.5c6.5 6.2 14.3 13 12 10.4a62 62 0 0 0-10.9-10q-1.8-1.2-1.1-.4m-428 1.3c1.1.5 2.9.8 4 .8q2.4 0-.5-.8c-3.4-1.1-6-1.1-3.5 0m379.2-.3c-.3.5 3.4.9 8.2.9 7.1.1 7.8 0 4.1-.7-5.9-1-11.8-1.1-12.3-.2m246.4 1.5c0 1.4-.4 3.5-.7 4.5q-.9 2.6.6 0c.6-1 .9-3 .7-4.5l-.4-2.7zm-1182 3.2c1.2 2 2.3 3.6 2.5 3.6.7 0-2.5-5.8-3.6-6.5-.5-.3-.1 1 1.1 2.9m178.5.6c.4 1.4 1.3 3.8 2 5.5q1.6 3.6.8.5c-.4-1.4-1.3-3.9-2-5.5q-1.6-3.6-.8-.5m396.6 1.5c2 1.3 3.8 3 4.1 3.7q.6 1.4.6.1c.1-1.2-5.9-6.3-7.5-6.3-.5 0 .8 1.1 2.8 2.5m-423.6.5c.3 1.4 1.1 3.2 1.6 4q1 1.5.2-1c-.3-1.4-1.1-3.2-1.6-4q-1-1.5-.2 1m723.5-1.8c-.1 1.2 3.1 8.9 3.5 8.5.3-.2-.4-2.4-1.5-4.8s-2-4.1-2-3.7m-871.2 5.3c.5 1.1 1.7 2.9 2.6 4l1.6 2-1-2c-.5-1.1-1.7-2.9-2.6-4l-1.6-2zm520-.6c2.9.5 3.6 1.2 4.3 4 .5 1.8 1.1 3.1 1.3 2.9.3-.2 0-2.1-.6-4.1-.9-3.5-1.2-3.7-4.7-3.6l-3.7.2zm442.1 3.5a49 49 0 0 0 4.4 5.4 49 49 0 0 0-6.8-9.6c-.5-.3.6 1.6 2.4 4.2m-459-2.7a17 17 0 0 0-5.3 1.2c-.7.7 11.5-.4 15.3-1.3 1.9-.5-4-.4-10 .1m100.3 5.3c0 3.6.2 5 .4 3.2s.2-4.7 0-6.5-.4-.3-.4 3.3m-421.8-2.1c-.4 1.7-1.1 3.1-1.6 3.1q-.8.1-.9 1.1 0 1.2 1.4 0c1.5-1.2 3-6 2.2-6.8q-.4-.1-1.1 2.6m25.6.2c-.6 1.8-.9 3.4-.7 3.6s.9-1 1.5-2.8.9-3.4.7-3.6-.9 1-1.5 2.8m903.9-2.7c0 1.1 3 6.6 3.6 6.6.2 0-.3-1.5-1.2-3.3-1.9-3.6-2.4-4.4-2.4-3.3m62.3 4.7c-1.2 2.1-1.7 3.7-1.2 3.3 1.1-.6 4.2-6.4 3.7-6.9-.2-.2-1.3 1.4-2.5 3.6m-89.2.1c-.1 1.2 3.1 8.9 3.5 8.5.3-.2-.4-2.4-1.5-4.8s-2-4.1-2-3.7m-1263.5 5.3c.3 2.7 1.2 6.3 2 8q1.5 3.6.7.5l-1.9-8-1.3-5.5zm648.9-.8c1.5 2.4 3 4.3 3.2 4.3.7 0-3.1-6.1-4.6-7.3-.8-.7-.2.7 1.4 3m-622.5-2.4c0 1.8 3 6.4 6.2 9.2l3.3 3-3.1-3.5a34 34 0 0 1-4.7-6.5q-1.5-2.7-1.7-2.2m1030.1 1.9c-.1 1.2 3.1 8.9 3.5 8.5.3-.2-.4-2.4-1.5-4.8s-2-4.1-2-3.7m-349.3 2.3a25 25 0 0 0 4.4 5l3.3 3-3.5-4-4.4-5q-.7-.8.2 1m43.8 4.4-4 4.6 4.4-4.2c2.4-2.3 4.2-4.4 4-4.6s-2.3 1.7-4.4 4.2m431.3-2.4c.5 1.1 1.7 2.9 2.6 4l1.6 2-1-2c-.5-1.1-1.7-2.9-2.6-4l-1.6-2zm-232.8 2.6c-.6 1.8-.9 3.4-.7 3.6s.9-1 1.5-2.8.9-3.4.7-3.6-.9 1-1.5 2.8m28.4-2q-.6 1-.1 1.6.5.5.6-.5c0-.9 6.8-1.2 25.9-1.2h25.9l1.2 3.6c.7 1.9 1.4 3.3 1.7 3.1.2-.3-.3-2.1-1.1-4.1l-1.5-3.6h-26q-26 0-26.6 1.1m-879.3 3.6c-1.5 4.8-.8 5.5.8.8.7-2 1-3.8.8-4.1-.3-.2-1 1.3-1.6 3.3m90.7-2.2c.5 1.1 1.7 2.9 2.6 4l1.6 2-1-2c-.5-1.1-1.7-2.9-2.6-4l-1.6-2zm192.2 1.6c-.6 1.8-.9 3.4-.7 3.6s.9-1 1.5-2.8.9-3.4.7-3.6-.9 1-1.5 2.8m271.8-.6c.5 1.1 1.7 2.9 2.6 4l1.6 2-1-2c-.5-1.1-1.7-2.9-2.6-4l-1.6-2zm615.8 1.6a18 18 0 0 0 3.2 4.2c.8.7.2-.7-1.4-3.1-3.2-4.9-4.5-5.7-1.8-1.1m-588.7-1.7c0 1.1 3 6.6 3.6 6.6.2 0-.3-1.5-1.2-3.3-1.9-3.6-2.4-4.4-2.4-3.3m295.1 3.7c-.6 1.8-.9 3.4-.7 3.6s.9-1 1.5-2.8.9-3.4.7-3.6-.9 1-1.5 2.8m393.5 6.7c-5.8 6.4-6.1 6.9-1.7 2.7 4.5-4.3 9.9-10.6 8.9-10.5zm-624.8-6.3c-.3.3-2.5.9-4.9 1.4q-5.1 1-1.4.9c2.8.1 10.3-2.5 7.9-2.7q-1-.1-1.6.4m443.1 1c.5 1.1 1.7 2.9 2.6 4l1.6 2-1-2c-.5-1.1-1.7-2.9-2.6-4l-1.6-2zm144.1-.3c-1.9.6-7.1.8-11.5.6q-8.2-.6-5.5.4c3.2 1.3 17.9.5 20.5-1q3.6-2.1-3.5 0m-1289.5.9c1.1.4 5.4.8 9.5.8 9.5-.1 8-.6-3-1.2-4.7-.2-7.6 0-6.5.4m679-.1c1.9.8 7.3 1.4 6.4.6-.2-.2-2.2-.6-4.4-.9q-4.2-.7-2 .3m-62.6 2.5c.5 1.1 1.7 2.9 2.6 4l1.6 2-1-2c-.5-1.1-1.7-2.9-2.6-4l-1.6-2zm619.1 3.7c4.1 4.5 5 5.3 5 4.5 0-.2-2.1-2.3-4.7-4.7l-4.8-4.5zm-1270.2.5c1.1 1.6 3 3.7 4.3 4.8q1.7 1.5-1.6-2.8c-4.3-5.2-5.7-6.3-2.7-2m765.7 2q-3.3 4.3-1.6 2.8c2.3-1.9 6.6-7.5 5.9-7.5-.2 0-2.1 2.1-4.3 4.7m171.2-.5c-.9 2.3-1.5 4.3-1.3 4.5s1.1-1.5 2-3.8 1.5-4.3 1.3-4.5-1.1 1.5-2 3.8m-605.1-1.2c.3 1.4 1.1 3.2 1.6 4q1 1.5.2-1c-.3-1.4-1.1-3.2-1.6-4q-1-1.5-.2 1m697 0c.3 1.4 1.1 3.2 1.6 4q1 1.5.2-1c-.3-1.4-1.1-3.2-1.6-4q-1-1.5-.2 1m-660 3.6c-.9 2.6-1.4 4.9-1.2 5.1s1.1-1.7 2-4.3 1.4-4.9 1.2-5.1-1.1 1.7-2 4.3m816.3-3.1c.5 1.1 1.7 2.9 2.6 4l1.6 2-1-2c-.5-1.1-1.7-2.9-2.6-4l-1.6-2zm-560.2 4.6a18 18 0 0 0 3.2 4.2c.8.7.2-.7-1.4-3.1-3.2-4.9-4.5-5.7-1.8-1.1m57.3-2.8c0 .3 1.7 1.7 3.7 3.3s3.3 2.3 2.9 1.6c-.8-1.3-6.6-5.6-6.6-4.9m281.1 2.8c-.6 1.8-.9 3.4-.7 3.6s.9-1 1.5-2.8.9-3.4.7-3.6-.9 1-1.5 2.8m-205.4 2.8c-4.1 2.6-4.6 3.6-1 1.7 1.7-.9 3.5-2 3.8-2.6.8-1.3.6-1.2-2.8.9m432.7 1.6c2.9 4.5 2.5 4.6-13.8 4.3-8.5-.2-15.2 0-14.9.4.6 1.1 31 1 31.7 0 .5-.8-3.2-7.2-4.1-7.2q-.3.2 1.1 2.5m156.6-.5c-1.9 1.1-3.1 1.9-2.7 2 1.1 0 6.7-2.9 6.7-3.5s-.1-.7-4 1.5m-285.5 2.7.6 2.3h-13.3c-9.3 0-13.8-.4-14.8-1.3q-1.8-1.5-.1.5c1.2 1.6 3.2 1.8 14.7 1.8 7.7 0 13.5-.4 13.9-1 .3-.5.1-1.8-.5-2.7q-1.3-2.4-.5.4m-432.5-.4c0 .3.7 1.3 1.6 2.1 1.3 1.3 4.2 1.6 16.4 1.6 8.2 0 15.1-.3 15.3-.8s-6.2-.6-14.5-.4c-13 .3-15.3.1-16.9-1.4q-1.8-1.5-1.9-1.1m-567 2.8c-5.5 1.6-5.8 1.7-2 1.3 2.5-.4 5.9-1.2 7.5-1.9q6.2-2.7-5.5.6m274-1.3c0 .5.7 1.3 1.6 1.6 2.3.9 27.2.7 27.7-.2.3-.4-5.6-.6-13-.4-9.3.2-13.9-.1-14.9-.9q-1.3-1-1.4-.1m364.5.6c1.7.8 5 1.6 7.5 1.9l4.5.6-5-1.3-7.5-1.9q-3-.8.5.7m47.3-.9c-.2.3-3.3 1.2-6.9 2-5.9 1.3-6 1.4-1.4.9 4.6-.6 12.4-3.1 9.9-3.3q-1-.1-1.6.4m184.5.5c.3 1.2 2.8 1.6 13.1 1.8 7 .1 13.3-.1 14.1-.5a40 40 0 0 0-12.2-.5c-10.5.3-13.8.1-14.5-1q-1.2-1.6-.5.2m361.2.4c1.7.8 5 1.6 7.5 1.9l4.5.6-5-1.3-7.5-1.9q-3-.8.5.7m-1273 .5c1.1.5 4 1.1 6.5 1.5q4.5.6 2-.3c-3.7-1.2-10.9-2.2-8.5-1.2m1312.5.1q-3 .8-.5.8c1.1 0 2.9-.3 4-.8 2.5-1.1-.1-1.1-3.5 0m-1292.7 2.7c2 .2 5.4.2 7.5 0s.3-.4-3.8-.4-5.8.2-3.7.4m680 0c2 .2 5.4.2 7.5 0s.3-.4-3.8-.4-5.8.2-3.7.4m592.5 0c1.7.2 4.7.2 6.5 0s.3-.4-3.3-.4-5 .2-3.2.4m-215.6 92 66.8.3.2 166.8.3 166.7 10.5.1h10.5l-10.2-.3-10.3-.4-.2-166.7-.3-166.7h-134zm-946.9 2.9q3.2 4 0 7.6c-2 2.2-1.1 2.4 1.1.2s2-5.8-.6-8q-3.3-2.9-.5.2M1606 2050c0 30.8-.4 56-.8 56s-1.4-.6-2.2-1.3q-1.8-1.6-.1.5c.7 1 2 1.8 2.7 1.8 1.2 0 1.4-9.2 1.4-56.5 0-31.1-.2-56.5-.5-56.5s-.5 25.2-.5 56M532.2 2154.7c.2 87.9.4 139.5.5 114.8.7-115.9.7-274.5.1-274.5-.4 0-.7 71.9-.6 159.7m105.6-.2c.1 87.7.5 159.5 1 159.5s.6-71.8.4-159.5-.5-159.5-1-159.5-.6 71.8-.4 159.5m1488-71.8c1.2.2 3 .2 4 0q1.2-.5-2.3-.4t-1.7.4m28 0c1.2.2 3.2.2 4.5 0q1.6-.3-2.3-.4c-2.5 0-3.5.2-2.2.4m-42.6 1.5c-3 .5-5.1 1.2-4.9 1.4a51 51 0 0 0 13.7-2.2c0-.6-2.6-.3-8.8.8m54.8-.2c1.4.4 3.6.8 5 .8q3.4.1-.5-.8a27 27 0 0 0-5-.8q-2.4 0 .5.8m-1241 1c-1.9.4.8.5 6 .2s9.7-.6 9.9-.8c.8-.7-12.3-.2-15.9.6m47.1-.6c.2.2 4.5.6 9.4.9q9.1.4 5-.3c-4-.9-15.2-1.3-14.4-.6m137.8 1.7-2.4 2.1 2.5-1.6c2.2-1.4 9.6-1.6 63.7-1.6h61.3v21.5c0 11.8.3 21.5.8 21.5.7 0 .5-40.5-.3-42.8-.3-.9-13.6-1.2-61.9-1.2-60.7 0-61.4 0-63.7 2.1m200.3-1.4c7 .2 18.7.2 26 0 7.3-.1 1.6-.3-12.7-.3s-20.3.2-13.3.3m41.6 1c1.2.2 3.2.2 4.5 0q1.6-.3-2.3-.4c-2.5 0-3.5.2-2.2.4m589.9 0c1.8.2 5 .2 7 0 2.1-.2.7-.4-3.2-.4-3.8 0-5.5.2-3.8.4m-421.9 1c1.2.2 3 .2 4 0q1.2-.5-2.3-.4t-1.7.4m33 0c1.2.2 3 .2 4 0q1.2-.5-2.3-.4t-1.7.4m324.4 20.5c-.1 11.5.1 20.8.6 20.8q.8-.2 2.1-2.3 2-2.9-.2-.8c-1.5 1.2-1.7-.3-2-18.5l-.2-19.9zm-873.2-17.7c1.9.7 4.2 1.3 5 1.3q1-.1-2-1.3c-1.9-.7-4.2-1.3-5-1.3q-1 .1 2 1.3m362.1-1.1c1 .9 8.9 4.6 8.9 4.1a33 33 0 0 0-8.6-4.5q-.6 0-.3.4m134.5 1.2c-2.6.9-4.6 1.7-4.4 1.9s3.1-.4 6.3-1.4c3.3-1.1 5.3-1.9 4.5-1.9-.8-.1-3.7.6-6.4 1.4m420.9.3c-2.2 1.1-3.5 1.9-3 1.9 1.4.1 9.3-3.6 8-3.7-.5 0-2.8.8-5 1.8m42.5-1.1c.8.5 2.6 1.3 4 1.6q2.5.7 1-.2c-.8-.5-2.6-1.3-4-1.6q-2.5-.7-1 .2m129.5.7q-3.7 1.7-.5.9c2.8-.7 6-2.3 4.5-2.3-.5 0-2.3.6-4 1.4m295.2-.5c21.8 1.9 22 2 17.8 1-2.2-.5-9.2-1.1-15.5-1.4-11.3-.5-11.3-.5-2.3.4m84.8.9c-3.3 2-8.3 7.1-7.1 7.1q1-.2 2.8-2.5c1.1-1.4 3.6-3.4 5.6-4.5 2.1-1 3.3-1.9 2.7-2-.5 0-2.3.8-4 1.9m-1366.4 1.7c0 1.6.6 3.9 1.5 5q1.3 1.5.8.4c-.4-.8-1.1-3-1.5-5q-.8-5.2-.8-.4m1081.9-1.8c.8.5 2.6 1.3 4 1.6q2.5.7 1-.2c-.8-.5-2.6-1.3-4-1.6q-2.5-.7-1 .2m178.5.2c-1.8.5-.2.6 4 .3a46 46 0 0 0 7.4-.9c.8-.7-8.4-.2-11.4.6m-1351.4 3.5c.9.8 7.9 3.5 7.9 3a11 11 0 0 0-3.6-2q-5.5-2.3-4.3-1m252.7 1.6a16 16 0 0 0-3.8 2.4c0 .5 7.9-3.2 8.9-4.1 1.2-1.1-1.8-.1-5.1 1.7m111 1.4c2.3 2 5.8 5.5 7.8 7.8s3.2 3.3 2.6 2.2a73 73 0 0 0-13.8-13.5c-.4 0 1.1 1.6 3.4 3.5m203.3-3.1c1 .9 8.9 4.6 8.9 4.1a33 33 0 0 0-8.6-4.5q-.6 0-.3.4m615 0c1 .9 8.9 4.6 8.9 4.1a33 33 0 0 0-8.6-4.5q-.6 0-.3.4m-1308.3 2.2c-3.9 2.1-3.5 2.8.5.8 3.7-1.9 4.4-2.4 3.1-2.4-.5.1-2.1.8-3.6 1.6m596 0c-3.9 2.1-3.5 2.8.5.8 3.7-1.9 4.4-2.4 3.1-2.4-.5.1-2.1.8-3.6 1.6m860.7-.1c-3.9 1.7-2.1 1.8 2.5 0q3-1.2 2-1.4c-.8 0-2.8.6-4.5 1.4m80.5 0c1.9.7 4.2 1.3 5 1.3q1-.1-2-1.3c-1.9-.7-4.2-1.3-5-1.3q-1 .1 2 1.3m-354.3 3.9c-4.8 2.9-6.1 4.3-2.2 2.3 3.1-1.6 7.4-4.6 6.5-4.6-.3 0-2.2 1-4.3 2.3m69.1-1.7c1.2.2 3.2.2 4.5 0q1.6-.3-2.3-.4c-2.5 0-3.5.2-2.2.4M1777 2207v108.9l-14.2.4-14.3.3 14.8.2 14.7.2v-109.5c0-60.2-.2-109.5-.5-109.5s-.5 49-.5 109m-653.7-107.3 10.7.4v215.8l-11.2.4-11.3.3 11.8.2 11.7.2v-218l-11.2.2-11.3.2zm353 1.4c-3.5 2.2-4.6 3.7-1.5 2 2.2-1.3 5.8-4 5.2-4.1-.3 0-2 1-3.7 2.1m857.5 0a16 16 0 0 0-3.8 2.4c0 .3 1.8-.4 4-1.5a16 16 0 0 0 4-2.5c0-.7 0-.7-4.2 1.6m59.7-1.1c6.6.4 13.4 1 15 1.4q4.2 1 .5-.5c-1.4-.6-8.1-1.3-15-1.4l-12.5-.3zm-1442.4.4c.2.2 2.9.6 5.9.9q5.4.6 3-.3c-2.5-.8-9.7-1.3-8.9-.6m1421.9.6q-2.6.9 2.5.3c2.8-.3 5.2-.7 5.4-.9.8-.7-5.4-.2-7.9.6m-1499.6 4.2q-6.2 4.6-2.9 3c2.6-1.5 7.2-5.1 6.4-5.2-.4 0-1.9 1-3.5 2.2m1019 5c-6.5 6.8-14.3 15.7-9.8 11.3a381 381 0 0 0 17.3-18.5c-.2 0-3.6 3.3-7.5 7.2m-921.4-4.5c1.4 1 4.3 3.4 6.5 5.3l4 3.4-3.2-3.5a33 33 0 0 0-6.5-5.2q-4.6-2.5-.8 0m-38.8 3.9-4.7 4.7 5-4.3 5.4-4.7q.3-.3-.3-.3a31 31 0 0 0-5.4 4.6m629.3-3.1q-3.4 1.6-.5.7c1.4-.4 7.4-.7 13.4-.7s9.8-.3 8.5-.6a54 54 0 0 0-21.4.6m30.8 4.5c2.5 1.6 6 4.8 7.7 7.1 1.6 2.3 3 3.8 3 3.4 0-2.7-11.4-13.5-14.3-13.5-.6 0 1 1.3 3.6 3m756.4-.5c-2 1.4-3.7 2.8-3.7 3.1 0 .2 1.8-.8 4-2.2q5.2-3.4 3.7-3.4zm80.8-1c1.1.9 2.9 2.1 4 2.6l2 1-2-1.6c-1.1-.9-2.9-2.1-4-2.6l-2-1zm-513.2 1c-1.8.8-3.3 1.6-3.3 1.9 0 .5 7.1-2.2 7.9-3s-1.5-.3-4.6 1.1m18.8.2c1.4.9 3.3 2.8 4.2 4.2q1.5 2.3 1.7 1.4c0-1.5-5.8-7.3-7.3-7.3q-.9.2 1.4 1.7m114.3 7.5c-4.9 5.1-9.8 10.4-10.9 11.8-2.3 3-1.8 2.5 11-10.8 5.4-5.6 9.7-10.2 9.4-10.2s-4.5 4.2-9.5 9.2m430 10.3c0 11 .2 15.6.3 10.3.2-5.3.2-14.3 0-20-.1-5.7-.3-1.3-.3 9.7m-1018.9-14.3-4 4.3 4.3-4c3.9-3.6 4.7-4.5 3.9-4.5-.2 0-2.1 1.9-4.2 4.2m91.8-2c-1.1 1.3-2.4 3-2.8 3.8-.8 1.6-.6 1.4 3.4-3.3 1.4-1.5 2.2-2.7 1.9-2.7-.2 0-1.4 1-2.5 2.2m887.7 4.7c2.5 2.3 5.4 4.6 6.5 5.2s0-.6-2.4-2.7c-6.3-5.5-9.5-7.5-4.1-2.5m-1585.6 4.3c-6 6.3-13.6 15.1-9.3 10.8 4.8-4.8 17.2-18 16.8-18-.2 0-3.6 3.3-7.5 7.2m1050.8-4.2a21 21 0 0 0-4.2 3.6c0 .4 5.6-3.4 8.5-5.8 2.3-2-.6-.5-4.3 2.2m212.2-1.3c-.5 1-.9 18.2-1 38.3v36.5l.6-36.5c.3-20.1.9-37.3 1.4-38.3q.7-1.5.3-1.7-.6.2-1.3 1.7m117.1 3.3c2.7 2.7 5.1 5 5.4 5s-1.7-2.3-4.4-5-5.1-5-5.4-5a29 29 0 0 0 4.4 5m75.5-.3c-4 4.5-9.5 11.9-7.3 9.8a174 174 0 0 0 11.9-14.5 39 39 0 0 0-4.6 4.7m-1253 1.8c3 3 5.7 5.5 5.9 5.5s-1.9-2.5-4.9-5.5-5.7-5.5-5.9-5.5 1.9 2.5 4.9 5.5m184.2-2.8c-2.6 3.8-3.4 5.3-2.9 5.3a23 23 0 0 0 3.1-4c2.9-4.5 2.8-5.6-.2-1.3m43.3-2.1 4.5 3.9 3.5 3-2.5-2.8a21 21 0 0 0-4.5-3.9q-1.7-.8-1-.2m717.8 4.4c1.1 2.7 2.3 4.8 2.5 4.6.4-.5-3.5-9.6-4.2-9.6-.2 0 .5 2.2 1.7 5m-548.4 1.7q-4.3 5.3-3.6 5.3c.2 0 1.7-1.6 3.1-3.5 2.8-3.6 3.1-4.9.5-1.8m716.3 33.5-.2 34.8-26.2.3-26.3.2 26.3.3c20.3.1 26.4-.1 26.7-1.1.3-.6.4-16.5.2-35.2l-.2-34zm-772.5-28.7c.3 2.7.7 5.2.9 5.4.8.9.2-6.5-.6-8.4q-.9-1.9-.3 3m501.7-3.3-2.2 3.8q-2.1 3.5.3.5c2-2.4 3.7-5.5 3.1-5.5q-.5.1-1.2 1.2m40.6-.4c0 .6-1.2 2.5-2.7 4.4q-3.3 3.9-.4 1.3c2.7-2.3 4.5-5.4 3.7-6.3q-.5-.4-.6.6m-394.4 3.3c-.8 4.3-.6 162 .2 164.1.4 1 .7-36.3.7-82.7l-.1-84.5zm790.7 1.9c0 2.5.2 3.5.4 2.2a17 17 0 0 0 0-4.5q-.3-1.6-.4 2.3m-731.6-.5c.5 1.6.8 38.4.8 81.8 0 43.3.3 77.4.8 75.7.4-1.6.6-37.5.5-79.7-.2-59.8-.6-77.2-1.6-78.8q-1.5-2.9-.5 1m848.8 2.7a56 56 0 0 0 5.3 5.8c.7 0-5.5-7.4-7.9-9.5-1.3-1.1-.1.6 2.6 3.7m-1159.5-4.1c0 .4.7 2.2 1.5 4q1.3 3 1.4 1.9c0-1.4-2.8-7.2-2.9-5.9m154.4 3.1-2.2 3.8q-2.1 3.5.3.5c2-2.4 3.7-5.5 3.1-5.5q-.5.1-1.2 1.2m467.6.7c-.5 1.1-1 2.6-.9 3.3q.1 1 1.1-1.5 1-2.4 2-2.1 1 .6.4-.4c-1-1.6-1.4-1.5-2.6.7M921.5 2212c0 45.4.1 63.9.2 41.2.2-22.6.2-59.8 0-82.5-.1-22.6-.2-4.1-.2 41.3m1084.9-69c0 6.3.1 8.9.3 5.7.2-3.1.2-8.3 0-11.5s-.3-.5-.3 5.8m-935.9-6.5q6.1 8.5 2.9 2.7a24 24 0 0 0-3.8-5q-1.7-1.3.9 2.3M1297 2225v90.9l-8.2.4-8.3.3 8.8.2 8.7.2v-91.5c0-50.3-.2-91.5-.5-91.5s-.5 40.9-.5 91m955.1-83.5c1.2 2.2 2.6 4.4 3.2 5 1.5 1.6-2-4.8-3.8-7q-1.3-1.5.6 2m-363.6.6c-.9 1.7-1.5 3.3-1.3 3.5.3.2 1.2-1.2 2.1-3.1 2.1-4.3 1.3-4.7-.8-.4m142.9-1.9-2.2 3.8q-2.1 3.5.3.5c2-2.4 3.7-5.5 3.1-5.5q-.5.1-1.2 1.2m-118.1 6.8c0 4.1.2 5.8.4 3.7s.2-5.4 0-7.5-.4-.3-.4 3.8m438.7.5c0 .7 6.1 3.7 6.6 3.3.2-.3-1.2-1.2-3.1-2.1s-3.5-1.5-3.5-1.2m-468.4 5.5c-2.2 5.6-1.9 6.5.5 1.1 1.1-2.4 1.8-4.6 1.5-4.8-.2-.2-1.1 1.4-2 3.7m408 .6c-.4 2-.5 3.8-.3 4s.8-1.1 1.1-3.2c.4-2 .5-3.8.3-4s-.8 1.1-1.1 3.2m-1209.9 1.9c.9 1.9 1.8 3.3 2.1 3.1.4-.5-2.6-6.6-3.3-6.6-.3 0 .3 1.6 1.2 3.5m157.8.5c-.4 1.7-.5 3.4-.2 3.6s.7-1 1.1-2.7c.8-4.2 0-5-.9-.9m197 0c-.4 1.7-.5 3.4-.2 3.6s.7-1 1.1-2.7c.8-4.2 0-5-.9-.9m-609.4 6.1c-.6 1.8-.9 3.4-.7 3.6q.4.1 1.5-2.8c.6-1.8.9-3.4.7-3.6q-.4-.1-1.5 2.8m1560.9-1.6c1.9.7 4.2 1.3 5 1.3q1-.1-2-1.3c-1.9-.7-4.2-1.3-5-1.3q-1 .1 2 1.3m-368.4 4.1c-.9 2.6-1.4 4.9-1.2 5.1s1.1-1.7 2-4.3 1.4-4.9 1.2-5.1-1.1 1.7-2 4.3m-16.9.4c-.8 2.2-1.3 4-1.1 4 .7 0 3.6-7.1 3.1-7.6-.2-.2-1.1 1.4-2 3.6m-916.1 2c.4 1.4 1.3 3.8 2 5.5q1.6 3.6.8.5c-.4-1.4-1.3-3.9-2-5.5q-1.6-3.6-.8-.5m1320.4-.5c1.9.7 4.2 1.3 5 1.3q1-.1-2-1.3c-1.9-.7-4.2-1.3-5-1.3q-1 .1 2 1.3m-529.4 5.6c-.3 1.7-.6 35-.6 74v70.9l15.8-.2 15.7-.2-15.3-.3-15.3-.4.3-73.4.2-73.5zm42.5-.2c2.5 5.3 15.9 17.1 19.4 17.1.4 0-1.8-1.7-5.1-3.8a48 48 0 0 1-13.7-13.2q-2.6-3.7-.6-.1m503.4-.4c1.7.8 3.7 1.4 4.5 1.4q1-.2-2-1.4c-4.6-1.8-6.4-1.7-2.5 0m-428.9 6.3q-4.6 5.3-1.7 2.7c3-2.7 7.7-8.5 6.9-8.5-.2 0-2.5 2.6-5.2 5.8m295.7-.3q0 3.5.4 1.7c.2-1.2.2-3 0-4q-.5-1.2-.4 2.3m149.7-.7c.8.5 2.6 1.3 4 1.6q2.5.7 1-.2c-.8-.5-2.6-1.3-4-1.6q-2.5-.7-1 .2m-1204.8 70.9-.2 69.3 9.8-.2 9.7-.2-9.2-.3-9.3-.4-.3-68.7-.2-68.7zM820.5 2184c-.4 2.3-.5 4.3-.2 4.6s.7-1.4 1.1-3.7.5-4.4.2-4.6-.7 1.4-1.1 3.7m1631.6-2.6a25 25 0 0 0 6.9 3.2 18 18 0 0 0-6.6-3.6q-.6 0-.3.4m-437.8 7.1q0 3.5.4 1.7c.2-1.2.2-3 0-4q-.5-1.2-.4 2.3m-921.6 4c.3 3.8.7 7.2.9 7.4.7.8.2-8.4-.6-11.4-.5-1.8-.6-.2-.3 4m1199.5-3c0 1.1.3 2.9.8 4 1.1 2.5 1.1-.1 0-3.5q-.9-3-.8-.5m-23.1 3.6c0 2.4.4 5.3.9 6.4s.6-.4.3-4c-.7-7.2-1.3-8.5-1.2-2.4m-321.1-.9c1.4.6 6.8 1.1 12 1.1s10.6-.5 12-1.1c2.1-.9 1.8-1-2-.4a77 77 0 0 1-20 0c-3.8-.6-4.1-.5-2 .4m65.4 12.8c0 6.9.1 9.7.3 6.2s.2-9 0-12.5c-.2-3.4-.3-.6-.3 6.3m-1195.1 4c0 4.7.2 6.6.4 4.2s.2-6.1 0-8.5c-.2-2.3-.4-.4-.4 4.3m1477.7-7.6c0 1.1 3 6.6 3.6 6.6.2 0-.3-1.5-1.2-3.3-1.9-3.6-2.4-4.4-2.4-3.3m-1201.7 7.1q0 3.5.4 1.7c.2-1.2.2-3 0-4q-.5-1.2-.4 2.3m1393.4 5c.9 1.9 1.8 3.3 2.1 3.1.4-.5-2.6-6.6-3.3-6.6-.3 0 .3 1.6 1.2 3.5m-180.9 4.2c2.7 3.2 6 6.7 7.3 7.8s-.8-1.5-4.6-5.8-7-7.7-7.3-7.7 1.8 2.6 4.6 5.7m-1213.6 3.3-.7 7.5-.5 4 1.1-4c.5-2.2.8-5.6.6-7.5l-.4-3.5zm920.9.1c.1 1.9.5 4.7 1 6.4q.8 3 .2-3c-.6-6.6-1.4-8.8-1.2-3.4m478.5 4.4c.4 1.6 1.1 3.7 1.5 4.5q.9 1.4.3-1.5a26 26 0 0 0-1.5-4.5q-.9-1.4-.3 1.5M794 2229.4l-1.1 13.6c-.6 6.6-.9 12.7-.7 13.7s1-4.9 1.7-13.1 1-15.1.7-15.4q-.5-.3-.6 1.2m26.1-.2c-.1 2.3 2 12 2.5 11.5.2-.2-.2-3.3-1-6.8s-1.4-5.6-1.5-4.7m1499.4.3c1.1.9 2.9 2.1 4 2.6l2 1-2-1.6c-1.1-.9-2.9-2.1-4-2.6l-2-1zm8.5 5c0 .7 8.1 4.7 8.6 4.3.2-.3-1.7-1.4-4.1-2.6-2.5-1.2-4.5-2-4.5-1.7m-309.4 7.5c.3 1.4 1.1 3.2 1.6 4q1 1.5.2-1c-.3-1.4-1.1-3.2-1.6-4q-1-1.5-.2 1m-931.4 6.7c-1.5 4.8-.8 5.5.8.8.7-2 1-3.8.8-4.1-.3-.2-1 1.3-1.6 3.3m1204.3 10.5c-.4 7.9-.5 16.1-.3 18.3.1 2.2.7-4 1.1-13.9s.6-18.1.3-18.3-.7 6-1.1 13.9m63.5-12.7c1.4.8 3.2 1.4 4 1.4q1-.1-1.9-1.4c-4.2-1.9-5.4-1.9-2.1 0M825.6 2251c.3 1.4 1.1 3.2 1.6 4q1 1.5.2-1c-.3-1.4-1.1-3.2-1.6-4q-1-1.5-.2 1m1291.1 4.5c.3 3.2 1 7.1 1.4 8.5 1 3.1.1-5.9-1.2-11q-.9-3.9-.2 2.5m256.3-3c1.9.7 4.2 1.3 5 1.3q1-.1-2-1.3c-1.9-.7-4.2-1.3-5-1.3q-1 .1 2 1.3m-70.9.5c0 1.4 2.8 7.2 2.9 5.9 0-.4-.7-2.2-1.5-4q-1.3-3-1.4-1.9m-279.1.4c0 1.1 4 8.6 4.5 8.6.3 0-.4-1.9-1.6-4.3-2.3-4.5-2.9-5.4-2.9-4.3m-586.4 4.6c.4 1.9 1 4.2 1.5 5 1.1 1.8.1-3.4-1.3-6.5q-.8-2-.2 1.5m818.7-1.8c-.6.7-1.3 2.4-1.7 3.8q-.6 2.8.9-.8c1.3-2.8 2-3.2 5.4-3.2q4 0 4.4 1.5.5 1.6.3-.2c-.2-2.3-7.7-3.1-9.3-1.1m-1173.4 5.4a20 20 0 0 1-1.6 3.7q-.4.9.4.4c1.1-.7 3.6-6.7 2.7-6.7-.2 0-.9 1.2-1.5 2.6M832 2266a16 16 0 0 0 2.5 4c.3 0-.4-1.8-1.5-4a16 16 0 0 0-2.5-4c-.3 0 .4 1.8 1.5 4m1581.5-2.5c2.2.8 5.1 1.3 6.5 1.3s0-.6-3-1.3c-6.9-1.8-8.8-1.7-3.5 0m-1674 13.9a296 296 0 0 1-15 14.6q-6.6 5.6-.5.8a156 156 0 0 0 25.8-25.8c-.1.1-4.8 4.7-10.3 10.4m1688.5-10c0 .2 1.6 1.3 3.6 2.5 1.9 1.2 3.2 1.6 2.9 1.1-.7-1.1-6.5-4.3-6.5-3.6m-180 4.6c-1.1 2.2-1.8 4-1.5 4a16 16 0 0 0 2.5-4c1.1-2.2 1.8-4 1.5-4a16 16 0 0 0-2.5 4m10.7 2c-.8 2.2-1.3 4-1.1 4 .7 0 3.6-7.1 3.1-7.6-.2-.2-1.1 1.4-2 3.6m-817.7-2.6c0 1.1 3 6.6 3.6 6.6.2 0-.3-1.5-1.2-3.3-1.9-3.6-2.4-4.4-2.4-3.3m1052.1 3.7c-.7 2.2-1.1 4.3-.8 4.5.2.2.9-1.4 1.6-3.7.7-2.2 1.1-4.3.8-4.5-.2-.2-.9 1.4-1.6 3.7m-181.1.3c0 1.1 3 6.6 3.6 6.6.2 0-.3-1.5-1.2-3.3-1.9-3.6-2.4-4.4-2.4-3.3m-271.2 7.1c1.7 2.2 6.1 6.9 9.9 10.5 6.1 5.9 6 5.7-1.7-2.5-11.4-12.2-11.8-12.6-8.2-8m-975.4 5.2a149 149 0 0 1-10.9 11.7c-6.2 6.1-6.4 6.4-1.4 2.2a109 109 0 0 0 16.6-18.6c-.3 0-2.2 2.1-4.3 4.7m1167.8 4c-4.5 4.6-7 7.5-5.5 6.4a79 79 0 0 0 14.2-15c-.2.1-4.1 3.9-8.7 8.6m84.8-5.7c1.1 1.6 2.6 3.3 3.2 3.6s-.1-.9-1.6-2.9c-3.4-4.4-4.6-5-1.6-.7m170.2 1.5c-1.2 2.5-2 4.5-1.7 4.5.7 0 4.7-8.1 4.3-8.6-.3-.2-1.4 1.7-2.6 4.1m-360.8 1.8c1.6 2 3 3.7 3.3 3.7.7 0-3.6-5.8-4.9-6.6-.7-.4.1.9 1.6 2.9m-675.4 1.2c2.4 3.4 15.3 16.5 18.5 18.7 1.7 1.2.4-.2-2.7-3.1-3.1-2.8-8.3-8-11.4-11.4-3.2-3.4-5.2-5.3-4.4-4.2m795.6 3.3q-3.3 4-.7 1.7c2-1.7 4.7-5.5 3.9-5.5a25 25 0 0 0-3.2 3.8m80.4 3.7c3.5 3.6 6.7 6.5 6.9 6.5s-2.4-2.9-5.9-6.5a71 71 0 0 0-6.9-6.5c-.3 0 2.4 2.9 5.9 6.5m-1540.5 5c-.4 5.3-.5 9.9-.2 10.1.2.3.8-3.8 1.2-9.1s.5-9.9.2-10.1c-.2-.3-.8 3.8-1.2 9.1m1345.5-7c0 .9 4.4 4.4 8.4 6.8q4.4 2.7.6 0l-5.7-4.7c-1.8-1.5-3.3-2.5-3.3-2.1m348.5 3.2c-1.5 2.1-6 6.9-9.9 10.7-5.8 5.7-6.1 6.2-1.9 2.7 5.3-4.3 16.6-17.1 15-17.1-.2 0-1.7 1.7-3.2 3.7m-1496.3 1c-.6 2-1 3.9-.8 4.1s.9-1.3 1.6-3.3 1-3.8.8-4.1c-.3-.2-1 1.3-1.6 3.3m611.7 1-3.4 3.8 3.8-3.4c2-1.9 3.7-3.6 3.7-3.8 0-.8-.8 0-4.1 3.4m-887.6 1.4c-3.5 2.2-4.6 3.7-1.5 2 2.2-1.3 5.8-4 5.2-4.1-.3 0-2 1-3.7 2.1m845 2.1c2.2 2.1 4.4 3.8 5.1 3.8q.7-.1-1.4-1.7l-5.1-3.7q-2-1.6 1.4 1.6m680.2 2.4q-4.4 4-.9 1.6c2.8-1.9 6.2-5.3 5.3-5.2zM863 2304.3c0 .3 1.7 1.7 3.7 3.3s3.3 2.3 2.9 1.6c-.8-1.3-6.6-5.6-6.6-4.9m1473.4.5c.8 1.3 6.6 5.6 6.6 4.9 0-.3-1.7-1.7-3.7-3.3s-3.3-2.3-2.9-1.6m-750.4 2.8q-4.8 1.8-.5.8c1.7-.3 3.4-1 4-1.5 1.1-1.1.8-1.1-3.5.7m17.9 1.1q-2 2.3.3.5c1.6-1.3 1.7-.6 2 9l.3 10.3 61.9.3c54.2.2 62.2 0 64.3-1.3 1.2-.9 2.3-2 2.3-2.5q-.2-.8-2 1c-2 2-3.3 2-64 2h-62v-10.5c0-5.8-.4-10.5-.9-10.5q-1 .2-2.2 1.7m-672.9 4.7c1.9 2.1 4.4 4.2 5.5 4.8q1.8 1 1.5.6l-5.5-4.8c-4.8-4.2-4.8-4.2-1.5-.6m46-.1c-1.9 1.7-4.6 4-6 5q-3.8 2.5.8 0c2.8-1.5 10.4-8.3 9.1-8.3-.2 0-2 1.5-3.9 3.3m1367-2.8c0 .6 9 5.8 9.5 5.4.2-.2-1.9-1.6-4.6-3.2-2.7-1.5-4.9-2.5-4.9-2.2m-269 1c0 .7 6.1 3.7 6.6 3.3.2-.3-1.2-1.2-3.1-2.1s-3.5-1.5-3.5-1.2m100.3 1.8c3.7.4 9.7.4 13.5 0 5.9-.8 5.2-.9-6.8-.9s-12.7.1-6.7.9m-1144.8 3.7c-2.7 1.6-4.6 3-4.2 3 1 0 9.7-5 9.7-5.6s-.2-.5-5.5 2.6m-244.2 2.5q0 3.5.4 1.7c.2-1.2.2-3 0-4q-.5-1.2-.4 2.3m93.7-3a16 16 0 0 0 4 2.5c2.2 1.1 4 1.8 4 1.5a16 16 0 0 0-4-2.5c-2.2-1.1-4-1.8-4-1.5m525.3.2c3.7.2 9.6.2 13 0s.4-.3-6.8-.3c-7.1 0-9.9.1-6.2.3m679.7-.2c0 .8 7.3 3.6 7.8 3q.5-.5 0-.5l-4.2-1.5c-2-.8-3.6-1.3-3.6-1m231.4 2.1q-2.8 2.1.5.3c1.3-.6 4.2-.9 6.5-.6q4.2.6 2.1-.3c-3.1-1.4-6.9-1.1-9.1.6m42.6-.7c.8.4 2.9 1.1 4.5 1.5q3 .6 1.5-.3a26 26 0 0 0-4.5-1.5q-3-.6-1.5.3m67.5.6q-3.7 1.7-.5.9c2.8-.7 6-2.3 4.5-2.3-.5 0-2.3.6-4 1.4m-135.3 5q0 10 3.1 10.1 1.8.2.3-.3c-1.4-.4-1.8-2-2.9-11.8q-.3-2.4-.5 2m18.8-.4c-3.5 3.1-3.5 3.1-.3.9 1.8-1.1 3.5-2.5 3.8-3 1-1.6.2-1.1-3.5 2.1m-1291.5 0q-3.5 1.6-1.5 1.3c2.8-.7 8-3.3 6.5-3.3-.5 0-2.8.9-5 2m1314.6-1.6c.9.8 7.9 3.5 7.9 3a11 11 0 0 0-3.6-2q-5.5-2.3-4.3-1M954.5 2323l-4 .7 3.5.1c1.9 0 4.6-.4 6-.8 3.2-1 .2-1-5.5 0m621.5.5q-3 1.2-2 1.4c.8 0 2.9-.6 4.5-1.4 3.9-1.7 2.1-1.8-2.5 0m525.5-.7c3.1 1.4 8.3 2.4 6.5 1.3-.8-.5-3.1-1.1-5-1.5q-3.5-.6-1.5.2m93 .2q-4 1-.5.8c1.4 0 3.6-.4 5-.8q3-.8.5-.8c-1.1 0-3.3.4-5 .8m184.5.2c1.5.7 8.4 1.2 17 1.2s15.5-.5 17-1.2c2.1-.9 1.7-1-2.5-.4a133 133 0 0 1-29 0c-4.2-.6-4.6-.5-2.5.4m-1875.1 3.7c2.3 2.1 2.4 2.1 142.2 2.1 76.9 0 139.9-.3 139.9-.8s-62.8-.6-139.7-.4c-125.3.2-139.9.1-142.2-1.4l-2.6-1.5zm775 0c2.3 2.1 2.8 2.1 73.6 2.1s71.3 0 73.6-2.1l2.4-2.1-2.5 1.6c-2.2 1.4-10.4 1.6-73.5 1.6s-71.3-.2-73.5-1.6l-2.5-1.6zm630.9.1c-1.1.7-30.8.9-82.1.8-44.3-.2-80.3 0-80 .4s36.5.8 80.7.8c69 0 80.5-.2 82.2-1.5q3.1-2.5-.8-.5m260-.3c1.2.2 3 .2 4 0q1.2-.5-2.3-.4t-1.7.4m132.2 2.4-3.5 3 3.8-2.6q4.9-3.6 3.4-3.5zm-1299.5-.6q-3.5 1.3-2 1.3c1.1 0 3.6-.6 5.5-1.3 4.5-1.7 1.8-1.7-3.5 0m181-.5-72 .5 71.7.3c47 .1 71.9-.1 72.3-.8q.5-1 .3-.8c-.2.2-32.7.5-72.3.8m951.7-.3c4.8.2 12.9.2 18 0 5.1-.1 1.2-.3-8.7-.3s-14.1.2-9.3.3m305.3.8q-3.7 1.7-.5.9c2.8-.7 6-2.3 4.5-2.3-.5 0-2.3.6-4 1.4m-911.2.2c4.8.2 12.6.2 17.5 0 4.8-.1.8-.3-8.8-.3s-13.6.2-8.7.3m836.2 4.3c1.9.8 7.3 1.4 6.4.6-.2-.2-2.2-.6-4.4-.9q-4.2-.7-2 .3m57.5.5q-5.7 1.3-2.5 1.3c1.7 0 4.8-.5 7-1.3 5-1.6 2.7-1.6-4.5 0m-1478.7.2c7.1.2 18.3.2 25 0 6.7-.1 1-.3-12.8-.3-13.7 0-19.2.2-12.2.3m1453 3c1.5.2 3.7.2 5 0q1.6-.3-2.8-.4c-2.7 0-3.8.2-2.2.4"/><path fill="#fefefe" d="m1127.1 597.5 21 16.5 34.4 27L1376 792.7l29.1 22.8 22.4 17.5 111.5 87.6a620 620 0 0 1 36.8 30c.3 1.2-75.9 1.4-556.7 1.4H462v32h1268V597h-41v131.4c0 131 0 131.5-2 132.1-1.9.6-22.4-14.5-64-47.2-8.5-6.7-51.3-39.9-76.6-59.3l-28.4-22-29.1-22.5-31.3-24.3-58.6-45.3-48.4-37.5-6.9-5.4h-57l3.5 2.7 14.4 11.1 151.9 115.7 26.5 20.2 112 85.3c10.1 7.7 25.7 19.7 37.7 28.7l34.8 26.6 24 18.2.3 19.5c.1 10.7 0 20.5-.3 21.7l-.5 2.3h-54.9l-40.8-31.8-169.8-131.8-99-76.9-89.8-69.7L1183 597h-28.2c-15.5 0-27.9.2-27.7.5m780.9 193V984l315.3.2 315.2.3.3 66.9c.1 48.6-.1 67.3-.9 68.2-1 1.2-51.6 1.4-315.5 1.4H1908v337h44v-107.9c0-59.4.4-108.2.8-108.5s3.7 1.7 7.3 4.3l77.4 57.6 45 33.5 135.5 100.9a936 936 0 0 0 25.7 18.9c1.7.9 7.9 1.2 24.3 1l22.1-.3-20.3-15.6-45.3-35-147.5-113.7-123.4-95.3c-.9-.8-3.7-41.9-2.9-43.2.2-.4 13.2-.7 28.7-.7h28.4l79.8 62.2L2311 1390l32 24.9 29.4 22.9 25.9 20.2h51.2l-3.8-3.1-8.6-6.8-15.2-11.8-174.4-137-27.2-21.3-22.8-18-28.1-22-58.3-45.9a773 773 0 0 1-45.1-36.7c0-1.2 34.2-1.4 236.3-1.2l236.2.3.5 152c.3 83.6.5-42 .5-279 0-239-.2-351.9-.5-253.5l-.5 177.5-236.9.3c-134.5.1-237.4-.2-237.9-.7s1-2.3 3.5-4.3l57.3-44.9 119.7-93.3a6005 6005 0 0 1 60.2-47.1c3.4-2.8 14.7-11.5 25-19.5a2548 2548 0 0 0 40.7-31.7l20.9-16.4 20.5-16 17.5-13.7 40-31.2 36.4-28.4 8.9-7.1-25.7-.3-25.8-.2-13.1 10.2L2428 624l-18.5 14.3-31 23.9-26.5 20.4-81.5 62.8L2132.4 852l-14 10.7-20.9 16.1-55.8 43-41.8 32.2H1976c-20.8 0-23.9-.2-24.4-1.6-.3-.9-.6-11.1-.6-22.8v-21.2l2.8-2.6c1.5-1.4 11.3-9 21.7-16.9l114.8-87.3 65.7-50 24.5-18.6 25-19 146.2-111.3 7.5-5.7h-60.3l-3.7 2.9-16.8 13.2a5418 5418 0 0 1-65.9 51.4l-23.5 18.3-98.9 77-44.5 34.7-20.6 16-29.5 23-14.1 11c-23.3 18.3-26.3 20.5-27.8 20.5s-1.6-12.2-1.6-134V597h-44zm-1446 347v16.5l553.2.2c367.7.2 553.2.6 553.4 1.3.2.5-1.8 2.6-4.4 4.5l-14.3 11-26 20-40.4 31-16.5 12.6-22 16.9-22 16.9-18.4 14.1-35.4 27.3-34.2 26.2-71.2 54.6-81.5 62.6a43 43 0 0 0-5.3 4.4c0 .2 15.4.4 34.3.4h34.2l12.5-9.8 40.5-31.7 33.5-26.2 84.9-66.3 52.9-41.4 30.2-23.5 53.5-41.8 28.4-22.2 35-27.3 17.6-13.8 30 .3 30 .2v34.9l-35.1 27.6-78 61-112.4 88-97.8 76.5-19.2 15 26.9.3 26.9.2 12.9-9.7 30.8-23.3 43-32.5 86-65 84.5-63.9a877 877 0 0 0 22-16.8 14 14 0 0 1 4.7-2.8c1 0 1.3 21.1 1.3 107v107h39v-337H462zM749.5 1555q-22.3 3.8-31.2 21c-2.5 4.8-2.8 6.6-2.8 14.5 0 8.3.2 9.5 3.4 15.3 7 13 18.2 19 47.3 25.7 14.1 3.2 22.4 8.5 22.9 14.6.5 5.5-.3 7.8-4.1 12.2-5 5.6-11.2 7.9-21.3 7.9-7.8 0-15.2-2.5-19.5-6.5a30 30 0 0 1-7.7-14c-.7-3.6-.8-3.7-5.1-3.7a81 81 0 0 0-20.8 3.1c-1.4 1.2 4.2 17.7 7.7 22.9 9.5 13.9 22.2 19.4 45.2 19.4 15.4 0 22.6-1.4 31.8-6.2a35 35 0 0 0 16.5-17.2c2.4-5 2.7-6.5 2.7-16.5 0-13-1.6-17.5-9.1-25.5-6.4-6.8-15-10.7-36.1-16.3a209 209 0 0 1-21.2-6.6c-8.6-4.5-10.8-12.2-4.8-17.8 4.2-4 9-5.5 18.5-5.5 13 0 19.9 4.3 22.4 13.8l1.2 4.4h8.1c4.4 0 10.3-.3 13.2-.6 5.2-.7 5.2-.7 4.7-3.8a39 39 0 0 0-27.4-32.5c-7.3-2.4-26-3.6-34.5-2.1m643.9-.1a53 53 0 0 0-32.8 17.1c-11.4 12.1-16.2 25.1-17.3 46.5-1.4 27.9 10.4 51.8 30.6 62 19.2 9.6 44 9.8 62.7.5 23.9-11.8 35.1-37.2 31.4-71.1-3.7-33.7-25.3-54.2-58.5-55.4-6-.2-13.3 0-16.1.4m27.1 24q21.5 9.5 21.7 41.1c.1 23.2-8.6 38.6-24.8 44a35 35 0 0 1-43.9-20.7 47 47 0 0 1-3.2-20.1c-.5-12.6-.4-13.9 2.2-21.8a32 32 0 0 1 7.2-13.4 38 38 0 0 1 17.3-11 52 52 0 0 1 23.5 1.9m-885.3 42.3.3 64.3h25l.3-64.3.2-64.2h-26zm51 0 .3 64.3h23l.5-42 .5-42 2.9 4.5a21924.2 21924.2 0 0 1 48.3 77.8c1.3 2.2 1.8 2.2 14.1 2l12.7-.3.3-64.3.2-64.2h-24v42.6c0 25.5-.4 42.3-.9 42a361 361 0 0 1-13.7-21.4l-16.3-26.5-8.6-14-6.6-10.7-4.5-7.2-2.9-4.7-12.8-.1H586zm242.8-53.7v10.5h38l.2 53.7.3 53.8h25l.5-53.5.5-53.5 19.3-.3 19.2-.2v-21H829zm119 54v64.6l12.8-.3 12.7-.3.3-64.3.2-64.2h-26zm42-54v10.5l19.3.2 19.2.3.3 53.7.2 53.8h25l.2-53.8.3-53.7 18.8-.3 18.7-.2v-21H990zm120.3 36.2c.4 29.5 1 48.8 1.7 52.2a35 35 0 0 0 9.7 18.2c9.5 10.2 18.7 13.3 39.8 13.3 15.1.1 21.7-1 29.8-5.1a38 38 0 0 0 19.8-25.8c.6-2.9 1.3-24.6 1.6-52.3l.6-47.2H1187v44.3c0 47.5-.3 51-5.2 57.2-5.4 6.9-20.3 9.6-30.9 5.5a20 20 0 0 1-12.9-12.7c-1.9-5.1-2-7.8-2-49.8V1557h-26.2zm121.7-36.2v10.5h38v108.1l12.8-.3 12.7-.3.5-53.5.5-53.5 19.3-.3 19.2-.2v-21h-103zm19.5 190.1q-27.7 6.1-31.6 29a33.6 33.6 0 0 0 19 36.8c5.3 2.7 17.3 6.9 24.6 8.5a87 87 0 0 1 25.7 9.1c3.1 2.6 3.3 3.1 3.3 9.3s-.2 6.8-3.5 10.3c-5.5 5.7-10 7.4-20.5 7.4-10.1 0-16.7-2.3-21.7-7.6a35 35 0 0 1-6.8-13.9c0-2.5-2.2-2.8-14.1-1.5l-11.8 1.4.6 3a48 48 0 0 0 13.2 27.3c6 6 11.3 8.7 22.2 11.4a92 92 0 0 0 39.4-.8c18.8-5.2 29.5-18.9 29.5-37.8 0-21.6-11.9-33.4-41-40.5-27.3-6.8-34-10.4-34-18.5q0-10 15.9-12.6c13.3-2.1 23.9 2.5 27.8 12.1 2.1 5.4 2.3 5.5 6.5 5.8 2.4.2 8.1.1 12.7-.3l8.4-.7-.6-5.5c-1-9.4-7.1-18.9-16.3-25.4-9.4-6.5-32.2-9.6-46.9-6.3m598-1-9 2.1a55 55 0 0 0-37.9 32.6 70 70 0 0 0-5.3 26.7c-1.3 25 5.3 44.3 19.5 57.1 18.3 16.5 51.6 19.7 75.3 7.3a62 62 0 0 0 23-23.6c6.5-12.9 8.8-35.6 5.5-53.8a57 57 0 0 0-40.8-46.1c-7.1-2-25.7-3.4-30.3-2.3m26.2 25.3q21.7 11 20 44.6c-.9 19-6.9 30.4-19.6 37.3-5.4 3-7.7 3.6-14.2 4a32 32 0 0 1-25.4-9c-7-6.3-10-12.8-12.2-25.5a45 45 0 0 1-.1-20.3c2.5-15.8 8.7-25.8 19-31.1 9.5-4.9 23-4.9 32.5 0m-1339.7 22c0 47.5.5 53.8 4.9 63.5 6.6 14.7 22.9 22.5 46.6 22.6 25.4 0 40.6-8.3 47.4-25.8l2.6-6.7.3-49.3.3-49.2H612v44.5c0 26.8-.4 46.3-1 49.2q-3 14-21.5 15.1c-6.8.4-8.9.1-13.3-1.8-6.2-2.7-11.7-8.4-13.1-13.7a512 512 0 0 1-1.1-48.6V1759h-26zm131.2 19.3.3 64.3 11.3.3 11.2.3v-41.5c0-22.8.4-41.7.9-42a41 41 0 0 1 7.1 9.7 792 792 0 0 0 13.4 21.4l24.4 39.8c8.3 13.5 6.6 12.5 20.9 12.5H769v-129h-23v42c0 44.6-.2 46.1-4.5 38.5l-7.1-11.7-29.2-47.6-10.5-17-2.7-4.2h-25zm129.8.3v64.6l12.8-.3 12.7-.3.3-64.3.2-64.2h-26zm38.5-62.8 3.6 9.8 5.7 16 27.9 77.5 5.4 15.5c1.2 3.3 2.6 6.6 3.1 7.3.8.9 4.6 1.2 14.6 1l13.4-.3 3.5-9.5 4.8-13.5 4.2-12c1.7-4.4 9.6-26.7 17.8-49.5l15.2-42.8c.4-.9-2.7-1.2-13.3-1.2h-13.9l-10.8 32.8-15 45.7c-5.3 16.5-5.6 17-7.5 11.9l-23.7-68.4-6.5-18.8-1.2-3.2h-14c-13 0-14 .1-13.3 1.7m133.5 62.8v64.5l49.3-.2 49.2-.3v-21l-36.2-.3-36.3-.2v-35l32.3-.2 32.2-.3.3-10.8.3-10.7H995v-29l34.8-.2 34.7-.3.3-10.3.3-10.2H969zm121 0v64.6l12.8-.3 12.7-.3.5-27 .5-27 7.7.2c9.5.3 15.5 2.9 20.1 8.6 1.7 2.2 9.5 13.3 17.2 24.6l14 20.6 15.3.3c8.3.1 15.2 0 15.2-.2a843 843 0 0 0-26.9-41.9 52 52 0 0 0-10.3-10.2q-5.9-4.3-4.7-4.9l6.9-2.1a33 33 0 0 0 24.6-29.2c1.6-15-4.9-29-16.3-35-8.6-4.6-15-5.3-54.5-5.3H1090zm71.4-40.9c10.6 5.5 10.2 23-.7 28.3-3.9 1.9-6.3 2.1-24.3 2.4l-19.9.2-.3-16.8-.2-16.8 20.7.3c18.7.3 21.2.5 24.7 2.4m179.6 40.9v64.6l12.8-.3 12.7-.3.3-64.3.2-64.2h-26zm42.2-54.3.3 10.3 19.3.3 19.2.2v108h25l.2-53.8.3-53.7 18.8-.3 18.7-.2v-21h-102.1zm143.5-9.5-4.2 10.3-6.5 16.4c0 .4-2.9 8-6.4 16.9l-25.2 64.7-5 12.3a48 48 0 0 0-2.4 6.8c0 1.1 25 1.2 26.6.1.6-.4 3.3-7 6-14.7l5-14h52.8l2.9 7.5 4.9 13.5c1.1 3.3 2.5 6.6 3.1 7.2.7.9 4.8 1.3 14.3 1.3 7.4 0 13.4-.2 13.4-.5s-2.3-6.2-5.1-13.2l-13.7-34.3-16.7-41.5-14.8-36.8-1.1-2.7h-13.8c-7.5 0-13.9.3-14.1.7m15.3 31.3c0 1 11.6 32.6 14.4 39.2 3 7 3.6 6.8-16 6.8-16.3 0-17.6-.1-17.1-1.8.9-2.6 5.9-16.5 10.1-27.7 2.1-5.5 4.2-11.7 4.8-13.8.6-2 1.7-3.7 2.4-3.7q1.3 0 1.4 1m79.2 32.2.3 64.3 12.7.3 12.8.3.2-27.3.3-27.3 7.9.2c14.5.5 16.7 2.5 39.5 37l11.4 17.3h14.9c9.2 0 14.8-.4 14.8-1 0-1-16.3-27.5-22.9-37.2a95 95 0 0 0-18.2-17.8q-.8-.1-.9-1 .1-1 1.3-1c3.1 0 14.5-4.4 17.9-6.9a36 36 0 0 0 10.9-42.2 34 34 0 0 0-15-17.3c-7.5-3.8-16.5-4.6-53.5-4.6H1621zm67.1-42.1c2.2.6 5.5 2.6 7.5 4.4 3.6 3.3 3.7 3.5 3.7 10.8 0 6.7-.3 7.9-2.5 10.2-5.3 5.7-8.2 6.4-29.9 7.1l-20.1.7V1780h18.8c10.3 0 20.4.5 22.5 1.1m62.9 42.1.3 64.3h25l.3-64.3.2-64.2h-26zm-177.9 161c-2.1 2.7-2.1 4.7-.2 7.2 2 2.6 2.1 2.6 18 2.6h15.9v56.5c0 48.5-.2 56.5-1.4 56.5a3 3 0 0 1-2.1-.9c-1-1.6-9.4-7-16.4-10.5a106 106 0 0 0-49.1-9.6c-33.6.1-56.5 8.5-76 27.9a94 94 0 0 0-25.2 44.1c-2.2 8.2-2.3 9.7-2.3 49 0 39.6.1 40.7 2.4 49.5 2.8 10.4 7.2 20.6 12.6 29.1 4.3 6.8 15.9 19 22.6 23.9a97 97 0 0 0 42.2 17.4c9.8 1.4 37.9 1.4 47.2.1a92 92 0 0 0 39.1-16.1 46 46 0 0 1 5.9-3.9c.3 0 .5 4.7.5 10.5v10.5h62c60.7 0 62 0 64-2 2.4-2.4 2.5-3.9.6-6.6-1.2-1.6-3-2-13.3-2.4l-11.8-.5-.3-166.8-.2-166.7h-66.9c-52.3 0-67.1.3-67.8 1.2m14.9 123.6a32 32 0 0 1 15.4 15l2.9 5.7v158l-2.8 5.7c-3 6.1-9.4 12.5-15.5 15.4a54 54 0 0 1-26 1.3 24 24 0 0 1-15.5-16.4c-1.7-5.6-1.8-11.8-1.5-87l.3-81 2.6-5.6c2.7-5.7 6.7-9.6 12.9-12.4a50 50 0 0 1 27.2 1.3M504.8 1985.1c-2.5 1.4-2.4 7.5.1 8.9 1.1.5 8.1 1 15.6 1 12.1 0 13.6.2 13.1 1.6-.3.9-.6 72.6-.6 159.4v157.8l-13.4.4c-15.3.3-17.6 1.3-17.6 7.4 0 6.9-10.5 6.4 144.1 6.2l139.4-.3.7-9a1917.6 1917.6 0 0 0 5.3-58.5c.9-10.7 2.2-25.5 3.1-32.8a88 88 0 0 0 .9-14.2c-.7-1.2-8.5-1.3-10.2-.2a70 70 0 0 0-6.9 11.2c-24.7 45.5-54.3 75.3-87.1 87.6-6 2.3-7.5 2.4-29.8 2.4H638l-.2-159.5-.3-159.5h27.6c25.5 0 27.7-.1 29.2-1.8 2.2-2.4 2.1-5.5-.1-7.5-1.7-1.6-9.7-1.7-94.8-1.7-61.2.1-93.5.4-94.6 1.1m1622.7 97.5c-9.9 1-26.5 4.9-34.4 7.9a112 112 0 0 0-44.6 29.6 111 111 0 0 0-28.1 44.9 130 130 0 0 0-.3 78.9 124 124 0 0 0 96.4 81.7c9.6 1.5 42.4 1.8 58 .4 19.5-1.7 40.3-7.3 52-14.1a75 75 0 0 0 26.7-26.4c3.1-5 9.4-20.8 10.4-25.8l.6-3.8-4.1.3-4.2.3-3.8 8.7c-13.8 31.2-38.4 48.1-70.1 48.1-17.7.1-37.9-6.8-47.4-16.1a46 46 0 0 1-14.7-25.3c-3.2-11.4-3.2-11.5-3.6-41.2l-.5-29.7h154.1l-.5-5.3c-3-30.8-14.3-55.6-34.9-76.3a120 120 0 0 0-65.5-34.9c-7.4-1.5-33.6-2.7-41.5-1.9m24.3 15.9a33 33 0 0 1 17.3 16c1.1 3.2 1.4 11.6 1.4 40v36l-25 .3c-13.7.1-26 0-27.3-.3l-2.3-.6.3-36.2.3-36.2 3-5.4a27 27 0 0 1 32.3-13.6m-1214.3-13.9c-35.9 3.5-59.4 14-82 36.8a118 118 0 0 0-34 63.1 124.3 124.3 0 0 0 104 147.4c9.6 1.4 52.7 1.4 61.8.1a126 126 0 0 0 104.8-102c1.7-9.9 1.7-31.3 0-42a127 127 0 0 0-48-78.5 133 133 0 0 0-55.6-23.5c-7.2-1.1-43.9-2.1-51-1.4m28.7 18.4a34 34 0 0 1 17.3 15.1l3 5.4.3 87.5.2 87.5-3 6.2a33 33 0 0 1-61.5-6.3c-2.3-8.7-2.2-164.1 0-172.8s8.6-17 16-20.8a31 31 0 0 1 27.7-1.8m144-16.4c-2.9 2-3 7.6-.2 10.4 1.8 1.8 3.3 2 13.5 2h11.5v218h-11.8c-10.3 0-12.1.3-13.5 1.8-2.1 2.3-2.2 5.6-.1 7.6 1.4 1.4 9.4 1.6 73.2 1.6 39.4 0 72.2-.4 72.8-.8 2.3-1.5 3.3-4.7 2.2-6.7-1.8-3.2-2.8-3.5-13-3.5h-9.8v-67.4c0-63.1.1-68.2 2-79.8 6.1-36.4 19.6-57.2 37.1-57.1 9.3.1 15.8 4.6 21.2 14.7l2.2 4.1.3 92.7.2 92.8h-8.8c-7.3 0-9.2.3-10.5 1.8-2.3 2.6-2.1 5.8.5 7.6 2 1.4 10.6 1.6 73.3 1.6s71.3-.2 73.3-1.6q3.9-2.6.6-7.2c-1.4-2.1-2.2-2.2-14.4-2.2h-12.9l-.3-95.3c-.3-88.2-.5-95.6-2.1-100.5a52 52 0 0 0-42.9-35.3c-4.7-.6-20-.9-33.9-.7-28.3.4-28.7.4-46.8 8.9a82 82 0 0 0-23.7 15.5 55 55 0 0 0-12.4 17.1q0 1.2-1 1.3c-.6 0-1-7.8-1-21.5V2085h-61.3c-53.8 0-61.5.2-63.5 1.6m639.3.1c-3.2.8-4.5 2.3-4.5 5.4 0 5 2.7 5.9 18.7 5.9h14.3v219h-14.8c-13.2 0-15.1.2-16.5 1.8-2.3 2.5-2.2 6.9.2 8.2q2 1 82 1c78.8 0 80.1 0 82.1-2 1.1-1.1 2-2.7 2-3.5s-.9-2.4-2-3.5c-1.8-1.8-3.3-2-18-2h-16v-142.7l3.1-10.4a169 169 0 0 1 18.2-38.7c3.8-5.9 5.7-7.7 11.6-11.2 12.2-7.1 22.2-7.8 28.1-1.9 5.5 5.5 3.5 14.5-4 18.4a18 18 0 0 1-14 0l-2.8-1.5-1.7 5.1a40 40 0 0 0-1.3 15.2c.3 9.1.8 11 3.8 17.2a46.9 46.9 0 0 0 84.3-.2c3.2-6.8 3.2-6.8 3.2-23.3v-16.5l-3.9-8a49 49 0 0 0-22.8-22.7 68 68 0 0 0-29.3-9.5 67 67 0 0 0-41.2 11.3 172 172 0 0 0-30.5 30.4c-.4 0-.8-9.5-.8-21v-21l-62.7.1c-34.6.1-63.7.4-64.8.6m725.5 3.3c-1.9 1-5.9 4.4-8.8 7.3-7.5 7.6-10.7 8-24.7 2.7-9-3.4-21.8-6.9-31.5-8.6a159 159 0 0 0-43-.5c-31.6 5.6-57.6 23.1-68.9 46.3a80 80 0 0 0 .1 67.2 86 86 0 0 0 22.7 25.4c17.2 11 51 22.9 93 32.8a48 48 0 0 1 25.5 12.5q19.4 17.8 2.3 34.6c-6.2 6.1-10.1 8.1-22.7 11.9a62 62 0 0 1-22.5 2.8c-11.2.1-14.6-.3-24.5-2.8-6.3-1.6-14-3.9-17.1-5.1a99 99 0 0 1-34.9-28c-6.2-8-15.1-26.2-19-38.7-1.1-3.6-2.6-4.8-6-4.8-1.6 0-1.9 1.5-2.6 14.7a737 737 0 0 0-.1 68.5c.6 3.5 1.3 4.8 2.5 4.8.9 0 6.2-3.4 11.7-7.5a82 82 0 0 1 12.5-8.2c2.6-.7 10.8 1.9 21.5 6.7a144 144 0 0 0 90 7.9 92 92 0 0 0 57.5-43.8 72 72 0 0 0 8.4-36.6c.1-12.9-.1-14.7-2.8-23-5.2-16.2-11.9-27.4-21.1-34.9-11.7-9.5-25.7-15-82.5-32.6-29.7-9.1-33-10.3-38-13.3-10.3-6.1-16-13.2-16-19.8 0-9.9 14-20.9 33.1-26a97 97 0 0 1 43.9 0 81 81 0 0 1 35.3 21.7c8.2 8.2 17.1 21.3 21.7 31.8 3 6.9 3.5 7.6 6.1 7.6h2.9v-21.8c0-11.9.3-28.8.7-37.5.3-9.2.2-15.7-.3-15.7-.5.1-2.5.9-4.4 2"/></svg>