<svg xmlns="http://www.w3.org/2000/svg" viewBox="0 0 3000 3000"><path fill="#fff" d="M400.1 506.4q-1.7 2.1 1.9 7.6c.5.8 1.5 2.6 2.1 4 .5 1.4 2.1 4.3 3.4 6.5 1.4 2.2 2.9 5.1 3.5 6.5 1.5 3.5 1.7 4 4.4 8.5 1.3 2.2 4 7.2 6 11.2s4 7.5 4.5 7.8 1.2 1.9 1.6 3.5 1 3 1.5 3 1.5 1.8 2.3 3.9a14 14 0 0 0 2.6 4.5c.5.4 1.2 2 1.6 3.6s1 3 1.5 3 1.4 1.5 2 3.4 1.7 4 2.5 4.6c.7.6 1.7 2.5 2 4.1s1 2.9 1.4 2.9c.5 0 1.5 1.7 2.4 3.7.9 2.1 2.2 4.7 2.8 5.8a79 79 0 0 1 4.8 9.1c1.1 2.3 2.4 4.5 3 4.8q1 .8 1.1 2.3c0 .8.9 2.6 2 4a9 9 0 0 1 2 4.3c0 .9.9 2.5 2 3.5s2 2.6 2 3.6.4 2.1 1 2.4 2.6 3.8 4.6 7.8l7.9 15.2 8 15 5 9.5 2 4c.3.8 1.7 3.3 3 5.5s3 5.1 3.6 6.5l2 4 2.5 4.5 5.9 11 8 15.3c2.1 4 4.1 7.5 4.6 7.7s1 1.9 1.4 3.5 1 3 1.5 3 1.5 1.8 2.3 3.9a14 14 0 0 0 2.6 4.5c.5.4 1.2 2 1.6 3.6s1 3 1.5 3 1.5 1.8 2.3 3.9a14 14 0 0 0 2.6 4.5c.5.4 1.2 2 1.6 3.6s1 3 1.4 3c.5 0 1.5 1.7 2.5 3.7.9 2.1 3.6 7.4 6.1 11.8a194 194 0 0 1 6.6 12.5l2.9 5.5a246 246 0 0 0 8 15c1.1 2.2 2.4 4.8 3 5.7a1363.4 1363.4 0 0 0 14.6 27.3c4.2 7.7 5.5 10.3 6.9 13.5.3.8 1.7 3.3 3 5.5s3 5.1 3.6 6.5l2 4 2.5 4.5 4.4 8.5 3 5.5V1701c0 434.8.4 791.1.8 791.8.7 1 200.4 1.2 995.3 1l994.4-.3v-1988l-1101.1-.3c-934.8-.2-1101.3 0-1102.3 1.2m2101.1 100.4c1.1 1.1 1.3 162.7 1.6 891.9.2 796.7 0 890.9-1.3 893l-1.5 2.3h-891.4c-746.8 0-891.5-.2-892.5-1.3-.8-1-1.2-200.6-1.3-754.9-.3-702.7-.4-753.7-2-755.4-.9-1.1-2-3.1-2.3-4.7-.4-1.5-1-2.7-1.5-2.7s-1.4-1.7-2.4-3.8-3.6-7.3-6-11.7l-7.7-14.5a49 49 0 0 0-4.6-7.8c-.7-.7-1.3-2-1.3-2.9s-.9-2.6-2-4a9 9 0 0 1-2-4.2c0-.9-.9-2.4-2-3.4s-2-2.6-2-3.6c0-1.1-.4-2.3-1-2.6s-2.6-3.8-4.6-7.8l-8-15.2c-2.4-4.4-5.1-9.4-5.9-11.2s-1.9-3.4-2.4-3.7-1.2-1.8-1.6-3.3c-.3-1.4-1.5-3.8-2.6-5.1a10 10 0 0 1-1.9-4.2q-.1-1.7-1.4-2.3c-.7-.3-1.7-1.8-2-3.3s-1.6-3.9-2.7-5.2a10 10 0 0 1-1.9-4.2q-.1-1.7-1.4-2.3c-.8-.3-1.7-1.9-2.1-3.6s-1-3.3-1.5-3.6a44 44 0 0 1-4.5-7.8l-8-15.2-8-15.3c-2.1-4-4.1-7.5-4.6-7.7s-1-1.9-1.4-3.5-1-3-1.4-3c-.5 0-1.5-1.7-2.5-3.8s-3.6-7.3-6.1-11.7a194 194 0 0 1-6.6-12.5l-2.5-4.9c-.8-1.9-2.2-4-3-4.8a5 5 0 0 1-1.4-3c0-.8-.9-2.6-2-4a9 9 0 0 1-2-3.8c0-.6-.9-2.2-2-3.5s-2-3.1-2-4c0-1-.7-2.3-1.5-3a9 9 0 0 1-2.1-3.3c-.4-1.2-2.4-5.2-4.6-9-3.9-6.7-4.3-10-1.4-11.9.6-.4 435-.7 965.3-.5 789.6.2 964.4.4 965.5 1.5m-932 293.7c-2.4.7-6.5 1.6-9.2 2s-6.6 1.5-8.7 2.6c-2 1-4.3 1.9-5.1 1.9s-2.5.9-3.9 2a10 10 0 0 1-3.9 2 88 88 0 0 0-18.4 17.6q-.1 1.4-1.4 2c-.8.3-1.8 1.8-2.1 3.4a8 8 0 0 1-2.1 4.1 4 4 0 0 0-1.4 2.8c0 .9-.8 3.3-1.9 5.4-1 2-2.2 6.3-2.6 9.4s-1.3 8.3-2.1 11.3c-2.1 8.2-2.1 284.9.1 292.9.7 2.9 1.7 7.9 2.1 11 .3 3.1 1.2 6.5 1.9 7.6s1.6 3.6 2 5.5 1.6 4.6 2.6 5.9a8 8 0 0 1 1.9 3.7c0 1.6.3 1.9 9.8 12.1 3.6 4 7.2 7.3 8 7.3q1.2.1 1.8 1.4c.3.8 1.9 1.8 3.6 2.1 1.6.4 3.2 1.3 3.4 2 .3.7 2.2 1.6 4.2 2s4.6 1.3 5.8 2a40 40 0 0 0 9.8 2.4 43 43 0 0 1 9.6 2.1c2.5 1.3 31.1 1.3 34.6 0 1.5-.6 6.1-1.5 10.2-2.1a35 35 0 0 0 9.6-2.4c1.2-.7 3.5-1.6 5.3-2a9 9 0 0 0 4.4-2.1c.6-.8 1.7-1.4 2.3-1.4 3.3-.1 19.2-13.9 22.1-19.2a71 71 0 0 0 8-16.8c.4-1.9 1.3-4.6 2-6 2.6-5.1 4.5-29.5 4.5-58.7V1188l-2.2-.5c-1.3-.3-14-.4-28.3-.3l-26 .3-.5 31c-.5 28.9-.7 31.4-2.8 36.4-2.2 5.6-6.2 10.6-9.7 12.2l-4.5 2.4q-2.5 1.5-11.5 1.5c-7.8 0-9.7-.4-13.9-2.6-5.5-3-9.3-6.8-10.2-10.4-.4-1.4-1.4-3.3-2.3-4.4-1.5-1.6-1.6-14.2-1.6-140 0-129.9.1-138.3 1.8-140.9.9-1.4 1.7-3.3 1.7-4.1 0-1.8 4.9-7.3 8.1-9.2 5.7-3.2 7.6-3.6 17.9-3.2 9.3.4 10.9.7 14.2 3 5.3 3.7 8.2 7.5 10.4 13.8 1.7 4.8 2 9.4 2.4 36l.5 30.5 25 .3c13.8.2 26.5 0 28.3-.3l3.3-.6-.4-32.2c-.4-34.3-1.6-49.3-4.8-56.9-1-2.6-1.9-5.5-1.9-6.6s-.6-2.5-1.4-3.1a8 8 0 0 1-2-3.6c-.6-2.3-3.7-7.4-6.4-10.5a73 73 0 0 0-11.2-11.2 30 30 0 0 0-6.7-4.2 9 9 0 0 1-3.3-2.1c-.7-.8-2-1.5-2.9-1.5s-3.4-.9-5.4-1.9a33 33 0 0 0-9-2.6c-2.9-.4-7.1-1.3-9.5-2.1-5.8-1.9-35.9-1.8-42 .1m-597.5 6.2c-.4.3-.7 93.4-.7 206.7 0 127.9-.4 206.7-1 207.6-.8 1.2-4.8 1.6-24 1.8l-23 .3V2087h145.5c142.8 0 145.4 0 146.5-1.9.6-1.3 1-19.2 1-51.4 0-46.6-.1-49.5-1.8-51-1.7-1.6-9.3-1.7-89.3-1.7-66.7 0-87.8-.3-88.7-1.2s-1.2-75.3-1.2-328.9v-327.6l-3.2-.9-3.3-1-.3-89.5c-.2-76.6 0-89.8 1.2-91.5 1.4-1.8 1.6-1.7 3.1 2.1 1 2.2 2.3 4.7 3 5.5s1.6 3.3 1.9 5.4a20 20 0 0 0 2.1 6c.7 1.2 1.6 4 2 6.3s1.3 4.7 2.1 5.4c.8.6 1.4 2.3 1.4 3.8 0 1.4.8 4.2 1.9 6.1s2.1 5.3 2.5 7.4a18 18 0 0 0 2.2 6c.8 1.1 1.4 3 1.4 4.1s.9 3.7 2 5.8 2 4.6 2 5.7.9 3.8 2 6a18 18 0 0 1 2 6c0 1.1.9 3.7 2 5.7 1.1 2.1 2 4.7 2 5.8s.9 3.7 2 5.8 2 4.6 2 5.7.9 3.7 2 5.7c1.1 2.1 2 4.7 2 5.8s.9 3.7 2 5.8 2 4.6 2 5.7.9 3.7 2 5.7c1.1 2.1 2 4.7 2 5.8.1 1.1.9 3.8 2 6a22 22 0 0 1 2 5.8c0 .9.9 3.4 2 5.4s2 4.8 2 6 .9 4 2 6c1.1 2.1 2 4.8 2 6s.9 3.2 2 4.3c1.9 1.9 3.3 2 29.9 2a453 453 0 0 0 29.4-.5c1.1-.5 1.2-1.4.3-4.9a21 21 0 0 0-2.2-5.7 11 11 0 0 1-1.8-4.6c-.4-1.7-1.6-4.8-2.7-6.9-1-2.1-1.9-4.8-1.9-6s-.6-2.7-1.4-3.3c-.8-.7-1.7-2.8-2.1-4.8a18 18 0 0 0-2.1-5.7 8 8 0 0 1-1.4-3.6c0-.8-.8-3.1-1.9-5s-2.2-5.1-2.6-7-1.4-4.4-2.1-5.5a7 7 0 0 1-1.4-3.5c0-.8-.9-3.2-2-5.3s-2-4.5-2-5.5-.9-3.4-2-5.5c-1.1-2-2-4.3-2-5s-.9-2.9-2-5c-1.1-2-2-4.5-2-5.5s-.9-3.4-2-5.5c-1.1-2-2-4.3-2-5s-.8-2.8-1.9-4.7-2.1-5.2-2.5-7.3-1.1-3.7-1.6-3.7-1.2-1.7-1.6-3.8c-.3-2-1.5-5.1-2.5-6.8-1.1-1.7-1.9-4-1.9-5a8 8 0 0 0-1.4-4 27 27 0 0 1-2.6-6.4 27 27 0 0 0-2.6-6.4c-.8-1.1-1.4-3-1.4-4.1s-.6-3-1.4-4.1a27 27 0 0 1-2.6-6.4 27 27 0 0 0-2.6-6.4 8 8 0 0 1-1.4-3.8c0-1-.9-3.5-2-5.5a17 17 0 0 1-2-5.5c0-.9-.9-3.3-2.1-5.2q-2-3.4-2-9.1t2-9.6c1.2-2.2 2.1-4.7 2.1-5.7s.9-3.2 2-5 2-4 2-5 .9-3.4 2-5.5c1.1-2 2-4.5 2-5.4s.9-3.2 2-4.8a12 12 0 0 0 2-5c0-1.1.9-3.7 2-5.8s2-4.5 2-5.5.6-2.7 1.4-3.8a27 27 0 0 0 2.6-6.4 27 27 0 0 1 2.6-6.4 8 8 0 0 0 1.4-3.8c0-1 .9-3.5 2-5.5 1.1-2.1 2-4.3 2-5s.9-3 2-5c1.1-2.1 2-4.7 2-5.8s.9-3.4 2-5a12 12 0 0 0 2-4.8c0-.9.9-3.4 2-5.4s2-4.6 2-5.5.9-3.5 2-5.5c1.1-2.1 2-4.3 2-5s.9-3 2-5c1.1-2.1 2-4.8 2-6s.6-2.8 1.4-3.5 1.7-3 2.1-4.9 1.3-4.3 2-5.4 1.5-3.4 1.9-5.2c.4-1.7 1.6-4.8 2.7-6.9 1-2.1 1.9-4.5 1.9-5.4s.6-2.4 1.4-3.5 1.7-3.6 2.1-5.5 1.4-4.4 2.1-5.5a7 7 0 0 0 1.4-3.5c0-.9.9-3.4 2-5.5 1.2-2.2 2.2-5.6 2.3-7.5l.2-3.5-28.4-.3c-32.3-.3-32.4-.3-33.5 6.9-.4 2.3-1.3 5.1-2.1 6.2a9 9 0 0 0-1.5 4.2c-.1 1.1-.9 3.8-2 6a22 22 0 0 0-2 6c0 1.1-.9 3.7-2 5.8s-2 4.6-2 5.7a18 18 0 0 1-2 6c-1.1 2.2-2 4.7-2 5.7s-.9 3.5-2 5.6-2 4.6-2 5.7a18 18 0 0 1-2 6c-1.1 2.2-2 5-2 6.2a12 12 0 0 1-2 5.3 12 12 0 0 0-2 5.5c0 1.4-.9 4.2-2 6.3s-2 4.6-2 5.7-.9 3.7-2 5.7c-1.1 2.1-2 4.7-2 5.8-.1 1.1-.9 3.8-2 6a22 22 0 0 0-2 5.8c0 .9-.9 3.4-2 5.4s-2 4.8-2 6-.9 4-2 6c-1.1 2.1-2 4.7-2 5.8s-.6 3-1.4 4.1-1.7 3.8-2.1 6c-.4 2.1-1.3 4.8-2 5.9s-1.6 3.5-1.9 5.3c-.4 1.7-2.1 5.9-3.8 9.3-2.3 4.5-3.3 5.8-4.2 4.9-.8-.8-1.2-26-1.6-90.8l-.5-89.7-27.6-.3c-15.1-.1-27.8.1-28.2.5m227.6 0c-1 .4-1.3 42.7-1.3 206.9V1320l2.3.5c1.2.3 13.7.4 27.7.3l25.5-.3v-414l-26.5-.2a364 364 0 0 0-27.7.4m99.4 0c-1.3 1.2-.8 52.8.5 54.1.9.9 8.3 1.2 26.9 1.2 19.5 0 26 .3 26.6 1.2.4.7 1 81.4 1.3 179.3l.5 178 11.4.3c12.1.3 14.6 1.1 13.7 4.6-.4 1.2-1.1 6.5-1.6 11.9a77 77 0 0 1-2.5 14.3c-.8 2.5-1.5 6.8-1.5 9.7s-.7 7.7-1.5 10.7-2 9.9-2.5 15.2a55 55 0 0 1-2 11.8c-.6 1.1-1.5 6.4-2 11.8a69 69 0 0 1-1.9 12.6 66 66 0 0 0-2.1 12.8 55 55 0 0 1-2 11.8c-.6 1.1-1.5 6.4-2 11.8a68 68 0 0 1-1.9 12.5c-.6 1.5-1.5 7.2-2 12.6a55 55 0 0 1-2 11.9c-.6 1.1-1.5 6.4-2 11.8a74 74 0 0 1-2 12.7c-.6 1.5-1.5 7.2-2 12.6a62 62 0 0 1-1.9 11.8c-.6 1-1.5 6.7-2 12.7a48 48 0 0 1-2.1 11.9c-.5.7-1.3 5.3-1.7 10.2-.3 5-1.3 10.8-2 13s-1.6 7.8-2 12.5a57 57 0 0 1-1.9 11.6c-.7 1.8-1.6 7.2-2 12a78 78 0 0 1-2 12.9 65 65 0 0 0-2.1 12.5 68 68 0 0 1-1.9 12.1 69 69 0 0 0-2 12.5 56 56 0 0 1-2 11.9 58 58 0 0 0-2 12 69 69 0 0 1-2 12.4c-.7 2-1.6 7.6-2 12.6a67 67 0 0 1-2 12.5c-.8 1.9-1.6 7.3-2 11.8s-1.2 10-1.9 12c-.7 2.1-1.6 7.7-2 12.5a72 72 0 0 1-2 12.5 67 67 0 0 0-2 11.9c-.3 4.5-1.2 9.9-2 12a73 73 0 0 0-1.9 13.8 94 94 0 0 1-2.1 15c-.8 2.8-1.7 9.4-2 14.8a93 93 0 0 1-2 15c-.8 2.8-1.7 9.6-2 14.9s-1.1 11-1.7 12.5c-.6 1.6-1.5 7.9-2 14-.4 6.2-1.5 13.7-2.3 16.5s-1.7 9.6-2 14.9-1 10.9-1.7 12.5-1.5 8.1-1.9 14.4a89 89 0 0 1-2 14.5 82 82 0 0 0-2 14.6 89 89 0 0 1-2 14.5c-.7 1.6-1.5 7.8-2 13.9-.5 6-1.6 13.7-2.4 17-.9 3.2-1.6 8.6-1.6 12-.1 3.3-.5 7.8-.9 10-2.6 12-3.1 15-2.5 16.7.5 1.7 3.2 1.8 54.5 1.8 32.4 0 54.7-.4 55.8-1 1.4-.7 1.9-2.7 2.5-10.3.3-5.2 1.2-11.6 2-14.3s1.7-9.3 2-14.6c.4-5.4 1.1-11 1.7-12.5.6-1.6 1.5-8 2-14.3a129 129 0 0 1 2.4-16.5c.7-2.7 1.6-9.4 1.9-14.7.4-5.4 1.1-11 1.7-12.5.6-1.6 1.5-7.5 1.9-13.3.5-5.8 1.6-13.2 2.4-16.5.9-3.2 1.6-8.5 1.6-11.8 0-4.8.4-6.2 2.5-8.2l2.4-2.5h113l1.5 2.2a10 10 0 0 1 1.6 4.8c0 1.4.6 4.5 1.4 7 .8 2.6 1.7 9.1 2.1 14.5s1.3 12.2 2 15c.8 2.7 1.7 9.7 2.1 15.5.3 5.8 1.1 11.3 1.6 12.3s1.3 7 1.9 13.5 1.6 14.2 2.4 17.2 1.6 9.8 2 15 1.3 11.7 2 14.5a102 102 0 0 1 2 15.7c.6 8.5 1.1 11.3 2.7 13.3l1.9 2.5h53.9c49.9 0 53.8-.1 54.4-1.7.9-2.3-.3-16.7-1.9-22.8-.7-2.8-1.6-9.3-2-14.5a84 84 0 0 0-2-14.5c-.7-2.8-1.6-9.7-2-15.4a58 58 0 0 0-1.6-12.3c-.6-1-1.4-7.4-2-14.1a84 84 0 0 0-2-14.7c-.6-1.3-1.5-8-2-14.9a92 92 0 0 0-2-14.4 69 69 0 0 1-2-14.2 93 93 0 0 0-2-15.2c-.6-1.5-1.5-8-1.9-14.4a89 89 0 0 0-2-14.5c-.7-1.6-1.6-8.1-2-14.5a89 89 0 0 0-2-14.5c-.7-1.6-1.6-8.4-2-15.1a69 69 0 0 0-2-14.2c-.5-1.1-1.4-7.2-2-13.5a69 69 0 0 0-2-13.6c-.6-1.1-1.5-6.5-1.9-11.9a56 56 0 0 0-2-11.9 59 59 0 0 1-2-12.6 64 64 0 0 0-2.1-12.6c-.6-1.1-1.5-6.4-2-11.8a102 102 0 0 0-2.5-15.2c-.8-3-1.5-7.9-1.5-11-.1-3-.7-7.3-1.6-9.5a57 57 0 0 1-2-12c-.3-4.4-1.2-10-2-12.5a91 91 0 0 1-2.3-14.2 53 53 0 0 0-2-11.6c-.6-1.1-1.3-5.7-1.7-10.3a70 70 0 0 0-2-13c-.8-2.6-1.9-8.9-2.3-14a63 63 0 0 0-2-12.2c-.6-1.5-1.4-6.4-1.7-11s-1.3-10-2.1-12.1a74 74 0 0 1-2-12.5 65 65 0 0 0-1.9-12.4c-.8-2.1-1.6-7.5-2-12s-1.2-9.8-1.9-11.8c-.7-1.9-1.6-7.3-2-12a91 91 0 0 0-2-12.9c-.8-2.5-1.7-8.3-2.1-13a68 68 0 0 0-1.9-12.1c-.7-2-1.6-7.6-2-12.4a58 58 0 0 0-2-12 53 53 0 0 1-2-11.5 69 69 0 0 0-2-13c-.7-2.5-1.6-8.1-2-12.5s-1.2-9.8-2-12c-.7-2.2-1.6-8-2-12.9a61 61 0 0 0-2-12c-.7-1.7-1.6-7.1-1.9-12-.4-5-1.2-9.8-1.7-10.9s-1.5-6.4-2.1-12a86 86 0 0 0-2.4-14.5 36 36 0 0 1-1.4-9.7v-5.5h-59.6c-39.1 0-60.2-.4-61.5-1-1.9-1.1-1.9-4.1-1.9-179.3 0-137.4.3-178.6 1.2-179.5s8.3-1.2 27-1.2c24.6 0 25.8-.1 26.8-2 .7-1.2.9-11.1.8-27.7l-.3-25.8-84.1-.3c-46.2-.1-84.4.1-84.7.5m162.3 609.8c.5 6 1.6 13.7 2.4 17 .9 3.2 1.6 8.9 1.6 12.5s.7 9.3 1.6 12.5c.8 3.3 1.9 10.9 2.4 17s1.3 12.3 2 13.9 1.5 8.1 2 14.5 1.3 12.9 1.9 14.4 1.5 8.4 2 15.2 1.4 13.3 2 14.3a73 73 0 0 1 2 14.3 91 91 0 0 0 2 15.1c.6 1.6 1.5 8.1 2 14.5s1.5 13.1 2.1 14.7a66 66 0 0 1 1.6 12.5c.3 5.3 1.2 12 2 14.9.8 2.8 1.9 10.3 2.3 16.5.5 6.1 1.4 12.4 2 14s1.3 7.1 1.7 12.5c.3 5.3 1.2 12 2 14.7a114 114 0 0 1 2 14.7c.6 9 .6 9.6-1.4 10.7-2.3 1.2-78.3 1.4-83.7.2-3-.7-3-.7-2.8-7.4 0-3.7.6-8.2 1.2-10 .7-1.7 1.6-8.4 2.1-14.7s1.3-12.8 2-14.4 1.5-8.1 2-14.5 1.3-12.8 1.9-14.3c.6-1.6 1.5-8.4 2.1-15.3.5-7 1.4-13.4 2-14.4.5-1.1 1.4-7.5 1.9-14.4s1.4-13.4 2-14.4a92 92 0 0 0 2-14.4c.5-6.9 1.4-13.6 2-14.9a84 84 0 0 0 2-14.7c.6-6.7 1.4-13.1 2-14.1.5-.9 1.3-6.7 1.6-12.7.4-6.1 1.3-12.8 2-15 .8-2.2 1.6-8.5 2-14s1.3-12.3 2-15c.7-2.8 1.7-9.3 2-14.5s1.3-12 2-15c.8-3 1.8-10.7 2.4-17.1.7-10 1.3-12.4 3.7-16.4 2.7-4.6 2.8-4.7 3.6-2.4.5 1.3 1.3 7.3 1.8 13.4m267.8-609.4c-1.7.9-1.8 11.9-1.8 207.4 0 203.1 0 206.4-1.9 207.5-1.1.5-6.7 1-12.5 1H1702v380.4c0 209.2.3 381.1.6 382 .6 1.4 8.9 1.6 83.8 1.6 89.1 0 116.5-.9 127.5-4.1 3.5-1 7.8-1.9 9.5-1.9a22 22 0 0 0 7.1-2c2.2-1.1 5.1-2 6.5-2a12 12 0 0 0 5.5-2c1.7-1.1 3.9-2 5-2.1 1.1 0 4.3-1.4 7-3l7.5-4.2c1.4-.7 4.5-2.6 6.9-4.2l6-4c.9-.6 2.6-1.9 3.7-3l6.7-6.2c2.6-2.3 4.7-4.5 4.7-4.9 0-.3 1.4-1.9 3-3.6 1.7-1.6 3.8-4.4 4.7-6.2a14 14 0 0 1 2.5-3.7c1.2-.8 2.6-3.3 6.8-11.9l5.1-10.2c1-2 1.9-4.4 1.9-5.3s.9-3.2 2-5.2a19 19 0 0 0 2-7.3c0-1.9.7-4.9 1.6-6.5.9-1.7 2-7.3 2.5-12.5a92 92 0 0 1 2.1-13c1-2.7 1.3-22.1 1.3-84.5 0-74.7-.1-81.4-1.7-85.8a30 30 0 0 1-1.8-8.8 21 21 0 0 0-2-7.9c-1.1-2.2-2-4.8-2-5.9 0-2-7.7-17-12.3-24.1a181 181 0 0 0-21.9-22.5l-6.2-4.3a26 26 0 0 0-5.7-3.2c-1.8 0-5.9-4.9-5.9-6.9q0-2 3.3-3.6c5.5-2.7 9.2-4.8 10.2-6a104.2 104.2 0 0 0 33.3-37.5 35 35 0 0 0 5.2-12.2c0-1.3.7-3.3 1.5-4.5s2-5.6 2.5-9.8a39 39 0 0 1 2.2-9.8c1.9-3.2 1.9-162 0-168.9-.6-2.6-1.6-8.9-2.2-14.1a46 46 0 0 0-2.5-12.3c-.8-1.6-1.5-4.5-1.5-6.4a19 19 0 0 0-2-7.3c-1.1-2-2-4.5-2-5.5s-.9-3.4-2-5.5c-1.1-2-2-4.2-2-4.8s-.9-2.2-2-3.6a10 10 0 0 1-2-3.9c0-.7-1.1-3-2.5-5.1l-3.8-5.7a123 123 0 0 0-32.7-32l-5.5-3.1c-2.2-1.4-5.1-3-6.5-3.6s-4.2-1.9-6.2-3c-2-1-4.5-1.9-5.5-1.9a8 8 0 0 1-3.9-1.4c-1.1-.8-4.6-1.9-7.7-2.5s-6.6-1.5-7.7-2.1-6.4-1.5-11.8-2a79 79 0 0 1-11.5-1.6c-1.6-.6-1.7-14.5-1.9-209.3l-.3-208.6h-57l-.2 88c-.3 81.3-.4 88.1-2 89.2-2.1 1.6-47.8 1.8-51.7.3l-2.6-.9-.2-88.3-.3-88.3-27-.2a169 169 0 0 0-28.7.8m110.3 235.9c1.9 1 1.9 3.1 1.9 89.6 0 83.3-.1 88.5-1.7 89.2-1 .4-12.8.7-26.3.7s-25.3-.3-26.2-.7c-1.7-.7-1.8-5.9-1.8-89.3v-88.6l2.3-.9c3.2-1.3 49.4-1.3 51.8 0m35.9 286.7c1.4.7 4.6 1.5 7.2 1.8s5.3 1.2 6 1.9a9 9 0 0 0 3.8 1.9c4.9 1.3 16.9 14.5 17 18.6a6 6 0 0 0 1.5 3.1c3.3 3.7 4 17.7 4 84s-.5 77.2-4 81c-.8.9-1.5 2.4-1.5 3.2 0 2-7.6 11.8-11.5 14.9-5.3 4.2-6.8 5-16.2 8.8-4.9 2-7 2.1-36 2.1-22.7 0-31.2-.3-32.1-1.2s-1.2-26.6-1.2-109.3c0-112.5-.1-110.3 4-111.9 2.8-1.1 56.4-.1 59 1.1m-2.7 330.2q9.8 1 11.6 2.5a53.6 53.6 0 0 1 23.1 18.6c1.1 1.1 2 2.8 2 3.7s.7 2.4 1.5 3.3c3.4 3.8 4 15.7 4 82 0 72.5-.3 76.4-6 87.5a40 40 0 0 1-18.9 18.5c-8.1 4-17.1 4.9-51.3 4.9-19.8.1-23.4-.1-24.7-1.5s-1.6-12.6-1.6-109c0-72.2.3-108.2 1-109.5 1-1.8 2.3-1.9 25.3-1.9 13.3.1 28.6.5 34 .9m84.2-851.7c-.3 1.3-.4 94.5-.3 207.3l.3 205 74.5.3c41 .1 75.5 0 76.8-.3l2.2-.5v-26.1c0-16-.4-26.8-1-28-1-1.8-2.6-1.9-46.8-1.9-34.3 0-46.1-.3-47-1.2s-1.2-15.6-1.2-60c0-57 .1-58.8 1.9-59.8 1.3-.6 16.2-1 41.5-1h39.6v-57h-39.6c-25.3 0-40.2-.4-41.5-1-1.8-1-1.9-2.8-1.9-59.9 0-55.7.1-58.9 1.8-60.4s6.4-1.7 46.9-1.7c37 0 45.3-.2 46.2-1.4.8-.9 1.1-9.1.9-27.7l-.3-26.4-76.2-.3-76.3-.2zm202-1c-.3.7-.4 94-.3 207.3l.3 206 25 .3c13.8.1 26 0 27.2-.3l2.3-.5.2-113.7c.2-74.6.6-113.7 1.3-114 1.6-.5 6.4 10.7 7.1 16.7.4 3 1.2 6.6 1.9 8s1.6 5.2 2 8.5 1.3 7.1 2 8.5 1.6 5.2 2 8.5 1.3 7.3 2 9a41 41 0 0 1 2 8.5c.3 3 1.2 6.8 2 8.5a41 41 0 0 1 2 8.5c.3 3 1.2 6.8 2 8.5a41 41 0 0 1 2 8.5c.3 3 1.2 6.8 2 8.5.7 1.6 1.6 5.7 2 9s1.1 6.5 1.6 7.2c.6.6 1.5 4.2 2 8s1.6 8.1 2.4 9.8c.7 1.6 1.6 5.7 2 9s1.1 6.5 1.7 7.2c.5.6 1.4 4.5 2 8.5.5 4 1.4 7.8 2 8.5.5.6 1.4 4.5 2 8.5.5 4 1.4 7.8 2 8.5.5.6 1.4 4.5 2 8.5.5 4 1.4 7.8 2 8.5.5.7 1.4 4.3 1.8 8q.8 6.7 2.6 8c1.4 1 8 1.3 27.3 1.3 14.1 0 26.6-.3 27.9-.6l2.2-.6V1114c0-173.3-.2-205.9-1.4-206.9-.9-.8-8.6-1.1-25.7-.9l-24.4.3-.5 116.5c-.5 118.8-.7 125.7-4 117.5l-3-7a41 41 0 0 1-2.5-9.5c-.3-3-1.2-6.9-2-8.5-.7-1.7-1.6-5.5-2-8.5s-1.2-6.9-2-8.5c-.7-1.7-1.6-5.5-2-8.5a33 33 0 0 0-2-8c-.7-1.4-1.6-5.4-2-9s-1.3-7.4-2-8.5-1.6-4.6-1.9-7.8c-.4-3.2-1.2-7.1-2-8.5-.7-1.5-1.6-5.3-2-8.5s-1.2-7.1-2-8.5c-.7-1.5-1.6-5.3-2-8.5s-1.2-7.1-2-8.5c-.7-1.5-1.6-5.4-2-8.6-.4-3.3-1.1-6.5-1.7-7.2s-1.5-4.5-2-8.5c-.5-3.9-1.4-7.8-2-8.5a31 31 0 0 1-2.1-8.6c-.5-4-1.4-7.8-2-8.5-.5-.6-1.4-4.5-2-8.5-.5-4-1.4-7.8-2-8.5-.5-.7-1.4-4.3-1.8-8s-1.6-8.2-2.4-9.8c-.9-1.7-1.6-4.6-1.6-6.6s-1.1-6.5-2.4-10l-2.4-6.4-28.1-.3c-22-.2-28.3 0-28.6 1M2110 1966.1a16 16 0 0 1-5.6 1.9c-1.2 0-2.7.7-3.4 1.5s-2.2 1.7-3.3 2.1c-3.3 1-12.6 8.9-17.4 14.7a50 50 0 0 0-9.3 16c-.1.7-.9 3-2 5.2-1.6 3.4-1.9 6.3-2 18 0 12.2.3 14.5 2 17.8 1.1 2 2 4.5 2 5.6s.9 3 2 4.4 2 3 2 3.5c0 1 7.6 11.1 9.1 12.2l4.5 3.7a45 45 0 0 0 16.1 9.8 86 86 0 0 0 23.3 4.8c7.1.1 21.5-3.2 27-6.2 3-1.6 6.5-3.5 7.8-4s5.6-4.4 9.5-8.4a57 57 0 0 0 17-34.5c.9-6.4 1.2-11.5.7-13.5-.5-1.8-1.1-5.9-1.5-9.1a38 38 0 0 0-5.6-15.6l-2.2-4c-1.4-3-2.4-4.1-9-11-2.6-2.8-5.1-5-5.6-5s-1.6-.9-2.6-2-2.4-2-3-2-2.4-.9-3.8-2a9 9 0 0 0-4.4-2c-1 0-3.5-.9-5.6-2-3.2-1.8-5.5-2-18.4-1.9-12.7 0-15.3.3-18.3 2m29 3.3a47 47 0 0 1 14 4.5c3 1.6 6.5 3.5 7.8 4s2.2 1.5 2.2 2q.2.9 2 1.6c3.9 1.2 17 19.9 17 24.3a50.4 50.4 0 0 1 2.5 31.2 86 86 0 0 0-2.5 8.4c-.4 2.1-1.2 4.1-1.8 4.5-.5.3-1.7 2.4-2.6 4.5a76 76 0 0 1-20 20.3l-5.6 2.8a11 11 0 0 1-4.3 1.5c-1 0-3.2.8-5 1.7a61 61 0 0 1-28.7.1c-1.4-.9-4.1-1.9-6.1-2.2-2.1-.4-4.2-1.3-4.9-2.1q-1.2-1.4-2.6-1.5a63 63 0 0 1-17.3-15 36 36 0 0 1-6.1-10c0-.7-.6-2.1-1.4-2.9-1.3-1.5-2-4.2-4.5-18.6-.4-2.2-.2-6.4.5-9.5s1.5-7.6 1.8-10.2 1.1-5 1.5-5.3c.5-.2 2-2.9 3.5-5.9s5.2-8 8.4-11.3a54 54 0 0 1 16.4-12.3c.6 0 1.9-.7 2.9-1.6.9-.8 4.8-2 8.6-2.5s8.2-1.3 9.8-1.8 3.7-.7 4.5-.5zm-39 25.2c-.6 1.6-.9 14.4-.8 32.3l.3 29.6 2.8.3 2.7.3v-12.6c0-12.2.1-12.7 2.5-15.1 2.3-2.3 3.2-2.5 7.8-2.1 8 .7 12.4 2.2 15.4 5.3s12.3 16.5 12.3 17.8c0 .4 1 2 2.2 3.6 1.6 2.3 3 3 5.5 3 1.8 0 3.3-.4 3.3-.8s-1.3-2.9-3-5.3-3-4.9-3-5.5q-.1-1.1-1.5-1.8t-1.5-1.8c0-.7-2.5-4-5.5-7.2-5.9-6.5-6-7.9-.2-9.2 1.8-.3 4-1.5 5-2.5 1-1.1 2.1-1.9 2.5-1.9 1 0 4.4-8.6 4.4-11.3 0-3.5-2.7-9.6-5.3-12.1-4.1-4-12.8-5.6-29.7-5.6H2101zm40.1 6.1q5 5.7 4.8 9.5c-.1 3-2.9 7.8-5.4 9.2a9 9 0 0 0-2.7 2.1c-.4.6-6.9 1.1-14.6 1.3-12.1.3-14 .1-15.3-1.4a45 45 0 0 1-.9-21.9c1-1.2 4.3-1.5 16.4-1.5h15.2z"/><path d="M400.1 506.4q-1.7 2.1 1.9 7.6c.5.8 1.5 2.6 2.1 4 .5 1.4 2.1 4.3 3.4 6.5 1.4 2.2 2.9 5.1 3.5 6.5 1.5 3.5 1.7 4 4.4 8.5 1.3 2.2 4 7.2 6 11.2s4 7.5 4.5 7.8 1.2 1.9 1.6 3.5 1 3 1.5 3 1.5 1.8 2.3 3.9a14 14 0 0 0 2.6 4.5c.5.4 1.2 2 1.6 3.6s1 3 1.5 3 1.4 1.5 2 3.4 1.7 4 2.5 4.6c.7.6 1.7 2.5 2 4.1s1 2.9 1.4 2.9c.5 0 1.5 1.7 2.4 3.7.9 2.1 2.2 4.7 2.8 5.8a79 79 0 0 1 4.8 9.1c1.1 2.3 2.4 4.5 3 4.8q1 .8 1.1 2.3c0 .8.9 2.6 2 4a9 9 0 0 1 2 4.3c0 .9.9 2.5 2 3.5s2 2.6 2 3.6.4 2.1 1 2.4 2.6 3.8 4.6 7.8l7.9 15.2 8 15 5 9.5 2 4c.3.8 1.7 3.3 3 5.5s3 5.1 3.6 6.5l2 4 2.5 4.5 5.9 11 8 15.3c2.1 4 4.1 7.5 4.6 7.7s1 1.9 1.4 3.5 1 3 1.5 3 1.5 1.8 2.3 3.9a14 14 0 0 0 2.6 4.5c.5.4 1.2 2 1.6 3.6s1 3 1.5 3 1.5 1.8 2.3 3.9a14 14 0 0 0 2.6 4.5c.5.4 1.2 2 1.6 3.6s1 3 1.4 3c.5 0 1.5 1.7 2.5 3.7.9 2.1 3.6 7.4 6.1 11.8a194 194 0 0 1 6.6 12.5l2.9 5.5a246 246 0 0 0 8 15c1.1 2.2 2.4 4.8 3 5.7a1363.4 1363.4 0 0 0 14.6 27.3c4.2 7.7 5.5 10.3 6.9 13.5.3.8 1.7 3.3 3 5.5s3 5.1 3.6 6.5l2 4 2.5 4.5 4.4 8.5 3 5.5V1701c0 434.8.4 791.1.8 791.8.7 1 200.4 1.2 995.3 1l994.4-.3v-1988l-1101.1-.3c-934.8-.2-1101.3 0-1102.3 1.2m2101.1 100.4c1.1 1.1 1.3 162.7 1.6 891.9.2 796.7 0 890.9-1.3 893l-1.5 2.3h-891.4c-746.8 0-891.5-.2-892.5-1.3-.8-1-1.2-200.6-1.3-754.9-.3-702.7-.4-753.7-2-755.4-.9-1.1-2-3.1-2.3-4.7-.4-1.5-1-2.7-1.5-2.7s-1.4-1.7-2.4-3.8-3.6-7.3-6-11.7l-7.7-14.5a49 49 0 0 0-4.6-7.8c-.7-.7-1.3-2-1.3-2.9s-.9-2.6-2-4a9 9 0 0 1-2-4.2c0-.9-.9-2.4-2-3.4s-2-2.6-2-3.6c0-1.1-.4-2.3-1-2.6s-2.6-3.8-4.6-7.8l-8-15.2c-2.4-4.4-5.1-9.4-5.9-11.2s-1.9-3.4-2.4-3.7-1.2-1.8-1.6-3.3c-.3-1.4-1.5-3.8-2.6-5.1a10 10 0 0 1-1.9-4.2q-.1-1.7-1.4-2.3c-.7-.3-1.7-1.8-2-3.3s-1.6-3.9-2.7-5.2a10 10 0 0 1-1.9-4.2q-.1-1.7-1.4-2.3c-.8-.3-1.7-1.9-2.1-3.6s-1-3.3-1.5-3.6a44 44 0 0 1-4.5-7.8l-8-15.2-8-15.3c-2.1-4-4.1-7.5-4.6-7.7s-1-1.9-1.4-3.5-1-3-1.4-3c-.5 0-1.5-1.7-2.5-3.8s-3.6-7.3-6.1-11.7a194 194 0 0 1-6.6-12.5l-2.5-4.9c-.8-1.9-2.2-4-3-4.8a5 5 0 0 1-1.4-3c0-.8-.9-2.6-2-4a9 9 0 0 1-2-3.8c0-.6-.9-2.2-2-3.5s-2-3.1-2-4c0-1-.7-2.3-1.5-3a9 9 0 0 1-2.1-3.3c-.4-1.2-2.4-5.2-4.6-9-3.9-6.7-4.3-10-1.4-11.9.6-.4 435-.7 965.3-.5 789.6.2 964.4.4 965.5 1.5m-932 293.7c-2.4.7-6.5 1.6-9.2 2s-6.6 1.5-8.7 2.6c-2 1-4.3 1.9-5.1 1.9s-2.5.9-3.9 2a10 10 0 0 1-3.9 2 88 88 0 0 0-18.4 17.6q-.1 1.4-1.4 2c-.8.3-1.8 1.8-2.1 3.4a8 8 0 0 1-2.1 4.1 4 4 0 0 0-1.4 2.8c0 .9-.8 3.3-1.9 5.4-1 2-2.2 6.3-2.6 9.4s-1.3 8.3-2.1 11.3c-2.1 8.2-2.1 284.9.1 292.9.7 2.9 1.7 7.9 2.1 11 .3 3.1 1.2 6.5 1.9 7.6s1.6 3.6 2 5.5 1.6 4.6 2.6 5.9a8 8 0 0 1 1.9 3.7c0 1.6.3 1.9 9.8 12.1 3.6 4 7.2 7.3 8 7.3q1.2.1 1.8 1.4c.3.8 1.9 1.8 3.6 2.1 1.6.4 3.2 1.3 3.4 2 .3.7 2.2 1.6 4.2 2s4.6 1.3 5.8 2a40 40 0 0 0 9.8 2.4 43 43 0 0 1 9.6 2.1c2.5 1.3 31.1 1.3 34.6 0 1.5-.6 6.1-1.5 10.2-2.1a35 35 0 0 0 9.6-2.4c1.2-.7 3.5-1.6 5.3-2a9 9 0 0 0 4.4-2.1c.6-.8 1.7-1.4 2.3-1.4 3.3-.1 19.2-13.9 22.1-19.2a71 71 0 0 0 8-16.8c.4-1.9 1.3-4.6 2-6 2.6-5.1 4.5-29.5 4.5-58.7V1188l-2.2-.5c-1.3-.3-14-.4-28.3-.3l-26 .3-.5 31c-.5 28.9-.7 31.4-2.8 36.4-2.2 5.6-6.2 10.6-9.7 12.2l-4.5 2.4q-2.5 1.5-11.5 1.5c-7.8 0-9.7-.4-13.9-2.6-5.5-3-9.3-6.8-10.2-10.4-.4-1.4-1.4-3.3-2.3-4.4-1.5-1.6-1.6-14.2-1.6-140 0-129.9.1-138.3 1.8-140.9.9-1.4 1.7-3.3 1.7-4.1 0-1.8 4.9-7.3 8.1-9.2 5.7-3.2 7.6-3.6 17.9-3.2 9.3.4 10.9.7 14.2 3 5.3 3.7 8.2 7.5 10.4 13.8 1.7 4.8 2 9.4 2.4 36l.5 30.5 25 .3c13.8.2 26.5 0 28.3-.3l3.3-.6-.4-32.2c-.4-34.3-1.6-49.3-4.8-56.9-1-2.6-1.9-5.5-1.9-6.6s-.6-2.5-1.4-3.1a8 8 0 0 1-2-3.6c-.6-2.3-3.7-7.4-6.4-10.5a73 73 0 0 0-11.2-11.2 30 30 0 0 0-6.7-4.2 9 9 0 0 1-3.3-2.1c-.7-.8-2-1.5-2.9-1.5s-3.4-.9-5.4-1.9a33 33 0 0 0-9-2.6c-2.9-.4-7.1-1.3-9.5-2.1-5.8-1.9-35.9-1.8-42 .1m-597.5 6.2c-.4.3-.7 93.4-.7 206.7 0 127.9-.4 206.7-1 207.6-.8 1.2-4.8 1.6-24 1.8l-23 .3V2087h145.5c142.8 0 145.4 0 146.5-1.9.6-1.3 1-19.2 1-51.4 0-46.6-.1-49.5-1.8-51-1.7-1.6-9.3-1.7-89.3-1.7-66.7 0-87.8-.3-88.7-1.2s-1.2-75.3-1.2-328.9v-327.6l-3.2-.9-3.3-1-.3-89.5c-.2-76.6 0-89.8 1.2-91.5 1.4-1.8 1.6-1.7 3.1 2.1 1 2.2 2.3 4.7 3 5.5s1.6 3.3 1.9 5.4a20 20 0 0 0 2.1 6c.7 1.2 1.6 4 2 6.3s1.3 4.7 2.1 5.4c.8.6 1.4 2.3 1.4 3.8 0 1.4.8 4.2 1.9 6.1s2.1 5.3 2.5 7.4a18 18 0 0 0 2.2 6c.8 1.1 1.4 3 1.4 4.1s.9 3.7 2 5.8 2 4.6 2 5.7.9 3.8 2 6a18 18 0 0 1 2 6c0 1.1.9 3.7 2 5.7 1.1 2.1 2 4.7 2 5.8s.9 3.7 2 5.8 2 4.6 2 5.7.9 3.7 2 5.7c1.1 2.1 2 4.7 2 5.8s.9 3.7 2 5.8 2 4.6 2 5.7.9 3.7 2 5.7c1.1 2.1 2 4.7 2 5.8.1 1.1.9 3.8 2 6a22 22 0 0 1 2 5.8c0 .9.9 3.4 2 5.4s2 4.8 2 6 .9 4 2 6c1.1 2.1 2 4.8 2 6s.9 3.2 2 4.3c1.9 1.9 3.3 2 29.9 2a453 453 0 0 0 29.4-.5c1.1-.5 1.2-1.4.3-4.9a21 21 0 0 0-2.2-5.7 11 11 0 0 1-1.8-4.6c-.4-1.7-1.6-4.8-2.7-6.9-1-2.1-1.9-4.8-1.9-6s-.6-2.7-1.4-3.3c-.8-.7-1.7-2.8-2.1-4.8a18 18 0 0 0-2.1-5.7 8 8 0 0 1-1.4-3.6c0-.8-.8-3.1-1.9-5s-2.2-5.1-2.6-7-1.4-4.4-2.1-5.5a7 7 0 0 1-1.4-3.5c0-.8-.9-3.2-2-5.3s-2-4.5-2-5.5-.9-3.4-2-5.5c-1.1-2-2-4.3-2-5s-.9-2.9-2-5c-1.1-2-2-4.5-2-5.5s-.9-3.4-2-5.5c-1.1-2-2-4.3-2-5s-.8-2.8-1.9-4.7-2.1-5.2-2.5-7.3-1.1-3.7-1.6-3.7-1.2-1.7-1.6-3.8c-.3-2-1.5-5.1-2.5-6.8-1.1-1.7-1.9-4-1.9-5a8 8 0 0 0-1.4-4 27 27 0 0 1-2.6-6.4 27 27 0 0 0-2.6-6.4c-.8-1.1-1.4-3-1.4-4.1s-.6-3-1.4-4.1a27 27 0 0 1-2.6-6.4 27 27 0 0 0-2.6-6.4 8 8 0 0 1-1.4-3.8c0-1-.9-3.5-2-5.5a17 17 0 0 1-2-5.5c0-.9-.9-3.3-2.1-5.2q-2-3.4-2-9.1t2-9.6c1.2-2.2 2.1-4.7 2.1-5.7s.9-3.2 2-5 2-4 2-5 .9-3.4 2-5.5c1.1-2 2-4.5 2-5.4s.9-3.2 2-4.8a12 12 0 0 0 2-5c0-1.1.9-3.7 2-5.8s2-4.5 2-5.5.6-2.7 1.4-3.8a27 27 0 0 0 2.6-6.4 27 27 0 0 1 2.6-6.4 8 8 0 0 0 1.4-3.8c0-1 .9-3.5 2-5.5 1.1-2.1 2-4.3 2-5s.9-3 2-5c1.1-2.1 2-4.7 2-5.8s.9-3.4 2-5a12 12 0 0 0 2-4.8c0-.9.9-3.4 2-5.4s2-4.6 2-5.5.9-3.5 2-5.5c1.1-2.1 2-4.3 2-5s.9-3 2-5c1.1-2.1 2-4.8 2-6s.6-2.8 1.4-3.5 1.7-3 2.1-4.9 1.3-4.3 2-5.4 1.5-3.4 1.9-5.2c.4-1.7 1.6-4.8 2.7-6.9 1-2.1 1.9-4.5 1.9-5.4s.6-2.4 1.4-3.5 1.7-3.6 2.1-5.5 1.4-4.4 2.1-5.5a7 7 0 0 0 1.4-3.5c0-.9.9-3.4 2-5.5 1.2-2.2 2.2-5.6 2.3-7.5l.2-3.5-28.4-.3c-32.3-.3-32.4-.3-33.5 6.9-.4 2.3-1.3 5.1-2.1 6.2a9 9 0 0 0-1.5 4.2c-.1 1.1-.9 3.8-2 6a22 22 0 0 0-2 6c0 1.1-.9 3.7-2 5.8s-2 4.6-2 5.7a18 18 0 0 1-2 6c-1.1 2.2-2 4.7-2 5.7s-.9 3.5-2 5.6-2 4.6-2 5.7a18 18 0 0 1-2 6c-1.1 2.2-2 5-2 6.2a12 12 0 0 1-2 5.3 12 12 0 0 0-2 5.5c0 1.4-.9 4.2-2 6.3s-2 4.6-2 5.7-.9 3.7-2 5.7c-1.1 2.1-2 4.7-2 5.8-.1 1.1-.9 3.8-2 6a22 22 0 0 0-2 5.8c0 .9-.9 3.4-2 5.4s-2 4.8-2 6-.9 4-2 6c-1.1 2.1-2 4.7-2 5.8s-.6 3-1.4 4.1-1.7 3.8-2.1 6c-.4 2.1-1.3 4.8-2 5.9s-1.6 3.5-1.9 5.3c-.4 1.7-2.1 5.9-3.8 9.3-2.3 4.5-3.3 5.8-4.2 4.9-.8-.8-1.2-26-1.6-90.8l-.5-89.7-27.6-.3c-15.1-.1-27.8.1-28.2.5m227.6 0c-1 .4-1.3 42.7-1.3 206.9V1320l2.3.5c1.2.3 13.7.4 27.7.3l25.5-.3v-414l-26.5-.2a364 364 0 0 0-27.7.4m99.4 0c-1.3 1.2-.8 52.8.5 54.1.9.9 8.3 1.2 26.9 1.2 19.5 0 26 .3 26.6 1.2.4.7 1 81.4 1.3 179.3l.5 178 11.4.3c12.1.3 14.6 1.1 13.7 4.6-.4 1.2-1.1 6.5-1.6 11.9a77 77 0 0 1-2.5 14.3c-.8 2.5-1.5 6.8-1.5 9.7s-.7 7.7-1.5 10.7-2 9.9-2.5 15.2a55 55 0 0 1-2 11.8c-.6 1.1-1.5 6.4-2 11.8a69 69 0 0 1-1.9 12.6 66 66 0 0 0-2.1 12.8 55 55 0 0 1-2 11.8c-.6 1.1-1.5 6.4-2 11.8a68 68 0 0 1-1.9 12.5c-.6 1.5-1.5 7.2-2 12.6a55 55 0 0 1-2 11.9c-.6 1.1-1.5 6.4-2 11.8a74 74 0 0 1-2 12.7c-.6 1.5-1.5 7.2-2 12.6a62 62 0 0 1-1.9 11.8c-.6 1-1.5 6.7-2 12.7a48 48 0 0 1-2.1 11.9c-.5.7-1.3 5.3-1.7 10.2-.3 5-1.3 10.8-2 13s-1.6 7.8-2 12.5a57 57 0 0 1-1.9 11.6c-.7 1.8-1.6 7.2-2 12a78 78 0 0 1-2 12.9 65 65 0 0 0-2.1 12.5 68 68 0 0 1-1.9 12.1 69 69 0 0 0-2 12.5 56 56 0 0 1-2 11.9 58 58 0 0 0-2 12 69 69 0 0 1-2 12.4c-.7 2-1.6 7.6-2 12.6a67 67 0 0 1-2 12.5c-.8 1.9-1.6 7.3-2 11.8s-1.2 10-1.9 12c-.7 2.1-1.6 7.7-2 12.5a72 72 0 0 1-2 12.5 67 67 0 0 0-2 11.9c-.3 4.5-1.2 9.9-2 12a73 73 0 0 0-1.9 13.8 94 94 0 0 1-2.1 15c-.8 2.8-1.7 9.4-2 14.8a93 93 0 0 1-2 15c-.8 2.8-1.7 9.6-2 14.9s-1.1 11-1.7 12.5c-.6 1.6-1.5 7.9-2 14-.4 6.2-1.5 13.7-2.3 16.5s-1.7 9.6-2 14.9-1 10.9-1.7 12.5-1.5 8.1-1.9 14.4a89 89 0 0 1-2 14.5 82 82 0 0 0-2 14.6 89 89 0 0 1-2 14.5c-.7 1.6-1.5 7.8-2 13.9-.5 6-1.6 13.7-2.4 17-.9 3.2-1.6 8.6-1.6 12-.1 3.3-.5 7.8-.9 10-2.6 12-3.1 15-2.5 16.7.5 1.7 3.2 1.8 54.5 1.8 32.4 0 54.7-.4 55.8-1 1.4-.7 1.9-2.7 2.5-10.3.3-5.2 1.2-11.6 2-14.3s1.7-9.3 2-14.6c.4-5.4 1.1-11 1.7-12.5.6-1.6 1.5-8 2-14.3a129 129 0 0 1 2.4-16.5c.7-2.7 1.6-9.4 1.9-14.7.4-5.4 1.1-11 1.7-12.5.6-1.6 1.5-7.5 1.9-13.3.5-5.8 1.6-13.2 2.4-16.5.9-3.2 1.6-8.5 1.6-11.8 0-4.8.4-6.2 2.5-8.2l2.4-2.5h113l1.5 2.2a10 10 0 0 1 1.6 4.8c0 1.4.6 4.5 1.4 7 .8 2.6 1.7 9.1 2.1 14.5s1.3 12.2 2 15c.8 2.7 1.7 9.7 2.1 15.5.3 5.8 1.1 11.3 1.6 12.3s1.3 7 1.9 13.5 1.6 14.2 2.4 17.2 1.6 9.8 2 15 1.3 11.7 2 14.5a102 102 0 0 1 2 15.7c.6 8.5 1.1 11.3 2.7 13.3l1.9 2.5h53.9c49.9 0 53.8-.1 54.4-1.7.9-2.3-.3-16.7-1.9-22.8-.7-2.8-1.6-9.3-2-14.5a84 84 0 0 0-2-14.5c-.7-2.8-1.6-9.7-2-15.4a58 58 0 0 0-1.6-12.3c-.6-1-1.4-7.4-2-14.1a84 84 0 0 0-2-14.7c-.6-1.3-1.5-8-2-14.9a92 92 0 0 0-2-14.4 69 69 0 0 1-2-14.2 93 93 0 0 0-2-15.2c-.6-1.5-1.5-8-1.9-14.4a89 89 0 0 0-2-14.5c-.7-1.6-1.6-8.1-2-14.5a89 89 0 0 0-2-14.5c-.7-1.6-1.6-8.4-2-15.1a69 69 0 0 0-2-14.2c-.5-1.1-1.4-7.2-2-13.5a69 69 0 0 0-2-13.6c-.6-1.1-1.5-6.5-1.9-11.9a56 56 0 0 0-2-11.9 59 59 0 0 1-2-12.6 64 64 0 0 0-2.1-12.6c-.6-1.1-1.5-6.4-2-11.8a102 102 0 0 0-2.5-15.2c-.8-3-1.5-7.9-1.5-11-.1-3-.7-7.3-1.6-9.5a57 57 0 0 1-2-12c-.3-4.4-1.2-10-2-12.5a91 91 0 0 1-2.3-14.2 53 53 0 0 0-2-11.6c-.6-1.1-1.3-5.7-1.7-10.3a70 70 0 0 0-2-13c-.8-2.6-1.9-8.9-2.3-14a63 63 0 0 0-2-12.2c-.6-1.5-1.4-6.4-1.7-11s-1.3-10-2.1-12.1a74 74 0 0 1-2-12.5 65 65 0 0 0-1.9-12.4c-.8-2.1-1.6-7.5-2-12s-1.2-9.8-1.9-11.8c-.7-1.9-1.6-7.3-2-12a91 91 0 0 0-2-12.9c-.8-2.5-1.7-8.3-2.1-13a68 68 0 0 0-1.9-12.1c-.7-2-1.6-7.6-2-12.4a58 58 0 0 0-2-12 53 53 0 0 1-2-11.5 69 69 0 0 0-2-13c-.7-2.5-1.6-8.1-2-12.5s-1.2-9.8-2-12c-.7-2.2-1.6-8-2-12.9a61 61 0 0 0-2-12c-.7-1.7-1.6-7.1-1.9-12-.4-5-1.2-9.8-1.7-10.9s-1.5-6.4-2.1-12a86 86 0 0 0-2.4-14.5 36 36 0 0 1-1.4-9.7v-5.5h-59.6c-39.1 0-60.2-.4-61.5-1-1.9-1.1-1.9-4.1-1.9-179.3 0-137.4.3-178.6 1.2-179.5s8.3-1.2 27-1.2c24.6 0 25.8-.1 26.8-2 .7-1.2.9-11.1.8-27.7l-.3-25.8-84.1-.3c-46.2-.1-84.4.1-84.7.5m162.3 609.8c.5 6 1.6 13.7 2.4 17 .9 3.2 1.6 8.9 1.6 12.5s.7 9.3 1.6 12.5c.8 3.3 1.9 10.9 2.4 17s1.3 12.3 2 13.9 1.5 8.1 2 14.5 1.3 12.9 1.9 14.4 1.5 8.4 2 15.2 1.4 13.3 2 14.3a73 73 0 0 1 2 14.3 91 91 0 0 0 2 15.1c.6 1.6 1.5 8.1 2 14.5s1.5 13.1 2.1 14.7a66 66 0 0 1 1.6 12.5c.3 5.3 1.2 12 2 14.9.8 2.8 1.9 10.3 2.3 16.5.5 6.1 1.4 12.4 2 14s1.3 7.1 1.7 12.5c.3 5.3 1.2 12 2 14.7a114 114 0 0 1 2 14.7c.6 9 .6 9.6-1.4 10.7-2.3 1.2-78.3 1.4-83.7.2-3-.7-3-.7-2.8-7.4 0-3.7.6-8.2 1.2-10 .7-1.7 1.6-8.4 2.1-14.7s1.3-12.8 2-14.4 1.5-8.1 2-14.5 1.3-12.8 1.9-14.3c.6-1.6 1.5-8.4 2.1-15.3.5-7 1.4-13.4 2-14.4.5-1.1 1.4-7.5 1.9-14.4s1.4-13.4 2-14.4a92 92 0 0 0 2-14.4c.5-6.9 1.4-13.6 2-14.9a84 84 0 0 0 2-14.7c.6-6.7 1.4-13.1 2-14.1.5-.9 1.3-6.7 1.6-12.7.4-6.1 1.3-12.8 2-15 .8-2.2 1.6-8.5 2-14s1.3-12.3 2-15c.7-2.8 1.7-9.3 2-14.5s1.3-12 2-15c.8-3 1.8-10.7 2.4-17.1.7-10 1.3-12.4 3.7-16.4 2.7-4.6 2.8-4.7 3.6-2.4.5 1.3 1.3 7.3 1.8 13.4m267.8-609.4c-1.7.9-1.8 11.9-1.8 207.4 0 203.1 0 206.4-1.9 207.5-1.1.5-6.7 1-12.5 1H1702v380.4c0 209.2.3 381.1.6 382 .6 1.4 8.9 1.6 83.8 1.6 89.1 0 116.5-.9 127.5-4.1 3.5-1 7.8-1.9 9.5-1.9a22 22 0 0 0 7.1-2c2.2-1.1 5.1-2 6.5-2a12 12 0 0 0 5.5-2c1.7-1.1 3.9-2 5-2.1 1.1 0 4.3-1.4 7-3l7.5-4.2c1.4-.7 4.5-2.6 6.9-4.2l6-4c.9-.6 2.6-1.9 3.7-3l6.7-6.2c2.6-2.3 4.7-4.5 4.7-4.9 0-.3 1.4-1.9 3-3.6 1.7-1.6 3.8-4.4 4.7-6.2a14 14 0 0 1 2.5-3.7c1.2-.8 2.6-3.3 6.8-11.9l5.1-10.2c1-2 1.9-4.4 1.9-5.3s.9-3.2 2-5.2a19 19 0 0 0 2-7.3c0-1.9.7-4.9 1.6-6.5.9-1.7 2-7.3 2.5-12.5a92 92 0 0 1 2.1-13c1-2.7 1.3-22.1 1.3-84.5 0-74.7-.1-81.4-1.7-85.8a30 30 0 0 1-1.8-8.8 21 21 0 0 0-2-7.9c-1.1-2.2-2-4.8-2-5.9 0-2-7.7-17-12.3-24.1a181 181 0 0 0-21.9-22.5l-6.2-4.3a26 26 0 0 0-5.7-3.2c-1.8 0-5.9-4.9-5.9-6.9q0-2 3.3-3.6c5.5-2.7 9.2-4.8 10.2-6a104.2 104.2 0 0 0 33.3-37.5 35 35 0 0 0 5.2-12.2c0-1.3.7-3.3 1.5-4.5s2-5.6 2.5-9.8a39 39 0 0 1 2.2-9.8c1.9-3.2 1.9-162 0-168.9-.6-2.6-1.6-8.9-2.2-14.1a46 46 0 0 0-2.5-12.3c-.8-1.6-1.5-4.5-1.5-6.4a19 19 0 0 0-2-7.3c-1.1-2-2-4.5-2-5.5s-.9-3.4-2-5.5c-1.1-2-2-4.2-2-4.8s-.9-2.2-2-3.6a10 10 0 0 1-2-3.9c0-.7-1.1-3-2.5-5.1l-3.8-5.7a123 123 0 0 0-32.7-32l-5.5-3.1c-2.2-1.4-5.1-3-6.5-3.6s-4.2-1.9-6.2-3c-2-1-4.5-1.9-5.5-1.9a8 8 0 0 1-3.9-1.4c-1.1-.8-4.6-1.9-7.7-2.5s-6.6-1.5-7.7-2.1-6.4-1.5-11.8-2a79 79 0 0 1-11.5-1.6c-1.6-.6-1.7-14.5-1.9-209.3l-.3-208.6h-57l-.2 88c-.3 81.3-.4 88.1-2 89.2-2.1 1.6-47.8 1.8-51.7.3l-2.6-.9-.2-88.3-.3-88.3-27-.2a169 169 0 0 0-28.7.8m110.3 235.9c1.9 1 1.9 3.1 1.9 89.6 0 83.3-.1 88.5-1.7 89.2-1 .4-12.8.7-26.3.7s-25.3-.3-26.2-.7c-1.7-.7-1.8-5.9-1.8-89.3v-88.6l2.3-.9c3.2-1.3 49.4-1.3 51.8 0m35.9 286.7c1.4.7 4.6 1.5 7.2 1.8s5.3 1.2 6 1.9a9 9 0 0 0 3.8 1.9c4.9 1.3 16.9 14.5 17 18.6a6 6 0 0 0 1.5 3.1c3.3 3.7 4 17.7 4 84s-.5 77.2-4 81c-.8.9-1.5 2.4-1.5 3.2 0 2-7.6 11.8-11.5 14.9-5.3 4.2-6.8 5-16.2 8.8-4.9 2-7 2.1-36 2.1-22.7 0-31.2-.3-32.1-1.2s-1.2-26.6-1.2-109.3c0-112.5-.1-110.3 4-111.9 2.8-1.1 56.4-.1 59 1.1m-2.7 330.2q9.8 1 11.6 2.5a53.6 53.6 0 0 1 23.1 18.6c1.1 1.1 2 2.8 2 3.7s.7 2.4 1.5 3.3c3.4 3.8 4 15.7 4 82 0 72.5-.3 76.4-6 87.5a40 40 0 0 1-18.9 18.5c-8.1 4-17.1 4.9-51.3 4.9-19.8.1-23.4-.1-24.7-1.5s-1.6-12.6-1.6-109c0-72.2.3-108.2 1-109.5 1-1.8 2.3-1.9 25.3-1.9 13.3.1 28.6.5 34 .9m84.2-851.7c-.3 1.3-.4 94.5-.3 207.3l.3 205 74.5.3c41 .1 75.5 0 76.8-.3l2.2-.5v-26.1c0-16-.4-26.8-1-28-1-1.8-2.6-1.9-46.8-1.9-34.3 0-46.1-.3-47-1.2s-1.2-15.6-1.2-60c0-57 .1-58.8 1.9-59.8 1.3-.6 16.2-1 41.5-1h39.6v-57h-39.6c-25.3 0-40.2-.4-41.5-1-1.8-1-1.9-2.8-1.9-59.9 0-55.7.1-58.9 1.8-60.4s6.4-1.7 46.9-1.7c37 0 45.3-.2 46.2-1.4.8-.9 1.1-9.1.9-27.7l-.3-26.4-76.2-.3-76.3-.2zm202-1c-.3.7-.4 94-.3 207.3l.3 206 25 .3c13.8.1 26 0 27.2-.3l2.3-.5.2-113.7c.2-74.6.6-113.7 1.3-114 1.6-.5 6.4 10.7 7.1 16.7.4 3 1.2 6.6 1.9 8s1.6 5.2 2 8.5 1.3 7.1 2 8.5 1.6 5.2 2 8.5 1.3 7.3 2 9a41 41 0 0 1 2 8.5c.3 3 1.2 6.8 2 8.5a41 41 0 0 1 2 8.5c.3 3 1.2 6.8 2 8.5a41 41 0 0 1 2 8.5c.3 3 1.2 6.8 2 8.5.7 1.6 1.6 5.7 2 9s1.1 6.5 1.6 7.2c.6.6 1.5 4.2 2 8s1.6 8.1 2.4 9.8c.7 1.6 1.6 5.7 2 9s1.1 6.5 1.7 7.2c.5.6 1.4 4.5 2 8.5.5 4 1.4 7.8 2 8.5.5.6 1.4 4.5 2 8.5.5 4 1.4 7.8 2 8.5.5.6 1.4 4.5 2 8.5.5 4 1.4 7.8 2 8.5.5.7 1.4 4.3 1.8 8q.8 6.7 2.6 8c1.4 1 8 1.3 27.3 1.3 14.1 0 26.6-.3 27.9-.6l2.2-.6V1114c0-173.3-.2-205.9-1.4-206.9-.9-.8-8.6-1.1-25.7-.9l-24.4.3-.5 116.5c-.5 118.8-.7 125.7-4 117.5l-3-7a41 41 0 0 1-2.5-9.5c-.3-3-1.2-6.9-2-8.5-.7-1.7-1.6-5.5-2-8.5s-1.2-6.9-2-8.5c-.7-1.7-1.6-5.5-2-8.5a33 33 0 0 0-2-8c-.7-1.4-1.6-5.4-2-9s-1.3-7.4-2-8.5-1.6-4.6-1.9-7.8c-.4-3.2-1.2-7.1-2-8.5-.7-1.5-1.6-5.3-2-8.5s-1.2-7.1-2-8.5c-.7-1.5-1.6-5.3-2-8.5s-1.2-7.1-2-8.5c-.7-1.5-1.6-5.4-2-8.6-.4-3.3-1.1-6.5-1.7-7.2s-1.5-4.5-2-8.5c-.5-3.9-1.4-7.8-2-8.5a31 31 0 0 1-2.1-8.6c-.5-4-1.4-7.8-2-8.5-.5-.6-1.4-4.5-2-8.5-.5-4-1.4-7.8-2-8.5-.5-.7-1.4-4.3-1.8-8s-1.6-8.2-2.4-9.8c-.9-1.7-1.6-4.6-1.6-6.6s-1.1-6.5-2.4-10l-2.4-6.4-28.1-.3c-22-.2-28.3 0-28.6 1M2110 1966.1a16 16 0 0 1-5.6 1.9c-1.2 0-2.7.7-3.4 1.5s-2.2 1.7-3.3 2.1c-3.3 1-12.6 8.9-17.4 14.7a50 50 0 0 0-9.3 16c-.1.7-.9 3-2 5.2-1.6 3.4-1.9 6.3-2 18 0 12.2.3 14.5 2 17.8 1.1 2 2 4.5 2 5.6s.9 3 2 4.4 2 3 2 3.5c0 1 7.6 11.1 9.1 12.2l4.5 3.7a45 45 0 0 0 16.1 9.8 86 86 0 0 0 23.3 4.8c7.1.1 21.5-3.2 27-6.2 3-1.6 6.5-3.5 7.8-4s5.6-4.4 9.5-8.4a57 57 0 0 0 17-34.5c.9-6.4 1.2-11.5.7-13.5-.5-1.8-1.1-5.9-1.5-9.1a38 38 0 0 0-5.6-15.6l-2.2-4c-1.4-3-2.4-4.1-9-11-2.6-2.8-5.1-5-5.6-5s-1.6-.9-2.6-2-2.4-2-3-2-2.4-.9-3.8-2a9 9 0 0 0-4.4-2c-1 0-3.5-.9-5.6-2-3.2-1.8-5.5-2-18.4-1.9-12.7 0-15.3.3-18.3 2m29 3.3a47 47 0 0 1 14 4.5c3 1.6 6.5 3.5 7.8 4s2.2 1.5 2.2 2q.2.9 2 1.6c3.9 1.2 17 19.9 17 24.3a50.4 50.4 0 0 1 2.5 31.2 86 86 0 0 0-2.5 8.4c-.4 2.1-1.2 4.1-1.8 4.5-.5.3-1.7 2.4-2.6 4.5a76 76 0 0 1-20 20.3l-5.6 2.8a11 11 0 0 1-4.3 1.5c-1 0-3.2.8-5 1.7a61 61 0 0 1-28.7.1c-1.4-.9-4.1-1.9-6.1-2.2-2.1-.4-4.2-1.3-4.9-2.1q-1.2-1.4-2.6-1.5a63 63 0 0 1-17.3-15 36 36 0 0 1-6.1-10c0-.7-.6-2.1-1.4-2.9-1.3-1.5-2-4.2-4.5-18.6-.4-2.2-.2-6.4.5-9.5s1.5-7.6 1.8-10.2 1.1-5 1.5-5.3c.5-.2 2-2.9 3.5-5.9s5.2-8 8.4-11.3a54 54 0 0 1 16.4-12.3c.6 0 1.9-.7 2.9-1.6.9-.8 4.8-2 8.6-2.5s8.2-1.3 9.8-1.8 3.7-.7 4.5-.5zm-39 25.2c-.6 1.6-.9 14.4-.8 32.3l.3 29.6 2.8.3 2.7.3v-12.6c0-12.2.1-12.7 2.5-15.1 2.3-2.3 3.2-2.5 7.8-2.1 8 .7 12.4 2.2 15.4 5.3s12.3 16.5 12.3 17.8c0 .4 1 2 2.2 3.6 1.6 2.3 3 3 5.5 3 1.8 0 3.3-.4 3.3-.8s-1.3-2.9-3-5.3-3-4.9-3-5.5q-.1-1.1-1.5-1.8t-1.5-1.8c0-.7-2.5-4-5.5-7.2-5.9-6.5-6-7.9-.2-9.2 1.8-.3 4-1.5 5-2.5 1-1.1 2.1-1.9 2.5-1.9 1 0 4.4-8.6 4.4-11.3 0-3.5-2.7-9.6-5.3-12.1-4.1-4-12.8-5.6-29.7-5.6H2101zm40.1 6.1q5 5.7 4.8 9.5c-.1 3-2.9 7.8-5.4 9.2a9 9 0 0 0-2.7 2.1c-.4.6-6.9 1.1-14.6 1.3-12.1.3-14 .1-15.3-1.4a45 45 0 0 1-.9-21.9c1-1.2 4.3-1.5 16.4-1.5h15.2z"/></svg>