<svg xmlns="http://www.w3.org/2000/svg" viewBox="0 0 3000 3000"><path fill="#fff" d="m567.8 961.8-16.7 22.8-12.3 16.9-23.8 32.6-20.7 28.4-16.1 22-26 35.5-16.4 22.5-17.8 24.4-15 20.5-12 16.4-8 11-12.2 16.8-25.9 35.3c-16.7 22.8-17.1 23.5-15.2 25l13.8 10.1 46.5 33.9c15.7 11.5 25 18.1 25.8 18.1.4 0 4.6-5.2 9.2-11.6l11.6-15.7c3.8-5.1 23.5-32 31.8-43.6l27-36.8 8.9-12.2c3.3-4.5 6.1-8.1 6.3-8.1s4.4 2.8 9.2 6.3a478 478 0 0 0 29.1 19.7l5.3 3.3-.7 5.1-6.4 56.1c-1.1 9.9-2.7 23.4-3.6 30l-3 26-2.9 26.5c-4.6 37.2-4.8 40-3.7 41.4.6.7 12 9.3 25.4 19l36.7 26.8 33 24 3.8 2.6 4.6-6.4 4.6-6.4 1-20.7a964 964 0 0 1 2-31.8c.5-6.1 1.4-20.2 2-31.5s1.5-26.1 2.1-33l3.4-53c1.4-22.3 2.8-43.2 3.2-46.5l.8-6 8.1-2.1a214 214 0 0 0 45.4-19.6c13.5-8 38.4-25.6 52.2-36.9 3.1-2.6 8.3-6 11.5-7.5 5.1-2.5 6.9-2.9 14.8-2.9s9.7.3 15.7 3.2c3.6 1.7 9.1 5 12.2 7.2s5.7 4.1 6 4.1 8.4-9.5 18.1-21.1l17.6-21-3.7-6.7c-5.8-10.5-19.4-31-26.1-39.2-7.9-9.7-21.8-23-28.7-27.5a55 55 0 0 0-47.5-7.9c-12.3 4.1-33 17.5-48.5 31.4a521 521 0 0 1-47.8 38.2 74 74 0 0 1-21.7 9.9c-7.2 1.9-8 1.9-15.1.3a71 71 0 0 1-14.3-5c-12.3-6.2-37.3-23.7-37.1-25.9.1-.7 3-5.3 6.5-10l8.4-11.6 65-88.9 8-11.2 6.8-9.5c.7-1.1-16.3-14.4-38.3-29.8l-45.7-33.3-3.2-2.3zm1993.7 228.9a55.4 55.4 0 0 0-52.5 56.8 55 55 0 0 0 36.5 54.1 81 81 0 0 0 35.1 2.5 59 59 0 0 0 39.2-27.8 69 69 0 0 0-.2-57.4 57 57 0 0 0-44.1-27.8c-4.9-.6-9.4-1-10-.9zM1250 1317.1a96 96 0 0 0-52.1 23.1 90 90 0 0 0-15 18q-3.9 7.5-3.9-.5c0-5.6-3.5-16.2-7-20.9-8.6-11.9-22.9-17.6-46.5-18.5a155.3 155.3 0 0 0-51.2 5.9c-1 .8-1.3 7.6-1.3 27.8v26.7l6.3.7c8.3 1 12.8 3.7 15.8 9.4l2.4 4.7.3 184.3.2 184.2 50.3-.2 50.2-.3.3-76.8c.1-42.2.4-76.7.6-76.7a267.8 267.8 0 0 0 25.1 7.7 95 95 0 0 0 30.5 2.7c17.8 0 20.4-.2 30-2.7 43-10.9 76.6-40.7 94.5-83.7a189 189 0 0 0 1-131.4c-18.4-48.8-57.7-79.5-107.1-83.6l-13.4-.9zm2.5 89.4c3.2.9 8.1 2.8 10.8 4.2 10.6 5.8 20.6 20.5 24.4 36.1a132 132 0 0 1 .4 39.7 53 53 0 0 1-53.6 43.7c-8.5-.1-23.8-3.2-32-6.6l-6-2.5v-36.8c0-35.8.1-37 2.3-44.2a50 50 0 0 1 13.7-23 42 42 0 0 1 40-10.6m357.4-89.4a99 99 0 0 0-45.5 17.4 93 93 0 0 0-24.6 27.5c-.4 0-.9-2.1-1.3-4.8-2.5-20.1-12-30.6-32.6-36.3-7.6-2.2-10.3-2.4-27.9-2.3-16.2.1-21.6.6-32 2.6l-12.5 2.4-.3 27.6-.2 27.5 5.6.7c7.8.9 12.1 3.2 15.2 7.9l2.7 4.1.3 185.3.2 185.3h101v-77c0-49.5.3-77 1-77a190.6 190.6 0 0 0 25 7.7c9.6 2.5 12.2 2.7 30.5 2.7 18.7 0 20.7-.2 30.3-2.7a130 130 0 0 0 50.3-24.8 152 152 0 0 0 54-94.9c4.1-23.8 2.3-58.2-4.2-80.5-14.5-49.8-44.3-81.6-88.4-94.4a134 134 0 0 0-46.6-4m7.1 91q24.2 9.3 31.1 44.1a66 66 0 0 1-.1 31c-4.7 24.3-18.5 40.1-39.5 45.3a82 82 0 0 1-46-4.7l-6-2.4-.3-34.5c-.2-27.2.1-36.1 1.3-42.4a47 47 0 0 1 36.5-38.9c5-.9 17.6.4 23 2.5m285-90c-28 1.7-60.5 8.7-81.7 17.6-5.7 2.3-6.2 2.8-5.8 5.2l3.5 21.6c3.2 19.7 6.8 41.3 7.6 45.3.4 2.2.5 2.2 4.2.6 9.5-4.3 20.7-7.8 32.2-10.2s14.5-2.6 39.5-2.6c25.2-.1 27.6.1 35.5 2.2 21.6 5.9 31 15.3 31 31 0 3.8-.2 7.1-.5 7.3s-4.4-1.4-9.2-3.7a139 139 0 0 0-69.8-10.5c-31.5 2.6-55 12.5-72.1 30.4a84 84 0 0 0-22.6 42.7c-1.9 8-2.3 12.2-2.2 27a80 80 0 0 0 2.2 25.5c9.9 35.3 36.3 59.2 75.7 68.6a93 93 0 0 0 28 2.3c15.9 0 19.3-.4 29.5-2.7 26.6-6.3 46.4-18.1 56.9-34 2.5-3.6 4.7-6.4 5.1-6.2s1 2.5 1.3 5a57 57 0 0 0 11.4 23.1 53 53 0 0 0 20.8 12.5c6.4 2.2 8.5 2.4 25.5 2.3 15.6-.1 20.4-.5 30.5-2.6l12-2.5.3-27.5.2-27.5-6.5-1.1c-7.7-1.3-11.7-3.9-14.8-9.5-2.2-4.2-2.2-4.3-2.8-71.7l-.5-67.5-2.8-10a94 94 0 0 0-17.8-37.2q-30-38.2-103.3-43.2a228 228 0 0 0-40.5 0m39.7 169.9a67 67 0 0 1 24.7 10.8c2.5 2.9 1.7 11.1-1.7 18.6-6.5 14.2-25.7 24-46.7 24-8.3 0-10.2-.4-14.6-2.6-7.7-4-10.9-8.3-12.9-17.3-1.7-7.3-1.7-8 0-14.2a24 24 0 0 1 11.1-15.4c9.7-6 24.8-7.4 40.1-3.9m223.8-169.4c-5.2.5-30.4 4.2-34.2 5.1l-2.3.5v55.8h4.8c2.8 0 6.7 1 9.8 2.4 4.3 2 5.4 3.1 7.2 7.4l2.2 5.1V1614l50.3-.2 50.2-.3.6-87c.4-64 .9-88.2 1.8-91.4a67 67 0 0 1 11.4-21.1c22-23.5 58.9-19.7 72.6 7.4 5.9 11.6 6 13.4 6.1 107.4v85.2l50.8-.2 50.7-.3.3-91c.2-87.3.1-91.6-1.9-106-3.5-25.7-10.3-43.9-22.3-59.9a91 91 0 0 0-43.4-31.1 142 142 0 0 0-67-4.4c-9.7 2.1-21.9 6.4-27 9.6a91 91 0 0 0-30.1 27 22 22 0 0 1-4.1 5.3c-.4 0-1-2.3-1.3-5.1a45 45 0 0 0-8.4-19.4q-15.7-19-57.3-19.9c-8-.2-16.7-.2-19.5 0M720.3 1424.7l.3 99.8 2.7 11.8c7.4 33.6 18.6 52.2 39.4 65.8 15.9 10.3 35 15.1 60.8 15.3 17.3.1 26.6-1.5 40.4-7a90 90 0 0 0 44.2-38.4c.4 0 1 2.8 1.3 6.2a42 42 0 0 0 21.1 32.7c18.6 10.5 49.9 12.1 88.2 4.4l13.3-2.6v-55.4l-6.4-.5q-6.5-.6-10.2-2.8c-7.3-4.6-6.8 3-7.4-119l-.5-109.5h-101l-.5 88c-.4 62.5-.9 88.9-1.7 91.2-.6 1.8-2.6 6-4.5 9.5-13.3 25.1-46.9 32.3-65.4 14a37 37 0 0 1-9.6-15.3l-2.3-5.4-.3-91.3-.3-91.2h-102zm1796.7 46.8V1614l50.3-.2 50.2-.3.3-142.3.2-142.2h-101z"/><path d="m567.8 961.8-16.7 22.8-12.3 16.9-23.8 32.6-20.7 28.4-16.1 22-26 35.5-16.4 22.5-17.8 24.4-15 20.5-12 16.4-8 11-12.2 16.8-25.9 35.3c-16.7 22.8-17.1 23.5-15.2 25l13.8 10.1 46.5 33.9c15.7 11.5 25 18.1 25.8 18.1.4 0 4.6-5.2 9.2-11.6l11.6-15.7c3.8-5.1 23.5-32 31.8-43.6l27-36.8 8.9-12.2c3.3-4.5 6.1-8.1 6.3-8.1s4.4 2.8 9.2 6.3a478 478 0 0 0 29.1 19.7l5.3 3.3-.7 5.1-6.4 56.1c-1.1 9.9-2.7 23.4-3.6 30l-3 26-2.9 26.5c-4.6 37.2-4.8 40-3.7 41.4.6.7 12 9.3 25.4 19l36.7 26.8 33 24 3.8 2.6 4.6-6.4 4.6-6.4 1-20.7a964 964 0 0 1 2-31.8c.5-6.1 1.4-20.2 2-31.5s1.5-26.1 2.1-33l3.4-53c1.4-22.3 2.8-43.2 3.2-46.5l.8-6 8.1-2.1a214 214 0 0 0 45.4-19.6c13.5-8 38.4-25.6 52.2-36.9 3.1-2.6 8.3-6 11.5-7.5 5.1-2.5 6.9-2.9 14.8-2.9s9.7.3 15.7 3.2c3.6 1.7 9.1 5 12.2 7.2s5.7 4.1 6 4.1 8.4-9.5 18.1-21.1l17.6-21-3.7-6.7c-5.8-10.5-19.4-31-26.1-39.2-7.9-9.7-21.8-23-28.7-27.5a55 55 0 0 0-47.5-7.9c-12.3 4.1-33 17.5-48.5 31.4a521 521 0 0 1-47.8 38.2 74 74 0 0 1-21.7 9.9c-7.2 1.9-8 1.9-15.1.3a71 71 0 0 1-14.3-5c-12.3-6.2-37.3-23.7-37.1-25.9.1-.7 3-5.3 6.5-10l8.4-11.6 65-88.9 8-11.2 6.8-9.5c.7-1.1-16.3-14.4-38.3-29.8l-45.7-33.3-3.2-2.3zm1993.7 228.9a55.4 55.4 0 0 0-52.5 56.8 55 55 0 0 0 36.5 54.1 81 81 0 0 0 35.1 2.5 59 59 0 0 0 39.2-27.8 69 69 0 0 0-.2-57.4 57 57 0 0 0-44.1-27.8c-4.9-.6-9.4-1-10-.9zM1250 1317.1a96 96 0 0 0-52.1 23.1 90 90 0 0 0-15 18q-3.9 7.5-3.9-.5c0-5.6-3.5-16.2-7-20.9-8.6-11.9-22.9-17.6-46.5-18.5a155.3 155.3 0 0 0-51.2 5.9c-1 .8-1.3 7.6-1.3 27.8v26.7l6.3.7c8.3 1 12.8 3.7 15.8 9.4l2.4 4.7.3 184.3.2 184.2 50.3-.2 50.2-.3.3-76.8c.1-42.2.4-76.7.6-76.7a267.8 267.8 0 0 0 25.1 7.7 95 95 0 0 0 30.5 2.7c17.8 0 20.4-.2 30-2.7 43-10.9 76.6-40.7 94.5-83.7a189 189 0 0 0 1-131.4c-18.4-48.8-57.7-79.5-107.1-83.6l-13.4-.9zm2.5 89.4c3.2.9 8.1 2.8 10.8 4.2 10.6 5.8 20.6 20.5 24.4 36.1a132 132 0 0 1 .4 39.7 53 53 0 0 1-53.6 43.7c-8.5-.1-23.8-3.2-32-6.6l-6-2.5v-36.8c0-35.8.1-37 2.3-44.2a50 50 0 0 1 13.7-23 42 42 0 0 1 40-10.6m357.4-89.4a99 99 0 0 0-45.5 17.4 93 93 0 0 0-24.6 27.5c-.4 0-.9-2.1-1.3-4.8-2.5-20.1-12-30.6-32.6-36.3-7.6-2.2-10.3-2.4-27.9-2.3-16.2.1-21.6.6-32 2.6l-12.5 2.4-.3 27.6-.2 27.5 5.6.7c7.8.9 12.1 3.2 15.2 7.9l2.7 4.1.3 185.3.2 185.3h101v-77c0-49.5.3-77 1-77a190.6 190.6 0 0 0 25 7.7c9.6 2.5 12.2 2.7 30.5 2.7 18.7 0 20.7-.2 30.3-2.7a130 130 0 0 0 50.3-24.8 152 152 0 0 0 54-94.9c4.1-23.8 2.3-58.2-4.2-80.5-14.5-49.8-44.3-81.6-88.4-94.4a134 134 0 0 0-46.6-4m7.1 91q24.2 9.3 31.1 44.1a66 66 0 0 1-.1 31c-4.7 24.3-18.5 40.1-39.5 45.3a82 82 0 0 1-46-4.7l-6-2.4-.3-34.5c-.2-27.2.1-36.1 1.3-42.4a47 47 0 0 1 36.5-38.9c5-.9 17.6.4 23 2.5m285-90c-28 1.7-60.5 8.7-81.7 17.6-5.7 2.3-6.2 2.8-5.8 5.2l3.5 21.6c3.2 19.7 6.8 41.3 7.6 45.3.4 2.2.5 2.2 4.2.6 9.5-4.3 20.7-7.8 32.2-10.2s14.5-2.6 39.5-2.6c25.2-.1 27.6.1 35.5 2.2 21.6 5.9 31 15.3 31 31 0 3.8-.2 7.1-.5 7.3s-4.4-1.4-9.2-3.7a139 139 0 0 0-69.8-10.5c-31.5 2.6-55 12.5-72.1 30.4a84 84 0 0 0-22.6 42.7c-1.9 8-2.3 12.2-2.2 27a80 80 0 0 0 2.2 25.5c9.9 35.3 36.3 59.2 75.7 68.6a93 93 0 0 0 28 2.3c15.9 0 19.3-.4 29.5-2.7 26.6-6.3 46.4-18.1 56.9-34 2.5-3.6 4.7-6.4 5.1-6.2s1 2.5 1.3 5a57 57 0 0 0 11.4 23.1 53 53 0 0 0 20.8 12.5c6.4 2.2 8.5 2.4 25.5 2.3 15.6-.1 20.4-.5 30.5-2.6l12-2.5.3-27.5.2-27.5-6.5-1.1c-7.7-1.3-11.7-3.9-14.8-9.5-2.2-4.2-2.2-4.3-2.8-71.7l-.5-67.5-2.8-10a94 94 0 0 0-17.8-37.2q-30-38.2-103.3-43.2a228 228 0 0 0-40.5 0m39.7 169.9a67 67 0 0 1 24.7 10.8c2.5 2.9 1.7 11.1-1.7 18.6-6.5 14.2-25.7 24-46.7 24-8.3 0-10.2-.4-14.6-2.6-7.7-4-10.9-8.3-12.9-17.3-1.7-7.3-1.7-8 0-14.2a24 24 0 0 1 11.1-15.4c9.7-6 24.8-7.4 40.1-3.9m223.8-169.4c-5.2.5-30.4 4.2-34.2 5.1l-2.3.5v55.8h4.8c2.8 0 6.7 1 9.8 2.4 4.3 2 5.4 3.1 7.2 7.4l2.2 5.1V1614l50.3-.2 50.2-.3.6-87c.4-64 .9-88.2 1.8-91.4a67 67 0 0 1 11.4-21.1c22-23.5 58.9-19.7 72.6 7.4 5.9 11.6 6 13.4 6.1 107.4v85.2l50.8-.2 50.7-.3.3-91c.2-87.3.1-91.6-1.9-106-3.5-25.7-10.3-43.9-22.3-59.9a91 91 0 0 0-43.4-31.1 142 142 0 0 0-67-4.4c-9.7 2.1-21.9 6.4-27 9.6a91 91 0 0 0-30.1 27 22 22 0 0 1-4.1 5.3c-.4 0-1-2.3-1.3-5.1a45 45 0 0 0-8.4-19.4q-15.7-19-57.3-19.9c-8-.2-16.7-.2-19.5 0M720.3 1424.7l.3 99.8 2.7 11.8c7.4 33.6 18.6 52.2 39.4 65.8 15.9 10.3 35 15.1 60.8 15.3 17.3.1 26.6-1.5 40.4-7a90 90 0 0 0 44.2-38.4c.4 0 1 2.8 1.3 6.2a42 42 0 0 0 21.1 32.7c18.6 10.5 49.9 12.1 88.2 4.4l13.3-2.6v-55.4l-6.4-.5q-6.5-.6-10.2-2.8c-7.3-4.6-6.8 3-7.4-119l-.5-109.5h-101l-.5 88c-.4 62.5-.9 88.9-1.7 91.2-.6 1.8-2.6 6-4.5 9.5-13.3 25.1-46.9 32.3-65.4 14a37 37 0 0 1-9.6-15.3l-2.3-5.4-.3-91.3-.3-91.2h-102zm1796.7 46.8V1614l50.3-.2 50.2-.3.3-142.3.2-142.2h-101z"/></svg>