<svg xmlns="http://www.w3.org/2000/svg" viewBox="0 0 3000 3000"><path fill="#fff" d="M1255 937.7c.1.5 11 11.7 24.3 25l24.2 24.3h154.6c85.1 0 156-.3 157.8-.6 3-.6 2.9-.8-21.3-25l-24.3-24.4h-157.7c-86.7 0-157.6.3-157.6.7m160 154.8c0 .2 10.8 11.2 23.9 24.5l24 24 146.5.2c118.5.3 146.7.5 147.8 1.6 1 1 1.4 13.2 1.8 57l.5 55.7 24.3 24.2 24.2 24.1V1092h-196.5c-108.1 0-196.5.2-196.5.5m-216.4 37c-1 2.8-.7 199.1.4 201.9l1 2.6h390.8l-.6-2.2c-.6-2.3-42.8-45-47.5-48.1-2.5-1.6-10.7-1.7-147.4-1.7-135.9.1-144.9 0-146-1.7-1-1.3-1.3-13.2-1.3-52.8v-51.1l-24.4-24.2c-18.3-18.2-24.5-23.9-25-22.7m195.9 307.5c-4.9.3-8.4.7-7.7.8q1 .3 1.2 1.7c0 .8 10.2 11.7 22.8 24.2l22.7 22.8 156.4.2c105.3.1 157.1-.2 158.4-.8 1.7-1-.6-3.6-21-24.1a398 398 0 0 0-25.5-24.4c-2.3-1.2-24.3-1.4-150.5-1.2-81.3.1-151.8.5-156.8.8m489 314.1a337 337 0 0 1-39.4 2.8c-18.6.7-23.5 1.2-24.9 2.4-.9.8-3 1.9-4.7 2.3a41 41 0 0 0-19.2 16.1c-1.3 1.4-2.3 3.2-2.3 3.9 0 .8-.9 3.1-2 5.1-1.9 3.6-2 5.7-2 43.3 0 37.7.1 39.6 2 42.5 1.1 1.6 2 3.7 2 4.6 0 1.9 2.7 5.4 9.2 11.8 7 7 8.4 7.9 12.7 9.1 2.2.6 4.1 1.6 4.4 2.3.3.9 20.2 1.3 90 1.7 49.2.3 89.9.9 90.4 1.3 1.3 1.4 1 49.4-.4 50.8-.7.7-6.5 1.5-14 2-7 .4-18 1.3-24.3 1.9-13.9 1.4-89.7.7-98.1-.9-3-.6-19-1.2-35.5-1.3l-29.9-.3-.7 22c-.4 13.9-.3 22.2.4 22.6.5.3 15.4.9 33.1 1.2 18.3.4 35.4 1.2 39.7 1.9 10.4 1.8 82.9 1.8 96 0a464 464 0 0 1 29.3-2.1c15.5-.6 20.1-1.1 21.5-2.3.9-.9 3.2-1.9 5-2.3s3.2-1 3.2-1.4 1.4-1.5 3.2-2.5c4.7-2.8 10-9 14.6-17.4l2.7-4.7v-42.1c0-37.6-.2-42.4-1.6-44-.9-1.1-2-3-2.4-4.4a42 42 0 0 0-20.6-19.5c-1.3-.4-3.5-1.4-4.9-2.4-2.3-1.4-10.8-1.6-91-1.9-81.5-.2-88.6-.4-89.7-1.9-1.6-2-1.8-46.9-.3-49.3.7-1.1 4.7-1.8 16.7-2.6 8.7-.7 21.2-1.7 27.8-2.4 15.1-1.6 88.1-.8 93.5.9 2 .7 14 1.5 27.1 1.8l23.7.6.6-9.9a373 373 0 0 1 1.6-17.9c.6-4.4 1-10.1 1-12.8 0-4.5-.1-4.7-2.7-4.7a920 920 0 0 1-56.7-3c-7.8-1.2-68.7-1.9-84.1-.9m-1683.5 7c-3.6.6-5.4 1.8-8.7 5.6l-4.3 4.7V1995h21.9c19 0 22-.2 22.5-1.6.3-.9.6-31.8.6-68.8 0-76.7-.3-74.3 7-66.6 5.2 5.7 5.8 6.4 9.7 12.5 1.8 2.8 3.9 5.7 4.6 6.5.8.8 1.8 2.5 2.1 3.7q.7 2.1 1.6 2.3c.4 0 1.5 1.5 2.4 3.2s3.5 5.8 5.6 8.8c2.2 3 4 6.1 4 6.7q0 1.2.9 1.3a41 41 0 0 1 7.1 10.9c0 .4.9 1.6 2 2.6s2 2.3 2 2.9 2 4 4.5 7.6 4.5 6.9 4.5 7.4.7 1.8 1.7 2.8a43 43 0 0 1 6 9.8c1 1.9 2.2 3.8 2.7 4.2.6.3 1.7 2 2.5 3.6l8.6 14.7 4.5 7.5 4 6.5c1.1 1.6 2.7 4.4 3.6 6.2 2.1 4 3.4 4.3 16.9 4.3s15.2-.4 17.1-4.4q3-6.2 5.5-9.3c.9-1 2.1-2.9 2.8-4.3l3.6-6.5 4.1-7c.9-1.6 2.3-3.5 3-4.3s1.4-2 1.4-2.8.9-2.3 1.9-3.3c1.9-1.9 3.8-4.9 6.5-10.7.8-1.7 2.2-3.6 3-4.4.9-.7 1.6-1.8 1.6-2.4s2-4 4.5-7.6 4.5-7 4.5-7.6.9-1.9 2-2.9 2-2.2 2-2.6a41 41 0 0 1 7.1-10.9q.8-.1.9-1.4c0-.8 1-2.7 2.3-4.3l3.5-4.8c3.5-5.6 5.2-8.1 5.9-9l3.4-5 4.5-6.9 2.9-4.4c4-6.1 9.8-12.2 11.6-12.2l2.1.2c.2.2.5 31.6.8 69.8l.5 69.5 22.3.3 22.2.2v-225.9l-2.2-3.4a23 23 0 0 0-5.3-5.5c-3.9-2.6-14-3.7-22.5-2.3-5.8.9-6.9 1.5-10.5 5.4-2.2 2.4-5.8 7-8 10.1-2.2 3.2-5.2 7.2-6.7 9a13 13 0 0 0-2.8 4.4c0 .6-.6 1.5-1.4 1.9s-1.9 1.9-2.6 3.3-3 4.5-5 7-4 5.3-4.3 6.2q-.7 1.6-1.5 1.8c-.5 0-1.5 1.4-2.2 3s-1.8 3.4-2.4 3.8a66 66 0 0 0-7 9.4 36 36 0 0 1-6.7 8.8q-.8.1-.9 1.3c0 .8-.9 2.2-2 3.2s-2 2.4-2 3.2c0 .7-.9 2.2-1.9 3.2-1.1 1.1-2.5 3-3.2 4.2-.6 1.3-1.6 2.8-2.1 3.3a74 74 0 0 0-6.7 10.3q-1 2.1-2.1 2.3-.9.1-1 1.4c0 .8-1.1 2.8-2.5 4.4a13 13 0 0 0-2.5 3.9c0 .6-.9 1.8-2 2.8s-2 2.4-2 3.1-1.1 2.5-2.5 4a11 11 0 0 0-2.5 3.5c0 1-4.4 7.9-6.5 10-.8.9-1.5 2.2-1.5 3s-1.1 2.7-2.5 4.3-2.5 3.5-2.5 4.3q-.1 1.3-1.4 1.9c-.8.3-1.7 1.6-2 3s-1.4 3.3-2.4 4.3-2.4 3.1-3.2 4.7c-2.3 4.2-6.9 4.1-9.1-.2-.8-1.8-2.3-3.9-3.2-4.9-.9-.9-2-2.7-2.3-4.1s-1-2.4-1.5-2.4-1.6-1.5-2.4-3.3a69 69 0 0 0-6.3-10.8 45 45 0 0 1-6.2-9.8c0-.4-1.1-2-2.5-3.5s-2.5-3.3-2.5-4-.9-2.1-2-3.1-2-2.4-2-3-.7-1.9-1.7-2.6-2.2-2.9-3-4.7c-.7-1.7-1.8-3.2-2.3-3.2q-1-.1-1-1.4c0-.7-1-2.5-2.2-3.9a51 51 0 0 1-4.8-6.7 63 63 0 0 0-4.7-6.7c-1.3-1.3-2.3-3-2.3-3.7s-.9-2.1-2-3.1-2-2.4-2-3.2q0-1.2-.9-1.3c-.5 0-1.7-1.3-2.8-2.9-4.2-6.7-9.8-14.6-10.6-14.9a13 13 0 0 1-2.3-3.3c-.8-1.7-2.2-3.8-3.1-4.7l-6.4-8.7a186 186 0 0 0-8.4-11.6l-4-5.9-4-5.8c-1.3-2-3.6-4.7-8.8-10.5-3.8-4.3-4.8-4.9-10.2-5.7a45 45 0 0 0-17.5.1m1038.2.1c-.8 1.1-1.8 23.9-1.3 31.1.1 1.6 1.6 1.7 21.9 1.5l21.7-.3.3-15.4c.2-13.7.1-15.5-1.5-16.7-2.5-1.9-39.6-2-41.1-.2m851.5.2c-1.6 1.2-1.7 3-1.5 16.7l.3 15.4h44l.3-15.4q.3-15.5-.9-16.7c-1.6-2-39.6-2-42.2 0m91.4-.1c-.9 1.2-1.1 24.2-.9 102.9l.3 101.3 3.3 6.2c1.8 3.3 3.9 6.7 4.7 7.3.8.7 1.5 1.9 1.5 2.6q.1 1.3 1.5 1.4c.7 0 1.8.6 2.2 1.4 1.2 2.1 8.2 6.6 12.7 8.2 2.2.8 4.5 1.9 5.2 2.5 1.7 1.4 39.2 2.7 41.8 1.4 2-1 2.1-1.9 2.3-20.8.1-17.1-.1-19.9-1.5-21.6s-3.5-2.1-13.7-2.7a57 57 0 0 1-13.2-1.6c-1-.8-1.3-20.9-1.3-94.4s-.3-93.5-1.2-94.1c-.7-.4-10.6-.9-21.9-1.1-17.1-.3-20.7-.1-21.8 1.1m108.6-.7c-.4.4-.7 45.9-.7 101.1 0 98.4 0 100.4 2 104a18 18 0 0 1 2 5.3c0 2.2 2.5 5.4 9.5 12.3 8.3 8.2 8.9 8.7 11.1 8.7 1.1 0 3.7 1 5.9 2.1 3.6 2 6 2.2 24.3 2.7l20.2.5-.2-22.4-.3-22.4-13-.8c-7.1-.5-13.7-1.2-14.5-1.6-1.3-.7-1.6-12.7-2-95.2l-.5-94.4-21.6-.3c-11.8-.1-21.8.1-22.2.4m-1676.2 63.5c-6 .4-20.9 1-33 1.3a971 971 0 0 0-28.4 1.2l-6.3.6.7 6.6c.4 3.7 1 13.7 1.4 22.2l.6 15.5 9.5.3c5.2.2 20.3-.2 33.5-1 13.2-.7 29.6-1.3 36.5-1.3 14.2 0 52.9 2.1 55.3 3 2.7 1.1 3.7 9.8 1.7 14.9-.9 2.4-1.4 2.6-7.7 2.6a65 65 0 0 1-12.8-1.5c-8.5-2-56.8-2.1-65.7-.1-3.5.8-10.8 1.8-16.3 2.2-5.5.3-10.9 1.2-12.1 1.9s-4 1.8-6.2 2.5-4.2 1.5-4.2 1.9c0 .5-1.4 1.4-3 2.1a10 10 0 0 0-4.1 3.1c-.5 1.1-1.6 1.9-2.4 1.9q-1.3.1-1.5 1.1c0 .6-1.1 2.4-2.5 4.1s-2.5 3.5-2.5 4.2-1 2.6-2.2 4.2c-2.3 2.8-2.3 3.4-2.3 28.9s0 26.1 2.3 28.9c1.2 1.6 2.2 3.5 2.2 4.2s.9 2.2 2 3.1c1.1 1 2 2.2 2 2.8s1.6 2.3 3.6 4l5.3 4.6c1 .9 3 1.9 4.4 2.3a10 10 0 0 1 4.2 2.2c1.1 1.2 4.8 1.9 13.3 2.5 6.4.6 14.2 1.5 17.2 2a473 473 0 0 0 67 .9l25.3-2.4c9.9-1 14.2-1.8 15.5-3a46.8 46.8 0 0 0 19.2-16.2c0-.6.9-1.9 1.9-2.8 1-1 2.2-3.4 2.6-5.4s1.3-4.9 2.1-6.4c1.2-2.2 1.4-11.7 1.4-54.1 0-34.5-.3-51.6-1.1-52.4-.5-.5-1.6-3.4-2.4-6.3a22 22 0 0 0-2.9-6.9q-1.5-1.7-1.6-2.5c0-1.1-8.9-9.7-12.8-12.3a19 19 0 0 0-6-2.9c-1.5-.4-3.8-1.3-5.2-2.2-1.8-1.2-7-1.7-21-2.3l-53-2.7zM662 1931c1.9.6 7.5 1.4 12.3 1.9s9.3 1.3 9.9 1.9a34 34 0 0 1 1 16.1c-2.3 3.4-11.9 4.4-46.2 4.8-28 .4-35.2.2-43-1.2-5.2-.8-9.9-2-10.5-2.6a39 39 0 0 1-.7-16.7c1-1.5 12.6-4 24.7-5.2 10.5-1.1 48-.4 52.5 1m1807.5-110a786 786 0 0 1-33.5 1.4c-12.4.4-25.4.9-28.9 1.2l-6.3.6.5 5.1 1.6 14.7 1.7 17.4.6 7.9 25.1-.6c13.8-.4 31.1-1.2 38.5-1.8 10.4-.9 18-.9 32.6 0l28.4 1.7c10.7.7 12.2 1.8 12.2 9.4 0 7.2-1.9 9-9.3 9-3.4 0-9.3-.7-13.2-1.5a336 336 0 0 0-65 0 126 126 0 0 1-16 2.1q-10 .7-13.5 2.5a15 15 0 0 1-5 1.9c-4.1.1-18.4 12.9-19.6 17.6-.3 1.3-1.2 2.8-2 3.2-2.1 1.2-3.4 12.5-3.4 30.2 0 18.7 1.2 28.2 4 31.8 1.1 1.4 2 2.9 2 3.5 0 1.1.9 2.1 6.6 7.7 6 5.9 7 6.7 9.7 7.4a9 9 0 0 1 4.1 2.2c1.6 1.5 8.8 2.5 40.1 5.4 12.7 1.2 45.1 1.2 57.5 0 30.1-2.8 39.4-4 39.9-4.8a54.2 54.2 0 0 0 22.4-20.7c5.3-10.2 5.7-14.9 5.7-64.5 0-38.3-.2-46.6-1.6-52.5-.9-3.9-2.2-8.1-3-9.5l-2.6-5c-1.6-3-10.2-12-11.5-12-.6 0-1.8-.9-2.7-1.9a10 10 0 0 0-5-2.6c-1.7-.4-4.2-1.4-5.5-2.2q-2.5-1.6-11.5-1.9l-29.1-1.4-27-1.4c-3.8-.2-11.9 0-18 .4m51 110.5c3.3.8 8.3 1.5 11.1 1.5 7.5 0 9.6 2.1 10.2 9.9.9 12-1.8 12.6-52.3 12.6-40.3 0-46-.6-48.9-5.1-3.2-4.7-1.3-16.1 2.7-16.8 23-4.4 23.9-4.5 50.7-4q20.5.4 26.5 1.9m-1667-109.9c-1.1.2-12.3.8-25 1.3-20.3.8-23.5 1.2-27 3a17 17 0 0 1-5.4 2.1c-1.8 0-2.7.8-11.8 9.9a40 40 0 0 0-7.3 8.4c0 .7-1 3.1-2.2 5.2-2.2 3.8-2.3 5.1-2.3 25.5 0 18.1.3 22 1.6 24 .9 1.4 1.9 3.8 2.3 5.5.8 3.3 1.1 3.7 8.8 11.6 3 3.1 6.4 6 7.6 6.3 1.2.4 2.9 1.5 3.8 2.3a15 15 0 0 0 6.3 2.6c2.5.5 29 1.2 58.9 1.6 62.9.7 57.6-.4 57 11.2-.2 3.7-.9 7.3-1.6 8.2-1.9 2.3-46.9 3.1-97.6 1.8a391 391 0 0 0-43.1-.1c-1.6 1.4-4.7 36.1-3.7 41.3.7 3.6 13.4 4.2 85.7 4.2 62.2 0 69.2-.2 71.5-1.6 1.4-.9 4.1-2 6.1-2.3 2-.4 4.7-1.5 5.9-2.6s2.6-2 2.9-2c2.4 0 15.1-15 15.1-17.8 0-.7.9-2.9 2-4.9 1.8-3.4 2-5.7 2-25.1 0-19.3-.2-21.6-2-25.2a20 20 0 0 1-2-5.2c0-3.4-10.9-15.7-16.5-18.5-1.6-.8-3.7-2.1-4.5-2.8s-6.3-2-12.2-2.9c-8.7-1.3-19.3-1.6-58.6-1.6-40.1 0-48.1-.2-49.1-1.4-.7-.9-1.1-4-.9-7.8l.3-6.3 10.5-.8c5.8-.4 16.9-1.2 24.6-1.9 10.8-.8 16.7-.8 24.5.1 5.7.6 24.4 1.4 41.5 1.8l31.1.6.6-12.9c.7-12.7.9-32.3.5-32.5l-32.3-.9-48-1.4c-8.8-.2-16.9-.3-18 0m229 0c-2.7.3-14.5.8-26.1 1.3-15.9.6-21.7 1.2-23.5 2.4-1.3.8-3.6 1.7-5 2.1-1.4.3-3.6 1.5-4.9 2.6s-2.7 2-3.2 2a46 46 0 0 0-10.8 11.6c0 .6-.9 2.3-2 3.7s-2 3.2-2 4.1-.9 4.2-2 7.3a81 81 0 0 0 .5 39 45 45 0 0 0 5.5 13.1c0 .9 2.7 4.5 5.7 7.5a57 57 0 0 0 11.7 8.2c3.6 3.7 16 4.5 67.9 4.5h49.8l2.4 2.5a8 8 0 0 1 2.5 6.2c0 5.6-1.8 11.1-3.8 11.7-6.8 1.9-132.1 1.1-137.4-.9q-1.5-.5-2.1.9c-.3.8-.9 10.7-1.3 21.9-.7 20.2-.7 20.5 1.4 21.6 4 2.1 39.7 3.2 95.7 2.9 50.1-.3 56.3-.5 58.5-2 1.4-.9 4-1.9 5.9-2.3 1.8-.4 5.4-2.1 8-3.8a54 54 0 0 0 14.1-14.3c0-.6.9-2.2 1.9-3.6 2.6-3.2 4.1-14.7 4.1-30.3 0-24.7-3.3-35.1-14.4-44.4l-3.2-2.9a40 40 0 0 0-19.7-7.6c-8.2-1.4-17.3-1.6-56.7-1.6-36.9.1-47.6-.2-49.8-1.2-2.4-1.2-2.7-1.9-3-7-.3-4.8 0-5.8 1.7-6.8 2.2-1.1 34.6-3.5 48.1-3.5 4.7.1 17.3.6 28 1.3 20.7 1.3 51.8 1.6 54.4.6 1.2-.5 1.6-2 1.6-5.8 0-2.8.4-7.7 1-10.9 1.1-7.2 1.6-26.4.7-27.4-.4-.3-15.2-1-33-1.4l-47.2-1.2c-8.2-.3-17.2-.3-20-.1m550 0c-3.3.3-14.5.8-25 1.2-14.6.6-19.6 1.2-21.5 2.4-1.4.9-3.6 1.9-5 2.3a44 44 0 0 0-20.5 20.6c-.4 1.3-1.5 3.2-2.4 4.3-1.4 1.6-1.6 7.5-1.6 58.5v56.6l2.3 4c1.2 2.1 2.2 4.4 2.2 5.1s.9 1.9 2 2.9 2 2.3 2 2.8c0 1.7 9.2 9.7 13 11.3 1.9.8 3.7 1.9 4.1 2.5.3.5 7.7 2 16.5 3.2 14 1.9 20.4 2.1 53.4 2.1 32.4 0 39.6-.3 52.8-2.1a58 58 0 0 0 17.1-3.7q1.7-1.5 2.5-1.6a47 47 0 0 0 19.6-22.3c0-.9.9-3.9 2-6.7 1.9-4.8 2-7.4 2-54.3 0-39.5-.3-49.7-1.4-51.8-.7-1.4-1.9-4.9-2.6-7.8-.6-2.8-1.6-5.1-2-5.1q-.9-.2-1.5-2c-.4-1.2-3.2-4.5-6.3-7.5-8.2-7.8-9.1-8.5-10.5-8.5a17 17 0 0 1-5.2-2.1c-3.4-1.8-6.7-2.2-21-2.9a998 998 0 0 0-65-1.4m53.2 46.3a45 45 0 0 1 14.7 2.1c1.4 1.1 1.6 5.9 1.4 41.3l-.3 40.1-3.5 2c-3.4 2-4.9 2.1-46.5 2.1-36.4 0-43.5-.2-46-1.5l-3-1.5-.3-41c-.1-24 .2-41.3.7-41.8s8.5-1.3 17.8-1.8c9.2-.5 17.5-1.1 18.3-1.4 1.8-.5 27.9.3 46.7 1.4m1023.3-46.3c-1.4.2-12.6.8-25 1.3-19.9.8-23 1.1-26.5 3a16 16 0 0 1-5.7 2.1q-1.7 0-1.8 1c0 .5-1.3 1.6-3 2.5-4.4 2.3-14 12.9-14 15.4 0 .7-1 2.6-2.2 4.2-2.2 3-2.3 3.8-2.3 25.3v22.1l3.4 7c3.3 6.7 14.5 19.5 17.1 19.5.6 0 2.3.8 3.8 1.9 5 3.5 17.1 4.3 69.3 4.4 40.4.2 49.9.5 51.2 1.6 1.3 1 1.7 3.1 1.7 8.7 0 11.7 4 10.9-54.9 10.8-27.3 0-57.9-.4-68.1-.8-15.1-.6-18.8-.5-20.4.7-1.7 1.2-1.8 3.1-2 21.7l-.1 20.3 3 .9c6.6 1.9 42.8 2.9 95 2.6 48.2-.3 55.4-.5 58-1.9 1.7-.9 4.5-1.9 6.3-2.2 1.9-.4 4.5-1.6 5.9-2.7s3-2 3.5-2c1.2 0 10.8-9.6 10.8-10.8 0-.5 1-2.1 2.1-3.6s2.5-4.2 3-5.9 1.5-5.2 2.4-7.7c1.4-3.7 1.6-7.6 1.3-22.1a72 72 0 0 0-1.5-19c-.6-.8-1.6-3.3-2.2-5.6a40 40 0 0 0-3.4-7.9 53 53 0 0 0-18.7-16.9c-.8-.7-6.3-2-12.2-2.9-9.2-1.5-17.4-1.7-57.5-1.5-34.7.2-47.4-.1-49.1-1-1.9-1-2.2-2-2.2-7 0-3.5.5-6.3 1.3-6.9a325 325 0 0 1 77.7-2.4c11.3.7 28.2 1.2 37.5 1l17-.3.3-22.3v-22.3l-31.8-.9-48-1.3c-9.1-.3-17.6-.4-19-.1m-1471.6 6.5c-.3.6-.7 37.7-.7 82.5 0 61.1.2 81.7 1.1 82.6 1.8 1.8 36.2 2.4 40.2.8l3-1.2v-82.3c0-74.1-.2-82.3-1.6-82.9a253 253 0 0 0-42 .5m91.3-.4c-.4.3-.7 31.4-.7 69 0 66.4.1 68.5 2 72.3a20 20 0 0 1 2 5.2c.1 3.4 13.5 18.8 16.4 18.8.7 0 2.5.9 3.9 2 2.5 2 9.8 3.6 26.7 6a256 256 0 0 0 54.5-1c6.6-1.1 13.3-2 14.8-2 5.1 0 15.7-6 22.4-12.6 3.5-3.5 6.3-6.9 6.3-7.7s.9-2.6 2-4 2-3.6 2-4.9.8-4 1.9-6 2.1-5.6 2.5-8 1.3-5.2 2-6.3c.8-1.1 1.7-4.1 2.1-6.5s1.6-6.4 2.6-8.7c1.1-2.3 1.9-5.2 1.9-6.5s.8-4 1.9-6 2.1-5.6 2.5-8 1.3-5.2 2-6.3c.8-1.1 1.7-4.1 2.1-6.5s1.6-6.4 2.6-8.7c1.1-2.3 1.9-5.2 1.9-6.5s.8-3.9 1.8-5.8c1.1-1.9 2.2-5.5 2.6-8s1.3-5.4 2.1-6.6c.7-1.1 1.7-4.3 2.1-7a32 32 0 0 1 2.5-8.4c1.1-1.9 1.9-4.8 1.9-6.5 0-1.6.9-4.5 2.1-6.4 1.1-1.8 1.9-4.5 1.7-6l-.3-2.6-21.9-.3c-21.1-.2-22-.2-24.2 1.9a12 12 0 0 0-2.9 6.7c-.4 2.6-1.3 5.7-2.1 6.9-.7 1.2-1.7 4.1-2 6.5s-1.5 5.9-2.4 7.8-2 5.4-2.4 7.8-1.3 5.3-2 6.5c-.8 1.2-1.7 4.2-2.1 6.7s-1.6 6.1-2.6 8a15 15 0 0 0-1.9 6.5c0 1.6-.9 4.3-2 6a13 13 0 0 0-2 6c0 1.7-.8 4.7-1.9 6.7a34 34 0 0 0-2.5 8c-.4 2.4-1.3 5.3-2.1 6.5s-1.8 4.1-2.1 6.5a34 34 0 0 1-2.5 8 17 17 0 0 0-1.9 5.8c0 3.7-1.8 5.8-6.7 7.7-4.2 1.6-7.9 1.8-30 1.8-24.9 0-25.3 0-27.5-2.3l-2.3-2.3-.3-61.9-.2-62h-21.9c-12 0-22.1.3-22.4.7m760.6 0c-1 .4-1.3 17.9-1.3 82.8v82.3l2.8 1.1c3.3 1.3 39.9.8 41.3-.6.5-.5.8-33.2.7-83.4l-.3-82.4-21-.2c-11.5-.1-21.6.1-22.2.4"/><path d="M1255 937.7c.1.5 11 11.7 24.3 25l24.2 24.3h154.6c85.1 0 156-.3 157.8-.6 3-.6 2.9-.8-21.3-25l-24.3-24.4h-157.7c-86.7 0-157.6.3-157.6.7m160 154.8c0 .2 10.8 11.2 23.9 24.5l24 24 146.5.2c118.5.3 146.7.5 147.8 1.6 1 1 1.4 13.2 1.8 57l.5 55.7 24.3 24.2 24.2 24.1V1092h-196.5c-108.1 0-196.5.2-196.5.5m-216.4 37c-1 2.8-.7 199.1.4 201.9l1 2.6h390.8l-.6-2.2c-.6-2.3-42.8-45-47.5-48.1-2.5-1.6-10.7-1.7-147.4-1.7-135.9.1-144.9 0-146-1.7-1-1.3-1.3-13.2-1.3-52.8v-51.1l-24.4-24.2c-18.3-18.2-24.5-23.9-25-22.7m195.9 307.5c-4.9.3-8.4.7-7.7.8q1 .3 1.2 1.7c0 .8 10.2 11.7 22.8 24.2l22.7 22.8 156.4.2c105.3.1 157.1-.2 158.4-.8 1.7-1-.6-3.6-21-24.1a398 398 0 0 0-25.5-24.4c-2.3-1.2-24.3-1.4-150.5-1.2-81.3.1-151.8.5-156.8.8m489 314.1a337 337 0 0 1-39.4 2.8c-18.6.7-23.5 1.2-24.9 2.4-.9.8-3 1.9-4.7 2.3a41 41 0 0 0-19.2 16.1c-1.3 1.4-2.3 3.2-2.3 3.9 0 .8-.9 3.1-2 5.1-1.9 3.6-2 5.7-2 43.3 0 37.7.1 39.6 2 42.5 1.1 1.6 2 3.7 2 4.6 0 1.9 2.7 5.4 9.2 11.8 7 7 8.4 7.9 12.7 9.1 2.2.6 4.1 1.6 4.4 2.3.3.9 20.2 1.3 90 1.7 49.2.3 89.9.9 90.4 1.3 1.3 1.4 1 49.4-.4 50.8-.7.7-6.5 1.5-14 2-7 .4-18 1.3-24.3 1.9-13.9 1.4-89.7.7-98.1-.9-3-.6-19-1.2-35.5-1.3l-29.9-.3-.7 22c-.4 13.9-.3 22.2.4 22.6.5.3 15.4.9 33.1 1.2 18.3.4 35.4 1.2 39.7 1.9 10.4 1.8 82.9 1.8 96 0a464 464 0 0 1 29.3-2.1c15.5-.6 20.1-1.1 21.5-2.3.9-.9 3.2-1.9 5-2.3s3.2-1 3.2-1.4 1.4-1.5 3.2-2.5c4.7-2.8 10-9 14.6-17.4l2.7-4.7v-42.1c0-37.6-.2-42.4-1.6-44-.9-1.1-2-3-2.4-4.4a42 42 0 0 0-20.6-19.5c-1.3-.4-3.5-1.4-4.9-2.4-2.3-1.4-10.8-1.6-91-1.9-81.5-.2-88.6-.4-89.7-1.9-1.6-2-1.8-46.9-.3-49.3.7-1.1 4.7-1.8 16.7-2.6 8.7-.7 21.2-1.7 27.8-2.4 15.1-1.6 88.1-.8 93.5.9 2 .7 14 1.5 27.1 1.8l23.7.6.6-9.9a373 373 0 0 1 1.6-17.9c.6-4.4 1-10.1 1-12.8 0-4.5-.1-4.7-2.7-4.7a920 920 0 0 1-56.7-3c-7.8-1.2-68.7-1.9-84.1-.9m-1683.5 7c-3.6.6-5.4 1.8-8.7 5.6l-4.3 4.7V1995h21.9c19 0 22-.2 22.5-1.6.3-.9.6-31.8.6-68.8 0-76.7-.3-74.3 7-66.6 5.2 5.7 5.8 6.4 9.7 12.5 1.8 2.8 3.9 5.7 4.6 6.5.8.8 1.8 2.5 2.1 3.7q.7 2.1 1.6 2.3c.4 0 1.5 1.5 2.4 3.2s3.5 5.8 5.6 8.8c2.2 3 4 6.1 4 6.7q0 1.2.9 1.3a41 41 0 0 1 7.1 10.9c0 .4.9 1.6 2 2.6s2 2.3 2 2.9 2 4 4.5 7.6 4.5 6.9 4.5 7.4.7 1.8 1.7 2.8a43 43 0 0 1 6 9.8c1 1.9 2.2 3.8 2.7 4.2.6.3 1.7 2 2.5 3.6l8.6 14.7 4.5 7.5 4 6.5c1.1 1.6 2.7 4.4 3.6 6.2 2.1 4 3.4 4.3 16.9 4.3s15.2-.4 17.1-4.4q3-6.2 5.5-9.3c.9-1 2.1-2.9 2.8-4.3l3.6-6.5 4.1-7c.9-1.6 2.3-3.5 3-4.3s1.4-2 1.4-2.8.9-2.3 1.9-3.3c1.9-1.9 3.8-4.9 6.5-10.7.8-1.7 2.2-3.6 3-4.4.9-.7 1.6-1.8 1.6-2.4s2-4 4.5-7.6 4.5-7 4.5-7.6.9-1.9 2-2.9 2-2.2 2-2.6a41 41 0 0 1 7.1-10.9q.8-.1.9-1.4c0-.8 1-2.7 2.3-4.3l3.5-4.8c3.5-5.6 5.2-8.1 5.9-9l3.4-5 4.5-6.9 2.9-4.4c4-6.1 9.8-12.2 11.6-12.2l2.1.2c.2.2.5 31.6.8 69.8l.5 69.5 22.3.3 22.2.2v-225.9l-2.2-3.4a23 23 0 0 0-5.3-5.5c-3.9-2.6-14-3.7-22.5-2.3-5.8.9-6.9 1.5-10.5 5.4-2.2 2.4-5.8 7-8 10.1-2.2 3.2-5.2 7.2-6.7 9a13 13 0 0 0-2.8 4.4c0 .6-.6 1.5-1.4 1.9s-1.9 1.9-2.6 3.3-3 4.5-5 7-4 5.3-4.3 6.2q-.7 1.6-1.5 1.8c-.5 0-1.5 1.4-2.2 3s-1.8 3.4-2.4 3.8a66 66 0 0 0-7 9.4 36 36 0 0 1-6.7 8.8q-.8.1-.9 1.3c0 .8-.9 2.2-2 3.2s-2 2.4-2 3.2c0 .7-.9 2.2-1.9 3.2-1.1 1.1-2.5 3-3.2 4.2-.6 1.3-1.6 2.8-2.1 3.3a74 74 0 0 0-6.7 10.3q-1 2.1-2.1 2.3-.9.1-1 1.4c0 .8-1.1 2.8-2.5 4.4a13 13 0 0 0-2.5 3.9c0 .6-.9 1.8-2 2.8s-2 2.4-2 3.1-1.1 2.5-2.5 4a11 11 0 0 0-2.5 3.5c0 1-4.4 7.9-6.5 10-.8.9-1.5 2.2-1.5 3s-1.1 2.7-2.5 4.3-2.5 3.5-2.5 4.3q-.1 1.3-1.4 1.9c-.8.3-1.7 1.6-2 3s-1.4 3.3-2.4 4.3-2.4 3.1-3.2 4.7c-2.3 4.2-6.9 4.1-9.1-.2-.8-1.8-2.3-3.9-3.2-4.9-.9-.9-2-2.7-2.3-4.1s-1-2.4-1.5-2.4-1.6-1.5-2.4-3.3a69 69 0 0 0-6.3-10.8 45 45 0 0 1-6.2-9.8c0-.4-1.1-2-2.5-3.5s-2.5-3.3-2.5-4-.9-2.1-2-3.1-2-2.4-2-3-.7-1.9-1.7-2.6-2.2-2.9-3-4.7c-.7-1.7-1.8-3.2-2.3-3.2q-1-.1-1-1.4c0-.7-1-2.5-2.2-3.9a51 51 0 0 1-4.8-6.7 63 63 0 0 0-4.7-6.7c-1.3-1.3-2.3-3-2.3-3.7s-.9-2.1-2-3.1-2-2.4-2-3.2q0-1.2-.9-1.3c-.5 0-1.7-1.3-2.8-2.9-4.2-6.7-9.8-14.6-10.6-14.9a13 13 0 0 1-2.3-3.3c-.8-1.7-2.2-3.8-3.1-4.7l-6.4-8.7a186 186 0 0 0-8.4-11.6l-4-5.9-4-5.8c-1.3-2-3.6-4.7-8.8-10.5-3.8-4.3-4.8-4.9-10.2-5.7a45 45 0 0 0-17.5.1m1038.2.1c-.8 1.1-1.8 23.9-1.3 31.1.1 1.6 1.6 1.7 21.9 1.5l21.7-.3.3-15.4c.2-13.7.1-15.5-1.5-16.7-2.5-1.9-39.6-2-41.1-.2m851.5.2c-1.6 1.2-1.7 3-1.5 16.7l.3 15.4h44l.3-15.4q.3-15.5-.9-16.7c-1.6-2-39.6-2-42.2 0m91.4-.1c-.9 1.2-1.1 24.2-.9 102.9l.3 101.3 3.3 6.2c1.8 3.3 3.9 6.7 4.7 7.3.8.7 1.5 1.9 1.5 2.6q.1 1.3 1.5 1.4c.7 0 1.8.6 2.2 1.4 1.2 2.1 8.2 6.6 12.7 8.2 2.2.8 4.5 1.9 5.2 2.5 1.7 1.4 39.2 2.7 41.8 1.4 2-1 2.1-1.9 2.3-20.8.1-17.1-.1-19.9-1.5-21.6s-3.5-2.1-13.7-2.7a57 57 0 0 1-13.2-1.6c-1-.8-1.3-20.9-1.3-94.4s-.3-93.5-1.2-94.1c-.7-.4-10.6-.9-21.9-1.1-17.1-.3-20.7-.1-21.8 1.1m108.6-.7c-.4.4-.7 45.9-.7 101.1 0 98.4 0 100.4 2 104a18 18 0 0 1 2 5.3c0 2.2 2.5 5.4 9.5 12.3 8.3 8.2 8.9 8.7 11.1 8.7 1.1 0 3.7 1 5.9 2.1 3.6 2 6 2.2 24.3 2.7l20.2.5-.2-22.4-.3-22.4-13-.8c-7.1-.5-13.7-1.2-14.5-1.6-1.3-.7-1.6-12.7-2-95.2l-.5-94.4-21.6-.3c-11.8-.1-21.8.1-22.2.4m-1676.2 63.5c-6 .4-20.9 1-33 1.3a971 971 0 0 0-28.4 1.2l-6.3.6.7 6.6c.4 3.7 1 13.7 1.4 22.2l.6 15.5 9.5.3c5.2.2 20.3-.2 33.5-1 13.2-.7 29.6-1.3 36.5-1.3 14.2 0 52.9 2.1 55.3 3 2.7 1.1 3.7 9.8 1.7 14.9-.9 2.4-1.4 2.6-7.7 2.6a65 65 0 0 1-12.8-1.5c-8.5-2-56.8-2.1-65.7-.1-3.5.8-10.8 1.8-16.3 2.2-5.5.3-10.9 1.2-12.1 1.9s-4 1.8-6.2 2.5-4.2 1.5-4.2 1.9c0 .5-1.4 1.4-3 2.1a10 10 0 0 0-4.1 3.1c-.5 1.1-1.6 1.9-2.4 1.9q-1.3.1-1.5 1.1c0 .6-1.1 2.4-2.5 4.1s-2.5 3.5-2.5 4.2-1 2.6-2.2 4.2c-2.3 2.8-2.3 3.4-2.3 28.9s0 26.1 2.3 28.9c1.2 1.6 2.2 3.5 2.2 4.2s.9 2.2 2 3.1c1.1 1 2 2.2 2 2.8s1.6 2.3 3.6 4l5.3 4.6c1 .9 3 1.9 4.4 2.3a10 10 0 0 1 4.2 2.2c1.1 1.2 4.8 1.9 13.3 2.5 6.4.6 14.2 1.5 17.2 2a473 473 0 0 0 67 .9l25.3-2.4c9.9-1 14.2-1.8 15.5-3a46.8 46.8 0 0 0 19.2-16.2c0-.6.9-1.9 1.9-2.8 1-1 2.2-3.4 2.6-5.4s1.3-4.9 2.1-6.4c1.2-2.2 1.4-11.7 1.4-54.1 0-34.5-.3-51.6-1.1-52.4-.5-.5-1.6-3.4-2.4-6.3a22 22 0 0 0-2.9-6.9q-1.5-1.7-1.6-2.5c0-1.1-8.9-9.7-12.8-12.3a19 19 0 0 0-6-2.9c-1.5-.4-3.8-1.3-5.2-2.2-1.8-1.2-7-1.7-21-2.3l-53-2.7zM662 1931c1.9.6 7.5 1.4 12.3 1.9s9.3 1.3 9.9 1.9a34 34 0 0 1 1 16.1c-2.3 3.4-11.9 4.4-46.2 4.8-28 .4-35.2.2-43-1.2-5.2-.8-9.9-2-10.5-2.6a39 39 0 0 1-.7-16.7c1-1.5 12.6-4 24.7-5.2 10.5-1.1 48-.4 52.5 1m1807.5-110a786 786 0 0 1-33.5 1.4c-12.4.4-25.4.9-28.9 1.2l-6.3.6.5 5.1 1.6 14.7 1.7 17.4.6 7.9 25.1-.6c13.8-.4 31.1-1.2 38.5-1.8 10.4-.9 18-.9 32.6 0l28.4 1.7c10.7.7 12.2 1.8 12.2 9.4 0 7.2-1.9 9-9.3 9-3.4 0-9.3-.7-13.2-1.5a336 336 0 0 0-65 0 126 126 0 0 1-16 2.1q-10 .7-13.5 2.5a15 15 0 0 1-5 1.9c-4.1.1-18.4 12.9-19.6 17.6-.3 1.3-1.2 2.8-2 3.2-2.1 1.2-3.4 12.5-3.4 30.2 0 18.7 1.2 28.2 4 31.8 1.1 1.4 2 2.9 2 3.5 0 1.1.9 2.1 6.6 7.7 6 5.9 7 6.7 9.7 7.4a9 9 0 0 1 4.1 2.2c1.6 1.5 8.8 2.5 40.1 5.4 12.7 1.2 45.1 1.2 57.5 0 30.1-2.8 39.4-4 39.9-4.8a54.2 54.2 0 0 0 22.4-20.7c5.3-10.2 5.7-14.9 5.7-64.5 0-38.3-.2-46.6-1.6-52.5-.9-3.9-2.2-8.1-3-9.5l-2.6-5c-1.6-3-10.2-12-11.5-12-.6 0-1.8-.9-2.7-1.9a10 10 0 0 0-5-2.6c-1.7-.4-4.2-1.4-5.5-2.2q-2.5-1.6-11.5-1.9l-29.1-1.4-27-1.4c-3.8-.2-11.9 0-18 .4m51 110.5c3.3.8 8.3 1.5 11.1 1.5 7.5 0 9.6 2.1 10.2 9.9.9 12-1.8 12.6-52.3 12.6-40.3 0-46-.6-48.9-5.1-3.2-4.7-1.3-16.1 2.7-16.8 23-4.4 23.9-4.5 50.7-4q20.5.4 26.5 1.9m-1667-109.9c-1.1.2-12.3.8-25 1.3-20.3.8-23.5 1.2-27 3a17 17 0 0 1-5.4 2.1c-1.8 0-2.7.8-11.8 9.9a40 40 0 0 0-7.3 8.4c0 .7-1 3.1-2.2 5.2-2.2 3.8-2.3 5.1-2.3 25.5 0 18.1.3 22 1.6 24 .9 1.4 1.9 3.8 2.3 5.5.8 3.3 1.1 3.7 8.8 11.6 3 3.1 6.4 6 7.6 6.3 1.2.4 2.9 1.5 3.8 2.3a15 15 0 0 0 6.3 2.6c2.5.5 29 1.2 58.9 1.6 62.9.7 57.6-.4 57 11.2-.2 3.7-.9 7.3-1.6 8.2-1.9 2.3-46.9 3.1-97.6 1.8a391 391 0 0 0-43.1-.1c-1.6 1.4-4.7 36.1-3.7 41.3.7 3.6 13.4 4.2 85.7 4.2 62.2 0 69.2-.2 71.5-1.6 1.4-.9 4.1-2 6.1-2.3 2-.4 4.7-1.5 5.9-2.6s2.6-2 2.9-2c2.4 0 15.1-15 15.1-17.8 0-.7.9-2.9 2-4.9 1.8-3.4 2-5.7 2-25.1 0-19.3-.2-21.6-2-25.2a20 20 0 0 1-2-5.2c0-3.4-10.9-15.7-16.5-18.5-1.6-.8-3.7-2.1-4.5-2.8s-6.3-2-12.2-2.9c-8.7-1.3-19.3-1.6-58.6-1.6-40.1 0-48.1-.2-49.1-1.4-.7-.9-1.1-4-.9-7.8l.3-6.3 10.5-.8c5.8-.4 16.9-1.2 24.6-1.9 10.8-.8 16.7-.8 24.5.1 5.7.6 24.4 1.4 41.5 1.8l31.1.6.6-12.9c.7-12.7.9-32.3.5-32.5l-32.3-.9-48-1.4c-8.8-.2-16.9-.3-18 0m229 0c-2.7.3-14.5.8-26.1 1.3-15.9.6-21.7 1.2-23.5 2.4-1.3.8-3.6 1.7-5 2.1-1.4.3-3.6 1.5-4.9 2.6s-2.7 2-3.2 2a46 46 0 0 0-10.8 11.6c0 .6-.9 2.3-2 3.7s-2 3.2-2 4.1-.9 4.2-2 7.3a81 81 0 0 0 .5 39 45 45 0 0 0 5.5 13.1c0 .9 2.7 4.5 5.7 7.5a57 57 0 0 0 11.7 8.2c3.6 3.7 16 4.5 67.9 4.5h49.8l2.4 2.5a8 8 0 0 1 2.5 6.2c0 5.6-1.8 11.1-3.8 11.7-6.8 1.9-132.1 1.1-137.4-.9q-1.5-.5-2.1.9c-.3.8-.9 10.7-1.3 21.9-.7 20.2-.7 20.5 1.4 21.6 4 2.1 39.7 3.2 95.7 2.9 50.1-.3 56.3-.5 58.5-2 1.4-.9 4-1.9 5.9-2.3 1.8-.4 5.4-2.1 8-3.8a54 54 0 0 0 14.1-14.3c0-.6.9-2.2 1.9-3.6 2.6-3.2 4.1-14.7 4.1-30.3 0-24.7-3.3-35.1-14.4-44.4l-3.2-2.9a40 40 0 0 0-19.7-7.6c-8.2-1.4-17.3-1.6-56.7-1.6-36.9.1-47.6-.2-49.8-1.2-2.4-1.2-2.7-1.9-3-7-.3-4.8 0-5.8 1.7-6.8 2.2-1.1 34.6-3.5 48.1-3.5 4.7.1 17.3.6 28 1.3 20.7 1.3 51.8 1.6 54.4.6 1.2-.5 1.6-2 1.6-5.8 0-2.8.4-7.7 1-10.9 1.1-7.2 1.6-26.4.7-27.4-.4-.3-15.2-1-33-1.4l-47.2-1.2c-8.2-.3-17.2-.3-20-.1m550 0c-3.3.3-14.5.8-25 1.2-14.6.6-19.6 1.2-21.5 2.4-1.4.9-3.6 1.9-5 2.3a44 44 0 0 0-20.5 20.6c-.4 1.3-1.5 3.2-2.4 4.3-1.4 1.6-1.6 7.5-1.6 58.5v56.6l2.3 4c1.2 2.1 2.2 4.4 2.2 5.1s.9 1.9 2 2.9 2 2.3 2 2.8c0 1.7 9.2 9.7 13 11.3 1.9.8 3.7 1.9 4.1 2.5.3.5 7.7 2 16.5 3.2 14 1.9 20.4 2.1 53.4 2.1 32.4 0 39.6-.3 52.8-2.1a58 58 0 0 0 17.1-3.7q1.7-1.5 2.5-1.6a47 47 0 0 0 19.6-22.3c0-.9.9-3.9 2-6.7 1.9-4.8 2-7.4 2-54.3 0-39.5-.3-49.7-1.4-51.8-.7-1.4-1.9-4.9-2.6-7.8-.6-2.8-1.6-5.1-2-5.1q-.9-.2-1.5-2c-.4-1.2-3.2-4.5-6.3-7.5-8.2-7.8-9.1-8.5-10.5-8.5a17 17 0 0 1-5.2-2.1c-3.4-1.8-6.7-2.2-21-2.9a998 998 0 0 0-65-1.4m53.2 46.3a45 45 0 0 1 14.7 2.1c1.4 1.1 1.6 5.9 1.4 41.3l-.3 40.1-3.5 2c-3.4 2-4.9 2.1-46.5 2.1-36.4 0-43.5-.2-46-1.5l-3-1.5-.3-41c-.1-24 .2-41.3.7-41.8s8.5-1.3 17.8-1.8c9.2-.5 17.5-1.1 18.3-1.4 1.8-.5 27.9.3 46.7 1.4m1023.3-46.3c-1.4.2-12.6.8-25 1.3-19.9.8-23 1.1-26.5 3a16 16 0 0 1-5.7 2.1q-1.7 0-1.8 1c0 .5-1.3 1.6-3 2.5-4.4 2.3-14 12.9-14 15.4 0 .7-1 2.6-2.2 4.2-2.2 3-2.3 3.8-2.3 25.3v22.1l3.4 7c3.3 6.7 14.5 19.5 17.1 19.5.6 0 2.3.8 3.8 1.9 5 3.5 17.1 4.3 69.3 4.4 40.4.2 49.9.5 51.2 1.6 1.3 1 1.7 3.1 1.7 8.7 0 11.7 4 10.9-54.9 10.8-27.3 0-57.9-.4-68.1-.8-15.1-.6-18.8-.5-20.4.7-1.7 1.2-1.8 3.1-2 21.7l-.1 20.3 3 .9c6.6 1.9 42.8 2.9 95 2.6 48.2-.3 55.4-.5 58-1.9 1.7-.9 4.5-1.9 6.3-2.2 1.9-.4 4.5-1.6 5.9-2.7s3-2 3.5-2c1.2 0 10.8-9.6 10.8-10.8 0-.5 1-2.1 2.1-3.6s2.5-4.2 3-5.9 1.5-5.2 2.4-7.7c1.4-3.7 1.6-7.6 1.3-22.1a72 72 0 0 0-1.5-19c-.6-.8-1.6-3.3-2.2-5.6a40 40 0 0 0-3.4-7.9 53 53 0 0 0-18.7-16.9c-.8-.7-6.3-2-12.2-2.9-9.2-1.5-17.4-1.7-57.5-1.5-34.7.2-47.4-.1-49.1-1-1.9-1-2.2-2-2.2-7 0-3.5.5-6.3 1.3-6.9a325 325 0 0 1 77.7-2.4c11.3.7 28.2 1.2 37.5 1l17-.3.3-22.3v-22.3l-31.8-.9-48-1.3c-9.1-.3-17.6-.4-19-.1m-1471.6 6.5c-.3.6-.7 37.7-.7 82.5 0 61.1.2 81.7 1.1 82.6 1.8 1.8 36.2 2.4 40.2.8l3-1.2v-82.3c0-74.1-.2-82.3-1.6-82.9a253 253 0 0 0-42 .5m91.3-.4c-.4.3-.7 31.4-.7 69 0 66.4.1 68.5 2 72.3a20 20 0 0 1 2 5.2c.1 3.4 13.5 18.8 16.4 18.8.7 0 2.5.9 3.9 2 2.5 2 9.8 3.6 26.7 6a256 256 0 0 0 54.5-1c6.6-1.1 13.3-2 14.8-2 5.1 0 15.7-6 22.4-12.6 3.5-3.5 6.3-6.9 6.3-7.7s.9-2.6 2-4 2-3.6 2-4.9.8-4 1.9-6 2.1-5.6 2.5-8 1.3-5.2 2-6.3c.8-1.1 1.7-4.1 2.1-6.5s1.6-6.4 2.6-8.7c1.1-2.3 1.9-5.2 1.9-6.5s.8-4 1.9-6 2.1-5.6 2.5-8 1.3-5.2 2-6.3c.8-1.1 1.7-4.1 2.1-6.5s1.6-6.4 2.6-8.7c1.1-2.3 1.9-5.2 1.9-6.5s.8-3.9 1.8-5.8c1.1-1.9 2.2-5.5 2.6-8s1.3-5.4 2.1-6.6c.7-1.1 1.7-4.3 2.1-7a32 32 0 0 1 2.5-8.4c1.1-1.9 1.9-4.8 1.9-6.5 0-1.6.9-4.5 2.1-6.4 1.1-1.8 1.9-4.5 1.7-6l-.3-2.6-21.9-.3c-21.1-.2-22-.2-24.2 1.9a12 12 0 0 0-2.9 6.7c-.4 2.6-1.3 5.7-2.1 6.9-.7 1.2-1.7 4.1-2 6.5s-1.5 5.9-2.4 7.8-2 5.4-2.4 7.8-1.3 5.3-2 6.5c-.8 1.2-1.7 4.2-2.1 6.7s-1.6 6.1-2.6 8a15 15 0 0 0-1.9 6.5c0 1.6-.9 4.3-2 6a13 13 0 0 0-2 6c0 1.7-.8 4.7-1.9 6.7a34 34 0 0 0-2.5 8c-.4 2.4-1.3 5.3-2.1 6.5s-1.8 4.1-2.1 6.5a34 34 0 0 1-2.5 8 17 17 0 0 0-1.9 5.8c0 3.7-1.8 5.8-6.7 7.7-4.2 1.6-7.9 1.8-30 1.8-24.9 0-25.3 0-27.5-2.3l-2.3-2.3-.3-61.9-.2-62h-21.9c-12 0-22.1.3-22.4.7m760.6 0c-1 .4-1.3 17.9-1.3 82.8v82.3l2.8 1.1c3.3 1.3 39.9.8 41.3-.6.5-.5.8-33.2.7-83.4l-.3-82.4-21-.2c-11.5-.1-21.6.1-22.2.4"/></svg>