<svg xmlns="http://www.w3.org/2000/svg" viewBox="0 0 3000 3000"><path fill="#fff" d="M1143.6 915.6c-1 2.7-.7 661.8.4 663.4.8 1.3 29.7 1.5 250.2 1.5 198 0 250.8-.3 256.8-1.3l13.5-2.3a188 188 0 0 0 42.8-11.8 169 169 0 0 0 25.4-13.1q1.2-.1 1.3-.8c0-.5 1.2-1.5 2.7-2.3a125 125 0 0 0 28-27.7c7-9.2 16.4-27.5 20.2-39.6 5.7-17.7 8.2-30.8 11-58.1.7-6.7 1.1-92.6 1.1-259.8V914h-326.4c-296.7 0-326.4.1-327 1.6m206.8 171.6c1.4 2 1.6 17.8 1.6 149.3 0 116.2-.3 147.5-1.2 148.7-.7.9-3 2.6-5 3.7l-7.5 4.2-8 4.5-8.5 4.8-8 4.5a3380 3380 0 0 1-48.6 27.2 82 82 0 0 1-11.4 5.9c-.6 0-2-.7-3-1.7-1.7-1.5-1.8-8.3-1.8-175.9v-174.3l2.2-1.5c2-1.4 8.4-1.6 50-1.6h47.7zm170.1-.7c4 .8 4.3 5.8 4.3 66 0 31.3.5 69.6 1.1 85 1.4 36.5 1.4 106.5 0 127.5-1.2 18.6-1.6 19.6-8.9 23.7l-7.7 4.4-14 8-8 4.5-8.5 4.8c-2.4 1.3-6.7 3.7-9.6 5.5a46 46 0 0 1-5.8 3.1c-.3 0-1.8.8-3.2 1.8a99 99 0 0 1-9.2 5.4l-15.3 8.7a64 64 0 0 1-10 5.1c-.6 0-1.9-.7-2.9-1.7-1.7-1.5-1.8-8.3-1.8-175.2 0-95.5.4-174.1.8-174.7 2-2.9 5.3-3.1 50.6-2.7 25.3.2 47 .6 48.1.8m172.2 0 3 1.5.6 146.8c.6 165.1 1.4 149.1-7.3 153.9l-14.7 8.5-7.8 4.2-4.5 2.6c-.3.3-2.3 1.5-4.5 2.7q-11.4 6-13 7.3a1601.1 1601.1 0 0 0-27 15.2c-22.5 12.8-21.3 12.3-23.6 10.2-1.9-1.7-1.9-5.5-1.7-176.8l.3-175.1 27-.7 34.5-1.1c22-.9 35.7-.7 38.7.8M218 1755.5c-1 2.7-1.4 320.4-.4 324.3l.6 2.2 42.2-.2 42.1-.3-.4-12c-.7-24.2 1.1-168.6 2.1-168.3.6.2 2.2 2.4 3.6 4.8 5 8.9 7 12.6 9.8 18 1.6 3 3.1 5.7 3.4 6s1.5 2.3 2.7 4.5a668 668 0 0 0 13.1 23.5l4.2 7.5 4.5 8 16.3 29 8 14h70.7l5.8-11 15.6-30 15.3-29.5 10.9-21c3-5.8 5.7-10.6 6.2-10.8q.6-.5.7-1.8c0-2 4.5-9.6 5.6-9.5.5.1 1.2 23.3 1.6 57.3.4 31.5 1 71.8 1.4 89.5l.6 32.3H588l-.2-164.3-.3-164.2-43.5-.3c-23.9-.1-44.5 0-45.6.3-1.3.3-3.2 2.5-4.8 5.7a5318.5 5318.5 0 0 0-21.4 39.8l-27.4 51-7.3 13.5-7.8 14.5-13.8 26-3.9 7c-.3.3-1.6 2.7-3 5.5-5 10.2-6.5 11.1-9.3 5.7l-4-7.5-5.2-9.2-4.9-8.8-5.3-9.7-21.3-38.5-26-47-5.6-10.3-5-9-10-18-4.6-8-2-3.2H219zm2243-1.5-40.5.5.1 58.5c.1 119.8 1.6 267.5 2.8 268.2 1.3.9 76.7 1.1 79 .2 1.4-.5 1.6-5.8 1.6-49.5V1983h32.6c19.6 0 33.3.4 34.4 1 1 .5 2.5 2.2 3.3 3.7.7 1.6 2.6 4.9 4 7.5l5.1 9 4.6 8.3 4.4 8c1.2 2.2 2.3 4.2 2.6 4.5s1.5 2.3 2.7 4.5a617 617 0 0 0 12.4 22.2l4.7 8.3a180 180 0 0 0 12.6 21.2c1.7 1.2 89.4 1 90.1-.2.3-.5-1.2-3.9-3.5-7.6l-4-6.9c0-.2-2.2-4-5-8.5s-5-8.3-5-8.5l-4-6.9c-2.2-3.6-4-7-4-7.6q0-.9-.9-1-.8-.2-1.5-1.8c-.3-.9-1.4-3.1-2.3-4.7a108 108 0 0 1-9.3-16.6q0-.8-.9-.9-.8-.2-1.4-1.8a43 43 0 0 0-4.7-8.2c-.5-.5-1-1.3-5.2-8.9-1.1-2-2.9-4.8-4-6.3-1-1.5-2-4-2.1-5.4-.2-2.4.4-2.8 7.4-5.3 4.2-1.5 9.9-4.2 12.6-5.9a82 82 0 0 0 16.8-15.9 79 79 0 0 0 10.5-23.8c.5-1.1 1.1-3.4 1.5-5l1.6-7.5c5.1-24.2 4.3-87.9-1.3-104.5-4.9-14.5-15.4-32.4-22.7-38.7a56 56 0 0 0-8.8-5.9 17 17 0 0 1-5.1-3.2q-.4-.7-1.8-.7c-.8 0-2.2-.4-3.2-.9a49 49 0 0 0-15.7-4.8c-1.6-.3-3.6-1-4.3-1.6-2.1-1.6-110.1-2.6-186.2-1.7m150.5 66.3c6.3 1.9 9.9 4.5 13.1 9.6 2.7 4.3 2.9 5.5 3.6 18.1.4 7.4.5 22.7.2 33.9l-.4 20.5-3.1 5c-2.9 4.9-8.4 9.6-11.2 9.6a4 4 0 0 0-2.3 1c-.7.7-19.3.9-54 .8l-52.9-.3-.3-48.5c-.1-26.7 0-49.1.3-49.8.6-1.7 101.2-1.7 107 .1m-1867.8-65.6c-.4.3-.7 74.6-.7 165V2084h116c65.9 0 116.9-.4 118.2-.9l6.8-2.1a76.8 76.8 0 0 0 54-59c.8-4 1-42 .8-136.5l-.3-131-40.5-.2a577 577 0 0 0-41.8.5c-1 .7-1 14.2-.2 68.8.5 37.3 1 93.2 1 124.1 0 53.2-.1 56.4-1.9 60.5a27 27 0 0 1-9.8 11.6l-3.1 2.2-58.9-.2-58.8-.3v-267l-40.1-.3c-22-.1-40.3.1-40.7.5m449.5.1c-1 .7-1.2 34.1-1 163.8l.3 162.9 129 .3c71 .1 130 0 131.3-.3l2.2-.5v-61h-87.8c-67 0-88.1-.3-89-1.2-1.7-1.7-1.7-69.4 0-70.4.6-.4 32-.6 69.8-.5l68.7.2.7-32.1c.4-17.7.4-32.5.1-32.9s-31.6-.8-69.3-1.1l-68.7-.5-.3-30.9c-.2-24.1.1-31.1 1-31.8.7-.4 39.6-.8 86.5-.8 46.8 0 85.8-.3 86.7-.6 1.4-.5 1.6-4.2 1.6-31.4s-.2-30.9-1.6-31.4c-2.4-.9-258.7-.7-260.2.2m369.1-.1q-1.2.4-.4 2.1a76 76 0 0 1 4.1 10.2l2 5.5 2 5.5 2.2 6c1.5 3.6 2.4 6 3.8 10l2 5.5 2.8 7.5 5 13.5 12.7 34 12.7 34 5 13.5 2.8 7.5 2 5.5 2.2 6c1.5 3.6 2.4 6 3.8 10l2 5.5 2 5.5 2.1 5.7 1.8 4.5 2.1 5.8c1.5 4.2 2.9 7.9 4.1 10.2.5 1 .9 2.5.9 3.3s.4 2.3.9 3.3c1.2 2.3 2.6 6 4.1 10.2l2 5.5 2 5.5 2.1 5.7 1.8 4.5 2.1 5.8 2.1 5.7 1.8 4.5 2.1 5.8 2 5.5 3 8 3 8 2.8 7.5c6.2 16.7 8.5 22.6 9.4 23.7.8 1 11.4 1.3 46.8 1.3h45.8l1.5-3.3c.9-1.7 4.3-10.4 7.7-19.2a1239 1239 0 0 1 16.1-41.2 23 23 0 0 0 1.9-5.3c0-.6.8-2.9 1.9-5.3l3.1-7.7 2.1-5.8 1.8-4.5c1.1-2.8 2.5-6.5 3.9-9.7l2.2-6 2.2-6 1.8-4.5 3.8-9.5 2.2-6c1.6-4.7 3.1-8.6 5.8-15l3.2-8.5 4.9-12.8 1.9-4.7 3.2-8.5 3.2-8.5c1.3-3 1.5-3.7 6.8-17.5l5-13 19.5-50.5 9.4-24.5 4.1-10.5c3.3-8.8 4.6-12 6.3-15.7.5-1.1.6-2.6.3-3.2-.5-.8-13.8-1.1-44.2-1.1H1814l-1.1 2.7-2 4.8-2.3 6.5-5.6 16-7.9 22.5-9.6 27-6.5 18.5-6 17-6.6 19c-.8 2.5-1.9 5.4-2.4 6.5s-1.8 4.9-3 8.5a66 66 0 0 1-3 8.2c-.6 1-1 2.7-1 3.7 0 1.1-.4 2.2-.8 2.5s-1.4 2.8-2.2 5.6-1.8 5.3-2.2 5.6q-.7.7-.8 2.8c0 1.2-.4 2.6-.8 3.2-.5.5-1.9 4.3-3.2 8.4a46 46 0 0 1-3.2 8.4c-.4.6-.8 1.8-.8 2.8 0 1.8-.4 2.8-2.8 7.5-.7 1.3-1.2 3.2-1.2 4.2 0 1.1-.4 2.3-1 2.6s-1 1.7-1 3-.4 2.7-1 3-1 1.4-1 2.4c0 1.1-.9 2.9-1.9 4.2-1.9 2.3-2 2.3-2.6.4-.4-1.1-1.1-2.8-1.6-3.7s-.9-2.6-.9-3.6q-.1-1.7-.8-2.8c-.5-.5-1.9-4.3-3.2-8.4a46 46 0 0 0-3.2-8.4c-.4-.6-.8-2-.8-3.2s-.4-2.6-1-2.9-1-1.7-1-3-.4-2.6-.8-2.9-1.4-2.8-2.2-5.6-1.8-5.3-2.2-5.6-.8-1.4-.8-2.5c0-1-.4-2.7-1-3.7s-2.8-7.3-5-14.2-4.5-13.4-5-14.5-3-8.1-5.5-15.5l-12.2-35-9.9-29c-1.4-4.1-2.9-8.4-3.4-9.5s-2.3-6.3-4-11.5-3.5-10.4-4-11.5-1.8-4.9-3-8.5a66 66 0 0 0-3-8.2c-.6-1-1-2.7-1-3.7 0-1.1-.4-2.3-1-2.6s-1-1.6-1-2.9c0-4.6.1-4.6-46-4.5-23.9 0-44 .3-44.7.6m459.4 0c-.9.8-.9 322-.1 325l.6 2.3h129.7c99.5 0 130-.3 130.9-1.2s1.2-9.2 1.2-31V2020h-87.8c-67 0-88.1-.3-89-1.2-1.8-1.8-1.7-70.8.1-70.9l69.8.1 68.6.1.5-7.8c.6-8.7 1.1-57.2.6-57.5-.2-.2-31.3-.5-69.3-.8l-69-.5-.3-30.9c-.2-24.1.1-31.1 1-31.8.7-.4 39.6-.8 86.5-.8 46.8 0 85.8-.3 86.7-.6 1.4-.5 1.6-4.2 1.6-31.4s-.2-30.9-1.6-31.4c-2.2-.8-259.9-.8-260.7.1"/><path d="M1143.6 915.6c-1 2.7-.7 661.8.4 663.4.8 1.3 29.7 1.5 250.2 1.5 198 0 250.8-.3 256.8-1.3l13.5-2.3a188 188 0 0 0 42.8-11.8 169 169 0 0 0 25.4-13.1q1.2-.1 1.3-.8c0-.5 1.2-1.5 2.7-2.3a125 125 0 0 0 28-27.7c7-9.2 16.4-27.5 20.2-39.6 5.7-17.7 8.2-30.8 11-58.1.7-6.7 1.1-92.6 1.1-259.8V914h-326.4c-296.7 0-326.4.1-327 1.6m206.8 171.6c1.4 2 1.6 17.8 1.6 149.3 0 116.2-.3 147.5-1.2 148.7-.7.9-3 2.6-5 3.7l-7.5 4.2-8 4.5-8.5 4.8-8 4.5a3380 3380 0 0 1-48.6 27.2 82 82 0 0 1-11.4 5.9c-.6 0-2-.7-3-1.7-1.7-1.5-1.8-8.3-1.8-175.9v-174.3l2.2-1.5c2-1.4 8.4-1.6 50-1.6h47.7zm170.1-.7c4 .8 4.3 5.8 4.3 66 0 31.3.5 69.6 1.1 85 1.4 36.5 1.4 106.5 0 127.5-1.2 18.6-1.6 19.6-8.9 23.7l-7.7 4.4-14 8-8 4.5-8.5 4.8c-2.4 1.3-6.7 3.7-9.6 5.5a46 46 0 0 1-5.8 3.1c-.3 0-1.8.8-3.2 1.8a99 99 0 0 1-9.2 5.4l-15.3 8.7a64 64 0 0 1-10 5.1c-.6 0-1.9-.7-2.9-1.7-1.7-1.5-1.8-8.3-1.8-175.2 0-95.5.4-174.1.8-174.7 2-2.9 5.3-3.1 50.6-2.7 25.3.2 47 .6 48.1.8m172.2 0 3 1.5.6 146.8c.6 165.1 1.4 149.1-7.3 153.9l-14.7 8.5-7.8 4.2-4.5 2.6c-.3.3-2.3 1.5-4.5 2.7q-11.4 6-13 7.3a1601.1 1601.1 0 0 0-27 15.2c-22.5 12.8-21.3 12.3-23.6 10.2-1.9-1.7-1.9-5.5-1.7-176.8l.3-175.1 27-.7 34.5-1.1c22-.9 35.7-.7 38.7.8M218 1755.5c-1 2.7-1.4 320.4-.4 324.3l.6 2.2 42.2-.2 42.1-.3-.4-12c-.7-24.2 1.1-168.6 2.1-168.3.6.2 2.2 2.4 3.6 4.8 5 8.9 7 12.6 9.8 18 1.6 3 3.1 5.7 3.4 6s1.5 2.3 2.7 4.5a668 668 0 0 0 13.1 23.5l4.2 7.5 4.5 8 16.3 29 8 14h70.7l5.8-11 15.6-30 15.3-29.5 10.9-21c3-5.8 5.7-10.6 6.2-10.8q.6-.5.7-1.8c0-2 4.5-9.6 5.6-9.5.5.1 1.2 23.3 1.6 57.3.4 31.5 1 71.8 1.4 89.5l.6 32.3H588l-.2-164.3-.3-164.2-43.5-.3c-23.9-.1-44.5 0-45.6.3-1.3.3-3.2 2.5-4.8 5.7a5318.5 5318.5 0 0 0-21.4 39.8l-27.4 51-7.3 13.5-7.8 14.5-13.8 26-3.9 7c-.3.3-1.6 2.7-3 5.5-5 10.2-6.5 11.1-9.3 5.7l-4-7.5-5.2-9.2-4.9-8.8-5.3-9.7-21.3-38.5-26-47-5.6-10.3-5-9-10-18-4.6-8-2-3.2H219zm2243-1.5-40.5.5.1 58.5c.1 119.8 1.6 267.5 2.8 268.2 1.3.9 76.7 1.1 79 .2 1.4-.5 1.6-5.8 1.6-49.5V1983h32.6c19.6 0 33.3.4 34.4 1 1 .5 2.5 2.2 3.3 3.7.7 1.6 2.6 4.9 4 7.5l5.1 9 4.6 8.3 4.4 8c1.2 2.2 2.3 4.2 2.6 4.5s1.5 2.3 2.7 4.5a617 617 0 0 0 12.4 22.2l4.7 8.3a180 180 0 0 0 12.6 21.2c1.7 1.2 89.4 1 90.1-.2.3-.5-1.2-3.9-3.5-7.6l-4-6.9c0-.2-2.2-4-5-8.5s-5-8.3-5-8.5l-4-6.9c-2.2-3.6-4-7-4-7.6q0-.9-.9-1-.8-.2-1.5-1.8c-.3-.9-1.4-3.1-2.3-4.7a108 108 0 0 1-9.3-16.6q0-.8-.9-.9-.8-.2-1.4-1.8a43 43 0 0 0-4.7-8.2c-.5-.5-1-1.3-5.2-8.9-1.1-2-2.9-4.8-4-6.3-1-1.5-2-4-2.1-5.4-.2-2.4.4-2.8 7.4-5.3 4.2-1.5 9.9-4.2 12.6-5.9a82 82 0 0 0 16.8-15.9 79 79 0 0 0 10.5-23.8c.5-1.1 1.1-3.4 1.5-5l1.6-7.5c5.1-24.2 4.3-87.9-1.3-104.5-4.9-14.5-15.4-32.4-22.7-38.7a56 56 0 0 0-8.8-5.9 17 17 0 0 1-5.1-3.2q-.4-.7-1.8-.7c-.8 0-2.2-.4-3.2-.9a49 49 0 0 0-15.7-4.8c-1.6-.3-3.6-1-4.3-1.6-2.1-1.6-110.1-2.6-186.2-1.7m150.5 66.3c6.3 1.9 9.9 4.5 13.1 9.6 2.7 4.3 2.9 5.5 3.6 18.1.4 7.4.5 22.7.2 33.9l-.4 20.5-3.1 5c-2.9 4.9-8.4 9.6-11.2 9.6a4 4 0 0 0-2.3 1c-.7.7-19.3.9-54 .8l-52.9-.3-.3-48.5c-.1-26.7 0-49.1.3-49.8.6-1.7 101.2-1.7 107 .1m-1867.8-65.6c-.4.3-.7 74.6-.7 165V2084h116c65.9 0 116.9-.4 118.2-.9l6.8-2.1a76.8 76.8 0 0 0 54-59c.8-4 1-42 .8-136.5l-.3-131-40.5-.2a577 577 0 0 0-41.8.5c-1 .7-1 14.2-.2 68.8.5 37.3 1 93.2 1 124.1 0 53.2-.1 56.4-1.9 60.5a27 27 0 0 1-9.8 11.6l-3.1 2.2-58.9-.2-58.8-.3v-267l-40.1-.3c-22-.1-40.3.1-40.7.5m449.5.1c-1 .7-1.2 34.1-1 163.8l.3 162.9 129 .3c71 .1 130 0 131.3-.3l2.2-.5v-61h-87.8c-67 0-88.1-.3-89-1.2-1.7-1.7-1.7-69.4 0-70.4.6-.4 32-.6 69.8-.5l68.7.2.7-32.1c.4-17.7.4-32.5.1-32.9s-31.6-.8-69.3-1.1l-68.7-.5-.3-30.9c-.2-24.1.1-31.1 1-31.8.7-.4 39.6-.8 86.5-.8 46.8 0 85.8-.3 86.7-.6 1.4-.5 1.6-4.2 1.6-31.4s-.2-30.9-1.6-31.4c-2.4-.9-258.7-.7-260.2.2m369.1-.1q-1.2.4-.4 2.1a76 76 0 0 1 4.1 10.2l2 5.5 2 5.5 2.2 6c1.5 3.6 2.4 6 3.8 10l2 5.5 2.8 7.5 5 13.5 12.7 34 12.7 34 5 13.5 2.8 7.5 2 5.5 2.2 6c1.5 3.6 2.4 6 3.8 10l2 5.5 2 5.5 2.1 5.7 1.8 4.5 2.1 5.8c1.5 4.2 2.9 7.9 4.1 10.2.5 1 .9 2.5.9 3.3s.4 2.3.9 3.3c1.2 2.3 2.6 6 4.1 10.2l2 5.5 2 5.5 2.1 5.7 1.8 4.5 2.1 5.8 2.1 5.7 1.8 4.5 2.1 5.8 2 5.5 3 8 3 8 2.8 7.5c6.2 16.7 8.5 22.6 9.4 23.7.8 1 11.4 1.3 46.8 1.3h45.8l1.5-3.3c.9-1.7 4.3-10.4 7.7-19.2a1239 1239 0 0 1 16.1-41.2 23 23 0 0 0 1.9-5.3c0-.6.8-2.9 1.9-5.3l3.1-7.7 2.1-5.8 1.8-4.5c1.1-2.8 2.5-6.5 3.9-9.7l2.2-6 2.2-6 1.8-4.5 3.8-9.5 2.2-6c1.6-4.7 3.1-8.6 5.8-15l3.2-8.5 4.9-12.8 1.9-4.7 3.2-8.5 3.2-8.5c1.3-3 1.5-3.7 6.8-17.5l5-13 19.5-50.5 9.4-24.5 4.1-10.5c3.3-8.8 4.6-12 6.3-15.7.5-1.1.6-2.6.3-3.2-.5-.8-13.8-1.1-44.2-1.1H1814l-1.1 2.7-2 4.8-2.3 6.5-5.6 16-7.9 22.5-9.6 27-6.5 18.5-6 17-6.6 19c-.8 2.5-1.9 5.4-2.4 6.5s-1.8 4.9-3 8.5a66 66 0 0 1-3 8.2c-.6 1-1 2.7-1 3.7 0 1.1-.4 2.2-.8 2.5s-1.4 2.8-2.2 5.6-1.8 5.3-2.2 5.6q-.7.7-.8 2.8c0 1.2-.4 2.6-.8 3.2-.5.5-1.9 4.3-3.2 8.4a46 46 0 0 1-3.2 8.4c-.4.6-.8 1.8-.8 2.8 0 1.8-.4 2.8-2.8 7.5-.7 1.3-1.2 3.2-1.2 4.2 0 1.1-.4 2.3-1 2.6s-1 1.7-1 3-.4 2.7-1 3-1 1.4-1 2.4c0 1.1-.9 2.9-1.9 4.2-1.9 2.3-2 2.3-2.6.4-.4-1.1-1.1-2.8-1.6-3.7s-.9-2.6-.9-3.6q-.1-1.7-.8-2.8c-.5-.5-1.9-4.3-3.2-8.4a46 46 0 0 0-3.2-8.4c-.4-.6-.8-2-.8-3.2s-.4-2.6-1-2.9-1-1.7-1-3-.4-2.6-.8-2.9-1.4-2.8-2.2-5.6-1.8-5.3-2.2-5.6-.8-1.4-.8-2.5c0-1-.4-2.7-1-3.7s-2.8-7.3-5-14.2-4.5-13.4-5-14.5-3-8.1-5.5-15.5l-12.2-35-9.9-29c-1.4-4.1-2.9-8.4-3.4-9.5s-2.3-6.3-4-11.5-3.5-10.4-4-11.5-1.8-4.9-3-8.5a66 66 0 0 0-3-8.2c-.6-1-1-2.7-1-3.7 0-1.1-.4-2.3-1-2.6s-1-1.6-1-2.9c0-4.6.1-4.6-46-4.5-23.9 0-44 .3-44.7.6m459.4 0c-.9.8-.9 322-.1 325l.6 2.3h129.7c99.5 0 130-.3 130.9-1.2s1.2-9.2 1.2-31V2020h-87.8c-67 0-88.1-.3-89-1.2-1.8-1.8-1.7-70.8.1-70.9l69.8.1 68.6.1.5-7.8c.6-8.7 1.1-57.2.6-57.5-.2-.2-31.3-.5-69.3-.8l-69-.5-.3-30.9c-.2-24.1.1-31.1 1-31.8.7-.4 39.6-.8 86.5-.8 46.8 0 85.8-.3 86.7-.6 1.4-.5 1.6-4.2 1.6-31.4s-.2-30.9-1.6-31.4c-2.2-.8-259.9-.8-260.7.1"/></svg>