<svg xmlns="http://www.w3.org/2000/svg" viewBox="0 0 3000 3000"><path fill="#fff" d="M503.8 1294c-26 4.7-47 23.4-53.9 48-1.9 6.9-1.6 27.2.5 35 9.5 35 49.1 56 83.5 44.3a65.5 65.5 0 0 0-1.2-124.8 69 69 0 0 0-28.9-2.5m26.2 32.7a36 36 0 0 1 9.6 57.7 36.3 36.3 0 0 1-62.4-22.8A35 35 0 0 1 498 1326q15.1-7.8 32 .7M962 1513v167h44v-124h26.3c48.2 0 72.1-4.2 94.7-16.7 7.3-4.1 20.9-14.4 25.6-19.4 11.9-13 22.4-33 25.4-48.5 1.8-9.5 2.4-30 1.1-41.3a86 86 0 0 0-49.6-69.3c-24.7-12.4-43.5-14.8-117.7-14.8H962zm105-128c20 1.4 30.8 4.7 43.4 12.9 15.7 10.2 23.8 27.5 23.8 50.6 0 18.5-4.6 31.7-15.2 44.3-16.5 19.7-38.5 25.8-91 25l-21.5-.3-.3-65.5c-.1-36 0-66.1.3-66.8.6-1.5 40.1-1.7 60.5-.2m243.4-37.9-2.4 6.8c-1 3.1-3.9 11.2-6.5 18.1l-6 16.5c-.8 2.2-5.2 14.6-10 27.5s-9.2 25.3-10 27.5l-6 16.5-7 19-6 16.5-8.5 23.5-10 27.5c-2.9 7.7-5.8 15.8-6.5 18l-6 16.5-7 19-6 16.5c-5.6 15.1-9.7 26.3-16 44-3.1 8.8-6.1 16.8-6.6 17.7-.9 1.7.4 1.8 21.9 1.8h22.8l2.1-6.3 8.3-23.7 14.5-41.5 4.7-13.3 3.1-8.2h144.3l6.1 17.2 16.4 46.5 10.2 29.3h23.4c15.8 0 23.3-.3 23.3-1.1 0-.5-3.1-9.4-7-19.7l-17.6-48.2-15.6-43-6.3-17.5-6-16.5-7-19-5.8-16-8.2-22.5c-7.8-21.8-11.5-31.8-13.2-36l-4.4-12c-5-14.4-7.7-21.8-12.4-34.5l-9.5-26-6.5-17.8-1.7-4.2h-29.3c-20.4 0-29.6.3-30.1 1.1m35.2 55 7.4 20.9 6 17 9.7 27 8.8 24.5a1592 1592 0 0 1 19.5 56.2c0 1-12.1 1.3-58 1.3-36.5 0-58-.4-58-1s.9-3.3 2.1-6.2l3.9-10.8c2.7-8.1 7-20.1 15-42l27-75.5 9.6-26.4q.5-1.3.9-.9c.2.2 3 7.4 6.1 15.9M1543 1513v167h220v-39l-87.7-.2-87.8-.3-.3-61.8-.2-61.7h176l-.2-19.8-.3-19.7-87.8-.3-87.7-.2.2-45.8.3-45.7 87.8-.3 87.7-.2v-39h-220zm777.5-157.8-6.3 9.9c-.7 1.8 6.5.9 7.9-1l7-8.7c7.9-9.8 7.8-9.4 2.2-9.3h-4.8zm-173.5 37.3v44.5h10v-89h-10zm-154-41.5c-2.4 2.4-2.6 6.3-.4 8.4 2 2 7.8 2.1 9.4.1 2-2.4 1.5-6.7-1-8.7q-4.3-3.5-8 .2m-118 44v42h8.9l.3-15.8.3-15.7 11-.6c12.4-.7 16.4-2 22.3-7.3 6-5.5 8.5-12.2 8-21.6-.4-6.4-.9-8.4-3.4-12.1-6-8.9-12.1-10.9-33.4-10.9h-14zm32.5-30.9c8.6 4.4 11.2 14.7 6 23.6-3.7 6.2-7.1 7.6-19.2 8.1l-10.3.4v-16.4c0-11.8.4-16.8 1.3-17.7 2.1-2.2 16.6-.9 22.2 2m41 13.8c-13.1 5.9-15 20.7-3.7 28 2.6 1.6 7.7 4.1 11.3 5.6 8.6 3.4 11.1 6 10.7 11a7 7 0 0 1-3.1 5.9c-4.2 3.1-13.4 2.8-20.9-.7l-5.8-2.6v5c0 4.5.3 5.1 2.8 6.1a58 58 0 0 0 23.2.8c8.8-2.1 14-8.1 14-16.2s-4-12.1-18-17.9q-17.3-6.9-9.6-15.6c2.1-2.4 3.2-2.8 9.3-3.1 4.8-.3 8 .1 10.7 1.2l4.2 1.6c.2 0 .4-2 .4-4.5 0-4-.3-4.7-2.6-5.5a47 47 0 0 0-22.9.9m85.8.6a28 28 0 0 0-16.2 23.1c-2.2 15.2 2.4 27.1 12.8 33.2 4.2 2.4 5.5 2.7 14.6 2.7a43 43 0 0 0 13.3-1.4c2.9-1.2 3.2-1.7 3.2-5.7 0-2.4-.2-4.4-.5-4.4s-2.3.9-4.3 1.9c-6 3-10.5 3.5-16 1.7-11.6-3.9-16.9-17-12.7-31.3 1.9-6.3 8.5-12.8 14-13.9 5.1-.9 14.2.2 17.1 2.1l2.4 1.5v-4.9c0-4.6-.2-5-3.1-6-1.8-.6-6.9-1.1-11.4-1.1-6.7 0-9 .4-13.2 2.5m55.7-.4c-11.7 5.3-17.7 16.6-16.8 31.7 1.1 18.4 11.3 28.2 29 28.2 9.2 0 14.3-1.7 19.7-6.6 7.2-6.5 9.5-12.5 9.6-24.9 0-8.9-.3-10.6-2.7-15.5a26 26 0 0 0-12.3-12.9c-5.6-2.9-20-3-26.5 0m23.7 8.5q9.9 7.3 7.9 25.6c-1 9.5-4.8 14.7-12.8 17.4-5.9 1.9-10.5 1.3-16.7-2.3-13.2-7.7-12.6-34.2.9-41.1 5.8-3 16.4-2.8 20.7.4m75.7-8.2a27 27 0 0 0-14.2 14.8c-6.4 17.2-1.2 34.8 12.3 42.1 3.4 1.9 5.6 2.2 14.5 2.2 9.6 0 10.9-.2 15.1-2.7 9-5.3 13.7-13.5 14.6-25.4 1.1-13.7-4.7-25.8-14.8-30.9a37 37 0 0 0-27.5-.1m22.6 7.4c2 1 4.7 3.7 6.5 6.6 2.8 4.6 3 5.6 3 14.5 0 10.5-1.9 15.9-6.9 19.9-9.1 7.1-24.2 3.7-29.5-6.6a31 31 0 0 1 1.7-28.7c3.7-5.3 8.2-7.5 15.7-7.5 3.7 0 7.3.7 9.5 1.8m47.4-8.2c-5.5 2.7-11.1 9-13.5 15.1a50 50 0 0 0 0 31q6.3 14.3 22.7 14.3c7.1 0 11.2-1.6 16.2-6.3l4.2-4.1v6.1q0 23.2-22.2 23.3c-5.4 0-8.8-.7-13.3-2.5l-6.2-2.5c-.2 0-.3 2-.3 4.6 0 4.3.2 4.6 3.8 6.1a62 62 0 0 0 28.6.9c6.9-2 13.1-7.3 16-13.6 2-4.2 2.1-6.5 2.4-38.8l.3-34.2h-9.1v7.2l-3.6-3.2a27 27 0 0 0-6.1-4.1c-3.9-1.5-16.4-1-19.9.7m21.7 8.7c5.8 3.9 7.9 8.9 7.9 18.7 0 11.2-1.3 15.7-6.1 20.2-4.9 4.7-10.8 6.4-16.1 4.9-8.8-2.7-13.8-10.6-13.8-22 0-10.6 4-19.4 10.2-22.4 5-2.5 13.7-2.2 17.9.6m76.9-9.4c-1.4.5-4 1.6-5.8 2.5-3 1.5-3.2 2-3.2 6.8v5.1l2.3-2.1c3.3-3.1 10.1-5.2 16.9-5.2 5.2 0 6.3.4 8.8 2.8 3.2 3.2 5.1 10.9 3 12.2a43 43 0 0 1-8.9 1.5c-16 1.4-23 4.7-26.3 12.2-2.5 5.7-2.1 14.1.8 18 3.7 4.9 6.8 6.5 13.8 7 7.9.7 14.3-1.4 18-5.8 1.4-1.6 2.7-2.9 3-2.9s.6 1.8.6 4v4h10v-19.9c0-21.8-.9-28.9-4.2-33.8-3.8-5.5-8.4-7.3-17.9-7.2a60 60 0 0 0-10.9.8m23 34.8c0 5.2-2.6 11.8-5.6 14.5-3.4 3-9.5 5-13 4.3-1.9-.3-4.7-1.7-6.4-3.1-2.5-2.1-3-3.3-3-6.9 0-5.8.7-7.3 4.3-9.2a75 75 0 0 1 20.5-4.2c3.2-.1 3.2-.1 3.2 4.6m-389-4.7v30h10v-60h-10zm326 0v30h10v-60h-10zm115.3-28.8 14.2 36.3 6.5 16.7c2.5 5.9 2.5 5.6-.5 12.2-1.4 3-2.5 5.9-2.5 6.3 0 .5-1.5 2.4-3.4 4.2-3 2.9-3.9 3.3-8 3l-4.6-.4v8.5h5.5c6.7 0 10.2-1.6 14.7-6.9 3-3.6 9.2-16.6 13.1-27.6l10.4-26.5c12-29.8 11.5-27 5.5-27h-4.9l-1.6 5c-.9 2.7-4.5 12.8-8 22.2l-7.5 20.3q-1 3-1.5 1.5l-15.1-42.5-2.2-6-5.3-.3c-4.1-.2-5.2 0-4.8 1M347 1424.4v14.3l13.3.6c66.4 3.1 123.5 32.4 136.1 69.9l2.6 7.7v100.8l-5.2-.4a227 227 0 0 1-71.8-17.6 237 237 0 0 1-134.5-151l-2.8-9.7h-14.9c-13.8 0-14.9.1-14.4 1.7l3 11.8c8 31.8 26.6 68.3 49.3 96.5a294 294 0 0 0 44.8 43.7 270 270 0 0 0 135.5 53.4c16 1.4 53.5.5 65-1.5a274 274 0 0 0 99.7-37 277 277 0 0 0 71.6-65.1l4.1-5.5a260.8 260.8 0 0 0 39.2-81.4c5.1-18.1 6.1-16.6-11.1-16.6h-14.4l-1.1 4.2c-9 35-28.6 70.7-53.6 97.8a365 365 0 0 1-22.2 21.8 238 238 0 0 1-79.2 44c-13.2 4.3-34.8 9-45 9.7-4.7.4-9.5.8-10.7 1.1l-2.3.4v-49.7c0-55.4.2-57.1 6.5-68.6 12-21.8 40.9-40.9 78-51.6 18-5.2 43.3-9.1 59.1-9.1h8.4v-29h-5.7c-15.9 0-41.2 3.3-59.8 7.7-29.4 7-55.2 18.4-74.3 32.8-6.6 5-19.7 18-23.5 23.3l-3.2 4.4-2.5-3.4a184 184 0 0 0-9-10.2c-20.9-22-51.2-37.9-89.6-46.9-19-4.5-43.9-7.7-60.1-7.7H347zm2210.6 46.9c-2.8 2-1.8 7.7 1.7 9.7 2.4 1.3 3 1.3 5.5 0 5.3-3 3.3-11-2.8-11a9 9 0 0 0-4.4 1.3m-200.6 3.2q0 2.6-2.4 3.6c-1.9.9-3.6.5-9.4-2a38 38 0 0 0-9.6-3.1c-3.9 0-8.7 4.8-9.6 9.8-.7 4.1-.7 4.2 2 4.2 2.1 0 2.9-.6 3.4-2.5 1.2-4.7 4.4-5.1 12.4-1.6s10.8 3.8 14.1 1.5a16 16 0 0 0 5.1-10.4c0-1.6-.7-2-3-2-2.5 0-3 .4-3 2.5m-461.9 4.7-8.2 21.3-10.9 28.5-7.9 20.5-2.8 7 5 .3c2.7.2 5.3 0 5.7-.5s2.4-5.6 4.5-11.6l3.8-10.7 18.1.2 18.1.3 4.1 11 4.1 11 5.7.3 5.7.3-1.7-3.8-7.9-20.3-10.8-28-8.3-21.7-3.9-10.3h-10zm17.1 32.8 4.3 11.2c.7 1.7-.4 1.8-13.9 1.8-8 0-14.6-.2-14.6-.5 0-.5 7.2-20.6 11.8-32.8l2.6-6.8 3.2 8.8zm815.6-30.3-3.8 1.5v13.8h-10v9h9.8l.4 21.2c.3 17.7.7 21.8 2.1 24.5 2.6 4.9 6.5 6.4 15 6.1l7.2-.3.3-4.2.3-4.2-2.9 1.1q-5 1.8-9.7-1.6c-1.9-1.3-2-2.8-2.3-22l-.3-20.6h15.1v-9h-15v-8.5c0-9.4 0-9.4-6.2-6.8m-756.8 15.2a30 30 0 0 0-19 15 43 43 0 0 0-.4 32.4c2.4 4.5 10 11.4 14.2 12.8a49 49 0 0 0 23.5-.4c3.4-1.5 3.7-1.9 3.7-5.6 0-2.3-.2-4.1-.4-4.1s-2.6.9-5.3 2.1c-6.8 3-15.1 2.2-20.1-1.8-5.3-4.4-7.1-7.2-8.2-13.6-3.7-20 11.2-34.6 28.8-27.9l5.2 2v-4.8c0-3.6-.4-4.9-1.7-5.4a68 68 0 0 0-20.3-.7m55 .4c-13 3.7-20.1 14.4-20.3 30.2-.1 11 2.1 17.2 8.4 23.5 5.7 5.7 10.1 7.3 20.4 7.4 10.3 0 15.1-1.7 21.2-7.8 6.7-6.7 8.7-13 8.1-26-.6-13.6-4.7-20.9-14.2-25.8-5-2.5-17.3-3.3-23.6-1.5m16.1 7.8c7.4 2.5 11.9 9.7 12.7 20 .8 11.5-3.4 20.5-11.2 24a20 20 0 0 1-24.8-7.1 32 32 0 0 1 .8-30.1c2.3-3.3 5.2-5.3 10.4-7.2a24 24 0 0 1 12.1.4m60.3-8c-1.8.5-5 2.7-7.3 5l-4.1 4.1v-9.2h-9v60h8.9l.3-20.8c.3-18.6.5-21.1 2.3-24.1 6-10.2 18.8-10.5 23.9-.6 1.9 3.6 2.1 6.1 2.4 24.7l.3 20.8h8.8l.3-20.3c.3-18.1.5-20.6 2.4-24.1 3.1-5.9 6.5-8.1 12.9-8.1 3.9 0 5.9.5 7.5 2 4.7 4.2 5.4 7.7 5.8 29.7l.4 20.8h9l-.4-23.3c-.3-21.4-.5-23.5-2.5-27.2-3.9-7.3-9.1-10.5-17.3-10.5-6.4 0-10.8 1.9-15.6 6.8q-4.6 4.5-5.2 3.4c-.9-2.7-5.7-7.5-8.9-8.8a25 25 0 0 0-14.9-.3m106.3.3a24 24 0 0 0-10.4 7.6l-2.2 2.5-.1-5.3v-5.2h-10v88h10v-35.2l3.9 3.5c6.6 6 18.9 6.9 28 2.3 15.4-8 18.6-42.3 5-53.9a25 25 0 0 0-24.2-4.3m12 7.7c7.7 2.9 11.8 11.5 11.1 23.3-.9 13.6-7 21.6-17.1 22.3-6.3.5-10.8-1.6-15.1-7-2.9-3.7-3.1-4.5-3.4-13.8-.4-9.1-.2-10.5 2.2-15.3 2.7-5.4 5.7-8.2 10.5-9.6 3.8-1.2 8.6-1.1 11.8.1m49.3-8.2c-1.9.4-5.2 1.5-7.2 2.5-3.6 1.7-3.8 2.1-3.8 6.7v4.8l3.5-2.3c7.8-5.3 20.1-5.9 24.2-1.1 2.7 3.1 5 10.2 3.7 11.4-.5.5-6 1.5-12.2 2.4-18.9 2.6-24.4 6.7-25 18.7-.4 7.7 1.6 12.3 6.5 15.6 7.3 4.8 20.9 3.5 26.8-2.6 3.7-3.9 4.5-3.8 4.5.5 0 3.5 0 3.5 4.6 3.5h4.5l-.3-23.8c-.3-22.2-.4-24-2.5-27.8-3.3-6.1-8-8.7-16.7-9-3.9-.2-8.7.1-10.6.5m20.8 34.1c1.4 13.9-13.4 24.8-23.8 17.7a10 10 0 0 1-1.7-15.4q2-2.2 9.1-3.7c15.3-3.3 16-3.2 16.4 1.4m51-33.9c-2 .6-5.6 2.8-7.9 5a43 43 0 0 1-4.6 3.9c-.1 0-.3-2-.3-4.5v-4.5h-9v60h8.9l.3-20.4.3-20.4 3-4.4c7.4-10.5 20.7-10.2 25.5.5 1.7 3.7 2 6.6 2 24.4v20.3h9.1l-.3-23.8c-.3-23.1-.4-23.8-2.8-28a20 20 0 0 0-5.7-6.3 29 29 0 0 0-18.5-1.8m59.9-.2c-2 .4-5.3 1.6-7.2 2.7-3.2 1.7-3.5 2.2-3.5 6.6v4.7l3.5-2.3c7.4-5.1 19.5-5.8 24-1.6 2.5 2.3 5.1 10.8 3.8 12-.4.4-5.9 1.4-12.2 2.3-14.4 2-19.7 4.5-22.8 10.7-4.4 8.5-2.4 19.1 4.4 23.6a27 27 0 0 0 18 2.4c3.4-.8 6-2.3 9.1-5.3l4.2-4.1v8.4h9v-22.3c-.1-26.4-.9-30.4-7.6-35-3.4-2.3-5.3-2.9-11.5-3.2-4.1-.2-9.1 0-11.2.4m21.3 33.8c0 11.6-7.2 20.3-16.7 20.3-8.4 0-13.9-7.2-10.9-14.3 1.8-4.5 5.2-6.2 15.2-8.1 12.4-2.2 12.4-2.2 12.4 2.1m48.5-32.8c-2.3 1-5.3 3.2-6.7 4.9-3 3.6-3.8 3.2-3.8-2v-3.8h-9v60h9v-18.1c0-20.5.9-25.3 5.4-30.2 5.3-5.8 12.8-6.2 18.7-.9 4.2 3.8 4.8 7.7 4.9 29.9v19.3h8.9l.3-20.3c.3-21.8.6-23.3 6.3-28.9 5.6-5.6 16.1-4.5 20 2.2 1.8 3.2 2 5.5 2.3 25.2l.4 21.8h8.8v-45.8l-2.8-5.3c-3.8-7.4-7.6-9.4-17.2-9.4-6.5 0-8 .4-11.5 2.7a24 24 0 0 0-5.9 5.9l-1.8 3.1-1.8-2.9a19 19 0 0 0-24.5-7.4m131.6-.8a29 29 0 0 0-18.2 19.2c-.6 2.7-1 9-.7 14.9.3 9.4.6 10.8 3.4 15.3q9.1 15 30.5 11.5c10.3-1.6 13.3-3.5 13.7-8.8.2-2.3.1-4.2-.2-4.2l-6.8 3c-7.6 3.6-14.9 4-20.6 1.1-6.5-3.3-9.1-7.2-10.6-15.4l-.7-3.7h43.3l-.7-6.8c-.3-3.7-1.3-9.1-2.2-11.9-3.5-11.8-16.7-18-30.2-14.2m14.4 8.6c4.1 2 7.2 6.7 8.1 12.4l.7 3.9h-16.2c-17.8 0-17.6.1-15-6.7 3.4-9.1 14-13.6 22.4-9.6m55.8-8.6a23 23 0 0 0-7.4 4.9c-2.3 2.2-4.4 4-4.6 4s-.3-2-.3-4.5v-4.5h-9v60h9v-18.3c0-21 1-25.8 6.5-30.6a18 18 0 0 1 15.1-3.4c1.5.5 4.2 2.6 5.8 4.7l3.1 3.8.3 21.9.3 21.9h10.1l-.4-22.3-.3-22.3-3-5.9c-2.3-4.6-4-6.4-7.4-8.2a26 26 0 0 0-17.8-1.2m105.7.2a28 28 0 0 0-19.2 19.1 49 49 0 0 0 .7 24.6 28 28 0 0 0 16.2 16.1 50 50 0 0 0 22.7-.1c4.9-1.6 10.9-7 14.4-12.9 2.3-4 2.7-5.9 3-14.7.3-7.6 0-11.5-1.2-15.2a29 29 0 0 0-12.9-15.3 43 43 0 0 0-23.7-1.6m16.7 8.2c8.5 3.6 11.2 9 11.3 22.3 0 12.8-2.7 18.1-11.3 21.7-8.8 3.7-18.9.4-24.1-7.9-5.8-9.2-4.4-24.8 3-32.1 5.3-5.3 14-7 21.1-4M2557 1527v30h9v-60h-9zm-2336 32.6c0 1.7 13.6 23.6 20.9 33.4 43 58.3 112.8 101.4 191.1 118a384 384 0 0 0 156.5.9 341 341 0 0 0 143.5-65.5 280 280 0 0 0 71-83.3l2-4.1h-32.8l-5.7 8.6a260 260 0 0 1-78.5 74.6 330 330 0 0 1-132 46 381 381 0 0 1-111-3.8c-26-5.9-36-8.7-52.5-14.9a280 280 0 0 1-103.6-65.3 217 217 0 0 1-30.4-36.5l-5.8-8.7h-16.4c-8.9 0-16.3.3-16.3.6m2184 73.9v44.5h9v-89h-9zm-233.8-41.9q-2.2 1.4-2.2 4.8c0 4 1.5 5.6 5.5 5.6 5.8 0 8.5-6 4.5-10q-3.5-3.6-7.8-.4M1875 1636v42h44v-9h-35v-14.4c0-12.2.2-14.5 1.6-15 .9-.3 7.8-.6 15.5-.6h13.9v-7.9l-15.2-.3-15.3-.3v-27l16.3-.3 16.2-.2v-9h-42zm78.8-17c-2 1.1-4.8 3.4-6.2 5.2l-2.6 3.3v-9.5h-9v60h8.8l.4-20.3c.5-21.4 1-24.2 5.6-29 5-5.2 14.5-5.4 18.9-.3 3.6 4.2 4.3 9 4.3 29.8v19.8h9v-17.5c0-20 .9-25.8 5-30.7 5-6.1 15-6.8 19.7-1.4 3.6 4.2 4.3 9 4.3 29.8v19.8h9v-21.8c0-23.1-.7-27.7-4.6-33-3.6-4.7-7.3-6.2-14.9-6.2-8.1 0-12.3 1.8-16.9 7.2l-3.4 3.9-2-3.6c-3.2-5.4-7.5-7.5-15.2-7.5q-6.5.1-10.2 2m98.1 1.2c-10.3 5.4-14.9 14.3-14.9 28.9 0 3.3.5 7.9 1.1 10.2a30 30 0 0 0 12.6 16.4c4.4 2.6 5.6 2.8 15.3 2.8 11.8 0 14.7-1 21.3-7.3 6.7-6.5 10.1-20.2 7.7-31.7a27 27 0 0 0-8.6-16.5c-5.6-4.9-9.2-6-19.3-6-8.1 0-9.5.3-15.2 3.2m23.7 6.3c3.9 1.6 7.9 6.7 9.3 12 2.5 9 .7 21.7-3.8 26.9-5.1 5.9-16.3 7.7-23.8 3.8-6.7-3.5-9.5-8.7-10.1-18.3-.5-9.4.9-15.2 4.8-19.6 6.1-6.8 14.4-8.5 23.6-4.8m49.5-6.9c-10.9 5.5-16.5 16.5-15.9 31.2.5 13 5.3 21.1 15.3 25.8 6 2.9 16.4 3.2 24.3.9l5.2-1.6v-4.5c0-4-.2-4.5-1.7-3.9-11.1 4.8-16.1 5.1-23.5 1.4-7.7-3.9-12.1-15.5-9.8-26.2 1.4-6.9 6.6-14.1 11.8-16.3a25 25 0 0 1 18.5.4l4.7 2.1v-4.9c0-4.5-.2-4.9-3.1-5.9-1.8-.6-7.1-1.1-11.9-1.1-7.3 0-9.4.4-13.9 2.6m88.4-.7c-14.6 6.6-20.9 23.8-15.4 42.2a31 31 0 0 0 15.6 16.3 48 48 0 0 0 22.6.3 29 29 0 0 0 15.4-13.7c2.6-5 2.8-6.5 2.8-16.5 0-9.2-.4-11.8-2.2-15.8a27 27 0 0 0-12.8-12.8 44 44 0 0 0-26 0m22.8 8.4q3.8 2 6.2 7.1c6.4 13.3 2.8 29.8-7.9 35.3-4 2.1-13.2 2.1-17.2 0-3.9-2-9.1-7.9-10.1-11.5-1.4-5-.8-19.5.9-22.7 2.6-4.9 7.4-8.7 12.5-10 5.8-1.5 10.5-.9 15.6 1.8m54.5-8.3c-2 1.1-4.8 3.4-6.2 5.2l-2.6 3.3v-9.5h-10l.2 29.7.3 29.8 4.8.3 4.7.3v-19.6c0-20.4.6-24.2 4.8-28.8 4.3-4.8 13.9-6.5 18.7-3.3 5.6 3.7 6 5.3 6.5 29.1l.5 22h9V1654c0-22.9-.1-23.6-2.4-27.7-4-6.9-7.3-8.7-16.6-9.1-6.4-.2-8.7.2-11.7 1.8m61.2-1.1a44 44 0 0 0-5.8 2.5c-2.9 1.5-3.2 2.1-3.2 6.1 0 2.5.2 4.5.4 4.5s2.4-1.1 4.8-2.5c6.2-3.5 13.8-4.8 18.5-3.2 4.5 1.5 8.3 6.6 8.3 11.3 0 3.8.6 3.6-14 5.5-13.5 1.7-19.8 5.2-22.6 12.6-3.5 9.1.7 20.2 8.7 23a34 34 0 0 0 17.6.1c1.5-.6 4.5-2.8 6.6-4.7l3.7-3.5v8.5l4.8-.3 4.7-.3V1654c0-22.4-.1-23.7-2.2-27.7-3.8-7.1-7.3-8.8-18.3-9-5.2-.1-10.6.1-12 .6m23 35.1q0 9.4-5.9 14.3c-9 7.5-22.1 4-22.1-5.9q0-7.3 5.3-9.5a72 72 0 0 1 19-3.8l3.7-.1zm-205-5v30h9v-60h-9z"/><path d="M503.8 1294c-26 4.7-47 23.4-53.9 48-1.9 6.9-1.6 27.2.5 35 9.5 35 49.1 56 83.5 44.3a65.5 65.5 0 0 0-1.2-124.8 69 69 0 0 0-28.9-2.5m26.2 32.7a36 36 0 0 1 9.6 57.7 36.3 36.3 0 0 1-62.4-22.8A35 35 0 0 1 498 1326q15.1-7.8 32 .7M962 1513v167h44v-124h26.3c48.2 0 72.1-4.2 94.7-16.7 7.3-4.1 20.9-14.4 25.6-19.4 11.9-13 22.4-33 25.4-48.5 1.8-9.5 2.4-30 1.1-41.3a86 86 0 0 0-49.6-69.3c-24.7-12.4-43.5-14.8-117.7-14.8H962zm105-128c20 1.4 30.8 4.7 43.4 12.9 15.7 10.2 23.8 27.5 23.8 50.6 0 18.5-4.6 31.7-15.2 44.3-16.5 19.7-38.5 25.8-91 25l-21.5-.3-.3-65.5c-.1-36 0-66.1.3-66.8.6-1.5 40.1-1.7 60.5-.2m243.4-37.9-2.4 6.8c-1 3.1-3.9 11.2-6.5 18.1l-6 16.5c-.8 2.2-5.2 14.6-10 27.5s-9.2 25.3-10 27.5l-6 16.5-7 19-6 16.5-8.5 23.5-10 27.5c-2.9 7.7-5.8 15.8-6.5 18l-6 16.5-7 19-6 16.5c-5.6 15.1-9.7 26.3-16 44-3.1 8.8-6.1 16.8-6.6 17.7-.9 1.7.4 1.8 21.9 1.8h22.8l2.1-6.3 8.3-23.7 14.5-41.5 4.7-13.3 3.1-8.2h144.3l6.1 17.2 16.4 46.5 10.2 29.3h23.4c15.8 0 23.3-.3 23.3-1.1 0-.5-3.1-9.4-7-19.7l-17.6-48.2-15.6-43-6.3-17.5-6-16.5-7-19-5.8-16-8.2-22.5c-7.8-21.8-11.5-31.8-13.2-36l-4.4-12c-5-14.4-7.7-21.8-12.4-34.5l-9.5-26-6.5-17.8-1.7-4.2h-29.3c-20.4 0-29.6.3-30.1 1.1m35.2 55 7.4 20.9 6 17 9.7 27 8.8 24.5a1592 1592 0 0 1 19.5 56.2c0 1-12.1 1.3-58 1.3-36.5 0-58-.4-58-1s.9-3.3 2.1-6.2l3.9-10.8c2.7-8.1 7-20.1 15-42l27-75.5 9.6-26.4q.5-1.3.9-.9c.2.2 3 7.4 6.1 15.9M1543 1513v167h220v-39l-87.7-.2-87.8-.3-.3-61.8-.2-61.7h176l-.2-19.8-.3-19.7-87.8-.3-87.7-.2.2-45.8.3-45.7 87.8-.3 87.7-.2v-39h-220zm777.5-157.8-6.3 9.9c-.7 1.8 6.5.9 7.9-1l7-8.7c7.9-9.8 7.8-9.4 2.2-9.3h-4.8zm-173.5 37.3v44.5h10v-89h-10zm-154-41.5c-2.4 2.4-2.6 6.3-.4 8.4 2 2 7.8 2.1 9.4.1 2-2.4 1.5-6.7-1-8.7q-4.3-3.5-8 .2m-118 44v42h8.9l.3-15.8.3-15.7 11-.6c12.4-.7 16.4-2 22.3-7.3 6-5.5 8.5-12.2 8-21.6-.4-6.4-.9-8.4-3.4-12.1-6-8.9-12.1-10.9-33.4-10.9h-14zm32.5-30.9c8.6 4.4 11.2 14.7 6 23.6-3.7 6.2-7.1 7.6-19.2 8.1l-10.3.4v-16.4c0-11.8.4-16.8 1.3-17.7 2.1-2.2 16.6-.9 22.2 2m41 13.8c-13.1 5.9-15 20.7-3.7 28 2.6 1.6 7.7 4.1 11.3 5.6 8.6 3.4 11.1 6 10.7 11a7 7 0 0 1-3.1 5.9c-4.2 3.1-13.4 2.8-20.9-.7l-5.8-2.6v5c0 4.5.3 5.1 2.8 6.1a58 58 0 0 0 23.2.8c8.8-2.1 14-8.1 14-16.2s-4-12.1-18-17.9q-17.3-6.9-9.6-15.6c2.1-2.4 3.2-2.8 9.3-3.1 4.8-.3 8 .1 10.7 1.2l4.2 1.6c.2 0 .4-2 .4-4.5 0-4-.3-4.7-2.6-5.5a47 47 0 0 0-22.9.9m85.8.6a28 28 0 0 0-16.2 23.1c-2.2 15.2 2.4 27.1 12.8 33.2 4.2 2.4 5.5 2.7 14.6 2.7a43 43 0 0 0 13.3-1.4c2.9-1.2 3.2-1.7 3.2-5.7 0-2.4-.2-4.4-.5-4.4s-2.3.9-4.3 1.9c-6 3-10.5 3.5-16 1.7-11.6-3.9-16.9-17-12.7-31.3 1.9-6.3 8.5-12.8 14-13.9 5.1-.9 14.2.2 17.1 2.1l2.4 1.5v-4.9c0-4.6-.2-5-3.1-6-1.8-.6-6.9-1.1-11.4-1.1-6.7 0-9 .4-13.2 2.5m55.7-.4c-11.7 5.3-17.7 16.6-16.8 31.7 1.1 18.4 11.3 28.2 29 28.2 9.2 0 14.3-1.7 19.7-6.6 7.2-6.5 9.5-12.5 9.6-24.9 0-8.9-.3-10.6-2.7-15.5a26 26 0 0 0-12.3-12.9c-5.6-2.9-20-3-26.5 0m23.7 8.5q9.9 7.3 7.9 25.6c-1 9.5-4.8 14.7-12.8 17.4-5.9 1.9-10.5 1.3-16.7-2.3-13.2-7.7-12.6-34.2.9-41.1 5.8-3 16.4-2.8 20.7.4m75.7-8.2a27 27 0 0 0-14.2 14.8c-6.4 17.2-1.2 34.8 12.3 42.1 3.4 1.9 5.6 2.2 14.5 2.2 9.6 0 10.9-.2 15.1-2.7 9-5.3 13.7-13.5 14.6-25.4 1.1-13.7-4.7-25.8-14.8-30.9a37 37 0 0 0-27.5-.1m22.6 7.4c2 1 4.7 3.7 6.5 6.6 2.8 4.6 3 5.6 3 14.5 0 10.5-1.9 15.9-6.9 19.9-9.1 7.1-24.2 3.7-29.5-6.6a31 31 0 0 1 1.7-28.7c3.7-5.3 8.2-7.5 15.7-7.5 3.7 0 7.3.7 9.5 1.8m47.4-8.2c-5.5 2.7-11.1 9-13.5 15.1a50 50 0 0 0 0 31q6.3 14.3 22.7 14.3c7.1 0 11.2-1.6 16.2-6.3l4.2-4.1v6.1q0 23.2-22.2 23.3c-5.4 0-8.8-.7-13.3-2.5l-6.2-2.5c-.2 0-.3 2-.3 4.6 0 4.3.2 4.6 3.8 6.1a62 62 0 0 0 28.6.9c6.9-2 13.1-7.3 16-13.6 2-4.2 2.1-6.5 2.4-38.8l.3-34.2h-9.1v7.2l-3.6-3.2a27 27 0 0 0-6.1-4.1c-3.9-1.5-16.4-1-19.9.7m21.7 8.7c5.8 3.9 7.9 8.9 7.9 18.7 0 11.2-1.3 15.7-6.1 20.2-4.9 4.7-10.8 6.4-16.1 4.9-8.8-2.7-13.8-10.6-13.8-22 0-10.6 4-19.4 10.2-22.4 5-2.5 13.7-2.2 17.9.6m76.9-9.4c-1.4.5-4 1.6-5.8 2.5-3 1.5-3.2 2-3.2 6.8v5.1l2.3-2.1c3.3-3.1 10.1-5.2 16.9-5.2 5.2 0 6.3.4 8.8 2.8 3.2 3.2 5.1 10.9 3 12.2a43 43 0 0 1-8.9 1.5c-16 1.4-23 4.7-26.3 12.2-2.5 5.7-2.1 14.1.8 18 3.7 4.9 6.8 6.5 13.8 7 7.9.7 14.3-1.4 18-5.8 1.4-1.6 2.7-2.9 3-2.9s.6 1.8.6 4v4h10v-19.9c0-21.8-.9-28.9-4.2-33.8-3.8-5.5-8.4-7.3-17.9-7.2a60 60 0 0 0-10.9.8m23 34.8c0 5.2-2.6 11.8-5.6 14.5-3.4 3-9.5 5-13 4.3-1.9-.3-4.7-1.7-6.4-3.1-2.5-2.1-3-3.3-3-6.9 0-5.8.7-7.3 4.3-9.2a75 75 0 0 1 20.5-4.2c3.2-.1 3.2-.1 3.2 4.6m-389-4.7v30h10v-60h-10zm326 0v30h10v-60h-10zm115.3-28.8 14.2 36.3 6.5 16.7c2.5 5.9 2.5 5.6-.5 12.2-1.4 3-2.5 5.9-2.5 6.3 0 .5-1.5 2.4-3.4 4.2-3 2.9-3.9 3.3-8 3l-4.6-.4v8.5h5.5c6.7 0 10.2-1.6 14.7-6.9 3-3.6 9.2-16.6 13.1-27.6l10.4-26.5c12-29.8 11.5-27 5.5-27h-4.9l-1.6 5c-.9 2.7-4.5 12.8-8 22.2l-7.5 20.3q-1 3-1.5 1.5l-15.1-42.5-2.2-6-5.3-.3c-4.1-.2-5.2 0-4.8 1M347 1424.4v14.3l13.3.6c66.4 3.1 123.5 32.4 136.1 69.9l2.6 7.7v100.8l-5.2-.4a227 227 0 0 1-71.8-17.6 237 237 0 0 1-134.5-151l-2.8-9.7h-14.9c-13.8 0-14.9.1-14.4 1.7l3 11.8c8 31.8 26.6 68.3 49.3 96.5a294 294 0 0 0 44.8 43.7 270 270 0 0 0 135.5 53.4c16 1.4 53.5.5 65-1.5a274 274 0 0 0 99.7-37 277 277 0 0 0 71.6-65.1l4.1-5.5a260.8 260.8 0 0 0 39.2-81.4c5.1-18.1 6.1-16.6-11.1-16.6h-14.4l-1.1 4.2c-9 35-28.6 70.7-53.6 97.8a365 365 0 0 1-22.2 21.8 238 238 0 0 1-79.2 44c-13.2 4.3-34.8 9-45 9.7-4.7.4-9.5.8-10.7 1.1l-2.3.4v-49.7c0-55.4.2-57.1 6.5-68.6 12-21.8 40.9-40.9 78-51.6 18-5.2 43.3-9.1 59.1-9.1h8.4v-29h-5.7c-15.9 0-41.2 3.3-59.8 7.7-29.4 7-55.2 18.4-74.3 32.8-6.6 5-19.7 18-23.5 23.3l-3.2 4.4-2.5-3.4a184 184 0 0 0-9-10.2c-20.9-22-51.2-37.9-89.6-46.9-19-4.5-43.9-7.7-60.1-7.7H347zm2210.6 46.9c-2.8 2-1.8 7.7 1.7 9.7 2.4 1.3 3 1.3 5.5 0 5.3-3 3.3-11-2.8-11a9 9 0 0 0-4.4 1.3m-200.6 3.2q0 2.6-2.4 3.6c-1.9.9-3.6.5-9.4-2a38 38 0 0 0-9.6-3.1c-3.9 0-8.7 4.8-9.6 9.8-.7 4.1-.7 4.2 2 4.2 2.1 0 2.9-.6 3.4-2.5 1.2-4.7 4.4-5.1 12.4-1.6s10.8 3.8 14.1 1.5a16 16 0 0 0 5.1-10.4c0-1.6-.7-2-3-2-2.5 0-3 .4-3 2.5m-461.9 4.7-8.2 21.3-10.9 28.5-7.9 20.5-2.8 7 5 .3c2.7.2 5.3 0 5.7-.5s2.4-5.6 4.5-11.6l3.8-10.7 18.1.2 18.1.3 4.1 11 4.1 11 5.7.3 5.7.3-1.7-3.8-7.9-20.3-10.8-28-8.3-21.7-3.9-10.3h-10zm17.1 32.8 4.3 11.2c.7 1.7-.4 1.8-13.9 1.8-8 0-14.6-.2-14.6-.5 0-.5 7.2-20.6 11.8-32.8l2.6-6.8 3.2 8.8zm815.6-30.3-3.8 1.5v13.8h-10v9h9.8l.4 21.2c.3 17.7.7 21.8 2.1 24.5 2.6 4.9 6.5 6.4 15 6.1l7.2-.3.3-4.2.3-4.2-2.9 1.1q-5 1.8-9.7-1.6c-1.9-1.3-2-2.8-2.3-22l-.3-20.6h15.1v-9h-15v-8.5c0-9.4 0-9.4-6.2-6.8m-756.8 15.2a30 30 0 0 0-19 15 43 43 0 0 0-.4 32.4c2.4 4.5 10 11.4 14.2 12.8a49 49 0 0 0 23.5-.4c3.4-1.5 3.7-1.9 3.7-5.6 0-2.3-.2-4.1-.4-4.1s-2.6.9-5.3 2.1c-6.8 3-15.1 2.2-20.1-1.8-5.3-4.4-7.1-7.2-8.2-13.6-3.7-20 11.2-34.6 28.8-27.9l5.2 2v-4.8c0-3.6-.4-4.9-1.7-5.4a68 68 0 0 0-20.3-.7m55 .4c-13 3.7-20.1 14.4-20.3 30.2-.1 11 2.1 17.2 8.4 23.5 5.7 5.7 10.1 7.3 20.4 7.4 10.3 0 15.1-1.7 21.2-7.8 6.7-6.7 8.7-13 8.1-26-.6-13.6-4.7-20.9-14.2-25.8-5-2.5-17.3-3.3-23.6-1.5m16.1 7.8c7.4 2.5 11.9 9.7 12.7 20 .8 11.5-3.4 20.5-11.2 24a20 20 0 0 1-24.8-7.1 32 32 0 0 1 .8-30.1c2.3-3.3 5.2-5.3 10.4-7.2a24 24 0 0 1 12.1.4m60.3-8c-1.8.5-5 2.7-7.3 5l-4.1 4.1v-9.2h-9v60h8.9l.3-20.8c.3-18.6.5-21.1 2.3-24.1 6-10.2 18.8-10.5 23.9-.6 1.9 3.6 2.1 6.1 2.4 24.7l.3 20.8h8.8l.3-20.3c.3-18.1.5-20.6 2.4-24.1 3.1-5.9 6.5-8.1 12.9-8.1 3.9 0 5.9.5 7.5 2 4.7 4.2 5.4 7.7 5.8 29.7l.4 20.8h9l-.4-23.3c-.3-21.4-.5-23.5-2.5-27.2-3.9-7.3-9.1-10.5-17.3-10.5-6.4 0-10.8 1.9-15.6 6.8q-4.6 4.5-5.2 3.4c-.9-2.7-5.7-7.5-8.9-8.8a25 25 0 0 0-14.9-.3m106.3.3a24 24 0 0 0-10.4 7.6l-2.2 2.5-.1-5.3v-5.2h-10v88h10v-35.2l3.9 3.5c6.6 6 18.9 6.9 28 2.3 15.4-8 18.6-42.3 5-53.9a25 25 0 0 0-24.2-4.3m12 7.7c7.7 2.9 11.8 11.5 11.1 23.3-.9 13.6-7 21.6-17.1 22.3-6.3.5-10.8-1.6-15.1-7-2.9-3.7-3.1-4.5-3.4-13.8-.4-9.1-.2-10.5 2.2-15.3 2.7-5.4 5.7-8.2 10.5-9.6 3.8-1.2 8.6-1.1 11.8.1m49.3-8.2c-1.9.4-5.2 1.5-7.2 2.5-3.6 1.7-3.8 2.1-3.8 6.7v4.8l3.5-2.3c7.8-5.3 20.1-5.9 24.2-1.1 2.7 3.1 5 10.2 3.7 11.4-.5.5-6 1.5-12.2 2.4-18.9 2.6-24.4 6.7-25 18.7-.4 7.7 1.6 12.3 6.5 15.6 7.3 4.8 20.9 3.5 26.8-2.6 3.7-3.9 4.5-3.8 4.5.5 0 3.5 0 3.5 4.6 3.5h4.5l-.3-23.8c-.3-22.2-.4-24-2.5-27.8-3.3-6.1-8-8.7-16.7-9-3.9-.2-8.7.1-10.6.5m20.8 34.1c1.4 13.9-13.4 24.8-23.8 17.7a10 10 0 0 1-1.7-15.4q2-2.2 9.1-3.7c15.3-3.3 16-3.2 16.4 1.4m51-33.9c-2 .6-5.6 2.8-7.9 5a43 43 0 0 1-4.6 3.9c-.1 0-.3-2-.3-4.5v-4.5h-9v60h8.9l.3-20.4.3-20.4 3-4.4c7.4-10.5 20.7-10.2 25.5.5 1.7 3.7 2 6.6 2 24.4v20.3h9.1l-.3-23.8c-.3-23.1-.4-23.8-2.8-28a20 20 0 0 0-5.7-6.3 29 29 0 0 0-18.5-1.8m59.9-.2c-2 .4-5.3 1.6-7.2 2.7-3.2 1.7-3.5 2.2-3.5 6.6v4.7l3.5-2.3c7.4-5.1 19.5-5.8 24-1.6 2.5 2.3 5.1 10.8 3.8 12-.4.4-5.9 1.4-12.2 2.3-14.4 2-19.7 4.5-22.8 10.7-4.4 8.5-2.4 19.1 4.4 23.6a27 27 0 0 0 18 2.4c3.4-.8 6-2.3 9.1-5.3l4.2-4.1v8.4h9v-22.3c-.1-26.4-.9-30.4-7.6-35-3.4-2.3-5.3-2.9-11.5-3.2-4.1-.2-9.1 0-11.2.4m21.3 33.8c0 11.6-7.2 20.3-16.7 20.3-8.4 0-13.9-7.2-10.9-14.3 1.8-4.5 5.2-6.2 15.2-8.1 12.4-2.2 12.4-2.2 12.4 2.1m48.5-32.8c-2.3 1-5.3 3.2-6.7 4.9-3 3.6-3.8 3.2-3.8-2v-3.8h-9v60h9v-18.1c0-20.5.9-25.3 5.4-30.2 5.3-5.8 12.8-6.2 18.7-.9 4.2 3.8 4.8 7.7 4.9 29.9v19.3h8.9l.3-20.3c.3-21.8.6-23.3 6.3-28.9 5.6-5.6 16.1-4.5 20 2.2 1.8 3.2 2 5.5 2.3 25.2l.4 21.8h8.8v-45.8l-2.8-5.3c-3.8-7.4-7.6-9.4-17.2-9.4-6.5 0-8 .4-11.5 2.7a24 24 0 0 0-5.9 5.9l-1.8 3.1-1.8-2.9a19 19 0 0 0-24.5-7.4m131.6-.8a29 29 0 0 0-18.2 19.2c-.6 2.7-1 9-.7 14.9.3 9.4.6 10.8 3.4 15.3q9.1 15 30.5 11.5c10.3-1.6 13.3-3.5 13.7-8.8.2-2.3.1-4.2-.2-4.2l-6.8 3c-7.6 3.6-14.9 4-20.6 1.1-6.5-3.3-9.1-7.2-10.6-15.4l-.7-3.7h43.3l-.7-6.8c-.3-3.7-1.3-9.1-2.2-11.9-3.5-11.8-16.7-18-30.2-14.2m14.4 8.6c4.1 2 7.2 6.7 8.1 12.4l.7 3.9h-16.2c-17.8 0-17.6.1-15-6.7 3.4-9.1 14-13.6 22.4-9.6m55.8-8.6a23 23 0 0 0-7.4 4.9c-2.3 2.2-4.4 4-4.6 4s-.3-2-.3-4.5v-4.5h-9v60h9v-18.3c0-21 1-25.8 6.5-30.6a18 18 0 0 1 15.1-3.4c1.5.5 4.2 2.6 5.8 4.7l3.1 3.8.3 21.9.3 21.9h10.1l-.4-22.3-.3-22.3-3-5.9c-2.3-4.6-4-6.4-7.4-8.2a26 26 0 0 0-17.8-1.2m105.7.2a28 28 0 0 0-19.2 19.1 49 49 0 0 0 .7 24.6 28 28 0 0 0 16.2 16.1 50 50 0 0 0 22.7-.1c4.9-1.6 10.9-7 14.4-12.9 2.3-4 2.7-5.9 3-14.7.3-7.6 0-11.5-1.2-15.2a29 29 0 0 0-12.9-15.3 43 43 0 0 0-23.7-1.6m16.7 8.2c8.5 3.6 11.2 9 11.3 22.3 0 12.8-2.7 18.1-11.3 21.7-8.8 3.7-18.9.4-24.1-7.9-5.8-9.2-4.4-24.8 3-32.1 5.3-5.3 14-7 21.1-4M2557 1527v30h9v-60h-9zm-2336 32.6c0 1.7 13.6 23.6 20.9 33.4 43 58.3 112.8 101.4 191.1 118a384 384 0 0 0 156.5.9 341 341 0 0 0 143.5-65.5 280 280 0 0 0 71-83.3l2-4.1h-32.8l-5.7 8.6a260 260 0 0 1-78.5 74.6 330 330 0 0 1-132 46 381 381 0 0 1-111-3.8c-26-5.9-36-8.7-52.5-14.9a280 280 0 0 1-103.6-65.3 217 217 0 0 1-30.4-36.5l-5.8-8.7h-16.4c-8.9 0-16.3.3-16.3.6m2184 73.9v44.5h9v-89h-9zm-233.8-41.9q-2.2 1.4-2.2 4.8c0 4 1.5 5.6 5.5 5.6 5.8 0 8.5-6 4.5-10q-3.5-3.6-7.8-.4M1875 1636v42h44v-9h-35v-14.4c0-12.2.2-14.5 1.6-15 .9-.3 7.8-.6 15.5-.6h13.9v-7.9l-15.2-.3-15.3-.3v-27l16.3-.3 16.2-.2v-9h-42zm78.8-17c-2 1.1-4.8 3.4-6.2 5.2l-2.6 3.3v-9.5h-9v60h8.8l.4-20.3c.5-21.4 1-24.2 5.6-29 5-5.2 14.5-5.4 18.9-.3 3.6 4.2 4.3 9 4.3 29.8v19.8h9v-17.5c0-20 .9-25.8 5-30.7 5-6.1 15-6.8 19.7-1.4 3.6 4.2 4.3 9 4.3 29.8v19.8h9v-21.8c0-23.1-.7-27.7-4.6-33-3.6-4.7-7.3-6.2-14.9-6.2-8.1 0-12.3 1.8-16.9 7.2l-3.4 3.9-2-3.6c-3.2-5.4-7.5-7.5-15.2-7.5q-6.5.1-10.2 2m98.1 1.2c-10.3 5.4-14.9 14.3-14.9 28.9 0 3.3.5 7.9 1.1 10.2a30 30 0 0 0 12.6 16.4c4.4 2.6 5.6 2.8 15.3 2.8 11.8 0 14.7-1 21.3-7.3 6.7-6.5 10.1-20.2 7.7-31.7a27 27 0 0 0-8.6-16.5c-5.6-4.9-9.2-6-19.3-6-8.1 0-9.5.3-15.2 3.2m23.7 6.3c3.9 1.6 7.9 6.7 9.3 12 2.5 9 .7 21.7-3.8 26.9-5.1 5.9-16.3 7.7-23.8 3.8-6.7-3.5-9.5-8.7-10.1-18.3-.5-9.4.9-15.2 4.8-19.6 6.1-6.8 14.4-8.5 23.6-4.8m49.5-6.9c-10.9 5.5-16.5 16.5-15.9 31.2.5 13 5.3 21.1 15.3 25.8 6 2.9 16.4 3.2 24.3.9l5.2-1.6v-4.5c0-4-.2-4.5-1.7-3.9-11.1 4.8-16.1 5.1-23.5 1.4-7.7-3.9-12.1-15.5-9.8-26.2 1.4-6.9 6.6-14.1 11.8-16.3a25 25 0 0 1 18.5.4l4.7 2.1v-4.9c0-4.5-.2-4.9-3.1-5.9-1.8-.6-7.1-1.1-11.9-1.1-7.3 0-9.4.4-13.9 2.6m88.4-.7c-14.6 6.6-20.9 23.8-15.4 42.2a31 31 0 0 0 15.6 16.3 48 48 0 0 0 22.6.3 29 29 0 0 0 15.4-13.7c2.6-5 2.8-6.5 2.8-16.5 0-9.2-.4-11.8-2.2-15.8a27 27 0 0 0-12.8-12.8 44 44 0 0 0-26 0m22.8 8.4q3.8 2 6.2 7.1c6.4 13.3 2.8 29.8-7.9 35.3-4 2.1-13.2 2.1-17.2 0-3.9-2-9.1-7.9-10.1-11.5-1.4-5-.8-19.5.9-22.7 2.6-4.9 7.4-8.7 12.5-10 5.8-1.5 10.5-.9 15.6 1.8m54.5-8.3c-2 1.1-4.8 3.4-6.2 5.2l-2.6 3.3v-9.5h-10l.2 29.7.3 29.8 4.8.3 4.7.3v-19.6c0-20.4.6-24.2 4.8-28.8 4.3-4.8 13.9-6.5 18.7-3.3 5.6 3.7 6 5.3 6.5 29.1l.5 22h9V1654c0-22.9-.1-23.6-2.4-27.7-4-6.9-7.3-8.7-16.6-9.1-6.4-.2-8.7.2-11.7 1.8m61.2-1.1a44 44 0 0 0-5.8 2.5c-2.9 1.5-3.2 2.1-3.2 6.1 0 2.5.2 4.5.4 4.5s2.4-1.1 4.8-2.5c6.2-3.5 13.8-4.8 18.5-3.2 4.5 1.5 8.3 6.6 8.3 11.3 0 3.8.6 3.6-14 5.5-13.5 1.7-19.8 5.2-22.6 12.6-3.5 9.1.7 20.2 8.7 23a34 34 0 0 0 17.6.1c1.5-.6 4.5-2.8 6.6-4.7l3.7-3.5v8.5l4.8-.3 4.7-.3V1654c0-22.4-.1-23.7-2.2-27.7-3.8-7.1-7.3-8.8-18.3-9-5.2-.1-10.6.1-12 .6m23 35.1q0 9.4-5.9 14.3c-9 7.5-22.1 4-22.1-5.9q0-7.3 5.3-9.5a72 72 0 0 1 19-3.8l3.7-.1zm-205-5v30h9v-60h-9z"/></svg>