<svg xmlns="http://www.w3.org/2000/svg" viewBox="0 0 3000 3000"><path fill="#636363" d="M1730.5 826.5c-28.1 8.9-45.4 29-47.1 55-2 28.4 17 54.6 46 63.4 13.2 4 28.9 2.3 41.4-4.5a65 65 0 0 0 27.5-25.4c21.1-32.1.6-77.9-39.5-88.6a77 77 0 0 0-28.3.1m-277 66.1a385 385 0 0 0-173.2 63.1 299 299 0 0 0-57.7 52.3 383 383 0 0 0-54.1 74 379 379 0 0 0-46.7 140.5 305 305 0 0 0-2.2 48c-.1 33.2.9 43 6.9 73a379 379 0 0 0 38.8 103 295 295 0 0 0 38.4 57.1c25.4 30.1 36.6 41.5 56.8 57.9l10.6 8.6c12.2 10.1 39 26.6 60.9 37.5 39.9 20 83.7 33.2 126.5 38 18.6 2.1 61.6 2.4 82.5.5a378 378 0 0 0 180.7-64.9 377 377 0 0 0 121-134.7c12.4-22.9 18.5-37 26.2-60.2a417 417 0 0 0 18.3-76.8 374 374 0 0 0-.1-84 282 282 0 0 0-16.3-71 361 361 0 0 0-44.5-92.4c-11.6-17.8-46.4-60.1-49.4-60.1q-1.8 0 5.7 12.5a355 355 0 0 1 25.9 58.9c7.8 21.6 14.6 56.7 19.6 101.1 1.9 16.2 1.6 54.9-.5 72.9a416 416 0 0 1-26.7 108.8 325 325 0 0 1-35.2 65.8q-46.4 70-91.1 86.2c-4.4 1.6-13.3 5.1-19.6 7.8-44.8 18.9-57.9 21.8-103.2 22.9-35.3.8-55.8 0-70.8-2.8-26.3-4.8-25.8-5.3 9.5-10.1 32-4.4 67.2-12.5 85-19.5 58-22.6 113.8-64.1 148-109.9 16.4-22 34.9-54.7 43-76.1a377 377 0 0 0 18.9-69.5c2.3-14.5 4.6-39 4.6-48.4 0-17-4.2-48.6-8.9-66.6-5.2-20.1-21.5-64-30.3-81.5-5.1-10.1-13.2-23.7-13.6-22.7-.2.7 1.4 6 3.6 11.9a221 221 0 0 1 14.1 50.8c4.4 26.1 5.6 39.2 5.5 64.5 0 36.4-4 62.8-13.9 92.7-9.2 27.7-21.3 49.6-43.5 78.8a379 379 0 0 1-44.5 45.7 349 349 0 0 1-59.2 37c-35.4 16.7-88.2 28.1-122.8 26.5a274 274 0 0 1-131.9-38.9 223 223 0 0 1-72.1-68.8 214 214 0 0 1-30-65 212 212 0 0 1-2-116.5 234 234 0 0 1 65.8-114.2c8-7.8 18-16.9 22.1-20.2a288 288 0 0 1 98.6-49.5c32.7-8.4 66-10.3 105.6-6.1a303 303 0 0 1 149.2 62.2c3 2.4 6.3 4.3 7.4 4.3 1.7 0 1.9-.4 1.3-3.3a340 340 0 0 0-21.2-51.1c-21.6-36-60.3-61.4-111.5-73.2-24.4-5.6-33.9-6.5-68.3-6.9-17-.1-33.2-.1-36 .1m38 289.9a71 71 0 0 0-35.9 21 60 60 0 0 0-13.6 38.5c.1 17.7 5.7 31 18.5 43.6 9 9 17.7 13.9 29.5 17a63 63 0 0 0 32.8-1.8 66 66 0 0 0 39.6-41.8c4.2-14.9 3-27.4-4.1-41.9a50 50 0 0 0-12.7-17.6 57 57 0 0 0-54.1-17M777 1762.9a73 73 0 0 0-25.7 10 46 46 0 0 0-19.9 50.1c2 8.3 4.8 13.1 11.5 19.2 10 9.3 19 13.3 45.6 20.3 32.6 8.6 41.6 12.1 49.2 19.4a25 25 0 0 1 8.1 17.3c1.1 14.7-8.7 27.1-26.4 33-6.2 2-8.7 2.3-23.9 2.3a88.8 88.8 0 0 1-54.7-15.2c-8.9-6-8.2-6.1-12.4 2.1l-2.5 4.8 2.3 2.6c5 5.4 20 13.5 30.3 16.3 18.5 4.9 32.7 6.5 46.1 5 21.4-2.5 33.8-7.1 44-16.4a42 42 0 0 0 14.5-33.5c.1-14-2.5-20.7-11.2-29.2-10.8-10.5-18.8-13.8-58.9-24.4-26-7-36.9-12.9-42.3-23-1.8-3.3-2.2-5.7-2.1-12.6.1-9.8 1.6-14 7.2-20.2 6.7-7.5 13.8-10.9 27.7-13.4a74 74 0 0 1 28.6.1 80 80 0 0 1 27.6 8.6c4.5 2.1 8.7 3.9 9.3 3.9 1.4 0 6.3-10.8 5.6-12.5-1.2-3.2-18.2-10.5-31.9-13.6a126 126 0 0 0-45.7-1m275.2-.4c-36.1 6.9-63.2 29.6-73.9 62a79 79 0 0 0-4.6 31 89 89 0 0 0 28.8 69.4 95 95 0 0 0 58.3 25 98 98 0 0 0 70.4-20.1l7-6.1-5.3-5.3a34 34 0 0 0-6-5.4c-.4 0-3.1 2-5.9 4.4a75 75 0 0 1-27.9 14.2 99 99 0 0 1-42.6.4 79 79 0 0 1-42.6-27 81 81 0 0 1-12.4-76.5c11.4-33 44-53.4 81.5-51a74 74 0 0 1 43.2 15.9 35 35 0 0 0 6.5 4.6c.5 0 3.2-2.4 6.1-5.3l5.2-5.3-6.7-5.8a93 93 0 0 0-34.2-17.3c-12-3.2-33.4-4-44.9-1.8m187.7.5a95 95 0 0 0-60.6 38.2 73 73 0 0 0-11.6 23.3 89 89 0 0 0-4.8 31.9c.1 50.6 35.4 88.3 87.6 93.5 23.2 2.3 46.2-3.1 65.5-15.5a93 93 0 0 0 41.1-89.4 81 81 0 0 0-8.1-29.7 90 90 0 0 0-56.8-49.4 111 111 0 0 0-52.3-2.9m36.1 15.4c46.9 8.5 74.1 54.3 60.3 101.6a76 76 0 0 1-55.1 52 96 96 0 0 1-56.2-4.9 76 76 0 0 1-43.6-57.6 78 78 0 0 1 30-76.9 84 84 0 0 1 64.6-14.2m378.1-15.9c-38.8 7.4-66.5 32.3-75.6 68.1a96 96 0 0 0 25.4 93.7 78 78 0 0 0 24.3 16.6c28.5 13.2 62 12.8 89.2-1 9.6-4.9 21.6-14 21.6-16.3a22 22 0 0 0-4.9-6c-5.4-5.3-5.1-5.3-12.2.5a75 75 0 0 1-26.8 13.5 99 99 0 0 1-42.6.4 84 84 0 0 1-42.1-26c-5.3-6.5-12.7-21-15-29.5-2.5-9.1-3-27.5-1-36.9a78 78 0 0 1 56.3-59.8 108 108 0 0 1 45.3.1 91 91 0 0 1 27.1 14.2 23 23 0 0 0 5.6 3.9 34 34 0 0 0 10.2-10.9c-.9-2.5-13-11.5-21.2-15.7-13-6.7-25-9.6-42.2-10q-14-.3-21.4 1.1m578.4-.1a78 78 0 0 0-59.3 48.6c-12.9 32.7-9.8 81.4 7 108 11.8 18.6 28.2 28.2 53 30.9 32.9 3.7 60.8-12.8 69.8-41.2 1.6-5.3 1.6-23-.1-29.7-4.4-17.9-20.6-33.1-41-38.6a106 106 0 0 0-38.9 0c-8 2.2-16.9 6.5-23.2 11.3a54 54 0 0 0-12.8 15.4q-.1.8-1.4.9c-3.2 0-3.2-23.4.1-39 5.6-26.6 21.8-44.5 45.5-50.4 18-4.5 35.6-2.9 54 4.9 1.3.5 2.3-.6 4.7-5.4 1.7-3.3 3.1-6.4 3.1-6.9 0-2.1-12.9-6.6-25.8-9.2-6.9-1.3-27.1-1.1-34.7.4m27.6 94c8.7 3 16.6 8.9 20.7 15.3 8.3 13 8.4 31.5.2 44.8-14.9 24.1-60.8 25.8-81.3 2.9-15.6-17.4-11.3-44.5 9.3-58.1 5-3.3 15.3-7 21.5-7.7 8.9-.9 22.5.3 29.6 2.8m126.1-93.4a67 67 0 0 0-39.8 28.7 95 95 0 0 0-14.5 35.4 183 183 0 0 0-.5 55.3c6.3 32.3 25.1 56.9 49.2 64.4 28.5 8.8 57.1.9 74.7-20.6 14.7-17.9 21.7-40.8 21.7-70.7 0-24.8-4.4-43.1-14.4-59.8a69 69 0 0 0-76.4-32.7m26.9 15c20.7 3.9 36 21 43.1 48.1 1.9 7.4 2.2 11 2.2 29.4.1 21.9-.4 25.5-5.4 40.1a57 57 0 0 1-34.8 36.6 66 66 0 0 1-28.8.4c-26.2-7-42.4-36.2-42.4-76.5q0-43 21.1-64.4a48 48 0 0 1 45-13.7m-1862.6-13.8c-.3.7-.4 42.5-.3 92.8l.3 91.5 8.7.3 8.8.3.2-29.3.3-29.3 31-.7c35.8-.7 45.4-1.9 57.5-6.7a57 57 0 0 0 37.8-48.9 60 60 0 0 0-16-50.8 65 65 0 0 0-36.3-18.3c-8.7-1.9-12.9-2.1-50.5-2.1-31.9 0-41.2.3-41.5 1.2m85 15.2a51 51 0 0 1 28.9 13.5c8.7 8.1 12.6 18.4 12.6 33.1 0 24.4-12 39.2-37 45.7-7.5 1.9-66.6 3.1-69.8 1.4l-2.2-1.2v-46.4c0-36.1.3-46.4 1.3-46.8.6-.3 14-.6 29.7-.6 20.4-.1 30.8.3 36.5 1.3M909 1856v93.1l8.8-.3 8.7-.3v-185l-8.7-.3-8.8-.3zm542.7-80.8c-8.2 18-22.8 50-27.6 60.1l-4.1 9.2-3.9 8.7-13.9 30.3q-16.5 36.3-25.3 55.3a68 68 0 0 0-3.9 9.3c0 .5 4 .9 8.9.9h8.8l3.3-7.3 6.8-14.7 7.4-16.5c2.2-5 4.4-9.6 5-10.3.8-.9 12.3-1.2 53.6-1l52.5.3 1.7 3c.9 1.6 4.5 9.3 7.9 17l9.9 21.7 3.5 7.8h9c10.5 0 10.3.7 3.8-13.1l-19.6-42.9-35.4-77.5-6.5-14-10-22-7.3-16-9.5-.3-9.5-.3zm17.3 10.5 29.7 66.3 9.3 20.7c2.9 6.1 3.3 7.7 3.1 10-.1 1-9.7 1.3-44.5 1.3-26.2 0-44.7-.4-45.1-.9-.5-.9 2.2-7.4 11.8-28.7 7.7-17 9.7-21.4 9.7-21.8 0-.2 1.8-4.3 4.1-9.1l10.1-22.4c8.5-19.3 9.4-20.5 11.8-15.4m316 70.3v93h18v-41.9c0-23.1.3-42.6.6-43.5.6-1.4 6.7-1.6 59-1.6 56.6 0 58.4.1 59.4 1.9.6 1.3 1 16.8 1 43.5v41.6h17v-186h-17v40.1c0 25.7-.4 40.7-1 42-1 1.8-2.7 1.9-58.8 1.9-43.6 0-58.1-.3-59-1.2s-1.2-11.6-1.2-42V1763h-18zm225-85.5v7.5l47.2.2c30.3.2 47.3.7 47.5 1.3a562 562 0 0 1-25.2 32.9l-25.5 31.9v6.3c0 4.7.4 6.3 1.6 6.8.9.3 6.6.6 12.8.6 32.5 0 51 15.1 49.4 40.4-1.2 17.8-12.9 30.2-32.9 34.6-7.5 1.7-31.2.8-39.9-1.5a97 97 0 0 1-28.2-13.4c-3-2.2-5.7-4.1-6-4.1-1.2 0-7.9 12.2-7.5 13.5.9 2.2 10.6 8.9 17.7 12.2a110 110 0 0 0 73 7.7c16-4.1 30.2-15 36.6-27.8 4.7-9.5 6.1-18.7 4.7-30.5-2.8-25-21.1-41.4-50-44.6-7.2-.9-9.3-2.5-7.2-5.5l26.2-33.1 24.8-31.1-.3-5.7-.3-5.6-59.2-.3-59.3-.2zM941.2 2038.3c-5.9 6.3 1.5 15.1 8.6 10.1 4.6-3.2 1.5-12.4-4.3-12.4-1.2 0-3.1 1-4.3 2.3m416.3 1.2c-1 .9-6.3 4-11.7 7.1-9 5.1-9.8 5.8-9.8 8.5 0 2.5.3 2.9 1.9 2.4 3.3-1 22.6-11.6 23.3-12.8 1.2-2 .9-6.7-.4-6.7-.7 0-2.2.7-3.3 1.5m-218.8 11.7c-.4 6.2-.7 27.8-.7 48v36.8h10l-.2-47.8-.3-47.7-4.1-.3-4.1-.3zm910.7-6c-6.3 3-4.1 12.8 2.8 12.8 6.4 0 9.2-8 4.2-11.9-3-2.3-3.9-2.4-7-.9m-86.7 1.5c-.2.4-.6 21.9-.8 47.8l-.4 47 5.2.3 5.1.3.4-23.8c.3-22.6.4-24 2.6-28.1 7.7-14.4 29.8-14.3 37.5.1 2.1 4 2.2 5.1 2 27.2q-.1 22.8.9 24.2c1.4 1.8 7.3 1.6 8.8-.2.9-1.1 1.1-7.5.8-25.2-.5-27.5-1.3-30.9-8.5-37.9a29.4 29.4 0 0 0-39-.3c-2 1.7-3.9 2.7-4.4 2.2s-1-8.3-1.1-17.3l-.3-16.5-4.2-.3c-2.2-.2-4.3.1-4.6.5m-430.8 19.5c-.1 4-.4 10.2-.8 13.8l-.6 6.5-13.5.5-13.5.5-.3 3.7c-.4 4.6 0 4.7 15.8 5.1l11.5.2.5 13.5.5 13.5 4.3.3 4.2.3v-9.4c0-5.2.3-11.5.6-14.1l.7-4.6h27.7v-4c0-2.2-.3-4.1-.7-4.1l-13.8-.8-13-.6-.2-11.5c-.4-15.8-.5-16-5.3-16h-4zm-718-3.2c-5.8 1-9.5 2.9-15.5 8.1-2.6 2.2-5 3.7-5.5 3.2s-.9-3.1-1.1-5.8l-.3-5h-9l-.8 51c-.4 28-.5 51.6-.2 52.3q.4 1.3 5.2 1l4.8-.3.3-22c.1-12.1.7-22.4 1.2-22.9q1-.8 5.9 3.7c6.9 6.5 10.9 8 21.1 8 6.9 0 9.5-.5 13.5-2.4 6.6-3.1 13-9.7 16.3-16.7 2.4-5.1 2.7-6.9 2.7-16.7s-.3-11.6-2.6-16.5a30 30 0 0 0-15.2-15.9 35 35 0 0 0-20.8-3.1m14.6 10.1c5.1 2.4 9.7 7.3 12.1 12.7a43 43 0 0 1-.5 26.5 25 25 0 0 1-22.3 13.7c-12.9 0-21.7-7.4-24.8-20.8s3.1-27.2 14.5-32.3a29 29 0 0 1 21 .2m56.5-9.2c-10.7 3.3-16.9 11.9-15.4 21.3 1.4 8.3 8.7 13.3 27.4 18.8 4.1 1.2 9 3.3 10.8 4.7 2.7 2 3.2 3 3.2 6.6 0 5.1-1.8 7.9-6.4 10.1-8.5 4-21.1.6-24.9-6.7-1.8-3.4-2.2-3.7-6.3-3.7-5.5 0-6.2 1.4-3.5 6.8 4.7 9.1 14.7 13.7 28.5 13 6.7-.3 9.2-.9 12.9-3.1 8.3-4.9 11.6-12.3 9.2-20.6-2.3-7.6-7.6-11.2-22.9-15.7a58 58 0 0 1-12.6-5c-10.9-7.2-5.1-19.4 9.2-19.4 6.9 0 12.6 3.2 15.1 8.3 1.7 3.4 2.2 3.7 6.3 3.7 4.2 0 4.4-.1 4.4-2.9 0-5.9-8.6-14.3-16.6-16.1a54 54 0 0 0-18.4-.1m56.3.7c-1 .4-1.3 8.4-1.3 35 0 38.1-.3 36.3 6.5 35l3.5-.7-.2-34.7-.3-34.7-3.5-.2c-1.9-.1-4.1 0-4.7.3m49.7 1c-14.3 5.2-22.2 17.1-22.4 33.9-.1 15.3 6.2 27 17.9 33 5 2.6 7.2 3 14.9 3.3 11.5.5 18.2-1.8 24.4-8 4.2-4.3 8.4-11.6 7.5-13-.2-.5-2.3-.8-4.6-.8-3.8 0-4.5.4-7.7 4.7-4.9 6.6-9.9 9.3-17.8 9.3-10.4 0-16.2-3.4-21-12.5-2.4-4.5-2.7-6.1-2.7-15.5 0-9.9.2-10.8 3.1-16 1.8-3.2 4.9-6.8 7.3-8.5 3.9-2.8 4.9-3 12.4-3 5.7.1 9.2.6 11.4 1.8 3.4 1.8 9.3 8.4 9.3 10.4q-.1 1.3 5.5 1.3c3.1 0 5.5-.4 5.5-1 0-2-3.9-8.5-7.1-11.9q-7.7-8-22.8-8.8c-6.3-.2-9.8.1-13.1 1.3m87-.7c-7 1-15.4 5.6-20.3 11.2-6.3 7.1-8.2 13.2-8.2 25.4.1 8.9.4 10.6 2.9 15.9a36 36 0 0 0 48.3 15.5c16.6-8 23.9-31.7 15.2-49.6-6.3-13-22-20.6-37.9-18.4m16.6 10c5.6 2.5 11 8.4 12.8 13.9a39 39 0 0 1-.8 24.7 24 24 0 0 1-23 14.5c-7.6 0-12.9-2.3-17.7-7.7-4.9-5.5-6.4-10.2-6.3-20.3 0-12.6 4.2-20.1 13.9-24.9a30 30 0 0 1 21.1-.2m100.1-8.9a34 34 0 0 0-25.8 21.2 46 46 0 0 0 .1 29.3 36 36 0 0 0 19 19 41 41 0 0 0 28.3-.8c17.2-7.9 25-27.7 18.5-46.7a35 35 0 0 0-19.8-20.2 46 46 0 0 0-20.3-1.8m17.8 10.4c11.6 5.4 16.9 18.8 13.1 33.5a24 24 0 0 1-13.1 16.7c-4.7 2.2-6.5 2.6-12.2 2.2-8.4-.4-13.7-3-18-8.7-4-5.1-5.4-10.3-5.4-19 0-13.3 6.2-22.9 16.9-26.1a29 29 0 0 1 18.7 1.4m60.1-8.7a35 35 0 0 0-21.6 34.4c0 21.3 13.4 35.9 32.9 35.9 8.9 0 14.6-2.1 20.9-7.6 2.9-2.6 5.7-4.2 6.3-3.8 1.4.8.6 17-1.1 22.7a24 24 0 0 1-11.1 12.8 33 33 0 0 1-22.4-.1 23 23 0 0 1-10.3-8.8c-2-2.8-2.9-3.2-6.8-3.2-5.1 0-5.5 1-2.4 6.9 5.2 10.3 18.9 16.8 32.9 15.8 4.2-.3 9.8-1.4 12.5-2.4 5.2-2 13.3-9.1 15.5-13.9l2.4-4.9a994 994 0 0 0 2.3-83c-.4-1.2-1.7-1.5-5.3-1.3l-4.8.3-.3 4.5c-.5 7.5-.7 7.6-6.6 2.3a34 34 0 0 0-33-6.6m25.9 9.6c11.7 6.4 16.7 23.6 10.7 36.9-4.6 10.4-11.8 15.2-22.7 15.2-8.2 0-13.4-2.2-18.5-8s-6.4-9.8-6.4-19.4 1.3-13.6 6.4-19.4a23 23 0 0 1 21.5-7.9c2.8.3 6.8 1.5 9 2.6m101.4-10.3c-16.2 2.8-26.9 17-26.9 35.5 0 15.7 7.6 28.4 20.6 34a31 31 0 0 0 12.4 1.8c9.9 0 15.2-1.9 21.4-7.7 5.6-5 6.6-4.7 6.6 1.9v5.5h10l.2-26.5.3-34.8v-8.2h-10l-.3 4.5c-.2 2.5-.7 4.9-1.1 5.3-.5.5-2.9-1.2-5.5-3.6a32 32 0 0 0-27.7-7.7m18.7 9.9c15.4 7 20.2 29 9.5 43.8-6.7 9.3-21.5 12.2-31.8 6.3-8.8-5-12.5-12.3-12.5-24.5q-.2-18.3 13.5-25a27 27 0 0 1 21.3-.6m-73.6 25.5v35.6h8.9l.6-5.3c.3-2.8.5-18.7.3-35.2l-.3-30-4.7-.3-4.8-.3zm305.7-33.4c-16 2.7-27.7 17.7-27.7 35.5 0 14.4 6.9 26.6 18.4 32.5 6.5 3.3 7.4 3.5 16.5 3.4 11.4-.1 15-1.4 22.3-8.2 4.6-4.2 7.8-9.3 7.8-12.2 0-.5-2-1-4.4-1-4.1 0-4.7.3-7.3 4.2-4.2 6.3-10 9.1-18.7 9.2-5.3 0-8.1-.6-11.1-2.1-5.1-2.7-6.8-4.6-9.9-11.3a40 40 0 0 1-.2-28.5c4.5-9.7 10.4-13.5 21.1-13.5 9.1 0 16.4 4.1 20.1 11.2 1.3 2.5 2 2.8 6.4 2.8 2.8 0 5-.2 5-.4l-1.9-4.8c-2.4-5.4-7.7-11-12.8-13.7a61 61 0 0 0-17.8-4zm76.6 1.8a35 35 0 0 0-20.7 18.7 41 41 0 0 0 7 41.9 37 37 0 0 0 41.2 6.3 39 39 0 0 0 16.2-16.2c2.8-6.6 4-15.4 3-22.2a33 33 0 0 0-18.6-26.4c-8.5-4.2-19.9-5-28.1-2.1m19.5 7.7c6.7 2 13.4 8.6 15.7 15.6a41 41 0 0 1-1 24.3c-2.4 5-7.6 10.2-12.3 12.2a32 32 0 0 1-21.9-.4c-11.6-6.1-16.6-22.3-11.2-36.8 4.9-13 17.1-18.9 30.7-14.9m68.7-8.6q-7.8 1.5-14.3 6.4c-11.4 8.6-16.2 26.9-11.1 41.9 5.3 15.7 15.5 23.3 31.4 23.3a28 28 0 0 0 21.7-8.4c5.2-4.7 5.6-4.5 6 2.9l.3 4.5h9l.6-14c.4-7.7.7-23.4.8-34.8l.1-20.8-5.2.3-5.3.3-.3 5.2c-.2 2.9-.7 5.3-1.2 5.3a21 21 0 0 1-5.3-4.3 33 33 0 0 0-27.2-7.8m19.3 10.7c9.8 4.9 14.8 14.5 14 26.9-1 16.1-10.7 25.5-26 25.5-10.2 0-18.5-6.1-22.7-16.8-2.1-5.2-1.7-18 .8-23.3a25 25 0 0 1 33.9-12.3m66.7-9.3a33 33 0 0 0-20.3 17.6c-2.5 5.1-2.7 6.6-2.7 17.1 0 11 .1 11.8 3.3 18.2a30 30 0 0 0 17.1 15.9 47 47 0 0 0 28.7-.8c7.1-3.7 16.6-15.5 14.9-18.3-.3-.6-2.4-1-4.6-1-3.6 0-4.3.5-7.2 4.6a22 22 0 0 1-18.7 9.4c-10.3 0-16.1-3.5-20.8-12.5-2.4-4.5-2.6-6.1-2.6-15.6 0-10.3.1-10.8 3.4-16.3 4.8-7.9 10.2-11.1 19-11.1 3.6 0 7.7.3 9.2.8 3.5.9 9.5 6.1 11.4 9.8 1.3 2.6 2 2.9 6.5 2.9 4.8 0 5-.1 4.3-2.3-2-6.7-7.3-12.6-14.5-16.2a46 46 0 0 0-26.4-2.2m203.5 1.2c-2.5.8-6.5 3.1-8.8 5-2.3 2-4.6 3.4-5.2 3-.5-.3-1-2.2-1-4 0-2.8-.5-3.6-2.4-4.1a15 15 0 0 0-4.7-.2c-2.1.3-2.5 1-3.1 5.8-.3 3-.6 18.7-.7 34.7l-.1 29.3 2.5.6c1.4.3 3.6.3 4.9 0l2.3-.6.5-22.9c.4-22 .5-23.1 2.9-27.7 1.5-2.9 4.2-6.1 6.8-7.9 3.9-2.7 5-3 12-3 6.7 0 8.3.4 11.8 2.7 2.2 1.5 5.1 4.4 6.4 6.5 2.3 3.7 2.4 4.7 2.9 28.3l.5 24.5h9v-26c0-26 0-26-2.6-31-5.9-11.4-20.6-17.1-33.9-13m-57.1.5c-.6.4-.8 13.6-.7 35.1l.3 34.4 3.3.3c6.3.6 6.2 1.4 6.2-35.9 0-26.4-.3-33.9-1.2-34.1-3.5-.4-7-.3-7.9.2m137.1-.1a34 34 0 0 0-21.8 17.3 49 49 0 0 0-3.6 22c2.8 20.3 14.7 31.7 32.9 31.8q14 0 22.1-8.6c5-5.2 5.7-3.9 5.2 8.6-.4 9.4-.8 11.3-3.2 15.4-4.2 7.2-9.3 10-18.8 10.5q-16.4.8-23-10.5c-1.8-3-2.5-3.4-6.4-3.4s-4.4.2-4.4 2.4c0 1.3 1.5 4.6 3.3 7.2 10.4 15.7 39.8 18 53.5 4.3 1.9-1.8 4.5-5.6 5.9-8.3 3.5-6.9 4.4-20.2 4.1-58.1l-.3-30h-9l-.3 4.8c-.4 6.2-2.1 6.8-6.5 2.5a34 34 0 0 0-29.7-7.9m22.3 10.9c8.3 4.4 12.7 12.7 12.7 24a28 28 0 0 1-7.6 20.8 24.5 24.5 0 0 1-34.9-.1c-5.2-5.2-7.5-11.6-7.5-21.1 0-16.8 12.3-28.5 28-26.7 2.5.3 6.6 1.7 9.3 3.1"/><path fill="#4d4d4d" d="M1685.5 902.2a79 79 0 0 0 11 20.8c7.5 9.7 19.9 18 32.9 21.9 7 2.1 21.2 2.8 26.6 1.2 1.4-.4-2.9-.7-9.5-.7-11.6 0-19.5-1.4-19.5-3.5q-.2-.8-1.5-.9t-.9-1.4c.7-1.7-2.4-3-4.1-1.6-.6.5-1.5.6-1.9.2q-.8-.6-1.4-.8c-2.2-.3-5.1-2.1-7.8-4.8-1.6-1.7-5-4.9-7.5-7.2a73 73 0 0 1-14.8-21.7c-1.3-3.9-2.7-5.2-1.6-1.5M1415 902c-.8.5-3.2 1-5.2 1-2.1 0-3.8.4-3.8 1s-2.2 1-4.9 1-5.3.4-5.6 1-1.2 1-1.8 1q-1 0 .3-1t.8-1l-2.2-.6q-1.6-.6-1.6.9t-2.7.9q-3-.7-2 1.1c.8 2-1.6 3.4-5.8 3.5a24 24 0 0 0-4.5.4q-1.3.2-1.3-.8.2-1.2-2-.6-2.8.6-.4 1 2.1.3.6 1.8c-.6.8-1.7 1.4-2.3 1.4-.7 0-2.8.8-4.8 1.8a44 44 0 0 1-9.7 3.2q-6 1.3-7.6 3.2-1.3 2-3.3 1.4c-1.1-.4-2.3-.2-2.7.4-.3.5-1.3 1-2.1 1q-1.4 0-.8-1.2c.9-1.4.7-1.3-11.4 4.2-5.1 2.4-9 4.5-8.8 4.7s2.6-.7 5.3-2 5.4-2.2 6.1-2c1.9.7-1.4 2.8-5.8 3.8a16 16 0 0 0-5.9 2.7c-1.4 1-3.4 1.8-4.5 1.7h-3.6q-2 0 0 1.2 1.9 1.3-.4.5c-1.1-.4-4 .6-7.5 2.6l-8.3 4.8c-5.4 2.9-26.4 18-34.3 24.5a487 487 0 0 0-66.5 72 395 395 0 0 0-62.5 130 335 335 0 0 0-11.9 98c-.1 33.2.9 43 6.9 73a379 379 0 0 0 38.8 103 295 295 0 0 0 38.4 57.1c25.4 30.1 36.6 41.5 56.8 57.9l10.6 8.6c12.2 10.1 39 26.6 60.9 37.5 39.9 20 83.7 33.2 126.5 38 18.6 2.1 61.6 2.4 82.5.5a378 378 0 0 0 180.7-64.9 377 377 0 0 0 121-134.7c12.4-22.9 18.5-37 26.2-60.2a384 384 0 0 0 20.8-107.3c.6-17.1-.3-33.3-1.7-31-.5.7-.6 2-.3 2.9q.6 1.7-1.8-.7c-1.8-1.7-2.4-3.4-2.5-7-.2-7.3-2.1-13.2-4.3-13.2q-3 .2-3.1 4.7c0 .8-1.3 2.8-3 4.3-3 2.8-3.8 5.4-2 6.5s1.1 3.5-.9 3.5q-1.8 0-2.3 1.2c-.3.9-1.2.9-3.8 0-4-1.5-13-1.6-13-.2 0 .5-1.2.9-2.7.9q-3.5-.2-.5-.6c3-.6 3.2-5.3.2-5.3q-1.8-.2-2-1.5c0-.8-.9-1.9-2-2.5s-2-1.7-2-2.5c0-1.1-1.2-1.4-5.2-1.2-4.5.2-5.3.5-5.4 2.2 0 2.1-1.4 8.9-2.4 12.2q-.3.6-1-1.7c-.7-2.2-.8-2.1-.9 1.2-.2 5.9-5.8 38.1-9.2 51.8a433 433 0 0 1-26 74.2c-22.9 45.7-57.6 91.5-85.6 113.1a138 138 0 0 1-28.6 16.7c-3.7 1.5-6.5 2.9-6.2 3.2s-1.9 1.9-4.9 3.6-5.7 3.6-6.1 4.2c-.3.5-1.6 1-2.8 1-5.3.1-14.1 7.9-9 8 1.7.1 1.7.1-.1 1.1q-1.9 1.2-2.5.1a13 13 0 0 0-3.5-2.6c-2.5-1.3-3.3-1.2-7.1.4-2.4 1-5.6 1.8-7.2 1.8a99 99 0 0 0-14.4 3.5c-17.8 5.5-28.6 6.8-60.6 7.4-15.5.3-28 .9-27.8 1.3 1 1.7-12.7 2.1-14.3.5-.3-.3 2.1-.6 5.4-.7 3.2 0-.8-.4-9.1-.8s-19.3-1.5-24.5-2.5a94 94 0 0 0-11-1.5 190 190 0 0 1-59.5-9.5c-1.6-.7-6.4-2.2-10.5-3.3-18-4.9-18.7-6.7-.8-2.4 19.8 4.9 20.4 5 41.8 7.6 16.4 2.1 21.6 2.4 26.5 1.6l21-3c32-4.4 67.2-12.5 85-19.5 58-22.6 113.8-64.1 148-109.9 16.4-22 34.9-54.7 43-76.1a416 416 0 0 0 15.9-53l.6-3-1.5 2.7c-1.8 3.2-4.5 3.7-4.5.9 0-1-.7-2.2-1.6-2.5-2.4-.9-5.4-.7-5.4.4q-.1.9-1.5 1t-1.5-2.5c0-1.4-.8-2.9-1.9-3.5-3.1-1.6-4.1-1.2-4.1 1.5 0 2.3-.2 2.4-2.2 1.3-3.1-1.7-3.6-2.7-3.1-4.9.3-1-.1-2.9-1-4.2a8 8 0 0 1-1-4.9 5 5 0 0 0-1.2-4.2c-1-.9-1.5-2.5-1.2-3.6q.4-1.8-.1-2a88 88 0 0 0-5.4 14 273 273 0 0 1-65.7 102.1 227 227 0 0 1-39.6 33.1 274 274 0 0 1-62.8 32.9c-31.9 11.4-74.3 18.8-101.2 17.6a274 274 0 0 1-131.9-38.9 223 223 0 0 1-72.1-68.8 214 214 0 0 1-30-65 212 212 0 0 1-2-116.5 234 234 0 0 1 65.8-114.2c16.9-16.4 25-23.1 41.4-33.9 19.6-13 55.5-29.9 71.2-33.6 2.8-.6 5.1-1.5 5.1-2q0-.7-1.2-.8c-1.5 0-.1-1.3 1.7-1.6q1.3-.1.8 1.4-.8 1.7 1 .9l7.7-1.9c3.3-.6 6-1.5 6-1.9s2.6-1.5 5.8-2.7c8.6-3 33.4-4.6 62.1-3.9 13 .3 24.5.9 25.5 1.3q2.2 1 1.3-.9-.4-1.5.3-1.7 1 .1 1 1.5-.1 1.6 3.8 1.5c2.2 0 5.2.6 6.8 1.4s4.1 1.6 5.6 1.8c3.2.5 5 1.8 2.3 1.8-2.9 0-1.4.7 3 1.3 2.2.4 3.4.4 2.8.1q-1.2-.6-1.3-1.5 0-.9 1.9 0c1 .6 2.2.7 2.6.3q.7-.5.2 1-.5 1.8.7 1.8c.8 0 2.3.3 3.3.7q2.3 1 .4-1c-1.2-1.5-1.1-1.7.3-1.7q1.5.1 1.6 1.2t1.1-.6c.9-1.4.8-2-.2-2.7q-1.8-1 0-.9 1.2 0 .8-2c-.3-1.1.1-2.7.9-3.4 1.6-1.7 1.8-3.6.4-3.6-.5 0-1-1-1-2.1 0-2-.4-2.1-6.5-1.7-3.6.2-6.5 0-6.5-.4q.1-.7 1.6-.8c1.8 0 4.4-2.3 4.4-3.9q.1-1 1-1.1 1 .2 1 2.5c0 2.2.4 2.5 3.9 2.5 3.8 0 3.9.1 4.6 4 .7 4.1 2.1 4.9 5.9 3.4q3.3-1.2-.6-4.5c-2.9-2.6-1.7-3.5 1.3-1 1.9 1.5 2.3 2.7 2 6-.2 3.8-.1 4.1 2.4 4.1 2.2 0 2.5-.3 2-2q-.6-1.8.4-2c.6 0 1.1-1.6 1.1-3.5q0-3.5-2-4.5c-1.1-.6-2-2-2-3q0-2 2-2t2-2.4c0-1.3-.6-2.7-1.2-2.9q-1-.5.9-.6c5-.2 3.3-6.1-1.7-6.1-2.5 0-3 .4-3 2.5 0 2.9 0 2.9-3.6 1-1.6-.8-3.6-1.5-4.5-1.5-1.8 0-3.3-2.6-2.3-4.1.3-.5 2.1-.7 4-.3q3.4.6 3.4-.5-.1-1-1.5-1.1t-1.5-1.3q0-1.4-4.6-1.5c-3.8 0-4.7.3-5.1 1.9-.6 2.2-1.6 2.4-4.4.6-1.7-1-2.3-.9-3.8.9s-1.9 2-2.7.6c-.6-.9-3.1-1.7-6.7-2-4.9-.4-5.7-.2-5.7 1.2 0 3.4-4.9 6.1-6.5 3.6q-.3-1 1.4-1c2.3 0 3-3.5.9-4.3-.7-.3.4-.6 2.5-.6 2-.1 3.7-.4 3.7-.9s1-1.2 2.2-1.7q2.1-1.1 2.6-2.8c.3-1.4-.1-1.8-2-1.5q-2.3.4-2.6 2.5c-.5 3.2-3.2 3-3.2-.2 0-2-.5-2.5-2.5-2.5s-2.5.5-2.5 2.4c0 3.4-5.6 4.5-7.7 1.6-1.8-2.6-10.3-3-10.3-.5 0 1.4-.3 1.4-3 0-1.6-.8-4.2-1.5-5.7-1.5-1.7 0-3.4-.8-4.3-2-1.5-2.1-4.5-2.7-5.5-1-.3.5-1.5 1-2.6 1-1 0-1.9.4-1.9 1s-2 1-4.4 1-4.8-.5-5.1-1c-.9-1.4-6.2-1.2-6.8.2q-.5 1-.6-1-.2-2-1.7-2.2c-.9 0-3.4-1.8-5.6-4-3.9-3.9-7-5-8.3-3-.3.5-1.5 1-2.5 1s-2.1.6-2.3 1.2q-.6 1.5-.6 0-.3-1-2.1-1.2t-2-1q.1-1 1-1 1-.2 1-2c0-2.3-3.1-4.1-3.8-2.2q-.4 1-1.3.6c-.6-.3-1.8.4-2.8 1.5q-1.8 2.1-5.4 2.1t-4 1.7q-.5 2-.6-.5 0-2 1-2.2c2.1 0 .4-4.5-1.8-4.8-1.7-.3-2.6.5-3.8 3q-1.7 3.9-1 .8l.4-2.5-8.9.2c-5 .1-9-.2-9-.8q0-1.7-3 .1m39.3 9.4c2 1.6 2.3 3.6.4 3.6-1.7 0-3.7-2-3.7-3.7q0-2.4 3.3.1m14.7 5.1q.1 2.6-2 2.5-2.1.1-2-2.5-.1-2.6 2-2.5 2.1-.1 2 2.5m83 39.5c-3.6 1.2-7 1.2-7 0 0-.6 2.1-1 4.8-.9 3.8.1 4.2.2 2.2.9m89.7 574.8c3 1.9-1.2 4.6-25.3 16.6a223 223 0 0 1-35.6 15.5c-7.6 2.4-7.8 2.4-7.8 1.2q.2-.9 2.5-1.5c4.9-1.3 43.6-19.8 48-23 1.7-1.2 5-2.8 7.4-3.5s5.3-2.3 6.5-3.6c2.4-2.6 2.7-2.7 4.3-1.7m-90.4 9.9c-4.6.2-12 .2-16.5 0-4.6-.1-.9-.3 8.2-.3s12.8.2 8.3.3m-78.7-637.8c-2 2.2-1.5 5.1.7 5.1s4.9-2.6 4.5-4.6c-.5-2.6-3.1-2.9-5.2-.5m14 0q-3.8 4.1 4 3.9c3.5 0 4.4-.4 4-1.5l-.6-1.9q-.1-.3-1.5-.4-1.3 0-1.5 1t-1.7 1q-1.9 0-.5-1.2 1.1-1.2 1.2-2c0-1.4-1.6-.9-3.4 1.1m12.8 1.5c-.9 2.4 0 5.1 1.8 5.4 2.8.5 8.8-2.8 8.8-4.9s-2.9-2.6-4.8-.7q-1.3 1.4-1.2 0c0-1.7-3.9-1.5-4.6.2m37.6.5c0 1.9 3.5 3.1 8.7 3.1q2.2 0 1.8 1t1 1c1.2 0 1.6-.8 1.3-3.3l-.3-3.2-6.2-.2c-5.5-.1-6.3.1-6.3 1.6m-6 0c0 .9 2.4 2.1 4.1 2.1q.8-.1.9-1.5t-2.5-1.5q-2.3 0-2.5.9m20 2.1c0 2.7.3 3 2.9 3 1.7 0 3.3.5 3.7 1.1.3.6 1.5.9 2.5.6q1.9-.4 1.9.9.1 1.3 1 1.4 1 .2 1 2 .2 1.8 1.5 2c.9 0 2.5-.9 3.7-2 3-2.7 3.8-2.5 3.8 1s2.5 4.2 3.5 1c.8-2.4 2.1-2.6 2.9-.5.7 2 2.8 1.9 5.4-.4 2.5-2.1 2.8-4.6.8-6.7-1.7-1.6-3-1.9-2.1-.4q.4.9-1.5 1c-1.7 0-2-.4-1.5-2s.2-2-1.4-2q-2.2-.1-1.4 1.7c.5 1.3.2 1.5-1.8 1-1.3-.4-4.8-1-7.7-1.3s-5.5-1.1-5.8-1.5c-.3-.5-1.8-.9-3.5-.9s-2.9-.5-2.9-1-1.1-1-2.5-1c-2.1 0-2.5.5-2.5 3m-36 1q0 2 2 2 3.5.2.6-2.6c-2-1.9-2.6-1.8-2.6.6m17.2 1.7q.5 1.6 2.6 2.1 2.4.5 2.2-1.7c0-1.6-.6-2.1-2.6-2.1q-2.7 0-2.2 1.7m-53.2 1.8q-.1 2.6 2 2.5 1.8 0 2 1c0 .5 1.6 1 3.5 1s3.5-.5 3.5-1.1c0-1.9-2.8-3.9-5.4-3.9-1.4 0-2.6-.5-2.6-1q-.2-1-1.5-1t-1.5 2.5m13.8-1.1c-2.5 1.8-2.2 3.6.5 3.6 2.5 0 4.7-1.7 4.7-3.7 0-1.7-3-1.6-5.2.1m96.5 6.3c-1.3.8-2.3 2.4-2.3 3.5 0 1.8.5 1.9 3.5 1.4 3.1-.6 3.5-.4 3.5 1.4q.1 1.8 1 2 1-.1 1-1c0-1.5 4.9-.1 8.1 2.2 1.4 1.1 4.6 2.2 6.9 2.5 3.2.5 5.1 1.4 6.8 3.5 1.3 1.6 3.7 3.5 5.3 4.4 1.6.8 3.2 2.6 3.5 4q.7 2.4 2 2c1.7-.7 4.4.3 4.4 1.6 0 1.1 2.5 3.8 3.5 3.8a22 22 0 0 1 4.4 3.5c6.3 6 10.6 9.5 11.9 9.5 1.5 0 1.5 0-.3-4.3-1.1-2.7-1.2-3.6-.2-4q2.1-.9 5.1 5.1c.9 1.8 2 3.2 2.5 3.2s1.3 1 1.9 2.2q1 2.2 1.1.8c.1-2.3-10-14.4-10.9-13.1-.9 1.6-6-.4-6-2.4q.2-2.7 2.8-.3 1 1 1.7.6c.7-.6-11.4-11.8-12.7-11.8q-.8.1-.6 1.6.2 1.6-1.1 2.2-1.5.6-.8-1.7.4-1.8-.4-1.5c-1.4.8-7.9-1.8-7.9-3.3q-.1-1.2-1.5-1.3t-1.5-1-1.5-1c-2.6 0-1.6-2.8 1-3.2 2.4-.3 2.2-.5-2.1-3.1q-4.8-2.8-4-1.3l1.2 3.2c.5 1.2.1 1.4-2.2.8a8 8 0 0 1-3.4-1.5c-.3-.4-1.8-1.2-3.3-1.8q-2.7-1-2.1-2.6c.7-1.8-.3-2.1-7.8-3q-6-.6-5.8-2.1c0-1.8-1.9-1.7-4.7.3m-34.3 2.8q0 4.1 2.8 1.3c1.8-1.8 1.4-3.8-.8-3.8q-2.1-.1-2 2.5m237.9 1.9a24 24 0 0 1-5.9 5.8c-1.4.7-3.6 2.5-5 3.9a64 64 0 0 1-7.2 5.8c-5.7 3.8-6.4 5.2-1 2 7.7-4.7 14.1-10 17.8-14.6 5.2-6.5 5.7-7.3 5.1-7.3-.2 0-2 2-3.8 4.4m-193.2 14.3c-.4.3-.7 1.9-.7 3.5 0 2.3.4 2.8 2.5 2.8q2.3-.1 2.5-1 0-1-1-1-.9-.2-1-2.5-.2-3.7-2.3-1.8M1591 946c0 7.7 1.1 8.8 4.7 4.7 1.5-1.7 1.9-3.2 1.5-6.5q-.4-4.6-1.8-3.8-1.3.4-1.4-.4-.2-1-1.5-1c-1.2 0-1.5 1.4-1.5 7m172-3.3c-2.5.9-4 1.8-3.3 2 .6.2 3.1-.5 5.5-1.6 5.2-2.3 4-2.5-2.2-.4m-158 3.5c0 2.5 3.3 4.7 6.3 4.1 4.5-.9 2.7-3.8-3.1-4.9-2.4-.5-3.2-.3-3.2.8m-24 19.3q.2 1.3 1.5 1.5 1.3 0 1.5 1c0 .5-1.2 1-2.6 1q-2.3 0-1.9-.9c.8-1.4-2.9-2.3-6.1-1.5-2.4.6-1.6 1.1 6.2 3.5 9.7 3 11.8 3.4 10.9 1.9-.3-.6-1.7-1-3.1-1-2.7 0-2.9-.3-1.2-3 1.4-2.2 1.2-2.5-2.4-3.4q-3-.8-2.8.9m-133.5 250.7a60 60 0 0 0-5.5 25.8c.1 17.7 5.7 31 18.5 43.6 9 9 17.7 13.9 29.5 17a63 63 0 0 0 32.8-1.8 66 66 0 0 0 39.6-41.6c1.5-5.2 3.4-24.2 2.3-23.2a20 20 0 0 0-.8 5.5c-.1 2.7-.8 6.6-1.5 8.7s-1 3.9-.7 4.2q.5.5-1.5.6c-1.2 0-2.2.6-2.2 1.4 0 1.4-4.9 3.6-8.1 3.6-1.1 0-2.9-1-4.1-2.2-2-2-2.2-2-3.4-.3-1.8 2.4-4.4 1.2-4.4-2 0-2-.8-2.9-3.5-4-1.9-.8-4.5-2.7-5.8-4.1-2.2-2.3-2.7-2.4-4.5-1.3s-2.4 1.1-3.4.1c-.6-.6-2.8-1.2-4.8-1.2q-3.6 0-5-2c-.8-1.2-2.6-2-4.2-2-1.5 0-2.8-.4-2.8-.8s-2.2-1.6-4.9-2.6q-7.8-2.8-12.3 1.2c-1.8 1.5-2.4 1.4-7.3-1.7-4-2.6-7.5-2.6-8.2-.1-.6 2.1-3.7 2.7-4.9.9-.9-1.5-7-.4-9 1.5-2.2 2.2-5.1 2-5.9-.4-.3-1.1-1.4-2-2.4-2-1.4 0-2-1.1-2.6-4.3l-1.1-5.6c-.1-.8.8-3.4 2.2-5.8 1.3-2.5 2.2-4.8 1.9-5.3s-.1-1.9.5-3q1-1.8.5-2c-.3 0-1.7 2.4-3 5.2M777 1762.9a73 73 0 0 0-25.7 10 46 46 0 0 0-19.9 50.1c2 8.3 4.8 13.1 11.5 19.2 10 9.3 19 13.3 45.6 20.3 32.6 8.6 41.6 12.1 49.2 19.4a25 25 0 0 1 8.1 17.3c1.1 14.7-8.7 27.1-26.4 33-6.2 2-8.7 2.3-23.9 2.3a88.8 88.8 0 0 1-54.7-15.2c-8.9-6-8.2-6.1-12.4 2.1l-2.5 4.8 2.3 2.6c5 5.4 20 13.5 30.3 16.3 18.5 4.9 32.7 6.5 46.1 5 21.4-2.5 33.8-7.1 44-16.4a42 42 0 0 0 14.5-33.5c.1-14-2.5-20.7-11.2-29.2-10.8-10.5-18.8-13.8-58.9-24.4-26-7-36.9-12.9-42.3-23-1.8-3.3-2.2-5.7-2.1-12.6.1-9.8 1.6-14 7.2-20.2 6.7-7.5 13.8-10.9 27.7-13.4a74 74 0 0 1 28.6.1 80 80 0 0 1 27.6 8.6c4.5 2.1 8.7 3.9 9.3 3.9 1.4 0 6.3-10.8 5.6-12.5-1.2-3.2-18.2-10.5-31.9-13.6a126 126 0 0 0-45.7-1m275.2-.4c-36.1 6.9-63.2 29.6-73.9 62a79 79 0 0 0-4.6 31 89 89 0 0 0 28.8 69.4 95 95 0 0 0 58.3 25 98 98 0 0 0 70.4-20.1l7-6.1-5.3-5.3a34 34 0 0 0-6-5.4c-.4 0-3.1 2-5.9 4.4a75 75 0 0 1-27.9 14.2 99 99 0 0 1-42.6.4 79 79 0 0 1-42.6-27 81 81 0 0 1-12.4-76.5c11.4-33 44-53.4 81.5-51a74 74 0 0 1 43.2 15.9 35 35 0 0 0 6.5 4.6c.5 0 3.2-2.4 6.1-5.3l5.2-5.3-6.7-5.8a93 93 0 0 0-34.2-17.3c-12-3.2-33.4-4-44.9-1.8m1180.3-.1a78 78 0 0 0-59.3 48.6c-12.9 32.7-9.8 81.4 7 108 11.8 18.6 28.2 28.2 53 30.9 32.9 3.7 60.8-12.8 69.8-41.2 1.6-5.3 1.6-23-.1-29.7-4.4-17.9-20.6-33.1-41-38.6a106 106 0 0 0-38.9 0c-8 2.2-16.9 6.5-23.2 11.3a54 54 0 0 0-12.8 15.4q-.1.8-1.4.9c-3.2 0-3.2-23.4.1-39 5.6-26.6 21.8-44.5 45.5-50.4 18-4.5 35.6-2.9 54 4.9 1.3.5 2.3-.6 4.7-5.4 1.7-3.3 3.1-6.4 3.1-6.9 0-2.1-12.9-6.6-25.8-9.2-6.9-1.3-27.1-1.1-34.7.4m27.6 94c8.7 3 16.6 8.9 20.7 15.3 8.3 13 8.4 31.5.2 44.8-14.9 24.1-60.8 25.8-81.3 2.9-15.6-17.4-11.3-44.5 9.3-58.1 5-3.3 15.3-7 21.5-7.7 8.9-.9 22.5.3 29.6 2.8m126.1-93.4a67 67 0 0 0-39.8 28.7 95 95 0 0 0-14.5 35.4 183 183 0 0 0-.5 55.3c6.3 32.3 25.1 56.9 49.2 64.4 28.5 8.8 57.1.9 74.7-20.6 14.7-17.9 21.7-40.8 21.7-70.7 0-24.8-4.4-43.1-14.4-59.8a69 69 0 0 0-76.4-32.7m26.9 15c20.7 3.9 36 21 43.1 48.1 1.9 7.4 2.2 11 2.2 29.4.1 21.9-.4 25.5-5.4 40.1a57 57 0 0 1-34.8 36.6 66 66 0 0 1-28.8.4c-26.2-7-42.4-36.2-42.4-76.5q0-43 21.1-64.4a48 48 0 0 1 45-13.7m-1862.6-13.8c-.3.7-.4 42.5-.3 92.8l.3 91.5 8.7.3 8.8.3.2-29.3.3-29.3 31-.7c35.8-.7 45.4-1.9 57.5-6.7a57 57 0 0 0 37.8-48.9 60 60 0 0 0-16-50.8 65 65 0 0 0-36.3-18.3c-8.7-1.9-12.9-2.1-50.5-2.1-31.9 0-41.2.3-41.5 1.2m85 15.2a51 51 0 0 1 28.9 13.5c8.7 8.1 12.6 18.4 12.6 33.1 0 24.4-12 39.2-37 45.7-7.5 1.9-66.6 3.1-69.8 1.4l-2.2-1.2v-46.4c0-36.1.3-46.4 1.3-46.8.6-.3 14-.6 29.7-.6 20.4-.1 30.8.3 36.5 1.3M909 1856v93.1l8.8-.3 8.7-.3v-185l-8.7-.3-8.8-.3zm1101-85.5v7.5l47.2.2c30.3.2 47.3.7 47.5 1.3a562 562 0 0 1-25.2 32.9l-25.5 31.9v6.3c0 4.7.4 6.3 1.6 6.8.9.3 6.6.6 12.8.6 32.5 0 51 15.1 49.4 40.4-1.2 17.8-12.9 30.2-32.9 34.6-7.5 1.7-31.2.8-39.9-1.5a97 97 0 0 1-28.2-13.4c-3-2.2-5.7-4.1-6-4.1-1.2 0-7.9 12.2-7.5 13.5.9 2.2 10.6 8.9 17.7 12.2a110 110 0 0 0 73 7.7c16-4.1 30.2-15 36.6-27.8 4.7-9.5 6.1-18.7 4.7-30.5-2.8-25-21.1-41.4-50-44.6-7.2-.9-9.3-2.5-7.2-5.5l26.2-33.1 24.8-31.1-.3-5.7-.3-5.6-59.2-.3-59.3-.2zM941.2 2038.3c-5.9 6.3 1.5 15.1 8.6 10.1 4.6-3.2 1.5-12.4-4.3-12.4-1.2 0-3.1 1-4.3 2.3m416.3 1.2c-1 .9-6.3 4-11.7 7.1-9 5.1-9.8 5.8-9.8 8.5 0 2.5.3 2.9 1.9 2.4 3.3-1 22.6-11.6 23.3-12.8 1.2-2 .9-6.7-.4-6.7-.7 0-2.2.7-3.3 1.5m-218.8 11.7c-.4 6.2-.7 27.8-.7 48v36.8h10l-.2-47.8-.3-47.7-4.1-.3-4.1-.3zm910.7-6c-6.3 3-4.1 12.8 2.8 12.8 6.4 0 9.2-8 4.2-11.9-3-2.3-3.9-2.4-7-.9m-86.7 1.5c-.2.4-.6 21.9-.8 47.8l-.4 47 5.2.3 5.1.3.4-23.8c.3-22.6.4-24 2.6-28.1 7.7-14.4 29.8-14.3 37.5.1 2.1 4 2.2 5.1 2 27.2q-.1 22.8.9 24.2c1.4 1.8 7.3 1.6 8.8-.2.9-1.1 1.1-7.5.8-25.2-.5-27.5-1.3-30.9-8.5-37.9a29.4 29.4 0 0 0-39-.3c-2 1.7-3.9 2.7-4.4 2.2s-1-8.3-1.1-17.3l-.3-16.5-4.2-.3c-2.2-.2-4.3.1-4.6.5m-430.8 19.5c-.1 4-.4 10.2-.8 13.8l-.6 6.5-13.5.5-13.5.5-.3 3.7c-.4 4.6 0 4.7 15.8 5.1l11.5.2.5 13.5.5 13.5 4.3.3 4.2.3v-9.4c0-5.2.3-11.5.6-14.1l.7-4.6h27.7v-4c0-2.2-.3-4.1-.7-4.1l-13.8-.8-13-.6-.2-11.5c-.4-15.8-.5-16-5.3-16h-4zm-718-3.2c-5.8 1-9.5 2.9-15.5 8.1-2.6 2.2-5 3.7-5.5 3.2s-.9-3.1-1.1-5.8l-.3-5h-9l-.8 51c-.4 28-.5 51.6-.2 52.3q.4 1.3 5.2 1l4.8-.3.3-22c.1-12.1.7-22.4 1.2-22.9q1-.8 5.9 3.7c6.9 6.5 10.9 8 21.1 8 6.9 0 9.5-.5 13.5-2.4 6.6-3.1 13-9.7 16.3-16.7 2.4-5.1 2.7-6.9 2.7-16.7s-.3-11.6-2.6-16.5a30 30 0 0 0-15.2-15.9 35 35 0 0 0-20.8-3.1m14.6 10.1c5.1 2.4 9.7 7.3 12.1 12.7a43 43 0 0 1-.5 26.5 25 25 0 0 1-22.3 13.7c-12.9 0-21.7-7.4-24.8-20.8s3.1-27.2 14.5-32.3a29 29 0 0 1 21 .2m56.5-9.2c-10.7 3.3-16.9 11.9-15.4 21.3 1.4 8.3 8.7 13.3 27.4 18.8 4.1 1.2 9 3.3 10.8 4.7 2.7 2 3.2 3 3.2 6.6 0 5.1-1.8 7.9-6.4 10.1-8.5 4-21.1.6-24.9-6.7-1.8-3.4-2.2-3.7-6.3-3.7-5.5 0-6.2 1.4-3.5 6.8 4.7 9.1 14.7 13.7 28.5 13 6.7-.3 9.2-.9 12.9-3.1 8.3-4.9 11.6-12.3 9.2-20.6-2.3-7.6-7.6-11.2-22.9-15.7a58 58 0 0 1-12.6-5c-10.9-7.2-5.1-19.4 9.2-19.4 6.9 0 12.6 3.2 15.1 8.3 1.7 3.4 2.2 3.7 6.3 3.7 4.2 0 4.4-.1 4.4-2.9 0-5.9-8.6-14.3-16.6-16.1a54 54 0 0 0-18.4-.1m56.3.7c-1 .4-1.3 8.4-1.3 35 0 38.1-.3 36.3 6.5 35l3.5-.7-.2-34.7-.3-34.7-3.5-.2c-1.9-.1-4.1 0-4.7.3m49.7 1c-14.3 5.2-22.2 17.1-22.4 33.9-.1 15.3 6.2 27 17.9 33 5 2.6 7.2 3 14.9 3.3 11.5.5 18.2-1.8 24.4-8 4.2-4.3 8.4-11.6 7.5-13-.2-.5-2.3-.8-4.6-.8-3.8 0-4.5.4-7.7 4.7-4.9 6.6-9.9 9.3-17.8 9.3-10.4 0-16.2-3.4-21-12.5-2.4-4.5-2.7-6.1-2.7-15.5 0-9.9.2-10.8 3.1-16 1.8-3.2 4.9-6.8 7.3-8.5 3.9-2.8 4.9-3 12.4-3 5.7.1 9.2.6 11.4 1.8 3.4 1.8 9.3 8.4 9.3 10.4q-.1 1.3 5.5 1.3c3.1 0 5.5-.4 5.5-1 0-2-3.9-8.5-7.1-11.9q-7.7-8-22.8-8.8c-6.3-.2-9.8.1-13.1 1.3m87-.7c-7 1-15.4 5.6-20.3 11.2-6.3 7.1-8.2 13.2-8.2 25.4.1 8.9.4 10.6 2.9 15.9a36 36 0 0 0 48.3 15.5c16.6-8 23.9-31.7 15.2-49.6-6.3-13-22-20.6-37.9-18.4m16.6 10c5.6 2.5 11 8.4 12.8 13.9a39 39 0 0 1-.8 24.7 24 24 0 0 1-23 14.5c-7.6 0-12.9-2.3-17.7-7.7-4.9-5.5-6.4-10.2-6.3-20.3 0-12.6 4.2-20.1 13.9-24.9a30 30 0 0 1 21.1-.2m100.1-8.9a34 34 0 0 0-25.8 21.2 46 46 0 0 0 .1 29.3 36 36 0 0 0 19 19 41 41 0 0 0 28.3-.8c17.2-7.9 25-27.7 18.5-46.7a35 35 0 0 0-19.8-20.2 46 46 0 0 0-20.3-1.8m17.8 10.4c11.6 5.4 16.9 18.8 13.1 33.5a24 24 0 0 1-13.1 16.7c-4.7 2.2-6.5 2.6-12.2 2.2-8.4-.4-13.7-3-18-8.7-4-5.1-5.4-10.3-5.4-19 0-13.3 6.2-22.9 16.9-26.1a29 29 0 0 1 18.7 1.4m60.1-8.7a35 35 0 0 0-21.6 34.4c0 21.3 13.4 35.9 32.9 35.9 8.9 0 14.6-2.1 20.9-7.6 2.9-2.6 5.7-4.2 6.3-3.8 1.4.8.6 17-1.1 22.7a24 24 0 0 1-11.1 12.8 33 33 0 0 1-22.4-.1 23 23 0 0 1-10.3-8.8c-2-2.8-2.9-3.2-6.8-3.2-5.1 0-5.5 1-2.4 6.9 5.2 10.3 18.9 16.8 32.9 15.8 4.2-.3 9.8-1.4 12.5-2.4 5.2-2 13.3-9.1 15.5-13.9l2.4-4.9a994 994 0 0 0 2.3-83c-.4-1.2-1.7-1.5-5.3-1.3l-4.8.3-.3 4.5c-.5 7.5-.7 7.6-6.6 2.3a34 34 0 0 0-33-6.6m25.9 9.6c11.7 6.4 16.7 23.6 10.7 36.9-4.6 10.4-11.8 15.2-22.7 15.2-8.2 0-13.4-2.2-18.5-8s-6.4-9.8-6.4-19.4 1.3-13.6 6.4-19.4a23 23 0 0 1 21.5-7.9c2.8.3 6.8 1.5 9 2.6m101.4-10.3c-16.2 2.8-26.9 17-26.9 35.5 0 15.7 7.6 28.4 20.6 34a31 31 0 0 0 12.4 1.8c9.9 0 15.2-1.9 21.4-7.7 5.6-5 6.6-4.7 6.6 1.9v5.5h10l.2-26.5.3-34.8v-8.2h-10l-.3 4.5c-.2 2.5-.7 4.9-1.1 5.3-.5.5-2.9-1.2-5.5-3.6a32 32 0 0 0-27.7-7.7m18.7 9.9c15.4 7 20.2 29 9.5 43.8-6.7 9.3-21.5 12.2-31.8 6.3-8.8-5-12.5-12.3-12.5-24.5q-.2-18.3 13.5-25a27 27 0 0 1 21.3-.6m-73.6 25.5v35.6h8.9l.6-5.3c.3-2.8.5-18.7.3-35.2l-.3-30-4.7-.3-4.8-.3zm305.7-33.4c-16 2.7-27.7 17.7-27.7 35.5 0 14.4 6.9 26.6 18.4 32.5 6.5 3.3 7.4 3.5 16.5 3.4 11.4-.1 15-1.4 22.3-8.2 4.6-4.2 7.8-9.3 7.8-12.2 0-.5-2-1-4.4-1-4.1 0-4.7.3-7.3 4.2-4.2 6.3-10 9.1-18.7 9.2-5.3 0-8.1-.6-11.1-2.1-5.1-2.7-6.8-4.6-9.9-11.3a40 40 0 0 1-.2-28.5c4.5-9.7 10.4-13.5 21.1-13.5 9.1 0 16.4 4.1 20.1 11.2 1.3 2.5 2 2.8 6.4 2.8 2.8 0 5-.2 5-.4l-1.9-4.8c-2.4-5.4-7.7-11-12.8-13.7a61 61 0 0 0-17.8-4zm76.6 1.8a35 35 0 0 0-20.7 18.7 41 41 0 0 0 7 41.9 37 37 0 0 0 41.2 6.3 39 39 0 0 0 16.2-16.2c2.8-6.6 4-15.4 3-22.2a33 33 0 0 0-18.6-26.4c-8.5-4.2-19.9-5-28.1-2.1m19.5 7.7c6.7 2 13.4 8.6 15.7 15.6a41 41 0 0 1-1 24.3c-2.4 5-7.6 10.2-12.3 12.2a32 32 0 0 1-21.9-.4c-11.6-6.1-16.6-22.3-11.2-36.8 4.9-13 17.1-18.9 30.7-14.9m68.7-8.6q-7.8 1.5-14.3 6.4c-11.4 8.6-16.2 26.9-11.1 41.9 5.3 15.7 15.5 23.3 31.4 23.3a28 28 0 0 0 21.7-8.4c5.2-4.7 5.6-4.5 6 2.9l.3 4.5h9l.6-14c.4-7.7.7-23.4.8-34.8l.1-20.8-5.2.3-5.3.3-.3 5.2c-.2 2.9-.7 5.3-1.2 5.3a21 21 0 0 1-5.3-4.3 33 33 0 0 0-27.2-7.8m19.3 10.7c9.8 4.9 14.8 14.5 14 26.9-1 16.1-10.7 25.5-26 25.5-10.2 0-18.5-6.1-22.7-16.8-2.1-5.2-1.7-18 .8-23.3a25 25 0 0 1 33.9-12.3m66.7-9.3a33 33 0 0 0-20.3 17.6c-2.5 5.1-2.7 6.6-2.7 17.1 0 11 .1 11.8 3.3 18.2a30 30 0 0 0 17.1 15.9 47 47 0 0 0 28.7-.8c7.1-3.7 16.6-15.5 14.9-18.3-.3-.6-2.4-1-4.6-1-3.6 0-4.3.5-7.2 4.6a22 22 0 0 1-18.7 9.4c-10.3 0-16.1-3.5-20.8-12.5-2.4-4.5-2.6-6.1-2.6-15.6 0-10.3.1-10.8 3.4-16.3 4.8-7.9 10.2-11.1 19-11.1 3.6 0 7.7.3 9.2.8 3.5.9 9.5 6.1 11.4 9.8 1.3 2.6 2 2.9 6.5 2.9 4.8 0 5-.1 4.3-2.3-2-6.7-7.3-12.6-14.5-16.2a46 46 0 0 0-26.4-2.2m203.5 1.2c-2.5.8-6.5 3.1-8.8 5-2.3 2-4.6 3.4-5.2 3-.5-.3-1-2.2-1-4 0-2.8-.5-3.6-2.4-4.1a15 15 0 0 0-4.7-.2c-2.1.3-2.5 1-3.1 5.8-.3 3-.6 18.7-.7 34.7l-.1 29.3 2.5.6c1.4.3 3.6.3 4.9 0l2.3-.6.5-22.9c.4-22 .5-23.1 2.9-27.7 1.5-2.9 4.2-6.1 6.8-7.9 3.9-2.7 5-3 12-3 6.7 0 8.3.4 11.8 2.7 2.2 1.5 5.1 4.4 6.4 6.5 2.3 3.7 2.4 4.7 2.9 28.3l.5 24.5h9v-26c0-26 0-26-2.6-31-5.9-11.4-20.6-17.1-33.9-13m-57.1.5c-.6.4-.8 13.6-.7 35.1l.3 34.4 3.3.3c6.3.6 6.2 1.4 6.2-35.9 0-26.4-.3-33.9-1.2-34.1-3.5-.4-7-.3-7.9.2m137.1-.1a34 34 0 0 0-21.8 17.3 49 49 0 0 0-3.6 22c2.8 20.3 14.7 31.7 32.9 31.8q14 0 22.1-8.6c5-5.2 5.7-3.9 5.2 8.6-.4 9.4-.8 11.3-3.2 15.4-4.2 7.2-9.3 10-18.8 10.5q-16.4.8-23-10.5c-1.8-3-2.5-3.4-6.4-3.4s-4.4.2-4.4 2.4c0 1.3 1.5 4.6 3.3 7.2 10.4 15.7 39.8 18 53.5 4.3 1.9-1.8 4.5-5.6 5.9-8.3 3.5-6.9 4.4-20.2 4.1-58.1l-.3-30h-9l-.3 4.8c-.4 6.2-2.1 6.8-6.5 2.5a34 34 0 0 0-29.7-7.9m22.3 10.9c8.3 4.4 12.7 12.7 12.7 24a28 28 0 0 1-7.6 20.8 24.5 24.5 0 0 1-34.9-.1c-5.2-5.2-7.5-11.6-7.5-21.1 0-16.8 12.3-28.5 28-26.7 2.5.3 6.6 1.7 9.3 3.1"/><path fill="#3e3e3e" d="M1197.5 1041.1q-.8 1.8-1.9 1.6c-2.2-.9-16.5 19.9-27.1 39.3a378 378 0 0 0-46.7 140.5 305 305 0 0 0-2.2 48c-.1 33.2.9 43 6.9 73a379 379 0 0 0 38.8 103 295 295 0 0 0 38.4 57.1c25.4 30.1 36.6 41.5 56.8 57.9l10.6 8.6c12.2 10.1 39 26.6 60.9 37.5 39.9 20 83.7 33.2 126.5 38 18.6 2.1 61.6 2.4 82.5.5a378 378 0 0 0 180.7-64.9c42-28.2 80.7-68.3 107-110.7 14.9-24 29.6-52.9 29.5-58q-.1-3 .8-1.5 1 2 1.1 0v-2.9q-.2-1.1.7-.7c.5.3 1.5-1.6 2.2-4.2s1.7-5.1 2.1-5.7c1.6-1.6 1-5.5-.7-5.5q-1.8.1-.9-2.3l1.4-5.2q.9-3.6 1.6-1.3c.4 1 .5 2.5.1 3.3q-.4 1.4.4 1.5c.6 0 1.1-1.1 1.2-2.5l.2-3.8c.1-.7-1-1.2-2.4-1.1q-4.2.5-4-4.6c0-2.1-3.6-6-4.4-4.8-3.4 4.7-4.6 6.9-4.6 8.2 0 2.3-2.1 2-2.7-.4q-.6-1.9-2.7-2-2 0-.9-.8c1.5-1 2.6-7.4 1.5-9-1.2-1.8-5.2-1.1-6.6 1.1-.8 1.4-.8 2 .4 2.7q1.9 1.1-.7 1-2 .1-2.6 1.2c-.4 1-.7 1-1.8 0q-3.3-3-4.2 1.5-.4 4-.6-.5c-.1-2.6.3-3.2 1.9-3.2s2-.7 2-3.5c0-3.1-.3-3.5-2.5-3.5-1.4 0-3 .9-3.7 2q-1.3 2-4.7 2c-2.5 0-4.2.8-6.3 3-1.5 1.6-3.3 3-3.8 3s-1-1.4-1-3q0-3-1.5-3-1.6 0-1.5-3.6c0-2.5-.8-4.4-3-6.7-1.6-1.8-3-3.6-3-4q0-.7-1-.2t-1-.7c-.1-.7-2 3.4-4.4 9.2a334 334 0 0 1-32.9 60c-24.9 37.5-50.9 65-73.2 77.5a55 55 0 0 0-9 6.9c-12 12.2-30.3 24.1-60.5 39.2a311 311 0 0 1-55 22.7 400 400 0 0 1-103.5 19.5c-18.8 1-18.6 1-44.5 0a329 329 0 0 1-74-10.2l-9-2.6c-2.5-.6-8.5-2.4-13.5-4s-10.8-3.2-13-3.5c-2.2-.4-4.4-1-5-1.5s-4-1.7-7.6-2.9c-8.1-2.7-19.3-8.3-19-9.6.3-1.6 7.1-.5 9.1 1.5 1 1 4.4 2.6 7.5 3.5 3.2.9 6.8 2.3 8.1 3.2 1.3.8 3.3 1.3 4.4 1q1.8-.5 2 .3c0 1.2 8.4 3.1 8.8 2 .6-1.6 3.4-1.1 5.1.9 2.2 2.5 8.1 3.3 8.2 1.2q0-2 .6-.1c1 2.4 4.7 5 5.7 3.9 1.4-1.3 5.3-1.1 5.9.3q.6 1.4 1.4.2c1.3-1.8 5.3-3.6 5.3-2.4 0 1.1 3.9 1.4 6.4.4 1.9-.7 2.3-8.4.4-8.4q-.8-.2 1.2-2.5 4.3-4.5 3.3-.5-.7 2.1 1.5 2c1.6 0 2.1-.9 2.7-4.6q.6-4.5-.4-5.7c-.6-.6-1.1-2.6-1.1-4.4 0-2.6.4-3.3 1.9-3.3q5 0 5.1-3.1c0-1-.7-1.9-1.5-1.9q-1.3-.2-1.5-1.5 0-1.3-1-1.5t-1-1.8a5 5 0 0 0-1.2-3q-1.6-1.4 1-1.8c1.9-.5 2.2-1.3 2.2-5.1 0-3.6-.4-4.6-2-5q-1.8-.5-2-1.7c0-1.2-6-5.6-7.6-5.6-.5 0-3.2-1.5-5.9-3.3a71 71 0 0 0-8.5-4.7c-6-2.4-16.2-8.2-22.5-12.5-3.3-2.4-7.8-5.2-10-6.4-3.8-2-19-12.5-22.7-15.5-.9-.8-2.6-2-3.8-2.6-5.6-3-40-35.5-40-37.8 0-.7 3.9 2.6 8.8 7.5 4.8 4.8 11 10.6 13.8 12.8l10.4 8 11.8 9.3c3.7 2.9 8.7 6.4 11.2 7.8a77 77 0 0 1 9 5.9c2.5 1.9 7.3 5 10.7 6.8 23 12.1 38.2 19.4 47.3 22.7 31.8 11.7 72.4 20.1 98 20.3 23.4.2 85.5-12 110.5-21.8a365 365 0 0 0 93-54c14.5-11.6 19.5-16.2 19.5-17.7 0-.7 1.2-2.5 2.8-4.1q2.3-2.7 1.5-2.3-1.2.5-1.3-.1c0-1.1 3-5.6 4.3-6.4.6-.4 1-2.1 1.1-3.8 0-1.7.7-3.3 1.4-3.6 1.7-.6 1.5-2.3-.3-2.7-1.3-.3-1.2-.9.6-4.2 1.1-2.2 2.7-4.6 3.5-5.3 1.8-1.8 1.8-3.1 0-4.9-2.3-2.3-5.5-1.7-6.2 1.1-.5 2.1-.8 2.2-2 1q-2.7-2.7.1-4.3 1.5-.9.9-2.5c-.7-1.8-2.4-2.3-2.4-.7q-.2.9-2.5 1-2.5 0-2.5-1.5-.1-1.3-1.9-1.5c-1 0-2.1-.9-2.4-2q-.6-1.8-2.4-2c-1 0-3.3-.9-5.2-2.1a9 9 0 0 0-7-1.4c-2.9.5-3.8.2-4.9-1.5q-1-1.9-.2-2c.5 0 1-1.1 1-2.5 0-2 .5-2.5 2.5-2.5 1.4 0 2.5-.5 2.5-1s1-2.1 2.3-3.4c4.6-4.7 5.1-5.5 2.8-5.3q-2 .2-2.1 1.8c0 1.7-3 4.9-3 3.3q-.1-.7-1 .6-1.2 2-1 0 0-1.4-.8-.4c-1.3 1.9-14.6 12-25.7 19.6a274 274 0 0 1-62.8 32.9c-31.9 11.4-74.3 18.8-101.2 17.6a274 274 0 0 1-131.9-38.9 223 223 0 0 1-72.1-68.8 214 214 0 0 1-30-65c-15-51.7-11.9-98.1 10.2-153.5 2-5 4-9.5 4.5-10.1.9-1.2-1.6-3.9-2.9-3.1-.4.2-1.7.1-2.8-.4q-2.5-.8-.3-.8c1.8-.1 5.4-5.8 4.4-6.9-.3-.3-1.7 0-3 .8-2.9 1.5-5.6.7-5.6-1.5q-.1-1.6-1.7-1.3-1.8.3-1.8 3.1 0 2.7-.9 1.7c-.6-.6-1.8-1-2.7-1q-1.7 0-2.1-1c-.1-.5-2.2-1.1-4.5-1.2q-4-.3-3.2-1.3c.5-.5.9-2.2.9-3.8 0-2.7-.2-2.9-3.2-2.5a19 19 0 0 1-7.2-.8q-4-1.2-1.8-1.3c1.7-.1 2.2-.7 2.2-3 0-2.4-.5-2.9-3.1-3.5l-4.5-.6c-1.7 0-1.8 2.7-.1 3.3q.8.5-1.5.6c-2.5.1-2.8-.3-2.8-2.9 0-3-1.7-3.9-3.6-2q-1 1-2.9-1c-1-1.1-2.3-2-3-2-1.5 0-3.9 7.6-2.9 9.2q.6 1-.4.4a3 3 0 0 1-1.2-2.2c0-1.8-6.6-2-7.3-.2q-.5 1-.6-1c-.1-3.1-3.1-2.9-3.1.3q.1 2.3 1 2.5 1 .1 1 1.6-.1 1.3-1.1.9c-.6-.4-2.5.9-4.4 2.9-1.8 2-3.5 3.6-3.8 3.6-1 0 1.1-7.9 3.5-12.6 5.8-11.5 9.7-20.1 10.3-22.7.4-1.5 1.7-3.5 2.9-4.5 2.5-1.9 7-10.2 5.7-10.2q-1 .2-1.6 2.1m-20.5 52.8a5 5 0 0 1-2.5 4.5c-2.4 1.6-2.5 1.6-2.5-.4 0-2.9 2.9-8.2 4-7.5.6.4 1 1.9 1 3.4m-8 19.3c0 2.5-1.2 5.8-2.1 5.8s-1.2-3.1-.3-5.4c.7-1.9 2.4-2.1 2.4-.4m92.4-23.5q-.6 1.7-.6 2.5t-1.3.8-1.5.8q.2.7 2 .8 1.8-.1 2-1.3 0-1.2.9-1.3t1.4-2c.6-2.5-1.8-2.7-2.9-.3m553.8 269c.4 2.2 4.3 2.5 4.3.3 0-.8-1.1-1.6-2.3-1.8-1.9-.3-2.3 0-2 1.5m-.2 5.8c0 2 .5 2.5 2.5 2.5s2.5-.5 2.5-2.5-.5-2.5-2.5-2.5-2.5.5-2.5 2.5m49.5 2.6q-.7 2.2.6 3 1.5.9.2.9c-1.5 0-1.7 4.8-.3 7q.9 1.3 1.3 1c.5-.7 2.7-10.8 2.7-12.6 0-2.2-3.8-1.6-4.5.7m-190.1 12.4c-.7 1.8.3 3.5 2.1 3.5 1.5 0 2.8-2.7 1.9-4.1s-3.4-1.1-4 .6m-890.2 383.1q-1.6 3.1-3.2.5c-.9-1.6-15 2.2-23.6 6.4a58 58 0 0 0-11.6 7.5c-5.4 4.7-12 14.2-12.2 17.5q0 2-.6 1.9c-.2-.3-1 1.9-1.7 4.8-1.5 6.4-1.7 17.8-.3 17.8q.9.2.8 1.7c-.3 4.4.2 7.4 1.3 6.7q1.1-.6.7.7c-1.5 4.2 10.2 17 20.7 22.7 3 1.7 8.8 4.1 12.8 5.5a231 231 0 0 0 37.2 9.7c-.3.5 1.1 1.2 3.2 1.6a39 39 0 0 1 7.1 2.1c1.9.8 3.1.9 2.7.4q-.4-1 1-1.1 1.5 0 1.1.9c-.3.4 2.7 2.4 6.7 4.4 3.9 2 9.2 5.5 11.6 7.7 4.7 4.2 6.1 4.9 6.1 2.7 0-1.5-3.1-4.7-4.6-4.7-.5 0-1.6-.9-2.4-2s-2-2-2.7-2q-1.2 0-1.3-.8c0-.8-4.9-3.2-6.7-3.2q-1.2-.1-1.3-1t-1.9-1c-1.1 0-2.3-.5-2.6-1s-1.6-1-2.9-1-2.6-.4-3.2-.9c-.5-.5-2.5-1.1-4.4-1.2-1.9-.2-3.7-.7-4-1.1s-2.4-.9-4.7-1c-2.3-.2-3.9-.6-3.7-.9.3-.6-12.8-3.6-13.5-3q-.4.1-1-.8c-.4-.5-2.3-1.1-4.4-1.3-2-.1-3.7-.6-3.7-1q-.2-.7-1.9-.8a6 6 0 0 1-3.5-1.5 5 5 0 0 0-3-1.5q-1.5-.1-1.6-1t-2.5-1c-1.4 0-2.5-.5-2.5-1q-.2-1-2.5-1c-1.4 0-2.5-.5-2.5-1q0-1-1-1a76 76 0 0 1-16.5-15.2c-1.6-2-3.5-8.2-3.5-11 0-1.5-.5-2.8-1.1-3-1.5-.5-1.8-12.8-.3-12.8.7 0 1.4-1.5 1.6-3.3.8-5.5 4.2-13.1 7.1-15.9 1.5-1.4 2.7-3 2.7-3.5s1-1.5 2.1-2.3 2.7-2.1 3.5-2.8q1.2-1 2.3-1.2t1.1-1q.2-1 1.5-1 1.3-.1 1.5-1.6 0-1.3.9-.9c1.2.7 9.1-1.7 9.1-2.7 0-.5 1.4-.8 3-.8s3-.5 3-1 2.8-1 6.4-1c3.5 0 6.6-.4 6.8-.9s6.4-1.1 13.9-1.3c10.6-.2 13.5 0 13.2.9s1 1.3 5.1 1.3c3.1 0 5.6.4 5.6 1s2 1 4.5 1 4.5.4 4.5 1 1.1 1 2.5 1 2.5.4 2.5 1 1.1 1 2.5 1 2.5.4 2.5 1q.2.9 1.5 1c.9 0 2.1.5 2.8 1s2 1.7 3.1 2.4c1.7 1.1 1.7 1.7.7 4.9-1.4 4.1-2 4.3-6.2 2.2a146 146 0 0 0-30.4-9.2q-2.4-.5-.5.6 1.3 1 .5 1.2c-.5 0 1.9.7 5.5 1.5 3.6.7 10 2.8 14.2 4.5 4.3 1.7 8 3 8.3 3 .3-.1 1.5.8 2.7 1.9 3.7 3.4 5.7 2.6 8.4-3.6 1.4-3.1 2.3-6.2 2-6.9-.6-1.6-7.5-5.5-15.9-8.8a116 116 0 0 0-39.3-7.5c-13.1-.4-14.2-.3-15.2 1.4m273.5-.9q-1.5.5-1.2 1.4c.4.5 6.9.9 14.6.9 8.6 0 13.9.4 13.9 1s2.5 1 5.5 1 5.5.4 5.5 1 1.6 1 3.5 1 3.5.4 3.5 1 1.4 1 3 1 3 .4 3 1q.2.9 1.5 1t1.5 1 2 1 2 1 2 1 2 .8c0 .4 1.4 1.3 3.1 2.1 3.8 1.7 9.9 6.9 9.9 8.5 0 .6-1.1 2.3-2.5 3.8-2.1 2.3-2.9 2.6-5 1.8-2.6-1-7.5-4.2-10.8-7.2-1.1-.9-3.3-2.2-5.1-2.8l-5.1-2a74 74 0 0 0-23.2-5.3c-5.4-.4-6-.3-4.8.9.8.8 3.4 1.4 6.1 1.4 5.5 0 16.8 3.2 23.7 6.6 2.6 1.4 4.7 2.2 4.7 1.9q.2-.3 1.8.9a96 96 0 0 0 13.9 10.6c.5 0 3.2-2.4 6.1-5.3l5.2-5.3-6.7-5.8c-11.1-9.6-32.7-18.9-43.5-18.8-2.1.1-4-.3-4.3-.9-.6-.9-22.4-1.1-25.8-.2m1174.8.7a78 78 0 0 0-59.3 48.6c-12.9 32.7-9.8 81.4 7 108 11.8 18.6 28.2 28.2 53 30.9 32.9 3.7 60.8-12.8 69.8-41.2 1.6-5.3 1.6-23-.1-29.7-4.4-17.9-20.6-33.1-41-38.6a106 106 0 0 0-38.9 0c-8 2.2-16.9 6.5-23.2 11.3a54 54 0 0 0-12.8 15.4q-.1.8-1.4.9c-3.2 0-3.2-23.4.1-39 5.6-26.6 21.8-44.5 45.5-50.4 18-4.5 35.6-2.9 54 4.9 1.3.5 2.3-.6 4.7-5.4 1.7-3.3 3.1-6.4 3.1-6.9 0-2.1-12.9-6.6-25.8-9.2-6.9-1.3-27.1-1.1-34.7.4m27.6 94c8.7 3 16.6 8.9 20.7 15.3 8.3 13 8.4 31.5.2 44.8-14.9 24.1-60.8 25.8-81.3 2.9-15.6-17.4-11.3-44.5 9.3-58.1 5-3.3 15.3-7 21.5-7.7 8.9-.9 22.5.3 29.6 2.8m126.1-93.4a67 67 0 0 0-39.8 28.7 95 95 0 0 0-14.5 35.4 183 183 0 0 0-.5 55.3c6.3 32.3 25.1 56.9 49.2 64.4 28.5 8.8 57.1.9 74.7-20.6 14.7-17.9 21.7-40.8 21.7-70.7 0-24.8-4.4-43.1-14.4-59.8a69 69 0 0 0-76.4-32.7m26.9 15c20.7 3.9 36 21 43.1 48.1 1.9 7.4 2.2 11 2.2 29.4.1 21.9-.4 25.5-5.4 40.1a57 57 0 0 1-34.8 36.6 66 66 0 0 1-28.8.4c-26.2-7-42.4-36.2-42.4-76.5q0-43 21.1-64.4a48 48 0 0 1 45-13.7m-1364-14.9A97 97 0 0 0 990 1801a91 91 0 0 0-16 45.1c0 8.2 1.6 6.7 2.3-2.3.3-4 1.1-7.4 1.7-7.6q.9-.5 1-2.1a98 98 0 0 1 7.6-22 26 26 0 0 0 2.4-5.2c0-.5.8-1.7 1.8-2.7l5.7-7.1q8.3-11 10.3-11.1 1 0 1.4-.8c.5-1.2 12.5-9.2 13.8-9.2q1.1-.1.7-1.3-.7-1.4 2.4-.9 2.7.4 2.9-.7.2-1 2.5-1.1c1.4 0 2.5-.5 2.5-1s1.4-1 3-1 3-.5 3-1 1.6-1 3.5-1 3.5-.5 3.5-1 2.5-1 5.5-1 5.5-.4 5.5-.8c0-1-2.2-3.2-2.9-3.1zm-498.5.8c-.4.5-.1 2.2.6 3.8 1.1 2.7 1.2 2.7 1.5.5l.4-2.2h42.5c27.6 0 42.4.3 42.4 1 0 .5 2.3 1 5 1s5 .4 5 1 1.4 1 3 1 3 .4 3 1 1.1 1 2.5 1 2.5.4 2.5 1q0 .9 1.2 1c1.6 0 13.8 7.9 16.3 10.6A63 63 0 0 1 690 1804a114 114 0 0 1 4 22.9c.1 3 .2 3.3 1.1 1.8.6-1 .8-3 .4-4.5s-.9-5.1-1.1-8.1a56 56 0 0 0-24.7-40.5 79 79 0 0 0-27.2-10.5c-8.7-1.9-12.9-2.1-50.4-2.1-23.7 0-41.2.4-41.5.9M909 1856v93.1l8.8-.3 8.7-.3v-185l-8.7-.3-8.8-.3zm15.4-85.4c.8 6.2.8 135-.1 157.2l-.6 17.3-6.1-.3-6.1-.3-.3-89.3-.2-89.2h12.7zm1085.6-.1v7.5l47.2.2c30.3.2 47.3.7 47.5 1.3a562 562 0 0 1-25.2 32.9l-25.5 31.9v6.3c0 4.7.4 6.3 1.6 6.8.9.3 6.6.6 12.8.6 32.5 0 51 15.1 49.4 40.4-1.2 17.8-12.9 30.2-32.9 34.6-7.5 1.7-31.2.8-39.9-1.5a97 97 0 0 1-28.2-13.4c-3-2.2-5.7-4.1-6-4.1-1.2 0-7.9 12.2-7.5 13.5.9 2.2 10.6 8.9 17.7 12.2a110 110 0 0 0 73 7.7c16-4.1 30.2-15 36.6-27.8 4.7-9.5 6.1-18.7 4.7-30.5-2.8-25-21.1-41.4-50-44.6-7.2-.9-9.3-2.5-7.2-5.5l26.2-33.1 24.8-31.1-.3-5.7-.3-5.6-59.2-.3-59.3-.2zm-1222.1 3.9c-.3.3-3.2.8-6.4 1.2a30 30 0 0 0-7.7 1.5c-.9.5-2.5.9-3.4.9-4.9 0-15.7 7.8-19.8 14.4a43 43 0 0 0-3.4 29c1.7 5.9 4.1 9 11.5 14.6 7.8 5.9 17.6 9.4 42.8 15.1 9.9 2.2 11.8 2.8 12.6 4.1q.9 1.6 1.9-.2 1.1-2 1 .2 0 1.8 4.3 2.8a54 54 0 0 1 29.8 16.2c5.4 5.6 7 8 8.3 12.7 3.5 12.5 1.1 28.7-5.3 36.4-8.4 10-18.5 17.7-23.1 17.7q-1.8 0-2 1c0 .5-1.3 1-3 1s-3 .4-3 1-2 1-4.5 1-4.5.4-4.5 1-7.5 1-20.5 1-20.5-.4-20.5-1-2-1-4.5-1-4.5-.5-4.5-1-1.6-1-3.5-1-3.5-.5-3.5-1-1.1-1-2.5-1-2.5-.5-2.5-1-1.1-1-2.5-1-2.5-.5-2.5-1q-.2-1-2-1-1.8-.1-2-1t-1.8-1c-1 0-2.4-.9-3.2-2s-2-2-2.7-2q-1.2-.1-1.3-1t-1.1-1q-1-.2-2.6-1.5c-1.3-1.4-1.3-1.9.1-4.9q3-6.6 7.1-2.6c1.2 1.1 2.7 2 3.3 2q1.1 0 1.2.9a48 48 0 0 0 16 8l6.5 2.1q7.7 3.1 17.6 2.9c8 0 7.1-1.7-.9-1.8a93 93 0 0 1-40.4-14.8c-6.2-4.1-8.3-5.1-9-4.1-2.3 3.4-2.8 4.9-2.2 6q.6 1-.3.5-1-.4-2.2 2c-1 2.2-.9 2.9 1.1 5 3 3.3 10.8 8.6 12.5 8.6q1.2.1 1.3.8c0 .9 14.7 6.7 18 7.1 1.4.2 2.7.6 3 1 .3.3 2.3.8 4.5 1s4.3.7 4.7 1.2c.3.5 5.7.9 11.9.9 6.4 0 10.5.4 9.4.8q-2.1.8 2.5.7c3.6 0 4-.2 2-.7-1.5-.5 1.1-.8 6.5-.8 16.9.1 33.3-5.7 44.1-15.6a42 42 0 0 0 14.5-33.5c.1-14-2.5-20.7-11.2-29.2-10.8-10.5-18.8-13.8-58.9-24.4-26-7-36.9-12.9-42.3-23-2.8-5.3-3-19-.3-25 4-8.9 14.8-17 26.1-19.7 2.8-.6 5.7-1.4 6.5-1.7s7-.7 13.8-.7a57 57 0 0 0 13-1q.5-.7-.5-.1-1.2.6-1.3-.2a70 70 0 0 0-20.1-.8m-218.1 1.4c-1.4.2-3 .9-3.5 1.5s-.7 22.9-.5 49.5c.3 51.4.2 50.6 5 48.7 1.5-.6 1.5-.8-.5-2.2l-2.3-1.5V1779l2.3-.5c1.3-.4 16.2-.5 33-.3 27.1.3 33.9-.1 29.5-1.7-1.5-.5-59-1.1-63-.7m486.3.1c-2.5.3-4.6 1.2-4.9 2-.3 1 .5 1.2 3.9.7 8.1-1.3 9.9-1.8 9.9-2.7s-1.8-1-8.9 0m-420.1 2.8q.2 1.2 3 1.4c5 .3 5.5.4 6 1 .9 1 9 3.9 9 3.2q.1-.5 1.3.8c.6.8 2.9 2.7 5 4.3 2.9 2.2 3.7 2.4 3.7 1.1 0-1.9-2.3-4.5-3.9-4.5q-1 0-1.1-.8c0-1.5-11.6-5.9-18.7-7.1-3.3-.6-4.3-.5-4.3.6m408.2-.1c-6.9 1.8-15.2 5.4-15.2 6.5q-.1.8-1.9.9c-1 0-2.4.7-3.1 1.5q-1.2 1.3-2.1 1.5a58 58 0 0 0-19.8 21.1 66 66 0 0 0-10.7 26.2c-1.4 6.8-2 33.7-.8 35 .4.4.8 2.3 1 4.2a71.7 71.7 0 0 0 53.9 57.4c1.1.5 3.6 1.3 5.6 2 4.5 1.4 37.5 1.5 38.4.1.3-.6 2.2-1 4.1-1s3.4-.5 3.4-1 1.1-1 2.3-1c3.1 0 15.8-6.2 18.8-9.2 1.3-1.3 4.1-3.3 6.1-4.5l3.7-2.2 3.1 3.7 3.1 3.7-3.4 3c-5.9 5.2-7.7 6.5-9.2 6.5q-1.3 0-1.5 1t-1.5 1-1.5 1-1.5 1-1.5 1-2 1-2 1-2.5 1-2.5 1c0 .5-1.6 1-3.5 1s-3.5.4-3.5 1-2 1-4.5 1-4.5.4-4.5 1-6.8 1-18.5 1c-12.8 0-18.5-.3-18.5-1.1q-.1-1.1-4.9-.7c-3.6.2-4.7 0-4.4-1q.6-1.2-3.1-1.2c-2 0-3.6-.5-3.6-1q-.2-1-2.5-1-2.3-.1-2.5-1t-1.8-1c-2.2 0-7.2-2.2-7.2-3.3q-.1-.7-1.5-.7-1.4-.1-1.5-1t-1.5-1-1.5-1-1.5-1-1.5-1-1.5-1-1.5-1q-.2-1-2.2-1t-1.5-.6c.9-.9-6.4-7.5-7.5-6.7q-1 .4-.4-.5c.6-1.1-6.4-11.8-8.7-13.3a10 10 0 0 1-2.2-4l-3.8-9.4a99 99 0 0 1-3.9-11c-.7-2.8-1.7-5.3-2.2-5.6-.5-.4-1.1-4.1-1.4-8.3s-.9-7.6-1.3-7.6c-1.2 0-1.2 12.7-.1 13.4.5.3.9 1.9 1 3.6.1 4.2 3.8 15.1 7.7 23a96 96 0 0 0 31.3 34.6 100 100 0 0 0 27.2 12c2.4.8 5.2 1.3 6.2 1.1q1.6-.4 1.3.3c-.7 1.1 11.5 2.3 16.1 1.5q4.2-.8 2.4.4-2 1.2 2.8 1.1c2.3 0 4.2-.3 4.2-.8s3.3-.8 7.3-.9a88 88 0 0 0 48.9-19.5l7-6.1-5.3-5.3a34 34 0 0 0-6-5.4c-.4 0-3.1 2-5.9 4.4a75 75 0 0 1-27.9 14.2 99 99 0 0 1-42.6.4 79 79 0 0 1-42.6-27 81 81 0 0 1-3.6-94 81 81 0 0 1 41-30.1c2.6-.7 4.7-1.9 4.7-2.6q0-1.2-.2-1.2zm-379.1 12.6c-.1 2.1 3.8 7 5 6.2.5-.2.5-1.2.2-2-.5-1.3-.7-1.3-1.4-.2q-.9 1.4-.9-1 0-2.1-.9-1.7-1 .3-1.4-1.2-.5-2.5-.6-.1m5.6 7.5c-.5.9 2.8 7.5 3.4 6.9.2-.3.5.9.6 2.6s.7 3.6 1.3 4.3c1.3 1.6 1.2 28.8-.1 27.9q-.8-.3-.9 1.1c0 2.9-5 11.8-8.8 15.8A55 55 0 0 1 630 1873c-2.5 0-7 .3-10 .7-4.9.6-5.2.8-2.5 1.4 8.2 1.8 29.4-.3 30.3-3q.5-1 1.8-1.1c2.6 0 13.3-6.1 16.9-9.7 2-2 4.3-5.4 5.2-7.5.8-2.1 1.9-3.8 2.3-3.8s1.5-2.4 2.5-5.3c3.6-11.1 2.3-39.1-2-42.3q-1.4-1.1-1.5-2.2c0-1.4-1.7-2.5-2.3-1.5m22 37.6c-.3 2.9-1.3 7-2.3 9.2l-3.7 8.2c-1 2.4-4.2 6.8-7 9.9a73 73 0 0 1-18.6 14.4q-1 0-1.1 1c0 .5-1.3 1-3 1s-3 .4-3 1-1.3 1-3 1-3 .4-3 1-2 1-4.5 1-4.5.4-4.5 1-12.3 1-35 1c-31.7 0-38.2.5-33.7 2.4q.8.4-1.5 0-2.9-.6-2.9.7l.1 25c.1 12.9-.1 25.2-.5 27.2l-.7 3.7H559q-5.7 0-6.3-1.3c-.7-1.6-2.8 1.2-2.4 3.3.2 1.2 2.1 1.6 8.9 1.8l8.8.3.2-29.3.3-29.3 26.8-.3c14.7-.1 26.6-.6 26.3-1-.2-.4 3.3-.7 7.9-.8 28.9-.2 54.2-16.4 62.3-39.9 2.4-7 3.9-17.5 2.5-17.5-.6 0-1.3 2.4-1.6 5.3m-89.4 52.4c-2.4.2-6.2.2-8.5 0-2.4-.2-.5-.4 4.2-.4s6.6.2 4.3.4m240.1 1c.6 1.3 1.8 2.3 2.6 2.4q1.3 0 .5.5c-.6.2-.9 3.7-.8 7.9.2 7.9-1.4 12.6-6.4 19.2a48 48 0 0 1-28.7 14.3c-1.7 0-3.8.5-4.6 1q-1.8 1 4.8 1c3.5 0 6.2-.4 6.2-1q.2-1 2.5-1c6.3 0 22.5-10.1 22.5-14q0-1 .9-1c.5 0 1.8-2 3-4.5 1.6-3.5 2.1-6.4 2.1-13.4 0-5-.4-9.3-1-9.6s-1-1.5-1-2.5q0-1.8-1.8-1.7c-1.5.1-1.7.5-.8 2.4m-54.8 46.8c-1.8 1.4-.9 1.5 8.5 1.4 7.6-.1 9.5-.3 7-.9a10 10 0 0 0-4.7-.3q-1.1.3-1.9-.6c-.9-1.6-6.7-1.3-8.9.4m152.6 101.8c-5.9 6.3 1.5 15.1 8.6 10.1 4.6-3.2 1.5-12.4-4.3-12.4-1.2 0-3.1 1-4.3 2.3m416.3 1.2c-1 .9-6.3 4-11.7 7.1-9 5.1-9.8 5.8-9.8 8.5 0 2.5.3 2.9 1.9 2.4 3.3-1 22.6-11.6 23.3-12.8 1.2-2 .9-6.7-.4-6.7-.7 0-2.2.7-3.3 1.5m-218.8 11.7c-.4 6.2-.7 27.8-.7 48v36.8h10l-.2-47.8-.3-47.7-4.1-.3-4.1-.3zm910.7-6c-6.3 3-4.1 12.8 2.8 12.8 6.4 0 9.2-8 4.2-11.9-3-2.3-3.9-2.4-7-.9m-86.7 1.5c-.2.4-.6 21.9-.8 47.8l-.4 47 5.2.3 5.1.3.4-23.8c.3-22.6.4-24 2.6-28.1 7.7-14.4 29.8-14.3 37.5.1 2.1 4 2.2 5.1 2 27.2q-.1 22.8.9 24.2c1.4 1.8 7.3 1.6 8.8-.2.9-1.1 1.1-7.5.8-25.2-.5-27.5-1.3-30.9-8.5-37.9a29.4 29.4 0 0 0-39-.3c-2 1.7-3.9 2.7-4.4 2.2s-1-8.3-1.1-17.3l-.3-16.5-4.2-.3c-2.2-.2-4.3.1-4.6.5m-430.8 19.5c-.1 4-.4 10.2-.8 13.8l-.6 6.5-13.5.5-13.5.5-.3 3.7c-.4 4.6 0 4.7 15.8 5.1l11.5.2.5 13.5.5 13.5 4.3.3 4.2.3v-9.4c0-5.2.3-11.5.6-14.1l.7-4.6h27.7v-4c0-2.2-.3-4.1-.7-4.1l-13.8-.8-13-.6-.2-11.5c-.4-15.8-.5-16-5.3-16h-4zm-718-3.2c-5.8 1-9.5 2.9-15.5 8.1-2.6 2.2-5 3.7-5.5 3.2s-.9-3.1-1.1-5.8l-.3-5h-9l-.8 51c-.4 28-.5 51.6-.2 52.3q.4 1.3 5.2 1l4.8-.3.3-22c.1-12.1.7-22.4 1.2-22.9q1-.8 5.9 3.7c6.9 6.5 10.9 8 21.1 8 6.9 0 9.5-.5 13.5-2.4 6.6-3.1 13-9.7 16.3-16.7 2.4-5.1 2.7-6.9 2.7-16.7s-.3-11.6-2.6-16.5a30 30 0 0 0-15.2-15.9 35 35 0 0 0-20.8-3.1m14.6 10.1c5.1 2.4 9.7 7.3 12.1 12.7a43 43 0 0 1-.5 26.5 25 25 0 0 1-22.3 13.7c-12.9 0-21.7-7.4-24.8-20.8s3.1-27.2 14.5-32.3a29 29 0 0 1 21 .2m56.5-9.2c-10.7 3.3-16.9 11.9-15.4 21.3 1.4 8.3 8.7 13.3 27.4 18.8 4.1 1.2 9 3.3 10.8 4.7 2.7 2 3.2 3 3.2 6.6 0 5.1-1.8 7.9-6.4 10.1-8.5 4-21.1.6-24.9-6.7-1.8-3.4-2.2-3.7-6.3-3.7-5.5 0-6.2 1.4-3.5 6.8 4.7 9.1 14.7 13.7 28.5 13 6.7-.3 9.2-.9 12.9-3.1 8.3-4.9 11.6-12.3 9.2-20.6-2.3-7.6-7.6-11.2-22.9-15.7a58 58 0 0 1-12.6-5c-10.9-7.2-5.1-19.4 9.2-19.4 6.9 0 12.6 3.2 15.1 8.3 1.7 3.4 2.2 3.7 6.3 3.7 4.2 0 4.4-.1 4.4-2.9 0-5.9-8.6-14.3-16.6-16.1a54 54 0 0 0-18.4-.1m56.3.7c-1 .4-1.3 8.4-1.3 35 0 38.1-.3 36.3 6.5 35l3.5-.7-.2-34.7-.3-34.7-3.5-.2c-1.9-.1-4.1 0-4.7.3m49.7 1c-14.3 5.2-22.2 17.1-22.4 33.9-.1 15.3 6.2 27 17.9 33 5 2.6 7.2 3 14.9 3.3 11.5.5 18.2-1.8 24.4-8 4.2-4.3 8.4-11.6 7.5-13-.2-.5-2.3-.8-4.6-.8-3.8 0-4.5.4-7.7 4.7-4.9 6.6-9.9 9.3-17.8 9.3-10.4 0-16.2-3.4-21-12.5-2.4-4.5-2.7-6.1-2.7-15.5 0-9.9.2-10.8 3.1-16 1.8-3.2 4.9-6.8 7.3-8.5 3.9-2.8 4.9-3 12.4-3 5.7.1 9.2.6 11.4 1.8 3.4 1.8 9.3 8.4 9.3 10.4q-.1 1.3 5.5 1.3c3.1 0 5.5-.4 5.5-1 0-2-3.9-8.5-7.1-11.9q-7.7-8-22.8-8.8c-6.3-.2-9.8.1-13.1 1.3m87-.7c-7 1-15.4 5.6-20.3 11.2-6.3 7.1-8.2 13.2-8.2 25.4.1 8.9.4 10.6 2.9 15.9a36 36 0 0 0 48.3 15.5c16.6-8 23.9-31.7 15.2-49.6-6.3-13-22-20.6-37.9-18.4m16.6 10c5.6 2.5 11 8.4 12.8 13.9a39 39 0 0 1-.8 24.7 24 24 0 0 1-23 14.5c-7.6 0-12.9-2.3-17.7-7.7-4.9-5.5-6.4-10.2-6.3-20.3 0-12.6 4.2-20.1 13.9-24.9a30 30 0 0 1 21.1-.2m100.1-8.9a34 34 0 0 0-25.8 21.2 46 46 0 0 0 .1 29.3 36 36 0 0 0 19 19 41 41 0 0 0 28.3-.8c17.2-7.9 25-27.7 18.5-46.7a35 35 0 0 0-19.8-20.2 46 46 0 0 0-20.3-1.8m17.8 10.4c11.6 5.4 16.9 18.8 13.1 33.5a24 24 0 0 1-13.1 16.7c-4.7 2.2-6.5 2.6-12.2 2.2-8.4-.4-13.7-3-18-8.7-4-5.1-5.4-10.3-5.4-19 0-13.3 6.2-22.9 16.9-26.1a29 29 0 0 1 18.7 1.4m60.1-8.7a35 35 0 0 0-21.6 34.4c0 21.3 13.4 35.9 32.9 35.9 8.9 0 14.6-2.1 20.9-7.6 2.9-2.6 5.7-4.2 6.3-3.8 1.4.8.6 17-1.1 22.7a24 24 0 0 1-11.1 12.8 33 33 0 0 1-22.4-.1 23 23 0 0 1-10.3-8.8c-2-2.8-2.9-3.2-6.8-3.2-5.1 0-5.5 1-2.4 6.9 5.2 10.3 18.9 16.8 32.9 15.8 4.2-.3 9.8-1.4 12.5-2.4 5.2-2 13.3-9.1 15.5-13.9l2.4-4.9a994 994 0 0 0 2.3-83c-.4-1.2-1.7-1.5-5.3-1.3l-4.8.3-.3 4.5c-.5 7.5-.7 7.6-6.6 2.3a34 34 0 0 0-33-6.6m25.9 9.6c11.7 6.4 16.7 23.6 10.7 36.9-4.6 10.4-11.8 15.2-22.7 15.2-8.2 0-13.4-2.2-18.5-8s-6.4-9.8-6.4-19.4 1.3-13.6 6.4-19.4a23 23 0 0 1 21.5-7.9c2.8.3 6.8 1.5 9 2.6m101.4-10.3c-16.2 2.8-26.9 17-26.9 35.5 0 15.7 7.6 28.4 20.6 34a31 31 0 0 0 12.4 1.8c9.9 0 15.2-1.9 21.4-7.7 5.6-5 6.6-4.7 6.6 1.9v5.5h10l.2-26.5.3-34.8v-8.2h-10l-.3 4.5c-.2 2.5-.7 4.9-1.1 5.3-.5.5-2.9-1.2-5.5-3.6a32 32 0 0 0-27.7-7.7m18.7 9.9c15.4 7 20.2 29 9.5 43.8-6.7 9.3-21.5 12.2-31.8 6.3-8.8-5-12.5-12.3-12.5-24.5q-.2-18.3 13.5-25a27 27 0 0 1 21.3-.6m-73.6 25.5v35.6h8.9l.6-5.3c.3-2.8.5-18.7.3-35.2l-.3-30-4.7-.3-4.8-.3zm305.7-33.4c-16 2.7-27.7 17.7-27.7 35.5 0 14.4 6.9 26.6 18.4 32.5 6.5 3.3 7.4 3.5 16.5 3.4 11.4-.1 15-1.4 22.3-8.2 4.6-4.2 7.8-9.3 7.8-12.2 0-.5-2-1-4.4-1-4.1 0-4.7.3-7.3 4.2-4.2 6.3-10 9.1-18.7 9.2-5.3 0-8.1-.6-11.1-2.1-5.1-2.7-6.8-4.6-9.9-11.3a40 40 0 0 1-.2-28.5c4.5-9.7 10.4-13.5 21.1-13.5 9.1 0 16.4 4.1 20.1 11.2 1.3 2.5 2 2.8 6.4 2.8 2.8 0 5-.2 5-.4l-1.9-4.8c-2.4-5.4-7.7-11-12.8-13.7a61 61 0 0 0-17.8-4zm76.6 1.8a35 35 0 0 0-20.7 18.7 41 41 0 0 0 7 41.9 37 37 0 0 0 41.2 6.3 39 39 0 0 0 16.2-16.2c2.8-6.6 4-15.4 3-22.2a33 33 0 0 0-18.6-26.4c-8.5-4.2-19.9-5-28.1-2.1m19.5 7.7c6.7 2 13.4 8.6 15.7 15.6a41 41 0 0 1-1 24.3c-2.4 5-7.6 10.2-12.3 12.2a32 32 0 0 1-21.9-.4c-11.6-6.1-16.6-22.3-11.2-36.8 4.9-13 17.1-18.9 30.7-14.9m68.7-8.6q-7.8 1.5-14.3 6.4c-11.4 8.6-16.2 26.9-11.1 41.9 5.3 15.7 15.5 23.3 31.4 23.3a28 28 0 0 0 21.7-8.4c5.2-4.7 5.6-4.5 6 2.9l.3 4.5h9l.6-14c.4-7.7.7-23.4.8-34.8l.1-20.8-5.2.3-5.3.3-.3 5.2c-.2 2.9-.7 5.3-1.2 5.3a21 21 0 0 1-5.3-4.3 33 33 0 0 0-27.2-7.8m19.3 10.7c9.8 4.9 14.8 14.5 14 26.9-1 16.1-10.7 25.5-26 25.5-10.2 0-18.5-6.1-22.7-16.8-2.1-5.2-1.7-18 .8-23.3a25 25 0 0 1 33.9-12.3m66.7-9.3a33 33 0 0 0-20.3 17.6c-2.5 5.1-2.7 6.6-2.7 17.1 0 11 .1 11.8 3.3 18.2a30 30 0 0 0 17.1 15.9 47 47 0 0 0 28.7-.8c7.1-3.7 16.6-15.5 14.9-18.3-.3-.6-2.4-1-4.6-1-3.6 0-4.3.5-7.2 4.6a22 22 0 0 1-18.7 9.4c-10.3 0-16.1-3.5-20.8-12.5-2.4-4.5-2.6-6.1-2.6-15.6 0-10.3.1-10.8 3.4-16.3 4.8-7.9 10.2-11.1 19-11.1 3.6 0 7.7.3 9.2.8 3.5.9 9.5 6.1 11.4 9.8 1.3 2.6 2 2.9 6.5 2.9 4.8 0 5-.1 4.3-2.3-2-6.7-7.3-12.6-14.5-16.2a46 46 0 0 0-26.4-2.2m203.5 1.2c-2.5.8-6.5 3.1-8.8 5-2.3 2-4.6 3.4-5.2 3-.5-.3-1-2.2-1-4 0-2.8-.5-3.6-2.4-4.1a15 15 0 0 0-4.7-.2c-2.1.3-2.5 1-3.1 5.8-.3 3-.6 18.7-.7 34.7l-.1 29.3 2.5.6c1.4.3 3.6.3 4.9 0l2.3-.6.5-22.9c.4-22 .5-23.1 2.9-27.7 1.5-2.9 4.2-6.1 6.8-7.9 3.9-2.7 5-3 12-3 6.7 0 8.3.4 11.8 2.7 2.2 1.5 5.1 4.4 6.4 6.5 2.3 3.7 2.4 4.7 2.9 28.3l.5 24.5h9v-26c0-26 0-26-2.6-31-5.9-11.4-20.6-17.1-33.9-13m-57.1.5c-.6.4-.8 13.6-.7 35.1l.3 34.4 3.3.3c6.3.6 6.2 1.4 6.2-35.9 0-26.4-.3-33.9-1.2-34.1-3.5-.4-7-.3-7.9.2m137.1-.1a34 34 0 0 0-21.8 17.3 49 49 0 0 0-3.6 22c2.8 20.3 14.7 31.7 32.9 31.8q14 0 22.1-8.6c5-5.2 5.7-3.9 5.2 8.6-.4 9.4-.8 11.3-3.2 15.4-4.2 7.2-9.3 10-18.8 10.5q-16.4.8-23-10.5c-1.8-3-2.5-3.4-6.4-3.4s-4.4.2-4.4 2.4c0 1.3 1.5 4.6 3.3 7.2 10.4 15.7 39.8 18 53.5 4.3 1.9-1.8 4.5-5.6 5.9-8.3 3.5-6.9 4.4-20.2 4.1-58.1l-.3-30h-9l-.3 4.8c-.4 6.2-2.1 6.8-6.5 2.5a34 34 0 0 0-29.7-7.9m22.3 10.9c8.3 4.4 12.7 12.7 12.7 24a28 28 0 0 1-7.6 20.8 24.5 24.5 0 0 1-34.9-.1c-5.2-5.2-7.5-11.6-7.5-21.1 0-16.8 12.3-28.5 28-26.7 2.5.3 6.6 1.7 9.3 3.1"/><path fill="#323232" d="M1180.2 1062.2a409 409 0 0 0-48.7 110.3 335 335 0 0 0-11.9 98c-.1 33.2.9 43 6.9 73 8.6 42.7 31 95 57.8 135a301 301 0 0 0 26.6 33c.8 2.9 1.2 1.4.5-2-.4-2.2-1.9-5.8-3.5-8.1-1.5-2.3-4.1-6.4-5.6-9.2a78 78 0 0 0-10.3-14.1c-1.9-2.1-4.5-7-3.9-7.5.2-.2 1.3-.6 2.3-.8 1.5-.2 2.2.5 2.9 3.2a26 26 0 0 0 5.3 8.2c2.4 2.6 4.4 5.2 4.4 5.8s1.3 1 2.9 1c3 0 5.4 2.1 3.3 2.8q-2.4.8.4 3.6 3.4 3.5 3.4-.9c0-2.8 1.5-3.3 2.8-.9 1.1 2 3.2 1 3.2-1.4q-.1-1.9 2.8-1.7c1.5 0 2.9.2 3.2.5.8.8 6.8 4 7.5 4 .4 0 .4-1.8 0-4l-.7-4 6.6.2c5.4.2 6.6.5 7 2.1.9 3.5 4.1 1.6 4.4-2.6.4-4.5 2-5.4 6.3-3.7 3.5 1.5 4.8.7 2.5-1.5-1.8-1.9-2.1-4.5-.5-4.5 2.2 0 3.9-3 3.9-7.2 0-4.5 2.2-9.7 4.6-11.1 2-1.1 1.7-3.5-.5-4.2-2.7-.8-16.1-14.8-27-28l-14.3-17.4c-2.9-3.5-7.6-10.1-10.5-14.5-2.8-4.5-6.1-9.3-7.3-10.8a64 64 0 0 1-4.6-8c-2.9-6.3-7-14.3-9.1-17.8-.8-1.4-2.3-4.5-3.4-7l-5.5-11.4a38 38 0 0 1-3.4-8.2c0-.8-.9-3.1-2-5.1-1.1-2.1-2-4.4-2-5.1s-.7-3.7-1.6-6.5l-3.6-12.2a81 81 0 0 0-2.8-8.5 34 34 0 0 1-1.5-6c-.4-2.5-1.2-5.3-1.7-6.3-.8-1.6-1.9-6.6-4.8-23.2l-2.8-14.5c-3.1-14.9-4.7-44-3.3-58.5a450 450 0 0 1 5.2-43.5c6.3-34.9 9.6-45.6 22.6-73 6.3-13.2 6.9-15 5-15-.8 0-4.2 4.2-7.5 9.2m45.1 129.5c-.4 1-1.7 2.8-3 4s-2.3 3.1-2.3 4.3q.2 2.1-2.5 2-2.3-.1-2.5-1c0-.6-1.3-1-3-1-2.5 0-3 .4-3 2.5 0 2 .5 2.5 2.5 2.5q2.7-.2 2.5 2.1c0 1.1-.6 2.6-1.2 3.2-1.6 1.6-6.7 1.6-6.1.1 1.1-2.9-11.3-3.2-15.9-.4-3.9 2.4-7.4 2.6-8.2.5-.6-1.7.9-2.1 1.9-.5 1.1 1.7 3.5 1.1 3.5-.9 0-1 .7-2.4 1.5-3.1 2.1-1.8 1.9-3.3-.5-2.7q-1.8.4-2-.1c0-1.1-5.2-3.2-6.1-2.6-1.4.8-1.1 6.2.4 6.7.6.3-.9.6-3.5.6-3.6.1-5 .6-5.8 2-2.5 4.9.6 7.1 4.1 2.9q1.8-1.8 1.9-.9c0 3.5-7.4 5.8-8.6 2.6-.9-2.2-3.2-1.8-3.9.6-.4 1.2-1.6 3-2.7 4.1-1.8 1.8-1.9 2.9-1.4 12.6a217 217 0 0 0 4 32.2 90 90 0 0 1 1.6 11.7c0 3 .8 5.6 3.3 11 .5 1.2.7 3.1.4 4.2q-.5 2 .3 2.6c.4.2 1 2.4 1.3 4.9.4 2.4 1.5 5.9 2.6 7.7 1 1.9 2.7 5.6 3.6 8.4a323 323 0 0 0 41.2 79.4 353 353 0 0 0 51.7 56c8.4 6.9 26.7 20.5 31.3 23.3l9.1 5.7a523 523 0 0 0 41.7 22.3 345 345 0 0 0 57.8 18.7c28.3 6.8 66.1 8.9 84 4.7 3.7-.9 7.2-1.4 7.7-1.1q.8.4 1.4-.4c.3-.4 2-.8 3.8-.8 3.6 0 9.6-1 14.3-2.3a55 55 0 0 1 7.5-1.5 78 78 0 0 0 19.2-5c1.8-.9 5.3-2 7.8-2.5 6.5-1.2 22.7-7.1 29.8-10.8a19 19 0 0 1 7.5-2.7c2 .8 3.7-3.7 3-7.9-.3-2-1.1-3.6-1.8-3.6q-1.4 0-3.1-.7-1.9-.8-1.1 1 .7 1.6-.8 1.1c-.8-.3-1.3-1.6-1.2-2.7q.3-2.3-2-2.5c-3.1-.5-2.9-2 .4-2.8 3-.8 5.3-2.6 5.3-4.3q.2-1 1.5-1.1t1.5-1.6a4 4 0 0 1 1.4-2.8c2-1.5 1-6.7-1.3-6.4q-1.7.5-1.3-2.5.3-2.7-1.2-3.3-1.6-.5-1.6-5c0-3.7-.3-4.4-2-4.4q-2.1 0-2-2.4c0-1.4-.4-2.7-.9-3s-1.1-1.9-1.3-3.5q-.2-2.7.4-2.5 1 .4 2.3-.6c1.7-1.4 2-5.6.5-6.5-1.6-1-1.2-2.5.7-2.5 2.1 0 6.3-4.7 6.3-7 0-3.8-5-3-16.5 2.5a22 22 0 0 1-5.5 1.8c-1.4.2-4.2 1.1-6.3 2a46 46 0 0 1-9 2.6l-21.9 4.5c-22 4.6-45.8 7-60.8 6.3-49.3-2.5-94.9-16-131.4-38.9a222 222 0 0 1-72.1-68.8 368 368 0 0 1-12.3-20 246 246 0 0 1-15.2-37c-1.3-4.1-3.1-9-4.2-10.8-1.1-1.7-1.6-3.2-1.3-3.2q.6-.1-.3-1.3c-.6-.7-1.4-3.1-1.6-5.3l-1.5-9.5c-.5-3-.9-6.2-.8-7 .2-1.4-1.5-11.9-3.3-21.2-.6-2.7-1-7.9-1-11.5 0-4.1-.7-8.3-1.7-10.9q-2.7-6.8-4-2.6m368.3 261.2c-1 1.6.6 4.2 2.1 3.7l1.9-.6q.4-.2.4-2c0-2.1-3.3-2.9-4.4-1.1m-329.2 14.7.6 2q.2.3 1.5.4 1.3-.2 1.5-2 0-2-2.1-2-2.2-.1-1.5 1.6m329.4 11.1c-1.9.5-2.6 5.3-.8 5.3q1-.2 1-1.5.2-1.4 2-1.5t2-1.5c0-1.5-.9-1.7-4.2-.8m-377.8 17.8q0 1.3.4 1.5l2 .6q1.5.6 1.6-.9c0-.8-.7-1.8-1.6-2.1-2.2-.9-2.4-.8-2.4.9m463.8 18.7c-2.1 1.2-3.8 2.7-3.8 3.3 0 .7-2.6 2.5-5.7 4a757.2 757.2 0 0 1-72.7 36.7 449 449 0 0 1-87.6 25.3c-2.1 1.3-36.3 4.8-52.5 5.4-51.5 2-93.9-3.6-139.5-18.4-22.7-7.4-31.6-11-50.8-20.8-6.3-3.1-12-5.7-12.6-5.7-.7 0-2.1-.9-3.1-2s-2.3-2-2.8-2c-1.6 0-17.5-11-22.8-15.8-2.7-2.4-4.9-4-4.9-3.6q-.1.5-1.6-1.2-1.3-1.5-.8-.4c3.2 6.4 23.8 26.8 41.9 41.5l10.6 8.6c12.2 10.1 39 26.6 60.9 37.5 39.9 20 83.7 33.2 126.5 38 18.6 2.1 61.6 2.4 82.5.5 64.7-5.8 124-27 179.8-64.3 17.2-11.5 46.1-35 47-38.2.2-.6 1.8-2.2 3.7-3.6 2.4-1.8 3-2.8 2.3-3.8-1.5-1.7-3.6-1.5-4 .5q-.3 2-1.8-1.4c-1.7-3.8-3.4-4.7-6.1-3.3q-2 1.3-2.5-.5-.8-1.4-3.4-1.5c-3 0-5.6 2.3-4.5 3.9q.5 1-2.5.5-3-.7-3 .5t-.9.6c-.5-.3-.7-2.1-.4-4s.2-3.5-.3-3.6l-5-.5q-4.2-.5-5.6 1-2.4 2.5-7.2-3-2-2.5-4.3-1.8-2.1.7-2.3 1.3c0 .4-2.6.6-5.7.6-4.2-.1-6.1.3-7.1 1.4q-1.5 2.2-.6-.3 1-2.1-1.3-1.2c-2.1.7-4.7-1.1-5.5-3.6-.3-.7-1.9-1.4-3.6-1.4-7-.3-7.2-.4-7.2-2.5q0-2-1.3-1.6t-2.8-.4-.1-.9q1-.1 1.2-1-.1-2.3-6.2 1.2m557.7 246.8c-.3.5-2.4 1-4.6 1s-7 1-10.7 2.1c-29.9 9.5-48.8 32.6-54.7 67a78 78 0 0 0-1.1 15.3c.3 3.6.1 6.8-.5 7.1-1.1.8-1.2 5.5 0 5.5.4 0 .8 4.9.7 10.8-.1 7.8.3 11.4 1.2 12.5q1.2 1.5.8 2.6c-1.8 2.9 5.6 23.6 12.1 33.8 5.8 9.2 16.3 19.3 19.9 19.3q2.2 0 1.9 1t.5 1c.6 0 1.8.7 2.7 1.5.8.8 1.9 1.3 2.4 1q.8-.5.9.4c0 .6 1.6 1.1 3.6 1.1q3.3 0 2.9 1-.5 1 4.2 1 5.1 0 3.3 1-1.4 1 17.5 1 19 0 17.5-1c-.8-.5-4.8-1-8.7-1-7.1 0-7.3-.1-7.3-2.5q.1-2.6-2-2.5-2.1-.1-2 2.5c0 2.4-.3 2.5-5.5 2.5s-5.5-.1-5.5-2.5q.1-2.6-2-2.5-1.8-.2-2-1.5c0-1.6 2.8-1.9 21.4-2q9-.1 9.4-1.3c.2-.7 1.9-1.2 3.8-1.2s3.4-.5 3.4-1q.2-1 1.9-1c1.1 0 2.3-.5 2.6-1s1.5-1 2.5-1 2-.3 2.2-.8 2.2-2 4.6-3.5c2.5-1.6 5-4.3 6-6.5.9-2 2.5-4.5 3.5-5.4 2.2-2 4.7-9.7 4.7-14.5 0-1.8.5-3.3 1-3.3q1-.2 1-2.5c0-1.4-.4-2.5-1-2.5q-.9.1-1 1.6 0 1.3-1 .9t-1 6c0 3.6-.4 6.4-.9 6.1q-.9-.3-1.6 2.1a46.8 46.8 0 0 1-13.5 17.8q-.2-.7-1.7.6c-2.8 2.2-6.1 3.9-7.8 3.9q-1.3 0-1.5 1c0 .5-1.5 1-3.4 1s-3.6.5-3.8 1.2c-.5 1.5-24.8 1.9-24.5.4.1-.6-1.4-1.2-3.3-1.4a11 11 0 0 1-4.5-1.3c-.5-.5-2.2-.9-3.8-.9s-2.6-.4-2.2-1c.6-.9-1.7-1.5-4-1q-.8 0-.2-.6c.9-.9-4.3-4.5-5.5-3.8q-.7.4-.8-.4c0-.5-1.7-2.7-3.7-4.8a42 42 0 0 1-6.2-8.9l-3.2-6.7a52 52 0 0 1 .1-19.3c.6-.3 1-1.4 1-2.5 0-2 4-10.3 5.3-10.8q.7-.5.7-1.9 0-1.5.6-1c.8.7 3.4-1.7 3.4-3.2q.2-1 2-1.6c1.1-.3 2-1.1 2-1.6q.1-.8 1.1-.9c.6 0 2.5-1 4.2-2.2s3.6-2.3 4-2.3q.7-.1 1.6-1.3c.4-.7 1.8-1.1 3.2-1q2.4.3 2.1-1.1c-.2-1 .9-1.2 5.6-.6s6.2.3 7.5-.9c1.7-1.7 8.2-2.3 7.2-.6-.6 1 1.9 1.3 10.7 1.3 2.6-.1 4.6.4 4.5.9s2.1 1.7 4.8 2.6c2.8.9 5.2 1.8 5.5 2.2l5.7 4.8c2.9 2.4 6.2 6.1 7.5 8.3 1.2 2.1 2.5 3.9 3 3.9q.6 0 .7.7c-.4 2.3.2 4.3 1.1 3.8.6-.4 1 1.9 1 6.1 0 5 .3 6.5 1.1 5.7.6-.6 1-3.2.8-5.7q-.4-4.7.8-4.6 1.2-.2 1.3-2.5.1-2.6-2-2.5-1.8-.2-2-1.5c0-1.2 1.3-1.5 5.5-1.5 5.4 0 5.6.1 6.2 3 .3 1.6.9 3 1.3 3 1.2 0 2.1-4.5 1-4.8-.5-.2-1.5-2.2-2.1-4.5-1.8-6.9-9-15.1-19.3-22.1-3.7-2.5-7.2-4.3-7.7-4q-.8.4-.9-.5c0-.6-1.3-1.1-2.9-1.1-1.7 0-3.3-.5-3.6-1s-2.3-1-4.4-1c-2 0-4.3-.6-4.9-1.2-1.7-1.7-24-1.8-25-.1-.4.6-2.6 1.2-5 1.1-2.3 0-4.8.5-5.5 1.1q-1.3 1-1.9.5c-.7-.6-8.6 3.1-14.5 6.9a46 46 0 0 0-15.4 16.7q-.7.2-1.2 2c-.8 3.3-2.7 2.3-2.7-1.4 0-1.9-.4-3.7-.9-4.1s-.8-2.9-.6-5.8c1.4-21.2 1.9-25.8 2.6-26.3.5-.3.9-2.1.9-4s.4-4.2.9-5.2l1.9-4.2c2-5.1 5.7-12.5 6.5-12.8q.6-.5.7-1.8t1-1.4 1-1.5 1-1.5 1-1.5.9-1.3c.5.2 2.8-1.5 5.2-3.8s6.8-5.3 9.7-6.9c2.8-1.5 5.2-3.1 5.2-3.4 0-.4 1.5-.8 3.2-.9 1.8-.2 3.7-.7 4.2-1.2s2.3-1 3.8-1 2.8-.4 2.8-.9c0-1.4 22.7-1.2 31 .3a79 79 0 0 1 19.2 6.1c1.4.6 2.3-.5 4.8-5.8 1.6-3.6 3-6.7 3-7a99 99 0 0 0-16.1-6.6c-1.9-.6-5.6-1.1-8.2-1.1s-4.7-.5-4.7-1-5-1-12.9-1c-7.6 0-13.2.4-13.6 1m154.9.3q-.5 1.2-4.3.9c-2.1-.2-4.2.1-4.5.7-.4.6-1.8 1.1-3.2 1.1-1.3 0-2.4.4-2.4 1s-1 1-2.2 1-3.4.9-4.8 2-3 2-3.6 2q-1.2.1-1.8 1.6t-1.2 1.1c-.6-.6-2.2.6-8.7 6.3-6.6 5.8-19.6 26.7-18.1 29.2q.4.7-.4.8c-1.3 0-4.1 10.5-3.5 13q.4 1.8-.5 2c-1.4 0-2.1 4.7-1.2 7.9q.8 2.2.9 1.3.3-1.1 3.6-1.2c3.1 0 3.5-.3 3.5-2.5q.1-2.6-2-2.5-1.9-.1-2-1.6c0-1.3 1.2-1.5 6.8-1.3l6.7.3.3-3.2c.2-1.8-.1-3.2-.7-3.2q-1-.1-1.1-1 .2-1 1.9-1c1.5 0 2.1-1 2.6-3.9.4-2.2 1.3-4.2 2.1-4.5s1.4-1.3 1.4-2.2 1.1-3 2.5-4.8l6.8-8.6c2.4-3 5.3-6 6.5-6.6q2-1 1.5-1.7t1.5-.7c1.2 0 2.2-.5 2.2-1q.2-1 2-1 1.8-.1 2-1c0-.6 1.2-1 2.6-1 2.1 0 2.4-.4 1.9-2q-.6-1.8.4-2 1 0 1.1 1c0 .5 1.6 1 3.6 1 1.9 0 3.3-.4 2.9-.9q-.3-.9 1.5-1.6c1.5-.5 2-1.5 2-4.1 0-3.4 0-3.4 4.5-3.4 3.8 0 4.5-.3 4.5-2s.7-2 3.5-2c1.9 0 3.5.4 3.5 1q.2.9 2 1t2 1c0 .5 2.5 1 5.5 1s5.5.4 5.5 1q.2.9 1.9 1c1.1 0 2.3-.5 2.6-1q.3-1-1.8-1c-1.4 0-2.8-.7-3.1-1.6q-.7-1.5-2.5-1.1t-2.6-1c-.4-1.2-1.5-1.4-4.6-1q-4.2.6-4.6-.9c-.7-1.9-20.1-2-20.9-.1m-382.4 8.2v7.5h46.8c25.7 0 47.2.4 47.8.8.8.4-7.8 12-24.3 32.6l-25.6 32-.2 6.5c-.1 3.8.3 6.9.9 7.3s6.5.8 13.1.8c13.2.1 21 1.5 28.9 5.4a33 33 0 0 1 20.3 33.5 33 33 0 0 1-21 32 81 81 0 0 1-10.3 4c-4.8 1.3-34.5 1.5-35.9.3a27 27 0 0 0-7-2.2c-7.5-1.8-20-7.8-26.9-13a43 43 0 0 0-5.8-4c-1.2 0-7.9 12.2-7.5 13.5 1.5 3.6 21.7 15.5 26.5 15.5 1.1 0 2.2.5 2.4 1.1.2.5 1.8 1.1 3.5 1.1 1.8.1 3 .5 2.7 1s1.5.8 4 .8c2.4 0 4.6.4 4.8 1 .4 1.4 42.1 1.5 42.6.1.2-.6 2.1-1.1 4.3-1.1s3.9-.5 3.9-1 1.1-1 2.5-1 2.5-.5 2.5-1q0-1 .8-.8c1.2.4 7.2-2.4 7.2-3.3q.1-.8 1.4-.9a31 31 0 0 0 7.9-6.3c6.7-6.4 12.7-15.9 12.7-20.3 0-1.3.5-2.4 1-2.4s1-5.1 1-13.4a50 50 0 0 0-1-14.1c-.5-.3-1-1.8-1-3.2 0-3-5.1-12.7-8.8-16.7a61 61 0 0 0-24.2-14.9 70 70 0 0 0-23.2-3.7c-1.8 0-.6-3.3 2.2-6.3 1.6-1.8 3-3.5 3-4q.2-.8 2.1-2.8c1.1-1.1 3.7-4.2 5.7-6.8 5.3-6.8 15.7-19.9 19.5-24.5 1.8-2.1 3.6-4.6 4.1-5.5s1.4-2.1 2-2.7 2.5-2.8 4.1-4.9l6.3-7.8c3-3.6 3.3-4.5 3-9.6l-.3-5.6-59.2-.3-59.3-.2zm399 2c0 3.2 4.4 6 8.8 5.6 2.3-.2 1.2-2.1-1.3-2.1-2 0-2.5-.5-2.5-2.5s-.5-2.5-2.5-2.5q-2.4 0-2.5 1.5m28.5.5q-.4.9.9 1 1.5 0 1.6 1t1.7 1c1.4 0 1.4-.2-.2-2q-2.8-3.3-4-1m-39.2 1.7c1.1 1.1 9.8 1.3 9.2.3-.4-.6-2.7-1-5.2-1-2.6 0-4.3.3-4 .7m46.1 2.9.6 2q.1.3 1.4.4t1.9 1.2q.4 1.1 1.2.6c.4-.4-.4-1.8-1.8-3.2q-4.6-4.5-3.3-1m-24.9 1.3q-.4 1 1.2 1.1c1 0 2.7.7 3.7 1.5 2 1.5 3.6 1.2 3.6-.7q-.2-1-2-.5-1.7.4-1.7-.6c.3-1.5-3.9-2.1-4.8-.8m13 6.1q-.4.9.7 1c.7 0 2.2 1.1 3.3 2.5 3.7 4.6 7.3 8.5 7.9 8.5q2 0-2.9-5.4a18 18 0 0 1-3.5-4.7q-.1-.8-1.5-.9t-1.5-1q0-1-.9-1t-1.6 1m26.5 7.3c0 1.6 4.5 8.6 4.9 7.6q.3-1.2-.7-1.7-1.1-.4-1.2-1.9c0-.8-.7-2.1-1.5-2.9q-1.3-1.4-1.5-1.1m-9.7 13.8c-.1 1.1.5 2.3 1.3 2.6q1.2.5 1 1.2c-.6.9 1.1 3.7 1.9 3 .6-.7-2.1-7.5-3.3-8.3q-.7-.2-.9 1.5m4.1 8.3c-.3.8 0 2.5.7 3.8s1.4 3 1.5 3.8l1.3 6.7 1.3 8.7c.1 1.9.6 3.2 1 3 1.2-.7 1-12.4-.2-12.4-.5 0-1-2-1-4.5s-.4-4.5-1-4.5-1-1.4-1-3c0-3.1-1.6-4.1-2.6-1.6m-107.4 17.1c0 3.3-.4 4.5-1.5 4.5q-1.4 0-1.5 2.5 0 2.4 1.5 2.5 1.4-.1 1.5-1.4c0-.7.6-2.5 1.3-3.9 1.4-2.7 1.1-8.7-.4-8.7-.5 0-.9 2-.9 4.5m-16.5 15c-.4 5.3-.3 13.8.2 18.9l1 9.1.3-8.5c.9-25.8-.1-38.7-1.5-19.5m145 9c0 11.3.4 18 .9 17.5 1.3-1.3 1.5-33.9.1-35-.7-.6-1 4.9-1 17.5m-130.5.5c0 8.7.4 14 1 14 1 0 1.2-2.4 1.2-14s-.2-14-1.2-14c-.6 0-1 5.3-1 14m-9-9.5c0 2 .5 2.5 2.5 2.5s2.5-.5 2.5-2.5-.5-2.5-2.5-2.5-2.5.5-2.5 2.5m124.8.7c-.5 2.6-.4 18.7.2 21.8.5 3.3 1.8-5 1.8-12.5.1-8.8-1.1-14.1-2-9.3m-2 29c-.1 5-.2 5.7-1.3 8.1-.4 1-.8 3.1-.9 4.7s-.7 3.5-1.4 4.2c-1.7 1.7-1.5 3.8.3 3.8q1.4 0 1.5-2.4c0-1.4.5-2.8 1-3.1s1-2.1 1-4 .5-3.7 1-4 1-3.1 1-6.1c0-6.3-1.9-7.4-2.2-1.2m-111.8 3.2c0 1.9.5 3.8 1 4.1.6.4 1-1 1-3.4 0-2.3-.4-4.1-1-4.1s-1 1.5-1 3.4m-14.4-1.6c-.9 1.4.2 9.2 1.3 9.2.4 0 .5-1.7.3-3.8-.6-6.6-.7-6.8-1.6-5.4m-37.6 9.7c0 2 .5 2.5 2.5 2.5s2.5-.5 2.5-2.5-.5-2.5-2.5-2.5-2.5.5-2.5 2.5m39.7 1.9c-.4 1.1-.2 2.8.7 4.1s1.6 3 1.9 4.1q.4 1.5.1-.6c-.1-1.4-.7-4.1-1.1-6q-.9-4.2-1.6-1.6m4.4 13.3c0 1.8.3 3.3.8 3.3s1.1 1.3 1.4 2.9a9 9 0 0 0 2.2 4.4c.9.9 1.5 1.9 1.5 2.2-.4 1.7.7 2.7 1.3 1.2.3-.9 0-2.3-.8-3.1s-1.5-1.9-1.5-2.5q-.1-1-.8-1.1t-.9-2.2c-.1-1.1-.6-2.4-1.1-2.7s-1.2-1.7-1.5-3.1q-.4-3.2-.6.7m111 2.5c-.5 1.3-2.9 5.1-5.5 8.4a36 36 0 0 0-4.6 7.3c0 1 2.6-1.8 9.2-10 2-2.4 3.8-5.7 3.8-6.9 0-1.9-2-1-2.9 1.2m-92.4 3.4q.6 1.2 1.4 1.4t.9 1.6c0 1.4 2.2 4.4 3.3 4.4s-3.8-8-5-8.4q-1.1-.4-.6 1m-57.7 2.9q0 2.5 1.4 1.9c1.8-.7 1.7-4.4-.1-4.4q-1.2.2-1.3 2.5m-3.8 8.9c.2.8-.8 2.4-2.1 3.5-1.9 1.7-2.1 2.1-.8 2.1q1.6-.1 1.7-1.1.1-.8 1-.4t1-.9q.1-1.5 1-1.6t1-1.5q-.1-1.4-1.5-1.5-1.5.1-1.3 1.4m54.8 3.9c0 1.4 7 8.7 8.4 8.7.4 0 2.1 1.4 3.7 3.1q3 3.2 4.7 2.4 2-.7.3-1.3c-.8-.2-4.4-3.6-8.1-7.3-6.5-6.7-9-8.3-9-5.6m20 .3c0 1 2.8 3.4 3.9 3.4q1 0 1.1 1t2 1 2 1 2 1 2-1q-.2-1-2-1-1.8-.1-2-.8c0-.5-1.6-1.4-3.5-2.2s-3.5-1.7-3.5-2.2q0-.7-1-.8-.9 0-1 .6m62 1.4c-.8 1.1-2.2 2-3.2 2q-1.7 0-1.8 1c0 .5-.9 1-1.9 1-1.1 0-2.3.4-2.6 1s-1.7 1-3.1 1c-1.3 0-2.4.4-2.4 1q.2.9 2.5 1 2.3-.1 2.5-1t2.1-1c2.3 0 10.9-5.6 10.9-7 0-1.6-1.5-1.1-3 1m-41 9.1c0 .5 5.2.9 11.5.9 7.3 0 11.5-.4 11.5-1q-.2-1-11.5-.9c-6.3.1-11.5.5-11.5 1m-116 4.9q-.2.9-2 1t-2 1c0 1.5 2.9 1.2 4.6-.4q2.5-2.6.4-2.6a1 1 0 0 0-1 1m-10 4c0 .5 1.7 1 3.8.9q4.3 0 1.7-.9c-2.8-1.2-5.5-1.2-5.5 0m-7 2c0 .5 2.1 1 4.8 1q5 0 3.2-1c-2-1.3-8-1.3-8 0m121.4.2c-.3.4 1.3.8 3.5.8s4.1-.4 4.1-1c0-1.1-6.9-1-7.6.2m7.3 2c-.7.4 6.7.7 16.3.7 13.5-.1 16.4-.3 12.5-1-5.7-1-27.1-.8-28.8.3m-1445.5 90.1c-5.9 6.3 1.5 15.1 8.6 10.1 4.6-3.2 1.5-12.4-4.3-12.4-1.2 0-3.1 1-4.3 2.3m416.3 1.2c-1 .9-6.3 4-11.7 7.1-9 5.1-9.8 5.8-9.8 8.5 0 2.5.3 2.9 1.9 2.4 3.3-1 22.6-11.6 23.3-12.8 1.2-2 .9-6.7-.4-6.7-.7 0-2.2.7-3.3 1.5m-218.8 11.7c-.4 6.2-.7 27.8-.7 48v36.8h10l-.2-47.8-.3-47.7-4.1-.3-4.1-.3zm910.7-6c-6.3 3-4.1 12.8 2.8 12.8 6.4 0 9.2-8 4.2-11.9-3-2.3-3.9-2.4-7-.9m-86.7 1.5c-.2.4-.6 21.9-.8 47.8l-.4 47 5.2.3 5.1.3.4-23.8c.3-22.6.4-24 2.6-28.1 7.7-14.4 29.8-14.3 37.5.1 2.1 4 2.2 5.1 2 27.2q-.1 22.8.9 24.2c1.4 1.8 7.3 1.6 8.8-.2.9-1.1 1.1-7.5.8-25.2-.5-27.5-1.3-30.9-8.5-37.9a29.4 29.4 0 0 0-39-.3c-2 1.7-3.9 2.7-4.4 2.2s-1-8.3-1.1-17.3l-.3-16.5-4.2-.3c-2.2-.2-4.3.1-4.6.5m-430.8 19.5c-.1 4-.4 10.2-.8 13.8l-.6 6.5-13.5.5-13.5.5-.3 3.7c-.4 4.6 0 4.7 15.8 5.1l11.5.2.5 13.5.5 13.5 4.3.3 4.2.3v-9.4c0-5.2.3-11.5.6-14.1l.7-4.6h27.7v-4c0-2.2-.3-4.1-.7-4.1l-13.8-.8-13-.6-.2-11.5c-.4-15.8-.5-16-5.3-16h-4zm-718-3.2c-5.8 1-9.5 2.9-15.5 8.1-2.6 2.2-5 3.7-5.5 3.2s-.9-3.1-1.1-5.8l-.3-5h-9l-.8 51c-.4 28-.5 51.6-.2 52.3q.4 1.3 5.2 1l4.8-.3.3-22c.1-12.1.7-22.4 1.2-22.9q1-.8 5.9 3.7c6.9 6.5 10.9 8 21.1 8 6.9 0 9.5-.5 13.5-2.4 6.6-3.1 13-9.7 16.3-16.7 2.4-5.1 2.7-6.9 2.7-16.7s-.3-11.6-2.6-16.5a30 30 0 0 0-15.2-15.9 35 35 0 0 0-20.8-3.1m14.6 10.1c5.1 2.4 9.7 7.3 12.1 12.7a43 43 0 0 1-.5 26.5 25 25 0 0 1-22.3 13.7c-12.9 0-21.7-7.4-24.8-20.8s3.1-27.2 14.5-32.3a29 29 0 0 1 21 .2m56.5-9.2c-10.7 3.3-16.9 11.9-15.4 21.3 1.4 8.3 8.7 13.3 27.4 18.8 4.1 1.2 9 3.3 10.8 4.7 2.7 2 3.2 3 3.2 6.6 0 5.1-1.8 7.9-6.4 10.1-8.5 4-21.1.6-24.9-6.7-1.8-3.4-2.2-3.7-6.3-3.7-5.5 0-6.2 1.4-3.5 6.8 4.7 9.1 14.7 13.7 28.5 13 6.7-.3 9.2-.9 12.9-3.1 8.3-4.9 11.6-12.3 9.2-20.6-2.3-7.6-7.6-11.2-22.9-15.7a58 58 0 0 1-12.6-5c-10.9-7.2-5.1-19.4 9.2-19.4 6.9 0 12.6 3.2 15.1 8.3 1.7 3.4 2.2 3.7 6.3 3.7 4.2 0 4.4-.1 4.4-2.9 0-5.9-8.6-14.3-16.6-16.1a54 54 0 0 0-18.4-.1m56.3.7c-1 .4-1.3 8.4-1.3 35 0 38.1-.3 36.3 6.5 35l3.5-.7-.2-34.7-.3-34.7-3.5-.2c-1.9-.1-4.1 0-4.7.3m49.7 1c-14.3 5.2-22.2 17.1-22.4 33.9-.1 15.3 6.2 27 17.9 33 5 2.6 7.2 3 14.9 3.3 11.5.5 18.2-1.8 24.4-8 4.2-4.3 8.4-11.6 7.5-13-.2-.5-2.3-.8-4.6-.8-3.8 0-4.5.4-7.7 4.7-4.9 6.6-9.9 9.3-17.8 9.3-10.4 0-16.2-3.4-21-12.5-2.4-4.5-2.7-6.1-2.7-15.5 0-9.9.2-10.8 3.1-16 1.8-3.2 4.9-6.8 7.3-8.5 3.9-2.8 4.9-3 12.4-3 5.7.1 9.2.6 11.4 1.8 3.4 1.8 9.3 8.4 9.3 10.4q-.1 1.3 5.5 1.3c3.1 0 5.5-.4 5.5-1 0-2-3.9-8.5-7.1-11.9q-7.7-8-22.8-8.8c-6.3-.2-9.8.1-13.1 1.3m87-.7c-7 1-15.4 5.6-20.3 11.2-6.3 7.1-8.2 13.2-8.2 25.4.1 8.9.4 10.6 2.9 15.9a36 36 0 0 0 48.3 15.5c16.6-8 23.9-31.7 15.2-49.6-6.3-13-22-20.6-37.9-18.4m16.6 10c5.6 2.5 11 8.4 12.8 13.9a39 39 0 0 1-.8 24.7 24 24 0 0 1-23 14.5c-7.6 0-12.9-2.3-17.7-7.7-4.9-5.5-6.4-10.2-6.3-20.3 0-12.6 4.2-20.1 13.9-24.9a30 30 0 0 1 21.1-.2m100.1-8.9a34 34 0 0 0-25.8 21.2 46 46 0 0 0 .1 29.3 36 36 0 0 0 19 19 41 41 0 0 0 28.3-.8c17.2-7.9 25-27.7 18.5-46.7a35 35 0 0 0-19.8-20.2 46 46 0 0 0-20.3-1.8m17.8 10.4c11.6 5.4 16.9 18.8 13.1 33.5a24 24 0 0 1-13.1 16.7c-4.7 2.2-6.5 2.6-12.2 2.2-8.4-.4-13.7-3-18-8.7-4-5.1-5.4-10.3-5.4-19 0-13.3 6.2-22.9 16.9-26.1a29 29 0 0 1 18.7 1.4m60.1-8.7a35 35 0 0 0-21.6 34.4c0 21.3 13.4 35.9 32.9 35.9 8.9 0 14.6-2.1 20.9-7.6 2.9-2.6 5.7-4.2 6.3-3.8 1.4.8.6 17-1.1 22.7a24 24 0 0 1-11.1 12.8 33 33 0 0 1-22.4-.1 23 23 0 0 1-10.3-8.8c-2-2.8-2.9-3.2-6.8-3.2-5.1 0-5.5 1-2.4 6.9 5.2 10.3 18.9 16.8 32.9 15.8 4.2-.3 9.8-1.4 12.5-2.4 5.2-2 13.3-9.1 15.5-13.9l2.4-4.9a994 994 0 0 0 2.3-83c-.4-1.2-1.7-1.5-5.3-1.3l-4.8.3-.3 4.5c-.5 7.5-.7 7.6-6.6 2.3a34 34 0 0 0-33-6.6m25.9 9.6c11.7 6.4 16.7 23.6 10.7 36.9-4.6 10.4-11.8 15.2-22.7 15.2-8.2 0-13.4-2.2-18.5-8s-6.4-9.8-6.4-19.4 1.3-13.6 6.4-19.4a23 23 0 0 1 21.5-7.9c2.8.3 6.8 1.5 9 2.6m101.4-10.3c-16.2 2.8-26.9 17-26.9 35.5 0 15.7 7.6 28.4 20.6 34a31 31 0 0 0 12.4 1.8c9.9 0 15.2-1.9 21.4-7.7 5.6-5 6.6-4.7 6.6 1.9v5.5h10l.2-26.5.3-34.8v-8.2h-10l-.3 4.5c-.2 2.5-.7 4.9-1.1 5.3-.5.5-2.9-1.2-5.5-3.6a32 32 0 0 0-27.7-7.7m18.7 9.9c15.4 7 20.2 29 9.5 43.8-6.7 9.3-21.5 12.2-31.8 6.3-8.8-5-12.5-12.3-12.5-24.5q-.2-18.3 13.5-25a27 27 0 0 1 21.3-.6m-73.6 25.5v35.6h8.9l.6-5.3c.3-2.8.5-18.7.3-35.2l-.3-30-4.7-.3-4.8-.3zm305.7-33.4c-16 2.7-27.7 17.7-27.7 35.5 0 14.4 6.9 26.6 18.4 32.5 6.5 3.3 7.4 3.5 16.5 3.4 11.4-.1 15-1.4 22.3-8.2 4.6-4.2 7.8-9.3 7.8-12.2 0-.5-2-1-4.4-1-4.1 0-4.7.3-7.3 4.2-4.2 6.3-10 9.1-18.7 9.2-5.3 0-8.1-.6-11.1-2.1-5.1-2.7-6.8-4.6-9.9-11.3a40 40 0 0 1-.2-28.5c4.5-9.7 10.4-13.5 21.1-13.5 9.1 0 16.4 4.1 20.1 11.2 1.3 2.5 2 2.8 6.4 2.8 2.8 0 5-.2 5-.4l-1.9-4.8c-2.4-5.4-7.7-11-12.8-13.7a61 61 0 0 0-17.8-4zm76.6 1.8a35 35 0 0 0-20.7 18.7 41 41 0 0 0 7 41.9 37 37 0 0 0 41.2 6.3 39 39 0 0 0 16.2-16.2c2.8-6.6 4-15.4 3-22.2a33 33 0 0 0-18.6-26.4c-8.5-4.2-19.9-5-28.1-2.1m19.5 7.7c6.7 2 13.4 8.6 15.7 15.6a41 41 0 0 1-1 24.3c-2.4 5-7.6 10.2-12.3 12.2a32 32 0 0 1-21.9-.4c-11.6-6.1-16.6-22.3-11.2-36.8 4.9-13 17.1-18.9 30.7-14.9m68.7-8.6q-7.8 1.5-14.3 6.4c-11.4 8.6-16.2 26.9-11.1 41.9 5.3 15.7 15.5 23.3 31.4 23.3a28 28 0 0 0 21.7-8.4c5.2-4.7 5.6-4.5 6 2.9l.3 4.5h9l.6-14c.4-7.7.7-23.4.8-34.8l.1-20.8-5.2.3-5.3.3-.3 5.2c-.2 2.9-.7 5.3-1.2 5.3a21 21 0 0 1-5.3-4.3 33 33 0 0 0-27.2-7.8m19.3 10.7c9.8 4.9 14.8 14.5 14 26.9-1 16.1-10.7 25.5-26 25.5-10.2 0-18.5-6.1-22.7-16.8-2.1-5.2-1.7-18 .8-23.3a25 25 0 0 1 33.9-12.3m66.7-9.3a33 33 0 0 0-20.3 17.6c-2.5 5.1-2.7 6.6-2.7 17.1 0 11 .1 11.8 3.3 18.2a30 30 0 0 0 17.1 15.9 47 47 0 0 0 28.7-.8c7.1-3.7 16.6-15.5 14.9-18.3-.3-.6-2.4-1-4.6-1-3.6 0-4.3.5-7.2 4.6a22 22 0 0 1-18.7 9.4c-10.3 0-16.1-3.5-20.8-12.5-2.4-4.5-2.6-6.1-2.6-15.6 0-10.3.1-10.8 3.4-16.3 4.8-7.9 10.2-11.1 19-11.1 3.6 0 7.7.3 9.2.8 3.5.9 9.5 6.1 11.4 9.8 1.3 2.6 2 2.9 6.5 2.9 4.8 0 5-.1 4.3-2.3-2-6.7-7.3-12.6-14.5-16.2a46 46 0 0 0-26.4-2.2m203.5 1.2c-2.5.8-6.5 3.1-8.8 5-2.3 2-4.6 3.4-5.2 3-.5-.3-1-2.2-1-4 0-2.8-.5-3.6-2.4-4.1a15 15 0 0 0-4.7-.2c-2.1.3-2.5 1-3.1 5.8-.3 3-.6 18.7-.7 34.7l-.1 29.3 2.5.6c1.4.3 3.6.3 4.9 0l2.3-.6.5-22.9c.4-22 .5-23.1 2.9-27.7 1.5-2.9 4.2-6.1 6.8-7.9 3.9-2.7 5-3 12-3 6.7 0 8.3.4 11.8 2.7 2.2 1.5 5.1 4.4 6.4 6.5 2.3 3.7 2.4 4.7 2.9 28.3l.5 24.5h9v-26c0-26 0-26-2.6-31-5.9-11.4-20.6-17.1-33.9-13m-57.1.5c-.6.4-.8 13.6-.7 35.1l.3 34.4 3.3.3c6.3.6 6.2 1.4 6.2-35.9 0-26.4-.3-33.9-1.2-34.1-3.5-.4-7-.3-7.9.2m137.1-.1a34 34 0 0 0-21.8 17.3 49 49 0 0 0-3.6 22c2.8 20.3 14.7 31.7 32.9 31.8q14 0 22.1-8.6c5-5.2 5.7-3.9 5.2 8.6-.4 9.4-.8 11.3-3.2 15.4-4.2 7.2-9.3 10-18.8 10.5q-16.4.8-23-10.5c-1.8-3-2.5-3.4-6.4-3.4s-4.4.2-4.4 2.4c0 1.3 1.5 4.6 3.3 7.2 10.4 15.7 39.8 18 53.5 4.3 1.9-1.8 4.5-5.6 5.9-8.3 3.5-6.9 4.4-20.2 4.1-58.1l-.3-30h-9l-.3 4.8c-.4 6.2-2.1 6.8-6.5 2.5a34 34 0 0 0-29.7-7.9m22.3 10.9c8.3 4.4 12.7 12.7 12.7 24a28 28 0 0 1-7.6 20.8 24.5 24.5 0 0 1-34.9-.1c-5.2-5.2-7.5-11.6-7.5-21.1 0-16.8 12.3-28.5 28-26.7 2.5.3 6.6 1.7 9.3 3.1"/><path fill="#272727" d="M1178.4 1068.2c-.4 1.3-1 2.5-1.3 2.8s-2.5 3.4-4.6 7l-6.1 9.8a19 19 0 0 0-2.9 6.5 13 13 0 0 1-2 4.7c-.7.8-1.6 2.6-2 4a53 53 0 0 1-6.5 13.5c-5.9 3.6-22.6 57.1-23.4 74.8-.1 2.7-.7 5.2-1.3 5.5-1.9 1.3-4.2 19.2-2.4 19.2.6 0 1.1-1.9 1.1-4.6q0-4.5 1.1-3.8c.6.4.9 1.9.5 3.6q-.6 3 1 3.5c2.5.9 3.7-1.2 4-7.4.7-13.6 1.3-18.8 2.3-19.1q1-.5 1.1-1.8t.8-1.4c2.3 0 5.2-11.5 5.6-22 .1-3.7 1.6-5.7 2.7-3.8.4.6 1.5.8 2.4.4q1.8-.4 1.1-3.4-.6-2.7.8-4.7c.9-1.1 1.6-4.1 1.6-6.6 0-3.3.6-5.1 2-6.4 2.2-2 2.6-5.5.8-7.3q-1.4-1.3 0-1.2 1.1-.2 1.2-2.3c0-1.2.9-2.8 2-3.5q2.1-1.2 1.8-4.1a22 22 0 0 1 2.5-8.2c1.4-3 3.5-8.1 4.6-11.4s4.7-12.3 8-19.9c6.8-15.5 6.5-14.6 5.2-14.6-.5 0-1.3 1-1.7 2.2m-32.8 94.7c-.9 1.4.4 4.1 2 4.1q1.3-.1 1.4-2.5c0-2.5-2.3-3.5-3.4-1.6m105.4 140c-.6 1.3-.9 3.2-.6 4.3.2 1.1-.2 2.7-1 3.5-1.8 1.8-1.8 4.3 0 4.3q1.3 0 .9 2-.4 1.8.6 2t1.1 7.3c0 6.1-.3 7.7-2 9.2-1.9 1.8-2 1.7-2-.3 0-2.5-2.9-3.6-7-2.7q-3 .6-3-.4c0-1.9-4.2-1.2-6.1 1.1-1.9 2.1-1.9 2.1-1.3-2.5.6-4.3.5-4.7-1.3-4.7q-2 0-2.6 2.1c-.5 1.8-.8 1.9-2.7.7-1.7-1.1-2.2-1.1-3 .2-.5.8-1 2.5-1 3.6s-.7 2.7-1.5 3.4q-1.5 1.3-1.5.1-.2-1-2-1.1t-2-1c0-.6-1.1-1-2.5-1-2.5 0-3.5 2.3-1.5 3.5q1 .7 1 2.2.1 1.8-1.4.4c-.8-.7-2.7-.8-4.7-.4-3.2.6-3.3.5-1.7-1 .9-.9 2.4-1.7 3.2-1.7q1.5-.2 1.6-1.5c0-1.5-2.6-2-5.4-.9-.9.3-1.6 1.3-1.6 2.1q0 1.4-1.9.8c-4.3-1.3-7.2 3.2-3.3 5.4q1.4 1 .5 1.1-1.2.2-1.3 1.5a257 257 0 0 0 22 41.1c.1 1.3 9.2 13.6 18.5 25.1a289 289 0 0 0 49.9 48.4c5.9 4.9 25.1 17.6 36.6 24.1a262 262 0 0 0 61 26.8q22 6.9 27.3 4.2a9 9 0 0 1 3.7-1c4 .3 5.1-.2 4.8-2.5-.2-1.7-1.3-2.4-4.7-3.3-2.5-.6-4.6-1.5-4.8-2.1-.5-1.5 6.7-2.7 8-1.4 1.4 1.4 4.7 1.4 4.7.1q.1-1 1.3-1c.6 0 2.3-.9 3.7-2q6-4.6 6 1.5c0 4.4 2.3 5.6 5.2 2.8 1.7-1.8 1.8-2.3.7-4.1a7 7 0 0 0-3.2-2.6c-2.6-.6-1.8-4.2.8-3.8 1.1.2 2.5 1 3.1 1.7 1.3 1.8 5.4 1.6 7.7-.3.9-.9 3.3-1.5 5.2-1.4 2.9.1 3.5-.2 3.5-1.8q.2-1.8 1.5-2 1.7.1.9-2.5c-.5-2.2-.3-2.5 1.8-2.5 3.2 0 7.8-5.7 7.8-9.5 0-2-4.7-2-5.2 0q-.4 1.3-1.6.7c-.9-.6-.7-1.3.8-3 3.3-3.6 1.9-10.2-2.2-10.2-2.5 0-4-1.7-3.4-3.7.5-1.5 1.3-1.8 3.5-1.5 3.3.5 4.8-1.2 3.1-3.3q-1.3-1.6-.1-1.5c1.8 0 1.3-2.9-.9-5.2-2-2.1-2-2.1 0-3.5 3-2.1 2.5-3.1-2.2-4.3l-7.3-2c-1.6-.5-5.2-1-8-1.1s-5.7-.6-6.5-1-5.1-1.5-9.5-2.4c-4.4-1-11.4-2.8-15.5-4.1s-9.5-2.8-12-3.4a351 351 0 0 1-35-14.6c-15-7-38.7-22.9-54.1-36.4-4.2-3.7-8.5-7.3-9.6-8.1s-5.9-6.1-10.8-11.9a100 100 0 0 0-9.7-10.8q-.7-.5-.8-1.7t-.8-1.7a75 75 0 0 1-7.3-9.8 154 154 0 0 0-8.1-11.4c-1-1.1-1.8-2.5-1.8-3.1s-1.3-2.4-3-4c-2.3-2.2-3-2.5-3-1.2q0 1.5-1 1.7-.9-.2-1-1.5-.1-3.2 1.6-2.9c1.5.2.6-3.7-1.6-6.5l-1.8-2.4zm-61 29.5q0 1.6 2.6 1.6c3.1 0 2.8-2.3-.4-2.8q-2.2-.3-2.2 1.2m275.8 124c-3.4 2.5-1.6 4.6 2.6 3 1.9-.7 2.2-4.4.4-4.4-.7 0-2.1.7-3 1.4m-44.8 62.1q0 1.5 3 1.5t3-1.5-3-1.5-3 1.5m-181 22.7c0 2 24 23.7 33 29.8l4 3c1.1 1.2 10.9 7.9 14.1 9.6 1.9.9 6.8 3.9 10.9 6.7a139 139 0 0 0 34.8 18.2c2.8 1.4 6.3 2.5 7.9 2.5 2.2 0 3.3.7 4.1 2.5.6 1.4 1.5 2.4 1.9 2.3.5-.1 2.6.6 4.8 1.6a219 219 0 0 0 19.1 6.6c1.7.6 4 1 5.2 1 2.2 0 7.3 1.9 8.2 3.1.8 1.1 13.2 4.2 17.8 4.4s9.5 2.3 8.6 3.7c-.3.4 1.1.9 3 .9 4.1.2 3.7.1 9.2 1.8q4.2 1.4 6 .3c1-.6 4.2-.8 7.1-.5 4.4.5 5.3.3 5.3-1q0-1.5-1-2.2c-.5-.3-1-1.5-1-2.6 0-2.5-3.1-2.5-4.8.1-1.3 2.1-4.2 1.7-4.2-.6q-.2-1.3-1.5-1.4-1.5-.1-1.6 3.7c-.1 3.6-.2 3.7-1.1 1.3-.9-2.3-1.6-2.6-6.4-2.7-7.2-.2-9.1-.9-9.8-3.9q-.6-2.9-2.8-2.1c-1.1.3-5.8.1-10.5-.6-7.1-.9-8.6-.9-9.4.4q-1.1 1.6-1.6.1a2 2 0 0 0-1.7-1.2q-1.1-.2-1.2-2.3c.1-2.1-.2-2.2-6.6-1.9-3.7.1-6.9-.2-7.3-.8-.3-.5-1.9-1-3.6-1q-3 0-2.9-1.8c0-2.3-4.6-5-9.3-5.5-2-.2-4-.7-4.4-1-.3-.4-1.3-.7-2.1-.7s-2.4-1-3.6-2.3a16 16 0 0 0-10.1-4.7c-2 0-2.5-.5-2.5-2.6q0-2.7-1.4-2.1c-.8.3-2.2-.1-3.3-.8s-3.4-1.5-5.4-1.5q-3.6.1-5.7-2.5a12 12 0 0 0-5.2-3.2 18 18 0 0 1-6.6-3.9c-1.9-1.9-4.5-3.4-5.8-3.4-2.2 0-15.5-12.4-14.4-13.5 1.3-1.4 6 1 9.3 4.7 2.9 3.3 3.9 3.9 6 3.4 2.2-.6 2.7-.2 3.6 2.1s2.5 3.4 9.2 6.2l12.3 5.2c2.2 1.1 5.4 2 7 2q3.4.1.7.6-2.1.5-2.3 2c0 1.2.8 1.5 3.9 1 2.8-.3 4.3 0 5.5 1.1 1.2 1.3 1.8 1.3 2.8.4.7-.7 2.1-1.2 3.3-1.2s2.6-.5 3.3-1.2q1.3-1.4 1.2.8c0 1.6 1 2.4 4.1 3.3l5.3 1.7c.7.3 1.9-.7 2.6-2.1 1.2-2.3 1.2-2.8 0-3.5q-1.7-1.1-.2-1 1.3.2 1.9 2.1c.5 1.8 1.1 2 3.9 1.4 2.6-.4 3.4-.2 3.4.9q-.1 1.3-1.1 1.8c-1.4.5-.2 4.8 1.3 4.8.6 0 1.7-.8 2.4-1.8 1.3-1.6 1.3-1.6 1.5.3v3.7q-.2 1.8 1.8 1.8 2 .1 2.1 1.1t2 .4q1.8-.6 2 .4t2 1.1 2 .8c0 .5 1.7 1.4 3.7 2 2.9.9 3.9.9 4.5-.1 1.3-2 .9-3.2-1.7-5.7a7 7 0 0 1-2.5-5.3c0-2.9.1-3 1.9-1.3a9 9 0 0 1 2.3 5q.3 3 1.8 3.1c3.2 0 5.6 4.8 2.8 5.7-1.5.5-.3 3.7 1.7 4.4.8.4 2.2 0 3.1-.7 3.6-3 11.4-.3 11.4 3.8 0 2.9 3.5 3.1 5.2.3 1.7-2.7 6.8-2.7 7.5 0q.5 2.2 2.4 1.5c1-.4 2.4-.3 3.1.2s2.2.8 3.3.9c9.3.3 9.3.4 8.8 2.3-.8 3 1.4 6.1 4.4 6.1 2.1 0 2.4-.4 2-2.2-.8-2.9 1.1-5.2 2.9-3.7.8.6 1.4 2 1.4 3.1q0 1.8 1.3 1.4l3-1.2q1.5-.7 1.7-1.3c0-1.3 6.7-.4 10.3 1.4q3.8 1.7 4.5.8c1.1-1.6 5.2-3.4 6.2-2.8 1.7 1 1.1 2.5-1 2.5q-1.8 0-2 1c0 1.8-4.8 2.2-9.4.6-6.6-2.3-7.9-2.1-7.2.8.5 2.2.2 2.4-3.4 2.8a13 13 0 0 1-5.7-.6q-1.6-1-2.9.8a5 5 0 0 1-3.3 1.9q-2 .2-2.1.9c0 .4 3 .9 6.8.9 3.7.1 8 .3 9.7.5s3.3-.2 3.7-.9q.8-1.4 1.8.3c.8 1.3 5.2 1.5 28.5 1.7 15.9.1 27.5-.2 27.5-.7s1.2-.9 2.8-.9c13.2-.2 15.6-.3 13.7-1.1q-2.8-1-.1-.9 2 0 1.4-2.6c-.3-1.4-.1-2.5.3-2.5q.8.1.9 1.5.2 1.3 1.5 1.5 1.4-.2 1.5-1.5c0-.9 1.1-2.7 2.4-4 1.4-1.3 2.6-3.2 2.8-4.2.5-2.6 4.4-2.8 7-.4 1.8 1.7 2 2.3.9 3.4-1.1.9-1.4.9-1.8-.1-.7-1.8-4.3-1.5-5 .5-.4 1-1.6 2.5-2.7 3.4-1.7 1.4-1.8 1.9-.7 3.3s1 1.6-1.9 1.6q-3 0-2.9.5c.9.9 7.8 1.2 9.1.4q1.6-1-.2-.9-1.3-.2.8-1c2-.8 12-1.7 22.2-2.1q3 0 2.3-.6c-2.9-1.1-1-2.1 3.7-1.9 2.8.1 5-.1 5-.6q.2-.7 2.3-.7c1.2 0 3-.1 4-.3 2.1-.5 4.6-2.8 3-2.8q-1-.2-1.6-2c-.8-3.3-3.7-2.5-3.7 1 0 3.3-1.5 4.1-2.3 1.1-.3-1.4-1.8-2-5.9-2.5-4.6-.6-6.2-.3-9.8 1.5q-7.3 3.8-7.5-2.2c0-1.8.7-2.5 3.4-3 5.4-1.1 7.2-5.8 2.4-6l-2.8-.1 2.9-.7c3.1-.6 4.9-3.1 2.3-3.1q-1.3-.2-2.1-1.5c-.3-.8-1.5-1.5-2.6-1.5q-2 0-2-2t1.9-2c1.1 0 2.2-.6 2.4-1.3q.5-.7.6 2c.1 2.8.5 3.3 2.6 3.3q2.6.1 2.5-2 .1-1.8 1-2t1-2.5q-.1-2.4-1.4-2.5t-1.9-1.9c-.4-1.5-1.3-1.8-5.8-1.7l-5.4.1v3.8q0 3.6-1.2 3.7c-.8 0-1.3-1.3-1.3-3 0-2.4-.4-3-2.2-3a8 8 0 0 0-3.7.9q-1.5.9-3.2-.2c-1.3-.8-2.1-.7-3.3.3-.9.7-2 1-2.4.6-1-1.1 2.7-3.6 4.3-2.9.8.2 2 .1 2.7-.3a8 8 0 0 1 3.3-.9q2.1.1 2-2.5c0-2.3-.4-2.5-4.1-2.4-2.2 0-4.9.4-6 .9s-4 1-6.5 1.2c-4.2.4-4.7.2-5.3-1.9-.8-3.2-.7-4.5.3-3 .6 1 1.3 1.1 3.4.1s2.7-1.9 2.7-4.6c0-3-.3-3.3-3-3.3-1.6 0-3-.5-3-1 0-1.7-7.4-1.1-11.8 1-2.4 1.2-6.1 2-9.2 2s-5.2.5-5.5 1.2q-.6 1.3-8.8 1.6c-4.5.1-10.2.7-12.7 1.2-13.6 2.9-58.6 3.9-86.5 2a416 416 0 0 1-122.5-31.5c-14.4-6-14.6-6.1-17.2-5q-1.6.6-5.5-2.8a22 22 0 0 0-6.3-4.2c-1.4-.4-3.6-1.8-4.9-3.1s-2.9-2.4-3.5-2.4-2.3-.7-3.8-1.4q-2.7-1.4-2.8-.4m32.5 18.2c1.9.8 3.5 2 3.5 2.5 0 1.2-4.7-.5-7-2.6q-2.9-2.5 3.5.1m10.5 7.5c0 1.3-2.6 3.2-3.3 2.4-1.4-1.3-.6-3.3 1.3-3.3q1.8 0 2 .9m103.8 37.4c2 1.9 2.1 2.2.7 3.6-1.5 1.5-1.7 1.4-2.9-.2-.7-.9-1.9-1.7-2.5-1.7-1.8 0-4.3-2.8-3.6-4 .9-1.4 5.6-.1 8.3 2.3m180.5 16.6c.3 1.1.2 2.2-.1 2.5-.9 1-3.1-1.5-2.5-3 .7-2 2-1.7 2.6.5m-21.1 12.2q.5 1.3-3.9 1a12 12 0 0 0-6.8 1.5q-5.4 3.5-.5-2.3c4.1-4.6 10.2-4.7 11.2-.2m-27.2 1.4c0 1.7-1.7 2.8-3 2q-.9-.7.2-2.5c1.3-2 2.8-1.8 2.8.5m29-49.1q.1 1.5 1 1.6c.6 0 1 1.3 1 3s.5 3 1.1 3c2.1 0 4-3 3.7-5.7-.2-2.3-.8-2.9-3.5-3.1-2.5-.2-3.3.1-3.3 1.2m66.6 41.1c-2.3 2.3-2.1 2.5 1.9 2.2 1.9-.1 3.5-.6 3.5-1.1q.2-.7 1.5-.3 1.4.5 2-.3c.4-.6-.5-1-1.9-1s-3.1-.3-3.9-.6-2.2.2-3.1 1.1m-12.4 5.6q-1.2 1.9-.3 1.4c1.2-.7 4.8-1.6 6.9-1.7 2.7-.2 1-1.8-2.1-1.8q-3.2 0-4.5 2.1m-661 406.2c-5.9 6.3 1.5 15.1 8.6 10.1 4.6-3.2 1.5-12.4-4.3-12.4-1.2 0-3.1 1-4.3 2.3m416.3 1.2c-1 .9-6.3 4-11.7 7.1-9 5.1-9.8 5.8-9.8 8.5 0 2.5.3 2.9 1.9 2.4 3.3-1 22.6-11.6 23.3-12.8 1.2-2 .9-6.7-.4-6.7-.7 0-2.2.7-3.3 1.5m-218.8 12.7c-.4 6.8-.7 28.4-.7 48l-.1 35.8h10.1l-.2-47.8-.3-47.7-4.1-.3-4.1-.3zm910.7-7c-6.3 3-4.1 12.8 2.8 12.8 6.4 0 9.2-8 4.2-11.9-3-2.3-3.9-2.4-7-.9m-86.7 1.5c-.2.4-.6 21.9-.8 47.8l-.4 47 5.2.3 5.1.3.4-23.8c.3-22.6.4-24 2.6-28.1 7.7-14.4 29.8-14.3 37.5.1 2.1 4 2.2 5.1 2 27.2q-.1 22.8.9 24.2c1.4 1.8 7.3 1.6 8.8-.2.9-1.1 1.1-7.5.8-25.2-.5-27.5-1.3-30.9-8.5-37.9a29.4 29.4 0 0 0-39-.3c-2 1.7-3.9 2.7-4.4 2.2s-1-8.3-1.1-17.3l-.3-16.5-4.2-.3c-2.2-.2-4.3.1-4.6.5m-430.8 19.5c-.1 4-.4 10.2-.8 13.8l-.6 6.5-13.5.5-13.5.5-.3 3.4c-.2 2 .2 3.7 1 4.2.7.5 7 .9 14 .9h12.7l.3 13.7.3 13.8 4.3.3 4.2.3v-9.4c0-5.2.3-11.5.6-14.1l.7-4.6h27.7v-4c0-2.2-.3-4.1-.7-4.1l-13.8-.8-13-.6-.2-11.5c-.4-15.8-.5-16-5.3-16h-4zm-718-3.2c-5.8 1-9.5 2.9-15.5 8.1-2.6 2.2-5 3.7-5.5 3.2s-.9-3.1-1.1-5.8l-.3-5h-9l-.8 51c-.4 28-.5 51.6-.2 52.3q.4 1.3 5.2 1l4.8-.3.3-22c.1-12.1.7-22.4 1.2-22.9q1-.8 5.9 3.7c6.9 6.5 10.9 8 21.1 8 6.9 0 9.5-.5 13.5-2.4 6.6-3.1 13-9.7 16.3-16.7 2.4-5.1 2.7-6.9 2.7-16.7s-.3-11.6-2.6-16.5a30 30 0 0 0-15.2-15.9 35 35 0 0 0-20.8-3.1m14.6 10.1c5.1 2.4 9.7 7.2 12.2 12.7a44 44 0 0 1-.6 26.5 25 25 0 0 1-22.3 13.7c-12.9 0-21.7-7.4-24.8-20.8s3.1-27.2 14.5-32.3a29 29 0 0 1 21 .2m56.5-9.2c-10.7 3.3-16.9 11.9-15.4 21.3 1.4 8.3 8.7 13.3 27.4 18.8 4.1 1.2 9 3.3 10.8 4.7 2.7 2 3.2 3 3.2 6.6 0 5.1-1.8 7.9-6.4 10.1-8.5 4-21.1.6-24.9-6.7-1.8-3.4-2.2-3.7-6.3-3.7-5.5 0-6.2 1.4-3.5 6.8 4.7 9.1 14.7 13.7 28.5 13 6.7-.3 9.2-.9 12.9-3.1 8.3-4.9 11.6-12.3 9.2-20.6-2.3-7.6-7.6-11.2-22.9-15.7a58 58 0 0 1-12.6-5c-10.9-7.2-5.1-19.4 9.2-19.4 6.9 0 12.6 3.2 15.1 8.3 1.7 3.4 2.2 3.7 6.3 3.7 4.2 0 4.4-.1 4.4-2.9 0-5.9-8.6-14.3-16.6-16.1a54 54 0 0 0-18.4-.1m56.3.7c-1 .4-1.3 8.4-1.3 35 0 38.1-.3 36.3 6.5 35l3.5-.7-.2-34.7-.3-34.7-3.5-.2c-1.9-.1-4.1 0-4.7.3m49.7 1c-14.3 5.2-22.2 17.1-22.4 33.9-.1 15.3 6.2 27 17.9 33 5 2.6 7.2 3 14.9 3.3 11.5.5 18.2-1.8 24.4-8 4.2-4.3 8.4-11.6 7.5-13-.2-.5-2.3-.8-4.6-.8-3.8 0-4.5.4-7.7 4.7-4.9 6.6-9.9 9.3-17.8 9.3-10.4 0-16.2-3.4-21-12.5-2.4-4.5-2.7-6.1-2.7-15.5 0-9.9.2-10.8 3.1-16 1.8-3.2 4.9-6.8 7.3-8.5 3.9-2.8 4.9-3 12.4-3 5.7.1 9.2.6 11.4 1.8 3.4 1.8 9.3 8.4 9.3 10.4q-.1 1.3 5.5 1.3c3.1 0 5.5-.4 5.5-1 0-2-3.9-8.5-7.1-11.9q-7.7-8-22.8-8.8c-6.3-.2-9.8.1-13.1 1.3m87-.7c-7 1-15.4 5.6-20.3 11.2-6.3 7.1-8.2 13.2-8.2 25.4.1 8.9.4 10.6 2.9 15.9a36 36 0 0 0 48.3 15.5c16.6-8 23.9-31.7 15.2-49.6-6.3-13-22-20.6-37.9-18.4m16.6 10c5.6 2.5 11 8.4 12.8 13.9a39 39 0 0 1-.8 24.7 24 24 0 0 1-23 14.5c-7.6 0-12.9-2.3-17.7-7.7-4.9-5.5-6.4-10.2-6.3-20.3 0-12.6 4.2-20.1 13.9-24.9a30 30 0 0 1 21.1-.2m100.1-8.9a34 34 0 0 0-25.8 21.2 46 46 0 0 0 .1 29.3 36 36 0 0 0 19 19 41 41 0 0 0 28.3-.8c17.2-7.9 25-27.7 18.5-46.7a35 35 0 0 0-19.8-20.2 46 46 0 0 0-20.3-1.8m17.8 10.4c11.6 5.4 16.9 18.8 13.1 33.5a24 24 0 0 1-13.1 16.7c-4.7 2.2-6.5 2.6-12.2 2.2-8.4-.4-13.7-3-18-8.7-4-5.1-5.4-10.3-5.4-19 0-13.3 6.2-22.9 16.9-26.1a29 29 0 0 1 18.7 1.4m60.1-8.7a35 35 0 0 0-21.6 34.4c0 21.3 13.4 35.9 32.9 35.9 9.1 0 14.7-2.1 21.4-8.1l5.6-5 .7 2.7c.8 3.3-.1 16.7-1.6 21.7a25 25 0 0 1-11.1 12.8 33 33 0 0 1-22.4-.1 23 23 0 0 1-10.3-8.8c-2-2.8-2.9-3.2-6.8-3.2-5.1 0-5.5 1-2.4 6.9 5.2 10.3 18.9 16.8 32.9 15.8 4.2-.3 9.8-1.4 12.5-2.4 5.2-2 13.3-9.1 15.5-13.9l2.4-4.9a994 994 0 0 0 2.3-83c-.4-1.2-1.7-1.5-5.3-1.3l-4.8.3-.3 4.5c-.5 7.5-.7 7.6-6.6 2.3a34 34 0 0 0-33-6.6m25.9 9.6c11.7 6.4 16.7 23.6 10.7 36.9-4.6 10.4-11.8 15.2-22.7 15.2-8.2 0-13.4-2.2-18.5-8s-6.4-9.8-6.4-19.4 1.3-13.6 6.4-19.4a23 23 0 0 1 21.5-7.9c2.8.3 6.8 1.5 9 2.6m101.4-10.3c-16.2 2.8-26.9 17-26.9 35.5 0 15.7 7.6 28.4 20.6 34a31 31 0 0 0 12.4 1.8c10.2 0 15.6-2 21.9-8.2 2.3-2.3 4.6-3.9 5.2-3.6.5.4.9 3.1.9 6.1v5.4h10l.2-26.5.3-34.8v-8.2h-10l-.3 4.5c-.2 2.5-.7 4.9-1.1 5.3-.5.5-2.9-1.2-5.5-3.6a32 32 0 0 0-27.7-7.7m18.7 9.9c15.4 7 20.2 29 9.5 43.8-6.7 9.3-21.5 12.2-31.8 6.3-8.8-5-12.5-12.3-12.5-24.5q-.2-18.3 13.5-25a27 27 0 0 1 21.3-.6m-73.6 25.5v35.6h8.9l.6-5.3c.3-2.8.5-18.7.3-35.2l-.3-30-4.7-.3-4.8-.3zm305.7-33.4c-16 2.7-27.7 17.7-27.7 35.5 0 14.4 6.9 26.6 18.4 32.5 6.5 3.3 7.4 3.5 16.5 3.4 11.4-.1 15-1.4 22.3-8.2 4.6-4.2 7.8-9.3 7.8-12.2 0-.5-2-1-4.4-1-4.1 0-4.7.3-7.3 4.2-4.2 6.3-10 9.1-18.7 9.2-5.3 0-8.1-.6-11.1-2.1-5.1-2.7-6.8-4.6-9.9-11.3a40 40 0 0 1-.2-28.5c4.5-9.7 10.4-13.5 21.1-13.5 9.1 0 16.4 4.1 20.1 11.2 1.3 2.5 2 2.8 6.4 2.8 2.8 0 5-.2 5-.4l-1.9-4.8c-2.4-5.4-7.7-11-12.8-13.7a61 61 0 0 0-17.8-4zm76.6 1.8c-2.9 1-7.1 3.2-9.4 4.8-20.7 14.3-18.3 50.7 3.9 61.8 6.3 3.1 9.4 3.8 17.3 3.7 20.8-.2 35.1-15 35.1-36.3a34 34 0 0 0-19.7-32.4 40 40 0 0 0-27.2-1.6m19.5 7.7c6.7 2 13.4 8.6 15.7 15.6a41 41 0 0 1-1 24.3c-2.4 5-7.6 10.2-12.3 12.2a32 32 0 0 1-21.9-.4c-11.6-6.1-16.6-22.3-11.2-36.8 4.9-13 17.1-18.9 30.7-14.9m68.7-8.6q-7.8 1.5-14.3 6.4c-11.4 8.6-16.2 26.9-11.1 41.9 5.3 15.7 15.5 23.3 31.4 23.3a27 27 0 0 0 21.5-8.4c2.4-2.2 4.7-4.1 5.1-4.1s.9 2.6 1.1 5.7l.3 5.8h9l.6-14c.4-7.7.7-23.4.8-34.8l.1-20.8-5.2.3-5.3.3-.3 5.2c-.2 2.9-.7 5.3-1.2 5.3a21 21 0 0 1-5.3-4.3 33 33 0 0 0-27.2-7.8m19.3 10.7c9.8 4.9 14.8 14.5 14 26.9-1 16.1-10.7 25.5-26 25.5-10.2 0-18.5-6.1-22.7-16.8-2.1-5.2-1.7-18 .8-23.3a25 25 0 0 1 33.9-12.3m66.7-9.3a33 33 0 0 0-20.3 17.6c-2.5 5.1-2.7 6.6-2.7 17.1 0 11 .1 11.8 3.3 18.2a30 30 0 0 0 17.1 15.9 47 47 0 0 0 28.7-.8c7.1-3.7 16.6-15.5 14.9-18.3-.3-.6-2.4-1-4.6-1-3.6 0-4.3.5-7.2 4.6a22 22 0 0 1-18.7 9.4c-10.3 0-16.1-3.5-20.8-12.5-2.4-4.5-2.6-6.1-2.6-15.6 0-10.3.1-10.8 3.4-16.3 4.8-7.9 10.2-11.1 19-11.1 3.6 0 7.7.3 9.2.8 3.5.9 9.5 6.1 11.4 9.8 1.3 2.6 2 2.9 6.5 2.9 4.8 0 5-.1 4.3-2.3-2-6.7-7.3-12.6-14.5-16.2a46 46 0 0 0-26.4-2.2m203.5 1.2c-2.5.8-6.5 3.1-8.8 5-2.3 2-4.6 3.4-5.2 3-.5-.3-1-2.2-1-4 0-2.8-.5-3.6-2.4-4.1a15 15 0 0 0-4.7-.2c-2.1.3-2.5 1-3.1 5.8-.3 3-.6 18.7-.7 34.7l-.1 29.3 2.5.6c1.4.3 3.6.3 4.9 0l2.3-.6.5-22.9c.4-22 .5-23.1 2.9-27.7 1.5-2.9 4.2-6.1 6.8-7.9 3.9-2.7 5-3 12-3 6.7 0 8.3.4 11.8 2.7 2.2 1.5 5.1 4.4 6.4 6.5 2.3 3.7 2.4 4.7 2.9 28.3l.5 24.5h9v-26c0-26 0-26-2.6-31-5.9-11.4-20.6-17.1-33.9-13m-57.1.5c-.6.4-.8 13.6-.7 35.1l.3 34.4 3.3.3c6.3.6 6.2 1.4 6.2-35.9 0-26.4-.3-33.9-1.2-34.1-3.5-.4-7-.3-7.9.2m137.1-.1a34 34 0 0 0-21.8 17.3 49 49 0 0 0-3.6 22c2.8 20.3 14.7 31.7 33 31.8 7.1 0 8.9-.4 14.3-3.1 3.4-1.7 7.2-4.4 8.3-6s2.8-2.9 3.6-2.9c1.2 0 1.4 1.9 1 11.3-.4 10.2-.7 11.9-3.2 16.1-4.2 7.2-9.3 10-18.8 10.5q-16.4.8-23-10.5c-1.8-3-2.5-3.4-6.4-3.4s-4.4.2-4.4 2.4c0 1.3 1.5 4.6 3.3 7.2 10.4 15.7 39.8 18 53.5 4.3 1.9-1.8 4.5-5.6 5.9-8.3 3.5-6.9 4.4-20.2 4.1-58.1l-.3-30h-9l-.3 5.2c-.4 6.4-1.8 6.8-6.6 2a34 34 0 0 0-29.6-7.8m22.3 10.9c8.3 4.4 12.7 12.7 12.7 24a28 28 0 0 1-7.6 20.8 24.5 24.5 0 0 1-34.9-.1c-5.2-5.2-7.5-11.6-7.5-21.1 0-16.8 12.3-28.5 28-26.7 2.5.3 6.6 1.7 9.3 3.1"/></svg>