<svg xmlns="http://www.w3.org/2000/svg" width="1080" height="1080" viewBox="0 0 810 810"><defs><clipPath id="b"><path d="M10.78 9.83H84V86H10.78Zm0 0"/></clipPath><clipPath id="c"><path d="M72.7 21.48Q61.98 10.03 47.38 9.91q-14.62 0-25.2 11.43Q10.86 33.66 10.86 51.3t11.2 29.82a40 40 0 0 0 5.36 4.82c-.14-.96-.02-1.71-.02-1.71h-.02c.17-1.19.68-2.04.85-2.31l.18-.24 3.5-4.5a31 31 0 0 1-4.26-4.47q-7.05-9.25-7.06-21.43 0-14 8.89-23.5 7.66-8.03 17.9-8.15 11.8 0 19.72 10.24 7.06 9.25 7.07 21.43a37 37 0 0 1-4.76 18.02A19 19 0 0 1 66.97 73a61 61 0 0 0 9.69 2.75l.1.02A44 44 0 0 0 83.9 51.3q0-17.64-11.2-29.82"/></clipPath><clipPath id="e"><path d="M.8.83H74V77H.8Zm0 0"/></clipPath><clipPath id="f"><path d="M62.7 12.48Q51.98 1.03 37.38.91q-14.62 0-25.2 11.43Q.86 24.66.86 42.3t11.2 29.82a40 40 0 0 0 5.36 4.82c-.14-.96-.02-1.71-.02-1.71h-.02c.17-1.19.68-2.04.85-2.31l.18-.24 3.5-4.5a31 31 0 0 1-4.26-4.47q-7.05-9.25-7.06-21.43 0-14 8.89-23.5 7.66-8.03 17.9-8.15 11.8 0 19.72 10.24 7.06 9.25 7.07 21.43a37 37 0 0 1-4.76 18.02A19 19 0 0 1 56.97 64a61 61 0 0 0 9.69 2.75l.1.02A44 44 0 0 0 73.9 42.3q0-17.64-11.2-29.82"/></clipPath><clipPath id="d"><path d="M0 0h74v77H0z"/></clipPath><clipPath id="g"><path d="M53.31 89h5.22v2.29h-5.22Zm0 0"/></clipPath><clipPath id="h"><path d="M53.79 89.3q2.38 1.02 4.5 1.76c-.82-.31-2.6-.99-4.8-1.88"/></clipPath><clipPath id="j"><path d="M.31 0h5.01v2.16h-5Zm0 0"/></clipPath><clipPath id="k"><path d="M.79.3q2.38 1.02 4.5 1.76c-.82-.31-2.6-.99-4.8-1.88"/></clipPath><clipPath id="i"><path d="M0 0h6v3H0z"/></clipPath><clipPath id="l"><path d="M34.05 72.83h60.2v20.86h-60.2Zm0 0"/></clipPath><clipPath id="m"><path d="M72.54 81.08c-9.15-1.72-18.37-6.52-18.37-6.52-9.03-4.17-12.77.9-12.77.9l-6.08 7.86s-.72.97-.93 2.4l.02-.04.04-.07.01-.04q.1-.18.34-.47.08-.1.2-.21.01-.04.07-.08a4.5 4.5 0 0 1 2.85-1.17q.15-.02.31-.02l.31-.01h.14q.16 0 .31.02.33.01.6.07.88.15 1.95.5c1.68.48 3.04 1.1 3.04 1.1l2.66 1.16 6.21 2.74c2.22.9 3.98 1.59 4.8 1.88q2.47.87 4.62 1.4v.02q.18.06.35.08l.72.15q.85.2 1.65.33h.06a28 28 0 0 0 3.16.35l.21.02q1.88.09 3.44-.11c12.1-1.27 18.91-11.54 21.6-16.62.24-.49-.36-.96-.77-.59-6.03 5.61-14.03 6.08-20.81 5.01"/></clipPath><clipPath id="o"><path d="M.32.83h59.92v20.73H.32Zm0 0"/></clipPath><clipPath id="p"><path d="M38.54 9.08c-9.15-1.72-18.37-6.52-18.37-6.52-9.03-4.17-12.77.9-12.77.9l-6.08 7.86s-.72.97-.93 2.4l.02-.04.04-.07.01-.04q.1-.18.34-.47.08-.1.2-.21.01-.04.07-.08a4.5 4.5 0 0 1 2.85-1.17q.15-.03.31-.02l.31-.01h.14q.16 0 .31.02.33.01.6.07.88.14 1.95.5c1.68.48 3.04 1.1 3.04 1.1l2.66 1.16 6.21 2.74c2.22.9 3.98 1.59 4.8 1.88q2.47.87 4.62 1.4v.02q.18.05.35.08l.72.15q.85.2 1.65.33h.06a28 28 0 0 0 3.16.35l.21.02q1.88.09 3.44-.11c12.1-1.27 18.91-11.54 21.6-16.62.24-.49-.36-.96-.77-.59-6.03 5.61-14.03 6.08-20.81 5.01"/></clipPath><clipPath id="n"><path d="M0 0h61v22H0z"/></clipPath><clipPath id="q"><path d="M35.26 90.08h.4v.8h-.4Zm0 0"/></clipPath><clipPath id="r"><path d="m35.57 90.42.04.1z"/></clipPath><clipPath id="t"><path d="M.52.2h.14v.48H.52Zm0 0"/></clipPath><clipPath id="u"><path d="m.57.42.04.1z"/></clipPath><clipPath id="s"><path d="M0 0h1v1H0z"/></clipPath><clipPath id="v"><path d="M34.05 83.26h24.88v9.63H34.05Zm0 0"/></clipPath><clipPath id="w"><path d="M58.29 91.04a65 65 0 0 1-4.5-1.76l-.3-.14-6.2-2.72-2.69-1.16s-1.26-.56-2.85-1.05l-.18-.06q-1.06-.35-1.94-.49l-.6-.07-.31-.02h-.14l-.33.02-.3.02q-.3.03-.45.07-.01 0-.02.02a4.4 4.4 0 0 0-2.39 1.11l-.08.08-.2.21q-.23.3-.33.47l-.02.04-.03.07-.02.04q-.06.3-.06.6l.02-.02-.02.18v.45q.02.24.1.54a4 4 0 0 0 1.05 1.83q.25.27.46.42l.37.3a10 10 0 0 0 3.34 1.41h.02c4.29 1.09 11.53 2.18 19.08-.17q-.02 0-.5-.2"/></clipPath><clipPath id="y"><path d="M.32.48H24.8v9.41H.32Zm0 0"/></clipPath><clipPath id="z"><path d="M24.29 8.04a65 65 0 0 1-4.5-1.76l-.3-.14-6.2-2.72-2.69-1.16S9.34 1.7 7.75 1.2l-.18-.06Q6.51.8 5.63.66L5.03.6 4.72.57h-.14l-.33.02-.3.02q-.3.04-.45.07-.01 0-.02.02a4.4 4.4 0 0 0-2.39 1.11l-.08.08-.2.21q-.23.3-.33.47l-.02.04-.03.07-.02.04q-.06.3-.06.6l.02-.02-.02.18v.45q.02.24.1.54A4 4 0 0 0 1.5 6.3q.25.27.46.42l.37.3a10 10 0 0 0 3.34 1.41h.02c4.29 1.09 11.53 2.18 19.08-.17q-.02 0-.5-.2"/></clipPath><clipPath id="x"><path d="M0 0h25v10H0z"/></clipPath><clipPath id="A"><path d="M117.62 10.03h58.68v82.74h-58.68Zm0 0"/></clipPath><clipPath id="B"><path d="M166.31 14.77v50.28q0 8.76-7.55 14.12a20.2 20.2 0 0 1-11.92 3.76q-9.62.01-15.45-7.06a16.6 16.6 0 0 1-4.02-10.83l.11-50.14.12-4.87h-9.86l-.12 4.74v50.28q0 11.94 9.26 20.1a29.2 29.2 0 0 0 19.96 7.55q13.14 0 21.92-9.38 7.3-8.03 7.3-18.25l.12-50.15.11-4.89h-9.86"/></clipPath><clipPath id="D"><path d="M.62.03H59.3v82.74H.62Zm0 0"/></clipPath><clipPath id="E"><path d="M49.31 4.77v50.28q0 8.76-7.55 14.12a20.2 20.2 0 0 1-11.92 3.76q-9.61.01-15.45-7.06a16.6 16.6 0 0 1-4.02-10.83l.11-50.14.12-4.87H.74L.62 4.77v50.28q0 11.94 9.26 20.1a29.2 29.2 0 0 0 19.96 7.55q13.14 0 21.92-9.38 7.3-8.03 7.3-18.25l.12-50.15.11-4.89h-9.86"/></clipPath><clipPath id="C"><path d="M0 0h60v83H0z"/></clipPath><clipPath id="F"><path d="M220.75 9.91h9.75v82.78h-9.75Zm0 0"/></clipPath><clipPath id="H"><path d="M.75.91h9.75v82.78H.75Zm0 0"/></clipPath><clipPath id="G"><path d="M0 0h11v84H0z"/></clipPath><clipPath id="I"><path d="M117.3 118.72h12.24v2.58H117.3Zm0 2.58h2.94v5.8h-2.93Zm0 5.8h11.48v2.57h-11.47Zm0 2.57h2.94v7.98h-2.93Zm0 0"/></clipPath><clipPath id="K"><path d="M.3.72h12.24V3.3H.3Zm0 2.58h2.94v5.8H.3Zm0 5.8h11.48v2.57H.31Zm0 2.57h2.94v7.98H.3Zm0 0"/></clipPath><clipPath id="J"><path d="M0 0h13v20H0z"/></clipPath><clipPath id="L"><path d="M142.42 118.63h17.56v19.09h-17.56Zm0 0"/></clipPath><clipPath id="M"><path d="m148.43 129.9 2.76-7.49 2.76 7.5Zm4.12-11.2h-2.74l-7.32 18.93h3.08l1.95-5.26h7.32l1.94 5.26h3.08l-7.25-18.75"/></clipPath><clipPath id="O"><path d="M.42.63h17.56v19.09H.42Zm0 0"/></clipPath><clipPath id="P"><path d="m6.43 11.9 2.76-7.49 2.76 7.5ZM10.55.7H7.8L.49 19.63h3.08l1.95-5.26h7.32l1.94 5.26h3.08L10.61.88"/></clipPath><clipPath id="N"><path d="M0 0h18v20H0z"/></clipPath><clipPath id="Q"><path d="M173.72 118.63h11.76v19.55h-11.76Zm0 0"/></clipPath><clipPath id="R"><path d="M182.56 132.25q0 1.58-.77 2.4-.78.81-2.26.81-.8 0-1.43-.31a2.4 2.4 0 0 1-.97-.84 2.2 2.2 0 0 1-.37-1.24v-.25h-2.92v.27a4.7 4.7 0 0 0 2.76 4.37q1.3.62 2.95.64 2.79-.01 4.35-1.55a5.8 5.8 0 0 0 1.57-4.28v-13.55h-2.9"/></clipPath><clipPath id="T"><path d="M.76.63h11.72v19.55H.76Zm0 0"/></clipPath><clipPath id="U"><path d="M9.56 14.25q0 1.58-.77 2.4-.78.81-2.26.81-.8 0-1.43-.31a2.4 2.4 0 0 1-.97-.84 2.2 2.2 0 0 1-.37-1.24v-.25H.84v.27a4.7 4.7 0 0 0 2.76 4.37c.86.4 1.85.64 2.95.64q2.79-.01 4.35-1.55a5.8 5.8 0 0 0 1.57-4.28V.72h-2.9"/></clipPath><clipPath id="S"><path d="M0 0h13v21H0z"/></clipPath><clipPath id="V"><path d="M200.75 118.63h17.41v19.09h-17.4Zm0 0"/></clipPath><clipPath id="W"><path d="m206.71 129.9 2.76-7.49 2.76 7.5Zm4.12-11.2h-2.74l-7.32 18.93h3.09l1.94-5.26h7.32l1.94 5.26h3.09l-7.24-18.75"/></clipPath><clipPath id="Y"><path d="M.75.63h17.41v19.09H.76Zm0 0"/></clipPath><clipPath id="Z"><path d="m6.71 11.9 2.76-7.49 2.76 7.5ZM10.83.7H8.1L.77 19.63h3.09l1.94-5.26h7.32l1.94 5.26h3.09L10.9.88"/></clipPath><clipPath id="X"><path d="M0 0h19v20H0z"/></clipPath><clipPath id="aa"><path d="M232.37 118.32h15.11V138h-15.11Zm0 0"/></clipPath><clipPath id="ab"><path d="m241.59 126.94-2.14-.45q-1.9-.4-2.7-1.1-.75-.67-.76-1.66 0-.86.5-1.43.55-.62 1.42-.96a6 6 0 0 1 2.08-.32q1.21-.02 2.12.36.9.38 1.42 1.05.52.69.62 1.6l.02.23h2.9l-.01-.28a5 5 0 0 0-.99-2.9 6 6 0 0 0-2.49-1.97 8.5 8.5 0 0 0-3.53-.7q-2.05 0-3.63.68a6.3 6.3 0 0 0-2.53 1.9 4.5 4.5 0 0 0-.9 2.84q0 2.07 1.4 3.42c.92.9 2.36 1.51 4.34 1.92l2.14.45q1.92.4 2.75 1.12c.55.49.78 1.03.78 1.75q0 .81-.53 1.46-.52.64-1.5 1.02-.96.4-2.22.4-1.32 0-2.37-.38a4 4 0 0 1-1.63-1.03 3 3 0 0 1-.74-1.55l-.04-.23h-2.91l.02.29a5.3 5.3 0 0 0 1.09 2.91 6 6 0 0 0 2.62 1.9q1.65.68 3.78.68 2.23 0 3.87-.7a5.33 5.33 0 0 0 3.52-5.1q-.01-2.08-1.39-3.34-1.36-1.26-4.44-1.88"/></clipPath><clipPath id="ad"><path d="M.37.32h15.07V20H.37Zm0 0"/></clipPath><clipPath id="ae"><path d="m9.59 8.94-2.14-.45q-1.9-.4-2.7-1.1-.75-.67-.76-1.66 0-.87.5-1.43.54-.62 1.42-.96A6 6 0 0 1 8 3.02q1.21-.01 2.12.36.9.38 1.42 1.05.53.69.62 1.6l.02.23h2.9l-.01-.28a5 5 0 0 0-.99-2.9 6 6 0 0 0-2.49-1.97 8.5 8.5 0 0 0-3.53-.7Q6 .41 4.42 1.1A6.3 6.3 0 0 0 1.89 3 4.5 4.5 0 0 0 1 5.84q0 2.07 1.4 3.42c.92.9 2.36 1.51 4.34 1.92l2.14.45q1.92.4 2.75 1.12c.55.49.78 1.03.78 1.75q0 .81-.53 1.46-.52.64-1.5 1.02-.96.4-2.22.4-1.32 0-2.37-.38a4 4 0 0 1-1.63-1.03 3 3 0 0 1-.74-1.55l-.04-.23H.46l.02.29a5.3 5.3 0 0 0 1.09 2.91 6 6 0 0 0 2.62 1.9q1.65.68 3.78.68 2.23 0 3.87-.7a5.33 5.33 0 0 0 3.52-5.1q-.01-2.07-1.39-3.34-1.36-1.25-4.44-1.88"/></clipPath><clipPath id="ac"><path d="M0 0h16v20H0z"/></clipPath><clipPath id="af"><path d="M281 118.72h17.13v18.93H281Zm0 0"/></clipPath><clipPath id="ag"><path d="m289.52 126.84-5.16-8.12H281l7.07 10.83v8.1H291v-8.1l7.07-10.83h-3.36"/></clipPath><clipPath id="ai"><path d="M0 .72h17.08v18.93H0Zm0 0"/></clipPath><clipPath id="aj"><path d="M8.52 8.84 3.36.72H0l7.07 10.83v8.1H10v-8.1L17.07.72H13.7"/></clipPath><clipPath id="ah"><path d="M0 0h18v20H0z"/></clipPath><clipPath id="ak"><path d="M276.16 9.66h62.57v83.1h-62.57Zm0 0"/></clipPath><clipPath id="al"><path d="M312.24 46.41H285.9V19.66h26.06q8.15 0 12.65 5.84a12.4 12.4 0 0 1 2.68 7.67q0 7.19-6.81 11.08a16.7 16.7 0 0 1-8.23 2.18m10.29 7.67q9.6-4.15 13.02-13.26 1.46-3.76 1.46-7.67 0-10.46-8.52-17.42a25 25 0 0 0-16.54-5.84l-30.81.11h-4.88v4.88l-.12 36.4v41.4h9.75V56.18h24.46q5.98 4.5 9.87 12.65 3.29 7.07 7.3 20.33l.97 3.54h10.21l-1.94-6.22Q329.6 62.4 322.53 54.1"/></clipPath><clipPath id="an"><path d="M.16.8h62.57v82.96H.16Zm0 0"/></clipPath><clipPath id="ao"><path d="M36.24 37.41H9.9V10.66h26.06q8.14 0 12.66 5.84a12.4 12.4 0 0 1 2.67 7.67q0 7.19-6.81 11.08a16.7 16.7 0 0 1-8.23 2.18m10.29 7.67q9.6-4.15 13.02-13.26 1.46-3.76 1.46-7.67 0-10.46-8.52-17.42A25 25 0 0 0 35.97.91l-30.81.11H.28V5.9L.16 42.3v41.4h9.75V47.18h24.47q5.97 4.5 9.86 12.65 3.29 7.07 7.3 20.33l.97 3.54h10.21l-1.94-6.22Q53.6 53.4 46.53 45.1"/></clipPath><clipPath id="am"><path d="M0 0h63v84H0z"/></clipPath><clipPath id="ap"><path d="M381 46.41h45.28v10H381Zm0 0"/></clipPath><clipPath id="ar"><path d="M0 .41h45.28v10H0Zm0 0"/></clipPath><clipPath id="aq"><path d="M0 0h46v11H0z"/></clipPath><clipPath id="as"><path d="M381 83.18h58.43v9.5H381Zm0 0"/></clipPath><clipPath id="au"><path d="M0 .18h58.43v9.5H0Zm0 0"/></clipPath><clipPath id="at"><path d="M0 0h59v10H0z"/></clipPath><clipPath id="av"><path d="M381 9.8h58.44v9.86H381Zm0 0"/></clipPath><clipPath id="ax"><path d="M0 .8h58.44v9.86H0Zm0 0"/></clipPath><clipPath id="aw"><path d="M0 0h59v11H0z"/></clipPath><clipPath id="ay"><path d="M483.41 9.91h9.73v73.04h-9.73Zm0 73.04h48.7v9.73h-48.7Zm0 0"/></clipPath><clipPath id="aA"><path d="M.41.91h9.73v73.04H.4Zm0 73.04h48.7v9.73H.4Zm0 0"/></clipPath><clipPath id="az"><path d="M0 0h50v84H0z"/></clipPath><clipPath id="aB"><path d="M571.2 9.91h9.75v73.04h-9.75Zm0 73.04h48.7v9.73h-48.7Zm0 0"/></clipPath><clipPath id="aD"><path d="M.2.91h9.75v73.04H.2Zm0 73.04h48.7v9.73H.2Zm0 0"/></clipPath><clipPath id="aC"><path d="M0 0h49v84H0z"/></clipPath><clipPath id="aE"><path d="M330.81 118.6h17.51v19.18h-17.5Zm0 0"/></clipPath><clipPath id="aF"><path d="m336.88 129.9 2.73-7.47 2.76 7.5Zm4.1-11.2h-2.73l-7.32 18.95h3.09l1.94-5.26h7.32l1.94 5.26h3.09l-7.26-18.77"/></clipPath><clipPath id="aH"><path d="M.81.6h17.51v19.12H.82Zm0 0"/></clipPath><clipPath id="aI"><path d="M6.88 11.9 9.6 4.44l2.76 7.5ZM10.98.7H8.26L.93 19.65h3.09l1.94-5.26h7.32l1.94 5.26h3.09L11.05.88"/></clipPath><clipPath id="aG"><path d="M0 0h19v20H0z"/></clipPath><clipPath id="aJ"><path d="M362.17 118.3h17.5V138h-17.5Zm0 0"/></clipPath><clipPath id="aK"><path d="M376.6 131.96a4.5 4.5 0 0 1-2.86 2.95q-1.09.4-2.46.41a5.7 5.7 0 0 1-3.17-.87 6 6 0 0 1-2.07-2.47 9 9 0 0 1-.74-3.8q0-2.2.75-3.79a6 6 0 0 1 2.08-2.46q1.34-.88 3.15-.88 1.3 0 2.42.47 1.1.47 1.87 1.32.75.85 1.05 2l.06.2h2.94l-.05-.32a7.2 7.2 0 0 0-4.35-5.55 10 10 0 0 0-3.96-.76q-2.7 0-4.72 1.2a8 8 0 0 0-3.13 3.43 11 11 0 0 0-1.1 5.14c0 1.96.37 3.73 1.08 5.16a8 8 0 0 0 3.11 3.42 9 9 0 0 0 4.76 1.2q2.19 0 3.88-.67a7.1 7.1 0 0 0 4.39-5.19l.08-.33h-2.95"/></clipPath><clipPath id="aM"><path d="M.17.3h17.5V20H.18Zm0 0"/></clipPath><clipPath id="aN"><path d="M14.6 13.96a4.5 4.5 0 0 1-2.86 2.95q-1.09.4-2.46.41a5.7 5.7 0 0 1-3.17-.87 6 6 0 0 1-2.07-2.47 9 9 0 0 1-.74-3.8q0-2.2.75-3.79a6 6 0 0 1 2.08-2.46q1.34-.88 3.15-.88 1.3 0 2.42.47 1.1.47 1.87 1.32.75.85 1.05 2l.06.2h2.95l-.06-.32a7.2 7.2 0 0 0-4.35-5.55A10 10 0 0 0 9.26.4q-2.7 0-4.72 1.2A8 8 0 0 0 1.4 5.05a11 11 0 0 0-1.1 5.14c0 1.96.37 3.73 1.08 5.16a8 8 0 0 0 3.11 3.42 9 9 0 0 0 4.76 1.2q2.19 0 3.88-.67a7.1 7.1 0 0 0 4.39-5.19l.08-.33h-2.95"/></clipPath><clipPath id="aL"><path d="M0 0h18v20H0z"/></clipPath><clipPath id="aO"><path d="M394.75 118.3h17.5V138h-17.5Zm0 0"/></clipPath><clipPath id="aP"><path d="M409.1 131.96a4.5 4.5 0 0 1-2.86 2.95 7 7 0 0 1-2.46.41 5.7 5.7 0 0 1-3.17-.87 6 6 0 0 1-2.07-2.47 9 9 0 0 1-.74-3.8q0-2.2.74-3.79a6 6 0 0 1 2.07-2.46q1.34-.88 3.15-.88 1.31 0 2.42.47a5 5 0 0 1 2.9 3.32l.06.2h2.95l-.06-.32a7.2 7.2 0 0 0-4.35-5.55 9 9 0 0 0-3.9-.76q-2.7 0-4.74 1.2a8 8 0 0 0-3.13 3.43 11 11 0 0 0-1.08 5.14c0 1.96.37 3.73 1.08 5.16a8 8 0 0 0 3.13 3.42 9 9 0 0 0 4.74 1.2q2.19 0 3.88-.67a7.1 7.1 0 0 0 4.39-5.19l.07-.33h-2.96"/></clipPath><clipPath id="aR"><path d="M.8.3h17.45V20H.8Zm0 0"/></clipPath><clipPath id="aS"><path d="M15.1 13.96a4.5 4.5 0 0 1-2.86 2.95 7 7 0 0 1-2.46.41 5.7 5.7 0 0 1-3.17-.87 6 6 0 0 1-2.07-2.47 9 9 0 0 1-.74-3.8q0-2.2.74-3.79A6 6 0 0 1 6.6 3.93q1.34-.88 3.15-.88 1.31 0 2.42.47a5 5 0 0 1 2.9 3.32l.06.2h2.95l-.06-.32a7.2 7.2 0 0 0-4.35-5.55A9 9 0 0 0 9.78.4q-2.7 0-4.74 1.2A8 8 0 0 0 1.9 5.05a11 11 0 0 0-1.08 5.14c0 1.96.37 3.73 1.08 5.16a8 8 0 0 0 3.13 3.42 9 9 0 0 0 4.74 1.2q2.19 0 3.88-.67a7.1 7.1 0 0 0 4.39-5.19l.07-.33h-2.96"/></clipPath><clipPath id="aQ"><path d="M0 0h19v20H0z"/></clipPath><clipPath id="aT"><path d="M428.09 118.72h12.48v2.58h-12.48Zm0 2.58h2.93v5.4h-2.93Zm0 5.4h11.97v2.57H428.1Zm0 2.57h2.93v5.8h-2.93Zm0 5.8h12.48v2.58h-12.48Zm0 0"/></clipPath><clipPath id="aV"><path d="M.09.72h12.48V3.3H.09Zm0 2.58h2.93v5.4H.09Zm0 5.4h11.97v2.57H.1Zm0 2.57h2.93v5.8H.09Zm0 5.8h12.48v2.58H.09Zm0 0"/></clipPath><clipPath id="aU"><path d="M0 0h13v20H0z"/></clipPath><clipPath id="aW"><path d="M455.94 118.3H471V138h-15.06Zm0 0"/></clipPath><clipPath id="aX"><path d="m465.07 126.94-2.14-.45q-1.9-.4-2.7-1.1-.75-.67-.75-1.66-.01-.86.5-1.45.52-.6 1.42-.96.9-.33 2.08-.32 1.2-.01 2.11.36.9.38 1.42 1.05.51.69.62 1.6l.02.23h2.92l-.02-.28a5 5 0 0 0-1-2.9 6 6 0 0 0-2.48-1.97 8.4 8.4 0 0 0-3.52-.68 9 9 0 0 0-3.62.68 6.3 6.3 0 0 0-2.53 1.9c-.62.8-.91 1.8-.91 2.84q0 2.07 1.4 3.42c.93.9 2.36 1.51 4.34 1.92l2.14.44q1.93.4 2.76 1.13c.54.49.78 1.03.78 1.75q0 .81-.53 1.46a3.6 3.6 0 0 1-1.5 1.02q-.96.4-2.23.4-1.32 0-2.35-.38a4 4 0 0 1-1.63-1.03 3 3 0 0 1-.73-1.55l-.04-.23h-2.92l.02.29q.12 1.66 1.1 2.91a6 6 0 0 0 2.63 1.9q1.65.68 3.79.68 2.22 0 3.86-.7a5.33 5.33 0 0 0 3.51-5.1q0-2.06-1.37-3.34-1.36-1.26-4.45-1.88"/></clipPath><clipPath id="aZ"><path d="M.94.3H16V20H.94Zm0 0"/></clipPath><clipPath id="ba"><path d="m10.07 8.94-2.14-.45q-1.9-.4-2.7-1.1-.75-.67-.75-1.66-.01-.86.5-1.45.52-.6 1.42-.96Q7.3 3 8.48 3q1.2-.02 2.11.36t1.42 1.05q.51.69.62 1.6l.02.23h2.92l-.02-.28a5 5 0 0 0-1-2.9 6 6 0 0 0-2.48-1.97A8.4 8.4 0 0 0 8.55.41a9 9 0 0 0-3.62.68A6.3 6.3 0 0 0 2.4 3c-.62.8-.91 1.8-.91 2.84q0 2.07 1.4 3.42c.93.9 2.36 1.51 4.34 1.92l2.14.44q1.94.4 2.76 1.13c.54.49.78 1.03.78 1.75q0 .81-.53 1.46a3.6 3.6 0 0 1-1.5 1.02c-.63.26-1.4.4-2.23.4q-1.32 0-2.35-.38a4 4 0 0 1-1.63-1.03 3 3 0 0 1-.73-1.55l-.04-.23H.98l.02.29q.12 1.66 1.1 2.91a6 6 0 0 0 2.63 1.9q1.65.68 3.79.68 2.22 0 3.86-.7a5.33 5.33 0 0 0 3.51-5.1c0-1.36-.46-2.5-1.37-3.34q-1.36-1.25-4.45-1.88"/></clipPath><clipPath id="aY"><path d="M0 0h16v20H0z"/></clipPath><clipPath id="bb"><path d="M486.08 118.3h18.42v19.78h-18.42Zm0 0"/></clipPath><clipPath id="bc"><path d="M500.71 132a5.7 5.7 0 0 1-2.1 2.45q-1.39.86-3.29.87-1.89 0-3.28-.87a5.7 5.7 0 0 1-2.14-2.45 9 9 0 0 1-.76-3.8 9 9 0 0 1 .76-3.83 5.5 5.5 0 0 1 2.14-2.44 6 6 0 0 1 3.28-.88 6 6 0 0 1 3.28.88q1.38.87 2.11 2.46.75 1.6.76 3.83 0 2.2-.76 3.8m-.54-12.38a9.5 9.5 0 0 0-4.87-1.2q-2.82 0-4.85 1.2a8 8 0 0 0-3.19 3.41q-1.1 2.21-1.1 5.19t1.1 5.16a8 8 0 0 0 3.19 3.4q2.06 1.2 4.85 1.2c1.84 0 3.5-.4 4.87-1.2a8 8 0 0 0 3.19-3.4q1.11-2.18 1.1-5.16 0-2.99-1.1-5.19a8 8 0 0 0-3.19-3.41"/></clipPath><clipPath id="be"><path d="M.08.3h18.4v19.78H.08Zm0 0"/></clipPath><clipPath id="bf"><path d="M14.71 14a5.7 5.7 0 0 1-2.1 2.45q-1.39.85-3.29.87-1.89 0-3.28-.87A5.7 5.7 0 0 1 3.9 14a9 9 0 0 1-.76-3.8 9 9 0 0 1 .76-3.83 5.5 5.5 0 0 1 2.14-2.44 6 6 0 0 1 3.28-.88 6 6 0 0 1 3.28.88q1.38.87 2.11 2.46.76 1.6.76 3.83 0 2.2-.76 3.8m-.54-12.38A9.5 9.5 0 0 0 9.3.44q-2.82 0-4.85 1.2a8 8 0 0 0-3.19 3.41Q.16 7.26.16 10.24t1.1 5.16a8 8 0 0 0 3.19 3.4Q6.52 20 9.3 20c1.84 0 3.5-.4 4.87-1.2a8 8 0 0 0 3.19-3.4q1.11-2.18 1.1-5.16 0-2.99-1.1-5.19a8 8 0 0 0-3.19-3.41"/></clipPath><clipPath id="bd"><path d="M0 0h19v21H0z"/></clipPath><clipPath id="bg"><path d="M520.63 118.6h14.76v19.18h-14.76Zm0 0"/></clipPath><clipPath id="bh"><path d="M527.96 127.83h-4.35v-6.54h4.25q1.76 0 2.76.87.98.86.97 2.39 0 1.6-.93 2.42-.94.86-2.7.86m5.55.13a5.8 5.8 0 0 0 1.09-3.47q-.01-1.73-.8-3.03a5.4 5.4 0 0 0-2.25-2.02 7.4 7.4 0 0 0-3.36-.72h-7.5v18.93h2.93v-7.28h4.2l4.06 7.17.08.13h3.43l-4.54-7.76a5.5 5.5 0 0 0 2.68-1.95"/></clipPath><clipPath id="bj"><path d="M.63.6H15.4v19.12H.63Zm0 0"/></clipPath><clipPath id="bk"><path d="M7.96 9.83H3.6V3.29h4.25q1.75 0 2.76.87.98.86.97 2.39 0 1.6-.93 2.42-.95.86-2.7.86m5.55.13A5.8 5.8 0 0 0 14.6 6.5q-.01-1.73-.8-3.03a5.4 5.4 0 0 0-2.25-2.02A7.4 7.4 0 0 0 8.19.72H.69v18.93h2.94v-7.28h4.19l4.06 7.17.08.13h3.43l-4.54-7.76a5.5 5.5 0 0 0 2.68-1.95"/></clipPath><clipPath id="bi"><path d="M0 0h16v20H0z"/></clipPath><clipPath id="bl"><path d="M550.8 118.72h2.94v18.93h-2.93Zm0 0"/></clipPath><clipPath id="bn"><path d="M.8.72h2.94v18.93H.8Zm0 0"/></clipPath><clipPath id="bm"><path d="M0 0h4v20H0z"/></clipPath><clipPath id="bo"><path d="M569.8 118.3h18.57v19.78H569.8Zm0 0"/></clipPath><clipPath id="bp"><path d="M584.5 132a5.7 5.7 0 0 1-2.12 2.45q-1.38.86-3.29.87-1.88 0-3.26-.87a6 6 0 0 1-2.13-2.45 9 9 0 0 1-.76-3.8q0-2.2.76-3.83a5.5 5.5 0 0 1 2.13-2.44 6 6 0 0 1 3.26-.88 5.6 5.6 0 0 1 5.4 3.34q.75 1.6.76 3.83 0 2.2-.76 3.8m-.54-12.38q-2.05-1.2-4.88-1.2-2.8 0-4.85 1.2a8 8 0 0 0-3.18 3.41q-1.11 2.21-1.11 5.19t1.1 5.16a8 8 0 0 0 3.2 3.4q2.07 1.2 4.84 1.2 2.8 0 4.88-1.2a8 8 0 0 0 3.18-3.4q1.12-2.18 1.1-5.16 0-2.99-1.1-5.19a8 8 0 0 0-3.18-3.41"/></clipPath><clipPath id="br"><path d="M.8.3h18.44v19.78H.8Zm0 0"/></clipPath><clipPath id="bs"><path d="M15.5 14a5.7 5.7 0 0 1-2.12 2.45q-1.38.85-3.29.87-1.88 0-3.26-.87A6 6 0 0 1 4.7 14a9 9 0 0 1-.76-3.8q0-2.2.76-3.83a5.5 5.5 0 0 1 2.13-2.44 6 6 0 0 1 3.26-.88q1.9 0 3.29.88a5.6 5.6 0 0 1 2.11 2.46q.75 1.6.76 3.83 0 2.2-.76 3.8m-.54-12.38Q12.9.44 10.07.44q-2.8 0-4.85 1.2a8 8 0 0 0-3.18 3.41Q.93 7.26.93 10.24t1.1 5.16a8 8 0 0 0 3.2 3.4Q7.3 20 10.06 20q2.8 0 4.88-1.2a8 8 0 0 0 3.18-3.4q1.12-2.18 1.1-5.16 0-2.99-1.1-5.19a8 8 0 0 0-3.18-3.41"/></clipPath><clipPath id="bq"><path d="M0 0h20v21H0z"/></clipPath><clipPath id="bt"><path d="M603.44 118.3h15.07V138h-15.07Zm0 0"/></clipPath><clipPath id="bu"><path d="M617.01 128.82q-1.34-1.26-4.44-1.88l-2.14-.45q-1.9-.4-2.7-1.1-.75-.67-.75-1.66-.01-.86.5-1.45.52-.6 1.42-.96.9-.33 2.08-.32 1.19-.01 2.11.36.9.38 1.42 1.05.53.69.62 1.61l.02.24h2.91l-.02-.28a5 5 0 0 0-.97-2.9 6 6 0 0 0-2.48-1.97 8.5 8.5 0 0 0-3.54-.7 9 9 0 0 0-3.63.68 6.3 6.3 0 0 0-2.52 1.9c-.62.8-.92 1.8-.92 2.84q0 2.07 1.4 3.42 1.38 1.3 4.35 1.94l2.14.44q1.93.42 2.75 1.13c.55.47.78 1.03.78 1.75q0 .81-.52 1.45a3.6 3.6 0 0 1-1.5 1.03q-.98.4-2.25.4-1.34 0-2.35-.38a4 4 0 0 1-1.63-1.03q-.6-.67-.74-1.55l-.03-.23h-2.92l.02.27q.12 1.66 1.1 2.91a6.4 6.4 0 0 0 2.63 1.92c1.1.47 2.35.66 3.79.66q2.22 0 3.86-.7a5.33 5.33 0 0 0 3.51-5.1q0-2.08-1.38-3.34"/></clipPath><clipPath id="bw"><path d="M.44.3h15.04V20H.44Zm0 0"/></clipPath><clipPath id="bx"><path d="M14.01 10.82q-1.34-1.25-4.44-1.88l-2.14-.45q-1.9-.4-2.7-1.1-.75-.67-.75-1.66-.01-.86.5-1.45.52-.6 1.42-.96Q6.8 3 7.98 3q1.19-.02 2.11.36.9.38 1.42 1.05.53.68.62 1.61l.02.24h2.91l-.02-.28a5 5 0 0 0-.97-2.9 6 6 0 0 0-2.48-1.97 8.5 8.5 0 0 0-3.54-.7 9 9 0 0 0-3.63.68A6.3 6.3 0 0 0 1.9 3c-.62.8-.92 1.8-.92 2.84q0 2.07 1.4 3.42 1.38 1.3 4.35 1.94l2.14.44q1.93.42 2.76 1.13.79.69.77 1.75 0 .81-.52 1.45a3.6 3.6 0 0 1-1.5 1.03q-.98.4-2.25.4-1.34 0-2.35-.38a4 4 0 0 1-1.63-1.03q-.6-.67-.74-1.55l-.04-.23H.48l.01.27q.12 1.66 1.1 2.91a6.4 6.4 0 0 0 2.63 1.92c1.1.47 2.35.66 3.79.66q2.22 0 3.86-.7a5.33 5.33 0 0 0 3.51-5.1q0-2.07-1.38-3.34"/></clipPath><clipPath id="bv"><path d="M0 0h16v20H0z"/></clipPath><clipPath id="by"><path d="M646.7 10.22h78.15V93H646.7Zm0 0"/></clipPath><clipPath id="bz"><path d="m721.93 86.18-31.64-73.04-1.34-2.92h-6.34l-1.34 2.92-31.66 73.04-2.91 6.8h10.6l28.48-65.6 28.48 65.6h10.58"/></clipPath><clipPath id="bB"><path d="M.7.22h78.15V83H.7Zm0 0"/></clipPath><clipPath id="bC"><path d="M75.93 76.18 44.29 3.14 42.95.22H36.6l-1.34 2.92L3.61 76.18.7 82.98h10.6l28.48-65.6 28.48 65.6h10.58"/></clipPath><clipPath id="bA"><path d="M0 0h79v83H0z"/></clipPath><clipPath id="a"><path d="M0 0h726v148H0z"/></clipPath></defs><g clip-path="url(#a)" transform="translate(42 331)"><g clip-path="url(#b)"><g clip-path="url(#c)"><g clip-path="url(#d)" transform="translate(10 9)"><g clip-path="url(#e)"><g clip-path="url(#f)"><path d="M-346.84-634.84h1399.68V764.84H-346.84z"/></g></g></g></g></g><g clip-path="url(#g)"><g clip-path="url(#h)"><g clip-path="url(#i)" transform="translate(53 89)"><g clip-path="url(#j)"><g clip-path="url(#k)"><path d="M-389.84-714.84h1399.68V684.84H-389.84z"/></g></g></g></g></g><g clip-path="url(#l)"><g clip-path="url(#m)"><g clip-path="url(#n)" transform="translate(34 72)"><g clip-path="url(#o)"><g clip-path="url(#p)"><path d="M-370.84-697.84h1399.68V701.84H-370.84z"/></g></g></g></g></g><g clip-path="url(#q)"><g clip-path="url(#r)"><g clip-path="url(#s)" transform="translate(35 90)"><g clip-path="url(#t)"><g clip-path="url(#u)"><path d="M-371.84-715.84h1399.68V683.84H-371.84z"/></g></g></g></g></g><g clip-path="url(#v)"><g clip-path="url(#w)"><g clip-path="url(#x)" transform="translate(34 83)"><g clip-path="url(#y)"><g clip-path="url(#z)"><path d="M-370.84-708.84h1399.68V690.84H-370.84z"/></g></g></g></g></g><g clip-path="url(#A)"><g clip-path="url(#B)"><g clip-path="url(#C)" transform="translate(117 10)"><g clip-path="url(#D)"><g clip-path="url(#E)"><path d="M.62.03H59.3v82.74H.62Zm0 0"/></g></g></g></g></g><g clip-path="url(#F)"><g clip-path="url(#G)" transform="translate(220 9)"><g clip-path="url(#H)"><path d="M.75.91h9.74V83.7H.75Zm0 0"/></g></g></g><g clip-path="url(#I)"><g clip-path="url(#J)" transform="translate(117 118)"><g clip-path="url(#K)"><path d="M-453.84-743.84H945.84V655.84H-453.84z"/></g></g></g><g clip-path="url(#L)"><g clip-path="url(#M)"><g clip-path="url(#N)" transform="translate(142 118)"><g clip-path="url(#O)"><g clip-path="url(#P)"><path d="M-478.84-743.84H920.84V655.84H-478.84z"/></g></g></g></g></g><g clip-path="url(#Q)"><g clip-path="url(#R)"><g clip-path="url(#S)" transform="translate(173 118)"><g clip-path="url(#T)"><g clip-path="url(#U)"><path d="M-509.84-743.84H889.84V655.84H-509.84z"/></g></g></g></g></g><g clip-path="url(#V)"><g clip-path="url(#W)"><g clip-path="url(#X)" transform="translate(200 118)"><g clip-path="url(#Y)"><g clip-path="url(#Z)"><path d="M-536.84-743.84H862.84V655.84H-536.84z"/></g></g></g></g></g><g clip-path="url(#aa)"><g clip-path="url(#ab)"><g clip-path="url(#ac)" transform="translate(232 118)"><g clip-path="url(#ad)"><g clip-path="url(#ae)"><path d="M-568.84-743.84H830.84V655.84H-568.84z"/></g></g></g></g></g><g clip-path="url(#af)"><g clip-path="url(#ag)"><g clip-path="url(#ah)" transform="translate(281 118)"><g clip-path="url(#ai)"><g clip-path="url(#aj)"><path d="M0 .72h17.06v18.93H0Zm0 0"/></g></g></g></g></g><g clip-path="url(#ak)"><g clip-path="url(#al)"><g clip-path="url(#am)" transform="translate(276 9)"><g clip-path="url(#an)"><g clip-path="url(#ao)"><path d="M.16.91h62.57v82.85H.16Zm0 0"/></g></g></g></g></g><g clip-path="url(#ap)"><g clip-path="url(#aq)" transform="translate(381 46)"><g clip-path="url(#ar)"><path d="M0 .41h45.27v10H0Zm0 0"/></g></g></g><g clip-path="url(#as)"><g clip-path="url(#at)" transform="translate(381 83)"><g clip-path="url(#au)"><path d="M0 .18h58.43v9.5H0Zm0 0"/></g></g></g><g clip-path="url(#av)"><g clip-path="url(#aw)" transform="translate(381 9)"><g clip-path="url(#ax)"><path d="M0 .8h58.45v9.85H0Zm0 0"/></g></g></g><g clip-path="url(#ay)"><g clip-path="url(#az)" transform="translate(483 9)"><g clip-path="url(#aA)"><path d="M.41.91h48.7v82.73H.4Zm0 0"/></g></g></g><g clip-path="url(#aB)"><g clip-path="url(#aC)" transform="translate(571 9)"><g clip-path="url(#aD)"><path d="M.2.91h48.7v82.74H.2Zm0 0"/></g></g></g><g clip-path="url(#aE)"><g clip-path="url(#aF)"><g clip-path="url(#aG)" transform="translate(330 118)"><g clip-path="url(#aH)"><g clip-path="url(#aI)"><path d="M-666.84-743.84H732.84V655.84H-666.84z"/></g></g></g></g></g><g clip-path="url(#aJ)"><g clip-path="url(#aK)"><g clip-path="url(#aL)" transform="translate(362 118)"><g clip-path="url(#aM)"><g clip-path="url(#aN)"><path d="M-698.84-743.84H700.84V655.84H-698.84z"/></g></g></g></g></g><g clip-path="url(#aO)"><g clip-path="url(#aP)"><g clip-path="url(#aQ)" transform="translate(394 118)"><g clip-path="url(#aR)"><g clip-path="url(#aS)"><path d="M-730.84-743.84H668.84V655.84H-730.84z"/></g></g></g></g></g><g clip-path="url(#aT)"><g clip-path="url(#aU)" transform="translate(428 118)"><g clip-path="url(#aV)"><path d="M-764.84-743.84H634.84V655.84H-764.84z"/></g></g></g><g clip-path="url(#aW)"><g clip-path="url(#aX)"><g clip-path="url(#aY)" transform="translate(455 118)"><g clip-path="url(#aZ)"><g clip-path="url(#ba)"><path d="M-791.84-743.84H607.84V655.84H-791.84z"/></g></g></g></g></g><g clip-path="url(#bb)"><g clip-path="url(#bc)"><g clip-path="url(#bd)" transform="translate(486 118)"><g clip-path="url(#be)"><g clip-path="url(#bf)"><path d="M-822.84-743.84H576.84V655.84H-822.84z"/></g></g></g></g></g><g clip-path="url(#bg)"><g clip-path="url(#bh)"><g clip-path="url(#bi)" transform="translate(520 118)"><g clip-path="url(#bj)"><g clip-path="url(#bk)"><path d="M-856.84-743.84H542.84V655.84H-856.84z"/></g></g></g></g></g><g clip-path="url(#bl)"><g clip-path="url(#bm)" transform="translate(550 118)"><g clip-path="url(#bn)"><path d="M-886.84-743.84H512.84V655.84H-886.84z"/></g></g></g><g clip-path="url(#bo)"><g clip-path="url(#bp)"><g clip-path="url(#bq)" transform="translate(569 118)"><g clip-path="url(#br)"><g clip-path="url(#bs)"><path d="M-905.84-743.84H493.84V655.84H-905.84z"/></g></g></g></g></g><g clip-path="url(#bt)"><g clip-path="url(#bu)"><g clip-path="url(#bv)" transform="translate(603 118)"><g clip-path="url(#bw)"><g clip-path="url(#bx)"><path d="M-939.84-743.84H459.84V655.84H-939.84z"/></g></g></g></g></g><g clip-path="url(#by)"><g clip-path="url(#bz)"><g clip-path="url(#bA)" transform="translate(646 10)"><g clip-path="url(#bB)"><g clip-path="url(#bC)"><path d="M.7.22h78.15v82.73H.7Zm0 0"/></g></g></g></g></g></g></svg>