<svg xmlns="http://www.w3.org/2000/svg" viewBox="0 0 3000 3000"><path fill="#fff" d="M868 1371.7c-.1 190.9-.4 329.5-1 333.3a238 238 0 0 1-11.6 47.5A298 298 0 0 1 835 1792c-40.1 59.4-104.3 98.9-182.9 112.5-4.6.8-9.1 1.7-10 2-4.2 1.3-46.1 4.5-59.1 4.5a445 445 0 0 1-118.5-18 418 418 0 0 1-25.5-8.7c-42-16.1-72.4-34.6-97.9-59.5-27.1-26.5-39-49.2-49.2-93.3a197 197 0 0 0-9.9-33.9c0-1.6-6.7-14.7-10-19.6a56 56 0 0 0-25.1-21.3c-5.3-2.1-6.1-2.2-68.6-2.5l-63.3-.3v23.3c0 44.9 6.1 74.1 21.7 104.7q34.7 67.8 120.8 111a263 263 0 0 0 30.5 14.3l9.5 3.8c4.5 2 25.5 9.4 32.5 11.5l10 3a709 709 0 0 0 110.5 22.5l15.5 2c7.4 1 21.5 2.3 46 4 16.7 1.2 118.3 1.2 133.5 0 45.3-3.6 82.5-9.3 119-18.3a565 565 0 0 0 73.5-24.5 471 471 0 0 0 39.6-19.7c9.6-5.6 29.4-18.3 30.4-19.5l9.5-7.5c5-3.7 15.1-13 22.6-20.4 23.5-23.5 38.2-45 51.2-75.1 1.3-3 7.1-20.6 9.7-29.5 2.3-7.7 5-27.5 6-42.5.6-10.6 1-129.4 1-334.3V1045H868zm512-47.2V1604h105l.2-133.3.3-133.2 2.6-5.5a35 35 0 0 1 17.5-16.3c14.2-5 29.7 1.4 37.2 15.6l2.7 5.2.5 119.5.5 119.5 3.2 6.6c4.1 8.3 10 14.1 18.3 18.2l6.5 3.2 35.8.3 35.8.3-.4-136.3-.3-136.3-2.3-8.5c-6.7-25.4-21.5-42.6-43.6-50.8-8.8-3.3-12.8-3.6-61.5-4.1l-49.5-.6-.3-111.3-.2-111.2h-108zM228.5 1185.1a298 298 0 0 0-20.5 3.3c-7.3 1.5-24.5 6.6-28.5 8.5l-8.5 4a85 85 0 0 0-48.2 51.3c-2.3 7.2-2.3 8.1-2.3 52.3 0 44.4 0 45.1 2.4 52.5 9.3 29.9 32.5 50 68.6 59.4 11.8 3 26.4 4.6 52.5 5.6 14.6.6 29.9 1.5 34 2q30.5 3.9 35.1 29.4c.7 3.8.9 16.9.6 36-.4 32-.4 32-5.9 42.2a38 38 0 0 1-15.7 13.2c-4.9 2.3-6.9 2.6-16.7 2.6-10.5.1-11.4-.1-17.7-3.2-13.9-6.9-19.7-18.5-19.7-40-.1-27.2-6.4-40.4-22.9-48.5l-6.6-3.2-45.4-.3-45.3-.3.5 24.3c.6 31.4 2.8 42.6 12 61a98 98 0 0 0 18.5 26.6c20.9 21.7 47.3 34.1 86.7 40.7a419 419 0 0 0 98-1c40.6-6.5 71.1-23 87.2-47.2a71 71 0 0 0 12.3-33.8c1.3-11.5 1.3-67.1 0-79.4-4.3-40.3-33.3-67.2-82.1-76.1-7.2-1.4-19.2-2.3-38-3-31.1-1.2-40.2-2.1-48.6-4.8a33 33 0 0 1-22.2-19.2l-2.6-5.5V1301c0-33.1 0-33.6 2.4-40 1.9-5 3.9-7.9 8.5-12.5 8.4-8.3 13.4-10 28.6-10 13.3 0 19.7 1.8 26.1 7.3 7.6 6.5 9.7 13.4 10.8 34.2.7 13.4 1 15 3.9 21 4 8.4 10.6 15.1 19 19.2l6.7 3.3 46.3.3 46.4.3-.5-16.8c-.5-19.7-1.6-27.4-5.8-40.3a103 103 0 0 0-29.1-45.5c-9.7-9.3-16.4-14-29.7-20.6a168 168 0 0 0-55.6-15.9 481 481 0 0 0-89 .1m378-.5a252 252 0 0 0-53 12.4l-8 3.4c-23.9 9.8-45.8 28.9-55.6 48.7a81 81 0 0 0-7.9 23.4c-1.9 8.5-2 13.5-2 122.1 0 108 .1 113.6 1.9 122.5 9.2 44.6 46.2 73.2 108.6 84.3 27.5 4.9 88.7 4.9 116 0q46-8.2 72.5-28.1a97 97 0 0 0 35.7-52.3c2.4-8.9 2.6-11.3 3-39.3l.6-29.8-50.4.3c-49.2.4-50.5.5-55.7 2.6-7.1 3-12 6.2-16.3 10.8-8.4 9.1-10.9 17.1-11.6 36.9-.5 16.4-1.8 22.4-6.4 29.1-3.7 5.4-8.1 9-14.9 12.3-4.7 2.2-6.8 2.6-14.5 2.5a29 29 0 0 1-14-2.3 45 45 0 0 1-17.6-17.7l-2.4-4.9v-255l2.7-5c3.1-6 10.8-13.4 16.9-16.5 3.1-1.6 6.9-2.4 12.6-2.7a31 31 0 0 1 25 8.2c9.1 8 11.8 14.8 12.8 32.7.7 14 3.1 20.5 10 27.4a38 38 0 0 0 19.7 10.9c4.9 1.2 14.4 1.5 55 1.5h49.1l-.6-22.8c-.6-23.3-1.6-30-6.5-43.2-9.1-24.5-29.9-44.8-58.4-57.1a203 203 0 0 0-56.8-14.6 653 653 0 0 0-89.5-.7M1162 1267c-5.2.5-11.5 1.4-14 1.9s-6.3 1.3-8.5 1.6c-3.9.6-7.4 1.6-20 5.7a109 109 0 0 0-42.6 26.6 71 71 0 0 0-17.9 38.2c-.8 5.4-1 33-.8 99.5.3 84.7.5 92.5 2.1 98q12.3 41 60.8 57.5c20.9 7 38.8 9.4 72.9 9.4 36.7.1 51.1-1.6 74.5-9.1 33.1-10.5 52.9-28.4 61.7-55.8l2.3-7v-196l-2.8-8.1q-11.8-34.6-52.9-51.3c-11.2-4.6-13.5-5.2-39.3-10.2-6.9-1.3-63.8-2-75.5-.9m42.3 42.7c5.3 1.5 7.1 2.6 12.2 7.8 10.3 10.3 9.5 1 9.5 117v100.7l-3 6.4a30 30 0 0 1-28 17.4c-11.2 0-20.8-6.3-26.8-17.5l-2.7-5v-205l2.4-4.9a33 33 0 0 1 17.7-16.4 26 26 0 0 1 18.7-.5m1202.7-42.6c-8.7.8-20.7 2.9-33.5 6-7.6 1.8-22.6 8.2-31.8 13.5a84 84 0 0 0-33.9 38.4c-5.6 15.6-5.3 8.3-5.3 110 0 89 .1 93.9 1.9 101 7.5 29 27.6 48.6 61.6 60 22.3 7.5 45.6 10.3 79.5 9.6 38.9-.7 60.7-4.7 83.3-15.2a82 82 0 0 0 43-42c6-14.6 5.7-8 5.7-112.9 0-95 0-96.1-2.1-103a76 76 0 0 0-26.6-39c-18.5-14.6-45.7-23.9-77.2-26.6-13.2-1-51.3-1-64.6.2m41.6 42.5a32 32 0 0 1 16.6 11.9c6 8.7 5.8 5.2 5.8 112 0 87.4-.2 98.3-1.6 103.3a30 30 0 0 1-39.6 20.4c-6-2.1-13.7-8.9-16.9-15.2l-2.4-4.5-.3-100.5c-.2-66.4.1-102.1.8-105.3a31 31 0 0 1 20.4-21.9 25 25 0 0 1 17.2-.2m-750.9-42c-.4.4-.7 76.3-.7 168.6V1604h93v-129.3c0-84.5.4-131.4 1.1-135.6a32 32 0 0 1 10.8-18.9c8.1-6 19.4-7.7 28.5-4.5a38 38 0 0 1 16.8 14.6l2.3 4.2.5 118.5c.4 86.1.9 119.6 1.8 122.5a40 40 0 0 0 21.1 24.8l6.6 3.2 35.8.3 35.7.3v-131.3c0-139.1 0-139-4.6-154.8a69 69 0 0 0-40.4-45.3c-14.1-5.1-10.6-5-112.5-5.4a3350 3350 0 0 0-95.8.3m395.3.1c-18.9 2-39.2 7.3-51.2 13.4-23.8 12-36.4 27.5-40.2 49.5a356 356 0 0 0 0 68.5c5.5 29 29.4 50 64.4 56.3 4.7.9 19.8 2 33.5 2.6 13.8.6 27.4 1.5 30.4 2q16.5 2.7 22.8 15.8l2.8 5.7v26c0 23.3-.2 26.6-2 31.8-2.4 7.1-7.7 13-14.3 16s-21.8 3.1-28.2.1c-11.4-5.4-14.9-13.1-15.9-34.9-.6-13.5-1-15.6-3.4-20.7a34 34 0 0 0-17.3-16.1c-4.3-1.5-9.1-1.7-40.3-1.7h-35.3l.5 21.2c.6 23 1.3 27.3 6.8 41.3a88 88 0 0 0 44.9 46.8c23.3 11.4 45.4 15.2 83 14.4 30.2-.6 40.8-2 59.6-7.7a115 115 0 0 0 35.7-19.1 85 85 0 0 0 15.6-20.5c5.9-12 6.1-14 6.1-51.8 0-30.9-.2-35.4-1.9-41.5a66 66 0 0 0-37.6-43.2c-15.9-7.5-27.9-9.5-65.5-10.9-28.7-1.1-33.4-2.3-41.6-10.5-3-3-5.8-6.9-6.5-9.1-.8-2.6-1.4-12.2-1.6-28-.4-20-.1-25.2 1.2-30.5q3.9-15.7 18.6-19.9c8.3-2.5 15-2.5 22.8-.1 13.4 4.2 16.6 9.4 18 29.4.8 11 1.4 14.7 3.4 19a31 31 0 0 0 15.6 15.6l5.6 2.6h73l.3-8.3a136 136 0 0 0-2.8-29.7 95 95 0 0 0-20.3-39.2 108 108 0 0 0-43.7-27.2l-10-3.2c-2.6-.9-10.7-2.3-22-3.9a775 775 0 0 0-63-.3m537.7-.1c-.4.4-.7 76.3-.7 168.6V1604h92.9l.3-133.8.3-133.7 2.5-4.8a30.3 30.3 0 0 1 56.4 3.7c.7 2.2 1.2 38.5 1.6 122.1.5 115.6.6 119.1 2.5 123a66 66 0 0 0 11 14.8c1.1.9 4.9 3.2 8.5 5l6.5 3.2 35.8.3 35.8.3-.4-135.8c-.3-134.4-.3-135.9-2.4-143.3a79 79 0 0 0-7.5-20.6c-10.1-19-23.4-29.1-45.8-35-5.8-1.5-16.1-1.8-101.5-2.1a3350 3350 0 0 0-95.8.3"/><path d="M868 1371.7c-.1 190.9-.4 329.5-1 333.3a238 238 0 0 1-11.6 47.5A298 298 0 0 1 835 1792c-40.1 59.4-104.3 98.9-182.9 112.5-4.6.8-9.1 1.7-10 2-4.2 1.3-46.1 4.5-59.1 4.5a445 445 0 0 1-118.5-18 418 418 0 0 1-25.5-8.7c-42-16.1-72.4-34.6-97.9-59.5-27.1-26.5-39-49.2-49.2-93.3a197 197 0 0 0-9.9-33.9c0-1.6-6.7-14.7-10-19.6a56 56 0 0 0-25.1-21.3c-5.3-2.1-6.1-2.2-68.6-2.5l-63.3-.3v23.3c0 44.9 6.1 74.1 21.7 104.7q34.7 67.8 120.8 111a263 263 0 0 0 30.5 14.3l9.5 3.8c4.5 2 25.5 9.4 32.5 11.5l10 3a709 709 0 0 0 110.5 22.5l15.5 2c7.4 1 21.5 2.3 46 4 16.7 1.2 118.3 1.2 133.5 0 45.3-3.6 82.5-9.3 119-18.3a565 565 0 0 0 73.5-24.5 471 471 0 0 0 39.6-19.7c9.6-5.6 29.4-18.3 30.4-19.5l9.5-7.5c5-3.7 15.1-13 22.6-20.4 23.5-23.5 38.2-45 51.2-75.1 1.3-3 7.1-20.6 9.7-29.5 2.3-7.7 5-27.5 6-42.5.6-10.6 1-129.4 1-334.3V1045H868zm512-47.2V1604h105l.2-133.3.3-133.2 2.6-5.5a35 35 0 0 1 17.5-16.3c14.2-5 29.7 1.4 37.2 15.6l2.7 5.2.5 119.5.5 119.5 3.2 6.6c4.1 8.3 10 14.1 18.3 18.2l6.5 3.2 35.8.3 35.8.3-.4-136.3-.3-136.3-2.3-8.5c-6.7-25.4-21.5-42.6-43.6-50.8-8.8-3.3-12.8-3.6-61.5-4.1l-49.5-.6-.3-111.3-.2-111.2h-108zM228.5 1185.1a298 298 0 0 0-20.5 3.3c-7.3 1.5-24.5 6.6-28.5 8.5l-8.5 4a85 85 0 0 0-48.2 51.3c-2.3 7.2-2.3 8.1-2.3 52.3 0 44.4 0 45.1 2.4 52.5 9.3 29.9 32.5 50 68.6 59.4 11.8 3 26.4 4.6 52.5 5.6 14.6.6 29.9 1.5 34 2q30.5 3.9 35.1 29.4c.7 3.8.9 16.9.6 36-.4 32-.4 32-5.9 42.2a38 38 0 0 1-15.7 13.2c-4.9 2.3-6.9 2.6-16.7 2.6-10.5.1-11.4-.1-17.7-3.2-13.9-6.9-19.7-18.5-19.7-40-.1-27.2-6.4-40.4-22.9-48.5l-6.6-3.2-45.4-.3-45.3-.3.5 24.3c.6 31.4 2.8 42.6 12 61a98 98 0 0 0 18.5 26.6c20.9 21.7 47.3 34.1 86.7 40.7a419 419 0 0 0 98-1c40.6-6.5 71.1-23 87.2-47.2a71 71 0 0 0 12.3-33.8c1.3-11.5 1.3-67.1 0-79.4-4.3-40.3-33.3-67.2-82.1-76.1-7.2-1.4-19.2-2.3-38-3-31.1-1.2-40.2-2.1-48.6-4.8a33 33 0 0 1-22.2-19.2l-2.6-5.5V1301c0-33.1 0-33.6 2.4-40 1.9-5 3.9-7.9 8.5-12.5 8.4-8.3 13.4-10 28.6-10 13.3 0 19.7 1.8 26.1 7.3 7.6 6.5 9.7 13.4 10.8 34.2.7 13.4 1 15 3.9 21 4 8.4 10.6 15.1 19 19.2l6.7 3.3 46.3.3 46.4.3-.5-16.8c-.5-19.7-1.6-27.4-5.8-40.3a103 103 0 0 0-29.1-45.5c-9.7-9.3-16.4-14-29.7-20.6a168 168 0 0 0-55.6-15.9 481 481 0 0 0-89 .1m378-.5a252 252 0 0 0-53 12.4l-8 3.4c-23.9 9.8-45.8 28.9-55.6 48.7a81 81 0 0 0-7.9 23.4c-1.9 8.5-2 13.5-2 122.1 0 108 .1 113.6 1.9 122.5 9.2 44.6 46.2 73.2 108.6 84.3 27.5 4.9 88.7 4.9 116 0q46-8.2 72.5-28.1a97 97 0 0 0 35.7-52.3c2.4-8.9 2.6-11.3 3-39.3l.6-29.8-50.4.3c-49.2.4-50.5.5-55.7 2.6-7.1 3-12 6.2-16.3 10.8-8.4 9.1-10.9 17.1-11.6 36.9-.5 16.4-1.8 22.4-6.4 29.1-3.7 5.4-8.1 9-14.9 12.3-4.7 2.2-6.8 2.6-14.5 2.5a29 29 0 0 1-14-2.3 45 45 0 0 1-17.6-17.7l-2.4-4.9v-255l2.7-5c3.1-6 10.8-13.4 16.9-16.5 3.1-1.6 6.9-2.4 12.6-2.7a31 31 0 0 1 25 8.2c9.1 8 11.8 14.8 12.8 32.7.7 14 3.1 20.5 10 27.4a38 38 0 0 0 19.7 10.9c4.9 1.2 14.4 1.5 55 1.5h49.1l-.6-22.8c-.6-23.3-1.6-30-6.5-43.2-9.1-24.5-29.9-44.8-58.4-57.1a203 203 0 0 0-56.8-14.6 653 653 0 0 0-89.5-.7M1162 1267c-5.2.5-11.5 1.4-14 1.9s-6.3 1.3-8.5 1.6c-3.9.6-7.4 1.6-20 5.7a109 109 0 0 0-42.6 26.6 71 71 0 0 0-17.9 38.2c-.8 5.4-1 33-.8 99.5.3 84.7.5 92.5 2.1 98q12.3 41 60.8 57.5c20.9 7 38.8 9.4 72.9 9.4 36.7.1 51.1-1.6 74.5-9.1 33.1-10.5 52.9-28.4 61.7-55.8l2.3-7v-196l-2.8-8.1q-11.8-34.6-52.9-51.3c-11.2-4.6-13.5-5.2-39.3-10.2-6.9-1.3-63.8-2-75.5-.9m42.3 42.7c5.3 1.5 7.1 2.6 12.2 7.8 10.3 10.3 9.5 1 9.5 117v100.7l-3 6.4a30 30 0 0 1-28 17.4c-11.2 0-20.8-6.3-26.8-17.5l-2.7-5v-205l2.4-4.9a33 33 0 0 1 17.7-16.4 26 26 0 0 1 18.7-.5m1202.7-42.6c-8.7.8-20.7 2.9-33.5 6-7.6 1.8-22.6 8.2-31.8 13.5a84 84 0 0 0-33.9 38.4c-5.6 15.6-5.3 8.3-5.3 110 0 89 .1 93.9 1.9 101 7.5 29 27.6 48.6 61.6 60 22.3 7.5 45.6 10.3 79.5 9.6 38.9-.7 60.7-4.7 83.3-15.2a82 82 0 0 0 43-42c6-14.6 5.7-8 5.7-112.9 0-95 0-96.1-2.1-103a76 76 0 0 0-26.6-39c-18.5-14.6-45.7-23.9-77.2-26.6-13.2-1-51.3-1-64.6.2m41.6 42.5a32 32 0 0 1 16.6 11.9c6 8.7 5.8 5.2 5.8 112 0 87.4-.2 98.3-1.6 103.3a30 30 0 0 1-39.6 20.4c-6-2.1-13.7-8.9-16.9-15.2l-2.4-4.5-.3-100.5c-.2-66.4.1-102.1.8-105.3a31 31 0 0 1 20.4-21.9 25 25 0 0 1 17.2-.2m-750.9-42c-.4.4-.7 76.3-.7 168.6V1604h93v-129.3c0-84.5.4-131.4 1.1-135.6a32 32 0 0 1 10.8-18.9c8.1-6 19.4-7.7 28.5-4.5a38 38 0 0 1 16.8 14.6l2.3 4.2.5 118.5c.4 86.1.9 119.6 1.8 122.5a40 40 0 0 0 21.1 24.8l6.6 3.2 35.8.3 35.7.3v-131.3c0-139.1 0-139-4.6-154.8a69 69 0 0 0-40.4-45.3c-14.1-5.1-10.6-5-112.5-5.4a3350 3350 0 0 0-95.8.3m395.3.1c-18.9 2-39.2 7.3-51.2 13.4-23.8 12-36.4 27.5-40.2 49.5a356 356 0 0 0 0 68.5c5.5 29 29.4 50 64.4 56.3 4.7.9 19.8 2 33.5 2.6 13.8.6 27.4 1.5 30.4 2q16.5 2.7 22.8 15.8l2.8 5.7v26c0 23.3-.2 26.6-2 31.8-2.4 7.1-7.7 13-14.3 16s-21.8 3.1-28.2.1c-11.4-5.4-14.9-13.1-15.9-34.9-.6-13.5-1-15.6-3.4-20.7a34 34 0 0 0-17.3-16.1c-4.3-1.5-9.1-1.7-40.3-1.7h-35.3l.5 21.2c.6 23 1.3 27.3 6.8 41.3a88 88 0 0 0 44.9 46.8c23.3 11.4 45.4 15.2 83 14.4 30.2-.6 40.8-2 59.6-7.7a115 115 0 0 0 35.7-19.1 85 85 0 0 0 15.6-20.5c5.9-12 6.1-14 6.1-51.8 0-30.9-.2-35.4-1.9-41.5a66 66 0 0 0-37.6-43.2c-15.9-7.5-27.9-9.5-65.5-10.9-28.7-1.1-33.4-2.3-41.6-10.5-3-3-5.8-6.9-6.5-9.1-.8-2.6-1.4-12.2-1.6-28-.4-20-.1-25.2 1.2-30.5q3.9-15.7 18.6-19.9c8.3-2.5 15-2.5 22.8-.1 13.4 4.2 16.6 9.4 18 29.4.8 11 1.4 14.7 3.4 19a31 31 0 0 0 15.6 15.6l5.6 2.6h73l.3-8.3a136 136 0 0 0-2.8-29.7 95 95 0 0 0-20.3-39.2 108 108 0 0 0-43.7-27.2l-10-3.2c-2.6-.9-10.7-2.3-22-3.9a775 775 0 0 0-63-.3m537.7-.1c-.4.4-.7 76.3-.7 168.6V1604h92.9l.3-133.8.3-133.7 2.5-4.8a30.3 30.3 0 0 1 56.4 3.7c.7 2.2 1.2 38.5 1.6 122.1.5 115.6.6 119.1 2.5 123a66 66 0 0 0 11 14.8c1.1.9 4.9 3.2 8.5 5l6.5 3.2 35.8.3 35.8.3-.4-135.8c-.3-134.4-.3-135.9-2.4-143.3a79 79 0 0 0-7.5-20.6c-10.1-19-23.4-29.1-45.8-35-5.8-1.5-16.1-1.8-101.5-2.1a3350 3350 0 0 0-95.8.3"/></svg>