<svg xmlns="http://www.w3.org/2000/svg" viewBox="0 0 3000 3000"><path fill="#fff" d="M631.5 973.1c-20.2.5-25.1 1-31 2.7-3.8 1.2-12 2.6-18.2 3.2-6.6.6-12.9 1.8-15.5 2.9a56 56 0 0 1-12.7 3.1c-4.7.6-9.7 1.8-11.2 2.6-1.6.8-6.3 2.3-10.6 3.4a215 215 0 0 0-29.8 10c-2.2 1-5.3 2.2-7 2.6-1.6.4-5 1.7-7.5 2.9a81 81 0 0 1-8.5 3.5c-2.2.7-5 2.1-6.2 3s-4.3 2.3-6.8 3-4.5 1.7-4.5 2.2-2.1 1.8-4.6 2.9c-2.6 1-6 3.1-7.6 4.4s-3.5 2.5-4.2 2.5-2.1.9-3.1 2-3.7 3-5.9 4a68 68 0 0 0-12.8 8.4c-1 .8-3.4 2.6-5.5 4l-6.3 4.5a11 11 0 0 1-3.4 2.1c-.5 0-1.9 1-3.1 2.2s-6.4 5.4-11.5 9.3c-9 6.9-49 45.7-49 47.6 0 .5-1.1 1.5-2.5 2.1s-2.5 1.6-2.5 2.1-1.5 2.6-3.2 4.7a73 73 0 0 0-10.9 14.4c-.7 1.4-1.6 2.6-2 2.6-.5 0-1.6 1.5-2.5 3.2s-3 4.9-4.5 6.8c-1.6 1.9-2.9 3.9-2.9 4.6s-1.1 2.1-2.5 3.4-2.5 2.9-2.5 3.5-1.6 3.4-3.5 6.1a25 25 0 0 0-3.5 6c0 .6-.7 1.8-1.7 2.5-.9.8-2.5 3.4-3.6 5.9a30 30 0 0 1-3.7 6.5c-.9 1.1-2.3 3.6-3 5.5s-2.1 4.4-3.1 5.5-2.2 3.9-2.8 6.1c-.6 2.3-1.9 5.2-2.9 6.5a23 23 0 0 0-3.1 7.4 49 49 0 0 1-3.1 8.5c-1 1.9-2.6 6.2-3.5 9.5s-2.2 6.9-2.9 8a46 46 0 0 0-3.1 9 66 66 0 0 1-3.2 9.8c-.8 1.6-2.1 6.3-2.9 10.5s-2.3 10.2-3.4 13.2c-1 3-2.4 10-3 15.4a83 83 0 0 1-2.2 12.5c-2.1 5.6-2.9 13.6-3.8 38-1.2 33.2.2 71.5 2.9 82.1 1.1 4.1 2.6 12.6 3.5 18.7.8 6.2 2.2 12.5 2.9 14 .8 1.6 2.2 6.8 3.1 11.8 1.8 8.9 4.2 15.1 6.8 17.3 1.2.9 2.3.2 5.9-3.6 2.4-2.6 5.2-6.2 6.2-7.9 1.6-3 1.6-3.5.2-5.6a44 44 0 0 1-3-10.3c-.9-4.3-2.2-9.5-3-11.5-.8-2.1-2.1-9-3-15.5a283 283 0 0 0-3.3-20.4c-1.4-7.1-1.7-14.3-1.7-45a400 400 0 0 1 1.3-42.5c.6-3.3 2.1-12.5 3.2-20.5s2.7-16.1 3.5-18 2.1-7.2 2.9-11.6c.8-4.5 2.4-9.9 3.5-12a39 39 0 0 0 2.6-8.4c.4-2.5 1.7-6.3 3-8.5 1.2-2.2 2.6-5.6 3-7.5s1.8-5.4 3.1-7.7 2.4-4.8 2.4-5.6 1.1-3.6 2.5-6.3 3-6.5 3.6-8.4a306 306 0 0 1 30.9-54.2c1.1-2.1 2.9-4.2 4-4.8a6 6 0 0 0 2.6-3.6c.3-1.3 1.4-3 2.4-3.7.9-.6 2.3-2.3 3-3.7 1.4-2.7 11.8-16 15.7-20 19.8-20.7 24.1-25 25-25 .5 0 1.5-1.1 2.1-2.5s1.6-2.5 2.1-2.5 3.6-2.6 6.9-5.8a207 207 0 0 1 25.5-20c1.5-.6 2.7-1.6 2.7-2.2 0-.5 1.5-1.7 3.3-2.6s4.8-3 6.7-4.5c1.9-1.6 3.9-2.9 4.6-2.9s2.1-1.1 3.4-2.5 2.8-2.5 3.3-2.5a21 21 0 0 0 5-2.9c6.3-4.3 10.6-6.8 16.4-9.5a22 22 0 0 0 5.7-3.5c.4-.5 3-1.7 5.9-2.7 2.8-.9 5.9-2.3 6.7-3 .9-.7 3.6-2 6-2.9s6.7-2.6 9.5-4 6.7-2.7 8.7-3.1c2.1-.3 4.3-1.2 4.9-2s3.7-2.1 6.8-3 7-2.5 8.7-3.5 5.5-2.4 8.5-3 7-2 9-2.9c1.9-1 6.4-2.3 10-3 3.5-.6 8.9-1.9 11.9-3 3-1 10.1-2.6 15.7-3.5 5.7-.8 11.4-2 12.8-2.5 11.2-4.3 76.8-5.8 109.4-2.6 9.6.9 17.8 1.9 18.1 2.1s7.2 1.6 15.1 2.9c7.9 1.4 16 3.1 17.9 3.9s6.9 2 11 2.7 9.1 2 11 3 5.9 2.3 8.9 2.9 6.8 2 8.5 3 5.5 2.4 8.3 3.1c2.9.6 6.3 2 7.7 3.1 1.3 1 4.5 2.3 7.2 2.9s6 1.9 7.4 2.9 4.3 2.4 6.5 3.1 5 1.8 6.1 2.6l12 6.4c5.5 2.9 10.6 5.8 11.4 6.5s3.3 2.2 5.5 3.4q10.5 5.6 27.1 20.6c1.8 1.6 5.2 4.3 7.4 6 8.2 5.9 22.1 18.8 28.7 26.4a119 119 0 0 1 13.3 16.6c0 .4 1.2 2 2.8 3.5 4.3 4.6 12.7 15.6 16.7 22.2a328 328 0 0 1 28.7 57.6c.6 2.6 2 5.8 3 7.3 1 1.4 2.5 5.3 3.3 8.7.8 3.5 2.1 7.3 3 8.5s1.9 4.7 2.6 7.7c.6 3 2.1 8.9 3.4 13s3.1 11.5 3.9 16.5l3 16.5a649 649 0 0 1 5.3 84.5c-.9 29.3-4.5 69.6-6.6 74.6-.6 1.3-1.7 7.5-2.6 13.7a71 71 0 0 1-2.9 14.1c-.8 1.5-2.2 6.5-3 11.1a45 45 0 0 1-3.3 10.9c-.9 1.4-2.2 5.4-3 9s-2.2 7.8-3.2 9.5-2.4 5.3-3 8.1-2.1 6.3-3.1 8c-1 1.6-2.1 4.6-2.5 6.5a30 30 0 0 1-3 7.5 56 56 0 0 0-3.5 8 22 22 0 0 1-2.2 5.1l-3.9 7a94 94 0 0 1-9.9 16.9c-.9 1.1-2.3 3.1-3 4.5a11 11 0 0 1-3.2 3.8c-1 .7-1.8 1.9-1.8 2.7 0 .7-1.3 2.8-2.9 4.7a254 254 0 0 1-27 28.5 185 185 0 0 1-12 9.8 83 83 0 0 0-7.4 5.7 12 12 0 0 1-3.7 2.8c-.4 0-2.5 1.4-4.6 3.1a31 31 0 0 1-6.6 4.1q-2.6 1-2.8 1.8c0 .7-7 4.3-23.2 11.9a60 60 0 0 1-11.5 4.1c-2.6.6-8.4 2.4-12.8 3.9l-8 2.7.2 3.6c.2 3.2 2.7 8.3 8.9 17.8 1.3 1.9 3 5.2 3.8 7.2.9 2 2 3.9 2.6 4.3s1.7 2.2 2.5 4.2c.8 1.9 2.6 4.8 4 6.5 1.4 1.6 2.5 3.5 2.5 4.2s1.3 3 3 5.1 3.2 4.6 3.6 5.8 1.7 3.5 3 5c1.3 1.6 2.4 3.3 2.4 3.8a30 30 0 0 0 3.5 6c1.9 2.8 3.5 5.7 3.5 6.4s.7 1.9 1.7 2.6 2.5 3.3 3.5 5.7c1.1 2.4 3 5.9 4.3 7.8s2.6 4.8 3 6.4 1 3 1.5 3c.8 0 4.5 6.1 9.4 15.5a30 30 0 0 0 3.7 5.6c.9.9 2.3 3.3 3 5.3s1.7 3.6 2.1 3.6 1.7 1.9 2.9 4.2 3.2 5.6 4.4 7.3c1.3 1.6 2.6 4.1 3 5.5s1.6 3.4 2.6 4.5 2.5 3.7 3.3 5.7c.9 2 2.1 4 2.7 4.3.6.4 1.9 2.6 3 4.9 1.1 2.2 3.5 6.8 5.4 10.1s4.6 8.5 6.1 11.5a24 24 0 0 0 3.9 6.3c.7.4 2.1 2.7 3.1 5.2s2.1 4.5 2.5 4.5c.5 0 2 2.2 3.4 4.9s3 5.3 3.6 5.6c.6.4 1.9 2.6 3 4.9 1.1 2.2 3.5 6.6 5.4 9.6s4.6 7.9 6.1 10.7c1.4 2.9 3 5.5 3.5 5.9.6.3 1.9 2.5 3 4.8s3.5 6.8 5.4 10.1 4.7 8.3 6 11.1c1.4 2.8 3.4 5.9 4.5 6.9s2 2.4 2 3.1a19 19 0 0 0 3.5 5.4c1.9 2.3 3.5 4.5 3.5 5 0 1.6 14.4 15.3 17.4 16.5 6.5 2.7 68.7 6.7 76.8 5 3.1-.7 3.2-.8 1-1.6a6 6 0 0 1-3.1-3.2 8 8 0 0 0-4.1-3.7c-1.7-.7-3.6-2-4.3-3s-2.1-2.2-3.2-2.8c-3-1.5-10.5-8.7-10.5-10 0-.6-.8-1.7-1.8-2.4-2-1.4-6.4-7.6-9.9-13.9a41 41 0 0 0-3.5-5.6c-1.3-1.5-4-6.4-9.3-17-1.4-2.9-3-5.5-3.5-5.8s-1.8-2.5-2.8-4.8a18 18 0 0 0-3.5-5.5c-.9-.8-2.1-2.9-2.7-4.8s-1.6-3.4-2.1-3.4-2-2.2-3.4-4.9-3-5.3-3.6-5.6c-.6-.4-1.9-2.6-3-4.9-1.1-2.2-3.5-6.6-5.4-9.6-3.4-5.6-8.3-14.1-12-20.9l-4.1-6.7a37 37 0 0 1-3.3-6.2c-.8-1.7-1.7-3.2-2.1-3.2s-1.7-2.1-2.9-4.8a60 60 0 0 0-4.4-7.8c-2.5-3.6-5.4-8.3-7.9-12.8l-3.3-5.1a1316.6 1316.6 0 0 1-16.7-28.1c-1-1.6-2.9-5.3-4.4-8.1a21 21 0 0 0-3.5-5.8c-.5-.4-1.8-2.8-3-5.5a22 22 0 0 0-4-6.6c-1-.9-1.9-2.3-1.9-2.9s-1.3-2.9-3-5c-1.6-2-3.2-4.6-3.6-5.8s-1.7-3.5-3-5c-1.3-1.6-2.4-3.4-2.4-4.1s-1.3-3-3-5.1-3.2-4.6-3.6-5.8-1.4-3-2.3-4c-1.9-2.3-6.2-9.4-9.6-16.4a26 26 0 0 0-4-6.3c-.8-.7-1.5-1.8-1.5-2.5s-1.1-2.8-2.4-4.7a23 23 0 0 1-3-7.1c-.6-3-.3-3.8 1.6-5.1 1.3-.9 4.1-2.1 6.3-2.7s5.2-2 6.6-3c1.5-1 3.1-1.9 3.5-1.9a273 273 0 0 0 44.5-25c2.1-1.1 3.9-2.4 3.9-2.9q.2-.8 1.9-1.7a311 311 0 0 0 42.1-43.7 158 158 0 0 0 10.6-15.4 18 18 0 0 1 3.2-4.2 20 20 0 0 0 3.1-4.6 87 87 0 0 1 8.8-14.4c.5-.3 2-3.2 3.2-6.4 1.3-3.1 2.7-5.7 3.1-5.7s1.3-2.1 2-4.8a51 51 0 0 1 2.8-7.7c1.5-2.9 5.8-14.4 8.7-23l3.5-10.5c1.2-3.6 3-10.4 4-15.2a95 95 0 0 1 3.5-12.4c.8-2 2.2-9.2 3-15.9s2.2-14.5 3-17.2c4.4-14.9 4.4-103.8 0-118.7-.9-2.8-2.2-10.9-3-17.9-.9-7.1-2.2-14.4-3-16.4s-2.2-7.6-3-12.6c-.9-5-2.3-10.7-3.1-12.6s-2.3-7-3.3-11.2-2.5-8.9-3.3-10.5a58 58 0 0 1-3.3-10.2c-.9-4-2.1-7.4-2.5-7.7-.5-.3-1.6-2.9-2.5-5.8-1.6-4.9-6.6-16.4-8.6-19.7-.5-.8-2.3-4.3-3.9-7.7a29 29 0 0 0-4-6.8c-.6-.3-1.7-2.3-2.6-4.3-.8-2-2.3-4.6-3.3-5.7s-2.3-3.4-3-5.2-2-3.8-2.8-4.4-2.3-2.9-3.4-4.8c-1.1-2-4-6.3-6.4-9.6a82 82 0 0 1-5.8-8.5c-.6-1.3-2.1-3.4-3.2-4.6s-3.6-4.3-5.5-6.9c-5-6.9-13.5-16-29.6-32.1a293 293 0 0 0-30.9-28.4c-.4 0-2.2-1.2-4-2.8s-4.8-3.7-6.7-5l-8.3-5.7-8.5-6a89 89 0 0 0-7.3-4.5c-2.1-1.1-4.7-3-5.7-4-1.1-1.1-2.6-2-3.4-2s-3-1.4-5.1-3-4.4-3-5.1-3-2.5-1-4.1-2.3a31 31 0 0 0-7.3-4.1c-2.5-1-5.2-2.3-6-3.1-.8-.7-3.3-1.8-5.5-2.5a42 42 0 0 1-7.1-3c-1.7-1-5.8-2.6-9-3.5s-7-2.3-8.4-3.1-5.4-2.3-9-3.3c-3.6-1.1-9-2.8-12-3.9a196 196 0 0 0-27.3-8.3c-4.8-1-9.9-2.5-11.5-3.3s-7-1.9-12.2-2.6a77 77 0 0 1-14-3.1c-2.6-1-10.7-2.5-18.7-3.3-7.9-.9-16-2.3-18-3.1-5.6-2.4-44.4-3.5-82.8-2.4m-135.4 134.8c-1.9.3-3.7 1.2-3.9 2-.4 1.2 1.3 1.3 10.4.7 6-.4 12-1 13.4-1.3 2.3-.6 2.3-.7.5-1.4-2.3-.9-15.5-.9-20.4 0m59 0c-1.6 1-.4 1.3 12.9 3 5.3.7 7.8 1.5 9 2.9.8 1.1 3.2 2.3 5.2 2.6 2.1.4 5 1.7 6.5 3a17 17 0 0 0 5.6 3c1.6.4 4 1.8 5.3 3.2 1.4 1.3 4.1 3.1 6 3.9 1.8.8 3.4 1.8 3.4 2.4s1.4 1.6 3.1 2.5 4.8 3 7 4.8c4.9 4.3 23.4 22.6 27.6 27.5a60 60 0 0 1 10.3 13.6c0 .6 1 2.1 2.2 3.4a65 65 0 0 1 8.9 14.3c1.2 2.5 2.9 5.4 3.9 6.5s2.3 3.9 3 6.3c.6 2.4 1.9 5.1 3 6.2 1 1 2.3 4.3 3 7.3.6 3.1 1.7 6.1 2.5 6.7q2.6 2.3 4 12.5c1.3 9.7 2.6 1.8 3.6-22.3.5-13 1.6-28 2.4-33.2 2.1-13.5 3.9-59.8 2.5-63.5q-1-2.7-1.8-1.9c-.4.6-3.8 2.6-7.7 4.5-6.9 3.4-7.2 3.4-20 3.3a58 58 0 0 1-19.5-2.1 97 97 0 0 0-14.9-3.2c-4.8-.6-9.1-1.7-10.1-2.6-.9-.8-5.2-2.2-9.4-3s-9-2.4-10.5-3.4c-1.5-1.1-6-2.4-10.6-3.1-4.4-.6-9.8-2.1-12-3.2-4.5-2.3-21.9-3.7-24.4-1.9m-75.6 5.3c-3.3.5-6.9 1.8-8 2.8a25 25 0 0 1-7.6 3.4c-3.1.9-6.2 2.2-6.8 3a20 20 0 0 1-5.6 3.1c-2.5.9-4.5 2-4.5 2.5s-2.1 1.8-4.6 3c-5.3 2.6-5.3 2.7-19.6 16.3a76 76 0 0 0-10.8 11.5c0 .6-1.1 1.9-2.5 2.8s-2.5 2.2-2.5 2.9-1.4 3.1-3 5.4a42 42 0 0 0-4.6 8.1c-.9 2.2-2 4-2.4 4-.9 0-2.6 4.3-3.5 8.7a17 17 0 0 1-2.6 5.8q-2 2.5-3.4 11.8c-.7 5-2.1 11.2-3.1 13.7-1.6 3.9-1.9 7.3-1.9 25 0 18.6.2 21 2.1 26 1.2 3 2.5 8.7 2.9 12.5.4 4.5 1.7 9.2 3.6 13.1a29 29 0 0 1 2.9 8.5c0 1.3 1.4 4.4 3 6.8s3 5.2 3 6.2 1.1 3.1 2.5 4.7 3.1 4.5 3.7 6.4a18 18 0 0 0 3 5.3c2.8 2.9 6.5 8.4 8.7 13 1.1 2.2 2.9 4.6 4 5.3q2 1.2 2.1 2.3c0 .7 1.5 2.9 3.3 5l6.7 8.4c1.9 2.6 4.7 5.9 6.3 7.3 1.5 1.5 2.7 3.2 2.7 3.9s1.4 2.1 3 3.3 3 2.6 3 3.1 3.9 4.9 8.8 9.8l10.4 10.7c2.5 2.8 3.1 3.4 17.1 16.9 5.4 5.2 10.2 9.5 10.6 9.5s1.3 1.1 1.9 2.5 1.7 2.5 2.3 2.5 3.7 2.6 7 5.7a313 313 0 0 0 18.9 16.9c5.6 4.8 7.7 6.6 13.6 11.9l6.8 5.9 6.9 6.2c2 1.9 4.1 3.4 4.6 3.4q1 .2 1.6 2c.3 1.1 1.2 2 1.9 2a15 15 0 0 1 4.7 3.2 629.7 629.7 0 0 1 43.1 39.6l3 3 3 3 3 3 3 3 2.9 2.9c1.8 1.7 21.1 21.9 23.3 24.3 7.1 7.8 14.5 16.8 15.6 19 .7 1.3 2.4 3.3 3.7 4.3 1.2 1 2.3 2.5 2.3 3.2s1.1 2.2 2.5 3.1 2.5 2.2 2.5 2.8c0 .7 1.4 2.8 3.1 4.7a29 29 0 0 1 4.4 6.6c.8 1.8 1.9 3.3 2.5 3.3s1.8 1.7 2.7 3.7c.8 2.1 2.4 4.4 3.4 5.1s2.4 3.1 3.1 5.3c.6 2.3 1.8 4.3 2.6 4.6.7.3 2.4 2.9 3.6 5.7a27 27 0 0 0 3.9 6.5c1 .7 1.7 2.1 1.7 3.1s1.3 3.6 2.9 6.1a41 41 0 0 1 4.1 9.1c.7 2.7 1.6 4.8 2 4.8 1 0 2.7 4.4 4 10.5.6 2.7 1.8 5.7 2.7 6.7.8.9 2.1 5.9 2.9 11.4.8 5.3 2.1 10.9 2.9 12.5q3.5 6.7 3.5 44.4c0 26.9-1.2 42.8-3.9 50.5-1 3-2.2 9.1-2.5 13.5a42 42 0 0 1-3.1 13 41 41 0 0 0-3 10c-.4 2.7-1.8 6.8-3 9a29 29 0 0 0-3 7.8c-.4 2.1-1.8 5.3-3.1 7.3a22 22 0 0 0-3 6.2c-.4 1.5-2 4.5-3.5 6.6a16 16 0 0 0-2.9 5.7c0 .9-.7 2.2-1.6 3-.8.7-2.6 3.3-3.9 5.8a19 19 0 0 1-4.4 5.9c-1.2.7-2.1 1.9-2.1 2.7s-1.1 2.7-2.5 4.2l-9.4 10.8a217 217 0 0 1-22.1 21.9 30 30 0 0 1-5 3.6 9 9 0 0 0-3.3 2.6c-.4.8-2.2 2.1-4 3s-3.5 2.2-4 3-2.8 2-5.5 3c-2.6 1-5.3 2.6-6 3.6s-3.2 2.3-5.5 2.9-5.2 2.1-6.4 3.2c-1.1 1-3.9 2.3-6.1 2.8-2.3.5-5.7 2-7.6 3.3a25 25 0 0 1-9.2 3.1 23 23 0 0 0-8.5 2.7q-2.5 2-11.5 3c-4.9.5-11.1 1.8-13.7 2.9-6.3 2.6-23.6 3.8-54.2 3.8-31 0-47.5-1.1-54-3.7a56 56 0 0 0-12.5-2.7c-4.6-.4-9.4-1.6-12.5-3a48 48 0 0 0-10.9-3.5c-3.3-.5-6.9-1.9-8-2.9a16 16 0 0 0-6.3-2.6c-2.4-.4-5.8-1.7-7.7-3s-5.2-2.8-7.2-3.4-4.6-1.9-5.8-2.9a20 20 0 0 0-5.8-3.2 11 11 0 0 1-5.1-3c-.7-1-2.5-2.2-4-2.5-1.4-.4-3.8-1.8-5.2-3.1a29 29 0 0 0-5.5-3.9c-1.6-.8-3.4-2.4-4-3.5s-1.7-2-2.4-2-2.7-1.2-4.4-2.8l-9.8-8.7c-3.7-3.3-9.8-9.6-13.5-14-3.8-4.4-7.9-9.1-9.3-10.5a14 14 0 0 1-3-4.7c-.4-1.1-1.3-2.4-2-2.6-.8-.3-2.6-2.8-4.2-5.6-1.5-2.8-3-5.1-3.4-5.1s-1.3-1.5-2.1-3.3c-.7-1.7-2.3-4.5-3.5-6a21 21 0 0 1-3.3-6.1 14 14 0 0 0-2.9-5.4 13 13 0 0 1-2.8-5.9 21 21 0 0 0-3-7.3 29 29 0 0 1-3.3-8.2c-.6-2.5-2-6.1-3-8a35 35 0 0 1-3.1-10.1c-.6-3.7-1.9-8.5-3.1-10.6a46 46 0 0 1-3-15.7 86 86 0 0 0-2.7-16.9c-2.5-7.5-2.5-58.6 0-66 1-2.8 2.2-10.2 2.8-16.5.8-8.1 1.7-12.4 3-14.8 1.1-1.8 2.5-6.6 3.1-10.5a29 29 0 0 1 3-9.9 28 28 0 0 0 3-8c.6-2.9 2-6.6 3.1-8.1 1-1.5 2.6-5 3.4-7.6.8-2.7 2.1-5.4 2.9-6.1s1.9-2.8 2.6-4.8 2.2-4.9 3.5-6.4 2.8-4.3 3.4-6.3c.6-1.9 2-4 3-4.5s2.1-2.3 2.5-3.9a9 9 0 0 1 2.7-4.7c1.1-1.1 2.7-3.2 3.5-4.9.9-1.6 2.4-3.9 3.4-5l5.4-5.8c1.9-2.1 3.5-4.2 3.5-4.7a214 214 0 0 1 30-29c0-.5 1.5-1.7 3.3-2.6s3.6-2.3 4-3 2.2-2.1 3.9-3 4.3-2.7 5.7-4 3.3-2.4 4.2-2.4 3-1.3 4.6-2.9c1.7-1.6 4.5-3.2 6.2-3.6s4.2-1.7 5.5-3c1.2-1.2 4.2-2.6 6.5-3s4.5-1.3 4.7-2c.6-1.5 4.2-3 9.4-4.1a17 17 0 0 0 6-2.5c1.4-1.1 5.8-2.5 9.8-3.3s8.2-2.2 9.2-3.1c1.4-1.3 5.4-2 16-3 7.7-.7 14.3-1.5 14.6-1.8 1.1-1.1-14.8-1.9-23.4-1.2-4.8.3-11.5 1.5-14.8 2.5s-11.5 2.4-17.9 3c-7.5.7-13.3 1.8-16 3a55 55 0 0 1-12.2 3.1 31 31 0 0 0-10.6 3 26 26 0 0 1-8.5 3.1c-3.1.6-7.5 2.1-9.7 3.4a34 34 0 0 1-7.5 2.9c-1.9.4-5.1 1.7-7 3a30 30 0 0 1-7.5 3.5c-2.2.7-4.6 2.1-5.3 3.1-.6.9-2.5 2-4.1 2.4-1.7.3-4.7 2-6.7 3.6s-4.2 2.9-4.9 2.9-2.6 1.3-4.3 3c-1.8 1.6-3.6 3-4.1 3-.9 0-6 3.9-12.6 9.5-5.9 5-24.5 23.5-24.5 24.3 0 .5-1.3 2.1-3 3.5-1.6 1.5-3 3.3-3 4s-1.6 3.1-3.5 5.3a17 17 0 0 0-3.5 5c0 .6-1.1 2.1-2.4 3.4a11 11 0 0 0-3.1 5.1c-.4 1.6-1.7 4.2-2.9 5.7a21 21 0 0 0-3.5 6.4c-.7 2-2 4.7-3.1 6-1 1.3-2.3 4.4-3 6.8-.6 2.5-2 5.7-3 7.2a27 27 0 0 0-3 9.5c-.6 3.7-2 8.3-3.1 10.1a56 56 0 0 0-3.4 17 131 131 0 0 1-3.2 19.2c-2.5 8-2.6 54-.1 61.5 1.9 5.8 2.5 9.2 3.7 23 .6 7 1.5 11.1 2.9 13.5a39 39 0 0 1 3.1 10.9c.7 4.3 2 8.4 3.1 9.8 1 1.3 2.4 4.8 3 7.8a23 23 0 0 0 2.9 7.7c1 1.3 2.6 4.7 3.5 7.5 1 2.9 2.2 5.5 2.7 5.9a22 22 0 0 1 3.5 5.7 82 82 0 0 0 9.6 16.6c1.6 1.8 2.8 3.9 2.8 4.7s1.1 2.4 2.5 3.6 2.5 2.7 2.5 3.5 1.4 2.7 3 4.5c5.9 6.3 11 12.9 11 14.2 0 .7 1.1 1.8 2.5 2.4s2.5 1.6 2.5 2.1c0 1.7 17.3 18.2 27.5 26.1 2.8 2.1 6 4.8 7.3 5.9a24 24 0 0 0 5.2 3.6c1.7.9 3 2 3 2.6 0 .5 1.9 1.8 4.3 2.8 2.3 1 4.9 2.6 5.6 3.5.8 1 3 2.4 4.9 3.2s4 2 4.6 2.8a21 21 0 0 0 5.9 3.2c2.7.9 5.1 2.3 5.4 3.1.3.7 2.4 1.8 4.7 2.4 2.2.6 5.7 2.1 7.6 3.4s5.1 2.6 7 3 5.1 1.7 7 3 6.1 2.8 9.2 3.5c3.2.6 6.4 1.7 7 2.4 1.9 1.8 4.6 2.7 11.1 3.6 3.2.5 7.6 1.8 9.8 2.9 2.4 1.3 7.6 2.5 13.1 3.1 5 .6 11.2 2 13.7 3.1 5.1 2.2 19.3 3.4 54.6 4.5 26.3.8 68.2-1.7 74.5-4.5a63 63 0 0 1 13.8-3q9.2-1 12.6-3c1.7-1.1 6.4-2.6 10.4-3.2s8.2-2 9.3-3a21 21 0 0 1 7.4-2.9c3-.6 6.5-2 7.9-3.1s4.9-2.7 7.8-3.5a25 25 0 0 0 7.3-3.4c1.1-1 3.9-2.4 6.3-3.1 2.3-.7 4.2-1.6 4.2-2.1s2.1-1.8 4.6-2.9c2.6-1 6-3.1 7.6-4.4s3.8-2.5 4.8-2.5 2.5-1.1 3.4-2.5 2.2-2.5 2.9-2.5a22 22 0 0 0 6.1-4c2.6-2.2 5.4-4 6.1-4s2-1.1 2.9-2.5 2.2-2.5 2.8-2.5 2.6-1.5 4.3-3.3l4.6-4.4 2.5-2.4 9-9c7.7-7.7 11.4-11.8 16.2-17.6a61 61 0 0 0 9.2-12.4c0-.4 1.3-2.3 2.9-4.1s3.1-4.3 3.5-5.5 2-3.8 3.6-5.8c1.7-2.1 3-4.4 3-5.1s1.1-2.5 2.4-4.1 2.7-4.3 3.1-6.1 1.7-4.5 3-6c1.2-1.5 2.6-4.3 3-6.2s1.8-5.2 3.1-7.2 2.8-5.9 3.4-8.5 1.9-5.9 2.8-7.3c1-1.4 2.6-6.3 3.5-10.9a31 31 0 0 1 3.2-10.1q1.6-1.8 2.7-11.6c.5-5.5 1.7-11.7 2.5-13.9 2.6-7.1 3.2-12.5 4.2-38.5 1.3-34.3-.3-67.7-3.5-72.5a45 45 0 0 1-3.1-11.1c-.8-4.8-2.3-9.9-3.3-11.3a23 23 0 0 1-3-7.5c-.6-2.7-2-6-3-7.4a20 20 0 0 1-3.1-6.6c-.6-2.2-2.1-5.3-3.4-6.8a17 17 0 0 1-3-5.7 10 10 0 0 0-2.6-4.7c-1.1-1-2.8-3.6-3.8-5.8-1-2.3-2.5-4.7-3.4-5.5-1-.7-1.7-2-1.7-2.8s-1.1-2.5-2.5-3.9a33 33 0 0 1-4.5-6.2c-3.4-6.1-7.6-11.7-14.7-19.8-1.8-2-3.3-4.1-3.3-4.5s-1.6-2.6-3.5-4.6-3.5-4.3-3.5-4.9q-.2-1.2-1.9-1.9a4 4 0 0 1-2.6-2.5c-.3-1.1-1.9-2.9-3.6-4a499.6 499.6 0 0 0-37.8-38q-.8-.2-1.9-2.5c-.6-1.4-1.7-2.5-2.3-2.5s-3.8-2.6-7-5.8c-6.6-6.3-8.3-7.8-21.4-18.8l-12.5-10.5-6.3-5.2a64 64 0 0 1-5.7-5c-1.5-1.5-3.2-2.7-3.7-2.7-1 0-9.6-6.7-13.3-10.3a17 17 0 0 0-4.7-3.1c-1.2-.4-2.5-1.6-2.8-2.7-.4-1-1.2-1.9-2-1.9-1.2 0-4.7-2.5-14.2-10.5a19 19 0 0 0-5.2-3.5c-.6 0-1.8-1.1-2.7-2.5s-2.2-2.5-2.9-2.5c-.8 0-2.2-1.1-3.2-2.3-1-1.3-2.8-2.9-3.9-3.5a149 149 0 0 1-20.2-16.5c-1.4-1.5-3.1-2.7-3.7-2.7s-2.3-1.2-3.7-2.8c-2.9-2.8-6-5.5-14.3-12.3a694 694 0 0 1-38.3-35.1l-7.6-8.1-7.5-8c-4.3-4.4-9.8-10.7-13.6-15.6l-6.7-8.5a13 13 0 0 1-2.8-4.5c0-.6-1.1-1.8-2.4-2.6a8 8 0 0 1-3-3.9 22 22 0 0 0-3.6-6.1c-1.6-2.1-3-4.3-3-4.8s-1.2-2.8-2.6-4.8c-1.4-2.1-3-5.6-3.5-7.9s-1.8-5.4-3-6.9a27 27 0 0 1-3-9.6c-.6-3.9-1.9-9.7-3-12.9a94 94 0 0 1 0-40.1c1.2-3.3 2.4-8.8 2.7-12.3q.8-6.3 2.9-9.7c1.3-1.8 2.6-4.7 3-6.4a18 18 0 0 1 2.9-5.9 89.3 89.3 0 0 1 31.1-30.8c1.8-.7 3.5-2 3.8-2.8s2.5-2 4.9-2.7 5.6-2.3 7.1-3.6c1.6-1.3 3.6-2.3 4.5-2.3s3.4-.5 5.5-1.1c3.2-.8 3.6-1.3 2.6-2.5-1.3-1.6-1.8-1.6-10.4-.2m1297 274.5a15 15 0 0 0-5.2 3.9c-3 3.1-3.3 4.1-3.3 9.4 0 4.2.5 6.3 1.6 7.2.9.7 2.9 2.6 4.4 4.2 2.4 2.4 3.6 2.8 7.9 2.8 4.7 0 5.5-.3 9.3-4.1 3.9-4 4.1-4.5 4.1-10-.1-3.2-.6-6.8-1.3-8-2.5-4.8-10.1-7.1-17.5-5.4m726.8 0c-1.2.2-3.8 2.3-5.9 4.5-3.5 3.9-3.6 4.3-3 9.4.5 4.6 1.2 6 4.7 9.5 3.9 3.9 4.5 4.2 9.5 4.1 4.9 0 5.7-.4 9-3.9 3.1-3.2 3.7-4.7 4.2-9.5.4-5 .1-6.3-1.9-9.3q-4.8-7.2-16.6-4.8m259.7 6.2c-.7 1.3-1 34.3-1 99.9 0 88.4.2 98 1.6 98.6 2.5.9 12 .7 14.8-.4l2.6-1v-194.7l-2.3-2.1c-3.2-3.1-14.1-3.2-15.7-.3m-1556.7 12c-1 1.6-1.3 22.2-1.3 94 0 82.9.2 91.9 1.6 92.5 2.5.9 12 .7 14.8-.4l2.6-1v-36.4c0-20 .3-37.2.6-38.1 1.4-3.7 5.7-4.5 22.7-4.5 11.8 0 17.6-.4 20.6-1.4 2.2-.8 6.9-1.8 10.3-2.1 16-1.5 16.6-1.6 19.5-4.1a14 14 0 0 1 5.4-3 52 52 0 0 0 19.8-20.4c3-3.9 4.4-20.5 2.9-34.3-1-9.8-1.5-11.4-4-14.3-1.5-1.7-2.8-3.9-2.8-4.7s-.9-2.1-2-2.7-2.7-2.4-3.5-4c-.9-1.7-2.2-3-3-3s-2.4-.9-3.6-2.1a20 20 0 0 0-6-3.5c-2.2-.7-4.8-2.3-5.7-3.4-2.4-2.9-17.7-4.1-56.7-4.7-30.4-.4-31-.4-32.2 1.6m66.9 15.5c11.2 1.2 13.1 1.6 15.8 4a12 12 0 0 0 4.4 2.6c.7 0 3.2 2.2 5.5 5 3.2 3.8 4.4 6.2 5.2 10.7.5 3.2 1.6 7.4 2.4 9.4 1 2.7 1.1 4.5.3 7.5l-2.4 10.4q-1.5 6.5-3.8 8.5a12 12 0 0 0-2.9 3.8c-.4 1-2 2.3-3.7 2.8-1.6.6-3 1.5-3 2 0 1.6-6 3.6-12.5 4.4-3.3.4-7.9 1.3-10.3 2.1-3 1-9.3 1.4-20.8 1.4h-16.6l-3.4-3.4-3.4-3.4v-31.9c0-40.2-1.8-37.1 22-37.2 8 0 20.2.5 27.2 1.3m293.1-14.4c-2.3.9-2.3 1.3-2.3 16.8 0 19.2-.1 19.4-11.1 20-8.2.5-9.9 2.1-9.9 9.3 0 4.4.2 4.8 3.1 5.8 1.8.6 5 1.1 7.1 1.1 3.2 0 4.7.7 7.4 3.4l3.4 3.4.1 40.8c0 24.2.5 45.8 1.2 52.9l1.3 12 5 6.4c4.8 6.3 5.3 6.6 14.4 9.8a54 54 0 0 0 23.5 3.6l14 .2v-16l-11-.5c-9.5-.4-11.9-.9-17.1-3.4-5.7-2.7-6.2-3.2-9-9.5l-2.9-6.6-.3-43.5c-.2-30.4.1-44.2.9-46.1 2.4-6 3.6-6.4 22.3-6.9l17.1-.5v-15l-17.5-.5c-9.6-.3-18.3-.9-19.3-1.4-3.2-1.5-3.7-4.3-3.7-19.5 0-13.8-.2-15.1-1.9-16.1a31 31 0 0 0-14.8 0m-154.1 36.7c-1.3.2-3.9 1.5-5.9 2.9s-4.8 2.4-6.2 2.4c-2.5 0-10 4.8-16.4 10.5a10 10 0 0 1-3.7 2.5c-.5 0-1.7 1.5-2.6 3.2a43 43 0 0 1-4.5 6.6c-1.6 1.8-2.9 3.9-2.9 4.7s-.9 2.4-2 3.5a23 23 0 0 0-3.5 9.1 54 54 0 0 1-3.2 10.2 90 90 0 0 0-.2 36.2c.9 1.6 2.5 6.5 3.4 10.9 1 4.4 2.6 8.7 3.6 9.7 1.1 1.1 1.9 2.5 1.9 3.2s1.3 2.8 2.9 4.7 3.6 5 4.5 6.7 2.1 3.3 2.6 3.3 2.5 1.5 4.4 3.2c6.8 6.3 10.2 8.6 14.6 9.8 2.5.6 5.5 2.2 6.8 3.3 2.3 2.1 3.2 2.2 22.7 2.2s20.5-.1 23.4-2.2c1.6-1.3 5.1-2.8 7.6-3.5 2.7-.7 5.2-2.2 6-3.5q1.5-2.1 2.9-2.3c.7 0 2.5-1.4 3.9-3 1.5-1.7 3.1-3 3.6-3s1.4-1.3 2.1-3c1.5-3.6 4.6-4.8 6.9-2.6 1.2 1.3 1.7 4.3 2.1 12.4l.5 10.7 9.4.3q9.2.3 10.7-.9c1.2-1 1.4-12.2 1.4-69.9 0-37.8-.3-70.8-.6-73.4l-.7-4.6h-19.4l-.7 3.1c-.3 1.7-.6 6.1-.6 9.8q0 11-5.1 11.1-1.9-.1-3.6-3.5c-.9-1.9-2-3.5-2.5-3.5s-2-1.4-3.5-3c-1.4-1.7-3.2-3-3.9-3-.8 0-2-1.1-2.9-2.3q-1.4-2.5-7-3.6c-2.9-.7-6.6-2.2-8.2-3.4-2.6-2-3.9-2.2-19.3-2.3-9.1-.1-17.5 0-18.8.3m36.6 18c1.5 1.1 4.5 2.3 6.7 2.7a21 21 0 0 1 7.5 3.7c7.6 6.2 12 10.4 12 11.5 0 .6 1.1 2.1 2.5 3.4s3 4.2 3.6 6.3c.6 2.2 2 5.3 3.2 6.9 2.1 2.8 2.2 4 2.2 21.8s-.1 19-2.2 21.8a25 25 0 0 0-3.3 7.1c-.6 2.3-2.2 5.2-3.6 6.3-1.3 1.2-2.4 2.7-2.4 3.4s-2.1 3-4.7 5.3l-7.6 6.6c-1.5 1.4-3.6 2.5-4.6 2.5s-4 1.2-6.7 2.7c-4.6 2.6-5.6 2.8-17.6 2.8-11.4 0-12.9-.2-15.6-2.2a19 19 0 0 0-6.7-2.9c-3.8-.7-6.1-2.4-14.3-10.6-7.4-7.4-10-11.1-10.7-15.3-.4-2.2-1.6-5.3-2.8-7-4.4-6.3-4.3-36.2.2-41.4 1-1.2 2.1-4 2.5-6.3.7-4.4 3.2-8 10.8-15.6 7.4-7.4 11.1-10 15.3-10.7 2.2-.4 4.8-1.4 5.7-2.2 2.8-2.5 7.7-3.2 18.1-2.9 7.9.2 10.3.7 12.5 2.3m267.9-18c-1.1.3-3.5 1.6-5.4 2.9s-4.4 2.4-5.5 2.4-2.9 1-4.1 2.3a44 44 0 0 1-4.9 3.9c-1.5 1-2.9 2.5-3.2 3.5-.8 2.4-9.3 6.4-10.5 4.9-.5-.6-1.1-4.3-1.3-8.1-.8-10.8-1.4-11.5-10.2-11.5-6.8 0-7.4.2-8 2.2-.3 1.3-.6 34.5-.6 73.9 0 64.5.2 71.7 1.6 72.3 2.5.9 12 .7 14.8-.4l2.6-1v-39.7c0-31.3.3-41.2 1.5-46.3a118 118 0 0 0 2-12.4c.5-4.3 1.3-6.4 2.9-8 1.3-1.1 2.6-3.1 3-4.4.8-2.5 7.5-9.2 9.3-9.2.6 0 2.6-1.2 4.3-2.6 2.7-2.3 4.5-2.8 13.3-3.6 5.6-.6 10.6-1.4 11.1-1.9a30 30 0 0 0 1.4-9c.4-7.1.2-8.4-1.4-9.6-1.7-1.2-8.9-1.6-12.7-.6m182.8 0c-1.1.3-3.1 1.3-4.5 2.3s-4.2 2.3-6.3 3c-3.9 1.2-6.2 3-11.9 8.7-2.5 2.6-4 3.3-7 3.3-4.1 0-4.2 0-5.2-9.4-.8-6.9-1.7-7.6-9.7-7.6-6.5 0-7 .2-7.9 2.6-.6 1.5-1 29.9-1 73.9 0 64.1.2 71.3 1.6 71.9 2.5.9 12 .7 14.8-.4l2.6-1v-40.3c0-31.8.3-41.4 1.4-45.3a82 82 0 0 0 2.1-12.3c.6-5.8 1.2-7.9 3-9.5a13 13 0 0 0 2.9-4.9c.4-1.6 1.7-3.8 3-5a54 54 0 0 1 13.2-9.7c.7 0 3.3-1 5.6-2.3 3.7-1.9 5.8-2.2 14.8-2.2 8 0 11.2.4 13 1.6a32 32 0 0 0 6.4 2.9c9.6 3.1 19.9 16.4 21.1 27.2.4 3.4 1.5 7.7 2.4 9.7 1.4 3.1 1.6 9.5 1.9 47.1.3 32 .6 43.7 1.5 44.2 1.4.9 11.3 1 14.5.2l2.2-.6v-40.6c0-36.9.2-41.2 1.9-47.6 1.1-3.9 2.2-9.7 2.6-12.9.4-3.6 1.4-6.6 2.5-7.7 1-1 2.7-3.9 3.9-6.4s2.4-4.6 2.9-4.6 2.9-1.6 5.2-3.5a22 22 0 0 1 6.9-4.1c1.4-.4 4.1-1.5 5.9-2.6a43 43 0 0 1 22.7-2 55 55 0 0 1 18.9 9c2 1.8 4 3.2 4.5 3.2s1.4 1.4 2.2 3.1c.7 1.8 2.3 4.5 3.7 6 1.8 2.2 2.6 4.9 3.4 10.7.5 4.2 1.6 9.6 2.4 12 1.1 3.5 1.4 12.2 1.4 45.7 0 39.9.1 41.5 1.9 42.5 2.3 1.2 13 1.3 14.9.2 1-.7 1.3-11.3 1.2-51.3 0-51.6-.4-59.5-3.4-62.8a16 16 0 0 1-2.7-5.7c-2.3-8-16.6-22.3-23.9-23.7-1.9-.4-4.5-1.7-5.8-3-2.3-2.1-3.1-2.2-21-2.2h-18.7l-3.9 2.7a14 14 0 0 1-6.1 2.8c-1.2 0-3.6 1.3-5.2 2.9s-3.6 3.2-4.4 3.7-2.8 2.5-4.4 4.5c-9 10.8-11.1 12.9-12.7 12.9-1 0-2.9-1.7-4.3-3.8-5-7.4-8.4-11.4-12.3-14.2a24 24 0 0 1-4.6-3.9c-.4-.6-2.6-1.5-4.9-2.1s-5.5-2.1-7.2-3.3c-2.8-2-4.3-2.2-19.5-2.4-9.1-.1-17.4.1-18.5.4m278.4.2c-1.4.5-3.7 1.6-5 2.4-1.3.9-4.7 2.1-7.5 2.7a16 16 0 0 0-7.5 3.6c-1.2 1.3-2.6 2.4-3.1 2.4-1.9 0-12.5 9.6-15 13.5-1.4 2.3-3.3 4.5-4.2 4.8a3 3 0 0 0-1.6 2.6c0 1.1-1.1 3.3-2.5 4.9s-3 5.4-3.5 8.3-2.1 7.9-3.3 10.9a73 73 0 0 0 0 36.5c1.1 2.7 2.6 7.7 3.3 11s2 6.9 2.9 8c1 1.1 2.4 3.5 3.1 5.2s1.6 3.3 2 3.3c.5 0 2.2 2.2 3.9 4.9s3.9 5.2 5 5.6q2 .6 2.1 1.6c0 .5 2.5 2.5 5.5 4.4s5.5 4 5.5 4.4 2.4 1.4 5.2 2.1c2.9.6 6.3 2.1 7.6 3.3 2.3 2.1 3 2.2 24.7 2.2 21.5 0 22.4-.1 25.3-2.2 1.7-1.3 5.2-2.7 7.8-3.3s6.2-2.3 8-3.8l7.9-6.2c5.9-4.5 7-5.6 10.8-10.9 6.8-9.4 10.7-16.8 10.7-20.1 0-1.1.7-3.7 1.6-5.8 3-7 3.5-9.7 3.5-22.3 0-9.2-.4-13.7-1.6-17a111 111 0 0 1-3.1-10.4c-.8-3.3-2.3-7.2-3.4-8.6-1-1.5-2.5-4.3-3.4-6.3s-2-3.6-2.5-3.6-2.2-2-3.7-4.5c-1.4-2.5-2.9-4.5-3.4-4.5a23 23 0 0 1-5.1-3.9 27 27 0 0 0-6.7-4.5 7 7 0 0 1-3.2-2.6c-.6-1.1-2.6-2.1-5.2-2.5-2.4-.4-6.3-1.9-8.8-3.3-4.4-2.6-5-2.7-22.5-2.9-9.9-.1-19.2.2-20.6.6m33.7 17.8c1.6 1.2 4.6 2.4 6.8 2.8a13 13 0 0 1 6.3 3.1c1.3 1.3 2.8 2.4 3.4 2.4 1.3 0 9.9 8.7 9.9 10 0 .5 1.2 2 2.6 3.3a15 15 0 0 1 3.5 6.6 22 22 0 0 0 3.2 7.3c2.1 2.8 2.2 3.9 2.2 20.8s-.1 18-2.2 20.8c-1.3 1.7-2.7 5-3.2 7.4a12 12 0 0 1-3.5 6.3c-1.5 1.2-2.6 2.6-2.6 3.2a29 29 0 0 1-8.8 9.3c-.5 0-2.3 1.3-4 2.9a16 16 0 0 1-6.9 3.7c-2.1.4-5.1 1.7-6.6 2.8-2.6 1.9-4.2 2.1-15.6 2.1-10.6 0-13.1-.3-15.5-1.8-1.5-1-5-2.5-7.7-3.3s-5.3-2.3-5.9-3.4-1.7-2-2.4-2c-1.5 0-9.6-8.4-9.6-9.9 0-.6-1.1-2.1-2.4-3.4a13 13 0 0 1-3.1-6.3c-.4-2.2-1.7-5.3-2.8-6.9-2.1-2.8-2.2-4.2-2.2-21 0-16 .2-18.4 1.9-21 1-1.5 2.5-5.1 3.2-7.9.7-2.7 2-5.4 2.9-5.8.8-.5 2.2-2.3 3.1-3.9 1.6-3.2 8.2-9.9 9.7-9.9.6 0 2-1.1 3.2-2.4 1.3-1.4 4-2.8 6.1-3.1 2.2-.4 5-1.5 6.4-2.4 3.7-2.4 7.5-3 18.1-2.7 7.8.2 10.1.7 12.5 2.3m158.4-18c-1.3.3-3.5 1.4-4.8 2.4-1.4 1-4.2 2.4-6.3 2.9-2.5.7-6 3.1-9.6 6.5-4.5 4.4-6.3 5.5-8.9 5.5q-5.5.1-5.4-6.7c0-1.5-.5-4.5-1.1-6.6l-1-3.8-7.7.3c-7.2.3-7.7.4-8.3 2.8-.4 1.4-.7 34.5-.8 73.6l-.1 71.2 2.3.6c3.4.9 11.3.7 14.1-.4l2.6-1v-40.3c0-32.1.3-41.3 1.4-45.3a81 81 0 0 0 2.2-12.3c.5-5.8 1.2-7.9 2.9-9.5 1.2-1.2 2.7-3.8 3.4-5.8q1.1-3.7 6.3-7.5c6.8-5 6.3-4.8 13.8-8 5.8-2.5 7.6-2.8 17-2.7 9.9 0 10.9.2 18.2 3.7 4.2 1.9 8 4.2 8.5 4.9s2 2.1 3.6 3.1c1.5 1 2.7 2.2 2.7 2.8s1.3 2.6 3 4.5 3.2 5.1 3.6 7.1c.4 2.1 1.3 4.7 2 5.8 2.6 4 3.4 16.6 3.4 58.2v42.3l2.6.6c2.9.7 14.6 0 16.3-1 1.8-1.1 1.5-84.9-.3-90.1-.8-2.2-1.9-8.9-2.5-15-1-9.6-1.4-11.2-3.6-13.3-1.4-1.2-2.5-2.9-2.5-3.6s-1.6-3.3-3.5-5.6a18 18 0 0 1-3.5-5.5c0-.8-2-2.3-4.4-3.3a16 16 0 0 1-5-3.1c-.4-.6-4.2-2.7-8.4-4.7l-7.7-3.7-16-.3c-8.8-.1-17.1 0-18.5.3m244.7 0a10 10 0 0 0-4.8 2.4 12 12 0 0 1-5.8 2.5c-4.2.7-15.1 7.9-21.7 14.4a67 67 0 0 0-9.4 13.6c0 .6-.9 1.9-1.9 2.8a21 21 0 0 0-3.6 8.8c-.9 3.9-2.3 8.7-3.2 10.7a86 86 0 0 0-.8 34.1c.9 3 2.5 9 3.5 13.2 1.1 4.3 2.9 8.7 4 9.8s2 2.7 2 3.5 1.4 3 3 4.9a24 24 0 0 1 4.1 6.5c.6 1.7 1.7 3.1 2.3 3.1.7 0 2.5 1.3 3.9 3 1.5 1.6 3.1 3 3.6 3s2.8 1.6 5.1 3.5 5.2 3.5 6.5 3.5 4 1.2 6.1 2.7l3.9 2.8h20.2c19.3 0 20.3-.1 23.2-2.2 1.6-1.3 5.1-2.8 7.6-3.5 2.7-.7 5.2-2.2 6-3.5q1.5-2.1 2.6-2.3c1.4 0 9-7.7 10.4-10.5a5 5 0 0 1 3.1-2.3c3.7-.5 4.9 2.4 5.4 13.7l.5 10.6h20v-148l-9.4-.3c-6.9-.2-9.7.1-10.3 1-.4.7-.8 5.1-.8 9.8 0 6.2-.4 9.2-1.6 10.8-1.9 2.8-5.4 2.6-6.9-.3a41 41 0 0 0-10.2-10.5c-.5 0-2-1.1-3.2-2.4-1.3-1.4-4.5-3-7.2-3.6a27 27 0 0 1-7.6-3.3c-2.5-2-4-2.2-19.3-2.3a219 219 0 0 0-19.3.3m37 18.1c1.5 1.1 4.5 2.3 6.7 2.7a13 13 0 0 1 6.3 3.1c1.3 1.3 2.8 2.4 3.3 2.4a37 37 0 0 1 10 10.1c0 .6 1 1.9 2.3 2.9s2.9 3.8 3.6 6.1 2.2 5.5 3.4 7.1c2.1 2.8 2.2 4.1 2.2 21.8 0 17.5-.1 19-2.1 21.7a29 29 0 0 0-3.4 6.8c-2.8 8.6-17.6 23.4-25 25a19 19 0 0 0-6.3 2.9c-2.6 1.9-4.2 2.1-15.7 2.1s-13.1-.2-15.7-2.1a20 20 0 0 0-6.6-2.8c-2.1-.4-5.2-1.9-6.8-3.4-9-7.9-12.9-11.7-12.9-12.7 0-.6-1.1-2.2-2.5-3.5a15 15 0 0 1-3.5-7.6c-.6-3-1.5-5.4-1.9-5.4-1.8 0-3.2-5.8-3.7-15.3-.7-12.3.7-23.5 3.4-27.4 1.1-1.5 2.3-4.4 2.6-6.4s1.7-4.6 3.1-5.9 2.5-2.9 2.5-3.5 2.4-3.2 5.3-5.8l7.4-6.8c1.2-1.1 4.4-2.6 7.3-3.4s5.8-1.9 6.6-2.6c2.6-2.1 7.7-2.8 17.6-2.5 7.6.3 10.2.8 12.5 2.4m-878.1-15.6c-.3 1.3-.6 34.6-.6 74v71.8l2.5.6c2.8.7 14.1.1 15-.8 1.1-1.1.6-143.7-.5-145.8-.9-1.7-2.1-2-8.4-2-6.8 0-7.4.2-8 2.2m726.7-1c-.4.7-.9 33.7-1.1 73.3-.3 82-1.2 74.5 9.1 74.5 10.8 0 9.7 8.1 9.6-72.8-.1-38.9-.4-71.8-.8-73.2-.6-2.4-1.1-2.5-8.3-2.8-5.4-.2-7.9.1-8.5 1"/><path d="M631.5 973.1c-20.2.5-25.1 1-31 2.7-3.8 1.2-12 2.6-18.2 3.2-6.6.6-12.9 1.8-15.5 2.9a56 56 0 0 1-12.7 3.1c-4.7.6-9.7 1.8-11.2 2.6-1.6.8-6.3 2.3-10.6 3.4a215 215 0 0 0-29.8 10c-2.2 1-5.3 2.2-7 2.6-1.6.4-5 1.7-7.5 2.9a81 81 0 0 1-8.5 3.5c-2.2.7-5 2.1-6.2 3s-4.3 2.3-6.8 3-4.5 1.7-4.5 2.2-2.1 1.8-4.6 2.9c-2.6 1-6 3.1-7.6 4.4s-3.5 2.5-4.2 2.5-2.1.9-3.1 2-3.7 3-5.9 4a68 68 0 0 0-12.8 8.4c-1 .8-3.4 2.6-5.5 4l-6.3 4.5a11 11 0 0 1-3.4 2.1c-.5 0-1.9 1-3.1 2.2s-6.4 5.4-11.5 9.3c-9 6.9-49 45.7-49 47.6 0 .5-1.1 1.5-2.5 2.1s-2.5 1.6-2.5 2.1-1.5 2.6-3.2 4.7a73 73 0 0 0-10.9 14.4c-.7 1.4-1.6 2.6-2 2.6-.5 0-1.6 1.5-2.5 3.2s-3 4.9-4.5 6.8c-1.6 1.9-2.9 3.9-2.9 4.6s-1.1 2.1-2.5 3.4-2.5 2.9-2.5 3.5-1.6 3.4-3.5 6.1a25 25 0 0 0-3.5 6c0 .6-.7 1.8-1.7 2.5-.9.8-2.5 3.4-3.6 5.9a30 30 0 0 1-3.7 6.5c-.9 1.1-2.3 3.6-3 5.5s-2.1 4.4-3.1 5.5-2.2 3.9-2.8 6.1c-.6 2.3-1.9 5.2-2.9 6.5a23 23 0 0 0-3.1 7.4 49 49 0 0 1-3.1 8.5c-1 1.9-2.6 6.2-3.5 9.5s-2.2 6.9-2.9 8a46 46 0 0 0-3.1 9 66 66 0 0 1-3.2 9.8c-.8 1.6-2.1 6.3-2.9 10.5s-2.3 10.2-3.4 13.2c-1 3-2.4 10-3 15.4a83 83 0 0 1-2.2 12.5c-2.1 5.6-2.9 13.6-3.8 38-1.2 33.2.2 71.5 2.9 82.1 1.1 4.1 2.6 12.6 3.5 18.7.8 6.2 2.2 12.5 2.9 14 .8 1.6 2.2 6.8 3.1 11.8 1.8 8.9 4.2 15.1 6.8 17.3 1.2.9 2.3.2 5.9-3.6 2.4-2.6 5.2-6.2 6.2-7.9 1.6-3 1.6-3.5.2-5.6a44 44 0 0 1-3-10.3c-.9-4.3-2.2-9.5-3-11.5-.8-2.1-2.1-9-3-15.5a283 283 0 0 0-3.3-20.4c-1.4-7.1-1.7-14.3-1.7-45a400 400 0 0 1 1.3-42.5c.6-3.3 2.1-12.5 3.2-20.5s2.7-16.1 3.5-18 2.1-7.2 2.9-11.6c.8-4.5 2.4-9.9 3.5-12a39 39 0 0 0 2.6-8.4c.4-2.5 1.7-6.3 3-8.5 1.2-2.2 2.6-5.6 3-7.5s1.8-5.4 3.1-7.7 2.4-4.8 2.4-5.6 1.1-3.6 2.5-6.3 3-6.5 3.6-8.4a306 306 0 0 1 30.9-54.2c1.1-2.1 2.9-4.2 4-4.8a6 6 0 0 0 2.6-3.6c.3-1.3 1.4-3 2.4-3.7.9-.6 2.3-2.3 3-3.7 1.4-2.7 11.8-16 15.7-20 19.8-20.7 24.1-25 25-25 .5 0 1.5-1.1 2.1-2.5s1.6-2.5 2.1-2.5 3.6-2.6 6.9-5.8a207 207 0 0 1 25.5-20c1.5-.6 2.7-1.6 2.7-2.2 0-.5 1.5-1.7 3.3-2.6s4.8-3 6.7-4.5c1.9-1.6 3.9-2.9 4.6-2.9s2.1-1.1 3.4-2.5 2.8-2.5 3.3-2.5a21 21 0 0 0 5-2.9c6.3-4.3 10.6-6.8 16.4-9.5a22 22 0 0 0 5.7-3.5c.4-.5 3-1.7 5.9-2.7 2.8-.9 5.9-2.3 6.7-3 .9-.7 3.6-2 6-2.9s6.7-2.6 9.5-4 6.7-2.7 8.7-3.1c2.1-.3 4.3-1.2 4.9-2s3.7-2.1 6.8-3 7-2.5 8.7-3.5 5.5-2.4 8.5-3 7-2 9-2.9c1.9-1 6.4-2.3 10-3 3.5-.6 8.9-1.9 11.9-3 3-1 10.1-2.6 15.7-3.5 5.7-.8 11.4-2 12.8-2.5 11.2-4.3 76.8-5.8 109.4-2.6 9.6.9 17.8 1.9 18.1 2.1s7.2 1.6 15.1 2.9c7.9 1.4 16 3.1 17.9 3.9s6.9 2 11 2.7 9.1 2 11 3 5.9 2.3 8.9 2.9 6.8 2 8.5 3 5.5 2.4 8.3 3.1c2.9.6 6.3 2 7.7 3.1 1.3 1 4.5 2.3 7.2 2.9s6 1.9 7.4 2.9 4.3 2.4 6.5 3.1 5 1.8 6.1 2.6l12 6.4c5.5 2.9 10.6 5.8 11.4 6.5s3.3 2.2 5.5 3.4q10.5 5.6 27.1 20.6c1.8 1.6 5.2 4.3 7.4 6 8.2 5.9 22.1 18.8 28.7 26.4a119 119 0 0 1 13.3 16.6c0 .4 1.2 2 2.8 3.5 4.3 4.6 12.7 15.6 16.7 22.2a328 328 0 0 1 28.7 57.6c.6 2.6 2 5.8 3 7.3 1 1.4 2.5 5.3 3.3 8.7.8 3.5 2.1 7.3 3 8.5s1.9 4.7 2.6 7.7c.6 3 2.1 8.9 3.4 13s3.1 11.5 3.9 16.5l3 16.5a649 649 0 0 1 5.3 84.5c-.9 29.3-4.5 69.6-6.6 74.6-.6 1.3-1.7 7.5-2.6 13.7a71 71 0 0 1-2.9 14.1c-.8 1.5-2.2 6.5-3 11.1a45 45 0 0 1-3.3 10.9c-.9 1.4-2.2 5.4-3 9s-2.2 7.8-3.2 9.5-2.4 5.3-3 8.1-2.1 6.3-3.1 8c-1 1.6-2.1 4.6-2.5 6.5a30 30 0 0 1-3 7.5 56 56 0 0 0-3.5 8 22 22 0 0 1-2.2 5.1l-3.9 7a94 94 0 0 1-9.9 16.9c-.9 1.1-2.3 3.1-3 4.5a11 11 0 0 1-3.2 3.8c-1 .7-1.8 1.9-1.8 2.7 0 .7-1.3 2.8-2.9 4.7a254 254 0 0 1-27 28.5 185 185 0 0 1-12 9.8 83 83 0 0 0-7.4 5.7 12 12 0 0 1-3.7 2.8c-.4 0-2.5 1.4-4.6 3.1a31 31 0 0 1-6.6 4.1q-2.6 1-2.8 1.8c0 .7-7 4.3-23.2 11.9a60 60 0 0 1-11.5 4.1c-2.6.6-8.4 2.4-12.8 3.9l-8 2.7.2 3.6c.2 3.2 2.7 8.3 8.9 17.8 1.3 1.9 3 5.2 3.8 7.2.9 2 2 3.9 2.6 4.3s1.7 2.2 2.5 4.2c.8 1.9 2.6 4.8 4 6.5 1.4 1.6 2.5 3.5 2.5 4.2s1.3 3 3 5.1 3.2 4.6 3.6 5.8 1.7 3.5 3 5c1.3 1.6 2.4 3.3 2.4 3.8a30 30 0 0 0 3.5 6c1.9 2.8 3.5 5.7 3.5 6.4s.7 1.9 1.7 2.6 2.5 3.3 3.5 5.7c1.1 2.4 3 5.9 4.3 7.8s2.6 4.8 3 6.4 1 3 1.5 3c.8 0 4.5 6.1 9.4 15.5a30 30 0 0 0 3.7 5.6c.9.9 2.3 3.3 3 5.3s1.7 3.6 2.1 3.6 1.7 1.9 2.9 4.2 3.2 5.6 4.4 7.3c1.3 1.6 2.6 4.1 3 5.5s1.6 3.4 2.6 4.5 2.5 3.7 3.3 5.7c.9 2 2.1 4 2.7 4.3.6.4 1.9 2.6 3 4.9 1.1 2.2 3.5 6.8 5.4 10.1s4.6 8.5 6.1 11.5a24 24 0 0 0 3.9 6.3c.7.4 2.1 2.7 3.1 5.2s2.1 4.5 2.5 4.5c.5 0 2 2.2 3.4 4.9s3 5.3 3.6 5.6c.6.4 1.9 2.6 3 4.9 1.1 2.2 3.5 6.6 5.4 9.6s4.6 7.9 6.1 10.7c1.4 2.9 3 5.5 3.5 5.9.6.3 1.9 2.5 3 4.8s3.5 6.8 5.4 10.1 4.7 8.3 6 11.1c1.4 2.8 3.4 5.9 4.5 6.9s2 2.4 2 3.1a19 19 0 0 0 3.5 5.4c1.9 2.3 3.5 4.5 3.5 5 0 1.6 14.4 15.3 17.4 16.5 6.5 2.7 68.7 6.7 76.8 5 3.1-.7 3.2-.8 1-1.6a6 6 0 0 1-3.1-3.2 8 8 0 0 0-4.1-3.7c-1.7-.7-3.6-2-4.3-3s-2.1-2.2-3.2-2.8c-3-1.5-10.5-8.7-10.5-10 0-.6-.8-1.7-1.8-2.4-2-1.4-6.4-7.6-9.9-13.9a41 41 0 0 0-3.5-5.6c-1.3-1.5-4-6.4-9.3-17-1.4-2.9-3-5.5-3.5-5.8s-1.8-2.5-2.8-4.8a18 18 0 0 0-3.5-5.5c-.9-.8-2.1-2.9-2.7-4.8s-1.6-3.4-2.1-3.4-2-2.2-3.4-4.9-3-5.3-3.6-5.6c-.6-.4-1.9-2.6-3-4.9-1.1-2.2-3.5-6.6-5.4-9.6-3.4-5.6-8.3-14.1-12-20.9l-4.1-6.7a37 37 0 0 1-3.3-6.2c-.8-1.7-1.7-3.2-2.1-3.2s-1.7-2.1-2.9-4.8a60 60 0 0 0-4.4-7.8c-2.5-3.6-5.4-8.3-7.9-12.8l-3.3-5.1a1316.6 1316.6 0 0 1-16.7-28.1c-1-1.6-2.9-5.3-4.4-8.1a21 21 0 0 0-3.5-5.8c-.5-.4-1.8-2.8-3-5.5a22 22 0 0 0-4-6.6c-1-.9-1.9-2.3-1.9-2.9s-1.3-2.9-3-5c-1.6-2-3.2-4.6-3.6-5.8s-1.7-3.5-3-5c-1.3-1.6-2.4-3.4-2.4-4.1s-1.3-3-3-5.1-3.2-4.6-3.6-5.8-1.4-3-2.3-4c-1.9-2.3-6.2-9.4-9.6-16.4a26 26 0 0 0-4-6.3c-.8-.7-1.5-1.8-1.5-2.5s-1.1-2.8-2.4-4.7a23 23 0 0 1-3-7.1c-.6-3-.3-3.8 1.6-5.1 1.3-.9 4.1-2.1 6.3-2.7s5.2-2 6.6-3c1.5-1 3.1-1.9 3.5-1.9a273 273 0 0 0 44.5-25c2.1-1.1 3.9-2.4 3.9-2.9q.2-.8 1.9-1.7a311 311 0 0 0 42.1-43.7 158 158 0 0 0 10.6-15.4 18 18 0 0 1 3.2-4.2 20 20 0 0 0 3.1-4.6 87 87 0 0 1 8.8-14.4c.5-.3 2-3.2 3.2-6.4 1.3-3.1 2.7-5.7 3.1-5.7s1.3-2.1 2-4.8a51 51 0 0 1 2.8-7.7c1.5-2.9 5.8-14.4 8.7-23l3.5-10.5c1.2-3.6 3-10.4 4-15.2a95 95 0 0 1 3.5-12.4c.8-2 2.2-9.2 3-15.9s2.2-14.5 3-17.2c4.4-14.9 4.4-103.8 0-118.7-.9-2.8-2.2-10.9-3-17.9-.9-7.1-2.2-14.4-3-16.4s-2.2-7.6-3-12.6c-.9-5-2.3-10.7-3.1-12.6s-2.3-7-3.3-11.2-2.5-8.9-3.3-10.5a58 58 0 0 1-3.3-10.2c-.9-4-2.1-7.4-2.5-7.7-.5-.3-1.6-2.9-2.5-5.8-1.6-4.9-6.6-16.4-8.6-19.7-.5-.8-2.3-4.3-3.9-7.7a29 29 0 0 0-4-6.8c-.6-.3-1.7-2.3-2.6-4.3-.8-2-2.3-4.6-3.3-5.7s-2.3-3.4-3-5.2-2-3.8-2.8-4.4-2.3-2.9-3.4-4.8c-1.1-2-4-6.3-6.4-9.6a82 82 0 0 1-5.8-8.5c-.6-1.3-2.1-3.4-3.2-4.6s-3.6-4.3-5.5-6.9c-5-6.9-13.5-16-29.6-32.1a293 293 0 0 0-30.9-28.4c-.4 0-2.2-1.2-4-2.8s-4.8-3.7-6.7-5l-8.3-5.7-8.5-6a89 89 0 0 0-7.3-4.5c-2.1-1.1-4.7-3-5.7-4-1.1-1.1-2.6-2-3.4-2s-3-1.4-5.1-3-4.4-3-5.1-3-2.5-1-4.1-2.3a31 31 0 0 0-7.3-4.1c-2.5-1-5.2-2.3-6-3.1-.8-.7-3.3-1.8-5.5-2.5a42 42 0 0 1-7.1-3c-1.7-1-5.8-2.6-9-3.5s-7-2.3-8.4-3.1-5.4-2.3-9-3.3c-3.6-1.1-9-2.8-12-3.9a196 196 0 0 0-27.3-8.3c-4.8-1-9.9-2.5-11.5-3.3s-7-1.9-12.2-2.6a77 77 0 0 1-14-3.1c-2.6-1-10.7-2.5-18.7-3.3-7.9-.9-16-2.3-18-3.1-5.6-2.4-44.4-3.5-82.8-2.4m-135.4 134.8c-1.9.3-3.7 1.2-3.9 2-.4 1.2 1.3 1.3 10.4.7 6-.4 12-1 13.4-1.3 2.3-.6 2.3-.7.5-1.4-2.3-.9-15.5-.9-20.4 0m59 0c-1.6 1-.4 1.3 12.9 3 5.3.7 7.8 1.5 9 2.9.8 1.1 3.2 2.3 5.2 2.6 2.1.4 5 1.7 6.5 3a17 17 0 0 0 5.6 3c1.6.4 4 1.8 5.3 3.2 1.4 1.3 4.1 3.1 6 3.9 1.8.8 3.4 1.8 3.4 2.4s1.4 1.6 3.1 2.5 4.8 3 7 4.8c4.9 4.3 23.4 22.6 27.6 27.5a60 60 0 0 1 10.3 13.6c0 .6 1 2.1 2.2 3.4a65 65 0 0 1 8.9 14.3c1.2 2.5 2.9 5.4 3.9 6.5s2.3 3.9 3 6.3c.6 2.4 1.9 5.1 3 6.2 1 1 2.3 4.3 3 7.3.6 3.1 1.7 6.1 2.5 6.7q2.6 2.3 4 12.5c1.3 9.7 2.6 1.8 3.6-22.3.5-13 1.6-28 2.4-33.2 2.1-13.5 3.9-59.8 2.5-63.5q-1-2.7-1.8-1.9c-.4.6-3.8 2.6-7.7 4.5-6.9 3.4-7.2 3.4-20 3.3a58 58 0 0 1-19.5-2.1 97 97 0 0 0-14.9-3.2c-4.8-.6-9.1-1.7-10.1-2.6-.9-.8-5.2-2.2-9.4-3s-9-2.4-10.5-3.4c-1.5-1.1-6-2.4-10.6-3.1-4.4-.6-9.8-2.1-12-3.2-4.5-2.3-21.9-3.7-24.4-1.9m-75.6 5.3c-3.3.5-6.9 1.8-8 2.8a25 25 0 0 1-7.6 3.4c-3.1.9-6.2 2.2-6.8 3a20 20 0 0 1-5.6 3.1c-2.5.9-4.5 2-4.5 2.5s-2.1 1.8-4.6 3c-5.3 2.6-5.3 2.7-19.6 16.3a76 76 0 0 0-10.8 11.5c0 .6-1.1 1.9-2.5 2.8s-2.5 2.2-2.5 2.9-1.4 3.1-3 5.4a42 42 0 0 0-4.6 8.1c-.9 2.2-2 4-2.4 4-.9 0-2.6 4.3-3.5 8.7a17 17 0 0 1-2.6 5.8q-2 2.5-3.4 11.8c-.7 5-2.1 11.2-3.1 13.7-1.6 3.9-1.9 7.3-1.9 25 0 18.6.2 21 2.1 26 1.2 3 2.5 8.7 2.9 12.5.4 4.5 1.7 9.2 3.6 13.1a29 29 0 0 1 2.9 8.5c0 1.3 1.4 4.4 3 6.8s3 5.2 3 6.2 1.1 3.1 2.5 4.7 3.1 4.5 3.7 6.4a18 18 0 0 0 3 5.3c2.8 2.9 6.5 8.4 8.7 13 1.1 2.2 2.9 4.6 4 5.3q2 1.2 2.1 2.3c0 .7 1.5 2.9 3.3 5l6.7 8.4c1.9 2.6 4.7 5.9 6.3 7.3 1.5 1.5 2.7 3.2 2.7 3.9s1.4 2.1 3 3.3 3 2.6 3 3.1 3.9 4.9 8.8 9.8l10.4 10.7c2.5 2.8 3.1 3.4 17.1 16.9 5.4 5.2 10.2 9.5 10.6 9.5s1.3 1.1 1.9 2.5 1.7 2.5 2.3 2.5 3.7 2.6 7 5.7a313 313 0 0 0 18.9 16.9c5.6 4.8 7.7 6.6 13.6 11.9l6.8 5.9 6.9 6.2c2 1.9 4.1 3.4 4.6 3.4q1 .2 1.6 2c.3 1.1 1.2 2 1.9 2a15 15 0 0 1 4.7 3.2 629.7 629.7 0 0 1 43.1 39.6l3 3 3 3 3 3 3 3 2.9 2.9c1.8 1.7 21.1 21.9 23.3 24.3 7.1 7.8 14.5 16.8 15.6 19 .7 1.3 2.4 3.3 3.7 4.3 1.2 1 2.3 2.5 2.3 3.2s1.1 2.2 2.5 3.1 2.5 2.2 2.5 2.8c0 .7 1.4 2.8 3.1 4.7a29 29 0 0 1 4.4 6.6c.8 1.8 1.9 3.3 2.5 3.3s1.8 1.7 2.7 3.7c.8 2.1 2.4 4.4 3.4 5.1s2.4 3.1 3.1 5.3c.6 2.3 1.8 4.3 2.6 4.6.7.3 2.4 2.9 3.6 5.7a27 27 0 0 0 3.9 6.5c1 .7 1.7 2.1 1.7 3.1s1.3 3.6 2.9 6.1a41 41 0 0 1 4.1 9.1c.7 2.7 1.6 4.8 2 4.8 1 0 2.7 4.4 4 10.5.6 2.7 1.8 5.7 2.7 6.7.8.9 2.1 5.9 2.9 11.4.8 5.3 2.1 10.9 2.9 12.5q3.5 6.7 3.5 44.4c0 26.9-1.2 42.8-3.9 50.5-1 3-2.2 9.1-2.5 13.5a42 42 0 0 1-3.1 13 41 41 0 0 0-3 10c-.4 2.7-1.8 6.8-3 9a29 29 0 0 0-3 7.8c-.4 2.1-1.8 5.3-3.1 7.3a22 22 0 0 0-3 6.2c-.4 1.5-2 4.5-3.5 6.6a16 16 0 0 0-2.9 5.7c0 .9-.7 2.2-1.6 3-.8.7-2.6 3.3-3.9 5.8a19 19 0 0 1-4.4 5.9c-1.2.7-2.1 1.9-2.1 2.7s-1.1 2.7-2.5 4.2l-9.4 10.8a217 217 0 0 1-22.1 21.9 30 30 0 0 1-5 3.6 9 9 0 0 0-3.3 2.6c-.4.8-2.2 2.1-4 3s-3.5 2.2-4 3-2.8 2-5.5 3c-2.6 1-5.3 2.6-6 3.6s-3.2 2.3-5.5 2.9-5.2 2.1-6.4 3.2c-1.1 1-3.9 2.3-6.1 2.8-2.3.5-5.7 2-7.6 3.3a25 25 0 0 1-9.2 3.1 23 23 0 0 0-8.5 2.7q-2.5 2-11.5 3c-4.9.5-11.1 1.8-13.7 2.9-6.3 2.6-23.6 3.8-54.2 3.8-31 0-47.5-1.1-54-3.7a56 56 0 0 0-12.5-2.7c-4.6-.4-9.4-1.6-12.5-3a48 48 0 0 0-10.9-3.5c-3.3-.5-6.9-1.9-8-2.9a16 16 0 0 0-6.3-2.6c-2.4-.4-5.8-1.7-7.7-3s-5.2-2.8-7.2-3.4-4.6-1.9-5.8-2.9a20 20 0 0 0-5.8-3.2 11 11 0 0 1-5.1-3c-.7-1-2.5-2.2-4-2.5-1.4-.4-3.8-1.8-5.2-3.1a29 29 0 0 0-5.5-3.9c-1.6-.8-3.4-2.4-4-3.5s-1.7-2-2.4-2-2.7-1.2-4.4-2.8l-9.8-8.7c-3.7-3.3-9.8-9.6-13.5-14-3.8-4.4-7.9-9.1-9.3-10.5a14 14 0 0 1-3-4.7c-.4-1.1-1.3-2.4-2-2.6-.8-.3-2.6-2.8-4.2-5.6-1.5-2.8-3-5.1-3.4-5.1s-1.3-1.5-2.1-3.3c-.7-1.7-2.3-4.5-3.5-6a21 21 0 0 1-3.3-6.1 14 14 0 0 0-2.9-5.4 13 13 0 0 1-2.8-5.9 21 21 0 0 0-3-7.3 29 29 0 0 1-3.3-8.2c-.6-2.5-2-6.1-3-8a35 35 0 0 1-3.1-10.1c-.6-3.7-1.9-8.5-3.1-10.6a46 46 0 0 1-3-15.7 86 86 0 0 0-2.7-16.9c-2.5-7.5-2.5-58.6 0-66 1-2.8 2.2-10.2 2.8-16.5.8-8.1 1.7-12.4 3-14.8 1.1-1.8 2.5-6.6 3.1-10.5a29 29 0 0 1 3-9.9 28 28 0 0 0 3-8c.6-2.9 2-6.6 3.1-8.1 1-1.5 2.6-5 3.4-7.6.8-2.7 2.1-5.4 2.9-6.1s1.9-2.8 2.6-4.8 2.2-4.9 3.5-6.4 2.8-4.3 3.4-6.3c.6-1.9 2-4 3-4.5s2.1-2.3 2.5-3.9a9 9 0 0 1 2.7-4.7c1.1-1.1 2.7-3.2 3.5-4.9.9-1.6 2.4-3.9 3.4-5l5.4-5.8c1.9-2.1 3.5-4.2 3.5-4.7a214 214 0 0 1 30-29c0-.5 1.5-1.7 3.3-2.6s3.6-2.3 4-3 2.2-2.1 3.9-3 4.3-2.7 5.7-4 3.3-2.4 4.2-2.4 3-1.3 4.6-2.9c1.7-1.6 4.5-3.2 6.2-3.6s4.2-1.7 5.5-3c1.2-1.2 4.2-2.6 6.5-3s4.5-1.3 4.7-2c.6-1.5 4.2-3 9.4-4.1a17 17 0 0 0 6-2.5c1.4-1.1 5.8-2.5 9.8-3.3s8.2-2.2 9.2-3.1c1.4-1.3 5.4-2 16-3 7.7-.7 14.3-1.5 14.6-1.8 1.1-1.1-14.8-1.9-23.4-1.2-4.8.3-11.5 1.5-14.8 2.5s-11.5 2.4-17.9 3c-7.5.7-13.3 1.8-16 3a55 55 0 0 1-12.2 3.1 31 31 0 0 0-10.6 3 26 26 0 0 1-8.5 3.1c-3.1.6-7.5 2.1-9.7 3.4a34 34 0 0 1-7.5 2.9c-1.9.4-5.1 1.7-7 3a30 30 0 0 1-7.5 3.5c-2.2.7-4.6 2.1-5.3 3.1-.6.9-2.5 2-4.1 2.4-1.7.3-4.7 2-6.7 3.6s-4.2 2.9-4.9 2.9-2.6 1.3-4.3 3c-1.8 1.6-3.6 3-4.1 3-.9 0-6 3.9-12.6 9.5-5.9 5-24.5 23.5-24.5 24.3 0 .5-1.3 2.1-3 3.5-1.6 1.5-3 3.3-3 4s-1.6 3.1-3.5 5.3a17 17 0 0 0-3.5 5c0 .6-1.1 2.1-2.4 3.4a11 11 0 0 0-3.1 5.1c-.4 1.6-1.7 4.2-2.9 5.7a21 21 0 0 0-3.5 6.4c-.7 2-2 4.7-3.1 6-1 1.3-2.3 4.4-3 6.8-.6 2.5-2 5.7-3 7.2a27 27 0 0 0-3 9.5c-.6 3.7-2 8.3-3.1 10.1a56 56 0 0 0-3.4 17 131 131 0 0 1-3.2 19.2c-2.5 8-2.6 54-.1 61.5 1.9 5.8 2.5 9.2 3.7 23 .6 7 1.5 11.1 2.9 13.5a39 39 0 0 1 3.1 10.9c.7 4.3 2 8.4 3.1 9.8 1 1.3 2.4 4.8 3 7.8a23 23 0 0 0 2.9 7.7c1 1.3 2.6 4.7 3.5 7.5 1 2.9 2.2 5.5 2.7 5.9a22 22 0 0 1 3.5 5.7 82 82 0 0 0 9.6 16.6c1.6 1.8 2.8 3.9 2.8 4.7s1.1 2.4 2.5 3.6 2.5 2.7 2.5 3.5 1.4 2.7 3 4.5c5.9 6.3 11 12.9 11 14.2 0 .7 1.1 1.8 2.5 2.4s2.5 1.6 2.5 2.1c0 1.7 17.3 18.2 27.5 26.1 2.8 2.1 6 4.8 7.3 5.9a24 24 0 0 0 5.2 3.6c1.7.9 3 2 3 2.6 0 .5 1.9 1.8 4.3 2.8 2.3 1 4.9 2.6 5.6 3.5.8 1 3 2.4 4.9 3.2s4 2 4.6 2.8a21 21 0 0 0 5.9 3.2c2.7.9 5.1 2.3 5.4 3.1.3.7 2.4 1.8 4.7 2.4 2.2.6 5.7 2.1 7.6 3.4s5.1 2.6 7 3 5.1 1.7 7 3 6.1 2.8 9.2 3.5c3.2.6 6.4 1.7 7 2.4 1.9 1.8 4.6 2.7 11.1 3.6 3.2.5 7.6 1.8 9.8 2.9 2.4 1.3 7.6 2.5 13.1 3.1 5 .6 11.2 2 13.7 3.1 5.1 2.2 19.3 3.4 54.6 4.5 26.3.8 68.2-1.7 74.5-4.5a63 63 0 0 1 13.8-3q9.2-1 12.6-3c1.7-1.1 6.4-2.6 10.4-3.2s8.2-2 9.3-3a21 21 0 0 1 7.4-2.9c3-.6 6.5-2 7.9-3.1s4.9-2.7 7.8-3.5a25 25 0 0 0 7.3-3.4c1.1-1 3.9-2.4 6.3-3.1 2.3-.7 4.2-1.6 4.2-2.1s2.1-1.8 4.6-2.9c2.6-1 6-3.1 7.6-4.4s3.8-2.5 4.8-2.5 2.5-1.1 3.4-2.5 2.2-2.5 2.9-2.5a22 22 0 0 0 6.1-4c2.6-2.2 5.4-4 6.1-4s2-1.1 2.9-2.5 2.2-2.5 2.8-2.5 2.6-1.5 4.3-3.3l4.6-4.4 2.5-2.4 9-9c7.7-7.7 11.4-11.8 16.2-17.6a61 61 0 0 0 9.2-12.4c0-.4 1.3-2.3 2.9-4.1s3.1-4.3 3.5-5.5 2-3.8 3.6-5.8c1.7-2.1 3-4.4 3-5.1s1.1-2.5 2.4-4.1 2.7-4.3 3.1-6.1 1.7-4.5 3-6c1.2-1.5 2.6-4.3 3-6.2s1.8-5.2 3.1-7.2 2.8-5.9 3.4-8.5 1.9-5.9 2.8-7.3c1-1.4 2.6-6.3 3.5-10.9a31 31 0 0 1 3.2-10.1q1.6-1.8 2.7-11.6c.5-5.5 1.7-11.7 2.5-13.9 2.6-7.1 3.2-12.5 4.2-38.5 1.3-34.3-.3-67.7-3.5-72.5a45 45 0 0 1-3.1-11.1c-.8-4.8-2.3-9.9-3.3-11.3a23 23 0 0 1-3-7.5c-.6-2.7-2-6-3-7.4a20 20 0 0 1-3.1-6.6c-.6-2.2-2.1-5.3-3.4-6.8a17 17 0 0 1-3-5.7 10 10 0 0 0-2.6-4.7c-1.1-1-2.8-3.6-3.8-5.8-1-2.3-2.5-4.7-3.4-5.5-1-.7-1.7-2-1.7-2.8s-1.1-2.5-2.5-3.9a33 33 0 0 1-4.5-6.2c-3.4-6.1-7.6-11.7-14.7-19.8-1.8-2-3.3-4.1-3.3-4.5s-1.6-2.6-3.5-4.6-3.5-4.3-3.5-4.9q-.2-1.2-1.9-1.9a4 4 0 0 1-2.6-2.5c-.3-1.1-1.9-2.9-3.6-4a499.6 499.6 0 0 0-37.8-38q-.8-.2-1.9-2.5c-.6-1.4-1.7-2.5-2.3-2.5s-3.8-2.6-7-5.8c-6.6-6.3-8.3-7.8-21.4-18.8l-12.5-10.5-6.3-5.2a64 64 0 0 1-5.7-5c-1.5-1.5-3.2-2.7-3.7-2.7-1 0-9.6-6.7-13.3-10.3a17 17 0 0 0-4.7-3.1c-1.2-.4-2.5-1.6-2.8-2.7-.4-1-1.2-1.9-2-1.9-1.2 0-4.7-2.5-14.2-10.5a19 19 0 0 0-5.2-3.5c-.6 0-1.8-1.1-2.7-2.5s-2.2-2.5-2.9-2.5c-.8 0-2.2-1.1-3.2-2.3-1-1.3-2.8-2.9-3.9-3.5a149 149 0 0 1-20.2-16.5c-1.4-1.5-3.1-2.7-3.7-2.7s-2.3-1.2-3.7-2.8c-2.9-2.8-6-5.5-14.3-12.3a694 694 0 0 1-38.3-35.1l-7.6-8.1-7.5-8c-4.3-4.4-9.8-10.7-13.6-15.6l-6.7-8.5a13 13 0 0 1-2.8-4.5c0-.6-1.1-1.8-2.4-2.6a8 8 0 0 1-3-3.9 22 22 0 0 0-3.6-6.1c-1.6-2.1-3-4.3-3-4.8s-1.2-2.8-2.6-4.8c-1.4-2.1-3-5.6-3.5-7.9s-1.8-5.4-3-6.9a27 27 0 0 1-3-9.6c-.6-3.9-1.9-9.7-3-12.9a94 94 0 0 1 0-40.1c1.2-3.3 2.4-8.8 2.7-12.3q.8-6.3 2.9-9.7c1.3-1.8 2.6-4.7 3-6.4a18 18 0 0 1 2.9-5.9 89.3 89.3 0 0 1 31.1-30.8c1.8-.7 3.5-2 3.8-2.8s2.5-2 4.9-2.7 5.6-2.3 7.1-3.6c1.6-1.3 3.6-2.3 4.5-2.3s3.4-.5 5.5-1.1c3.2-.8 3.6-1.3 2.6-2.5-1.3-1.6-1.8-1.6-10.4-.2m1297 274.5a15 15 0 0 0-5.2 3.9c-3 3.1-3.3 4.1-3.3 9.4 0 4.2.5 6.3 1.6 7.2.9.7 2.9 2.6 4.4 4.2 2.4 2.4 3.6 2.8 7.9 2.8 4.7 0 5.5-.3 9.3-4.1 3.9-4 4.1-4.5 4.1-10-.1-3.2-.6-6.8-1.3-8-2.5-4.8-10.1-7.1-17.5-5.4m726.8 0c-1.2.2-3.8 2.3-5.9 4.5-3.5 3.9-3.6 4.3-3 9.4.5 4.6 1.2 6 4.7 9.5 3.9 3.9 4.5 4.2 9.5 4.1 4.9 0 5.7-.4 9-3.9 3.1-3.2 3.7-4.7 4.2-9.5.4-5 .1-6.3-1.9-9.3q-4.8-7.2-16.6-4.8m259.7 6.2c-.7 1.3-1 34.3-1 99.9 0 88.4.2 98 1.6 98.6 2.5.9 12 .7 14.8-.4l2.6-1v-194.7l-2.3-2.1c-3.2-3.1-14.1-3.2-15.7-.3m-1556.7 12c-1 1.6-1.3 22.2-1.3 94 0 82.9.2 91.9 1.6 92.5 2.5.9 12 .7 14.8-.4l2.6-1v-36.4c0-20 .3-37.2.6-38.1 1.4-3.7 5.7-4.5 22.7-4.5 11.8 0 17.6-.4 20.6-1.4 2.2-.8 6.9-1.8 10.3-2.1 16-1.5 16.6-1.6 19.5-4.1a14 14 0 0 1 5.4-3 52 52 0 0 0 19.8-20.4c3-3.9 4.4-20.5 2.9-34.3-1-9.8-1.5-11.4-4-14.3-1.5-1.7-2.8-3.9-2.8-4.7s-.9-2.1-2-2.7-2.7-2.4-3.5-4c-.9-1.7-2.2-3-3-3s-2.4-.9-3.6-2.1a20 20 0 0 0-6-3.5c-2.2-.7-4.8-2.3-5.7-3.4-2.4-2.9-17.7-4.1-56.7-4.7-30.4-.4-31-.4-32.2 1.6m66.9 15.5c11.2 1.2 13.1 1.6 15.8 4a12 12 0 0 0 4.4 2.6c.7 0 3.2 2.2 5.5 5 3.2 3.8 4.4 6.2 5.2 10.7.5 3.2 1.6 7.4 2.4 9.4 1 2.7 1.1 4.5.3 7.5l-2.4 10.4q-1.5 6.5-3.8 8.5a12 12 0 0 0-2.9 3.8c-.4 1-2 2.3-3.7 2.8-1.6.6-3 1.5-3 2 0 1.6-6 3.6-12.5 4.4-3.3.4-7.9 1.3-10.3 2.1-3 1-9.3 1.4-20.8 1.4h-16.6l-3.4-3.4-3.4-3.4v-31.9c0-40.2-1.8-37.1 22-37.2 8 0 20.2.5 27.2 1.3m293.1-14.4c-2.3.9-2.3 1.3-2.3 16.8 0 19.2-.1 19.4-11.1 20-8.2.5-9.9 2.1-9.9 9.3 0 4.4.2 4.8 3.1 5.8 1.8.6 5 1.1 7.1 1.1 3.2 0 4.7.7 7.4 3.4l3.4 3.4.1 40.8c0 24.2.5 45.8 1.2 52.9l1.3 12 5 6.4c4.8 6.3 5.3 6.6 14.4 9.8a54 54 0 0 0 23.5 3.6l14 .2v-16l-11-.5c-9.5-.4-11.9-.9-17.1-3.4-5.7-2.7-6.2-3.2-9-9.5l-2.9-6.6-.3-43.5c-.2-30.4.1-44.2.9-46.1 2.4-6 3.6-6.4 22.3-6.9l17.1-.5v-15l-17.5-.5c-9.6-.3-18.3-.9-19.3-1.4-3.2-1.5-3.7-4.3-3.7-19.5 0-13.8-.2-15.1-1.9-16.1a31 31 0 0 0-14.8 0m-154.1 36.7c-1.3.2-3.9 1.5-5.9 2.9s-4.8 2.4-6.2 2.4c-2.5 0-10 4.8-16.4 10.5a10 10 0 0 1-3.7 2.5c-.5 0-1.7 1.5-2.6 3.2a43 43 0 0 1-4.5 6.6c-1.6 1.8-2.9 3.9-2.9 4.7s-.9 2.4-2 3.5a23 23 0 0 0-3.5 9.1 54 54 0 0 1-3.2 10.2 90 90 0 0 0-.2 36.2c.9 1.6 2.5 6.5 3.4 10.9 1 4.4 2.6 8.7 3.6 9.7 1.1 1.1 1.9 2.5 1.9 3.2s1.3 2.8 2.9 4.7 3.6 5 4.5 6.7 2.1 3.3 2.6 3.3 2.5 1.5 4.4 3.2c6.8 6.3 10.2 8.6 14.6 9.8 2.5.6 5.5 2.2 6.8 3.3 2.3 2.1 3.2 2.2 22.7 2.2s20.5-.1 23.4-2.2c1.6-1.3 5.1-2.8 7.6-3.5 2.7-.7 5.2-2.2 6-3.5q1.5-2.1 2.9-2.3c.7 0 2.5-1.4 3.9-3 1.5-1.7 3.1-3 3.6-3s1.4-1.3 2.1-3c1.5-3.6 4.6-4.8 6.9-2.6 1.2 1.3 1.7 4.3 2.1 12.4l.5 10.7 9.4.3q9.2.3 10.7-.9c1.2-1 1.4-12.2 1.4-69.9 0-37.8-.3-70.8-.6-73.4l-.7-4.6h-19.4l-.7 3.1c-.3 1.7-.6 6.1-.6 9.8q0 11-5.1 11.1-1.9-.1-3.6-3.5c-.9-1.9-2-3.5-2.5-3.5s-2-1.4-3.5-3c-1.4-1.7-3.2-3-3.9-3-.8 0-2-1.1-2.9-2.3q-1.4-2.5-7-3.6c-2.9-.7-6.6-2.2-8.2-3.4-2.6-2-3.9-2.2-19.3-2.3-9.1-.1-17.5 0-18.8.3m36.6 18c1.5 1.1 4.5 2.3 6.7 2.7a21 21 0 0 1 7.5 3.7c7.6 6.2 12 10.4 12 11.5 0 .6 1.1 2.1 2.5 3.4s3 4.2 3.6 6.3c.6 2.2 2 5.3 3.2 6.9 2.1 2.8 2.2 4 2.2 21.8s-.1 19-2.2 21.8a25 25 0 0 0-3.3 7.1c-.6 2.3-2.2 5.2-3.6 6.3-1.3 1.2-2.4 2.7-2.4 3.4s-2.1 3-4.7 5.3l-7.6 6.6c-1.5 1.4-3.6 2.5-4.6 2.5s-4 1.2-6.7 2.7c-4.6 2.6-5.6 2.8-17.6 2.8-11.4 0-12.9-.2-15.6-2.2a19 19 0 0 0-6.7-2.9c-3.8-.7-6.1-2.4-14.3-10.6-7.4-7.4-10-11.1-10.7-15.3-.4-2.2-1.6-5.3-2.8-7-4.4-6.3-4.3-36.2.2-41.4 1-1.2 2.1-4 2.5-6.3.7-4.4 3.2-8 10.8-15.6 7.4-7.4 11.1-10 15.3-10.7 2.2-.4 4.8-1.4 5.7-2.2 2.8-2.5 7.7-3.2 18.1-2.9 7.9.2 10.3.7 12.5 2.3m267.9-18c-1.1.3-3.5 1.6-5.4 2.9s-4.4 2.4-5.5 2.4-2.9 1-4.1 2.3a44 44 0 0 1-4.9 3.9c-1.5 1-2.9 2.5-3.2 3.5-.8 2.4-9.3 6.4-10.5 4.9-.5-.6-1.1-4.3-1.3-8.1-.8-10.8-1.4-11.5-10.2-11.5-6.8 0-7.4.2-8 2.2-.3 1.3-.6 34.5-.6 73.9 0 64.5.2 71.7 1.6 72.3 2.5.9 12 .7 14.8-.4l2.6-1v-39.7c0-31.3.3-41.2 1.5-46.3a118 118 0 0 0 2-12.4c.5-4.3 1.3-6.4 2.9-8 1.3-1.1 2.6-3.1 3-4.4.8-2.5 7.5-9.2 9.3-9.2.6 0 2.6-1.2 4.3-2.6 2.7-2.3 4.5-2.8 13.3-3.6 5.6-.6 10.6-1.4 11.1-1.9a30 30 0 0 0 1.4-9c.4-7.1.2-8.4-1.4-9.6-1.7-1.2-8.9-1.6-12.7-.6m182.8 0c-1.1.3-3.1 1.3-4.5 2.3s-4.2 2.3-6.3 3c-3.9 1.2-6.2 3-11.9 8.7-2.5 2.6-4 3.3-7 3.3-4.1 0-4.2 0-5.2-9.4-.8-6.9-1.7-7.6-9.7-7.6-6.5 0-7 .2-7.9 2.6-.6 1.5-1 29.9-1 73.9 0 64.1.2 71.3 1.6 71.9 2.5.9 12 .7 14.8-.4l2.6-1v-40.3c0-31.8.3-41.4 1.4-45.3a82 82 0 0 0 2.1-12.3c.6-5.8 1.2-7.9 3-9.5a13 13 0 0 0 2.9-4.9c.4-1.6 1.7-3.8 3-5a54 54 0 0 1 13.2-9.7c.7 0 3.3-1 5.6-2.3 3.7-1.9 5.8-2.2 14.8-2.2 8 0 11.2.4 13 1.6a32 32 0 0 0 6.4 2.9c9.6 3.1 19.9 16.4 21.1 27.2.4 3.4 1.5 7.7 2.4 9.7 1.4 3.1 1.6 9.5 1.9 47.1.3 32 .6 43.7 1.5 44.2 1.4.9 11.3 1 14.5.2l2.2-.6v-40.6c0-36.9.2-41.2 1.9-47.6 1.1-3.9 2.2-9.7 2.6-12.9.4-3.6 1.4-6.6 2.5-7.7 1-1 2.7-3.9 3.9-6.4s2.4-4.6 2.9-4.6 2.9-1.6 5.2-3.5a22 22 0 0 1 6.9-4.1c1.4-.4 4.1-1.5 5.9-2.6a43 43 0 0 1 22.7-2 55 55 0 0 1 18.9 9c2 1.8 4 3.2 4.5 3.2s1.4 1.4 2.2 3.1c.7 1.8 2.3 4.5 3.7 6 1.8 2.2 2.6 4.9 3.4 10.7.5 4.2 1.6 9.6 2.4 12 1.1 3.5 1.4 12.2 1.4 45.7 0 39.9.1 41.5 1.9 42.5 2.3 1.2 13 1.3 14.9.2 1-.7 1.3-11.3 1.2-51.3 0-51.6-.4-59.5-3.4-62.8a16 16 0 0 1-2.7-5.7c-2.3-8-16.6-22.3-23.9-23.7-1.9-.4-4.5-1.7-5.8-3-2.3-2.1-3.1-2.2-21-2.2h-18.7l-3.9 2.7a14 14 0 0 1-6.1 2.8c-1.2 0-3.6 1.3-5.2 2.9s-3.6 3.2-4.4 3.7-2.8 2.5-4.4 4.5c-9 10.8-11.1 12.9-12.7 12.9-1 0-2.9-1.7-4.3-3.8-5-7.4-8.4-11.4-12.3-14.2a24 24 0 0 1-4.6-3.9c-.4-.6-2.6-1.5-4.9-2.1s-5.5-2.1-7.2-3.3c-2.8-2-4.3-2.2-19.5-2.4-9.1-.1-17.4.1-18.5.4m278.4.2c-1.4.5-3.7 1.6-5 2.4-1.3.9-4.7 2.1-7.5 2.7a16 16 0 0 0-7.5 3.6c-1.2 1.3-2.6 2.4-3.1 2.4-1.9 0-12.5 9.6-15 13.5-1.4 2.3-3.3 4.5-4.2 4.8a3 3 0 0 0-1.6 2.6c0 1.1-1.1 3.3-2.5 4.9s-3 5.4-3.5 8.3-2.1 7.9-3.3 10.9a73 73 0 0 0 0 36.5c1.1 2.7 2.6 7.7 3.3 11s2 6.9 2.9 8c1 1.1 2.4 3.5 3.1 5.2s1.6 3.3 2 3.3c.5 0 2.2 2.2 3.9 4.9s3.9 5.2 5 5.6q2 .6 2.1 1.6c0 .5 2.5 2.5 5.5 4.4s5.5 4 5.5 4.4 2.4 1.4 5.2 2.1c2.9.6 6.3 2.1 7.6 3.3 2.3 2.1 3 2.2 24.7 2.2 21.5 0 22.4-.1 25.3-2.2 1.7-1.3 5.2-2.7 7.8-3.3s6.2-2.3 8-3.8l7.9-6.2c5.9-4.5 7-5.6 10.8-10.9 6.8-9.4 10.7-16.8 10.7-20.1 0-1.1.7-3.7 1.6-5.8 3-7 3.5-9.7 3.5-22.3 0-9.2-.4-13.7-1.6-17a111 111 0 0 1-3.1-10.4c-.8-3.3-2.3-7.2-3.4-8.6-1-1.5-2.5-4.3-3.4-6.3s-2-3.6-2.5-3.6-2.2-2-3.7-4.5c-1.4-2.5-2.9-4.5-3.4-4.5a23 23 0 0 1-5.1-3.9 27 27 0 0 0-6.7-4.5 7 7 0 0 1-3.2-2.6c-.6-1.1-2.6-2.1-5.2-2.5-2.4-.4-6.3-1.9-8.8-3.3-4.4-2.6-5-2.7-22.5-2.9-9.9-.1-19.2.2-20.6.6m33.7 17.8c1.6 1.2 4.6 2.4 6.8 2.8a13 13 0 0 1 6.3 3.1c1.3 1.3 2.8 2.4 3.4 2.4 1.3 0 9.9 8.7 9.9 10 0 .5 1.2 2 2.6 3.3a15 15 0 0 1 3.5 6.6 22 22 0 0 0 3.2 7.3c2.1 2.8 2.2 3.9 2.2 20.8s-.1 18-2.2 20.8c-1.3 1.7-2.7 5-3.2 7.4a12 12 0 0 1-3.5 6.3c-1.5 1.2-2.6 2.6-2.6 3.2a29 29 0 0 1-8.8 9.3c-.5 0-2.3 1.3-4 2.9a16 16 0 0 1-6.9 3.7c-2.1.4-5.1 1.7-6.6 2.8-2.6 1.9-4.2 2.1-15.6 2.1-10.6 0-13.1-.3-15.5-1.8-1.5-1-5-2.5-7.7-3.3s-5.3-2.3-5.9-3.4-1.7-2-2.4-2c-1.5 0-9.6-8.4-9.6-9.9 0-.6-1.1-2.1-2.4-3.4a13 13 0 0 1-3.1-6.3c-.4-2.2-1.7-5.3-2.8-6.9-2.1-2.8-2.2-4.2-2.2-21 0-16 .2-18.4 1.9-21 1-1.5 2.5-5.1 3.2-7.9.7-2.7 2-5.4 2.9-5.8.8-.5 2.2-2.3 3.1-3.9 1.6-3.2 8.2-9.9 9.7-9.9.6 0 2-1.1 3.2-2.4 1.3-1.4 4-2.8 6.1-3.1 2.2-.4 5-1.5 6.4-2.4 3.7-2.4 7.5-3 18.1-2.7 7.8.2 10.1.7 12.5 2.3m158.4-18c-1.3.3-3.5 1.4-4.8 2.4-1.4 1-4.2 2.4-6.3 2.9-2.5.7-6 3.1-9.6 6.5-4.5 4.4-6.3 5.5-8.9 5.5q-5.5.1-5.4-6.7c0-1.5-.5-4.5-1.1-6.6l-1-3.8-7.7.3c-7.2.3-7.7.4-8.3 2.8-.4 1.4-.7 34.5-.8 73.6l-.1 71.2 2.3.6c3.4.9 11.3.7 14.1-.4l2.6-1v-40.3c0-32.1.3-41.3 1.4-45.3a81 81 0 0 0 2.2-12.3c.5-5.8 1.2-7.9 2.9-9.5 1.2-1.2 2.7-3.8 3.4-5.8q1.1-3.7 6.3-7.5c6.8-5 6.3-4.8 13.8-8 5.8-2.5 7.6-2.8 17-2.7 9.9 0 10.9.2 18.2 3.7 4.2 1.9 8 4.2 8.5 4.9s2 2.1 3.6 3.1c1.5 1 2.7 2.2 2.7 2.8s1.3 2.6 3 4.5 3.2 5.1 3.6 7.1c.4 2.1 1.3 4.7 2 5.8 2.6 4 3.4 16.6 3.4 58.2v42.3l2.6.6c2.9.7 14.6 0 16.3-1 1.8-1.1 1.5-84.9-.3-90.1-.8-2.2-1.9-8.9-2.5-15-1-9.6-1.4-11.2-3.6-13.3-1.4-1.2-2.5-2.9-2.5-3.6s-1.6-3.3-3.5-5.6a18 18 0 0 1-3.5-5.5c0-.8-2-2.3-4.4-3.3a16 16 0 0 1-5-3.1c-.4-.6-4.2-2.7-8.4-4.7l-7.7-3.7-16-.3c-8.8-.1-17.1 0-18.5.3m244.7 0a10 10 0 0 0-4.8 2.4 12 12 0 0 1-5.8 2.5c-4.2.7-15.1 7.9-21.7 14.4a67 67 0 0 0-9.4 13.6c0 .6-.9 1.9-1.9 2.8a21 21 0 0 0-3.6 8.8c-.9 3.9-2.3 8.7-3.2 10.7a86 86 0 0 0-.8 34.1c.9 3 2.5 9 3.5 13.2 1.1 4.3 2.9 8.7 4 9.8s2 2.7 2 3.5 1.4 3 3 4.9a24 24 0 0 1 4.1 6.5c.6 1.7 1.7 3.1 2.3 3.1.7 0 2.5 1.3 3.9 3 1.5 1.6 3.1 3 3.6 3s2.8 1.6 5.1 3.5 5.2 3.5 6.5 3.5 4 1.2 6.1 2.7l3.9 2.8h20.2c19.3 0 20.3-.1 23.2-2.2 1.6-1.3 5.1-2.8 7.6-3.5 2.7-.7 5.2-2.2 6-3.5q1.5-2.1 2.6-2.3c1.4 0 9-7.7 10.4-10.5a5 5 0 0 1 3.1-2.3c3.7-.5 4.9 2.4 5.4 13.7l.5 10.6h20v-148l-9.4-.3c-6.9-.2-9.7.1-10.3 1-.4.7-.8 5.1-.8 9.8 0 6.2-.4 9.2-1.6 10.8-1.9 2.8-5.4 2.6-6.9-.3a41 41 0 0 0-10.2-10.5c-.5 0-2-1.1-3.2-2.4-1.3-1.4-4.5-3-7.2-3.6a27 27 0 0 1-7.6-3.3c-2.5-2-4-2.2-19.3-2.3a219 219 0 0 0-19.3.3m37 18.1c1.5 1.1 4.5 2.3 6.7 2.7a13 13 0 0 1 6.3 3.1c1.3 1.3 2.8 2.4 3.3 2.4a37 37 0 0 1 10 10.1c0 .6 1 1.9 2.3 2.9s2.9 3.8 3.6 6.1 2.2 5.5 3.4 7.1c2.1 2.8 2.2 4.1 2.2 21.8 0 17.5-.1 19-2.1 21.7a29 29 0 0 0-3.4 6.8c-2.8 8.6-17.6 23.4-25 25a19 19 0 0 0-6.3 2.9c-2.6 1.9-4.2 2.1-15.7 2.1s-13.1-.2-15.7-2.1a20 20 0 0 0-6.6-2.8c-2.1-.4-5.2-1.9-6.8-3.4-9-7.9-12.9-11.7-12.9-12.7 0-.6-1.1-2.2-2.5-3.5a15 15 0 0 1-3.5-7.6c-.6-3-1.5-5.4-1.9-5.4-1.8 0-3.2-5.8-3.7-15.3-.7-12.3.7-23.5 3.4-27.4 1.1-1.5 2.3-4.4 2.6-6.4s1.7-4.6 3.1-5.9 2.5-2.9 2.5-3.5 2.4-3.2 5.3-5.8l7.4-6.8c1.2-1.1 4.4-2.6 7.3-3.4s5.8-1.9 6.6-2.6c2.6-2.1 7.7-2.8 17.6-2.5 7.6.3 10.2.8 12.5 2.4m-878.1-15.6c-.3 1.3-.6 34.6-.6 74v71.8l2.5.6c2.8.7 14.1.1 15-.8 1.1-1.1.6-143.7-.5-145.8-.9-1.7-2.1-2-8.4-2-6.8 0-7.4.2-8 2.2m726.7-1c-.4.7-.9 33.7-1.1 73.3-.3 82-1.2 74.5 9.1 74.5 10.8 0 9.7 8.1 9.6-72.8-.1-38.9-.4-71.8-.8-73.2-.6-2.4-1.1-2.5-8.3-2.8-5.4-.2-7.9.1-8.5 1"/></svg>