<svg xmlns="http://www.w3.org/2000/svg" width="1080" height="1080" viewBox="0 0 810 810"><defs><clipPath id="a"><path d="M21.61 323H214v162H21.61Zm0 0"/></clipPath><clipPath id="b"><path d="M596 323h192.11v162H596Zm0 0"/></clipPath></defs><g clip-path="url(#a)"><path d="M172.4 323.17H21.6v32.35h51.45a6.2 6.2 0 0 1 6.23 6.23v123.1h41.33V361.6c0-3.33 2.7-6.04 6.03-6.04h39c3.71 0 6.72 3 6.72 6.71v122.6h40.87V323.16h-40.87Zm0 0"/></g><path d="M172.15 269.8h41.09v41.1h-41.1ZM172.15 499.1h41.09v41.1h-41.1Zm0 0"/><g clip-path="url(#b)"><path d="M637.63 323.17h150.78v32.35h-51.45a6.23 6.23 0 0 0-6.22 6.23v123.1H689.4V361.6c0-3.33-2.7-6.04-6.03-6.04h-39.01c-3.71 0-6.71 3-6.71 6.71v122.6h-40.87V323.2h40.87Zm0 0"/></g><path d="M637.85 310.9h-41.1v-41.1h41.1ZM637.85 540.2h-41.1v-41.1h41.1ZM369.89 398.05c4.11-.35 21.83-8.82 21.83-26.24v-11.3a37.35 37.35 0 0 0-37.36-37.37H234.82V484.8h121.54a45.34 45.34 0 0 0 45.34-45.34v-1.57c-6.22-38.92-32.25-39.82-31.84-39.84Zm-94.2-37.06a6 6 0 0 1 6.01-6h56.68c7.4 0 13.41 6 13.41 13.41v4.6a13.3 13.3 0 0 1-13.28 13.28h-56.26a6.5 6.5 0 0 1-6.52-6.52V361Zm81.08 79.37c0 7.32-5.95 13.28-13.28 13.28h-61.27a6.5 6.5 0 0 1-6.52-6.52v-22.78a6 6 0 0 1 6-6h61.65c7.41 0 13.42 6 13.42 13.41v8.63ZM544.3 484.82h45.43l-75.75-159.57a3.7 3.7 0 0 0-3.32-2.1h-41.28c-1.38 0-2.63.78-3.22 2.03l-76.23 159.64h46.31l13.15-28.8h82.02l12.93 28.8Zm-79.14-63.43 23.23-50.9a2.54 2.54 0 0 1 4.63 0l22.8 50.8a2.54 2.54 0 0 1-2.3 3.57h-46.09a2.48 2.48 0 0 1-2.24-3.5Zm0 0"/></svg>