<svg xmlns="http://www.w3.org/2000/svg" viewBox="0 0 3000 3000"><path fill="#fff" d="m2068.8 1239.7-.3 53.6-5.5-6.9a86 86 0 0 0-40.4-28.1 83 83 0 0 0-40.7-1.4c-40.1 10.1-67.9 49.6-67.9 96.3 0 20.5 5.9 41.3 16.1 57.2 22.7 35.4 61.2 49.1 98.4 35.1a96 96 0 0 0 37.2-29l3.2-4v17.2l.1 17.3h42v-261h-42zm-40.4 53.3q25.6 6.6 38.5 31.7c2 4 2.1 5.7 2.1 27.6 0 22.8-.1 23.4-2.5 28.3a68 68 0 0 1-32.3 29.5c-4.9 2-7.6 2.3-19.2 2.4-15.4 0-20.3-1.3-30.7-8.1a62 62 0 0 1-21.1-80.6 56.4 56.4 0 0 1 65.2-30.8m-920.4-75v21l37.8.2 37.7.3.3 102.7.2 102.8h42v-206h76v-42h-194zm-438.9 8.7c-2 1.1-4.3 3.5-5.5 5.8-2.1 4-2.1 4-3 254.4-.7 193.9-.6 251.6.3 255.7 1.9 8.5 2.6 8.3 31.9-9.8 7.8-4.9 29.7-19.1 48.5-31.7s36.3-23.9 38.7-25.1a144 144 0 0 0 44.4-34.9 86 86 0 0 0 15.2-34.8c1.1-7.1 1.5-39.2 1.7-143.3.1-71.3-.1-95.2-1.1-100.5l-2.2-13.2a48 48 0 0 0-8.5-21.3 373 373 0 0 0-38.5-35.7c-.8-.3-5.8-3.4-11-6.8-39.6-26-64.8-41.9-76.5-48.3-20.9-11.5-28.3-13.7-34.4-10.5m881.9 25.9a100 100 0 0 0-78.8 64.9 80 80 0 0 0-5.6 35c.1 12.9.5 17.4 2.1 23.5a103 103 0 0 0 26.6 47.8 94 94 0 0 0 75.7 28c34.3-3 62.4-22.7 78.9-55.5 1.7-3.4 3.1-6.5 3.1-6.8s-9.6-.5-21.4-.5h-21.4l-2.5 3.3a59 59 0 0 1-30.7 21.1c-26.5 6.1-50.4-6.7-63-33.5a49 49 0 0 1-3.6-11.2l-.7-4.7h149.1l.4-5.8c.7-9.5-1-25.4-3.8-34.8-5-17.6-14-32.1-27.9-45.2a97 97 0 0 0-43.1-23.7 154 154 0 0 0-33.4-1.9m26 38.9a54 54 0 0 1 24.5 14.1c5.9 5.9 14.5 19 14.5 22.1 0 1-11 1.3-51.5 1.3s-51.5-.3-51.5-1.3a58 58 0 0 1 38.6-36.2 60 60 0 0 1 25.4 0m210.3-38a92 92 0 0 0-39.8 21.4 51 51 0 0 1-7.7 6.1c-.5 0-.8-4.5-.8-10v-10h-42v184h41.9l.3-58.3.3-58.2 4.4-7.5a92 92 0 0 1 12-15.1 42 42 0 0 1 15.6-10.9c7.6-3.3 8.6-3.5 20-3.5 11.6 0 12.3.1 18.7 3.3 11 5.4 17.9 15.5 21.4 31.2 1.6 6.9 1.7 21.1 1.1 188.8-.8 198.9-1.1 185.9 5.1 204.7 7.8 23.8 29.8 41.7 58 47.1 10.2 1.9 41.5 1.9 50.2-.1a71 71 0 0 0 53.9-48.9c5.8-16.6 6.1-20.1 6.1-83.7V1576h-42.8l-.6 17.2c-.3 9.5-.8 35.5-1.2 57.8s-1 42.7-1.6 45.5a38 38 0 0 1-29.3 29.5 53 53 0 0 1-26.6.4 37 37 0 0 1-26.1-23.4l-2.2-5.5-.8-112.5c-.4-61.9-1.2-149.6-1.6-195l-.8-82.5-2.7-8.1a67 67 0 0 0-34.2-38.9c-16-7.8-33-10.3-48.2-7m-362.3 4.6q-23 3.8-38.2 19.4l-5.8 5.8V1261h-43v184h43v-112.4l3.7-7.5a54 54 0 0 1 55.7-29.5l7.6 1-.2-19.6-.3-19.5-8.5-.2c-4.7 0-11 .3-14 .8m-945.5 75.8c-4.3.7-10.2 4.5-11 7l-2 14.1c-1.3 10.8-1.5 38.1-1.5 202.8 0 172.9.1 190.9 1.6 196.8 1.9 7.6 5 11.1 12.8 15.1 2.8 1.4 7.8 4.4 11.1 6.7 3.3 2.4 11.2 7.3 17.5 11.1l21.9 13.3c11.7 7.3 19.6 10.2 28 10.2 9.4 0 14.2-2.1 33.9-15.3l29.7-19.5c16.6-10.6 18.8-12.4 21.9-18.1l2.8-5.2.1-140.2c0-130.7-.1-140.9-1.8-150.2a65 65 0 0 0-20.1-40c-8.2-8-25.7-19.7-84.9-56.5l-20.5-12.8a411 411 0 0 0-34.6-20.1zM279 1379.6a19 19 0 0 0-5 7.2c-.6 2.3-1 26-1 62.9 0 40.2-.3 59.4-1 59.8q-1 .7-.2 1.8c.6.7 1.2 21.2 1.5 48.2.5 53.2.7 54.9 8.8 71.5a51 51 0 0 0 12.3 16.5 85 85 0 0 0 14.4 11.5 435 435 0 0 1 40.3 25.8 942 942 0 0 0 96.7 60.6l7.3 3.7-.3-120.3-.3-120.3-2.3-7.5c-2.8-9-8.9-22.2-13-28.3-5.3-7.6-26-22.2-94.7-66.4-42-27.1-47.7-30.3-54.3-30.3-4.6 0-5.7.4-9.2 3.6m703 258.9V1763h42v-88.8l25.8-.4c14.1-.2 26.3-.2 27 0s2.4 2.8 3.9 5.6c1.4 2.8 5.6 10.5 9.3 17.1l14.3 25.5c24.4 43.9 22.2 40.5 25.3 40.3l24.2-1.4c11.6-.7 21.2-1.6 21.2-2s-.9-2.3-1.9-4.1l-46.3-81.6a22 22 0 0 1-2.7-5.6l7.4-3.9a74 74 0 0 0 37.2-42.1c2.4-7.3 2.7-9.5 2.7-23.1.1-24.1-4.4-39.3-15.8-53.7a89 89 0 0 0-45.1-27.5l-10-2.8-59.2-.3-59.3-.3zm124.3-80.7c6.6 3.6 14.1 12 16.8 19 3.1 7.7 3.4 26.9.6 34.9-3.6 10.3-14.7 19.2-28.2 22.7a250 250 0 0 1-38.7 2.2l-32.8.7v-83.6l38.8.7 38.7.8zm1167.2 9.2a99 99 0 0 0-79.1 59.9c-5.9 14.5-6.8 20.2-6.8 40.6 0 17.8.2 19.5 2.7 28a99 99 0 0 0 58.9 65.3c13.8 5.4 21 6.5 38.2 6 12.5-.4 15.2-.8 23.3-3.6a97 97 0 0 0 64.3-65.7c0-1.3-3.3-1.5-21.9-1.5h-22l-3.1 5.9a58 58 0 0 1-9.9 12.4 47 47 0 0 1-35.1 14.7 46 46 0 0 1-35.1-14.4 62 62 0 0 1-15.6-24.2c-2.4-6.2-2.7-8.2-2.7-20.4-.1-14.7.7-18.4 6.6-31a70 70 0 0 1 23.7-24.4 49 49 0 0 1 49.7 2.2 68 68 0 0 1 18.6 19.4l2.3 4.3 22.9.3 22.9.2-.7-3a97.3 97.3 0 0 0-102.1-71m-987.8 2.1a96 96 0 0 0-71.2 44.2 97 97 0 0 0-15.5 45.7 110 110 0 0 0 8.6 52.9 103 103 0 0 0 46 47.2 94 94 0 0 0 109.1-18.8c8.2-8.3 19.5-25.5 21.8-33.1l.6-2.2h-42.9l-2.2 3.5a63 63 0 0 1-19.6 16.9 47 47 0 0 1-32.4 5.2 58 58 0 0 1-43.5-39c-4.4-11.7-13.2-10.4 71.4-10.8 40.7-.2 74.2-.6 74.6-1 1.5-1.5 1.6-15.9.1-25.7a99 99 0 0 0-26-54.7 93 93 0 0 0-60.9-30.3l-9.9-1zm28.6 40.2c8 2.9 19 11 24.1 17.7a66 66 0 0 1 9.6 16.7c0 1-10.9 1.3-51 1.3-58.1 0-53.2 1-47.8-9.4a68 68 0 0 1 23.9-23.6c12.7-6.5 28-7.5 41.2-2.7m169.3-40.3c-26.7 4.2-47 17.3-56.8 36.5a49 49 0 0 0-.1 42c11.4 22.2 35 35.4 66.8 37.4 15 1 21.8 3.1 28.4 8.7 13.6 11.7 9.7 28.7-8.5 37.1-18.5 8.4-42.1 3.2-51.5-11.5-2.6-4.1-3-5.5-2.7-10.5l.3-5.7-18.2-.2-21-.2c-2.6-.1-2.8.2-3.1 4.6-1.9 29.5 28 55.7 68 59.8 30.5 3.1 61.5-7.9 77.7-27.5 21.9-26.5 11.4-61.5-23.5-78.2-8.1-3.8-26.3-8.7-39.1-10.4-17.8-2.3-26.6-6.6-31-14.9-8.4-15.8 5.4-33 26.5-33 14.9 0 29.1 10.9 29.2 22.3v2.7l21.8-.2 21.7-.3.3-2.7c.4-3.7-2.2-13.6-5.4-20.6a71 71 0 0 0-27.2-26 96 96 0 0 0-52.6-9.2m1001.9 0a98.5 98.5 0 0 0-87.5 89.1 101 101 0 0 0 27.9 81.2 94.4 94.4 0 0 0 152.5-21.5c2.4-4.6 4.7-9.3 5.1-10.6l.6-2.2H2543l-8.8 8.9a52 52 0 0 1-30.5 16.9 30 30 0 0 1-15.9 0 55 55 0 0 1-34.8-21.7 70 70 0 0 1-11.5-24.4l-.7-3.7 65.8-.1c36.3-.1 70-.4 74.9-.8l9-.6.3-8.5a98.5 98.5 0 0 0-105.3-102m19.1 37.9a58 58 0 0 1 42.4 37c0 1.2-101.1 1.7-102.3.5-.3-.4.5-2.9 2-5.7 11.8-23.4 35-36.1 57.9-31.8m182.4-38.4-9 1.5c-27.4 4.4-49.7 22.4-55.5 44.5-5.5 21.3 4.2 43.1 25.6 57.4a96 96 0 0 0 45.8 13.1c19.6 0 33.9 9.8 34.9 23.8.3 5 0 6.3-2.7 10.4-11.4 17.9-43.2 20.9-60.5 5.8-5.5-4.9-7.8-10.1-7.4-16.6l.3-5.4-18.2-.2-21-.2-2.8-.1v9c0 8 .4 9.7 3.1 15.5a61 61 0 0 0 16.6 21.4 73 73 0 0 0 26.8 14 100 100 0 0 0 63 0 73 73 0 0 0 30.5-17.5 47 47 0 0 0 16.2-38.3c-1.2-19.1-13.5-35.4-34.2-45.2a168 168 0 0 0-39.2-10.5 52 52 0 0 1-23.9-7.1c-9.5-6.5-12.4-18.7-6.5-27.9 3.6-5.7 6.8-8.3 13.7-10.9 17-6.3 37.3 2.4 40.4 17.4l1.1 5.6h43.9v-3.3c0-5.7-3-15.9-6.2-21.6a74 74 0 0 0-27.9-25.4c-5.2-2.5-13.2-5.5-17.9-6.6-7.7-1.9-25.3-3.5-29-2.6m-1004.5 1.9a97.5 97.5 0 0 0-76.5 61.2 84 84 0 0 0-6.7 40.4 98.9 98.9 0 0 0 108.1 94.2 99 99 0 0 0 80.2-57.6c9.3-19.6 11-48.4 4.2-70.5a101 101 0 0 0-53.4-60.2c-15.9-7.2-39-10.3-55.9-7.5m24.6 39.6c9.1 1.7 21 8.2 28.4 15.6a63 63 0 0 1 17.1 46.5c-2.8 30.9-26 53.8-54.6 54.2a56 56 0 0 1-52.8-38.7 71 71 0 0 1-.5-38.1 59 59 0 0 1 23.3-31 50 50 0 0 1 39.1-8.5m430.4-37.3a75 75 0 0 0-24.5 10.7c-1.9 1.5-6.1 5.2-9.2 8.3l-5.8 5.6V1574h-42v185h42v-111.4l4.1-8.4a54 54 0 0 1 35.7-29.3c3.3-.6 10.3-1 16.9-.7l11.3.4V1571l-10.7.1c-6 0-13.9.7-17.8 1.6"/><path d="m2068.8 1239.7-.3 53.6-5.5-6.9a86 86 0 0 0-40.4-28.1 83 83 0 0 0-40.7-1.4c-40.1 10.1-67.9 49.6-67.9 96.3 0 20.5 5.9 41.3 16.1 57.2 22.7 35.4 61.2 49.1 98.4 35.1a96 96 0 0 0 37.2-29l3.2-4v17.2l.1 17.3h42v-261h-42zm-40.4 53.3q25.6 6.6 38.5 31.7c2 4 2.1 5.7 2.1 27.6 0 22.8-.1 23.4-2.5 28.3a68 68 0 0 1-32.3 29.5c-4.9 2-7.6 2.3-19.2 2.4-15.4 0-20.3-1.3-30.7-8.1a62 62 0 0 1-21.1-80.6 56.4 56.4 0 0 1 65.2-30.8m-920.4-75v21l37.8.2 37.7.3.3 102.7.2 102.8h42v-206h76v-42h-194zm-438.9 8.7c-2 1.1-4.3 3.5-5.5 5.8-2.1 4-2.1 4-3 254.4-.7 193.9-.6 251.6.3 255.7 1.9 8.5 2.6 8.3 31.9-9.8 7.8-4.9 29.7-19.1 48.5-31.7s36.3-23.9 38.7-25.1a144 144 0 0 0 44.4-34.9 86 86 0 0 0 15.2-34.8c1.1-7.1 1.5-39.2 1.7-143.3.1-71.3-.1-95.2-1.1-100.5l-2.2-13.2a48 48 0 0 0-8.5-21.3 373 373 0 0 0-38.5-35.7c-.8-.3-5.8-3.4-11-6.8-39.6-26-64.8-41.9-76.5-48.3-20.9-11.5-28.3-13.7-34.4-10.5m881.9 25.9a100 100 0 0 0-78.8 64.9 80 80 0 0 0-5.6 35c.1 12.9.5 17.4 2.1 23.5a103 103 0 0 0 26.6 47.8 94 94 0 0 0 75.7 28c34.3-3 62.4-22.7 78.9-55.5 1.7-3.4 3.1-6.5 3.1-6.8s-9.6-.5-21.4-.5h-21.4l-2.5 3.3a59 59 0 0 1-30.7 21.1c-26.5 6.1-50.4-6.7-63-33.5a49 49 0 0 1-3.6-11.2l-.7-4.7h149.1l.4-5.8c.7-9.5-1-25.4-3.8-34.8-5-17.6-14-32.1-27.9-45.2a97 97 0 0 0-43.1-23.7 154 154 0 0 0-33.4-1.9m26 38.9a54 54 0 0 1 24.5 14.1c5.9 5.9 14.5 19 14.5 22.1 0 1-11 1.3-51.5 1.3s-51.5-.3-51.5-1.3a58 58 0 0 1 38.6-36.2 60 60 0 0 1 25.4 0m210.3-38a92 92 0 0 0-39.8 21.4 51 51 0 0 1-7.7 6.1c-.5 0-.8-4.5-.8-10v-10h-42v184h41.9l.3-58.3.3-58.2 4.4-7.5a92 92 0 0 1 12-15.1 42 42 0 0 1 15.6-10.9c7.6-3.3 8.6-3.5 20-3.5 11.6 0 12.3.1 18.7 3.3 11 5.4 17.9 15.5 21.4 31.2 1.6 6.9 1.7 21.1 1.1 188.8-.8 198.9-1.1 185.9 5.1 204.7 7.8 23.8 29.8 41.7 58 47.1 10.2 1.9 41.5 1.9 50.2-.1a71 71 0 0 0 53.9-48.9c5.8-16.6 6.1-20.1 6.1-83.7V1576h-42.8l-.6 17.2c-.3 9.5-.8 35.5-1.2 57.8s-1 42.7-1.6 45.5a38 38 0 0 1-29.3 29.5 53 53 0 0 1-26.6.4 37 37 0 0 1-26.1-23.4l-2.2-5.5-.8-112.5c-.4-61.9-1.2-149.6-1.6-195l-.8-82.5-2.7-8.1a67 67 0 0 0-34.2-38.9c-16-7.8-33-10.3-48.2-7m-362.3 4.6q-23 3.8-38.2 19.4l-5.8 5.8V1261h-43v184h43v-112.4l3.7-7.5a54 54 0 0 1 55.7-29.5l7.6 1-.2-19.6-.3-19.5-8.5-.2c-4.7 0-11 .3-14 .8m-945.5 75.8c-4.3.7-10.2 4.5-11 7l-2 14.1c-1.3 10.8-1.5 38.1-1.5 202.8 0 172.9.1 190.9 1.6 196.8 1.9 7.6 5 11.1 12.8 15.1 2.8 1.4 7.8 4.4 11.1 6.7 3.3 2.4 11.2 7.3 17.5 11.1l21.9 13.3c11.7 7.3 19.6 10.2 28 10.2 9.4 0 14.2-2.1 33.9-15.3l29.7-19.5c16.6-10.6 18.8-12.4 21.9-18.1l2.8-5.2.1-140.2c0-130.7-.1-140.9-1.8-150.2a65 65 0 0 0-20.1-40c-8.2-8-25.7-19.7-84.9-56.5l-20.5-12.8a411 411 0 0 0-34.6-20.1zM279 1379.6a19 19 0 0 0-5 7.2c-.6 2.3-1 26-1 62.9 0 40.2-.3 59.4-1 59.8q-1 .7-.2 1.8c.6.7 1.2 21.2 1.5 48.2.5 53.2.7 54.9 8.8 71.5a51 51 0 0 0 12.3 16.5 85 85 0 0 0 14.4 11.5 435 435 0 0 1 40.3 25.8 942 942 0 0 0 96.7 60.6l7.3 3.7-.3-120.3-.3-120.3-2.3-7.5c-2.8-9-8.9-22.2-13-28.3-5.3-7.6-26-22.2-94.7-66.4-42-27.1-47.7-30.3-54.3-30.3-4.6 0-5.7.4-9.2 3.6m703 258.9V1763h42v-88.8l25.8-.4c14.1-.2 26.3-.2 27 0s2.4 2.8 3.9 5.6c1.4 2.8 5.6 10.5 9.3 17.1l14.3 25.5c24.4 43.9 22.2 40.5 25.3 40.3l24.2-1.4c11.6-.7 21.2-1.6 21.2-2s-.9-2.3-1.9-4.1l-46.3-81.6a22 22 0 0 1-2.7-5.6l7.4-3.9a74 74 0 0 0 37.2-42.1c2.4-7.3 2.7-9.5 2.7-23.1.1-24.1-4.4-39.3-15.8-53.7a89 89 0 0 0-45.1-27.5l-10-2.8-59.2-.3-59.3-.3zm124.3-80.7c6.6 3.6 14.1 12 16.8 19 3.1 7.7 3.4 26.9.6 34.9-3.6 10.3-14.7 19.2-28.2 22.7a250 250 0 0 1-38.7 2.2l-32.8.7v-83.6l38.8.7 38.7.8zm1167.2 9.2a99 99 0 0 0-79.1 59.9c-5.9 14.5-6.8 20.2-6.8 40.6 0 17.8.2 19.5 2.7 28a99 99 0 0 0 58.9 65.3c13.8 5.4 21 6.5 38.2 6 12.5-.4 15.2-.8 23.3-3.6a97 97 0 0 0 64.3-65.7c0-1.3-3.3-1.5-21.9-1.5h-22l-3.1 5.9a58 58 0 0 1-9.9 12.4 47 47 0 0 1-35.1 14.7 46 46 0 0 1-35.1-14.4 62 62 0 0 1-15.6-24.2c-2.4-6.2-2.7-8.2-2.7-20.4-.1-14.7.7-18.4 6.6-31a70 70 0 0 1 23.7-24.4 49 49 0 0 1 49.7 2.2 68 68 0 0 1 18.6 19.4l2.3 4.3 22.9.3 22.9.2-.7-3a97.3 97.3 0 0 0-102.1-71m-987.8 2.1a96 96 0 0 0-71.2 44.2 97 97 0 0 0-15.5 45.7 110 110 0 0 0 8.6 52.9 103 103 0 0 0 46 47.2 94 94 0 0 0 109.1-18.8c8.2-8.3 19.5-25.5 21.8-33.1l.6-2.2h-42.9l-2.2 3.5a63 63 0 0 1-19.6 16.9 47 47 0 0 1-32.4 5.2 58 58 0 0 1-43.5-39c-4.4-11.7-13.2-10.4 71.4-10.8 40.7-.2 74.2-.6 74.6-1 1.5-1.5 1.6-15.9.1-25.7a99 99 0 0 0-26-54.7 93 93 0 0 0-60.9-30.3l-9.9-1zm28.6 40.2c8 2.9 19 11 24.1 17.7a66 66 0 0 1 9.6 16.7c0 1-10.9 1.3-51 1.3-58.1 0-53.2 1-47.8-9.4a68 68 0 0 1 23.9-23.6c12.7-6.5 28-7.5 41.2-2.7m169.3-40.3c-26.7 4.2-47 17.3-56.8 36.5a49 49 0 0 0-.1 42c11.4 22.2 35 35.4 66.8 37.4 15 1 21.8 3.1 28.4 8.7 13.6 11.7 9.7 28.7-8.5 37.1-18.5 8.4-42.1 3.2-51.5-11.5-2.6-4.1-3-5.5-2.7-10.5l.3-5.7-18.2-.2-21-.2c-2.6-.1-2.8.2-3.1 4.6-1.9 29.5 28 55.7 68 59.8 30.5 3.1 61.5-7.9 77.7-27.5 21.9-26.5 11.4-61.5-23.5-78.2-8.1-3.8-26.3-8.7-39.1-10.4-17.8-2.3-26.6-6.6-31-14.9-8.4-15.8 5.4-33 26.5-33 14.9 0 29.1 10.9 29.2 22.3v2.7l21.8-.2 21.7-.3.3-2.7c.4-3.7-2.2-13.6-5.4-20.6a71 71 0 0 0-27.2-26 96 96 0 0 0-52.6-9.2m1001.9 0a98.5 98.5 0 0 0-87.5 89.1 101 101 0 0 0 27.9 81.2 94.4 94.4 0 0 0 152.5-21.5c2.4-4.6 4.7-9.3 5.1-10.6l.6-2.2H2543l-8.8 8.9a52 52 0 0 1-30.5 16.9 30 30 0 0 1-15.9 0 55 55 0 0 1-34.8-21.7 70 70 0 0 1-11.5-24.4l-.7-3.7 65.8-.1c36.3-.1 70-.4 74.9-.8l9-.6.3-8.5a98.5 98.5 0 0 0-105.3-102m19.1 37.9a58 58 0 0 1 42.4 37c0 1.2-101.1 1.7-102.3.5-.3-.4.5-2.9 2-5.7 11.8-23.4 35-36.1 57.9-31.8m182.4-38.4-9 1.5c-27.4 4.4-49.7 22.4-55.5 44.5-5.5 21.3 4.2 43.1 25.6 57.4a96 96 0 0 0 45.8 13.1c19.6 0 33.9 9.8 34.9 23.8.3 5 0 6.3-2.7 10.4-11.4 17.9-43.2 20.9-60.5 5.8-5.5-4.9-7.8-10.1-7.4-16.6l.3-5.4-18.2-.2-21-.2-2.8-.1v9c0 8 .4 9.7 3.1 15.5a61 61 0 0 0 16.6 21.4 73 73 0 0 0 26.8 14 100 100 0 0 0 63 0 73 73 0 0 0 30.5-17.5 47 47 0 0 0 16.2-38.3c-1.2-19.1-13.5-35.4-34.2-45.2a168 168 0 0 0-39.2-10.5 52 52 0 0 1-23.9-7.1c-9.5-6.5-12.4-18.7-6.5-27.9 3.6-5.7 6.8-8.3 13.7-10.9 17-6.3 37.3 2.4 40.4 17.4l1.1 5.6h43.9v-3.3c0-5.7-3-15.9-6.2-21.6a74 74 0 0 0-27.9-25.4c-5.2-2.5-13.2-5.5-17.9-6.6-7.7-1.9-25.3-3.5-29-2.6m-1004.5 1.9a97.5 97.5 0 0 0-76.5 61.2 84 84 0 0 0-6.7 40.4 98.9 98.9 0 0 0 108.1 94.2 99 99 0 0 0 80.2-57.6c9.3-19.6 11-48.4 4.2-70.5a101 101 0 0 0-53.4-60.2c-15.9-7.2-39-10.3-55.9-7.5m24.6 39.6c9.1 1.7 21 8.2 28.4 15.6a63 63 0 0 1 17.1 46.5c-2.8 30.9-26 53.8-54.6 54.2a56 56 0 0 1-52.8-38.7 71 71 0 0 1-.5-38.1 59 59 0 0 1 23.3-31 50 50 0 0 1 39.1-8.5m430.4-37.3a75 75 0 0 0-24.5 10.7c-1.9 1.5-6.1 5.2-9.2 8.3l-5.8 5.6V1574h-42v185h42v-111.4l4.1-8.4a54 54 0 0 1 35.7-29.3c3.3-.6 10.3-1 16.9-.7l11.3.4V1571l-10.7.1c-6 0-13.9.7-17.8 1.6"/></svg>