<svg xmlns="http://www.w3.org/2000/svg" viewBox="0 0 3000 3000"><path fill="#fff" d="M2511.3 981.7c-.6.5-6.4 1-12.7 1.1-6.4.2-13.7.9-16.4 1.7s-6 1.5-7.6 1.5-5.1.7-8 1.6l-10.1 3.1a151 151 0 0 0-22.8 8.9l-5 2.8a116 116 0 0 0-35.5 32 85 85 0 0 0-11.9 24c-3.3 3.3-8.8 38.1-6.5 40.9.6.7 1.4 5 1.8 9.6s1.3 9.6 2 11c.8 1.4 1.4 3.8 1.4 5.3q0 2.6.9 2.8c.5 0 1.3 1.5 1.6 3.2a17 17 0 0 0 1.5 4.3l4 7a109 109 0 0 0 42.5 41.5q1.3 0 2 .9c.3.6 2.7 2 5.3 3.2a98 98 0 0 1 9.2 4.5l4.7 2a15 15 0 0 0 4.6 1.4c.9 0 1.9.4 2.2 1s1.4 1 2.3 1 3 .7 4.6 1.5a13 13 0 0 0 4.5 1.5c.9 0 2.9.7 4.5 1.5 1.5.8 3.8 1.5 5 1.5s3.1.7 4.2 1.5a9 9 0 0 0 4.7 1.5c1.6 0 3.7.5 4.8 1a67 67 0 0 0 15.9 4c3 .7 6.2 1.4 7 1.8l6.5 1.8 11.5 2.8 10.8 2.6a27 27 0 0 1 6.1 2c1.1.5 3.2 1 4.8 1a9 9 0 0 1 4.7 1.5 9 9 0 0 0 4.4 1.5c4.9 0 17.6 4.7 32.5 12a62 62 0 0 1 22.7 18.6l2.4 4.3c5.9 7.9 7.6 33.1 2.8 41.8a9 9 0 0 0-1.2 3.7c0 3.3-8 14.5-16.2 22.8a63 63 0 0 1-10 8.8 5 5 0 0 0-2.7 1.4 49 49 0 0 1-14.1 7.1c-1.6.4-3.2 1.1-3.5 1.6-.4.5-2.1.9-3.9.9s-3.8.6-4.4 1.2-4.1 1.6-7.5 2-8.4 1.1-11.2 1.7c-6.6 1.3-30.8 1.3-36.5 0-2.5-.6-7-1.4-10-1.8s-6.5-1.2-7.7-1.9a10 10 0 0 0-4.2-1.2c-1 0-3.2-.6-4.8-1.4l-8.8-4.2c-3.3-1.5-7.6-4-9.6-5.6s-4.1-2.8-4.6-2.8c-2.9 0-23.3-24.2-23.3-27.7q-.1-1.2-.8-1.3c-.5 0-1.6-1.9-2.6-4.3l-3.7-8.4a20 20 0 0 1-1.9-5.7c0-.8-.4-1.8-1-2.1s-1-1.7-1-3.1-.9-4.2-2-6.3c-1.9-3.8-2.1-3.9-6.2-3.4-2.4.2-6.5.9-9.1 1.4a89 89 0 0 1-13 .9 90 90 0 0 0-15.2 1.5 91 91 0 0 1-15.2 1.5c-4.5 0-8.5.4-8.8 1s.1 3 1 5.5 1.5 6.1 1.5 8c0 1.8.4 3.6.9 4s1.3 2.6 1.7 5c.3 2.5 1 4.8 1.5 5.1s.9 1.5.9 2.7.7 3.5 1.5 5.1a14 14 0 0 1 1.5 3.8 45 45 0 0 0 4.1 9.8l1.5 3c.3.8.9 2.2 1.4 3l3 5.5c5 9.3 19.7 26.6 29 34 11 8.8 11.5 9.1 37 21.5a31 31 0 0 0 5 1.5c1.9.4 4 1.1 4.5 1.5s2.9 1.1 5.2 1.5 4.5 1.1 4.9 1.6c.3.5 1.9.9 3.6.9s5.7.6 8.7 1.4c11.1 2.8 23.1 3.8 50.6 4.3 19.2.3 29.4 0 32.5-.8 2.5-.6 8.3-1.5 13-2 10.5-1 20.9-2.8 23.2-4 .9-.5 3.6-1.2 5.9-1.5s5.4-1.3 6.8-2.1c1.4-.7 3.4-1.3 4.3-1.3s2-.5 2.3-1 1.3-1 2.2-1 5.5-2 10.2-4.4a80 80 0 0 0 18-10.4c1.4-1.2 3.3-2.4 4.1-2.7a138 138 0 0 0 29-33.5 78 78 0 0 0 8-17.6c1.8-1.8 4.4-12 6.9-27.4 1.3-7.9 1.3-22.4 0-30.5-.6-3.3-1.3-8.5-1.6-11.5s-1.1-6.4-1.9-7.5-1.4-3-1.4-4.2-.7-3.9-1.7-6c-2.6-6.1-7.8-16.8-8.3-17.3l-4.3-6.1a136 136 0 0 0-27.4-26.6 110 110 0 0 0-16.3-9.3l-9.3-4.5c-1.6-.8-3.6-1.5-4.6-1.5a8 8 0 0 1-3.7-1.5c-1-.8-2.7-1.5-3.7-1.5a11 11 0 0 1-4.5-1.4 53 53 0 0 0-12.7-4.3c-1.6-.3-3.4-.9-4-1.3-.5-.5-2.8-1.1-5-1.5s-4.4-1.1-5-1.5-2.7-1.1-4.9-1.4c-2.1-.4-4.6-1.1-5.5-1.6a23 23 0 0 0-6.3-1.5c-2.6-.3-5-1-5.3-1.6-.4-.5-2-.9-3.6-.9s-4.6-.7-6.6-1.5c-1.9-.8-5-1.5-6.7-1.5a15 15 0 0 1-5.6-1.5 15 15 0 0 0-5.6-1.5c-1.7 0-4.8-.7-6.7-1.5s-5-1.5-6.6-1.5-3.2-.4-3.5-.9c-.4-.5-2.5-1.2-4.8-1.6s-4.9-1.1-5.8-1.5l-7-2.4c-9.1-2.8-14.5-5-27.4-11.2a62 62 0 0 1-24.2-21.9 47 47 0 0 1-3.9-28.5c1.8-9 12.8-24.7 18.6-26.5q1.7-.7 1.9-1.4c0-.7 8.1-4.8 16.3-8.4 2.1-1 4.8-1.7 6-1.7s2.7-.4 3.3-1c1.1-1.1 9-2.5 22.4-4.1 9.6-1.2 38-.3 39.4 1.1.6.6 2.8 1 5.1 1s5.3.7 6.9 1.5c1.5.8 3.7 1.5 4.8 1.5s3.3.7 4.9 1.5l6.2 3.2c10 5.1 21 14.8 25.2 22.3a108 108 0 0 1 9.4 20.4c.5.3 1.2 2.6 1.5 5.1l.7 4.5h8.4c4.6 0 9.4-.5 10.7-1a203 203 0 0 1 26.3-1.8l24-.7-.3-6a111.2 111.2 0 0 0-45.1-77.2 81 81 0 0 0-17.1-9.9l-7.5-3.4c-5.9-2.8-14.1-5.5-21-7l-8-1.9a140 140 0 0 0-26-4.1 343 343 0 0 0-46.2-1.3M274 984.4c0 .8.5 1.8 1 2.1s1 1.9 1 3.4.5 3.2 1.1 3.8 1.4 2.6 1.9 4.4c1.1 4.6 3 9.8 4.6 13.1.8 1.4 1.4 3.5 1.4 4.6q0 2 .9 2.6c.5.4 1.2 2.4 1.6 4.6s1.1 4.2 1.6 4.6q.8.6.9 2.1c0 .8.6 2.9 1.3 4.6a81 81 0 0 1 4.4 12.7c.3 1.4 1.2 3.4 1.9 4.5a9 9 0 0 1 1.4 4.5c0 1.4.7 3.4 1.5 4.4s1.5 3 1.5 4.2q0 2.2.9 2.8c.5.3 1.2 2.1 1.5 4 .4 2 1.3 4.8 2.1 6.3a13 13 0 0 1 1.5 4.5q0 1.6.9 2.2c.5.3 1.1 1.8 1.4 3.3.5 3.2 2.5 8.9 4 11.8a24 24 0 0 1 1.8 5c.8 3.4 2.6 8.6 4.6 13.2.7 1.7 1.3 3.8 1.3 4.6s.7 2.8 1.5 4.3c.8 1.6 1.5 3.7 1.5 4.6s.5 2 1 2.3 1 1.5 1 2.7c0 1.1.6 3.4 1.4 5.1 3.3 7.7 3.9 9.4 4.6 12.2 1 3.5 2.8 8.7 4.7 13.2.7 1.7 1.3 3.8 1.3 4.6q0 1.5.9 2.1c.5.4 1.2 2.4 1.6 4.6s1.1 4.2 1.6 4.6q.8.6.9 2.2c0 .9.7 3 1.5 4.6a13 13 0 0 1 1.5 4.5c0 .9.7 2.9 1.5 4.5a13 13 0 0 1 1.5 4.1c0 .7.7 2.6 1.5 4.1.8 1.6 1.5 3.6 1.5 4.5s.7 3 1.5 4.5c.8 1.6 1.5 3.7 1.5 4.6q0 1.6.9 2.2c.5.4 1.2 2.4 1.6 4.6s1.1 4.2 1.6 4.6.9 1.5.9 2.8.7 3.1 1.5 4.2c.8 1 1.5 3 1.5 4.4s.6 3.4 1.4 4.5 1.6 3.1 1.9 4.5a81 81 0 0 0 4.4 12.7c.7 1.7 1.3 3.8 1.3 4.6q0 1.5.9 2.1c.5.4 1.2 2.4 1.6 4.6s1.1 4.2 1.6 4.6.9 1.3.9 2.2.7 3 1.5 4.6 1.5 3.8 1.5 5 .7 3.1 1.5 4.2c.8 1 1.5 2.8 1.5 4 0 1.1.7 2.9 1.5 4 .8 1 1.5 2.9 1.5 4s.7 3.5 1.5 5c.8 1.6 1.5 3.7 1.5 4.6q0 1.6.9 2.2c.5.4 1.2 2.4 1.6 4.6s1.1 4.2 1.6 4.6q.8.6.9 2.1c0 .8.6 2.9 1.3 4.6 2 4.8 3.8 9.8 4.7 13.6.5 1.8 1.3 3.8 1.9 4.4s1.1 2.3 1.1 3.8.4 3 .9 3.4 1.2 1.9 1.6 3.6 1.3 4.2 2.1 5.7 1.4 3.7 1.4 4.9.5 2.5 1 2.8 1 1.4 1 2.3.7 3 1.5 4.6a13 13 0 0 1 1.5 4.5c0 .9.7 2.9 1.5 4.5a14 14 0 0 1 1.5 3.8c0 .6.6 2.4 1.3 4.1 1.7 4 3.7 9.6 4.4 12.2l1.9 5.2a15 15 0 0 1 1.4 4.6c0 .8.7 2.8 1.5 4.3.8 1.6 1.5 3.7 1.5 4.6s.5 2 1 2.3 1 1.6 1 2.8.6 3.4 1.4 4.9 1.7 4 2.1 5.7 1.1 3.3 1.6 3.6.9 1.8.9 3.3.7 3.6 1.5 4.6a8 8 0 0 1 1.5 3.7c0 .9.7 3 1.5 4.5.8 1.6 1.5 3.9 1.5 5.1s.4 2.4.9 2.8 1.3 2 1.7 3.7 1 3.9 1.4 4.8c1.1 2.3 3.1 8.1 4 11.9.5 1.8 1.3 3.8 1.9 4.4s1.1 2.3 1.1 3.8.6 3.2 1.4 3.8 1.6 2.6 1.9 4.4c.4 3.2 1.8 7.3 4.4 13.4a18 18 0 0 1 1.3 4.2c0 .6.4 1.9.9 2.9a77 77 0 0 1 4.1 12.1c.5 1.8 1.3 3.8 1.9 4.4s1.1 2.2 1.1 3.7c0 1.4.7 3.4 1.5 4.4a8 8 0 0 1 1.5 3.7c0 .9.7 3 1.5 4.5.8 1.6 1.5 3.6 1.5 4.5s.7 3 1.5 4.5c.8 1.6 1.5 3.7 1.5 4.6s.4 1.9.9 2.2 1.2 2.4 1.6 4.6 1.1 4.2 1.6 4.6q.8.6.9 2.1c0 .8.6 2.9 1.3 4.6 2 4.7 3.8 9.9 4.4 12.6.5 2.2.9 2.3 6.2 1.6l17.6-1.5c6.6-.4 14.3-1.3 17-1.8 2.8-.6 8.9-1.1 13.7-1.1 4.8-.1 9.9-.6 11.5-1.2s8.6-1.4 15.8-1.9c7.1-.6 16.2-1.4 20-1.9s9.7-1 13.1-1c5.9-.1 6.1-.2 7.7-3.6.9-2 1.7-4.4 1.7-5.5s.4-2.1.9-2.5 1.3-2 1.7-3.8c.6-3 2.5-8 4.5-11.9.5-1 .9-2.6.9-3.5 0-1 .7-3.1 1.5-4.7a13 13 0 0 0 1.5-4.5c0-.9.6-2.5 1.4-3.6s1.6-3.1 1.9-4.5a81 81 0 0 1 4.4-12.7c.7-1.7 1.3-3.7 1.3-4.5q.1-1.3.8-2.4c.5-.5 1.9-4.3 3.2-8.4 1.2-4.1 2.7-7.9 3.1-8.5.5-.5.9-1.8.9-3a8 8 0 0 1 1.4-4c.7-1.1 1.6-3.1 1.9-4.5l1.7-6c2.8-7.7 4.2-11.6 5-13 .4-.9 1.1-3 1.4-4.8.4-1.7 1.2-3.4 1.7-3.7q.8-.7.9-2.7c0-1.1.6-3.4 1.4-5.1l1.9-5.2c.3-1.1 1.5-4.5 2.7-7.5a68 68 0 0 0 2.7-8c.3-1.4.9-3 1.3-3.5s1.8-4.4 3-8.5a52 52 0 0 1 3.2-8.5q.7-1 .8-2.3c0-.8.6-2.8 1.4-4.5l1.9-5.2c.9-3.3 5.7-16.8 7.3-20.2.8-1.7 1.4-3.5 1.4-4.1s.7-2.3 1.5-3.8c.8-1.6 1.5-3.9 1.5-5.1s.5-2.5 1-2.8 1-1.4 1-2.3.7-3 1.5-4.6 1.5-3.4 1.5-4.2c0-1.2.9-3.5 4.5-11.9.7-1.7 1.6-4.1 1.8-5.5.6-3.2 2.6-8.8 4.3-12.2.8-1.4 1.4-3.5 1.4-4.6 0-1.2.4-2.4 1-2.7q1-.6 1-2.2c0-.8.6-2.9 1.4-4.6l1.9-5.2c.3-1.1 1.5-4.5 2.7-7.5a68 68 0 0 0 2.7-8c.3-1.4 1-3 1.5-3.7a13 13 0 0 0 1.8-4.5c.9-3.7 2.7-8.8 4.7-13.5.7-1.7 1.3-3.8 1.3-4.6q.1-1.6 1-2.2c.6-.3 1-1.4 1-2.3s.7-3 1.5-4.6a13 13 0 0 0 1.5-4.5c0-.9.7-2.9 1.5-4.5a13 13 0 0 0 1.5-4.5c0-.9.6-2.5 1.4-3.6s1.6-3.1 1.9-4.5a80 80 0 0 1 3.8-11.5c.5-1.1 1.8-4.9 3-8.5s2.5-6.9 3-7.4.9-1.9.9-3.1.7-3 1.5-4.1 1.5-3 1.5-4.4.6-3.4 1.4-4.5 1.6-3.1 1.9-4.5a81 81 0 0 1 4.4-12.7c.7-1.7 1.3-3.8 1.3-4.6q0-1.5.9-2.1c.5-.4 1.2-2.4 1.6-4.6s1.1-4.2 1.6-4.6q.8-.6.9-2.2c0-.9.7-3 1.5-4.6a13 13 0 0 0 1.5-4.5c0-.9.6-2.5 1.4-3.6s1.6-3.1 1.9-4.5l1.7-6c2.8-7.7 4.2-11.6 5-13 .4-.9 1.1-3 1.4-4.8.4-1.7 1.2-3.4 1.7-3.7q.8-.7.9-2.7c0-1.1.6-3.4 1.4-5.1l1.9-5.2a493 493 0 0 0 6.8-19 71 71 0 0 1 2.9-7.6c.5-.9 1.2-3.3 1.5-5.3s1.1-3.6 1.5-3.6 1-1.2 1.3-2.8c.5-2.8 2-7.4 4.2-12.7 1.6-4.1 3.6-9.6 4.2-12l1.9-5.2a15 15 0 0 0 1.4-4.6q0-1.5.9-2.1c.5-.4 1.2-2.4 1.6-4.6s1.1-4.2 1.6-4.6q.8-.6.9-2.1c0-.8.6-2.9 1.4-4.6l1.9-5.2c.3-1.1 1.5-4.5 2.7-7.5s2.4-6.4 2.7-7.5l1.9-5.2c.8-1.7 1.4-4 1.4-5.1s.4-2.2.9-2.4q.9-.5 1.3-2.8l.3-2.5-55.6-.3-55.7-.2-2.1 3.5c-1.2 2-2.1 4.4-2.1 5.4s-.7 3.2-1.5 4.7c-.8 1.6-1.5 3.7-1.5 4.6s-.4 1.9-.9 2.2-1.2 2.2-1.6 4.2c-.3 2-1 4.4-1.4 5.3-1 2-3 7.7-4.1 11.6-.8 2.8-1.6 5.3-4.5 13.5l-3.1 9.5c-1 3.3-2.1 6.4-2.5 7s-1 2.7-1.4 4.8-1.1 4-1.6 4.3q-.8.6-.9 2.2c0 .9-.7 3-1.5 4.6s-1.5 3.8-1.5 5c0 1.1-.7 3-1.5 4-.8 1.1-1.5 3-1.5 4.2a14 14 0 0 1-1.4 5.1c-.8 1.5-2.2 5.5-3.2 8.8s-2.1 6.4-2.5 7-1 2.7-1.4 4.8-1.1 4-1.6 4.3-.9 1.5-.9 2.7-.7 3.5-1.5 5.1-1.5 3.8-1.5 5.1-.7 2.8-1.5 3.5a6 6 0 0 0-1.5 3.9c0 1.5-.7 3.6-1.5 4.7-.8 1-1.5 3-1.5 4.4s-.7 3.4-1.5 4.4-1.5 3-1.5 4.2-.7 3.5-1.5 5c-.8 1.6-1.5 3.9-1.5 5.1s-.4 2.4-.9 2.7-1.2 2.4-1.6 4.6-1.1 4.2-1.6 4.6-.9 1.5-.9 2.8-.7 3.1-1.5 4.2c-.8 1-1.5 3.1-1.5 4.5a9 9 0 0 1-1.5 4.5c-.8 1-1.5 2.7-1.5 3.6 0 1-.6 3.2-1.4 5s-2.2 6-3.2 9.3-2.2 6.4-2.6 6.9-.8 1.9-.8 3a14 14 0 0 1-1.5 5 13 13 0 0 0-1.5 4.3c0 .8-.6 2.9-1.3 4.6-1.8 4.3-3.7 9.5-4.7 13.2a397.4 397.4 0 0 0-8 24l-4.5 13.5c-3 8.6-3.7 10.7-4.5 13.5-1 3.7-2.9 8.9-4.7 13.2-.7 1.7-1.3 4-1.3 5.1 0 1.2-.4 2.4-1 2.7q-.9.6-1 2.2c0 .8-.6 2.9-1.3 4.6-1.8 4.3-3.7 9.5-4.7 13.2-.8 2.8-1.6 5.3-4.5 13.5l-3.1 9.5c-1 3.3-2.1 6.4-2.5 7s-1 2.7-1.4 4.8-1.1 4-1.6 4.3-.9 1.5-.9 2.7-.6 3.4-1.4 4.9-1.7 4-2.1 5.7-1.1 3.3-1.6 3.6-.9 1.8-.9 3.3-.7 3.6-1.5 4.6a9 9 0 0 0-1.5 4.5c0 1.4-.7 3.5-1.5 4.5-.8 1.1-1.5 3-1.5 4.2s-.7 3.5-1.5 5c-.8 1.6-1.5 3.9-1.5 5.1q0 2.1-1 2.3c-.5 0-1 1-1 2.2s-.7 3.6-1.5 5.2c-.8 1.5-1.5 3.7-1.5 4.8s-.6 3.2-1.4 4.6a55 55 0 0 0-4.3 12.5c-.3 1.5-1 3-1.6 3.4-1.5.9-5.7-4.4-5.7-7.2 0-1.3-.4-2.7-1-3s-1-1.3-1-2.2c0-.8-.6-2.9-1.4-4.6a97 97 0 0 1-4.6-13.2c-.5-1.7-1.8-5.5-3-8.5s-2.5-6.9-3-8.5c-1-3.7-3-9.5-4-11.5l-2.9-8.7a32 32 0 0 0-3.2-7.8c-.5-.4-.9-2.1-.9-3.9 0-1.9-.7-3.9-1.5-4.6a6 6 0 0 1-1.5-3.9c0-1.4-.7-3.5-1.5-4.5a9 9 0 0 1-1.5-4.7c0-1.5-.4-3-.9-3.3a32 32 0 0 1-3.2-7.8 45 45 0 0 0-3.1-8.3c-.4-.5-.8-1.8-.8-3s-.7-3.3-1.5-4.9a13 13 0 0 1-1.5-4.5c0-1-.7-2.6-1.5-3.7-.8-1-1.5-3-1.5-4.4s-.7-3.4-1.5-4.4a8 8 0 0 1-1.5-3.7c0-.9-.7-3-1.5-4.5-.8-1.6-1.5-3.6-1.5-4.5s-.7-3-1.5-4.5c-.8-1.6-1.5-3.6-1.5-4.5q0-1.6-.6-2.2c-.7-.6-5.8-14.8-7.4-20.2a88 88 0 0 0-4.6-12.7c-.8-1.4-1.4-3.5-1.4-4.6s-.7-3.3-1.5-4.8c-.8-1.6-1.5-3.7-1.5-4.6q0-1.6-.9-2.2c-.5-.3-1.2-2.2-1.6-4.2-.3-2-1-4.4-1.5-5.3a138 138 0 0 1-6.7-19.1c-.3-1.4-1.2-3.4-1.9-4.5a8 8 0 0 1-1.4-4.1c0-1.2-.7-3.5-1.5-5-.8-1.6-1.5-3.7-1.5-4.6q0-1.5-.9-2.2c-.5-.4-1.2-2.4-1.6-4.6s-1.1-4.2-1.6-4.6q-.8-.6-.9-2.1c0-.8-.6-2.9-1.4-4.6l-1.9-5.2-4.2-12c-2-5.5-3.9-11.1-4.2-12.5s-.9-3-1.3-3.5a15 15 0 0 1-1.5-4.8c-.4-2-1.1-4-1.6-4.3q-.8-.6-.9-2.2c0-.9-.7-3-1.5-4.6s-1.5-3.8-1.5-5.1-.7-2.8-1.5-3.5a6 6 0 0 1-1.5-3.9c0-1.4-.7-3.5-1.5-4.5a9 9 0 0 1-1.5-4.7c0-1.5-.4-3-.9-3.3s-1.9-3.8-3.1-7.8-2.6-8-3-8.8-1.1-3-1.4-4.8c-.4-1.7-1.2-3.4-1.7-3.7q-.8-.8-.9-2.9c0-1.2-.7-3.1-1.5-4.2-.8-1-1.5-3-1.5-4.4s-.7-3.4-1.5-4.4a9 9 0 0 1-1.5-4.5c0-1.4-.7-3.5-1.5-4.5a8 8 0 0 1-1.5-3.7c0-.9-.7-3-1.5-4.5-.8-1.6-1.5-3.7-1.5-4.6q0-1.6-.9-2.2c-.5-.4-1.2-2.4-1.6-4.6s-1.1-4.2-1.6-4.6-.9-1.5-.9-2.8-.7-3.1-1.5-4.2c-.8-1-1.5-3-1.5-4.4s-.7-3.4-1.5-4.4a8 8 0 0 1-1.5-4c0-1.2-.7-3-1.5-4-.8-1.1-1.5-3-1.5-4.2s-.7-3.5-1.5-5c-.8-1.6-1.5-3.7-1.5-4.6s-.4-1.9-.9-2.2-1.2-2.1-1.5-4q-.6-3.4-2.9-4c-1.2-.3-27.5-.6-58.4-.6-48.4 0-56.3.2-56.3 1.4m590.3-.7c-1 .4-1.3 60.6-1.3 296.3 0 162.7.4 296.1.8 296.4s3.7 0 7.3-.5 11.8-1.4 18.4-1.9 14-1.3 16.5-1.9 8.2-1 12.7-1.1c4.5 0 9.4-.5 11-1.1s7.5-1.3 13.3-1.5c5.8-.3 12.8-.9 15.5-1.5 2.8-.6 10.2-1.4 16.5-1.9l24.5-2c7.2-.6 13.9-1.5 15-2s7.6-1.1 14.5-1.4 14.1-1 16-1.6c1.9-.5 7.5-1 12.5-1 4.9-.1 11.7-.7 15-1.5s10.2-1.5 15.3-1.5 10.3-.5 11.5-1.2 7.8-1.3 14.7-1.6c6.9-.2 13-.9 13.7-1.4s7.2-1.2 14.5-1.5 13.8-.9 14.3-1.3 6.9-1.1 14-1.5c7.2-.4 13.5-1 14-1.4 1-.6 20.2-2.5 41.5-4 6.9-.5 14.5-1.4 17-2a73 73 0 0 1 13.2-1.1c4.8 0 9.9-.5 11.5-1.1a91 91 0 0 1 15.8-1.9c7.2-.5 15-1.3 17.5-1.9s8.4-1 13.2-1.1c4.8 0 9.7-.4 11-.9s5.8-1.3 10.1-1.6l7.7-.7v-37.4c0-32.1-.2-37.5-1.5-38-.8-.3-7.2-.1-14.2.6l-24.8 2.1c-6.6.5-13.5 1.4-15.5 1.9-1.9.5-8.1 1-13.8 1-5.9 0-11.3.5-12.5 1.2s-7.8 1.5-14.7 1.9-14.5 1.2-17 1.8-8.8 1-14 1.1c-5.4 0-10.1.5-10.7 1.1-.5.5-6.8 1.4-13.9 1.9-20.2 1.4-37.4 3-42.9 4-5.3 1-22.5 2.6-41 4-6 .4-13 1.3-15.5 1.9s-8.9 1.1-14.3 1.1-10.8.5-12 1.1-7.3 1.4-13.6 1.6c-6.4.3-12.8.9-14.3 1.5s-8.5 1.4-15.5 1.9-19.8 1.5-28.3 2.3c-12 1.2-15.6 1.2-16.2.3-.4-.7-.8-45.1-.8-98.8 0-76.5.3-97.9 1.3-99.1 1-1.4 5.2-1.8 26.2-2.8l44-1.6c10.5-.2 28.9-1.1 40.9-1.9s30.5-1.5 40.9-1.5c11.4 0 19.6-.4 20.8-1.1 1.2-.6 14.7-1.4 32.7-2 16.9-.5 35.2-1.3 40.7-1.8s19.8-.9 31.7-1c13.3-.1 21.9-.5 22.3-1.1s6.2-1 14.2-1h13.6l-.8-16.8-1.4-36.7-.6-20-25.5.2c-14 .1-32.4.6-40.8 1.2-8.5.6-27.1 1.1-41.3 1.1a166 166 0 0 0-28.1 1.1c-1.3.7-15.7 1.4-39.2 2-20.4.5-42.5 1.3-49.1 1.8s-23.8 1-38.2 1c-14.4.1-26.4.5-26.7.9-.9 1.5-34.6 2.5-36.2 1.1-1.2-1-1.4-12.3-1.4-71.3 0-49.4-.3-70.5-1.1-71.3q-1.2-1 0-3.2l1.2-2.1 176.2-.2 176.2-.3v-78l-231.5-.2c-127.3-.1-232.1.1-232.7.4m748.6.3c-.8.5-8.7 1.2-17.5 1.6-8.7.3-18.1 1.2-20.8 2s-6.9 1.4-9.2 1.4a24 24 0 0 0-7.7 1.5c-2 .8-5.2 1.5-7.1 1.5s-3.7.4-4.1.9-2.7 1.3-5.3 1.7a19 19 0 0 0-5.7 1.4c-.5.5-2.7 1.1-4.7 1.5-2.1.4-3.8 1.1-3.8 1.6q-.2.8-2.1.9c-3.5 0-23.4 9.5-37.2 17.7a74 74 0 0 1-9.7 5.3q-1 0-1 .9c0 .5-2.1 2.3-4.7 3.9-2.7 1.6-5.9 4-7.3 5.2l-6 4.8c-4 3-25.8 24.6-28 27.8l-8.7 11.7c-4 5.2-7.3 9.7-7.3 10s-1.2 2.5-2.7 4.9l-4 6.3c-1.5 2.6-10 20-11.8 24.3a112 112 0 0 0-7.4 19.7c-.4 1.7-1.3 4-1.9 5.2-.7 1.2-1.2 3-1.2 4.1s-.7 3.3-1.5 4.8c-.8 1.6-1.5 4.3-1.5 6.1s-.4 3.4-.9 3.7-1.2 3.4-1.6 6.8a237.7 237.7 0 0 0-5.6 47c-1.3 26.6 1.3 76.8 4.1 78.8.4.3 1.1 3.5 1.4 7.2.4 3.7 1.2 7 1.7 7.3.5.4.9 2.3.9 4.3 0 2.1.6 4.6 1.4 5.7s1.6 3.6 1.8 5.5a45 45 0 0 0 1.8 7c2.6 7.1 4.3 11.6 5.6 14.7.8 1.7 1.4 3.6 1.4 4.2s.4 1.9.9 2.9l7.2 14.7c5.3 11 13.2 25.3 16.1 29l7 9.5c6.3 8.6 28.4 32 30.3 32 .5.1 3.7 2.5 7 5.5a44 44 0 0 0 11.4 8.3c2 1.6 4.3 3.2 5.1 3.5.8.4 2.9 1.6 4.5 2.7a65 65 0 0 0 6.5 3.9c.3.3 5 2.8 10.5 5.4l12.8 6.3c1.6.8 3.7 1.4 4.7 1.4s2.1.4 2.5.9 1.9 1.2 3.6 1.6 4.2 1.3 5.7 2.1 3.6 1.4 4.8 1.4 2.4.4 3 .9q1.5 1.3 15.9 4.2c2.8.5 5.9 1.4 7 1.9s4.5 1.1 7.5 1.5 5.9 1 6.5 1.4c.5.5 5.6 1.1 11.1 1.4s11.1 1 12.2 1.6c2.7 1.4 59.5 1.5 62.2.1 1-.5 6.5-1.4 12.2-1.9s12.1-1.4 14.3-2 5.9-1.1 8.2-1.1 4.4-.4 4.8-.9 2.7-1.3 5.3-1.6 5.4-1 6.2-1.4c.9-.5 3.9-1.2 6.8-1.6s5.4-1.1 5.8-1.6 1.6-.9 3-.9a11 11 0 0 0 4.7-1.2c1.2-.6 3.5-1.5 5.2-1.9 5.7-1.4 16.5-5.4 26.7-9.8a55 55 0 0 0 12-5.9l7.3-4.3c1.2-.5 18.8-12.1 19.5-12.9l3.6-3a271 271 0 0 0 19.6-16.9c4.3-4.1 8.8-8.1 9.9-8.9a65 65 0 0 0 5.7-5.1l3.7-3.6.3-96.2.2-96.3-2.2-.5c-1.3-.3-48-.4-103.8-.3l-101.5.3-.3 33.2-.2 33.3h58.4c32.1 0 59.1.3 60 .6 1.4.5 1.6 5.1 1.6 41v40.3l-3.7 2.8a401 401 0 0 0-26.5 24.5 181 181 0 0 1-25 18.4 77 77 0 0 1-18.7 7.4c-.9 0-2.9.7-4.5 1.5-1.5.8-3.8 1.5-5.1 1.5s-3.9.7-5.8 1.5c-2 .8-5.1 1.5-6.9 1.5s-5.1.7-7.3 1.5c-2.6.9-8.1 1.4-15.3 1.5-7.1 0-12 .5-13.2 1.2-1.6 1-2.4 1-4 0a40 40 0 0 0-12.7-1.2c-6 0-12.6-.5-14.8-1.1s-6.4-1.4-9.4-1.9c-2.9-.5-5.8-1.3-6.4-1.9s-2.6-1.1-4.3-1.1c-1.8 0-3.5-.4-3.9-.9s-2-1.3-3.7-1.7-3.9-1-4.8-1.5l-9-4.4a130 130 0 0 1-30.1-19.1c-3.8-3-17.1-16.5-20.4-20.8a181 181 0 0 1-14-21.1 15 15 0 0 0-2.7-4.3q-.8-.5-.8-1.5a39 39 0 0 0-3-7.2 56 56 0 0 1-4.3-10.8c-2.7-6.3-4-10.3-4.4-13.7a94.9 94.9 0 0 1-5.4-24c-.6-3.6-1.4-8.1-1.9-10-1.8-6.8-3.3-39.7-2.6-56.1.9-23.3 1.6-33.1 2.6-35.4.5-1.1 1.1-4.7 1.5-8s1-6.4 1.5-6.9 1-2.5 1-4.4.6-4.8 1.4-6.5 1.6-4.3 1.9-5.7c1.1-5.3 4.1-12.7 10.3-25.3 5.7-11.3 5.6-11.2 11.1-19.4 5.8-8.7 14.8-18.3 25.3-27.3 6.2-5.2 20.9-15 22.6-15 .6 0 1.7-.7 2.4-1.5s2.1-1.5 3.1-1.5q1.8-.1 1.9-1t1.1-1c.6 0 2.5-.6 4.2-1.4q5.3-2.2 15.5-6c2.3-.9 5.2-1.6 6.5-1.6s4-.7 6.2-1.5a36 36 0 0 1 9.1-1.5c2.7 0 5.5-.5 6.2-1.2 1.8-1.8 48.6-1.8 50.3-.1.7.7 3.5 1.3 6.2 1.3s6.3.6 8 1.4 4.6 1.6 6.2 1.9a106.5 106.5 0 0 1 34.5 15.7c.3.3 1.8 1.2 3.5 2 4.5 2.3 24.7 22.8 29 29.5a88 88 0 0 1 10.9 19.7l3.1 6.8h5.5c3 0 7.3-.7 9.5-1.5a36 36 0 0 1 9.1-1.5c2.7 0 5.4-.4 6-1s4.1-1.4 7.9-1.9l14.5-2.2c4.1-.6 8.3-1.5 9.2-2 1-.5 3.3-.9 5.1-.9s5.6-.6 8.3-1.4 6.3-1.6 7.9-1.8c2.8-.3 3-.6 2.7-3.8a11 11 0 0 0-1.3-4.5 4 4 0 0 1-.9-2.5c0-.8-.7-2.8-1.5-4.4a13 13 0 0 1-1.5-4.3c0-.8-.6-2.7-1.4-4.1l-5-10.2a114 114 0 0 0-10.8-19.1 17 17 0 0 1-2.8-4.3c0-2.6-23.6-27.7-31.9-33.8-2.9-2.2-6.1-4.8-7-5.7a31 31 0 0 0-5.2-3.5l-3.9-2.5c-1.6-1.8-20.5-11-30-14.6-2.5-.9-5.2-2.1-6-2.5a31 31 0 0 0-5-1.5c-1.9-.4-3.9-1.1-4.5-1.5-.5-.4-3-1-5.5-1.4-2.4-.4-4.9-1.1-5.5-1.5a23 23 0 0 0-6.9-1.5 24 24 0 0 1-7-1.5c-.6-.5-4.3-1.1-8.3-1.4s-8.1-1.1-9.2-1.6-5.9-1.1-10.8-1.2c-4.8 0-12.8-.5-17.8-1-14-1.5-31.8-1.9-33.6-.9m483.1 0c-.9.5-8.3 1.2-16.5 1.6a121 121 0 0 0-18.9 2c-2.1.8-6 1.4-8.7 1.4s-5 .4-5.4.9c-.3.6-2.7 1.3-5.3 1.6a23 23 0 0 0-6.3 1.5c-.9.4-3.7 1.1-6.3 1.5s-4.9 1.1-5.2 1.6q-.7.8-2.2.9c-.9 0-3 .7-4.6 1.5a14 14 0 0 1-3.8 1.5 129.2 129.2 0 0 0-16.8 7.1l-6 3.1a31 31 0 0 0-5 2.9l-4.5 2.9a29 29 0 0 0-4.5 3l-4.5 3.1c-5.1 3.4-10.8 8.3-15.9 13.6-2.2 2.4-4.6 4.3-5.3 4.3q-1.2.1-1.3.8c0 .5-2.7 3.7-6.1 7.3a216 216 0 0 0-38.5 58.7l-2.8 6.5c-.7 1.7-2.2 5.9-3.1 9.2l-3.1 9.8c-.8 2-1.4 4.8-1.4 6.2 0 1.3-.4 2.6-.9 2.9s-1.2 3.4-1.6 6.8a223.8 223.8 0 0 0-5.6 43.8c-1 17-.4 71.5.9 73.4.4.6 1.2 4.9 1.9 9.6 1.1 8.7 2.9 16.9 5.8 27.5l2.5 9.4c.4 1.8 1.3 3.8 1.9 4.4s1.1 2.1 1.1 3.3.8 3.7 1.7 5.6l3 6c.7 1.4 1.3 3.5 1.3 4.6s.4 2.2.9 2.4 2 2.8 3.4 5.8c1.5 3 4 7.7 5.7 10.5l3.9 7c.5 1.1 1.7 2.9 2.8 4a220 220 0 0 0 50.3 50.5c.3.3 2.3 1.7 4.5 3l4.5 2.9c.3.4 2.9 1.8 5.8 3.3l8 4.2c4 2.2 11.9 5.6 13.1 5.6q1 0 1.1.9t2.8 1.4a64 64 0 0 1 13.4 4.7c1 .6 3 1 4.5 1 1.6 0 3.7.7 4.7 1.5 1.1.8 3.8 1.5 6.1 1.5s4.5.4 5.1 1 3.2 1.2 5.9 1.5 7.3 1 10 1.6c12.2 2.5 58.4 4.8 62 3 1.1-.5 7.8-1.2 15-1.6 7.1-.3 13.4-1 13.9-1.5s3-1 5.5-1c2.6 0 6.6-.6 9.1-1.4 4.3-1.4 9.2-2.7 17-4.6 3.8-.9 8.7-2.6 13.7-4.7 1.7-.7 3.7-1.3 4.5-1.3a7 7 0 0 0 3.2-1.5 8 8 0 0 1 3.8-1.5q1.7-.1 1.8-1t1.1-1c1.6 0 9.7-3.9 10.4-5q.6-.9 2-1c.8 0 4.3-2 7.9-4.5s6.8-4.5 7.1-4.5c4 0 44.5-38.2 44.5-41.9 0-.3 1-1.7 2.3-3.1s3.4-4.3 4.7-6.5 2.7-4.2 3-4.5c1.8-1.3 16-28.8 16-30.9 0-.6.4-1.9 1-2.9a98 98 0 0 0 7.1-20.2c.5-2.4 1.4-4.9 1.9-5.4s1-2.5 1-4.4c0-1.8.5-4.3 1.2-5.5s1.5-4.8 1.9-8.2 1.2-8 1.8-10.5 1-7 1.1-10.1c0-3 .5-6 1.2-6.7 1.6-1.6 1.6-66.7 0-73.7-1-4.6-1.9-11-4-28.2-.4-3.4-1.3-6.8-2-7.5-.6-.6-1.2-3-1.2-5.3s-.5-4.6-1.1-5.2a13 13 0 0 1-1.9-5q-1.2-5.8-4.7-14c-.7-1.7-1.3-3.5-1.3-3.9 0-2.1-15-32.4-18.3-36.8l-7-9.6c-8.2-11.3-8.7-11.8-19.7-22.8-5.2-5.2-14-12.8-19.5-16.9l-11-8.1a197 197 0 0 0-42.1-20.7c-1.6-.8-3.9-1.5-5.1-1.5s-2.4-.4-2.7-.9-2.4-1.2-4.6-1.6-4.2-1.1-4.6-1.6-2.2-.9-4.2-.9-5-.7-6.6-1.5-4.9-1.5-7.5-1.5c-2.5-.1-6.4-.7-8.6-1.5a40 40 0 0 0-11-1.5c-3.8-.1-10.8-.6-15.5-1.2a124 124 0 0 0-29-.8m33.5 63a134 134 0 0 1 59.5 22c.3.3 3.4 2.8 7 5.5a121 121 0 0 1 25.2 26.6c.8.8 2.8 3.6 4.4 6.4l4.1 7c.7 1.1 1.5 2.7 1.8 3.5 1.3 3.2 3.7 8.6 5.1 11.3.8 1.6 1.4 3.4 1.4 4.2 0 .7.7 2.6 1.5 4.1.8 1.6 1.5 3.9 1.5 5.1s.4 2.4.9 2.7 1.2 3 1.6 6.1c.3 3 1.1 5.7 1.6 6 .5.4.9 2.6.9 5s.5 5.6 1.1 7.2c1.7 4.2 3.1 26.3 3.2 47.3a297 297 0 0 1-2.6 45.8c-.4.6-1.2 3.9-1.7 7.4a79 79 0 0 1-4 18c-.6 1-1 2.7-1 3.9s-.6 3.5-1.4 5.2l-3.1 7.7c-1.9 4.8-7.8 17.1-9.8 20.5a149 149 0 0 1-37.7 41.7 131 131 0 0 1-27.8 14.8q-1.1 0-1.2 1c0 .5-1 1-2.2 1s-3.6.7-5.2 1.5c-1.5.8-4 1.5-5.5 1.5-1.4.1-3.7.7-5.1 1.5s-5.2 1.4-8.6 1.5c-3.4 0-6.5.5-7.2 1.2-1 1-6 1.3-18.2 1.3s-17.2-.3-18.2-1.3c-.6-.6-3.6-1.2-6.5-1.2-3 0-7-.7-9-1.5-1.9-.8-4.6-1.5-5.8-1.5s-3.6-.7-5.1-1.5c-1.6-.8-3.9-1.5-5.1-1.5q-2.1 0-2.3-.9c0-.5-1.4-1.3-3.2-1.6q-4.1-1-16-7.7a191 191 0 0 1-19.9-14.9 13 13 0 0 0-3.8-2.9c-.9 0-3-2.3-10.6-11.4l-5-6a112 112 0 0 1-10.5-16.1l-2.9-5-3.5-7.7a32 32 0 0 1-2.6-7.2c0-.8-.4-1.8-1-2.1s-1-1.4-1-2.3-.7-3-1.5-4.6-1.5-4-1.5-5.5c0-1.4-.7-3.9-1.5-5.5-.8-1.5-1.5-4.3-1.5-6.1s-.7-5.2-1.5-7.5-1.5-6.8-1.5-9.9-.5-6.2-1.2-6.9c-1.8-1.8-2.4-51.2-.8-60.7.6-3.9 1.5-10.8 1.9-15.5s1.1-9.2 1.6-10 1.3-3.8 1.6-6.5c.8-5.5 2.7-13.1 3.9-15.5a31 31 0 0 0 1.5-5c.4-1.9 1.1-4.1 1.6-5l2.4-5.5c3.1-7.5 8-17 9.3-17.8.6-.4 1.2-1.5 1.2-2.3 0-2.2 9.7-14.8 17.3-22.6 6-6.1 14.1-13.1 19.6-16.8 8.7-6 29.4-16 33.1-16 1 0 2.1-.4 2.4-.9.4-.5 2.9-1.2 5.6-1.6s5.2-1.1 5.6-1.6 2.4-.9 4.7-1 7.6-.6 11.7-1.4c10.8-1.9 25.7-1.7 39.5.5m339.5 412.5c-4.7.7-13.9 1.4-20.5 1.4-6.6.1-13.8.6-16 1.1a196 196 0 0 1-22.5 2 494 494 0 0 0-26 1.9c-4.1.6-9.9 1-12.7 1.1h-5.3v3.8c0 3.6.2 3.8 4.5 5 2.5.7 6 1.2 7.9 1.2 1.8 0 5.3.7 7.6 1.5s6.2 1.5 8.6 1.5 5.5.5 7.1 1.1 5.7 1.5 9.3 2c13.1 1.8 23.5 3.6 25 4.1 1.8.8 12.6 2.5 22.7 3.8 3.9.4 8.7 1.3 10.5 1.9s6.3 1.3 10 1.7 7 1 7.3 1.5c.4.5 2.5.9 4.8.9s6.4.7 9.1 1.5a40 40 0 0 0 9.3 1.5c2.4 0 5.3.4 6.3 1s5.2 1.4 9.2 2a241 241 0 0 1 24.8 4.2c.8.4 4.3.9 7.8 1.2s7.1 1 8.2 1.6c2.4 1.3 9.2 1.3 12.2 0 1.3-.5 8.4-1.5 15.8-2l27.5-2.5 25.5-2.4c6.3-.5 13.5-1.4 16-2s8-1.1 12.3-1.1c7.5 0 20.7-2.5 20.7-3.9 0-.4-1.2-1.9-2.7-3.2a28 28 0 0 0-15.4-5.9c-2 0-5.8-.7-8.5-1.5s-7-1.5-9.5-1.5c-2.6 0-6.6-.7-8.9-1.5s-6.2-1.5-8.6-1.5-5.5-.5-7.1-1.1-7.1-1.5-12.3-2l-18-1.8a93 93 0 0 1-17-3.4c-8.1-2.4-14.5-3.6-30.5-5.6-3.8-.5-8.3-1.4-9.8-2-1.6-.6-4.8-1.1-7.2-1.1s-5.6-.5-7.2-1.1a53 53 0 0 0-10.3-1.9c-4.1-.4-9.3-1.3-11.5-1.9-5.4-1.4-32-1.2-42.5.4m-192 16.6a516 516 0 0 1-25 1.8c-9.6.6-20 1.5-23 2s-10.9 1-17.5 1.1c-6.6 0-13.8.5-16 1s-10.9 1.3-19.2 1.7l-15.3.6v3.7c0 4.8 1.4 6 7.6 6 2.8 0 6.8.7 8.7 1.5 2 .8 5.6 1.5 7.9 1.5s6.5.7 9.2 1.5 6.6 1.5 8.7 1.5 4.8.4 6.1 1 5.5 1.4 9.3 1.9l15.5 2.5 15.5 2.7c3.8.6 7.7 1.5 8.7 2s3.7.9 6.1.9 6.6.7 9.3 1.5 6.5 1.5 8.5 1.5 5.6.7 7.9 1.5 6.2 1.5 8.7 1.5 5.3.5 6.4 1.1 5 1.4 8.7 1.9c14.6 2 23.1 3.5 23.8 4.2.4.5 2.5.8 4.7.8 2.1 0 6.9.6 10.6 1.4s9.5 2 13.1 2.6l9.7 1.6c1.7.3 4.8.1 6.8-.6s8.9-1.6 15.3-2c18.7-1.4 35.3-3 40.7-4s26.6-3 41.5-3.9a53 53 0 0 0 10.8-1.4c.7-.5 1.2-3 1.2-6.1v-5.3l-6.9-.6c-3.9-.3-7.9-1.1-9-1.6s-3.9-1.1-6.3-1.1-6.1-.5-8.3-1.1-6.7-1.4-10-1.8c-5.6-.7-11.2-1.7-24.5-4.3-3-.6-8-1.4-11-1.8a387 387 0 0 1-24-4c-4.7-1.2-15.8-2.9-25.2-3.9-4.2-.5-8.2-1.3-9-1.7a28 28 0 0 0-7.3-1.5c-3.3-.3-8.9-1.1-12.5-1.8a348 348 0 0 0-24-4.1c-3.6-.5-8.5-1.4-11-1.9a96 96 0 0 0-26 0m-194 20.5a180 180 0 0 1-19.1 1.4c-5.8 0-15 .7-20.5 1.5s-14.7 1.5-20.5 1.5-13.1.5-16 1-13.2 1.4-22.7 1.9a111 111 0 0 0-18.3 1.8c-.6.6-.9 2.6-.7 4.4.3 3.3.4 3.4 5.8 4 3 .4 6.8 1.2 8.3 1.8s4.9 1.1 7.3 1.1c2.5 0 5.4.5 6.5 1.1s5 1.4 8.7 1.9c14.4 2 21.8 3.2 23.7 4 1.1.4 5.4 1.3 9.5 1.9l13.7 2.1a33 33 0 0 1 8.2 2c1.1.5 4.1 1 6.8 1 2.6.1 6.6.7 8.8 1.5s5.8 1.5 8 1.5 5.8.7 8 1.5a33 33 0 0 0 8.2 1.5c2.3 0 5.4.5 7 1.1 2.6 1 6.2 1.6 22.1 3.9 3.7.5 8.3 1.3 10.2 1.9a242 242 0 0 0 23.2 4.1c3.7.5 7.6 1.4 8.8 2s4.9 1 9.3.7c10.8-.8 28.5-2.7 34.7-3.7 3-.5 10.2-1.2 16-1.5s13-1 16-1.6a611 611 0 0 1 38.9-3.9c12.8-1 14.2-2 12.1-8.3l-1.5-4.2-7-.7a74 74 0 0 1-10.5-1.7c-3.8-1-14-2.7-25.8-4.2a46 46 0 0 1-9.2-1.9c-1-.6-3.9-1-6.3-1-2.5 0-6.4-.7-8.7-1.5s-6.4-1.5-9.1-1.5-6-.5-7.6-1.1-5.7-1.5-9.3-1.9l-16-2.5c-5.2-.8-12.9-2-17-2.5s-8.5-1.4-9.8-2c-1.3-.5-3.9-1-5.9-1-1.9 0-6.5-.6-10.2-1.4-8.7-1.9-19-3.6-27.7-4.6a41 41 0 0 1-9.2-1.9c-2.7-1.4-10.5-1.2-21.2.5m-189.5 19.9a191 191 0 0 1-19.5 1.5c-5.8 0-12.5.5-15 1s-11.7 1.2-20.5 1.5-18 1.1-20.5 1.6-12.6 1.3-22.5 1.8-19.3 1.4-20.8 2c-2.4.9-2.8 1.6-2.5 4.3.3 3.1.5 3.3 5.3 3.9 2.8.4 6.3 1.2 7.8 1.8 1.6.6 4.9 1.1 7.3 1.1 2.5 0 5.3.4 6.3 1a42 42 0 0 0 8.7 1.9l15.9 2.6 14.6 2.4c3.1.5 7.9 1.3 10.5 1.9 10 2.2 17.1 3.4 23.4 4.2 3.6.5 7.8 1.3 9.3 1.9a23 23 0 0 0 6.7 1.1c2.1 0 5.1.5 6.7 1.1 1.5.6 6 1.5 9.8 1.9 11.3 1.4 20.9 3.1 23 4 1.9.7 10 2.1 23 3.9 3.3.4 8 1.3 10.5 1.9s7.4 1.6 11 2.2l9.8 1.6c1.8.4 4.5.1 6-.5s9-1.6 16.7-2.1 16.5-1.4 19.5-1.9 8.7-1 12.6-1c3.9-.1 8.4-.5 10-1s9-1.5 16.4-2.1l26.5-2.3 13-1.2.3-4.6c.2-3.7-.1-4.8-1.5-5.4-1.7-.6-13-2.6-27.3-4.6-3.6-.5-7.8-1.3-9.4-1.9s-4.8-1-7.1-1-6.4-.7-9.1-1.5-6.7-1.5-8.9-1.5-5.8-.7-8-1.5-6.1-1.4-8.7-1.5c-2.6 0-5.9-.5-7.3-1-1.5-.6-6.1-1.5-10.3-2s-11.7-1.7-16.7-2.5-12.1-2-16-2.5a68 68 0 0 1-9.3-2c-1.3-.6-4-1-6-1-2.1 0-6.4-.7-9.5-1.5-3.2-.8-7.5-1.5-9.6-1.5s-6-.7-8.7-1.5-6.7-1.5-8.9-1.5-6.2-.7-8.9-1.5c-5.6-1.7-5.9-1.7-18.1 0m-201 20.3c-.2.2-7.7.8-16.7 1.3-16.5.8-34.8 2.1-55.8 4l-27 2c-32.7 2.1-32.2 2-31.8 6.1.3 2.6.9 3.3 4.3 4.6 2.2.8 6.9 1.8 10.5 2.3 6.6.8 15.5 2.4 31 5.4 4.7.9 11.5 2 15.2 2.5s7.6 1.3 8.7 1.9 3.9 1.1 6.3 1.1c2.4.1 6.1.7 8.3 1.5s5.9 1.5 8.1 1.5c2.3 0 6.1.7 8.4 1.5s5.7 1.5 7.6 1.5 5.9.7 9.1 1.5 7.4 1.5 9.5 1.5 3.9.4 4.2.9a28 28 0 0 0 8.6 1.5c4.4.4 8.2 1.2 8.5 1.7s3 .9 5.8.9c2.9.1 7 .7 9.2 1.5s5.8 1.5 8 1.5c2.2.1 5.8.7 8 1.5s5.8 1.5 8.1 1.5 6.3.7 9 1.5c6.5 2 27.4 2 37.7 0 4.3-.8 11.3-1.5 15.5-1.5a58 58 0 0 0 11.2-1c1.9-.6 8-1.3 13.5-1.6s12-1 14.5-1.5 10.1-1.4 17-1.9l18-1.8 5.5-.7.3-4.8q.3-4.7-1-5.1l-6.7-1.6c-5.1-1.2-8.5-1.8-23.6-3.9l-11.5-2c-5.3-1.2-15.7-2.8-25.5-4-3.8-.5-8.3-1.4-9.8-2-1.6-.6-4.7-1.1-7-1.1s-6-.7-8.2-1.5-6.1-1.4-8.6-1.5c-2.5 0-5.9-.4-7.5-1a97 97 0 0 0-10.4-2c-4.1-.5-11.5-1.7-16.5-2.5s-12.1-2-16-2.5a68 68 0 0 1-9.3-2c-1.3-.6-4.1-1-6.4-1-2.2 0-7-.6-10.7-1.4-8.3-1.8-19-3.3-19.6-2.8m975.5 13.1q-3.6.5-3.8 2.6c-.2 1.1-1 3.3-1.7 5-.7 1.6-1.5 4.1-1.8 5.5l-1.5 5.5c-1.3 3.7-3.4 11-5.7 19-.9 3.3-2 6.8-2.6 7.7-.5 1-.9 2.7-.9 3.9s-.6 3.5-1.4 5.2c-1.2 3-2.6 7.5-4.6 15.7-1.4 5.8-3.7 11.4-4.9 11.8s-5.9-9.9-7.8-17.3l-1.9-5.2a15 15 0 0 1-1.4-4.6c0-.8-.7-2.8-1.5-4.3-.8-1.6-1.5-3.7-1.5-4.6s-.4-2-1-2.3-1-1.3-1-2.2c0-.8-.6-2.9-1.3-4.6-1.8-4.3-3.7-9.5-4.7-13.2a83 83 0 0 0-4.6-12.7c-.8-1.4-1.4-3.3-1.4-4.2 0-1.3-1.2-1.6-6.2-1.6-9.6 0-16.6 1.1-17.2 2.7-.5 1.3 1 5.6 4 11.5.8 1.4 1.4 3.5 1.4 4.5s.4 2.3.8 2.8 1.9 3.9 3.2 7.5a40 40 0 0 0 3.2 7.4q.7 1 .8 2.4c0 .8.7 3 1.6 5l3 7a16 16 0 0 1 1.4 5c0 .9.7 2.6 1.5 3.6a8 8 0 0 1 1.5 3.7c0 1 .6 3 1.4 4.6a41 41 0 0 1 4.6 11.6q0 1.5.9 2.2c.5.3 1.3 2 1.7 3.7s1 3.9 1.4 4.8l2.5 5.7c1.7 4.1 1.9 4.3 5.4 3.7l12.6-1.4c16.4-1.6 19.5-2.8 19.5-7.7 0-1.2.5-2.5 1-2.8s1-1.5 1-2.5c0-1.1.7-4.1 1.5-6.7 1.6-5 3.5-11.5 6-20.8 3.1-11.2 4.5-16.1 6-20.8.8-2.6 1.5-5.6 1.5-6.7 0-1 .4-2.1.9-2.4s1.1-2.5 1.5-4.8 1.1-4.7 1.5-5.3c.5-.5 1.1-3 1.5-5.5.4-2.4 1.1-4.9 1.5-5.5.5-.5 1.1-2.6 1.4-4.5l1.2-5.8c.7-2.2.6-2.2-7.1-2.1-4.4.1-9.5.4-11.4.8m-1209.5 9.2c-3.3.5-13.4 1.3-22.5 1.8-29.4 1.8-47.3 3.1-56.1 4.1-4.8.6-11.3 1-14.5 1-3.3 0-7.6.3-9.6.6-3.3.6-3.8 1-3.8 3.4 0 1.5.6 3.3 1.4 4a99 99 0 0 0 23.6 5 82 82 0 0 1 10 1.9c4.3 1.1 13.9 2.8 24 4.1 4.1.6 7.9 1.5 8.4 2s3 1 5.5 1c2.6 0 6.4.7 8.6 1.5s5.8 1.4 8 1.5c2.2 0 6.2.7 8.9 1.5s6.7 1.5 8.8 1.5 4.6.4 5.6 1 4.9 1.4 8.7 1.9c14.5 2.1 20.9 3.3 22.6 4.2 1 .5 3.7.9 6.1.9 2.4.1 6.1.7 8.3 1.5s5.9 1.5 8.1 1.5c2.3 0 6.1.7 8.4 1.5s6 1.5 8.1 1.5 5 .5 6.6 1.1a87 87 0 0 0 23.3 3.1c9.8 0 32-1.9 36-3.1a60 60 0 0 1 12.7-1.1c5 0 10.4-.5 12-1.1a85 85 0 0 1 14.8-1.5 97 97 0 0 0 15.4-1.6c1.8-.6 8.6-1.3 15-1.7l11.6-.6v-12l-5.5-.5c-3-.3-6-.8-6.6-1.2s-4.4-1.2-8.5-1.8c-4.1-.5-11.7-1.7-16.9-2.5s-12.9-2-17-2.5-8.6-1.4-10-1.9a47 47 0 0 0-8.8-1.5c-3.5-.3-7.1-1-8.2-1.6-1-.5-3.9-1-6.3-1a40 40 0 0 1-9.3-1.5c-2.7-.8-6.7-1.5-8.9-1.5s-6.2-.7-8.9-1.5a38 38 0 0 0-8.6-1.5c-2 0-5-.4-6.6-1a76 76 0 0 0-9.9-1.9l-16-2.6-16.8-2.5c-4.4-.6-8.7-1.5-9.7-2a238 238 0 0 0-41.5.1m1072.3 4.3a43 43 0 0 0-18.3 11.3 44 44 0 0 0-10.5 18.6c0 1.2-.7 4.4-1.5 7.1a65 65 0 0 0 3.1 36.8 11 11 0 0 1 1.4 4.1c0 2.5 11.6 14.1 17 17.1a50 50 0 0 0 43.4 1.1c4.1-1.7 14.6-11.8 14.6-14q.1-1.2 1.5-2.5c.8-.7 1.5-2.3 1.5-3.6 0-1.2.5-2.6 1-2.9s1-1.4 1-2.4q.2-1.7-5.7-3.5l-8.5-2.8c-3.5-1.3-4.5-.6-6 4.4a25 25 0 0 1-15.9 14.7 17 17 0 0 1-11.2-.4c-7.2-2.1-13.5-8-15.9-15.1-3.5-10.2-3-32.1.8-39.7a31 31 0 0 1 14.2-12.6c7.7-2.2 16.4-.8 20.8 3.3a14 14 0 0 0 3.6 2.6c.3 0 1.4 1.8 2.4 4 2.1 4.7 3.5 5.3 8.9 3.9l7.5-1.8c3.4-.7 3.5-.8 3.2-5-.1-2.4-.9-5-1.7-5.8q-1.3-1.4-1.5-2.3c0-.4-2.1-2.9-4.6-5.4a45 45 0 0 0-44.6-9.2m-88.3 9.7c-2.7.5-10.2 1.3-16.5 1.9s-14 1.4-17 1.9-8.6 1-12.5 1.1c-3.8.1-9.7.7-13 1.4l-6 1.3-.3 53.2-.2 53.3 3.2-.6c3.7-.7 22.4-3.2 33.8-4.6 17.8-2 39.3-5.1 40.3-5.7.4-.2.7-4 .7-8.4v-7.9h-3.8c-2.2 0-10.8.7-19.3 1.5-17.5 1.6-32.1 2.1-33.8 1.1a96 96 0 0 1-.3-27.3c.5-.8 6-1.6 15.2-2.3l23-2c4.7-.5 9.7-.9 11.3-.9 2.7-.1 2.7-.1 2.7-7.5 0-4.1-.3-7.7-.7-7.9-.8-.5-29 .8-43.2 1.9-4 .3-7.7.2-8.2-.3s-1-5.3-1.1-10.6c-.2-7.4.1-10 1.2-11.1 1.5-1.4 6.4-2 40.4-4.5 7.1-.5 13.3-1.4 13.8-1.9s.8-4.2.6-8.3c-.3-8.4-.5-8.5-10.3-6.8m-1169 8.9c-3.7.8-20.8 2.1-56 4.1-8.2.4-18.1 1.3-22 1.8s-12.2 1-18.6 1.1c-14.1 0-16.5 1.3-16 8.1.1 1.5 1.4 1.8 23.3 4.8 3.7.5 7.6 1.4 8.7 2s4.3 1.1 7.1 1.1 6.7.7 8.7 1.5 5.8 1.5 8.5 1.5 5.8.5 6.8 1a43 43 0 0 0 9.7 2c4.3.5 11.4 1.6 15.8 2.4 16.4 3 27.2 4.8 33.9 5.7a42 42 0 0 1 8.7 1.9c1 .6 4 1 6.7 1s6.6.7 8.5 1.5 5.9 1.5 8.7 1.5 6.1.5 7.3 1.2 5.4 1.5 9.2 1.9c9.8 1.1 20.4 2.9 24.5 4.1 2 .5 6.9.8 11 .5 15.1-.9 34.6-2.8 38-3.7 1.9-.6 7.1-1 11.5-1a91 91 0 0 0 14.5-1.5 91 91 0 0 1 14.6-1.5c4.5 0 9.4-.4 11-1s9.1-1.4 16.7-1.9c10.3-.6 14.3-1.2 15.4-2.4 2.2-2.1.9-6.5-2-7.1-8.1-1.5-16.2-2.8-22.2-3.5-3.8-.5-8.6-1.4-10.5-2a31 31 0 0 0-7.7-1.1 21 21 0 0 1-6.7-1c-1.4-.5-6-1.4-10.3-2l-16.3-2.6c-4.7-.8-12.1-1.9-16.4-2.4-4.4-.6-8.4-1.4-9-2-.5-.5-3.3-1-6.2-1-2.8 0-7.1-.7-9.4-1.5a31 31 0 0 0-8.4-1.5c-2.3 0-6.8-.7-9.9-1.5a51 51 0 0 0-9.8-1.5 17 17 0 0 1-5.9-1 43 43 0 0 0-9.7-2c-4.3-.5-11.8-1.7-16.8-2.6-10.3-1.8-33-2.7-39-1.4m1016.5 8.4c-6.9.6-13.1 1.5-13.7 1.9-1.9 1.2-1.9 103 0 104.5 1.2 1.1 3.9.8 28.7-2.3a187 187 0 0 1 17.5-1.5 34 34 0 0 0 25.7-11.2c9.4-9.9 13.2-22.8 12.5-41.6a161 161 0 0 0-1.5-16.4c-3.1-13.5-12.9-25.6-23.7-29.5-16.1-5.8-20.6-6.1-45.5-3.9m36.3 19.6q8.5 3.8 12 14.2c1.5 4.4 1.8 7.8 1.4 20.3a82 82 0 0 1-1.8 18.9c-1.7 4.7-8 11.6-10.7 11.6-1 0-2.2.4-2.7.9-1.1 1-24.9 2.3-27.1 1.4-1.2-.4-1.4-6.2-1.4-34.9V1608h12.9c10.7 0 13.6.3 17.4 2m-1248.4-11.6a915 915 0 0 1-60.9 4.6c-8.5.5-18.5 1.4-22.2 2-3.7.5-11.7 1-17.8 1s-14.2.5-18 1.1l-6.8 1.2-.4 3.8-.3 3.8 5.5.7c3 .3 6 1 6.5 1.4s3.8 1 7.3 1.4 7.1 1 8.2 1.6c1 .5 3.8 1 6.2 1 2.4.1 6.1.7 8.3 1.5s6.1 1.5 8.6 1.5c2.6 0 6.3.7 8.2 1.5 2 .8 5.7 1.5 8.2 1.5 2.6 0 5.4.4 6.4 1a42 42 0 0 0 8.7 1.9c14.1 2.1 22.3 3.6 23 4.3.4.5 2.9.8 5.5.8 2.5 0 6.9.6 9.5 1.4q8 2.3 24.4 4.6c3.6.4 7.8 1.3 9.3 1.9s4.9 1.1 7.3 1.1c2.5 0 5.3.4 6.3 1a42 42 0 0 0 8.7 1.9l15.4 2.7c10.6 2.1 30.8 2.9 37.5 1.5 5.3-1 22.2-2.7 41.7-4.1 6.4-.4 12.3-1.2 13-1.6s6.9-1.2 13.8-1.6 17-1.3 22.5-2l10-1.3.3-4.1c.4-5.7-1.9-7.5-11-8.4a85 85 0 0 1-10.8-1.9 31 31 0 0 0-7.7-1.1c-2.3 0-5.4-.5-7-1.1a56 56 0 0 0-9.8-2c-3.8-.4-10.8-1.5-15.5-2.4l-16.5-2.6c-4.4-.6-8.8-1.5-9.7-2s-3.8-.9-6.5-.9c-2.6-.1-6.6-.7-8.8-1.5a33 33 0 0 0-9.3-1.5 29 29 0 0 1-8.9-1.5c-1.9-.8-5.3-1.5-7.4-1.5s-7.1-.6-11.1-1.4l-17.3-3.1-15-2.6c-13.1-2.6-30.6-4.5-31.6-3.5m1083.1.6c-.8.5-2.9 1-4.6 1-3.1 0-6.4 2.5-6.4 4.9 0 1.3-2.1 6.5-4.6 11.4a13 13 0 0 0-1.4 4.6 5 5 0 0 1-.8 2.6c-.5.6-1.9 3.9-3.2 7.5a40 40 0 0 1-3.2 7.4q-.7 1-.8 2.4c0 .8-.6 2.8-1.4 4.5l-3.1 7.7-3.1 7.7a16 16 0 0 0-1.4 4.1c0 .6-.8 2.5-1.7 4.4-2.9 5.9-3.3 6.8-3.3 7.9 0 .6-.6 2.5-1.4 4.2l-3 7.7c-1 2.5-2.4 5.8-3.2 7.3-.8 1.6-1.4 3.6-1.4 4.5s-.7 2.6-1.5 3.6c-.8 1.1-1.5 3-1.5 4.2 0 2.2.2 2.2 10.2 1.6 8.8-.4 10.5-.8 12-2.6.9-1.2 1.7-3.2 1.8-4.4 0-1.3.6-3.8 1.4-5.5s1.6-4.3 1.9-5.7c.9-4.4 3.8-11.5 5-12.2.7-.4 4.1-.8 7.7-.8s11.6-.5 17.9-1c13-1.2 16.1-.3 16.1 4.8a14 14 0 0 0 1.5 5.2 14 14 0 0 1 1.5 5.2c0 1.5.4 2.9.9 3.2s1.1 1.8 1.4 3.4l.6 2.7 8.3-.6 10.6-.8q2.3 0 2.2-2.5c0-1.4-.4-2.7-.9-3.1s-1.2-1.9-1.6-3.6-1.3-4.2-2.1-5.7-1.4-3.7-1.4-4.9-.4-2.5-1-2.8q-.9-.6-1-2.2c0-.8-.6-2.9-1.3-4.6a152 152 0 0 1-5.8-16.7 85 85 0 0 0-3.5-9.2 11 11 0 0 1-1.4-4.1c0-.8-.7-2.8-1.5-4.3-.8-1.6-1.5-3.6-1.5-4.5s-.7-3-1.5-4.5c-.8-1.6-1.5-3.7-1.5-4.6s-.4-2-1-2.3-1-1.4-1-2.3-.7-3-1.5-4.6-1.5-3.9-1.5-5.2c0-1.2-.4-2.6-1-2.9s-1.4-2.4-2-4.5l-1.1-4h-6.7c-3.7 0-7.4.5-8.2 1m3.1 28.1 2.9 7.9a68 68 0 0 1 2.7 8c.3 1.4 1.2 3.4 1.9 4.5a7 7 0 0 1 1.4 3.4c0 .8 1 3.5 2.2 5.9 1.9 4.1 2 4.6.5 5.7-1.9 1.3-24.9 3.7-27.3 2.8-1.8-.7-1.2-5.8 1.1-10.7.8-1.5 1.7-4.3 2.1-6.2.3-1.9 1-3.7 1.5-4s.9-1.5.9-2.7a9 9 0 0 1 1.3-4.2c.8-1.1 1.7-3.5 2-5.2.8-4 3.6-8.5 5-8 .6.2 1.4 1.4 1.8 2.8m-122.6-17.4q-27.3 2.6-31.5 23a28 28 0 0 0 2.8 19.3c2.1 3.4 8 8.7 11.7 10.6a126 126 0 0 0 25.2 7.9c2.4.4 4.5 1.1 4.9 1.6q.6.8 2.6.9c5.4 0 10.8 6.2 10.8 12.5 0 3-.8 4.5-3.8 7.5-5.7 5.7-15.3 7.6-24.6 4.8-5.5-1.7-12.1-8.3-13.2-13.4-1-3.9-1-3.9-6.4-4.2-3-.2-7.5 0-9.9.3-4.8.7-4.6 0-2.5 10.5a36 36 0 0 0 15.8 19.8 66 66 0 0 0 24.1 5.1c7.4.1 19.8-2.6 25.1-5.3 3.8-2 9.4-7.1 11.5-10.6 3.9-6.5 5.6-18.3 3.4-23.5-.8-2.1-1.5-4.5-1.5-5.4 0-4.6-12.9-14.8-20.8-16.6-1.8-.3-3.4-1.1-3.7-1.6s-1.9-.9-3.5-.9-4.1-.5-5.7-1.1c-1.5-.6-4.4-1.5-6.3-2-8.4-1.9-13-4.2-15-7.4-2.6-4.3-2.5-6.7.5-10.3 2.6-3.1 8.6-5.2 15.1-5.2 8.8 0 16.5 4.8 18.2 11.3.7 2.8 1.3 3.2 4 3.1 17.1-.3 18.3-.7 16.3-5.6-.7-1.8-1.5-4.4-1.9-5.8a9 9 0 0 0-1.1-3l-3-4.1c-5.2-7.7-23.4-13.6-37.6-12.2m-1180 10.3c-8.2.5-17.8 1.4-21.1 2-3.4.5-10.4 1-15.5 1-5.2 0-14.3.7-20.4 1.5s-15.6 1.5-21.3 1.5-13.3.4-17 1l-11.4 1.5c-4.7.6-4.8.7-4.8 4 0 3.6-.1 3.6 8.5 5.3 11.9 2.5 17.4 3.5 23 4.2 3.3.5 7.3 1.3 8.8 1.9a25 25 0 0 0 7.3 1.1c2.5 0 6.1.7 8.1 1.5 1.9.8 5.5 1.5 8 1.5 2.4 0 5.3.4 6.3 1a35 35 0 0 0 7.6 1.6c3.3.3 6.8.9 7.9 1.4s5 1.2 8.7 1.5 7 1.1 7.3 1.6c.4.5 2.5.9 4.9.9s6.5.7 9.2 1.5 6.6 1.5 8.7 1.5 5.4.7 7.4 1.5c1.9.8 5.8 1.5 8.5 1.5s5.8.5 6.9 1.1 5 1.4 8.7 1.9a794 794 0 0 1 31.7 5.6l14 2.4c6.5 1.1 24.9.5 33-1.1 2.8-.5 10.4-1.4 17-1.9s18.8-1.7 27-2.6c8.3-.8 19.7-1.9 25.5-2.3 13.1-1 24.2-3 25.6-4.7.5-.7.8-2.9.6-4.8-.3-2.9-.9-3.7-3.1-4.2-1.4-.3-3.6-1-4.9-1.5s-4.2-.9-6.6-.9a40 40 0 0 1-9.2-1.5c-2.7-.8-6.8-1.5-9-1.5a31 31 0 0 1-8.4-1.5c-2.3-.8-6.4-1.5-9-1.5s-6-.5-7.6-1-5.8-1.5-9.4-2a4363 4363 0 0 1-60.4-10c-1.6-.6-4.6-1-6.6-1s-5.9-.7-8.6-1.5-6.7-1.5-9-1.5a24 24 0 0 1-7-1c-1.6-.5-6.3-1.4-10.4-1.9s-9.5-1.4-12-2c-7.2-1.6-21.4-2-37.5-1.1m1034.5 7.7a51 51 0 0 0-9.5 4.2 28 28 0 0 0-10.3 11.5 39 39 0 0 0-1.6 21.1q2.5 9.7 14.5 16.3c5 2.7 9.1 4.1 22.4 7.6 18.1 4.9 21.9 7.1 23 13.6 2 12.1-12.7 20.1-29.1 15.8-5.1-1.4-12.4-7-12.4-9.6 0-.9-.7-2.6-1.5-3.6a8 8 0 0 1-1.5-3.9c0-1.7-.6-1.8-8.2-1.2-12.3.9-13.1 1.2-12.3 3.8l1.9 6.7a29 29 0 0 0 8.6 14.9c8.4 8.5 16.4 11.1 33.5 11.1 18.8 0 29.2-3.9 36-13.3 5.1-7 5.9-9.6 5.9-19.3 0-8.2-.3-9.8-2.8-14.8a31 31 0 0 0-6.5-8.5 50 50 0 0 0-16-8.1c-.9 0-2.9-.7-4.5-1.5-1.5-.8-3.9-1.5-5.1-1.5-2.5 0-10.6-2.3-17-4.8-4.9-1.9-9.5-6.8-9.5-10.2 0-6 7.8-11 17.4-11 10.1 0 17.2 4.2 19.6 11.6q1 3.3 3.8 3.6c4.9.8 15.2.1 16.8-1.3 2.2-1.8 1.2-6.9-2.8-13.9l-1.5-3c-2-4.3-9.6-9.3-18.8-12.4a83 83 0 0 0-32.5.1m-1236.8 2.4c-1.3.5-5.6 1.2-9.5 1.5s-8.6 1-10.3 1.5-6.9 1.4-11.5 1.9-13.1 1.6-18.9 2.5c-19.2 2.9-30.4 4.5-38.2 5.4a57 57 0 0 0-8.7 1.5c-.6.4-5.4 1.1-10.7 1.5-10.4.9-11.4 1.5-11.4 6.7 0 2.9.2 3.1 6.3 4.2 3.4.7 8.9 1.7 12.2 2.1s7.3 1.4 8.8 2 4.5 1.1 6.6 1.1 5.8.7 8.1 1.5 6 1.5 8.2 1.5 4.7.4 5.7.9 4.6 1.4 8.2 2l12.9 2.1c3.6.5 7.4 1.4 8.5 1.9s4.9 1.2 8.4 1.4c3.5.3 6.8 1 7.4 1.6s3.3 1.1 5.9 1.1 6.5.7 8.5 1.5c1.9.8 5.5 1.5 8 1.5 2.4 0 5.4.5 6.6 1.2s4.9 1.6 8.2 2 9.6 1.4 14 2.2 10.9 2 14.5 2.6 7.4 1.5 8.5 2 4.8 1.1 8.3 1.4 7.1 1 8.2 1.6c1 .5 3.7 1 5.9 1s5.9.7 8.1 1.6q4 1.5 8.2 1.1l14.3-1.7 18.9-2.1 18.5-2a1492.2 1492.2 0 0 1 51.9-4.8c6.8-.5 13-1.5 13.8-2.1 2-1.7 1.8-7.4-.4-9.3-1-1-3.3-1.7-5.1-1.7s-4.8-.7-6.8-1.5c-1.9-.8-5-1.5-6.7-1.5s-5.1-.6-7.6-1.4c-5.1-1.6-13.1-3.4-20.5-4.4-2.7-.4-5.6-1.1-6.3-1.6s-3.7-1.2-6.5-1.7a150 150 0 0 1-20.2-3.9c-1.1-.5-4.2-1.2-7-1.5s-5.4-1-6-1.5-3.4-1-6.4-1.3-5.9-1.1-6.5-1.7-2.6-1-4.6-1-5.5-.6-8-1.4c-4.3-1.4-10.1-2.7-20-4.5-9.4-1.8-16.6-3.3-18-3.9-1.8-.7-12.4-2.9-20.3-4.2-3.2-.5-6.7-1.4-7.7-2-1-.5-3.3-1-5-1a22 22 0 0 1-6.7-1.5 28 28 0 0 0-16.1-.4m1183.6.4c-.3.3-5.9 1-12.4 1.5a740 740 0 0 0-53.9 5.7l-7 .8-.2 55.5c-.2 30.5.1 56 .5 56.6.8 1.2 8 .5 24.8-2.2a137 137 0 0 1 14.7-1.4c3.1 0 6.6-.4 7.9-1s6.8-1.4 12.3-2c17.7-1.8 22.4-2.5 23.5-3.6.7-.7 1-4.4.8-9l-.3-7.9-6.5.1c-3.6.1-11.2.6-17 1.2a294 294 0 0 1-20.7 1.2c-5.6 0-11.3.5-12.7 1.1-2 .9-2.9.9-4.1-.1-1.3-1.1-1.5-3.7-1.3-15.9l.3-14.6 8-1.2c4.4-.7 15.4-1.5 24.5-1.9s18.1-1.2 20-1.9l3.5-1.2.2-7.7c.2-5.4-.2-7.8-1-8.2a509 509 0 0 0-43.6 2.5c-5.2.5-10 .7-10.8.4-1.8-.7-1.9-23.6 0-25 .6-.6 10.9-1.6 22.7-2.3s24.6-1.5 28.5-1.9l7-.6.9-4.2c.5-2.3.5-6.2.2-8.7-.7-4.5-.8-4.6-4.5-4.6-2.1 0-4 .2-4.3.5m835.9 8.2c-.4.3-.7 2.3-.7 4.4 0 3.9 1.1 4.9 5.4 4.9 4.5 0 6.2-5.2 2.8-8.3-1.9-1.7-6.3-2.3-7.5-1m-980 8.9c-.3.3-7 1-14.9 1.4-13.6.8-24.5 2.1-25 3.1-.2.2-.2 26.2 0 57.6l.3 57.3h5.2c2.9-.1 7.7-.7 10.7-1.4l5.4-1.2-.3-25.5c-.2-16.1.1-26.4.8-28.2 1-2.5 1.4-2.7 7-2.7 3.2 0 7.5.7 9.6 1.6a67 67 0 0 1 16 14.5 560 560 0 0 1 19.1 29.9q2.5 5.1 6.8 4.5c12.2-1.4 20.6-3 20.6-3.8 0-.5-2-4.3-4.5-8.4-2.5-4-4.5-7.8-4.5-8.3q0-1-.9-1-1-.2-1.7-2.3a109 109 0 0 0-14.1-19.3l-6.4-5.4c-4.6-3.8-4.2-4.9 2.7-6.9a27 27 0 0 0 20.4-27.7c0-4-.4-7.5-.9-7.9-.5-.3-1.2-1.9-1.6-3.6a32 32 0 0 0-11.5-12.8 73 73 0 0 0-27.1-4.1c-5.8 0-10.8.3-11.2.6m21.4 22.1c5.2 2.6 6.7 4.5 7 8.8.5 8.4.1 9.6-5.7 14.4-2 1.7-13.5 3-28.2 3-11.2.1-11.3.1-12.2-2.5a91 91 0 0 1-.4-23.8c.9-2.4 34.6-2.4 39.5.1m875.5-20.6c-3.1 2.4-3.2 3.8-.7 6.8 3 3.5 7.3 2.5 8.5-1.8.8-3 .7-3.6-1.3-5.2-2.9-2.4-3.2-2.4-6.5.2m-2130 3.6c-.7.7-4.5 1.4-25.1 4.2a119 119 0 0 0-10.9 2.1c-1.6.6-4.5 1-6.5 1s-6.1.7-9.1 1.5-7.3 1.5-9.5 1.5-5.8.7-8 1.5a33 33 0 0 1-8.2 1.5c-2.3 0-5.4.5-6.9 1s-6.2 1.5-10.3 2a166 166 0 0 0-28.6 5.2q-1.9.3-2.6 3.6c-.6 2.9-.4 3.3 2 3.8a78.7 78.7 0 0 0 16.4 3.4c14.7 1.8 22.2 3.1 23.9 4 1 .6 3.9 1 6.6 1s7.4.7 10.5 1.5c3.2.8 7.7 1.5 10 1.5 2.3.1 6 .7 8.2 1.5s5.8 1.5 8.1 1.5 6.3.7 9 1.5 7 1.5 9.6 1.5 5.9.5 7.5 1.1 6.2 1.5 10.3 2l16.5 2.4 16.5 2.5c4.1.6 8.4 1.5 9.5 2s5.9 1.2 10.7 1.5c4.9.4 9 1.1 9.4 1.6.3.5 2.7.9 5.3.9s7 .7 9.7 1.5c6.3 1.9 18 1.9 26.9 0a87 87 0 0 1 14.5-1.5c4.1 0 9.1-.4 10.9-1s8.2-1.2 14-1.5 12.4-1 14.6-1.6c2.2-.5 10.1-1.4 17.5-2 26.8-2.2 25-1.9 26.2-4.4.6-1.4.8-4.3.4-6.9-.6-3.6-1.1-4.6-2.6-4.6-1 0-2.2-.5-2.5-1s-2.3-1-4.4-1-6-.7-8.7-1.5-6.4-1.5-8.2-1.5-4.9-.7-6.9-1.5c-1.9-.8-5.2-1.5-7.3-1.5s-5.7-.7-8-1.5-5.7-1.5-7.6-1.5-4.5-.5-6.1-1.1-5.5-1.4-8.8-1.9-9.4-1.6-13.5-2.5a677 677 0 0 0-28.3-5.5c-3.2-.6-6.7-1.4-7.7-2-1-.5-3.4-1-5.3-1s-5.6-.7-8.3-1.5-6.4-1.5-8.2-1.5-4.1-.4-5.1-.9-4.6-1.4-8.2-2-10-1.7-14.4-2.6-10.9-2.1-14.4-2.6c-3.6-.6-7.3-1.5-8.2-2-2.1-1.1-5.3-1.2-6.3-.2m1108.5 7.3c-3 .4-6.6 1.4-8 2l-6.1 2.8a42 42 0 0 0-15.4 12.7 43 43 0 0 0-7.6 14.5c0 .8-.6 2.6-1.3 4-1.8 3.4-2.7 21.4-1.7 31.5a49 49 0 0 0 6.5 22.2 65 65 0 0 0 12 14.3c.2 0 2.4 1.3 4.8 3a27 27 0 0 0 5.4 3 64.3 64.3 0 0 0 15.6 4 47 47 0 0 0 17.5 0 65 65 0 0 0 15.5-4c2.1 0 11.3-6.6 15.7-11.2 4.7-5 9.5-13.1 10.6-18.3.4-1.7 1.2-3.6 1.8-4.4a74 74 0 0 0 1.1-18.5c0-18.3-.5-21-6.2-32.5a70 70 0 0 0-15.4-17.6c-2.1-1.4-7.7-4-12.8-5.9s-23.9-2.9-32-1.6m19.6 18.1c6.4 1.5 10 3.5 14.6 7.8 4.7 4.4 6.4 7.5 8.8 16 3.2 11.2 2.4 23-2.4 36.6-.6 1.6-3.6 5.5-6.7 8.6a28 28 0 0 1-21.3 8.9 32 32 0 0 1-26.4-15.5 65 65 0 0 1-4.4-30.5c1.9-13.3 3.5-17.2 9.2-23.3 4.4-4.6 7.7-6.6 14.4-8.3 6.4-1.6 8.4-1.6 14.2-.3m-87.1-11.1a92 92 0 0 1-14 1.5c-6.1.3-13.8 1-17.1 1.6a392 392 0 0 1-19.5 2l-18.7 1.6-5.3.5v19.6l6.8-.5c3.7-.2 8.5-.8 10.7-1.3q11.6-2.5 14.6-1c1.9 1.1 2 2.1 1.9 48.3 0 26-.1 48 0 48.9 0 1.5 1 1.8 6.8 1.8 3.7 0 8.4-.3 10.5-.6l3.7-.7v-49.8c0-38.7.3-50 1.3-50.6.6-.4 4.1-1.1 7.7-1.4l15.3-1.9c10-1.5 10-1.4 9.5-12l-.3-6.5-5.5-.2c-3-.1-6.8.2-8.4.7m-141.1 13a48 48 0 0 0-39.8 31 86 86 0 0 0-2.8 46c2 7.7 4.2 14.1 5.2 15l2.8 4.2a48 48 0 0 0 7.8 8.7 47 47 0 0 0 34.8 12.5c14.7 0 25.2-4 34-13s14.8-24.4 9.4-24.4c-1.1 0-3-.5-4.2-1.2s-3.8-1.5-5.7-1.9l-6.2-1.5q-3-.8-2.8.9c0 5.9-10.2 19.1-15.7 20.2-1.5.4-3.6 1-4.5 1.6-7.7 4.1-27.2-5.9-29.5-15.1-.3-1.4-1-3.1-1.6-3.8a100 100 0 0 1-2.8-21.2c-.1-4.9 1.8-19 2.7-20.1.6-.8 1.4-2.5 1.7-3.9 1-4 6-9.3 11.7-12.4 4.3-2.4 6.4-2.8 12.5-2.9q7.4 0 11.1 1.8c4.7 2.1 11.4 8.3 11.4 10.5.1.8.9 2.5 1.9 3.7 1.7 2 2.4 2.1 6.7 1.4l10.2-2.2c4.6-1.2 5.2-1.7 5.2-3.9 0-4-5.6-13.6-11-19-8.9-8.7-25.1-12.9-42.5-11m-80 7c-1.1.5-3.7.9-5.8.9l-3.9.1.5 15.2c2 60.8 2 69.2.2 74.3-3.2 9.6-9.3 13.5-21 13.5-8.1 0-13-1.7-17.8-6.2-5.6-5.3-5.6-5.6-5.7-48.6-.1-21.8-.4-40.8-.7-42-.5-2-1-2.3-3.2-1.7a894.9 894.9 0 0 1-19.8 2.4c-.2.1-.3 14.8-.3 32.8 0 40.5 1.5 57.3 5.6 65.1a41 41 0 0 0 14.8 14.9c11.3 5.9 42.4 5.9 52.7.1a43 43 0 0 0 13.3-11.7c5.3-8.5 5.7-12.2 5.6-48.2-.1-18.4-.5-39.7-.8-47.4l-.7-14-5.5-.2c-3-.1-6.4.2-7.5.7m932.2.8c-3.6 4-.3 10.1 4.7 8.8 2.9-.7 4-3.5 3.1-7.6-.5-2.5-1.2-3-3.4-3-1.5 0-3.5.8-4.4 1.8m-1913.9 4c-1 .2-1.8 1.2-1.8 2.2 0 .9-.7 2.3-1.5 3q-1.4 1.2-1.5 2.3c0 1.3-4.9 11.9-9.8 21.4l-15.1 31.3c-.9 1.9-1.9 3.6-2.3 3.8q-.8.5-.8 1.5c0 .7-.6 2.4-1.4 3.9-1.4 2.6-1.3 2.6 2.8 4.1a50 50 0 0 0 10.4 2.1c3.5.3 7.1 1 8.2 1.6 1 .5 3.8 1 6.2 1 2.4.1 6.1.7 8.3 1.5s5.8 1.5 8 1.5 6.2.7 8.9 1.5 6.8 1.5 9.1 1.5 4.5.3 4.9.7c.7.8 9.9 2.5 23.1 4.3 3.9.6 8 1.5 9.3 2s4 1 6 1c2 .1 5.5.7 7.7 1.5s6.1 1.5 8.6 1.5c2.6 0 6.6.7 8.9 1.5s5.9 1.5 7.9 1.5 5.4.7 7.6 1.5 5.8 1.4 8.1 1.5c2.3 0 5.4.5 7 1s5.8 1.5 9.4 2l13.2 1.9c3.7.6 7.7 1.5 8.7 2.1 1.1.5 3.7 1 5.9 1 2.1 0 6.1.7 8.8 1.5 6.9 2.1 11.4 2 11.4-.3 0-1 .4-2.2.9-2.7s2.6-5.1 4.7-10c2-5 4-9.5 4.4-10s1-2.2 1.4-3.8 1.1-2.7 1.6-2.7q1-.1 1-1.6c0-.9.6-2.8 1.3-4.2 1.3-2.5 2.4-4.9 6.1-13.5l4.1-9.2 4-9 3-6.7c.9-2 1.4-4.2 1-4.7s-3.2-1.1-6.4-1.1-8-.7-10.7-1.5a40 40 0 0 0-9.4-1.5c-2.5 0-7.2-.7-10.3-1.5s-7.7-1.5-10.1-1.5a29 29 0 0 1-7.2-1c-1.6-.6-6.5-1.4-10.9-2-4.4-.5-12.5-1.6-18-2.5L421 1709c-4.1-.5-9.1-1.4-11-1.9s-6.5-1.3-10.3-1.6a51 51 0 0 1-9.3-1.5 26 26 0 0 0-7.8-1c-3 0-7.3-.7-9.6-1.5s-6.4-1.5-9-1.5-6.9-.7-9.6-1.5-7-1.5-9.6-1.5-5.9-.4-7.3-1a55 55 0 0 0-9.8-1.5c-4-.4-8.8-1-10.7-1.5-4.4-1.1-11-1.8-13.2-1.2m836.7 12.7c-5.5.7-13.9 1.4-18.7 1.4-4.8.1-10.7.5-13 1.1l-8 1.5-3.8.6v61.8c0 53.6.2 62 1.5 62.5 2.3.8 18.8-1.6 20.4-3 1.1-1 1.3-6.4 1.2-29.1-.1-15.3.1-28.6.5-29.6.5-1.4 1.9-1.7 7.2-1.7 5.6 0 7.2.4 11.4 3.1 2.7 1.8 6.5 5.3 8.4 7.8l4.2 5.6c.4.5 3.6 5.7 7 11.5l7.2 12c.5.8 2 3.5 3.2 6 4.5 8.8 4.9 9 16.5 8 10.5-.8 12.3-1.3 12.3-3.3a146 146 0 0 0-11.3-23.1 92 92 0 0 0-21.1-26.3c-3.6-2.5-3-3.5 3.1-5.8a35 35 0 0 0 17.4-12.9c3.3-5.1 3.4-5.2 3.4-16.6 0-13-1.3-16.5-8.2-23.1-6.4-6.1-7.5-6.4-28.3-9.4-1.4-.1-7 .3-12.5 1m20.2 24.6c7.6 4.7 9.3 15.7 3.3 21.7-5.5 5.6-8.2 6.2-26.4 6.2-9.1 0-16.6-.3-16.7-.8-.4-2.8-.6-26-.2-27.5s2.1-1.7 18.5-1.7c16.6 0 18.3.2 21.5 2.1m930.3-24.2c-1.2 2.4.2 6.9 2.5 7.7 4.5 1.8 8.2-2.2 6.8-7.4-.4-1.8-1.2-2.2-4.4-2.2-2.8 0-4.1.5-4.9 1.9m-1022 7.2-25 2.3-27.5 2.5a99 99 0 0 0-23.7 3.3c-1.5.7-1.8 2.2-1.8 8.6 0 10.4.6 12.3 3.4 11.3 1.1-.5 5.7-1.1 10.1-1.5s10.6-1.2 13.8-1.9c4.9-.9 6-.9 6.7.3.6.9 1 23.2 1 52.9v51.4l8.8-.5c4.9-.3 9.8-1.1 11-1.7l2.2-1.2V1787c0-57.1-.4-54 7.3-54a88 88 0 0 0 12-1.5c4.3-.8 9.4-1.5 11.3-1.5h3.5l-.3-9.3c-.3-10.6.8-9.9-12.8-8.6m-142 13.6c-3 .2-5.9.8-6.4 1.4q-1 .8-2.4.9c-2.3 0-11.8 4.7-14.4 7.2a34 34 0 0 0-9.2 34.8c3.7 10.7 11.7 17.8 25.4 22.3 7.2 2.4 10.7 3.4 25 7.3 15.2 4.1 18.5 6.8 18.5 15.3 0 4.8-.5 6.4-2.8 9.4-1.5 2-3.4 3.7-4.1 3.7q-1.4.1-2.5 1.4c-2.1 2.5-14.9 3.7-23.1 2.1a26 26 0 0 1-17.5-17.1c-1-5.5-2.2-5.8-14.1-4.3l-10.5 1.3.6 5c.7 4.9 5.5 16.7 7.8 19.1l3.5 3.9c3.1 3.7 11.9 9 17.2 10.5 7.5 2.1 19 3.1 28 2.5 19.1-1.3 30.8-7.7 38.1-20.9 3.2-5.8 3.3-6.4 3.4-17 0-9.5-.3-11.7-2.4-16-5.4-11.6-18.8-19.5-41.6-24.5-22.7-5-31.8-12.4-25.8-21 3.4-5 7.6-6.8 17.3-7.7q17.9-1.6 24.1 12.6l1.9 4.6 5.3-.2 11.4-.2c7.3-.1 8.2-1.4 5.8-8.2-.8-2.4-1.5-5-1.5-5.7s-1.8-3.8-4.1-6.8a41 41 0 0 0-19.4-13.6c-5.2-1.7-21.9-2.9-31.5-2.1m-62 6.2c-4.1.3-8.1 1-8.7 1.4-1 .6-1.3 9.5-1.3 38.7 0 20.8-.3 38.1-.8 38.4q-1.9 1-9.5-11.9l-5.7-9.5-19.4-31.4-6.8-11.5-5.1-8.4-7.6.7c-10.9.9-11.8 1.3-12.5 4.9-.7 3.9-.6 122.4.1 125.1.5 1.7 1.2 1.8 9.1 1.2 4.8-.4 9-1.3 9.4-1.9.4-.7.8-20.2.8-43.5 0-23.2.3-42.2.6-42.2 2.3 0 5.3 3.7 12.4 15.3l9.3 15.2c3.5 5.5 6.3 10.4 8 13.5 1.1 1.9 2.2 3.7 2.6 4 .7.6 2.7 3.7 4.1 6.5l2.8 4.7 7 11.2c3 4.8 5.9 8.7 6.5 8.7 4.3.5 13.3-.5 13.9-1.5 1.2-1.8.5-127.9-.7-128.1-.5-.1-4.4.1-8.5.4m-168.5 16.8a11 11 0 0 0-4.9 1.4 45 45 0 0 0-20.6 10.2 59 59 0 0 0-21 43 83 83 0 0 0 7 47.1q.1.7 1 1.9l4.5 5.9A54 54 0 0 0 688 1876c9.8 3.5 36.9 3.8 44.7.4a67 67 0 0 0 21-12.7c13.2-12.5 18.2-26.5 18.3-50 0-15.6-1.4-23.2-6.4-33.7-3.8-8.1-3.7-8-11.6-15.9-6.5-6.5-17.4-13.1-21.6-13.1a5 5 0 0 1-3.1-1.1c-1.1-1.1-25.7-2.1-32.8-1.2m30.9 24.1c5.2 2.9 14.6 12.6 14.6 15.2 0 .9.5 2.1 1 2.6 2.9 2.9 4.4 24.4 2.6 36.4a35 35 0 0 1-55.1 24.5c-5.1-3.4-12.4-13.9-12.5-18.1 0-1.1-.6-2.6-1.2-3.2-1.8-1.8-1.8-28.2 0-34.2 3.3-11.1 8-17.6 16-22.2 6.7-3.8 12-4.8 22.2-4.1 5.5.4 8.8 1.2 12.4 3.1m-156.9-11.1a68 68 0 0 0-12.9 4.3c-1.5 0-11.9 7.3-15.1 10.5a66 66 0 0 0-15.1 27.5c-2.7 9.4-2.7 38.8 0 47.5 2.3 7.4 5 13.3 8.8 18.9a64 64 0 0 0 27.3 20.6c.6.4 5.3 1.3 10.6 1.9 26.5 3.3 46.7-5.9 56.7-25.8 4.7-9.3 5.9-13.6 4-14.7-.7-.5-3.3-1.5-5.8-2.2l-8-2.3c-7.3-2.2-8.9-2.2-9.6-.3a50 50 0 0 1-5.3 11.9c-3.2 7.3-17.4 14.6-25.3 13.1l-6.3-1.3c-3.9-.8-13-6.8-15.3-10.1-5.9-8.5-7.2-14-7.9-32.2-.5-14.5.4-21.3 4-29 2.6-5.7 11.6-14.7 15.3-15.5l5.2-1.6a35 35 0 0 1 16.6.3 36 36 0 0 1 13.4 8.8c.7.8 2.4 3.9 3.8 6.8 2.1 4.5 2.7 5.1 4.3 4.2a37 37 0 0 1 7.2-1.9c3-.5 7.6-1.5 10.2-2.2 4.6-1.2 4.8-1.3 4.1-4.3-.6-2.8-1.5-4.9-3.6-8.6l-1.7-3.6a52 52 0 0 0-18.2-16 65 65 0 0 0-41.4-4.7m-303.3 27.1c-.9.3-1.2 9.7-1.2 41.7v41.4l3.8.6a116 116 0 0 0 14.9 3c2.9.4 5.5 1.1 5.9 1.6.3.5 2.6.9 5.2.9 2.6.1 6.5.7 8.7 1.5s5.7 1.5 7.7 1.5 4.9.5 6.5 1.1 5.5 1.5 8.8 2 9.4 1.5 13.5 2.4l14 2.6c3.6.6 7.2 1.4 8 1.7 1.8.7 14.2 2.9 22.5 4.1 3.4.4 7 1.3 8.2 1.9 1.2.7 3.7 1.2 5.6 1.2s5.4.7 7.7 1.5a31 31 0 0 0 8.4 1.5c2.3 0 4.6.4 5.2.9.5.5 4.1 1.4 7.9 2 3.9.5 10.6 1.7 15 2.6l14 2.5c3.3.6 6.7 1.3 7.5 1.6s4.9 1.1 9 1.8 8.3 1.7 9.3 2.1c1.6.7 1.7-1.6 1.5-44.1l-.3-44.9-4-.8c-2.2-.4-6.9-1.3-10.5-1.8s-8.1-1.4-10-1.9c-4.4-1.1-15.1-2.8-25.3-4a43 43 0 0 1-9.7-2c-1-.5-3.9-1-6.3-1a40 40 0 0 1-9.3-1.5c-2.7-.8-6.7-1.5-9-1.5s-6.3-.7-9-1.5-6.7-1.5-9-1.5a24 24 0 0 1-7-1 76 76 0 0 0-9.9-1.9l-16.5-2.6-16.8-2.5c-4-.6-8.2-1.5-9.2-2s-3.8-1-6.2-1-7-.7-10.1-1.5c-3.2-.8-7.5-1.5-9.6-1.5s-5.8-.7-8.1-1.5-5.9-1.5-8-1.5-5.7-.6-8.1-1.3-5-1.2-5.7-.9m4.8 100.6c-1.8 2.2-.8 5.6 2 7l6.5 3.5c2.2 1.3 5.2 2.8 6.8 3.4s2.7 1.5 2.7 1.8 1.4 1 3 1.4 3 1.1 3 1.6q.1.8 1.1.9c1 0 7.9 3.1 10.9 4.9l3 1.5c.8.4 2.9 1.5 4.5 2.6s3.7 2.3 4.5 2.6c2.7 1.2 33.5 16.5 37 18.4 17.3 9.6 34.5 16 42.7 16 1.7 0 4.4.5 6 1.1s5.7 1.5 9.3 2c11.3 1.4 21.8 3.4 22.6 4.1.4.5 2.6.8 4.8.8 2.3 0 5.9.5 8.1 1.1s7.2 1.5 11.2 1.9c3.9.5 8.7 1.3 10.5 1.8q4.9 1.5 21.8 4.1c5.7.9 13.8 2.4 22.4 4.3 2.6.6 7.4 1.4 10.5 1.9s9.2 1.5 13.6 2.4 11.3 2 15.3 2.5 8.1 1.4 9 1.9c2.8 1.5 12.9 1.6 14.6.2 3-2.5 1.9-5.5-2.7-7.5a550.1 550.1 0 0 0-27.2-13.1l-24.5-11.7-33-15.7c-1.9-.9-3.6-1.9-3.8-2.4q-.4-.7-1.4-.7a89.5 89.5 0 0 0-24.1-6c-3.2-.6-6.7-1.4-7.7-2-1-.5-3.5-1-5.5-1-1.9 0-5.2-.7-7.2-1.5a22 22 0 0 0-7-1.5c-1.8 0-5-.7-7-1.5a22 22 0 0 0-7-1.5c-1.9 0-4.2-.4-5.2-1a37 37 0 0 0-7.2-1.9l-27.1-5.6c-4-.9-9.6-1.9-12.5-2.4-2.8-.5-6.6-1.4-8.5-1.9a143 143 0 0 0-19.3-4c-2.7-.4-5.6-1.1-6.3-1.6s-3.7-1.2-6.5-1.7c-2.9-.4-8.3-1.5-12.2-2.3-3.8-.9-9.7-2-13-2.6a50 50 0 0 1-8-2c-1.1-.5-4.6-1.2-7.7-1.5s-6-1.1-6.3-1.6c-1-1.4-8.1-1.1-9.5.5m236.7 34.7c-1.3 4.8-.8 6.9 1.9 7.9 2.4 1 5.1 2.2 19.5 8.9 3.6 1.7 7.1 3.1 7.7 3.1q1.1 0 1.2 1t1.8 1c1 0 2.7.7 3.8 1.5a7 7 0 0 0 3.5 1.5c.9 0 2.2.7 2.9 1.5s2 1.5 3 1.5 2.3.7 3 1.5q1.3 1.3 2.8 1.5c.8 0 4.5 1.4 8.1 3.1l20.6 9.4 18.3 8.2c2.5 1.2 5.2 1.4 12 .9l22.2-1.5c25.5-1.7 32.3-3.6 30.4-8.6-.7-1.8-5.5-4.5-7.9-4.5-1 0-2.9-.6-4.3-1.4-1.5-.7-5.4-2.1-8.7-3.1s-7.4-2.4-9.2-3.1a15 15 0 0 0-4.6-1.4q-1.5 0-2.1-.9c-.4-.5-2.4-1.2-4.6-1.6s-4.2-1-4.5-1.5-2.2-1.1-4.2-1.5a19 19 0 0 1-4.8-1.4 45 45 0 0 0-7-2.5c-3.3-1-7.2-2.4-8.7-3.2s-3.3-1.4-4.2-1.4c-.8 0-3-.6-4.8-1.4s-7.8-2.8-13.3-4.6a74 74 0 0 1-10.9-4.1c-.6-.5-1.9-.9-2.9-.9s-3.3-.6-5-1.4a53 53 0 0 0-21.7-3.5c-4.7.1-13-.2-18.6-.6-10.1-.8-10.1-.8-10.7 1.6"/><path d="M2511.3 981.7c-.6.5-6.4 1-12.7 1.1-6.4.2-13.7.9-16.4 1.7s-6 1.5-7.6 1.5-5.1.7-8 1.6l-10.1 3.1a151 151 0 0 0-22.8 8.9l-5 2.8a116 116 0 0 0-35.5 32 85 85 0 0 0-11.9 24c-3.3 3.3-8.8 38.1-6.5 40.9.6.7 1.4 5 1.8 9.6s1.3 9.6 2 11c.8 1.4 1.4 3.8 1.4 5.3q0 2.6.9 2.8c.5 0 1.3 1.5 1.6 3.2a17 17 0 0 0 1.5 4.3l4 7a109 109 0 0 0 42.5 41.5q1.3 0 2 .9c.3.6 2.7 2 5.3 3.2a98 98 0 0 1 9.2 4.5l4.7 2a15 15 0 0 0 4.6 1.4c.9 0 1.9.4 2.2 1s1.4 1 2.3 1 3 .7 4.6 1.5a13 13 0 0 0 4.5 1.5c.9 0 2.9.7 4.5 1.5 1.5.8 3.8 1.5 5 1.5s3.1.7 4.2 1.5a9 9 0 0 0 4.7 1.5c1.6 0 3.7.5 4.8 1a67 67 0 0 0 15.9 4c3 .7 6.2 1.4 7 1.8l6.5 1.8 11.5 2.8 10.8 2.6a27 27 0 0 1 6.1 2c1.1.5 3.2 1 4.8 1a9 9 0 0 1 4.7 1.5 9 9 0 0 0 4.4 1.5c4.9 0 17.6 4.7 32.5 12a62 62 0 0 1 22.7 18.6l2.4 4.3c5.9 7.9 7.6 33.1 2.8 41.8a9 9 0 0 0-1.2 3.7c0 3.3-8 14.5-16.2 22.8a63 63 0 0 1-10 8.8 5 5 0 0 0-2.7 1.4 49 49 0 0 1-14.1 7.1c-1.6.4-3.2 1.1-3.5 1.6-.4.5-2.1.9-3.9.9s-3.8.6-4.4 1.2-4.1 1.6-7.5 2-8.4 1.1-11.2 1.7c-6.6 1.3-30.8 1.3-36.5 0-2.5-.6-7-1.4-10-1.8s-6.5-1.2-7.7-1.9a10 10 0 0 0-4.2-1.2c-1 0-3.2-.6-4.8-1.4l-8.8-4.2c-3.3-1.5-7.6-4-9.6-5.6s-4.1-2.8-4.6-2.8c-2.9 0-23.3-24.2-23.3-27.7q-.1-1.2-.8-1.3c-.5 0-1.6-1.9-2.6-4.3l-3.7-8.4a20 20 0 0 1-1.9-5.7c0-.8-.4-1.8-1-2.1s-1-1.7-1-3.1-.9-4.2-2-6.3c-1.9-3.8-2.1-3.9-6.2-3.4-2.4.2-6.5.9-9.1 1.4a89 89 0 0 1-13 .9 90 90 0 0 0-15.2 1.5 91 91 0 0 1-15.2 1.5c-4.5 0-8.5.4-8.8 1s.1 3 1 5.5 1.5 6.1 1.5 8c0 1.8.4 3.6.9 4s1.3 2.6 1.7 5c.3 2.5 1 4.8 1.5 5.1s.9 1.5.9 2.7.7 3.5 1.5 5.1a14 14 0 0 1 1.5 3.8 45 45 0 0 0 4.1 9.8l1.5 3c.3.8.9 2.2 1.4 3l3 5.5c5 9.3 19.7 26.6 29 34 11 8.8 11.5 9.1 37 21.5a31 31 0 0 0 5 1.5c1.9.4 4 1.1 4.5 1.5s2.9 1.1 5.2 1.5 4.5 1.1 4.9 1.6c.3.5 1.9.9 3.6.9s5.7.6 8.7 1.4c11.1 2.8 23.1 3.8 50.6 4.3 19.2.3 29.4 0 32.5-.8 2.5-.6 8.3-1.5 13-2 10.5-1 20.9-2.8 23.2-4 .9-.5 3.6-1.2 5.9-1.5s5.4-1.3 6.8-2.1c1.4-.7 3.4-1.3 4.3-1.3s2-.5 2.3-1 1.3-1 2.2-1 5.5-2 10.2-4.4a80 80 0 0 0 18-10.4c1.4-1.2 3.3-2.4 4.1-2.7a138 138 0 0 0 29-33.5 78 78 0 0 0 8-17.6c1.8-1.8 4.4-12 6.9-27.4 1.3-7.9 1.3-22.4 0-30.5-.6-3.3-1.3-8.5-1.6-11.5s-1.1-6.4-1.9-7.5-1.4-3-1.4-4.2-.7-3.9-1.7-6c-2.6-6.1-7.8-16.8-8.3-17.3l-4.3-6.1a136 136 0 0 0-27.4-26.6 110 110 0 0 0-16.3-9.3l-9.3-4.5c-1.6-.8-3.6-1.5-4.6-1.5a8 8 0 0 1-3.7-1.5c-1-.8-2.7-1.5-3.7-1.5a11 11 0 0 1-4.5-1.4 53 53 0 0 0-12.7-4.3c-1.6-.3-3.4-.9-4-1.3-.5-.5-2.8-1.1-5-1.5s-4.4-1.1-5-1.5-2.7-1.1-4.9-1.4c-2.1-.4-4.6-1.1-5.5-1.6a23 23 0 0 0-6.3-1.5c-2.6-.3-5-1-5.3-1.6-.4-.5-2-.9-3.6-.9s-4.6-.7-6.6-1.5c-1.9-.8-5-1.5-6.7-1.5a15 15 0 0 1-5.6-1.5 15 15 0 0 0-5.6-1.5c-1.7 0-4.8-.7-6.7-1.5s-5-1.5-6.6-1.5-3.2-.4-3.5-.9c-.4-.5-2.5-1.2-4.8-1.6s-4.9-1.1-5.8-1.5l-7-2.4c-9.1-2.8-14.5-5-27.4-11.2a62 62 0 0 1-24.2-21.9 47 47 0 0 1-3.9-28.5c1.8-9 12.8-24.7 18.6-26.5q1.7-.7 1.9-1.4c0-.7 8.1-4.8 16.3-8.4 2.1-1 4.8-1.7 6-1.7s2.7-.4 3.3-1c1.1-1.1 9-2.5 22.4-4.1 9.6-1.2 38-.3 39.4 1.1.6.6 2.8 1 5.1 1s5.3.7 6.9 1.5c1.5.8 3.7 1.5 4.8 1.5s3.3.7 4.9 1.5l6.2 3.2c10 5.1 21 14.8 25.2 22.3a108 108 0 0 1 9.4 20.4c.5.3 1.2 2.6 1.5 5.1l.7 4.5h8.4c4.6 0 9.4-.5 10.7-1a203 203 0 0 1 26.3-1.8l24-.7-.3-6a111.2 111.2 0 0 0-45.1-77.2 81 81 0 0 0-17.1-9.9l-7.5-3.4c-5.9-2.8-14.1-5.5-21-7l-8-1.9a140 140 0 0 0-26-4.1 343 343 0 0 0-46.2-1.3M274 984.4c0 .8.5 1.8 1 2.1s1 1.9 1 3.4.5 3.2 1.1 3.8 1.4 2.6 1.9 4.4c1.1 4.6 3 9.8 4.6 13.1.8 1.4 1.4 3.5 1.4 4.6q0 2 .9 2.6c.5.4 1.2 2.4 1.6 4.6s1.1 4.2 1.6 4.6q.8.6.9 2.1c0 .8.6 2.9 1.3 4.6a81 81 0 0 1 4.4 12.7c.3 1.4 1.2 3.4 1.9 4.5a9 9 0 0 1 1.4 4.5c0 1.4.7 3.4 1.5 4.4s1.5 3 1.5 4.2q0 2.2.9 2.8c.5.3 1.2 2.1 1.5 4 .4 2 1.3 4.8 2.1 6.3a13 13 0 0 1 1.5 4.5q0 1.6.9 2.2c.5.3 1.1 1.8 1.4 3.3.5 3.2 2.5 8.9 4 11.8a24 24 0 0 1 1.8 5c.8 3.4 2.6 8.6 4.6 13.2.7 1.7 1.3 3.8 1.3 4.6s.7 2.8 1.5 4.3c.8 1.6 1.5 3.7 1.5 4.6s.5 2 1 2.3 1 1.5 1 2.7c0 1.1.6 3.4 1.4 5.1 3.3 7.7 3.9 9.4 4.6 12.2 1 3.5 2.8 8.7 4.7 13.2.7 1.7 1.3 3.8 1.3 4.6q0 1.5.9 2.1c.5.4 1.2 2.4 1.6 4.6s1.1 4.2 1.6 4.6q.8.6.9 2.2c0 .9.7 3 1.5 4.6a13 13 0 0 1 1.5 4.5c0 .9.7 2.9 1.5 4.5a13 13 0 0 1 1.5 4.1c0 .7.7 2.6 1.5 4.1.8 1.6 1.5 3.6 1.5 4.5s.7 3 1.5 4.5c.8 1.6 1.5 3.7 1.5 4.6q0 1.6.9 2.2c.5.4 1.2 2.4 1.6 4.6s1.1 4.2 1.6 4.6.9 1.5.9 2.8.7 3.1 1.5 4.2c.8 1 1.5 3 1.5 4.4s.6 3.4 1.4 4.5 1.6 3.1 1.9 4.5a81 81 0 0 0 4.4 12.7c.7 1.7 1.3 3.8 1.3 4.6q0 1.5.9 2.1c.5.4 1.2 2.4 1.6 4.6s1.1 4.2 1.6 4.6.9 1.3.9 2.2.7 3 1.5 4.6 1.5 3.8 1.5 5 .7 3.1 1.5 4.2c.8 1 1.5 2.8 1.5 4 0 1.1.7 2.9 1.5 4 .8 1 1.5 2.9 1.5 4s.7 3.5 1.5 5c.8 1.6 1.5 3.7 1.5 4.6q0 1.6.9 2.2c.5.4 1.2 2.4 1.6 4.6s1.1 4.2 1.6 4.6q.8.6.9 2.1c0 .8.6 2.9 1.3 4.6 2 4.8 3.8 9.8 4.7 13.6.5 1.8 1.3 3.8 1.9 4.4s1.1 2.3 1.1 3.8.4 3 .9 3.4 1.2 1.9 1.6 3.6 1.3 4.2 2.1 5.7 1.4 3.7 1.4 4.9.5 2.5 1 2.8 1 1.4 1 2.3.7 3 1.5 4.6a13 13 0 0 1 1.5 4.5c0 .9.7 2.9 1.5 4.5a14 14 0 0 1 1.5 3.8c0 .6.6 2.4 1.3 4.1 1.7 4 3.7 9.6 4.4 12.2l1.9 5.2a15 15 0 0 1 1.4 4.6c0 .8.7 2.8 1.5 4.3.8 1.6 1.5 3.7 1.5 4.6s.5 2 1 2.3 1 1.6 1 2.8.6 3.4 1.4 4.9 1.7 4 2.1 5.7 1.1 3.3 1.6 3.6.9 1.8.9 3.3.7 3.6 1.5 4.6a8 8 0 0 1 1.5 3.7c0 .9.7 3 1.5 4.5.8 1.6 1.5 3.9 1.5 5.1s.4 2.4.9 2.8 1.3 2 1.7 3.7 1 3.9 1.4 4.8c1.1 2.3 3.1 8.1 4 11.9.5 1.8 1.3 3.8 1.9 4.4s1.1 2.3 1.1 3.8.6 3.2 1.4 3.8 1.6 2.6 1.9 4.4c.4 3.2 1.8 7.3 4.4 13.4a18 18 0 0 1 1.3 4.2c0 .6.4 1.9.9 2.9a77 77 0 0 1 4.1 12.1c.5 1.8 1.3 3.8 1.9 4.4s1.1 2.2 1.1 3.7c0 1.4.7 3.4 1.5 4.4a8 8 0 0 1 1.5 3.7c0 .9.7 3 1.5 4.5.8 1.6 1.5 3.6 1.5 4.5s.7 3 1.5 4.5c.8 1.6 1.5 3.7 1.5 4.6s.4 1.9.9 2.2 1.2 2.4 1.6 4.6 1.1 4.2 1.6 4.6q.8.6.9 2.1c0 .8.6 2.9 1.3 4.6 2 4.7 3.8 9.9 4.4 12.6.5 2.2.9 2.3 6.2 1.6l17.6-1.5c6.6-.4 14.3-1.3 17-1.8 2.8-.6 8.9-1.1 13.7-1.1 4.8-.1 9.9-.6 11.5-1.2s8.6-1.4 15.8-1.9c7.1-.6 16.2-1.4 20-1.9s9.7-1 13.1-1c5.9-.1 6.1-.2 7.7-3.6.9-2 1.7-4.4 1.7-5.5s.4-2.1.9-2.5 1.3-2 1.7-3.8c.6-3 2.5-8 4.5-11.9.5-1 .9-2.6.9-3.5 0-1 .7-3.1 1.5-4.7a13 13 0 0 0 1.5-4.5c0-.9.6-2.5 1.4-3.6s1.6-3.1 1.9-4.5a81 81 0 0 1 4.4-12.7c.7-1.7 1.3-3.7 1.3-4.5q.1-1.3.8-2.4c.5-.5 1.9-4.3 3.2-8.4 1.2-4.1 2.7-7.9 3.1-8.5.5-.5.9-1.8.9-3a8 8 0 0 1 1.4-4c.7-1.1 1.6-3.1 1.9-4.5l1.7-6c2.8-7.7 4.2-11.6 5-13 .4-.9 1.1-3 1.4-4.8.4-1.7 1.2-3.4 1.7-3.7q.8-.7.9-2.7c0-1.1.6-3.4 1.4-5.1l1.9-5.2c.3-1.1 1.5-4.5 2.7-7.5a68 68 0 0 0 2.7-8c.3-1.4.9-3 1.3-3.5s1.8-4.4 3-8.5a52 52 0 0 1 3.2-8.5q.7-1 .8-2.3c0-.8.6-2.8 1.4-4.5l1.9-5.2c.9-3.3 5.7-16.8 7.3-20.2.8-1.7 1.4-3.5 1.4-4.1s.7-2.3 1.5-3.8c.8-1.6 1.5-3.9 1.5-5.1s.5-2.5 1-2.8 1-1.4 1-2.3.7-3 1.5-4.6 1.5-3.4 1.5-4.2c0-1.2.9-3.5 4.5-11.9.7-1.7 1.6-4.1 1.8-5.5.6-3.2 2.6-8.8 4.3-12.2.8-1.4 1.4-3.5 1.4-4.6 0-1.2.4-2.4 1-2.7q1-.6 1-2.2c0-.8.6-2.9 1.4-4.6l1.9-5.2c.3-1.1 1.5-4.5 2.7-7.5a68 68 0 0 0 2.7-8c.3-1.4 1-3 1.5-3.7a13 13 0 0 0 1.8-4.5c.9-3.7 2.7-8.8 4.7-13.5.7-1.7 1.3-3.8 1.3-4.6q.1-1.6 1-2.2c.6-.3 1-1.4 1-2.3s.7-3 1.5-4.6a13 13 0 0 0 1.5-4.5c0-.9.7-2.9 1.5-4.5a13 13 0 0 0 1.5-4.5c0-.9.6-2.5 1.4-3.6s1.6-3.1 1.9-4.5a80 80 0 0 1 3.8-11.5c.5-1.1 1.8-4.9 3-8.5s2.5-6.9 3-7.4.9-1.9.9-3.1.7-3 1.5-4.1 1.5-3 1.5-4.4.6-3.4 1.4-4.5 1.6-3.1 1.9-4.5a81 81 0 0 1 4.4-12.7c.7-1.7 1.3-3.8 1.3-4.6q0-1.5.9-2.1c.5-.4 1.2-2.4 1.6-4.6s1.1-4.2 1.6-4.6q.8-.6.9-2.2c0-.9.7-3 1.5-4.6a13 13 0 0 0 1.5-4.5c0-.9.6-2.5 1.4-3.6s1.6-3.1 1.9-4.5l1.7-6c2.8-7.7 4.2-11.6 5-13 .4-.9 1.1-3 1.4-4.8.4-1.7 1.2-3.4 1.7-3.7q.8-.7.9-2.7c0-1.1.6-3.4 1.4-5.1l1.9-5.2a493 493 0 0 0 6.8-19 71 71 0 0 1 2.9-7.6c.5-.9 1.2-3.3 1.5-5.3s1.1-3.6 1.5-3.6 1-1.2 1.3-2.8c.5-2.8 2-7.4 4.2-12.7 1.6-4.1 3.6-9.6 4.2-12l1.9-5.2a15 15 0 0 0 1.4-4.6q0-1.5.9-2.1c.5-.4 1.2-2.4 1.6-4.6s1.1-4.2 1.6-4.6q.8-.6.9-2.1c0-.8.6-2.9 1.4-4.6l1.9-5.2c.3-1.1 1.5-4.5 2.7-7.5s2.4-6.4 2.7-7.5l1.9-5.2c.8-1.7 1.4-4 1.4-5.1s.4-2.2.9-2.4q.9-.5 1.3-2.8l.3-2.5-55.6-.3-55.7-.2-2.1 3.5c-1.2 2-2.1 4.4-2.1 5.4s-.7 3.2-1.5 4.7c-.8 1.6-1.5 3.7-1.5 4.6s-.4 1.9-.9 2.2-1.2 2.2-1.6 4.2c-.3 2-1 4.4-1.4 5.3-1 2-3 7.7-4.1 11.6-.8 2.8-1.6 5.3-4.5 13.5l-3.1 9.5c-1 3.3-2.1 6.4-2.5 7s-1 2.7-1.4 4.8-1.1 4-1.6 4.3q-.8.6-.9 2.2c0 .9-.7 3-1.5 4.6s-1.5 3.8-1.5 5c0 1.1-.7 3-1.5 4-.8 1.1-1.5 3-1.5 4.2a14 14 0 0 1-1.4 5.1c-.8 1.5-2.2 5.5-3.2 8.8s-2.1 6.4-2.5 7-1 2.7-1.4 4.8-1.1 4-1.6 4.3-.9 1.5-.9 2.7-.7 3.5-1.5 5.1-1.5 3.8-1.5 5.1-.7 2.8-1.5 3.5a6 6 0 0 0-1.5 3.9c0 1.5-.7 3.6-1.5 4.7-.8 1-1.5 3-1.5 4.4s-.7 3.4-1.5 4.4-1.5 3-1.5 4.2-.7 3.5-1.5 5c-.8 1.6-1.5 3.9-1.5 5.1s-.4 2.4-.9 2.7-1.2 2.4-1.6 4.6-1.1 4.2-1.6 4.6-.9 1.5-.9 2.8-.7 3.1-1.5 4.2c-.8 1-1.5 3.1-1.5 4.5a9 9 0 0 1-1.5 4.5c-.8 1-1.5 2.7-1.5 3.6 0 1-.6 3.2-1.4 5s-2.2 6-3.2 9.3-2.2 6.4-2.6 6.9-.8 1.9-.8 3a14 14 0 0 1-1.5 5 13 13 0 0 0-1.5 4.3c0 .8-.6 2.9-1.3 4.6-1.8 4.3-3.7 9.5-4.7 13.2a397.4 397.4 0 0 0-8 24l-4.5 13.5c-3 8.6-3.7 10.7-4.5 13.5-1 3.7-2.9 8.9-4.7 13.2-.7 1.7-1.3 4-1.3 5.1 0 1.2-.4 2.4-1 2.7q-.9.6-1 2.2c0 .8-.6 2.9-1.3 4.6-1.8 4.3-3.7 9.5-4.7 13.2-.8 2.8-1.6 5.3-4.5 13.5l-3.1 9.5c-1 3.3-2.1 6.4-2.5 7s-1 2.7-1.4 4.8-1.1 4-1.6 4.3-.9 1.5-.9 2.7-.6 3.4-1.4 4.9-1.7 4-2.1 5.7-1.1 3.3-1.6 3.6-.9 1.8-.9 3.3-.7 3.6-1.5 4.6a9 9 0 0 0-1.5 4.5c0 1.4-.7 3.5-1.5 4.5-.8 1.1-1.5 3-1.5 4.2s-.7 3.5-1.5 5c-.8 1.6-1.5 3.9-1.5 5.1q0 2.1-1 2.3c-.5 0-1 1-1 2.2s-.7 3.6-1.5 5.2c-.8 1.5-1.5 3.7-1.5 4.8s-.6 3.2-1.4 4.6a55 55 0 0 0-4.3 12.5c-.3 1.5-1 3-1.6 3.4-1.5.9-5.7-4.4-5.7-7.2 0-1.3-.4-2.7-1-3s-1-1.3-1-2.2c0-.8-.6-2.9-1.4-4.6a97 97 0 0 1-4.6-13.2c-.5-1.7-1.8-5.5-3-8.5s-2.5-6.9-3-8.5c-1-3.7-3-9.5-4-11.5l-2.9-8.7a32 32 0 0 0-3.2-7.8c-.5-.4-.9-2.1-.9-3.9 0-1.9-.7-3.9-1.5-4.6a6 6 0 0 1-1.5-3.9c0-1.4-.7-3.5-1.5-4.5a9 9 0 0 1-1.5-4.7c0-1.5-.4-3-.9-3.3a32 32 0 0 1-3.2-7.8 45 45 0 0 0-3.1-8.3c-.4-.5-.8-1.8-.8-3s-.7-3.3-1.5-4.9a13 13 0 0 1-1.5-4.5c0-1-.7-2.6-1.5-3.7-.8-1-1.5-3-1.5-4.4s-.7-3.4-1.5-4.4a8 8 0 0 1-1.5-3.7c0-.9-.7-3-1.5-4.5-.8-1.6-1.5-3.6-1.5-4.5s-.7-3-1.5-4.5c-.8-1.6-1.5-3.6-1.5-4.5q0-1.6-.6-2.2c-.7-.6-5.8-14.8-7.4-20.2a88 88 0 0 0-4.6-12.7c-.8-1.4-1.4-3.5-1.4-4.6s-.7-3.3-1.5-4.8c-.8-1.6-1.5-3.7-1.5-4.6q0-1.6-.9-2.2c-.5-.3-1.2-2.2-1.6-4.2-.3-2-1-4.4-1.5-5.3a138 138 0 0 1-6.7-19.1c-.3-1.4-1.2-3.4-1.9-4.5a8 8 0 0 1-1.4-4.1c0-1.2-.7-3.5-1.5-5-.8-1.6-1.5-3.7-1.5-4.6q0-1.5-.9-2.2c-.5-.4-1.2-2.4-1.6-4.6s-1.1-4.2-1.6-4.6q-.8-.6-.9-2.1c0-.8-.6-2.9-1.4-4.6l-1.9-5.2-4.2-12c-2-5.5-3.9-11.1-4.2-12.5s-.9-3-1.3-3.5a15 15 0 0 1-1.5-4.8c-.4-2-1.1-4-1.6-4.3q-.8-.6-.9-2.2c0-.9-.7-3-1.5-4.6s-1.5-3.8-1.5-5.1-.7-2.8-1.5-3.5a6 6 0 0 1-1.5-3.9c0-1.4-.7-3.5-1.5-4.5a9 9 0 0 1-1.5-4.7c0-1.5-.4-3-.9-3.3s-1.9-3.8-3.1-7.8-2.6-8-3-8.8-1.1-3-1.4-4.8c-.4-1.7-1.2-3.4-1.7-3.7q-.8-.8-.9-2.9c0-1.2-.7-3.1-1.5-4.2-.8-1-1.5-3-1.5-4.4s-.7-3.4-1.5-4.4a9 9 0 0 1-1.5-4.5c0-1.4-.7-3.5-1.5-4.5a8 8 0 0 1-1.5-3.7c0-.9-.7-3-1.5-4.5-.8-1.6-1.5-3.7-1.5-4.6q0-1.6-.9-2.2c-.5-.4-1.2-2.4-1.6-4.6s-1.1-4.2-1.6-4.6-.9-1.5-.9-2.8-.7-3.1-1.5-4.2c-.8-1-1.5-3-1.5-4.4s-.7-3.4-1.5-4.4a8 8 0 0 1-1.5-4c0-1.2-.7-3-1.5-4-.8-1.1-1.5-3-1.5-4.2s-.7-3.5-1.5-5c-.8-1.6-1.5-3.7-1.5-4.6s-.4-1.9-.9-2.2-1.2-2.1-1.5-4q-.6-3.4-2.9-4c-1.2-.3-27.5-.6-58.4-.6-48.4 0-56.3.2-56.3 1.4m590.3-.7c-1 .4-1.3 60.6-1.3 296.3 0 162.7.4 296.1.8 296.4s3.7 0 7.3-.5 11.8-1.4 18.4-1.9 14-1.3 16.5-1.9 8.2-1 12.7-1.1c4.5 0 9.4-.5 11-1.1s7.5-1.3 13.3-1.5c5.8-.3 12.8-.9 15.5-1.5 2.8-.6 10.2-1.4 16.5-1.9l24.5-2c7.2-.6 13.9-1.5 15-2s7.6-1.1 14.5-1.4 14.1-1 16-1.6c1.9-.5 7.5-1 12.5-1 4.9-.1 11.7-.7 15-1.5s10.2-1.5 15.3-1.5 10.3-.5 11.5-1.2 7.8-1.3 14.7-1.6c6.9-.2 13-.9 13.7-1.4s7.2-1.2 14.5-1.5 13.8-.9 14.3-1.3 6.9-1.1 14-1.5c7.2-.4 13.5-1 14-1.4 1-.6 20.2-2.5 41.5-4 6.9-.5 14.5-1.4 17-2a73 73 0 0 1 13.2-1.1c4.8 0 9.9-.5 11.5-1.1a91 91 0 0 1 15.8-1.9c7.2-.5 15-1.3 17.5-1.9s8.4-1 13.2-1.1c4.8 0 9.7-.4 11-.9s5.8-1.3 10.1-1.6l7.7-.7v-37.4c0-32.1-.2-37.5-1.5-38-.8-.3-7.2-.1-14.2.6l-24.8 2.1c-6.6.5-13.5 1.4-15.5 1.9-1.9.5-8.1 1-13.8 1-5.9 0-11.3.5-12.5 1.2s-7.8 1.5-14.7 1.9-14.5 1.2-17 1.8-8.8 1-14 1.1c-5.4 0-10.1.5-10.7 1.1-.5.5-6.8 1.4-13.9 1.9-20.2 1.4-37.4 3-42.9 4-5.3 1-22.5 2.6-41 4-6 .4-13 1.3-15.5 1.9s-8.9 1.1-14.3 1.1-10.8.5-12 1.1-7.3 1.4-13.6 1.6c-6.4.3-12.8.9-14.3 1.5s-8.5 1.4-15.5 1.9-19.8 1.5-28.3 2.3c-12 1.2-15.6 1.2-16.2.3-.4-.7-.8-45.1-.8-98.8 0-76.5.3-97.9 1.3-99.1 1-1.4 5.2-1.8 26.2-2.8l44-1.6c10.5-.2 28.9-1.1 40.9-1.9s30.5-1.5 40.9-1.5c11.4 0 19.6-.4 20.8-1.1 1.2-.6 14.7-1.4 32.7-2 16.9-.5 35.2-1.3 40.7-1.8s19.8-.9 31.7-1c13.3-.1 21.9-.5 22.3-1.1s6.2-1 14.2-1h13.6l-.8-16.8-1.4-36.7-.6-20-25.5.2c-14 .1-32.4.6-40.8 1.2-8.5.6-27.1 1.1-41.3 1.1a166 166 0 0 0-28.1 1.1c-1.3.7-15.7 1.4-39.2 2-20.4.5-42.5 1.3-49.1 1.8s-23.8 1-38.2 1c-14.4.1-26.4.5-26.7.9-.9 1.5-34.6 2.5-36.2 1.1-1.2-1-1.4-12.3-1.4-71.3 0-49.4-.3-70.5-1.1-71.3q-1.2-1 0-3.2l1.2-2.1 176.2-.2 176.2-.3v-78l-231.5-.2c-127.3-.1-232.1.1-232.7.4m748.6.3c-.8.5-8.7 1.2-17.5 1.6-8.7.3-18.1 1.2-20.8 2s-6.9 1.4-9.2 1.4a24 24 0 0 0-7.7 1.5c-2 .8-5.2 1.5-7.1 1.5s-3.7.4-4.1.9-2.7 1.3-5.3 1.7a19 19 0 0 0-5.7 1.4c-.5.5-2.7 1.1-4.7 1.5-2.1.4-3.8 1.1-3.8 1.6q-.2.8-2.1.9c-3.5 0-23.4 9.5-37.2 17.7a74 74 0 0 1-9.7 5.3q-1 0-1 .9c0 .5-2.1 2.3-4.7 3.9-2.7 1.6-5.9 4-7.3 5.2l-6 4.8c-4 3-25.8 24.6-28 27.8l-8.7 11.7c-4 5.2-7.3 9.7-7.3 10s-1.2 2.5-2.7 4.9l-4 6.3c-1.5 2.6-10 20-11.8 24.3a112 112 0 0 0-7.4 19.7c-.4 1.7-1.3 4-1.9 5.2-.7 1.2-1.2 3-1.2 4.1s-.7 3.3-1.5 4.8c-.8 1.6-1.5 4.3-1.5 6.1s-.4 3.4-.9 3.7-1.2 3.4-1.6 6.8a237.7 237.7 0 0 0-5.6 47c-1.3 26.6 1.3 76.8 4.1 78.8.4.3 1.1 3.5 1.4 7.2.4 3.7 1.2 7 1.7 7.3.5.4.9 2.3.9 4.3 0 2.1.6 4.6 1.4 5.7s1.6 3.6 1.8 5.5a45 45 0 0 0 1.8 7c2.6 7.1 4.3 11.6 5.6 14.7.8 1.7 1.4 3.6 1.4 4.2s.4 1.9.9 2.9l7.2 14.7c5.3 11 13.2 25.3 16.1 29l7 9.5c6.3 8.6 28.4 32 30.3 32 .5.1 3.7 2.5 7 5.5a44 44 0 0 0 11.4 8.3c2 1.6 4.3 3.2 5.1 3.5.8.4 2.9 1.6 4.5 2.7a65 65 0 0 0 6.5 3.9c.3.3 5 2.8 10.5 5.4l12.8 6.3c1.6.8 3.7 1.4 4.7 1.4s2.1.4 2.5.9 1.9 1.2 3.6 1.6 4.2 1.3 5.7 2.1 3.6 1.4 4.8 1.4 2.4.4 3 .9q1.5 1.3 15.9 4.2c2.8.5 5.9 1.4 7 1.9s4.5 1.1 7.5 1.5 5.9 1 6.5 1.4c.5.5 5.6 1.1 11.1 1.4s11.1 1 12.2 1.6c2.7 1.4 59.5 1.5 62.2.1 1-.5 6.5-1.4 12.2-1.9s12.1-1.4 14.3-2 5.9-1.1 8.2-1.1 4.4-.4 4.8-.9 2.7-1.3 5.3-1.6 5.4-1 6.2-1.4c.9-.5 3.9-1.2 6.8-1.6s5.4-1.1 5.8-1.6 1.6-.9 3-.9a11 11 0 0 0 4.7-1.2c1.2-.6 3.5-1.5 5.2-1.9 5.7-1.4 16.5-5.4 26.7-9.8a55 55 0 0 0 12-5.9l7.3-4.3c1.2-.5 18.8-12.1 19.5-12.9l3.6-3a271 271 0 0 0 19.6-16.9c4.3-4.1 8.8-8.1 9.9-8.9a65 65 0 0 0 5.7-5.1l3.7-3.6.3-96.2.2-96.3-2.2-.5c-1.3-.3-48-.4-103.8-.3l-101.5.3-.3 33.2-.2 33.3h58.4c32.1 0 59.1.3 60 .6 1.4.5 1.6 5.1 1.6 41v40.3l-3.7 2.8a401 401 0 0 0-26.5 24.5 181 181 0 0 1-25 18.4 77 77 0 0 1-18.7 7.4c-.9 0-2.9.7-4.5 1.5-1.5.8-3.8 1.5-5.1 1.5s-3.9.7-5.8 1.5c-2 .8-5.1 1.5-6.9 1.5s-5.1.7-7.3 1.5c-2.6.9-8.1 1.4-15.3 1.5-7.1 0-12 .5-13.2 1.2-1.6 1-2.4 1-4 0a40 40 0 0 0-12.7-1.2c-6 0-12.6-.5-14.8-1.1s-6.4-1.4-9.4-1.9c-2.9-.5-5.8-1.3-6.4-1.9s-2.6-1.1-4.3-1.1c-1.8 0-3.5-.4-3.9-.9s-2-1.3-3.7-1.7-3.9-1-4.8-1.5l-9-4.4a130 130 0 0 1-30.1-19.1c-3.8-3-17.1-16.5-20.4-20.8a181 181 0 0 1-14-21.1 15 15 0 0 0-2.7-4.3q-.8-.5-.8-1.5a39 39 0 0 0-3-7.2 56 56 0 0 1-4.3-10.8c-2.7-6.3-4-10.3-4.4-13.7a94.9 94.9 0 0 1-5.4-24c-.6-3.6-1.4-8.1-1.9-10-1.8-6.8-3.3-39.7-2.6-56.1.9-23.3 1.6-33.1 2.6-35.4.5-1.1 1.1-4.7 1.5-8s1-6.4 1.5-6.9 1-2.5 1-4.4.6-4.8 1.4-6.5 1.6-4.3 1.9-5.7c1.1-5.3 4.1-12.7 10.3-25.3 5.7-11.3 5.6-11.2 11.1-19.4 5.8-8.7 14.8-18.3 25.3-27.3 6.2-5.2 20.9-15 22.6-15 .6 0 1.7-.7 2.4-1.5s2.1-1.5 3.1-1.5q1.8-.1 1.9-1t1.1-1c.6 0 2.5-.6 4.2-1.4q5.3-2.2 15.5-6c2.3-.9 5.2-1.6 6.5-1.6s4-.7 6.2-1.5a36 36 0 0 1 9.1-1.5c2.7 0 5.5-.5 6.2-1.2 1.8-1.8 48.6-1.8 50.3-.1.7.7 3.5 1.3 6.2 1.3s6.3.6 8 1.4 4.6 1.6 6.2 1.9a106.5 106.5 0 0 1 34.5 15.7c.3.3 1.8 1.2 3.5 2 4.5 2.3 24.7 22.8 29 29.5a88 88 0 0 1 10.9 19.7l3.1 6.8h5.5c3 0 7.3-.7 9.5-1.5a36 36 0 0 1 9.1-1.5c2.7 0 5.4-.4 6-1s4.1-1.4 7.9-1.9l14.5-2.2c4.1-.6 8.3-1.5 9.2-2 1-.5 3.3-.9 5.1-.9s5.6-.6 8.3-1.4 6.3-1.6 7.9-1.8c2.8-.3 3-.6 2.7-3.8a11 11 0 0 0-1.3-4.5 4 4 0 0 1-.9-2.5c0-.8-.7-2.8-1.5-4.4a13 13 0 0 1-1.5-4.3c0-.8-.6-2.7-1.4-4.1l-5-10.2a114 114 0 0 0-10.8-19.1 17 17 0 0 1-2.8-4.3c0-2.6-23.6-27.7-31.9-33.8-2.9-2.2-6.1-4.8-7-5.7a31 31 0 0 0-5.2-3.5l-3.9-2.5c-1.6-1.8-20.5-11-30-14.6-2.5-.9-5.2-2.1-6-2.5a31 31 0 0 0-5-1.5c-1.9-.4-3.9-1.1-4.5-1.5-.5-.4-3-1-5.5-1.4-2.4-.4-4.9-1.1-5.5-1.5a23 23 0 0 0-6.9-1.5 24 24 0 0 1-7-1.5c-.6-.5-4.3-1.1-8.3-1.4s-8.1-1.1-9.2-1.6-5.9-1.1-10.8-1.2c-4.8 0-12.8-.5-17.8-1-14-1.5-31.8-1.9-33.6-.9m483.1 0c-.9.5-8.3 1.2-16.5 1.6a121 121 0 0 0-18.9 2c-2.1.8-6 1.4-8.7 1.4s-5 .4-5.4.9c-.3.6-2.7 1.3-5.3 1.6a23 23 0 0 0-6.3 1.5c-.9.4-3.7 1.1-6.3 1.5s-4.9 1.1-5.2 1.6q-.7.8-2.2.9c-.9 0-3 .7-4.6 1.5a14 14 0 0 1-3.8 1.5 129.2 129.2 0 0 0-16.8 7.1l-6 3.1a31 31 0 0 0-5 2.9l-4.5 2.9a29 29 0 0 0-4.5 3l-4.5 3.1c-5.1 3.4-10.8 8.3-15.9 13.6-2.2 2.4-4.6 4.3-5.3 4.3q-1.2.1-1.3.8c0 .5-2.7 3.7-6.1 7.3a216 216 0 0 0-38.5 58.7l-2.8 6.5c-.7 1.7-2.2 5.9-3.1 9.2l-3.1 9.8c-.8 2-1.4 4.8-1.4 6.2 0 1.3-.4 2.6-.9 2.9s-1.2 3.4-1.6 6.8a223.8 223.8 0 0 0-5.6 43.8c-1 17-.4 71.5.9 73.4.4.6 1.2 4.9 1.9 9.6 1.1 8.7 2.9 16.9 5.8 27.5l2.5 9.4c.4 1.8 1.3 3.8 1.9 4.4s1.1 2.1 1.1 3.3.8 3.7 1.7 5.6l3 6c.7 1.4 1.3 3.5 1.3 4.6s.4 2.2.9 2.4 2 2.8 3.4 5.8c1.5 3 4 7.7 5.7 10.5l3.9 7c.5 1.1 1.7 2.9 2.8 4a220 220 0 0 0 50.3 50.5c.3.3 2.3 1.7 4.5 3l4.5 2.9c.3.4 2.9 1.8 5.8 3.3l8 4.2c4 2.2 11.9 5.6 13.1 5.6q1 0 1.1.9t2.8 1.4a64 64 0 0 1 13.4 4.7c1 .6 3 1 4.5 1 1.6 0 3.7.7 4.7 1.5 1.1.8 3.8 1.5 6.1 1.5s4.5.4 5.1 1 3.2 1.2 5.9 1.5 7.3 1 10 1.6c12.2 2.5 58.4 4.8 62 3 1.1-.5 7.8-1.2 15-1.6 7.1-.3 13.4-1 13.9-1.5s3-1 5.5-1c2.6 0 6.6-.6 9.1-1.4 4.3-1.4 9.2-2.7 17-4.6 3.8-.9 8.7-2.6 13.7-4.7 1.7-.7 3.7-1.3 4.5-1.3a7 7 0 0 0 3.2-1.5 8 8 0 0 1 3.8-1.5q1.7-.1 1.8-1t1.1-1c1.6 0 9.7-3.9 10.4-5q.6-.9 2-1c.8 0 4.3-2 7.9-4.5s6.8-4.5 7.1-4.5c4 0 44.5-38.2 44.5-41.9 0-.3 1-1.7 2.3-3.1s3.4-4.3 4.7-6.5 2.7-4.2 3-4.5c1.8-1.3 16-28.8 16-30.9 0-.6.4-1.9 1-2.9a98 98 0 0 0 7.1-20.2c.5-2.4 1.4-4.9 1.9-5.4s1-2.5 1-4.4c0-1.8.5-4.3 1.2-5.5s1.5-4.8 1.9-8.2 1.2-8 1.8-10.5 1-7 1.1-10.1c0-3 .5-6 1.2-6.7 1.6-1.6 1.6-66.7 0-73.7-1-4.6-1.9-11-4-28.2-.4-3.4-1.3-6.8-2-7.5-.6-.6-1.2-3-1.2-5.3s-.5-4.6-1.1-5.2a13 13 0 0 1-1.9-5q-1.2-5.8-4.7-14c-.7-1.7-1.3-3.5-1.3-3.9 0-2.1-15-32.4-18.3-36.8l-7-9.6c-8.2-11.3-8.7-11.8-19.7-22.8-5.2-5.2-14-12.8-19.5-16.9l-11-8.1a197 197 0 0 0-42.1-20.7c-1.6-.8-3.9-1.5-5.1-1.5s-2.4-.4-2.7-.9-2.4-1.2-4.6-1.6-4.2-1.1-4.6-1.6-2.2-.9-4.2-.9-5-.7-6.6-1.5-4.9-1.5-7.5-1.5c-2.5-.1-6.4-.7-8.6-1.5a40 40 0 0 0-11-1.5c-3.8-.1-10.8-.6-15.5-1.2a124 124 0 0 0-29-.8m33.5 63a134 134 0 0 1 59.5 22c.3.3 3.4 2.8 7 5.5a121 121 0 0 1 25.2 26.6c.8.8 2.8 3.6 4.4 6.4l4.1 7c.7 1.1 1.5 2.7 1.8 3.5 1.3 3.2 3.7 8.6 5.1 11.3.8 1.6 1.4 3.4 1.4 4.2 0 .7.7 2.6 1.5 4.1.8 1.6 1.5 3.9 1.5 5.1s.4 2.4.9 2.7 1.2 3 1.6 6.1c.3 3 1.1 5.7 1.6 6 .5.4.9 2.6.9 5s.5 5.6 1.1 7.2c1.7 4.2 3.1 26.3 3.2 47.3a297 297 0 0 1-2.6 45.8c-.4.6-1.2 3.9-1.7 7.4a79 79 0 0 1-4 18c-.6 1-1 2.7-1 3.9s-.6 3.5-1.4 5.2l-3.1 7.7c-1.9 4.8-7.8 17.1-9.8 20.5a149 149 0 0 1-37.7 41.7 131 131 0 0 1-27.8 14.8q-1.1 0-1.2 1c0 .5-1 1-2.2 1s-3.6.7-5.2 1.5c-1.5.8-4 1.5-5.5 1.5-1.4.1-3.7.7-5.1 1.5s-5.2 1.4-8.6 1.5c-3.4 0-6.5.5-7.2 1.2-1 1-6 1.3-18.2 1.3s-17.2-.3-18.2-1.3c-.6-.6-3.6-1.2-6.5-1.2-3 0-7-.7-9-1.5-1.9-.8-4.6-1.5-5.8-1.5s-3.6-.7-5.1-1.5c-1.6-.8-3.9-1.5-5.1-1.5q-2.1 0-2.3-.9c0-.5-1.4-1.3-3.2-1.6q-4.1-1-16-7.7a191 191 0 0 1-19.9-14.9 13 13 0 0 0-3.8-2.9c-.9 0-3-2.3-10.6-11.4l-5-6a112 112 0 0 1-10.5-16.1l-2.9-5-3.5-7.7a32 32 0 0 1-2.6-7.2c0-.8-.4-1.8-1-2.1s-1-1.4-1-2.3-.7-3-1.5-4.6-1.5-4-1.5-5.5c0-1.4-.7-3.9-1.5-5.5-.8-1.5-1.5-4.3-1.5-6.1s-.7-5.2-1.5-7.5-1.5-6.8-1.5-9.9-.5-6.2-1.2-6.9c-1.8-1.8-2.4-51.2-.8-60.7.6-3.9 1.5-10.8 1.9-15.5s1.1-9.2 1.6-10 1.3-3.8 1.6-6.5c.8-5.5 2.7-13.1 3.9-15.5a31 31 0 0 0 1.5-5c.4-1.9 1.1-4.1 1.6-5l2.4-5.5c3.1-7.5 8-17 9.3-17.8.6-.4 1.2-1.5 1.2-2.3 0-2.2 9.7-14.8 17.3-22.6 6-6.1 14.1-13.1 19.6-16.8 8.7-6 29.4-16 33.1-16 1 0 2.1-.4 2.4-.9.4-.5 2.9-1.2 5.6-1.6s5.2-1.1 5.6-1.6 2.4-.9 4.7-1 7.6-.6 11.7-1.4c10.8-1.9 25.7-1.7 39.5.5m339.5 412.5c-4.7.7-13.9 1.4-20.5 1.4-6.6.1-13.8.6-16 1.1a196 196 0 0 1-22.5 2 494 494 0 0 0-26 1.9c-4.1.6-9.9 1-12.7 1.1h-5.3v3.8c0 3.6.2 3.8 4.5 5 2.5.7 6 1.2 7.9 1.2 1.8 0 5.3.7 7.6 1.5s6.2 1.5 8.6 1.5 5.5.5 7.1 1.1 5.7 1.5 9.3 2c13.1 1.8 23.5 3.6 25 4.1 1.8.8 12.6 2.5 22.7 3.8 3.9.4 8.7 1.3 10.5 1.9s6.3 1.3 10 1.7 7 1 7.3 1.5c.4.5 2.5.9 4.8.9s6.4.7 9.1 1.5a40 40 0 0 0 9.3 1.5c2.4 0 5.3.4 6.3 1s5.2 1.4 9.2 2a241 241 0 0 1 24.8 4.2c.8.4 4.3.9 7.8 1.2s7.1 1 8.2 1.6c2.4 1.3 9.2 1.3 12.2 0 1.3-.5 8.4-1.5 15.8-2l27.5-2.5 25.5-2.4c6.3-.5 13.5-1.4 16-2s8-1.1 12.3-1.1c7.5 0 20.7-2.5 20.7-3.9 0-.4-1.2-1.9-2.7-3.2a28 28 0 0 0-15.4-5.9c-2 0-5.8-.7-8.5-1.5s-7-1.5-9.5-1.5c-2.6 0-6.6-.7-8.9-1.5s-6.2-1.5-8.6-1.5-5.5-.5-7.1-1.1-7.1-1.5-12.3-2l-18-1.8a93 93 0 0 1-17-3.4c-8.1-2.4-14.5-3.6-30.5-5.6-3.8-.5-8.3-1.4-9.8-2-1.6-.6-4.8-1.1-7.2-1.1s-5.6-.5-7.2-1.1a53 53 0 0 0-10.3-1.9c-4.1-.4-9.3-1.3-11.5-1.9-5.4-1.4-32-1.2-42.5.4m-192 16.6a516 516 0 0 1-25 1.8c-9.6.6-20 1.5-23 2s-10.9 1-17.5 1.1c-6.6 0-13.8.5-16 1s-10.9 1.3-19.2 1.7l-15.3.6v3.7c0 4.8 1.4 6 7.6 6 2.8 0 6.8.7 8.7 1.5 2 .8 5.6 1.5 7.9 1.5s6.5.7 9.2 1.5 6.6 1.5 8.7 1.5 4.8.4 6.1 1 5.5 1.4 9.3 1.9l15.5 2.5 15.5 2.7c3.8.6 7.7 1.5 8.7 2s3.7.9 6.1.9 6.6.7 9.3 1.5 6.5 1.5 8.5 1.5 5.6.7 7.9 1.5 6.2 1.5 8.7 1.5 5.3.5 6.4 1.1 5 1.4 8.7 1.9c14.6 2 23.1 3.5 23.8 4.2.4.5 2.5.8 4.7.8 2.1 0 6.9.6 10.6 1.4s9.5 2 13.1 2.6l9.7 1.6c1.7.3 4.8.1 6.8-.6s8.9-1.6 15.3-2c18.7-1.4 35.3-3 40.7-4s26.6-3 41.5-3.9a53 53 0 0 0 10.8-1.4c.7-.5 1.2-3 1.2-6.1v-5.3l-6.9-.6c-3.9-.3-7.9-1.1-9-1.6s-3.9-1.1-6.3-1.1-6.1-.5-8.3-1.1-6.7-1.4-10-1.8c-5.6-.7-11.2-1.7-24.5-4.3-3-.6-8-1.4-11-1.8a387 387 0 0 1-24-4c-4.7-1.2-15.8-2.9-25.2-3.9-4.2-.5-8.2-1.3-9-1.7a28 28 0 0 0-7.3-1.5c-3.3-.3-8.9-1.1-12.5-1.8a348 348 0 0 0-24-4.1c-3.6-.5-8.5-1.4-11-1.9a96 96 0 0 0-26 0m-194 20.5a180 180 0 0 1-19.1 1.4c-5.8 0-15 .7-20.5 1.5s-14.7 1.5-20.5 1.5-13.1.5-16 1-13.2 1.4-22.7 1.9a111 111 0 0 0-18.3 1.8c-.6.6-.9 2.6-.7 4.4.3 3.3.4 3.4 5.8 4 3 .4 6.8 1.2 8.3 1.8s4.9 1.1 7.3 1.1c2.5 0 5.4.5 6.5 1.1s5 1.4 8.7 1.9c14.4 2 21.8 3.2 23.7 4 1.1.4 5.4 1.3 9.5 1.9l13.7 2.1a33 33 0 0 1 8.2 2c1.1.5 4.1 1 6.8 1 2.6.1 6.6.7 8.8 1.5s5.8 1.5 8 1.5 5.8.7 8 1.5a33 33 0 0 0 8.2 1.5c2.3 0 5.4.5 7 1.1 2.6 1 6.2 1.6 22.1 3.9 3.7.5 8.3 1.3 10.2 1.9a242 242 0 0 0 23.2 4.1c3.7.5 7.6 1.4 8.8 2s4.9 1 9.3.7c10.8-.8 28.5-2.7 34.7-3.7 3-.5 10.2-1.2 16-1.5s13-1 16-1.6a611 611 0 0 1 38.9-3.9c12.8-1 14.2-2 12.1-8.3l-1.5-4.2-7-.7a74 74 0 0 1-10.5-1.7c-3.8-1-14-2.7-25.8-4.2a46 46 0 0 1-9.2-1.9c-1-.6-3.9-1-6.3-1-2.5 0-6.4-.7-8.7-1.5s-6.4-1.5-9.1-1.5-6-.5-7.6-1.1-5.7-1.5-9.3-1.9l-16-2.5c-5.2-.8-12.9-2-17-2.5s-8.5-1.4-9.8-2c-1.3-.5-3.9-1-5.9-1-1.9 0-6.5-.6-10.2-1.4-8.7-1.9-19-3.6-27.7-4.6a41 41 0 0 1-9.2-1.9c-2.7-1.4-10.5-1.2-21.2.5m-189.5 19.9a191 191 0 0 1-19.5 1.5c-5.8 0-12.5.5-15 1s-11.7 1.2-20.5 1.5-18 1.1-20.5 1.6-12.6 1.3-22.5 1.8-19.3 1.4-20.8 2c-2.4.9-2.8 1.6-2.5 4.3.3 3.1.5 3.3 5.3 3.9 2.8.4 6.3 1.2 7.8 1.8 1.6.6 4.9 1.1 7.3 1.1 2.5 0 5.3.4 6.3 1a42 42 0 0 0 8.7 1.9l15.9 2.6 14.6 2.4c3.1.5 7.9 1.3 10.5 1.9 10 2.2 17.1 3.4 23.4 4.2 3.6.5 7.8 1.3 9.3 1.9a23 23 0 0 0 6.7 1.1c2.1 0 5.1.5 6.7 1.1 1.5.6 6 1.5 9.8 1.9 11.3 1.4 20.9 3.1 23 4 1.9.7 10 2.1 23 3.9 3.3.4 8 1.3 10.5 1.9s7.4 1.6 11 2.2l9.8 1.6c1.8.4 4.5.1 6-.5s9-1.6 16.7-2.1 16.5-1.4 19.5-1.9 8.7-1 12.6-1c3.9-.1 8.4-.5 10-1s9-1.5 16.4-2.1l26.5-2.3 13-1.2.3-4.6c.2-3.7-.1-4.8-1.5-5.4-1.7-.6-13-2.6-27.3-4.6-3.6-.5-7.8-1.3-9.4-1.9s-4.8-1-7.1-1-6.4-.7-9.1-1.5-6.7-1.5-8.9-1.5-5.8-.7-8-1.5-6.1-1.4-8.7-1.5c-2.6 0-5.9-.5-7.3-1-1.5-.6-6.1-1.5-10.3-2s-11.7-1.7-16.7-2.5-12.1-2-16-2.5a68 68 0 0 1-9.3-2c-1.3-.6-4-1-6-1-2.1 0-6.4-.7-9.5-1.5-3.2-.8-7.5-1.5-9.6-1.5s-6-.7-8.7-1.5-6.7-1.5-8.9-1.5-6.2-.7-8.9-1.5c-5.6-1.7-5.9-1.7-18.1 0m-201 20.3c-.2.2-7.7.8-16.7 1.3-16.5.8-34.8 2.1-55.8 4l-27 2c-32.7 2.1-32.2 2-31.8 6.1.3 2.6.9 3.3 4.3 4.6 2.2.8 6.9 1.8 10.5 2.3 6.6.8 15.5 2.4 31 5.4 4.7.9 11.5 2 15.2 2.5s7.6 1.3 8.7 1.9 3.9 1.1 6.3 1.1c2.4.1 6.1.7 8.3 1.5s5.9 1.5 8.1 1.5c2.3 0 6.1.7 8.4 1.5s5.7 1.5 7.6 1.5 5.9.7 9.1 1.5 7.4 1.5 9.5 1.5 3.9.4 4.2.9a28 28 0 0 0 8.6 1.5c4.4.4 8.2 1.2 8.5 1.7s3 .9 5.8.9c2.9.1 7 .7 9.2 1.5s5.8 1.5 8 1.5c2.2.1 5.8.7 8 1.5s5.8 1.5 8.1 1.5 6.3.7 9 1.5c6.5 2 27.4 2 37.7 0 4.3-.8 11.3-1.5 15.5-1.5a58 58 0 0 0 11.2-1c1.9-.6 8-1.3 13.5-1.6s12-1 14.5-1.5 10.1-1.4 17-1.9l18-1.8 5.5-.7.3-4.8q.3-4.7-1-5.1l-6.7-1.6c-5.1-1.2-8.5-1.8-23.6-3.9l-11.5-2c-5.3-1.2-15.7-2.8-25.5-4-3.8-.5-8.3-1.4-9.8-2-1.6-.6-4.7-1.1-7-1.1s-6-.7-8.2-1.5-6.1-1.4-8.6-1.5c-2.5 0-5.9-.4-7.5-1a97 97 0 0 0-10.4-2c-4.1-.5-11.5-1.7-16.5-2.5s-12.1-2-16-2.5a68 68 0 0 1-9.3-2c-1.3-.6-4.1-1-6.4-1-2.2 0-7-.6-10.7-1.4-8.3-1.8-19-3.3-19.6-2.8m975.5 13.1q-3.6.5-3.8 2.6c-.2 1.1-1 3.3-1.7 5-.7 1.6-1.5 4.1-1.8 5.5l-1.5 5.5c-1.3 3.7-3.4 11-5.7 19-.9 3.3-2 6.8-2.6 7.7-.5 1-.9 2.7-.9 3.9s-.6 3.5-1.4 5.2c-1.2 3-2.6 7.5-4.6 15.7-1.4 5.8-3.7 11.4-4.9 11.8s-5.9-9.9-7.8-17.3l-1.9-5.2a15 15 0 0 1-1.4-4.6c0-.8-.7-2.8-1.5-4.3-.8-1.6-1.5-3.7-1.5-4.6s-.4-2-1-2.3-1-1.3-1-2.2c0-.8-.6-2.9-1.3-4.6-1.8-4.3-3.7-9.5-4.7-13.2a83 83 0 0 0-4.6-12.7c-.8-1.4-1.4-3.3-1.4-4.2 0-1.3-1.2-1.6-6.2-1.6-9.6 0-16.6 1.1-17.2 2.7-.5 1.3 1 5.6 4 11.5.8 1.4 1.4 3.5 1.4 4.5s.4 2.3.8 2.8 1.9 3.9 3.2 7.5a40 40 0 0 0 3.2 7.4q.7 1 .8 2.4c0 .8.7 3 1.6 5l3 7a16 16 0 0 1 1.4 5c0 .9.7 2.6 1.5 3.6a8 8 0 0 1 1.5 3.7c0 1 .6 3 1.4 4.6a41 41 0 0 1 4.6 11.6q0 1.5.9 2.2c.5.3 1.3 2 1.7 3.7s1 3.9 1.4 4.8l2.5 5.7c1.7 4.1 1.9 4.3 5.4 3.7l12.6-1.4c16.4-1.6 19.5-2.8 19.5-7.7 0-1.2.5-2.5 1-2.8s1-1.5 1-2.5c0-1.1.7-4.1 1.5-6.7 1.6-5 3.5-11.5 6-20.8 3.1-11.2 4.5-16.1 6-20.8.8-2.6 1.5-5.6 1.5-6.7 0-1 .4-2.1.9-2.4s1.1-2.5 1.5-4.8 1.1-4.7 1.5-5.3c.5-.5 1.1-3 1.5-5.5.4-2.4 1.1-4.9 1.5-5.5.5-.5 1.1-2.6 1.4-4.5l1.2-5.8c.7-2.2.6-2.2-7.1-2.1-4.4.1-9.5.4-11.4.8m-1209.5 9.2c-3.3.5-13.4 1.3-22.5 1.8-29.4 1.8-47.3 3.1-56.1 4.1-4.8.6-11.3 1-14.5 1-3.3 0-7.6.3-9.6.6-3.3.6-3.8 1-3.8 3.4 0 1.5.6 3.3 1.4 4a99 99 0 0 0 23.6 5 82 82 0 0 1 10 1.9c4.3 1.1 13.9 2.8 24 4.1 4.1.6 7.9 1.5 8.4 2s3 1 5.5 1c2.6 0 6.4.7 8.6 1.5s5.8 1.4 8 1.5c2.2 0 6.2.7 8.9 1.5s6.7 1.5 8.8 1.5 4.6.4 5.6 1 4.9 1.4 8.7 1.9c14.5 2.1 20.9 3.3 22.6 4.2 1 .5 3.7.9 6.1.9 2.4.1 6.1.7 8.3 1.5s5.9 1.5 8.1 1.5c2.3 0 6.1.7 8.4 1.5s6 1.5 8.1 1.5 5 .5 6.6 1.1a87 87 0 0 0 23.3 3.1c9.8 0 32-1.9 36-3.1a60 60 0 0 1 12.7-1.1c5 0 10.4-.5 12-1.1a85 85 0 0 1 14.8-1.5 97 97 0 0 0 15.4-1.6c1.8-.6 8.6-1.3 15-1.7l11.6-.6v-12l-5.5-.5c-3-.3-6-.8-6.6-1.2s-4.4-1.2-8.5-1.8c-4.1-.5-11.7-1.7-16.9-2.5s-12.9-2-17-2.5-8.6-1.4-10-1.9a47 47 0 0 0-8.8-1.5c-3.5-.3-7.1-1-8.2-1.6-1-.5-3.9-1-6.3-1a40 40 0 0 1-9.3-1.5c-2.7-.8-6.7-1.5-8.9-1.5s-6.2-.7-8.9-1.5a38 38 0 0 0-8.6-1.5c-2 0-5-.4-6.6-1a76 76 0 0 0-9.9-1.9l-16-2.6-16.8-2.5c-4.4-.6-8.7-1.5-9.7-2a238 238 0 0 0-41.5.1m1072.3 4.3a43 43 0 0 0-18.3 11.3 44 44 0 0 0-10.5 18.6c0 1.2-.7 4.4-1.5 7.1a65 65 0 0 0 3.1 36.8 11 11 0 0 1 1.4 4.1c0 2.5 11.6 14.1 17 17.1a50 50 0 0 0 43.4 1.1c4.1-1.7 14.6-11.8 14.6-14q.1-1.2 1.5-2.5c.8-.7 1.5-2.3 1.5-3.6 0-1.2.5-2.6 1-2.9s1-1.4 1-2.4q.2-1.7-5.7-3.5l-8.5-2.8c-3.5-1.3-4.5-.6-6 4.4a25 25 0 0 1-15.9 14.7 17 17 0 0 1-11.2-.4c-7.2-2.1-13.5-8-15.9-15.1-3.5-10.2-3-32.1.8-39.7a31 31 0 0 1 14.2-12.6c7.7-2.2 16.4-.8 20.8 3.3a14 14 0 0 0 3.6 2.6c.3 0 1.4 1.8 2.4 4 2.1 4.7 3.5 5.3 8.9 3.9l7.5-1.8c3.4-.7 3.5-.8 3.2-5-.1-2.4-.9-5-1.7-5.8q-1.3-1.4-1.5-2.3c0-.4-2.1-2.9-4.6-5.4a45 45 0 0 0-44.6-9.2m-88.3 9.7c-2.7.5-10.2 1.3-16.5 1.9s-14 1.4-17 1.9-8.6 1-12.5 1.1c-3.8.1-9.7.7-13 1.4l-6 1.3-.3 53.2-.2 53.3 3.2-.6c3.7-.7 22.4-3.2 33.8-4.6 17.8-2 39.3-5.1 40.3-5.7.4-.2.7-4 .7-8.4v-7.9h-3.8c-2.2 0-10.8.7-19.3 1.5-17.5 1.6-32.1 2.1-33.8 1.1a96 96 0 0 1-.3-27.3c.5-.8 6-1.6 15.2-2.3l23-2c4.7-.5 9.7-.9 11.3-.9 2.7-.1 2.7-.1 2.7-7.5 0-4.1-.3-7.7-.7-7.9-.8-.5-29 .8-43.2 1.9-4 .3-7.7.2-8.2-.3s-1-5.3-1.1-10.6c-.2-7.4.1-10 1.2-11.1 1.5-1.4 6.4-2 40.4-4.5 7.1-.5 13.3-1.4 13.8-1.9s.8-4.2.6-8.3c-.3-8.4-.5-8.5-10.3-6.8m-1169 8.9c-3.7.8-20.8 2.1-56 4.1-8.2.4-18.1 1.3-22 1.8s-12.2 1-18.6 1.1c-14.1 0-16.5 1.3-16 8.1.1 1.5 1.4 1.8 23.3 4.8 3.7.5 7.6 1.4 8.7 2s4.3 1.1 7.1 1.1 6.7.7 8.7 1.5 5.8 1.5 8.5 1.5 5.8.5 6.8 1a43 43 0 0 0 9.7 2c4.3.5 11.4 1.6 15.8 2.4 16.4 3 27.2 4.8 33.9 5.7a42 42 0 0 1 8.7 1.9c1 .6 4 1 6.7 1s6.6.7 8.5 1.5 5.9 1.5 8.7 1.5 6.1.5 7.3 1.2 5.4 1.5 9.2 1.9c9.8 1.1 20.4 2.9 24.5 4.1 2 .5 6.9.8 11 .5 15.1-.9 34.6-2.8 38-3.7 1.9-.6 7.1-1 11.5-1a91 91 0 0 0 14.5-1.5 91 91 0 0 1 14.6-1.5c4.5 0 9.4-.4 11-1s9.1-1.4 16.7-1.9c10.3-.6 14.3-1.2 15.4-2.4 2.2-2.1.9-6.5-2-7.1-8.1-1.5-16.2-2.8-22.2-3.5-3.8-.5-8.6-1.4-10.5-2a31 31 0 0 0-7.7-1.1 21 21 0 0 1-6.7-1c-1.4-.5-6-1.4-10.3-2l-16.3-2.6c-4.7-.8-12.1-1.9-16.4-2.4-4.4-.6-8.4-1.4-9-2-.5-.5-3.3-1-6.2-1-2.8 0-7.1-.7-9.4-1.5a31 31 0 0 0-8.4-1.5c-2.3 0-6.8-.7-9.9-1.5a51 51 0 0 0-9.8-1.5 17 17 0 0 1-5.9-1 43 43 0 0 0-9.7-2c-4.3-.5-11.8-1.7-16.8-2.6-10.3-1.8-33-2.7-39-1.4m1016.5 8.4c-6.9.6-13.1 1.5-13.7 1.9-1.9 1.2-1.9 103 0 104.5 1.2 1.1 3.9.8 28.7-2.3a187 187 0 0 1 17.5-1.5 34 34 0 0 0 25.7-11.2c9.4-9.9 13.2-22.8 12.5-41.6a161 161 0 0 0-1.5-16.4c-3.1-13.5-12.9-25.6-23.7-29.5-16.1-5.8-20.6-6.1-45.5-3.9m36.3 19.6q8.5 3.8 12 14.2c1.5 4.4 1.8 7.8 1.4 20.3a82 82 0 0 1-1.8 18.9c-1.7 4.7-8 11.6-10.7 11.6-1 0-2.2.4-2.7.9-1.1 1-24.9 2.3-27.1 1.4-1.2-.4-1.4-6.2-1.4-34.9V1608h12.9c10.7 0 13.6.3 17.4 2m-1248.4-11.6a915 915 0 0 1-60.9 4.6c-8.5.5-18.5 1.4-22.2 2-3.7.5-11.7 1-17.8 1s-14.2.5-18 1.1l-6.8 1.2-.4 3.8-.3 3.8 5.5.7c3 .3 6 1 6.5 1.4s3.8 1 7.3 1.4 7.1 1 8.2 1.6c1 .5 3.8 1 6.2 1 2.4.1 6.1.7 8.3 1.5s6.1 1.5 8.6 1.5c2.6 0 6.3.7 8.2 1.5 2 .8 5.7 1.5 8.2 1.5 2.6 0 5.4.4 6.4 1a42 42 0 0 0 8.7 1.9c14.1 2.1 22.3 3.6 23 4.3.4.5 2.9.8 5.5.8 2.5 0 6.9.6 9.5 1.4q8 2.3 24.4 4.6c3.6.4 7.8 1.3 9.3 1.9s4.9 1.1 7.3 1.1c2.5 0 5.3.4 6.3 1a42 42 0 0 0 8.7 1.9l15.4 2.7c10.6 2.1 30.8 2.9 37.5 1.5 5.3-1 22.2-2.7 41.7-4.1 6.4-.4 12.3-1.2 13-1.6s6.9-1.2 13.8-1.6 17-1.3 22.5-2l10-1.3.3-4.1c.4-5.7-1.9-7.5-11-8.4a85 85 0 0 1-10.8-1.9 31 31 0 0 0-7.7-1.1c-2.3 0-5.4-.5-7-1.1a56 56 0 0 0-9.8-2c-3.8-.4-10.8-1.5-15.5-2.4l-16.5-2.6c-4.4-.6-8.8-1.5-9.7-2s-3.8-.9-6.5-.9c-2.6-.1-6.6-.7-8.8-1.5a33 33 0 0 0-9.3-1.5 29 29 0 0 1-8.9-1.5c-1.9-.8-5.3-1.5-7.4-1.5s-7.1-.6-11.1-1.4l-17.3-3.1-15-2.6c-13.1-2.6-30.6-4.5-31.6-3.5m1083.1.6c-.8.5-2.9 1-4.6 1-3.1 0-6.4 2.5-6.4 4.9 0 1.3-2.1 6.5-4.6 11.4a13 13 0 0 0-1.4 4.6 5 5 0 0 1-.8 2.6c-.5.6-1.9 3.9-3.2 7.5a40 40 0 0 1-3.2 7.4q-.7 1-.8 2.4c0 .8-.6 2.8-1.4 4.5l-3.1 7.7-3.1 7.7a16 16 0 0 0-1.4 4.1c0 .6-.8 2.5-1.7 4.4-2.9 5.9-3.3 6.8-3.3 7.9 0 .6-.6 2.5-1.4 4.2l-3 7.7c-1 2.5-2.4 5.8-3.2 7.3-.8 1.6-1.4 3.6-1.4 4.5s-.7 2.6-1.5 3.6c-.8 1.1-1.5 3-1.5 4.2 0 2.2.2 2.2 10.2 1.6 8.8-.4 10.5-.8 12-2.6.9-1.2 1.7-3.2 1.8-4.4 0-1.3.6-3.8 1.4-5.5s1.6-4.3 1.9-5.7c.9-4.4 3.8-11.5 5-12.2.7-.4 4.1-.8 7.7-.8s11.6-.5 17.9-1c13-1.2 16.1-.3 16.1 4.8a14 14 0 0 0 1.5 5.2 14 14 0 0 1 1.5 5.2c0 1.5.4 2.9.9 3.2s1.1 1.8 1.4 3.4l.6 2.7 8.3-.6 10.6-.8q2.3 0 2.2-2.5c0-1.4-.4-2.7-.9-3.1s-1.2-1.9-1.6-3.6-1.3-4.2-2.1-5.7-1.4-3.7-1.4-4.9-.4-2.5-1-2.8q-.9-.6-1-2.2c0-.8-.6-2.9-1.3-4.6a152 152 0 0 1-5.8-16.7 85 85 0 0 0-3.5-9.2 11 11 0 0 1-1.4-4.1c0-.8-.7-2.8-1.5-4.3-.8-1.6-1.5-3.6-1.5-4.5s-.7-3-1.5-4.5c-.8-1.6-1.5-3.7-1.5-4.6s-.4-2-1-2.3-1-1.4-1-2.3-.7-3-1.5-4.6-1.5-3.9-1.5-5.2c0-1.2-.4-2.6-1-2.9s-1.4-2.4-2-4.5l-1.1-4h-6.7c-3.7 0-7.4.5-8.2 1m3.1 28.1 2.9 7.9a68 68 0 0 1 2.7 8c.3 1.4 1.2 3.4 1.9 4.5a7 7 0 0 1 1.4 3.4c0 .8 1 3.5 2.2 5.9 1.9 4.1 2 4.6.5 5.7-1.9 1.3-24.9 3.7-27.3 2.8-1.8-.7-1.2-5.8 1.1-10.7.8-1.5 1.7-4.3 2.1-6.2.3-1.9 1-3.7 1.5-4s.9-1.5.9-2.7a9 9 0 0 1 1.3-4.2c.8-1.1 1.7-3.5 2-5.2.8-4 3.6-8.5 5-8 .6.2 1.4 1.4 1.8 2.8m-122.6-17.4q-27.3 2.6-31.5 23a28 28 0 0 0 2.8 19.3c2.1 3.4 8 8.7 11.7 10.6a126 126 0 0 0 25.2 7.9c2.4.4 4.5 1.1 4.9 1.6q.6.8 2.6.9c5.4 0 10.8 6.2 10.8 12.5 0 3-.8 4.5-3.8 7.5-5.7 5.7-15.3 7.6-24.6 4.8-5.5-1.7-12.1-8.3-13.2-13.4-1-3.9-1-3.9-6.4-4.2-3-.2-7.5 0-9.9.3-4.8.7-4.6 0-2.5 10.5a36 36 0 0 0 15.8 19.8 66 66 0 0 0 24.1 5.1c7.4.1 19.8-2.6 25.1-5.3 3.8-2 9.4-7.1 11.5-10.6 3.9-6.5 5.6-18.3 3.4-23.5-.8-2.1-1.5-4.5-1.5-5.4 0-4.6-12.9-14.8-20.8-16.6-1.8-.3-3.4-1.1-3.7-1.6s-1.9-.9-3.5-.9-4.1-.5-5.7-1.1c-1.5-.6-4.4-1.5-6.3-2-8.4-1.9-13-4.2-15-7.4-2.6-4.3-2.5-6.7.5-10.3 2.6-3.1 8.6-5.2 15.1-5.2 8.8 0 16.5 4.8 18.2 11.3.7 2.8 1.3 3.2 4 3.1 17.1-.3 18.3-.7 16.3-5.6-.7-1.8-1.5-4.4-1.9-5.8a9 9 0 0 0-1.1-3l-3-4.1c-5.2-7.7-23.4-13.6-37.6-12.2m-1180 10.3c-8.2.5-17.8 1.4-21.1 2-3.4.5-10.4 1-15.5 1-5.2 0-14.3.7-20.4 1.5s-15.6 1.5-21.3 1.5-13.3.4-17 1l-11.4 1.5c-4.7.6-4.8.7-4.8 4 0 3.6-.1 3.6 8.5 5.3 11.9 2.5 17.4 3.5 23 4.2 3.3.5 7.3 1.3 8.8 1.9a25 25 0 0 0 7.3 1.1c2.5 0 6.1.7 8.1 1.5 1.9.8 5.5 1.5 8 1.5 2.4 0 5.3.4 6.3 1a35 35 0 0 0 7.6 1.6c3.3.3 6.8.9 7.9 1.4s5 1.2 8.7 1.5 7 1.1 7.3 1.6c.4.5 2.5.9 4.9.9s6.5.7 9.2 1.5 6.6 1.5 8.7 1.5 5.4.7 7.4 1.5c1.9.8 5.8 1.5 8.5 1.5s5.8.5 6.9 1.1 5 1.4 8.7 1.9a794 794 0 0 1 31.7 5.6l14 2.4c6.5 1.1 24.9.5 33-1.1 2.8-.5 10.4-1.4 17-1.9s18.8-1.7 27-2.6c8.3-.8 19.7-1.9 25.5-2.3 13.1-1 24.2-3 25.6-4.7.5-.7.8-2.9.6-4.8-.3-2.9-.9-3.7-3.1-4.2-1.4-.3-3.6-1-4.9-1.5s-4.2-.9-6.6-.9a40 40 0 0 1-9.2-1.5c-2.7-.8-6.8-1.5-9-1.5a31 31 0 0 1-8.4-1.5c-2.3-.8-6.4-1.5-9-1.5s-6-.5-7.6-1-5.8-1.5-9.4-2a4363 4363 0 0 1-60.4-10c-1.6-.6-4.6-1-6.6-1s-5.9-.7-8.6-1.5-6.7-1.5-9-1.5a24 24 0 0 1-7-1c-1.6-.5-6.3-1.4-10.4-1.9s-9.5-1.4-12-2c-7.2-1.6-21.4-2-37.5-1.1m1034.5 7.7a51 51 0 0 0-9.5 4.2 28 28 0 0 0-10.3 11.5 39 39 0 0 0-1.6 21.1q2.5 9.7 14.5 16.3c5 2.7 9.1 4.1 22.4 7.6 18.1 4.9 21.9 7.1 23 13.6 2 12.1-12.7 20.1-29.1 15.8-5.1-1.4-12.4-7-12.4-9.6 0-.9-.7-2.6-1.5-3.6a8 8 0 0 1-1.5-3.9c0-1.7-.6-1.8-8.2-1.2-12.3.9-13.1 1.2-12.3 3.8l1.9 6.7a29 29 0 0 0 8.6 14.9c8.4 8.5 16.4 11.1 33.5 11.1 18.8 0 29.2-3.9 36-13.3 5.1-7 5.9-9.6 5.9-19.3 0-8.2-.3-9.8-2.8-14.8a31 31 0 0 0-6.5-8.5 50 50 0 0 0-16-8.1c-.9 0-2.9-.7-4.5-1.5-1.5-.8-3.9-1.5-5.1-1.5-2.5 0-10.6-2.3-17-4.8-4.9-1.9-9.5-6.8-9.5-10.2 0-6 7.8-11 17.4-11 10.1 0 17.2 4.2 19.6 11.6q1 3.3 3.8 3.6c4.9.8 15.2.1 16.8-1.3 2.2-1.8 1.2-6.9-2.8-13.9l-1.5-3c-2-4.3-9.6-9.3-18.8-12.4a83 83 0 0 0-32.5.1m-1236.8 2.4c-1.3.5-5.6 1.2-9.5 1.5s-8.6 1-10.3 1.5-6.9 1.4-11.5 1.9-13.1 1.6-18.9 2.5c-19.2 2.9-30.4 4.5-38.2 5.4a57 57 0 0 0-8.7 1.5c-.6.4-5.4 1.1-10.7 1.5-10.4.9-11.4 1.5-11.4 6.7 0 2.9.2 3.1 6.3 4.2 3.4.7 8.9 1.7 12.2 2.1s7.3 1.4 8.8 2 4.5 1.1 6.6 1.1 5.8.7 8.1 1.5 6 1.5 8.2 1.5 4.7.4 5.7.9 4.6 1.4 8.2 2l12.9 2.1c3.6.5 7.4 1.4 8.5 1.9s4.9 1.2 8.4 1.4c3.5.3 6.8 1 7.4 1.6s3.3 1.1 5.9 1.1 6.5.7 8.5 1.5c1.9.8 5.5 1.5 8 1.5 2.4 0 5.4.5 6.6 1.2s4.9 1.6 8.2 2 9.6 1.4 14 2.2 10.9 2 14.5 2.6 7.4 1.5 8.5 2 4.8 1.1 8.3 1.4 7.1 1 8.2 1.6c1 .5 3.7 1 5.9 1s5.9.7 8.1 1.6q4 1.5 8.2 1.1l14.3-1.7 18.9-2.1 18.5-2a1492.2 1492.2 0 0 1 51.9-4.8c6.8-.5 13-1.5 13.8-2.1 2-1.7 1.8-7.4-.4-9.3-1-1-3.3-1.7-5.1-1.7s-4.8-.7-6.8-1.5c-1.9-.8-5-1.5-6.7-1.5s-5.1-.6-7.6-1.4c-5.1-1.6-13.1-3.4-20.5-4.4-2.7-.4-5.6-1.1-6.3-1.6s-3.7-1.2-6.5-1.7a150 150 0 0 1-20.2-3.9c-1.1-.5-4.2-1.2-7-1.5s-5.4-1-6-1.5-3.4-1-6.4-1.3-5.9-1.1-6.5-1.7-2.6-1-4.6-1-5.5-.6-8-1.4c-4.3-1.4-10.1-2.7-20-4.5-9.4-1.8-16.6-3.3-18-3.9-1.8-.7-12.4-2.9-20.3-4.2-3.2-.5-6.7-1.4-7.7-2-1-.5-3.3-1-5-1a22 22 0 0 1-6.7-1.5 28 28 0 0 0-16.1-.4m1183.6.4c-.3.3-5.9 1-12.4 1.5a740 740 0 0 0-53.9 5.7l-7 .8-.2 55.5c-.2 30.5.1 56 .5 56.6.8 1.2 8 .5 24.8-2.2a137 137 0 0 1 14.7-1.4c3.1 0 6.6-.4 7.9-1s6.8-1.4 12.3-2c17.7-1.8 22.4-2.5 23.5-3.6.7-.7 1-4.4.8-9l-.3-7.9-6.5.1c-3.6.1-11.2.6-17 1.2a294 294 0 0 1-20.7 1.2c-5.6 0-11.3.5-12.7 1.1-2 .9-2.9.9-4.1-.1-1.3-1.1-1.5-3.7-1.3-15.9l.3-14.6 8-1.2c4.4-.7 15.4-1.5 24.5-1.9s18.1-1.2 20-1.9l3.5-1.2.2-7.7c.2-5.4-.2-7.8-1-8.2a509 509 0 0 0-43.6 2.5c-5.2.5-10 .7-10.8.4-1.8-.7-1.9-23.6 0-25 .6-.6 10.9-1.6 22.7-2.3s24.6-1.5 28.5-1.9l7-.6.9-4.2c.5-2.3.5-6.2.2-8.7-.7-4.5-.8-4.6-4.5-4.6-2.1 0-4 .2-4.3.5m835.9 8.2c-.4.3-.7 2.3-.7 4.4 0 3.9 1.1 4.9 5.4 4.9 4.5 0 6.2-5.2 2.8-8.3-1.9-1.7-6.3-2.3-7.5-1m-980 8.9c-.3.3-7 1-14.9 1.4-13.6.8-24.5 2.1-25 3.1-.2.2-.2 26.2 0 57.6l.3 57.3h5.2c2.9-.1 7.7-.7 10.7-1.4l5.4-1.2-.3-25.5c-.2-16.1.1-26.4.8-28.2 1-2.5 1.4-2.7 7-2.7 3.2 0 7.5.7 9.6 1.6a67 67 0 0 1 16 14.5 560 560 0 0 1 19.1 29.9q2.5 5.1 6.8 4.5c12.2-1.4 20.6-3 20.6-3.8 0-.5-2-4.3-4.5-8.4-2.5-4-4.5-7.8-4.5-8.3q0-1-.9-1-1-.2-1.7-2.3a109 109 0 0 0-14.1-19.3l-6.4-5.4c-4.6-3.8-4.2-4.9 2.7-6.9a27 27 0 0 0 20.4-27.7c0-4-.4-7.5-.9-7.9-.5-.3-1.2-1.9-1.6-3.6a32 32 0 0 0-11.5-12.8 73 73 0 0 0-27.1-4.1c-5.8 0-10.8.3-11.2.6m21.4 22.1c5.2 2.6 6.7 4.5 7 8.8.5 8.4.1 9.6-5.7 14.4-2 1.7-13.5 3-28.2 3-11.2.1-11.3.1-12.2-2.5a91 91 0 0 1-.4-23.8c.9-2.4 34.6-2.4 39.5.1m875.5-20.6c-3.1 2.4-3.2 3.8-.7 6.8 3 3.5 7.3 2.5 8.5-1.8.8-3 .7-3.6-1.3-5.2-2.9-2.4-3.2-2.4-6.5.2m-2130 3.6c-.7.7-4.5 1.4-25.1 4.2a119 119 0 0 0-10.9 2.1c-1.6.6-4.5 1-6.5 1s-6.1.7-9.1 1.5-7.3 1.5-9.5 1.5-5.8.7-8 1.5a33 33 0 0 1-8.2 1.5c-2.3 0-5.4.5-6.9 1s-6.2 1.5-10.3 2a166 166 0 0 0-28.6 5.2q-1.9.3-2.6 3.6c-.6 2.9-.4 3.3 2 3.8a78.7 78.7 0 0 0 16.4 3.4c14.7 1.8 22.2 3.1 23.9 4 1 .6 3.9 1 6.6 1s7.4.7 10.5 1.5c3.2.8 7.7 1.5 10 1.5 2.3.1 6 .7 8.2 1.5s5.8 1.5 8.1 1.5 6.3.7 9 1.5 7 1.5 9.6 1.5 5.9.5 7.5 1.1 6.2 1.5 10.3 2l16.5 2.4 16.5 2.5c4.1.6 8.4 1.5 9.5 2s5.9 1.2 10.7 1.5c4.9.4 9 1.1 9.4 1.6.3.5 2.7.9 5.3.9s7 .7 9.7 1.5c6.3 1.9 18 1.9 26.9 0a87 87 0 0 1 14.5-1.5c4.1 0 9.1-.4 10.9-1s8.2-1.2 14-1.5 12.4-1 14.6-1.6c2.2-.5 10.1-1.4 17.5-2 26.8-2.2 25-1.9 26.2-4.4.6-1.4.8-4.3.4-6.9-.6-3.6-1.1-4.6-2.6-4.6-1 0-2.2-.5-2.5-1s-2.3-1-4.4-1-6-.7-8.7-1.5-6.4-1.5-8.2-1.5-4.9-.7-6.9-1.5c-1.9-.8-5.2-1.5-7.3-1.5s-5.7-.7-8-1.5-5.7-1.5-7.6-1.5-4.5-.5-6.1-1.1-5.5-1.4-8.8-1.9-9.4-1.6-13.5-2.5a677 677 0 0 0-28.3-5.5c-3.2-.6-6.7-1.4-7.7-2-1-.5-3.4-1-5.3-1s-5.6-.7-8.3-1.5-6.4-1.5-8.2-1.5-4.1-.4-5.1-.9-4.6-1.4-8.2-2-10-1.7-14.4-2.6-10.9-2.1-14.4-2.6c-3.6-.6-7.3-1.5-8.2-2-2.1-1.1-5.3-1.2-6.3-.2m1108.5 7.3c-3 .4-6.6 1.4-8 2l-6.1 2.8a42 42 0 0 0-15.4 12.7 43 43 0 0 0-7.6 14.5c0 .8-.6 2.6-1.3 4-1.8 3.4-2.7 21.4-1.7 31.5a49 49 0 0 0 6.5 22.2 65 65 0 0 0 12 14.3c.2 0 2.4 1.3 4.8 3a27 27 0 0 0 5.4 3 64.3 64.3 0 0 0 15.6 4 47 47 0 0 0 17.5 0 65 65 0 0 0 15.5-4c2.1 0 11.3-6.6 15.7-11.2 4.7-5 9.5-13.1 10.6-18.3.4-1.7 1.2-3.6 1.8-4.4a74 74 0 0 0 1.1-18.5c0-18.3-.5-21-6.2-32.5a70 70 0 0 0-15.4-17.6c-2.1-1.4-7.7-4-12.8-5.9s-23.9-2.9-32-1.6m19.6 18.1c6.4 1.5 10 3.5 14.6 7.8 4.7 4.4 6.4 7.5 8.8 16 3.2 11.2 2.4 23-2.4 36.6-.6 1.6-3.6 5.5-6.7 8.6a28 28 0 0 1-21.3 8.9 32 32 0 0 1-26.4-15.5 65 65 0 0 1-4.4-30.5c1.9-13.3 3.5-17.2 9.2-23.3 4.4-4.6 7.7-6.6 14.4-8.3 6.4-1.6 8.4-1.6 14.2-.3m-87.1-11.1a92 92 0 0 1-14 1.5c-6.1.3-13.8 1-17.1 1.6a392 392 0 0 1-19.5 2l-18.7 1.6-5.3.5v19.6l6.8-.5c3.7-.2 8.5-.8 10.7-1.3q11.6-2.5 14.6-1c1.9 1.1 2 2.1 1.9 48.3 0 26-.1 48 0 48.9 0 1.5 1 1.8 6.8 1.8 3.7 0 8.4-.3 10.5-.6l3.7-.7v-49.8c0-38.7.3-50 1.3-50.6.6-.4 4.1-1.1 7.7-1.4l15.3-1.9c10-1.5 10-1.4 9.5-12l-.3-6.5-5.5-.2c-3-.1-6.8.2-8.4.7m-141.1 13a48 48 0 0 0-39.8 31 86 86 0 0 0-2.8 46c2 7.7 4.2 14.1 5.2 15l2.8 4.2a48 48 0 0 0 7.8 8.7 47 47 0 0 0 34.8 12.5c14.7 0 25.2-4 34-13s14.8-24.4 9.4-24.4c-1.1 0-3-.5-4.2-1.2s-3.8-1.5-5.7-1.9l-6.2-1.5q-3-.8-2.8.9c0 5.9-10.2 19.1-15.7 20.2-1.5.4-3.6 1-4.5 1.6-7.7 4.1-27.2-5.9-29.5-15.1-.3-1.4-1-3.1-1.6-3.8a100 100 0 0 1-2.8-21.2c-.1-4.9 1.8-19 2.7-20.1.6-.8 1.4-2.5 1.7-3.9 1-4 6-9.3 11.7-12.4 4.3-2.4 6.4-2.8 12.5-2.9q7.4 0 11.1 1.8c4.7 2.1 11.4 8.3 11.4 10.5.1.8.9 2.5 1.9 3.7 1.7 2 2.4 2.1 6.7 1.4l10.2-2.2c4.6-1.2 5.2-1.7 5.2-3.9 0-4-5.6-13.6-11-19-8.9-8.7-25.1-12.9-42.5-11m-80 7c-1.1.5-3.7.9-5.8.9l-3.9.1.5 15.2c2 60.8 2 69.2.2 74.3-3.2 9.6-9.3 13.5-21 13.5-8.1 0-13-1.7-17.8-6.2-5.6-5.3-5.6-5.6-5.7-48.6-.1-21.8-.4-40.8-.7-42-.5-2-1-2.3-3.2-1.7a894.9 894.9 0 0 1-19.8 2.4c-.2.1-.3 14.8-.3 32.8 0 40.5 1.5 57.3 5.6 65.1a41 41 0 0 0 14.8 14.9c11.3 5.9 42.4 5.9 52.7.1a43 43 0 0 0 13.3-11.7c5.3-8.5 5.7-12.2 5.6-48.2-.1-18.4-.5-39.7-.8-47.4l-.7-14-5.5-.2c-3-.1-6.4.2-7.5.7m932.2.8c-3.6 4-.3 10.1 4.7 8.8 2.9-.7 4-3.5 3.1-7.6-.5-2.5-1.2-3-3.4-3-1.5 0-3.5.8-4.4 1.8m-1913.9 4c-1 .2-1.8 1.2-1.8 2.2 0 .9-.7 2.3-1.5 3q-1.4 1.2-1.5 2.3c0 1.3-4.9 11.9-9.8 21.4l-15.1 31.3c-.9 1.9-1.9 3.6-2.3 3.8q-.8.5-.8 1.5c0 .7-.6 2.4-1.4 3.9-1.4 2.6-1.3 2.6 2.8 4.1a50 50 0 0 0 10.4 2.1c3.5.3 7.1 1 8.2 1.6 1 .5 3.8 1 6.2 1 2.4.1 6.1.7 8.3 1.5s5.8 1.5 8 1.5 6.2.7 8.9 1.5 6.8 1.5 9.1 1.5 4.5.3 4.9.7c.7.8 9.9 2.5 23.1 4.3 3.9.6 8 1.5 9.3 2s4 1 6 1c2 .1 5.5.7 7.7 1.5s6.1 1.5 8.6 1.5c2.6 0 6.6.7 8.9 1.5s5.9 1.5 7.9 1.5 5.4.7 7.6 1.5 5.8 1.4 8.1 1.5c2.3 0 5.4.5 7 1s5.8 1.5 9.4 2l13.2 1.9c3.7.6 7.7 1.5 8.7 2.1 1.1.5 3.7 1 5.9 1 2.1 0 6.1.7 8.8 1.5 6.9 2.1 11.4 2 11.4-.3 0-1 .4-2.2.9-2.7s2.6-5.1 4.7-10c2-5 4-9.5 4.4-10s1-2.2 1.4-3.8 1.1-2.7 1.6-2.7q1-.1 1-1.6c0-.9.6-2.8 1.3-4.2 1.3-2.5 2.4-4.9 6.1-13.5l4.1-9.2 4-9 3-6.7c.9-2 1.4-4.2 1-4.7s-3.2-1.1-6.4-1.1-8-.7-10.7-1.5a40 40 0 0 0-9.4-1.5c-2.5 0-7.2-.7-10.3-1.5s-7.7-1.5-10.1-1.5a29 29 0 0 1-7.2-1c-1.6-.6-6.5-1.4-10.9-2-4.4-.5-12.5-1.6-18-2.5L421 1709c-4.1-.5-9.1-1.4-11-1.9s-6.5-1.3-10.3-1.6a51 51 0 0 1-9.3-1.5 26 26 0 0 0-7.8-1c-3 0-7.3-.7-9.6-1.5s-6.4-1.5-9-1.5-6.9-.7-9.6-1.5-7-1.5-9.6-1.5-5.9-.4-7.3-1a55 55 0 0 0-9.8-1.5c-4-.4-8.8-1-10.7-1.5-4.4-1.1-11-1.8-13.2-1.2m836.7 12.7c-5.5.7-13.9 1.4-18.7 1.4-4.8.1-10.7.5-13 1.1l-8 1.5-3.8.6v61.8c0 53.6.2 62 1.5 62.5 2.3.8 18.8-1.6 20.4-3 1.1-1 1.3-6.4 1.2-29.1-.1-15.3.1-28.6.5-29.6.5-1.4 1.9-1.7 7.2-1.7 5.6 0 7.2.4 11.4 3.1 2.7 1.8 6.5 5.3 8.4 7.8l4.2 5.6c.4.5 3.6 5.7 7 11.5l7.2 12c.5.8 2 3.5 3.2 6 4.5 8.8 4.9 9 16.5 8 10.5-.8 12.3-1.3 12.3-3.3a146 146 0 0 0-11.3-23.1 92 92 0 0 0-21.1-26.3c-3.6-2.5-3-3.5 3.1-5.8a35 35 0 0 0 17.4-12.9c3.3-5.1 3.4-5.2 3.4-16.6 0-13-1.3-16.5-8.2-23.1-6.4-6.1-7.5-6.4-28.3-9.4-1.4-.1-7 .3-12.5 1m20.2 24.6c7.6 4.7 9.3 15.7 3.3 21.7-5.5 5.6-8.2 6.2-26.4 6.2-9.1 0-16.6-.3-16.7-.8-.4-2.8-.6-26-.2-27.5s2.1-1.7 18.5-1.7c16.6 0 18.3.2 21.5 2.1m930.3-24.2c-1.2 2.4.2 6.9 2.5 7.7 4.5 1.8 8.2-2.2 6.8-7.4-.4-1.8-1.2-2.2-4.4-2.2-2.8 0-4.1.5-4.9 1.9m-1022 7.2-25 2.3-27.5 2.5a99 99 0 0 0-23.7 3.3c-1.5.7-1.8 2.2-1.8 8.6 0 10.4.6 12.3 3.4 11.3 1.1-.5 5.7-1.1 10.1-1.5s10.6-1.2 13.8-1.9c4.9-.9 6-.9 6.7.3.6.9 1 23.2 1 52.9v51.4l8.8-.5c4.9-.3 9.8-1.1 11-1.7l2.2-1.2V1787c0-57.1-.4-54 7.3-54a88 88 0 0 0 12-1.5c4.3-.8 9.4-1.5 11.3-1.5h3.5l-.3-9.3c-.3-10.6.8-9.9-12.8-8.6m-142 13.6c-3 .2-5.9.8-6.4 1.4q-1 .8-2.4.9c-2.3 0-11.8 4.7-14.4 7.2a34 34 0 0 0-9.2 34.8c3.7 10.7 11.7 17.8 25.4 22.3 7.2 2.4 10.7 3.4 25 7.3 15.2 4.1 18.5 6.8 18.5 15.3 0 4.8-.5 6.4-2.8 9.4-1.5 2-3.4 3.7-4.1 3.7q-1.4.1-2.5 1.4c-2.1 2.5-14.9 3.7-23.1 2.1a26 26 0 0 1-17.5-17.1c-1-5.5-2.2-5.8-14.1-4.3l-10.5 1.3.6 5c.7 4.9 5.5 16.7 7.8 19.1l3.5 3.9c3.1 3.7 11.9 9 17.2 10.5 7.5 2.1 19 3.1 28 2.5 19.1-1.3 30.8-7.7 38.1-20.9 3.2-5.8 3.3-6.4 3.4-17 0-9.5-.3-11.7-2.4-16-5.4-11.6-18.8-19.5-41.6-24.5-22.7-5-31.8-12.4-25.8-21 3.4-5 7.6-6.8 17.3-7.7q17.9-1.6 24.1 12.6l1.9 4.6 5.3-.2 11.4-.2c7.3-.1 8.2-1.4 5.8-8.2-.8-2.4-1.5-5-1.5-5.7s-1.8-3.8-4.1-6.8a41 41 0 0 0-19.4-13.6c-5.2-1.7-21.9-2.9-31.5-2.1m-62 6.2c-4.1.3-8.1 1-8.7 1.4-1 .6-1.3 9.5-1.3 38.7 0 20.8-.3 38.1-.8 38.4q-1.9 1-9.5-11.9l-5.7-9.5-19.4-31.4-6.8-11.5-5.1-8.4-7.6.7c-10.9.9-11.8 1.3-12.5 4.9-.7 3.9-.6 122.4.1 125.1.5 1.7 1.2 1.8 9.1 1.2 4.8-.4 9-1.3 9.4-1.9.4-.7.8-20.2.8-43.5 0-23.2.3-42.2.6-42.2 2.3 0 5.3 3.7 12.4 15.3l9.3 15.2c3.5 5.5 6.3 10.4 8 13.5 1.1 1.9 2.2 3.7 2.6 4 .7.6 2.7 3.7 4.1 6.5l2.8 4.7 7 11.2c3 4.8 5.9 8.7 6.5 8.7 4.3.5 13.3-.5 13.9-1.5 1.2-1.8.5-127.9-.7-128.1-.5-.1-4.4.1-8.5.4m-168.5 16.8a11 11 0 0 0-4.9 1.4 45 45 0 0 0-20.6 10.2 59 59 0 0 0-21 43 83 83 0 0 0 7 47.1q.1.7 1 1.9l4.5 5.9A54 54 0 0 0 688 1876c9.8 3.5 36.9 3.8 44.7.4a67 67 0 0 0 21-12.7c13.2-12.5 18.2-26.5 18.3-50 0-15.6-1.4-23.2-6.4-33.7-3.8-8.1-3.7-8-11.6-15.9-6.5-6.5-17.4-13.1-21.6-13.1a5 5 0 0 1-3.1-1.1c-1.1-1.1-25.7-2.1-32.8-1.2m30.9 24.1c5.2 2.9 14.6 12.6 14.6 15.2 0 .9.5 2.1 1 2.6 2.9 2.9 4.4 24.4 2.6 36.4a35 35 0 0 1-55.1 24.5c-5.1-3.4-12.4-13.9-12.5-18.1 0-1.1-.6-2.6-1.2-3.2-1.8-1.8-1.8-28.2 0-34.2 3.3-11.1 8-17.6 16-22.2 6.7-3.8 12-4.8 22.2-4.1 5.5.4 8.8 1.2 12.4 3.1m-156.9-11.1a68 68 0 0 0-12.9 4.3c-1.5 0-11.9 7.3-15.1 10.5a66 66 0 0 0-15.1 27.5c-2.7 9.4-2.7 38.8 0 47.5 2.3 7.4 5 13.3 8.8 18.9a64 64 0 0 0 27.3 20.6c.6.4 5.3 1.3 10.6 1.9 26.5 3.3 46.7-5.9 56.7-25.8 4.7-9.3 5.9-13.6 4-14.7-.7-.5-3.3-1.5-5.8-2.2l-8-2.3c-7.3-2.2-8.9-2.2-9.6-.3a50 50 0 0 1-5.3 11.9c-3.2 7.3-17.4 14.6-25.3 13.1l-6.3-1.3c-3.9-.8-13-6.8-15.3-10.1-5.9-8.5-7.2-14-7.9-32.2-.5-14.5.4-21.3 4-29 2.6-5.7 11.6-14.7 15.3-15.5l5.2-1.6a35 35 0 0 1 16.6.3 36 36 0 0 1 13.4 8.8c.7.8 2.4 3.9 3.8 6.8 2.1 4.5 2.7 5.1 4.3 4.2a37 37 0 0 1 7.2-1.9c3-.5 7.6-1.5 10.2-2.2 4.6-1.2 4.8-1.3 4.1-4.3-.6-2.8-1.5-4.9-3.6-8.6l-1.7-3.6a52 52 0 0 0-18.2-16 65 65 0 0 0-41.4-4.7m-303.3 27.1c-.9.3-1.2 9.7-1.2 41.7v41.4l3.8.6a116 116 0 0 0 14.9 3c2.9.4 5.5 1.1 5.9 1.6.3.5 2.6.9 5.2.9 2.6.1 6.5.7 8.7 1.5s5.7 1.5 7.7 1.5 4.9.5 6.5 1.1 5.5 1.5 8.8 2 9.4 1.5 13.5 2.4l14 2.6c3.6.6 7.2 1.4 8 1.7 1.8.7 14.2 2.9 22.5 4.1 3.4.4 7 1.3 8.2 1.9 1.2.7 3.7 1.2 5.6 1.2s5.4.7 7.7 1.5a31 31 0 0 0 8.4 1.5c2.3 0 4.6.4 5.2.9.5.5 4.1 1.4 7.9 2 3.9.5 10.6 1.7 15 2.6l14 2.5c3.3.6 6.7 1.3 7.5 1.6s4.9 1.1 9 1.8 8.3 1.7 9.3 2.1c1.6.7 1.7-1.6 1.5-44.1l-.3-44.9-4-.8c-2.2-.4-6.9-1.3-10.5-1.8s-8.1-1.4-10-1.9c-4.4-1.1-15.1-2.8-25.3-4a43 43 0 0 1-9.7-2c-1-.5-3.9-1-6.3-1a40 40 0 0 1-9.3-1.5c-2.7-.8-6.7-1.5-9-1.5s-6.3-.7-9-1.5-6.7-1.5-9-1.5a24 24 0 0 1-7-1 76 76 0 0 0-9.9-1.9l-16.5-2.6-16.8-2.5c-4-.6-8.2-1.5-9.2-2s-3.8-1-6.2-1-7-.7-10.1-1.5c-3.2-.8-7.5-1.5-9.6-1.5s-5.8-.7-8.1-1.5-5.9-1.5-8-1.5-5.7-.6-8.1-1.3-5-1.2-5.7-.9m4.8 100.6c-1.8 2.2-.8 5.6 2 7l6.5 3.5c2.2 1.3 5.2 2.8 6.8 3.4s2.7 1.5 2.7 1.8 1.4 1 3 1.4 3 1.1 3 1.6q.1.8 1.1.9c1 0 7.9 3.1 10.9 4.9l3 1.5c.8.4 2.9 1.5 4.5 2.6s3.7 2.3 4.5 2.6c2.7 1.2 33.5 16.5 37 18.4 17.3 9.6 34.5 16 42.7 16 1.7 0 4.4.5 6 1.1s5.7 1.5 9.3 2c11.3 1.4 21.8 3.4 22.6 4.1.4.5 2.6.8 4.8.8 2.3 0 5.9.5 8.1 1.1s7.2 1.5 11.2 1.9c3.9.5 8.7 1.3 10.5 1.8q4.9 1.5 21.8 4.1c5.7.9 13.8 2.4 22.4 4.3 2.6.6 7.4 1.4 10.5 1.9s9.2 1.5 13.6 2.4 11.3 2 15.3 2.5 8.1 1.4 9 1.9c2.8 1.5 12.9 1.6 14.6.2 3-2.5 1.9-5.5-2.7-7.5a550.1 550.1 0 0 0-27.2-13.1l-24.5-11.7-33-15.7c-1.9-.9-3.6-1.9-3.8-2.4q-.4-.7-1.4-.7a89.5 89.5 0 0 0-24.1-6c-3.2-.6-6.7-1.4-7.7-2-1-.5-3.5-1-5.5-1-1.9 0-5.2-.7-7.2-1.5a22 22 0 0 0-7-1.5c-1.8 0-5-.7-7-1.5a22 22 0 0 0-7-1.5c-1.9 0-4.2-.4-5.2-1a37 37 0 0 0-7.2-1.9l-27.1-5.6c-4-.9-9.6-1.9-12.5-2.4-2.8-.5-6.6-1.4-8.5-1.9a143 143 0 0 0-19.3-4c-2.7-.4-5.6-1.1-6.3-1.6s-3.7-1.2-6.5-1.7c-2.9-.4-8.3-1.5-12.2-2.3-3.8-.9-9.7-2-13-2.6a50 50 0 0 1-8-2c-1.1-.5-4.6-1.2-7.7-1.5s-6-1.1-6.3-1.6c-1-1.4-8.1-1.1-9.5.5m236.7 34.7c-1.3 4.8-.8 6.9 1.9 7.9 2.4 1 5.1 2.2 19.5 8.9 3.6 1.7 7.1 3.1 7.7 3.1q1.1 0 1.2 1t1.8 1c1 0 2.7.7 3.8 1.5a7 7 0 0 0 3.5 1.5c.9 0 2.2.7 2.9 1.5s2 1.5 3 1.5 2.3.7 3 1.5q1.3 1.3 2.8 1.5c.8 0 4.5 1.4 8.1 3.1l20.6 9.4 18.3 8.2c2.5 1.2 5.2 1.4 12 .9l22.2-1.5c25.5-1.7 32.3-3.6 30.4-8.6-.7-1.8-5.5-4.5-7.9-4.5-1 0-2.9-.6-4.3-1.4-1.5-.7-5.4-2.1-8.7-3.1s-7.4-2.4-9.2-3.1a15 15 0 0 0-4.6-1.4q-1.5 0-2.1-.9c-.4-.5-2.4-1.2-4.6-1.6s-4.2-1-4.5-1.5-2.2-1.1-4.2-1.5a19 19 0 0 1-4.8-1.4 45 45 0 0 0-7-2.5c-3.3-1-7.2-2.4-8.7-3.2s-3.3-1.4-4.2-1.4c-.8 0-3-.6-4.8-1.4s-7.8-2.8-13.3-4.6a74 74 0 0 1-10.9-4.1c-.6-.5-1.9-.9-2.9-.9s-3.3-.6-5-1.4a53 53 0 0 0-21.7-3.5c-4.7.1-13-.2-18.6-.6-10.1-.8-10.1-.8-10.7 1.6"/></svg>