<svg xmlns="http://www.w3.org/2000/svg" width="1080" height="1080" viewBox="0 0 810 810"><defs><clipPath id="b"><path d="M.04 31H85v90H.04Zm0 0"/></clipPath><clipPath id="a"><path d="M0 0h605v310H0z"/></clipPath></defs><g clip-path="url(#a)" transform="translate(95 261)"><g clip-path="url(#b)"><path d="M.64 33.94v-2.8h34.4v2.8l-8.43.62 24.66 62.81h.25l21.56-62.81-8.36-.62v-2.8h19.75v2.8l-7.48.62-29.44 86.23h-2.78L10 34.56Zm0 0"/></g><path d="M87.08 62.31v-2.55l12.96-1.36 8.73-2.3 1.11 1.8v58.5l6.4.61v2.55H88.31v-2.55l6.39-.6V62.3Zm6.75-28.19q0-1.72.66-3.22.65-1.5 1.77-2.6a8 8 0 0 1 5.76-2.36q1.68 0 3.16.65a9 9 0 0 1 2.62 1.77 8 8 0 0 1 2.46 5.76 8 8 0 0 1-.66 3.16 9 9 0 0 1-1.77 2.64 8 8 0 0 1-5.81 2.44 8.1 8.1 0 0 1-8.19-8.24M145.82 118.39q7.07 0 10.45-2.6t3.37-6.51q0-2.04-.65-3.63a10 10 0 0 0-2.11-3.03 22 22 0 0 0-3.85-2.98q-2.37-1.51-5.9-3.44-3.12-1.8-6.58-3.75a38 38 0 0 1-6.4-4.51 23 23 0 0 1-4.9-5.99q-1.95-3.41-1.95-8.17 0-4.21 1.6-7.63a17 17 0 0 1 4.5-5.8 21 21 0 0 1 6.87-3.68q4-1.3 8.78-1.3 3.6 0 7.22.9t6.53 2.7q2.9 1.8 4.7 4.47a11 11 0 0 1 1.8 6.18q0 1.36-.47 2.67a7.1 7.1 0 0 1-6.72 4.7q-3.6 0-5.39-1.98a7 7 0 0 1-1.8-4.82q0-1.8.5-3.07t1.33-2.1q.85-.85 1.92-1.26a6 6 0 0 1 2.2-.4h.57v-.11a7 7 0 0 0-1.81-1.9q-1.17-.9-2.78-1.6a19 19 0 0 0-7.8-1.6q-3.28 0-5.58.88a11 11 0 0 0-3.75 2.2 8.5 8.5 0 0 0-2.14 2.94 8 8 0 0 0-.69 3.1q0 1.8.57 3.1A8 8 0 0 0 139.4 73q1.38 1.32 3.84 2.89 2.46 1.54 6.16 3.7 3.59 1.86 7.6 3.97a43 43 0 0 1 7.34 4.88 26 26 0 0 1 5.54 6.3 15.5 15.5 0 0 1 2.2 8.34q0 4.02-1.52 7.37a15 15 0 0 1-4.7 5.77 23 23 0 0 1-8.12 3.75 45 45 0 0 1-11.68 1.32 32 32 0 0 1-6.88-.8 24 24 0 0 1-6.75-2.57 16 16 0 0 1-5.14-4.58 11.5 11.5 0 0 1-2.05-6.92q0-1.74.55-3.34a10 10 0 0 1 1.58-2.88 7.5 7.5 0 0 1 5.92-2.77q1.69 0 2.98.6a6.8 6.8 0 0 1 3.6 3.81q.5 1.3.54 2.78 0 1.74-.62 3.08a6.5 6.5 0 0 1-3.86 3.53q-1.26.45-2.52.46h-.51a2 2 0 0 1-.53-.07v.13q.56 1.25 1.67 2.42t2.81 2.1a18 18 0 0 0 3.97 1.52q2.25.6 4.99.6M179.9 62.31v-2.55l12.95-1.36 8.74-2.3 1.1 1.8v58.5l6.4.61v2.55h-27.95v-2.55l6.39-.6V62.3Zm6.75-28.19q0-1.72.66-3.22t1.76-2.6a8 8 0 0 1 5.77-2.36q1.66 0 3.16.65a9 9 0 0 1 2.62 1.77 8 8 0 0 1 2.45 5.76 8 8 0 0 1-.65 3.16 9 9 0 0 1-1.77 2.64 8 8 0 0 1-5.81 2.44 8.1 8.1 0 0 1-8.19-8.24M217.63 88.83q0-9.36 3.63-16.97a29 29 0 0 1 10.15-11.99 26 26 0 0 1 14.78-4.37q6.82 0 12.3 2.83a24 24 0 0 1 8.8 7.51 37 37 0 0 1 5.1 10.5 41 41 0 0 1 1.76 12.11q0 9.11-3.49 16.61a29 29 0 0 1-9.93 11.94 25.4 25.4 0 0 1-14.66 4.42q-7.26 0-12.8-2.56a23 23 0 0 1-8.92-7.13 32 32 0 0 1-5.05-10.33 45 45 0 0 1-1.67-12.57m15.86-.74q0 6.88.69 12.3a49 49 0 0 0 2.1 9.6q1.42 4.19 3.84 6.41a8 8 0 0 0 5.7 2.24q12.45 0 12.45-29.81 0-7.5-.6-12.9a45 45 0 0 0-1.96-9.5q-1.4-4.12-3.87-6.14a9.3 9.3 0 0 0-6.02-2.01q-3.29 0-5.7 2.23-2.41 2.24-3.83 6.33a47 47 0 0 0-2.11 9.35 92 92 0 0 0-.69 11.9m7.31-41.76 6.88-19.7a6 6 0 0 1 5.58-4.29q2.36 0 3.97 1.69a5.7 5.7 0 0 1 1.6 4.08q0 2.98-1.92 4.95l-13.8 14.88ZM282.5 59.76l12.96-1.36 8.74-2.3 1.1 1.8-.25 8.38h.25q7.38-10.78 19.1-10.78 2.22 0 4.26.37 2.05.36 4.52 1.67 2.49 1.3 4.28 3.41 1.8 2.1 3.03 6.02 1.25 3.89 1.25 9.09v40.34l6.31.61v2.55h-27.87v-2.55l6.31-.6V74.25q0-13.18-8.48-13.18-5.58 0-9.14 5.07-3.57 5.1-3.57 13.32v36.93l6.4.61v2.55h-27.96v-2.55l6.4-.6V62.18l-7.5.12ZM9.02 190.81q0-12.75 4.58-23.3a40 40 0 0 1 13.48-16.93q8.9-6.43 20.47-6.43 17.47 0 28.16 12.33 10.68 12.33 10.68 32.35 0 7.3-1.45 14.18a54 54 0 0 1-4.56 13.05 44 44 0 0 1-7.53 10.78 32 32 0 0 1-10.86 7.34 36 36 0 0 1-14.06 2.72q-18.16.01-28.54-12.64T9.02 190.81m16.6-1.38q0 12.23 2.41 22.05t7.47 15.92 12.05 6.1q10.4 0 16.33-12.08 5.92-12.1 5.92-32.11 0-20.81-5.8-31.28t-16.07-10.47q-3.6 0-6.85 1.48a18 18 0 0 0-6.1 4.77 30 30 0 0 0-4.9 8.1 54 54 0 0 0-3.26 11.85q-1.2 7.07-1.2 15.67m2.48 56.02q7.56-6.2 15.6-6.2 3.9 0 7.57 1.23a30 30 0 0 1 6.14 2.8 354 354 0 0 0 14.67 9.17q4.27 2.42 7.44 2.42 3.08 0 4.64-1.86a6.5 6.5 0 0 0 1.5-5.14l-.19.06a4.4 4.4 0 0 1-4.1 2.22q-2.96 0-4.76-1.82a6.2 6.2 0 0 1-1.8-4.55 6.36 6.36 0 0 1 6.63-6.63 6.8 6.8 0 0 1 5.86 2.88 11.8 11.8 0 0 1 2.08 7.1q0 2.4-1.1 5.07a19 19 0 0 1-3.06 5.02 16.3 16.3 0 0 1-12.33 5.45q-2.67 0-4.34-.28-1.68-.27-5.05-1.7a74 74 0 0 1-8.32-4.33l-11.1-6.94a31 31 0 0 0-4.12-2.06q-2.25-.93-3.93-.93-3.72 0-6.7 1.5ZM94.52 177.48v-2.55l12.96-1.35 8.73-2.3 1.17 1.8v44.73q0 3.66.77 6.27.78 2.61 1.73 3.87.98 1.26 2.42 1.98 1.46.7 2.27.8t1.8.1q4.34 0 7.95-5.49t3.63-13.47v-34.39h-7.61v-2.55l12.95-1.35 8.73-2.3 1.11 1.8v58.5l6.38.6v2.55h-19.46l-1.85-9.55h-.25a45 45 0 0 1-3.04 4 37 37 0 0 1-3.59 3.54 15 15 0 0 1-4.98 2.87q-2.82 1-6.05 1-2.22 0-4.33-.37-2.11-.38-4.75-1.64a14 14 0 0 1-4.51-3.41 18 18 0 0 1-3.22-6 28 28 0 0 1-1.33-9.1v-38.59ZM166.64 177.48v-2.55l12.96-1.35 8.73-2.3 1.1 1.8v58.5l6.4.6v2.55h-27.95v-2.55l6.39-.6v-54.1Zm6.75-28.19q0-1.72.66-3.21.66-1.5 1.76-2.61a8 8 0 0 1 5.77-2.36q1.66 0 3.16.65a9 9 0 0 1 2.62 1.77 8 8 0 0 1 2.45 5.76 8 8 0 0 1-.65 3.16 9 9 0 0 1-1.77 2.64 8 8 0 0 1-5.81 2.44 8.1 8.1 0 0 1-8.19-8.24M202.95 177.48v-2.55l12.95-1.35 8.74-2.3.86 1.8v10.67h.25a30 30 0 0 1 6.97-9.02 20 20 0 0 1 4.54-2.94 11.5 11.5 0 0 1 4.91-1.12q4.83 0 7.45 2.58 2.64 2.56 2.64 6.84 0 1.8-.56 3.31a7.46 7.46 0 0 1-7.23 5.05q-1.87 0-3.35-.6-1.49-.63-2.51-1.68a8 8 0 0 1-1.58-2.45 8 8 0 0 1-.56-3.02q0-3.28 1.37-4.83v-.37a10 10 0 0 0-4.37 2.36 18 18 0 0 0-3.88 5.04 31 31 0 0 0-2.8 7.7q-1.05 4.47-1.04 10.12v30.86l6.39.6v2.55h-27.95v-2.55l6.39-.6v-54.1ZM255.37 177.48v-2.55l12.96-1.35 8.73-2.3 1.17 1.8v44.73q0 3.66.77 6.27.78 2.61 1.73 3.87.98 1.26 2.42 1.98 1.46.7 2.27.8t1.8.1q4.34 0 7.95-5.49t3.63-13.47v-34.39h-7.61v-2.55l12.95-1.35 8.73-2.3 1.11 1.8v58.5l6.38.6v2.55H300.9l-1.85-9.55h-.25a45 45 0 0 1-3.04 4 37 37 0 0 1-3.59 3.54 15 15 0 0 1-4.98 2.87q-2.82 1-6.05 1-2.22 0-4.33-.37-2.11-.38-4.75-1.64a14 14 0 0 1-4.51-3.41 18 18 0 0 1-3.22-6 28 28 0 0 1-1.33-9.1v-38.59Zm27.4-15.98 6.87-19.7a6 6 0 0 1 5.58-4.29q2.36 0 3.97 1.69a5.7 5.7 0 0 1 1.6 4.08q0 2.99-1.92 4.95l-13.8 14.88ZM327.5 177.48v-2.55l12.95-1.35 8.73-2.3.86 1.8v10.67h.25a30 30 0 0 1 6.97-9.02 20 20 0 0 1 4.54-2.94 11.5 11.5 0 0 1 4.91-1.12q4.83 0 7.45 2.58 2.64 2.56 2.64 6.84 0 1.8-.56 3.31a7.46 7.46 0 0 1-7.23 5.05q-1.86 0-3.35-.6-1.48-.63-2.51-1.68a8 8 0 0 1-1.58-2.45 8 8 0 0 1-.56-3.02q0-3.28 1.37-4.83v-.37a10 10 0 0 0-4.37 2.36 18 18 0 0 0-3.88 5.04 31 31 0 0 0-2.8 7.7q-1.05 4.47-1.04 10.12v30.86l6.39.6v2.55h-27.95v-2.55l6.39-.6v-54.1ZM381.84 250.6a11.7 11.7 0 0 1 5.5-10.13 24 24 0 0 1 4.5-2.11 12 12 0 0 1 3.8-.72v-.13q-11.52-3.47-11.52-12.45 0-5.4 3.87-9.28a19.4 19.4 0 0 1 8.35-5.2v-.13a19 19 0 0 1-8.57-7.4 20.4 20.4 0 0 1-2.9-10.76q0-9.23 7.4-15.42 7.4-6.2 18.25-6.2 10.28 0 17.1 5.39 5-9.48 12.08-9.48 3.59 0 5.6 2.04a7.1 7.1 0 0 1 2.02 5.2q0 2.8-1.64 4.7a5.3 5.3 0 0 1-4.19 1.87q-2.85 0-4.6-1.58a5.5 5.5 0 0 1-1.77-4.36q0-1.92.69-3.05v-.23q-1.64.3-3.2 2.25a18 18 0 0 0-2.7 4.75q5.64 6 5.65 14a18.8 18.8 0 0 1-7.13 15.19q-7.12 5.87-18.03 5.87-6.09 0-10.9-1.55a17 17 0 0 0-5.84 3.25q-2.1 1.95-2.1 4.07 0 5.7 20.57 5.7 8.49 0 13.88.9t8.86 3.1a11.8 11.8 0 0 1 4.86 5.72q1.4 3.53 1.4 9.05 0 2.96-.97 5.93a19 19 0 0 1-3.21 5.9 24 24 0 0 1-5.61 5.13 28 28 0 0 1-8.52 3.6q-5.17 1.37-11.56 1.37-3.85 0-7.47-.3a53 53 0 0 1-7.78-1.32 32 32 0 0 1-7.16-2.53q-3-1.55-5.01-4.32a10.5 10.5 0 0 1-2-6.34m11.03-1.93q0 3.84 1.81 6.6a11.5 11.5 0 0 0 4.95 4.18q3.15 1.42 6.55 2.08 3.4.65 7.38.65 9.55 0 15.1-3.71 5.58-3.71 5.58-9.68 0-3.85-2.17-6.01t-6.22-2.88a58 58 0 0 0-8.2-.82l-9.92-.2a70 70 0 0 1-9.53-.74l-.07.06q-5.25 3.77-5.26 10.47m7.23-56.75q0 9 2.58 13.76t7.6 4.77q10.02 0 10.03-18.16 0-9.8-2.3-14.3-2.29-4.54-7.49-4.54-5.03 0-7.73 4.84t-2.69 13.63M450.73 177.48v-2.55l12.96-1.35 8.73-2.3 1.1 1.8v58.5l6.4.6v2.55h-27.95v-2.55l6.39-.6v-54.1Zm6.75-28.19q0-1.72.66-3.21.65-1.5 1.76-2.61a8 8 0 0 1 5.77-2.36q1.66 0 3.16.65a9 9 0 0 1 2.62 1.77 8 8 0 0 1 2.45 5.76 8 8 0 0 1-.65 3.16 9 9 0 0 1-1.77 2.64 8 8 0 0 1-5.81 2.44 8.1 8.1 0 0 1-8.19-8.24M488.53 204q0-4.57 1.04-9.16a37 37 0 0 1 3.38-8.95 33 33 0 0 1 5.64-7.75 25 25 0 0 1 8.22-5.42 27 27 0 0 1 10.65-2.05q8.61 0 14.28 4.83t5.68 11.53q0 3.34-2.11 5.67-2.11 2.31-5.77 2.31a7.6 7.6 0 0 1-5.58-2.15 7.4 7.4 0 0 1-2.15-5.47q0-3.09 2-5.31a6.7 6.7 0 0 1 5.18-2.24q.43 0 1.55.13v-.32q-.76-1.23-1.78-2.3a13 13 0 0 0-3.5-2.34 12 12 0 0 0-5.5-1.25q-5.46 0-8.98 4.1-3.54 4.1-4.97 10.56a72 72 0 0 0-1.43 15.33q0 28.56 15.25 28.56 1.99 0 3.7-.33 1.68-.34 4-1.33 2.34-.99 4.63-3.36 2.3-2.35 4.4-5.95l2.42 1.44q-7.64 13.8-21.82 13.81-28.44 0-28.43-32.6M546.6 221.3q0-3.06.95-5.87a17 17 0 0 1 3.12-5.42 21 21 0 0 1 5.33-4.53q3.15-1.92 7.83-3.06a44 44 0 0 1 10.39-1.14q3.03 0 5.76.25v-8.56q0-4.08-.15-6.63-.16-2.55-.78-5.23-.62-2.7-1.77-4.14a8.5 8.5 0 0 0-3.22-2.43 12 12 0 0 0-5.04-.96q-9.06 0-13.2 7.12v.25q1.05-.19 1.91-.19 3.22 0 5.08 1.99 1.86 1.98 1.86 5.7 0 3.22-2.23 5.42a7.6 7.6 0 0 1-5.57 2.2q-3.64 0-5.76-2.48a8.7 8.7 0 0 1-2.11-5.83q0-7.3 6.72-12.2a25.7 25.7 0 0 1 15.47-4.9q6.18 0 10.54 1.3 4.38 1.3 6.97 3.44a14 14 0 0 1 4.07 5.83 30 30 0 0 1 1.92 7.53q.46 3.85.47 9.4v33.42l6.39.6v2.55h-19.7l-1.74-9.8h-.13q-3.02 5.9-7.34 8.79-4.31 2.87-10.44 2.87-7.55 0-11.6-4.51a15.7 15.7 0 0 1-4-10.79m14.98-1.32q0 4.95 1.86 8.03a6 6 0 0 0 5.45 3.07q4.21 0 7.66-5.27 3.43-5.25 3.43-12.9v-8.54q-2.48-.3-4.03-.31-3.22 0-5.73.87-2.5.87-4 2.36-1.5 1.5-2.49 3.13-.98 1.65-1.42 3.62-.42 1.98-.58 3.29-.15 1.3-.15 2.65M38.51 300.62q-3.52 0-6.09-1.25-2.56-1.26-3.87-3.53a10 10 0 0 1-1.33-5.26 15 15 0 0 1 1.81-7.33q1.8-3.31 5.16-5.27a15 15 0 0 1 7.73-1.95q2.91 0 5.16.92 2.25.9 3.45 2.61l-1.8 1.58q-2.31-2.83-7.01-2.83a12 12 0 0 0-6.3 1.64 11.3 11.3 0 0 0-4.2 4.4q-1.5 2.78-1.49 6.08 0 3.63 2.33 5.77t6.66 2.14q4.72 0 7.67-2.86l1.48 1.69a10.6 10.6 0 0 1-4.04 2.56q-2.45.9-5.32.9M55.06 282.25h2.45l-3.6 18.17h-2.44Zm2.28-3.97q-.71 0-1.19-.49-.45-.48-.46-1.14 0-.8.53-1.32.52-.55 1.36-.55.73 0 1.21.47t.49 1.1a1.9 1.9 0 0 1-1.94 1.93M66.07 285.56a7.5 7.5 0 0 1 3.05-2.6q1.84-.85 4.42-.85l-.45 2.39-.69-.03q-2.94 0-4.83 1.68-1.88 1.7-2.53 5.05l-1.83 9.22h-2.45l3.6-18.17h2.34ZM94.62 282.25l-3.63 18.17h-2.34l.58-2.9q-2.55 3.07-7.02 3.07-3.03 0-4.75-1.56-1.7-1.57-1.7-4.38 0-.96.2-2.04l2.08-10.36h2.45l-2.08 10.36a9 9 0 0 0-.17 1.62q0 2 1.16 3.08 1.15 1.08 3.47 1.08 2.9 0 4.8-1.63a8.2 8.2 0 0 0 2.56-4.73l1.93-9.78ZM118.32 282.25l-3.19 15.95q-.92 4.78-3.5 6.94-2.57 2.15-7.06 2.15-2.56 0-4.62-.71a10 10 0 0 1-3.47-2.02l1.45-1.86q1.1 1.14 2.9 1.78 1.77.64 3.91.64 3.42 0 5.32-1.6 1.9-1.59 2.56-4.9l.42-2a9 9 0 0 1-3.17 2.3q-1.85.81-4.1.81-3.61 0-5.82-1.97-2.2-1.97-2.2-5.36 0-2.9 1.34-5.25a10 10 0 0 1 3.7-3.68 10.5 10.5 0 0 1 5.34-1.36q2.58 0 4.44 1.06a5.8 5.8 0 0 1 2.64 3.08l.75-4Zm-12.06 15.3q2.25 0 4.06-1.04a7.3 7.3 0 0 0 2.83-2.86 8 8 0 0 0 1.03-4.1 4.9 4.9 0 0 0-1.6-3.9q-1.58-1.4-4.41-1.4-2.3 0-4.08 1.04a7.5 7.5 0 0 0-2.83 2.86 8.3 8.3 0 0 0-1.02 4.11q0 2.49 1.6 3.9 1.59 1.38 4.42 1.38M125.16 282.25h2.46l-3.6 18.17h-2.45Zm4.74-7.11h3.34l-6.03 4.28h-2.56ZM151.07 282.25l-3.63 18.17h-2.34l.58-2.88a9.2 9.2 0 0 1-7.08 3.05q-2.31 0-4.11-.92a6.7 6.7 0 0 1-2.8-2.69 8 8 0 0 1-1-4.1q0-3.07 1.33-5.52a10 10 0 0 1 3.67-3.85q2.36-1.4 5.27-1.4a8.5 8.5 0 0 1 4.34 1.03 6 6 0 0 1 2.57 2.9l.75-3.8Zm-11.95 16.17a7.6 7.6 0 0 0 6.85-4.13 9.3 9.3 0 0 0 1.02-4.37q0-2.66-1.58-4.16-1.56-1.5-4.39-1.51a7.6 7.6 0 0 0-6.86 4.17 9 9 0 0 0-1.01 4.36q0 2.68 1.56 4.15 1.58 1.5 4.4 1.49M178.58 278.31q-3.6 0-6.36 1.62a11 11 0 0 0-4.27 4.4q-1.5 2.76-1.5 6.1 0 3.63 2.33 5.77t6.72 2.14q3.48 0 6.19-1.89l1.62-8.12h2.46l-1.88 9.3a13 13 0 0 1-3.95 2.21q-2.27.78-4.7.78a14 14 0 0 1-6.07-1.23q-2.55-1.25-3.89-3.53a10 10 0 0 1-1.34-5.28 15 15 0 0 1 1.81-7.33q1.8-3.31 5.16-5.27a15 15 0 0 1 7.78-1.95q3.03 0 5.33.92a8.5 8.5 0 0 1 3.64 2.61l-1.8 1.55a7 7 0 0 0-3.03-2.13 12 12 0 0 0-4.25-.67M192.33 292.03q-.03.23-.03.72 0 2.76 1.56 4.22 1.59 1.44 4.7 1.45 1.78 0 3.35-.61a7 7 0 0 0 2.58-1.67l1.1 1.76a9 9 0 0 1-3.2 1.99q-1.9.7-4.04.7-3.95 0-6.2-2.06-2.28-2.08-2.27-5.67 0-3.05 1.3-5.5a9.7 9.7 0 0 1 8.75-5.25q3.62 0 5.76 2.06 2.16 2.06 2.16 5.64 0 1-.25 2.22Zm7.53-7.85q-2.73 0-4.67 1.63a8.2 8.2 0 0 0-2.62 4.39h12.95q.05-.24.05-.66 0-2.55-1.57-3.95a6 6 0 0 0-4.14-1.4M223.39 282.1q3.07 0 4.78 1.58a5.6 5.6 0 0 1 1.72 4.33q0 .97-.22 2.08l-2.06 10.33h-2.45l2.07-10.36q.18-.96.18-1.66 0-1.95-1.2-3.01t-3.5-1.06q-2.95 0-4.85 1.6t-2.55 4.74l-1.94 9.75h-2.45l3.6-18.17h2.34l-.58 2.9q2.58-3.04 7.11-3.04M236.66 292.03q-.03.23-.03.72 0 2.76 1.56 4.22 1.58 1.44 4.7 1.45 1.78 0 3.35-.61a7 7 0 0 0 2.58-1.67l1.1 1.76a9 9 0 0 1-3.2 1.99q-1.9.7-4.04.7-3.95 0-6.2-2.06-2.28-2.08-2.27-5.67 0-3.05 1.3-5.5a9.7 9.7 0 0 1 8.75-5.25q3.61 0 5.76 2.06 2.16 2.06 2.16 5.64 0 1-.25 2.22Zm7.53-7.85q-2.73 0-4.67 1.63a8.2 8.2 0 0 0-2.62 4.39h12.95q.05-.24.05-.66 0-2.55-1.57-3.95a6 6 0 0 0-4.14-1.4M260.56 285.56a7.5 7.5 0 0 1 3.05-2.6q1.84-.85 4.42-.85l-.45 2.39-.69-.03q-2.94 0-4.83 1.68-1.88 1.7-2.53 5.05l-1.83 9.22h-2.45l3.6-18.17h2.34ZM288.86 282.25l-3.63 18.17h-2.34l.58-2.88a9.2 9.2 0 0 1-7.08 3.05q-2.31 0-4.1-.92a6.7 6.7 0 0 1-2.8-2.69 8 8 0 0 1-1-4.1q0-3.07 1.32-5.52a10 10 0 0 1 3.67-3.85q2.36-1.4 5.27-1.4a8.5 8.5 0 0 1 4.34 1.03 6 6 0 0 1 2.57 2.9l.75-3.8Zm-11.95 16.17a7.6 7.6 0 0 0 6.86-4.13 9.3 9.3 0 0 0 1.01-4.37q0-2.66-1.58-4.16-1.56-1.5-4.39-1.51a7.6 7.6 0 0 0-6.86 4.17 9 9 0 0 0-1.01 4.36q0 2.68 1.56 4.15 1.58 1.5 4.4 1.49M297.2 274.78h2.44l-5.1 25.64h-2.46ZM329.32 282.25l-13.27 20.51q-1.65 2.57-3.1 3.55-1.46.99-3.46.98a7 7 0 0 1-2.48-.43 4 4 0 0 1-1.83-1.2l1.31-1.79a4.2 4.2 0 0 0 3.2 1.31q1.22 0 2.2-.65a8 8 0 0 0 2-2.28l1.27-1.94-4.53-18.06h2.49l3.76 15.48 9.92-15.48ZM343.57 276.23h2.51l-4.39 21.97h13.55l-.45 2.22h-16.07ZM378.49 282.25l-3.63 18.17h-2.34l.57-2.88a9.2 9.2 0 0 1-7.07 3.05q-2.33 0-4.11-.92a6.7 6.7 0 0 1-2.8-2.69 8 8 0 0 1-1-4.1q0-3.07 1.33-5.52a10 10 0 0 1 3.67-3.85q2.36-1.4 5.27-1.4a8.5 8.5 0 0 1 4.34 1.03 6 6 0 0 1 2.56 2.9l.75-3.8Zm-11.96 16.17a7.6 7.6 0 0 0 6.86-4.13 9.3 9.3 0 0 0 1.02-4.37q0-2.66-1.58-4.16-1.56-1.5-4.4-1.51a7.6 7.6 0 0 0-6.85 4.17 9 9 0 0 0-1.02 4.36q0 2.68 1.57 4.15 1.58 1.5 4.4 1.49M394.15 282.1q2.3 0 4.12.94a7 7 0 0 1 2.81 2.68q1 1.71 1 4.06 0 3.07-1.32 5.55a9.9 9.9 0 0 1-8.96 5.26 8.6 8.6 0 0 1-4.36-1.01 6 6 0 0 1-2.56-2.96l-2.06 10.5h-2.46l4.94-24.87h2.35l-.58 2.9a9 9 0 0 1 3.1-2.26 10 10 0 0 1 3.98-.78m-2.4 16.32a7.5 7.5 0 0 0 6.83-4.11 9.3 9.3 0 0 0 1.02-4.4q0-2.64-1.58-4.15-1.56-1.5-4.39-1.51-2.25 0-4.03 1.1a7.6 7.6 0 0 0-2.8 3.04 9 9 0 0 0-1.01 4.39q0 2.68 1.56 4.15 1.58 1.5 4.4 1.49M425.34 282.25l-3.63 18.17h-2.34l.58-2.88a9.2 9.2 0 0 1-7.08 3.05q-2.32 0-4.11-.92a6.7 6.7 0 0 1-2.8-2.69 8 8 0 0 1-1-4.1q0-3.07 1.33-5.52a10 10 0 0 1 3.67-3.85q2.36-1.4 5.27-1.4a8.5 8.5 0 0 1 4.34 1.03 6 6 0 0 1 2.56 2.9l.75-3.8Zm-11.96 16.17a7.6 7.6 0 0 0 6.86-4.13 9.3 9.3 0 0 0 1.02-4.37q0-2.66-1.58-4.16-1.56-1.5-4.39-1.51a7.6 7.6 0 0 0-6.86 4.17 9 9 0 0 0-1.01 4.36q0 2.68 1.56 4.15 1.58 1.5 4.4 1.49M433.87 285.56a7.5 7.5 0 0 1 3.05-2.6q1.84-.85 4.42-.85l-.45 2.39-.69-.03q-2.94 0-4.83 1.68-1.88 1.7-2.53 5.05l-1.83 9.22h-2.45l3.6-18.17h2.34ZM450.04 300.6q-2.47 0-4.36-.96a7 7 0 0 1-2.87-2.69 8 8 0 0 1-1.02-4.06q0-3.08 1.35-5.53a10 10 0 0 1 3.75-3.85q2.4-1.4 5.4-1.4 3.8 0 6.02 2.07 2.23 2.07 2.23 5.6 0 3.07-1.34 5.55a10 10 0 0 1-3.75 3.87q-2.4 1.4-5.4 1.4m.18-2.18a7.6 7.6 0 0 0 6.86-4.13 9.3 9.3 0 0 0 1.01-4.37q0-2.66-1.58-4.16-1.56-1.5-4.39-1.51a7.6 7.6 0 0 0-6.86 4.17 9 9 0 0 0-1.01 4.36q0 2.68 1.56 4.15 1.58 1.5 4.4 1.49M468.91 300.6q-2.18 0-4.16-.63a8 8 0 0 1-3.06-1.58l1.17-1.94q1.05.9 2.74 1.45 1.68.55 3.56.55 2.6 0 3.99-.84a2.7 2.7 0 0 0 1.4-2.41q0-.86-.58-1.37-.56-.52-1.39-.8t-2.42-.63q-1.9-.4-3.08-.82a5 5 0 0 1-2-1.32 3.5 3.5 0 0 1-.83-2.48q0-2.59 2.15-4.13 2.13-1.54 5.73-1.54 1.76 0 3.44.47 1.66.46 2.7 1.23l-1.03 1.97q-1.03-.77-2.44-1.16-1.4-.4-2.87-.4-2.5 0-3.9.9-1.37.9-1.37 2.4 0 .91.6 1.48.59.54 1.46.83.88.26 2.4.57 1.87.42 3.03.82 1.14.4 1.98 1.3.83.9.83 2.4 0 2.67-2.19 4.17t-5.86 1.5M488.74 300.6q-2.55 0-4.45-.96a7 7 0 0 1-2.92-2.69 8 8 0 0 1-1.02-4.06q0-3.08 1.35-5.53a10 10 0 0 1 3.76-3.85q2.42-1.4 5.46-1.4 2.52 0 4.34.92a6.5 6.5 0 0 1 2.81 2.7l-2.08 1.22q-1.55-2.7-5.28-2.7a7.6 7.6 0 0 0-6.89 4.15 9 9 0 0 0-1.01 4.38q0 2.68 1.56 4.15 1.58 1.5 4.48 1.49 1.77 0 3.27-.67t2.47-1.96l1.76 1.35a8 8 0 0 1-3.25 2.54q-2.01.91-4.36.91M507.74 300.6q-2.48 0-4.35-.96a7 7 0 0 1-2.88-2.69 8 8 0 0 1-1.02-4.06q0-3.08 1.35-5.53a10 10 0 0 1 3.75-3.85q2.4-1.4 5.4-1.4 3.8 0 6.02 2.07 2.23 2.07 2.23 5.6 0 3.07-1.34 5.55a10 10 0 0 1-3.75 3.87q-2.4 1.4-5.4 1.4m.18-2.18a7.6 7.6 0 0 0 6.86-4.13 9.3 9.3 0 0 0 1.01-4.37q0-2.66-1.58-4.16-1.56-1.5-4.39-1.51a7.6 7.6 0 0 0-6.86 4.17 9 9 0 0 0-1.01 4.36q0 2.68 1.56 4.15 1.58 1.5 4.4 1.49m6.18-23.28h3.35l-6.03 4.28h-2.57ZM533.77 282.1q2.3 0 4.12.94a7 7 0 0 1 2.82 2.68q1 1.71 1 4.06 0 3.07-1.33 5.55a9.9 9.9 0 0 1-8.96 5.26 8.6 8.6 0 0 1-4.36-1.01 6 6 0 0 1-2.56-2.96l-2.06 10.5h-2.45l4.93-24.87h2.35l-.58 2.9a9 9 0 0 1 3.1-2.26 10 10 0 0 1 3.98-.78m-2.4 16.32a7.5 7.5 0 0 0 6.84-4.11 9.3 9.3 0 0 0 1.01-4.4q0-2.64-1.58-4.15-1.56-1.5-4.39-1.51-2.25 0-4.03 1.1a7.6 7.6 0 0 0-2.8 3.04 9 9 0 0 0-1.01 4.39q0 2.68 1.56 4.15 1.58 1.5 4.4 1.49M548.35 282.25h2.45l-3.6 18.17h-2.44Zm2.28-3.97q-.72 0-1.19-.49-.46-.48-.47-1.14 0-.8.54-1.32.52-.55 1.36-.55.73 0 1.21.47.49.47.49 1.1a1.9 1.9 0 0 1-1.94 1.93M562.27 300.6q-2.55 0-4.45-.96a7 7 0 0 1-2.93-2.69 8 8 0 0 1-1.01-4.06q0-3.08 1.34-5.53a10 10 0 0 1 3.77-3.85q2.42-1.4 5.45-1.4 2.53 0 4.34.92a6.5 6.5 0 0 1 2.82 2.7l-2.08 1.22q-1.55-2.7-5.28-2.7a7.6 7.6 0 0 0-6.9 4.15 9 9 0 0 0-1 4.38q0 2.68 1.55 4.15 1.58 1.5 4.49 1.49 1.76 0 3.26-.67t2.47-1.96l1.77 1.35a8 8 0 0 1-3.25 2.54q-2.02.91-4.36.91M593.4 282.25l-3.63 18.17h-2.34l.57-2.88a9.2 9.2 0 0 1-7.07 3.05q-2.32 0-4.11-.92a6.7 6.7 0 0 1-2.8-2.69 8 8 0 0 1-1-4.1q0-3.07 1.33-5.52a10 10 0 0 1 3.67-3.85q2.36-1.4 5.27-1.4a8.5 8.5 0 0 1 4.34 1.03 6 6 0 0 1 2.56 2.9l.75-3.8Zm-11.96 16.17a7.6 7.6 0 0 0 6.86-4.13 9.3 9.3 0 0 0 1.02-4.37q0-2.66-1.58-4.16-1.55-1.5-4.4-1.51a7.6 7.6 0 0 0-6.85 4.17 9 9 0 0 0-1.02 4.36q0 2.68 1.57 4.15 1.58 1.5 4.4 1.49m0 0"/></g></svg>